G04*
G04 #@! TF.GenerationSoftware,Altium Limited,Altium Designer,22.8.2 (66)*
G04*
G04 Layer_Color=2752767*
%FSLAX44Y44*%
%MOMM*%
G71*
G04*
G04 #@! TF.SameCoordinates,B0619A4A-581E-4249-BB79-A942B5E0D796*
G04*
G04*
G04 #@! TF.FilePolarity,Positive*
G04*
G01*
G75*
%ADD13C,0.2540*%
%ADD16C,0.0254*%
%ADD17C,0.0500*%
%ADD120C,0.0508*%
%ADD121C,0.0677*%
D13*
X700000Y0D02*
G03*
X733500Y33500I0J33500D01*
G01*
X0Y25000D02*
G03*
X25000Y0I25000J0D01*
G01*
X41400Y1216400D02*
G03*
X0Y1175000I0J-41400D01*
G01*
X733500Y1166500D02*
G03*
X683600Y1216400I-49900J0D01*
G01*
X0Y25000D02*
Y1175000D01*
X25000Y0D02*
X700000D01*
X733500Y33500D02*
Y1166500D01*
X41400Y1216400D02*
X683600D01*
D16*
X446547Y460248D02*
Y584454D01*
D17*
X353250Y588476D02*
X433145D01*
X353250Y456438D02*
Y588476D01*
Y456438D02*
X433145D01*
Y588476D01*
D120*
X59944Y301924D02*
Y300908D01*
X61976D01*
Y301924D01*
X62992D01*
Y303956D01*
X61976D01*
Y304972D01*
X59944D01*
Y303956D01*
X58928D01*
Y301924D01*
X59944D01*
X174244Y477324D02*
Y476308D01*
X176276D01*
Y477324D01*
X177292D01*
Y479356D01*
X176276D01*
Y480372D01*
X174244D01*
Y479356D01*
X173228D01*
Y477324D01*
X174244D01*
Y126524D02*
Y125508D01*
X176276D01*
Y126524D01*
X177292D01*
Y128556D01*
X176276D01*
Y129572D01*
X174244D01*
Y128556D01*
X173228D01*
Y126524D01*
X174244D01*
X183428Y189558D02*
X184444D01*
X185460Y190574D01*
X186476Y189558D01*
X187492D01*
Y190574D01*
X186476Y191590D01*
X187492Y192606D01*
Y193622D01*
X186476D01*
X185460Y192606D01*
X184444Y193622D01*
X183428D01*
Y192606D01*
X184444Y191590D01*
X183428Y190574D01*
Y189558D01*
Y234058D02*
X184444D01*
X185460Y235074D01*
X186476Y234058D01*
X187492D01*
Y235074D01*
X186476Y236090D01*
X187492Y237106D01*
Y238122D01*
X186476D01*
X185460Y237106D01*
X184444Y238122D01*
X183428D01*
Y237106D01*
X184444Y236090D01*
X183428Y235074D01*
Y234058D01*
Y278558D02*
X184444D01*
X185460Y279574D01*
X186476Y278558D01*
X187492D01*
Y279574D01*
X186476Y280590D01*
X187492Y281606D01*
Y282622D01*
X186476D01*
X185460Y281606D01*
X184444Y282622D01*
X183428D01*
Y281606D01*
X184444Y280590D01*
X183428Y279574D01*
Y278558D01*
Y323058D02*
X184444D01*
X185460Y324074D01*
X186476Y323058D01*
X187492D01*
Y324074D01*
X186476Y325090D01*
X187492Y326106D01*
Y327122D01*
X186476D01*
X185460Y326106D01*
X184444Y327122D01*
X183428D01*
Y326106D01*
X184444Y325090D01*
X183428Y324074D01*
Y323058D01*
Y367558D02*
X184444D01*
X185460Y368574D01*
X186476Y367558D01*
X187492D01*
Y368574D01*
X186476Y369590D01*
X187492Y370606D01*
Y371622D01*
X186476D01*
X185460Y370606D01*
X184444Y371622D01*
X183428D01*
Y370606D01*
X184444Y369590D01*
X183428Y368574D01*
Y367558D01*
Y412058D02*
X184444D01*
X185460Y413074D01*
X186476Y412058D01*
X187492D01*
Y413074D01*
X186476Y414090D01*
X187492Y415106D01*
Y416122D01*
X186476D01*
X185460Y415106D01*
X184444Y416122D01*
X183428D01*
Y415106D01*
X184444Y414090D01*
X183428Y413074D01*
Y412058D01*
X119928D02*
X120944D01*
X121960Y413074D01*
X122976Y412058D01*
X123992D01*
Y413074D01*
X122976Y414090D01*
X123992Y415106D01*
Y416122D01*
X122976D01*
X121960Y415106D01*
X120944Y416122D01*
X119928D01*
Y415106D01*
X120944Y414090D01*
X119928Y413074D01*
Y412058D01*
Y367558D02*
X120944D01*
X121960Y368574D01*
X122976Y367558D01*
X123992D01*
Y368574D01*
X122976Y369590D01*
X123992Y370606D01*
Y371622D01*
X122976D01*
X121960Y370606D01*
X120944Y371622D01*
X119928D01*
Y370606D01*
X120944Y369590D01*
X119928Y368574D01*
Y367558D01*
Y323058D02*
X120944D01*
X121960Y324074D01*
X122976Y323058D01*
X123992D01*
Y324074D01*
X122976Y325090D01*
X123992Y326106D01*
Y327122D01*
X122976D01*
X121960Y326106D01*
X120944Y327122D01*
X119928D01*
Y326106D01*
X120944Y325090D01*
X119928Y324074D01*
Y323058D01*
Y278558D02*
X120944D01*
X121960Y279574D01*
X122976Y278558D01*
X123992D01*
Y279574D01*
X122976Y280590D01*
X123992Y281606D01*
Y282622D01*
X122976D01*
X121960Y281606D01*
X120944Y282622D01*
X119928D01*
Y281606D01*
X120944Y280590D01*
X119928Y279574D01*
Y278558D01*
Y234058D02*
X120944D01*
X121960Y235074D01*
X122976Y234058D01*
X123992D01*
Y235074D01*
X122976Y236090D01*
X123992Y237106D01*
Y238122D01*
X122976D01*
X121960Y237106D01*
X120944Y238122D01*
X119928D01*
Y237106D01*
X120944Y236090D01*
X119928Y235074D01*
Y234058D01*
Y189558D02*
X120944D01*
X121960Y190574D01*
X122976Y189558D01*
X123992D01*
Y190574D01*
X122976Y191590D01*
X123992Y192606D01*
Y193622D01*
X122976D01*
X121960Y192606D01*
X120944Y193622D01*
X119928D01*
Y192606D01*
X120944Y191590D01*
X119928Y190574D01*
Y189558D01*
X675484Y1158734D02*
Y1157718D01*
X677516D01*
Y1158734D01*
X678532D01*
Y1160766D01*
X677516D01*
Y1161782D01*
X675484D01*
Y1160766D01*
X674468D01*
Y1158734D01*
X675484D01*
X674484Y55234D02*
Y54218D01*
X676516D01*
Y55234D01*
X677532D01*
Y57266D01*
X676516D01*
Y58282D01*
X674484D01*
Y57266D01*
X673468D01*
Y55234D01*
X674484D01*
X328168Y842518D02*
Y846582D01*
X332232D01*
Y842518D01*
X328168D01*
X302768D02*
Y846582D01*
X306832D01*
Y842518D01*
X302768D01*
X277368D02*
Y846582D01*
X281432D01*
Y842518D01*
X277368D01*
X23368Y656590D02*
Y660654D01*
X27432D01*
Y656590D01*
X23368D01*
Y681990D02*
Y686054D01*
X27432D01*
Y681990D01*
X23368D01*
Y707390D02*
Y711454D01*
X27432D01*
Y707390D01*
X23368D01*
X175126Y840538D02*
Y844602D01*
X179190D01*
Y840538D01*
X175126D01*
Y815138D02*
Y819202D01*
X179190D01*
Y815138D01*
X175126D01*
X200526Y840538D02*
Y844602D01*
X204590D01*
Y840538D01*
X200526D01*
Y815138D02*
Y819202D01*
X204590D01*
Y815138D01*
X200526D01*
X225926Y840538D02*
Y844602D01*
X229990D01*
Y840538D01*
X225926D01*
Y815138D02*
Y819202D01*
X229990D01*
Y815138D01*
X225926D01*
X481278Y368808D02*
Y372872D01*
X485342D01*
Y368808D01*
X481278D01*
X455878D02*
Y372872D01*
X459942D01*
Y368808D01*
X455878D01*
X481278Y343408D02*
Y347472D01*
X485342D01*
Y343408D01*
X481278D01*
X455878D02*
Y347472D01*
X459942D01*
Y343408D01*
X455878D01*
X481278Y318008D02*
Y322072D01*
X485342D01*
Y318008D01*
X481278D01*
X455878D02*
Y322072D01*
X459942D01*
Y318008D01*
X455878D01*
X561300Y1161268D02*
X562316Y1162284D01*
X563332D01*
X562316Y1163300D01*
X563332Y1164316D01*
X562316D01*
X561300Y1165332D01*
X560284Y1164316D01*
X559268D01*
X560284Y1163300D01*
X559268Y1162284D01*
X560284D01*
X561300Y1161268D01*
X535900Y1186668D02*
X536916Y1187684D01*
X537932D01*
X536916Y1188700D01*
X537932Y1189716D01*
X536916D01*
X535900Y1190732D01*
X534884Y1189716D01*
X533868D01*
X534884Y1188700D01*
X533868Y1187684D01*
X534884D01*
X535900Y1186668D01*
X510500Y1161268D02*
X511516Y1162284D01*
X512532D01*
X511516Y1163300D01*
X512532Y1164316D01*
X511516D01*
X510500Y1165332D01*
X509484Y1164316D01*
X508468D01*
X509484Y1163300D01*
X508468Y1162284D01*
X509484D01*
X510500Y1161268D01*
X292100Y988568D02*
X293116Y989584D01*
X294132D01*
X293116Y990600D01*
X294132Y991616D01*
X293116D01*
X292100Y992632D01*
X291084Y991616D01*
X290068D01*
X291084Y990600D01*
X290068Y989584D01*
X291084D01*
X292100Y988568D01*
X317500Y1013968D02*
X318516Y1014984D01*
X319532D01*
X318516Y1016000D01*
X319532Y1017016D01*
X318516D01*
X317500Y1018032D01*
X316484Y1017016D01*
X315468D01*
X316484Y1016000D01*
X315468Y1014984D01*
X316484D01*
X317500Y1013968D01*
X292100Y1039368D02*
X293116Y1040384D01*
X294132D01*
X293116Y1041400D01*
X294132Y1042416D01*
X293116D01*
X292100Y1043432D01*
X291084Y1042416D01*
X290068D01*
X291084Y1041400D01*
X290068Y1040384D01*
X291084D01*
X292100Y1039368D01*
X292100Y886968D02*
X293116Y887984D01*
X294132D01*
X293116Y889000D01*
X294132Y890016D01*
X293116D01*
X292100Y891032D01*
X291084Y890016D01*
X290068D01*
X291084Y889000D01*
X290068Y887984D01*
X291084D01*
X292100Y886968D01*
X317500Y912368D02*
X318516Y913384D01*
X319532D01*
X318516Y914400D01*
X319532Y915416D01*
X318516D01*
X317500Y916432D01*
X316484Y915416D01*
X315468D01*
X316484Y914400D01*
X315468Y913384D01*
X316484D01*
X317500Y912368D01*
X292100Y937768D02*
X293116Y938784D01*
X294132D01*
X293116Y939800D01*
X294132Y940816D01*
X293116D01*
X292100Y941832D01*
X291084Y940816D01*
X290068D01*
X291084Y939800D01*
X290068Y938784D01*
X291084D01*
X292100Y937768D01*
X111252Y639572D02*
Y643636D01*
X115316D01*
Y639572D01*
X111252D01*
X60452D02*
Y643636D01*
X64516D01*
Y639572D01*
X60452D01*
Y715772D02*
Y719836D01*
X64516D01*
Y715772D01*
X60452D01*
X111252D02*
Y719836D01*
X115316D01*
Y715772D01*
X111252D01*
X162052D02*
Y719836D01*
X166116D01*
Y715772D01*
X162052D01*
Y639572D02*
Y643636D01*
X166116D01*
Y639572D01*
X162052D01*
X238252D02*
Y643636D01*
X242316D01*
Y639572D01*
X238252D01*
Y715772D02*
Y719836D01*
X242316D01*
Y715772D01*
X238252D01*
X613288Y1084306D02*
X611256Y1088370D01*
X615320D01*
X613288Y1084306D01*
X587888D02*
X585856Y1088370D01*
X589920D01*
X587888Y1084306D01*
X562488D02*
X560456Y1088370D01*
X564520D01*
X562488Y1084306D01*
X60452Y1016508D02*
Y1015492D01*
X62484D01*
Y1016508D01*
X63500D01*
Y1018540D01*
X62484D01*
Y1019556D01*
X60452D01*
Y1018540D01*
X59436D01*
Y1016508D01*
X60452D01*
X174452Y1126008D02*
Y1124992D01*
X176484D01*
Y1126008D01*
X177500D01*
Y1128040D01*
X176484D01*
Y1129056D01*
X174452D01*
Y1128040D01*
X173436D01*
Y1126008D01*
X174452D01*
X174752Y907958D02*
Y906942D01*
X176784D01*
Y907958D01*
X177800D01*
Y909990D01*
X176784D01*
Y911006D01*
X174752D01*
Y909990D01*
X173736D01*
Y907958D01*
X174752D01*
X183936Y970992D02*
X184952D01*
X185968Y972008D01*
X186984Y970992D01*
X188000D01*
Y972008D01*
X186984Y973024D01*
X188000Y974040D01*
Y975056D01*
X186984D01*
X185968Y974040D01*
X184952Y975056D01*
X183936D01*
Y974040D01*
X184952Y973024D01*
X183936Y972008D01*
Y970992D01*
Y1015492D02*
X184952D01*
X185968Y1016508D01*
X186984Y1015492D01*
X188000D01*
Y1016508D01*
X186984Y1017524D01*
X188000Y1018540D01*
Y1019556D01*
X186984D01*
X185968Y1018540D01*
X184952Y1019556D01*
X183936D01*
Y1018540D01*
X184952Y1017524D01*
X183936Y1016508D01*
Y1015492D01*
Y1059992D02*
X184952D01*
X185968Y1061008D01*
X186984Y1059992D01*
X188000D01*
Y1061008D01*
X186984Y1062024D01*
X188000Y1063040D01*
Y1064056D01*
X186984D01*
X185968Y1063040D01*
X184952Y1064056D01*
X183936D01*
Y1063040D01*
X184952Y1062024D01*
X183936Y1061008D01*
Y1059992D01*
X120436D02*
X121452D01*
X122468Y1061008D01*
X123484Y1059992D01*
X124500D01*
Y1061008D01*
X123484Y1062024D01*
X124500Y1063040D01*
Y1064056D01*
X123484D01*
X122468Y1063040D01*
X121452Y1064056D01*
X120436D01*
Y1063040D01*
X121452Y1062024D01*
X120436Y1061008D01*
Y1059992D01*
Y1015492D02*
X121452D01*
X122468Y1016508D01*
X123484Y1015492D01*
X124500D01*
Y1016508D01*
X123484Y1017524D01*
X124500Y1018540D01*
Y1019556D01*
X123484D01*
X122468Y1018540D01*
X121452Y1019556D01*
X120436D01*
Y1018540D01*
X121452Y1017524D01*
X120436Y1016508D01*
Y1015492D01*
Y970992D02*
X121452D01*
X122468Y972008D01*
X123484Y970992D01*
X124500D01*
Y972008D01*
X123484Y973024D01*
X124500Y974040D01*
Y975056D01*
X123484D01*
X122468Y974040D01*
X121452Y975056D01*
X120436D01*
Y974040D01*
X121452Y973024D01*
X120436Y972008D01*
Y970992D01*
X708608Y443738D02*
Y447802D01*
X712672D01*
Y443738D01*
X708608D01*
Y418338D02*
Y422402D01*
X712672D01*
Y418338D01*
X708608D01*
Y392938D02*
Y397002D01*
X712672D01*
Y392938D01*
X708608D01*
Y367538D02*
Y371602D01*
X712672D01*
Y367538D01*
X708608D01*
X693467Y703968D02*
Y708032D01*
X697532D01*
Y703968D01*
X693467D01*
X694483Y704984D02*
Y707016D01*
X696516D01*
Y704984D01*
X694483D01*
X708467Y673968D02*
Y678032D01*
X712532D01*
Y673968D01*
X708467D01*
X709483Y674984D02*
Y677016D01*
X711516D01*
Y674984D01*
X709483D01*
X693467Y643968D02*
Y648032D01*
X697532D01*
Y643968D01*
X693467D01*
X694483Y644984D02*
Y647016D01*
X696516D01*
Y644984D01*
X694483D01*
X708467Y613968D02*
Y618032D01*
X712532D01*
Y613968D01*
X708467D01*
X709483Y614984D02*
Y617016D01*
X711516D01*
Y614984D01*
X709483D01*
X708467Y553968D02*
Y558032D01*
X712532D01*
Y553968D01*
X708467D01*
X709483Y554984D02*
Y557016D01*
X711516D01*
Y554984D01*
X709483D01*
X693467Y523968D02*
Y528032D01*
X697532D01*
Y523968D01*
X693467D01*
X694483Y524984D02*
Y527016D01*
X696516D01*
Y524984D01*
X694483D01*
X708467Y493968D02*
Y498032D01*
X712532D01*
Y493968D01*
X708467D01*
X709483Y494984D02*
Y497016D01*
X711516D01*
Y494984D01*
X709483D01*
X693467Y463968D02*
Y468032D01*
X697532D01*
Y463968D01*
X693467D01*
X694483Y464984D02*
Y467016D01*
X696516D01*
Y464984D01*
X694483D01*
X693467Y403968D02*
Y408032D01*
X697532D01*
Y403968D01*
X693467D01*
X694483Y404984D02*
Y407016D01*
X696516D01*
Y404984D01*
X694483D01*
X708467Y313968D02*
Y318032D01*
X712532D01*
Y313968D01*
X708467D01*
X709483Y314984D02*
Y317016D01*
X711516D01*
Y314984D01*
X709483D01*
X693467Y283968D02*
Y288032D01*
X697532D01*
Y283968D01*
X693467D01*
X694483Y284984D02*
Y287016D01*
X696516D01*
Y284984D01*
X694483D01*
X708467Y253968D02*
Y258032D01*
X712532D01*
Y253968D01*
X708467D01*
X709483Y254984D02*
Y257016D01*
X711516D01*
Y254984D01*
X709483D01*
X678467Y673968D02*
Y678032D01*
X682532D01*
Y673968D01*
X678467D01*
X679483Y674984D02*
Y677016D01*
X681516D01*
Y674984D01*
X679483D01*
X678467Y553968D02*
Y558032D01*
X682532D01*
Y553968D01*
X678467D01*
X679483Y554984D02*
Y557016D01*
X681516D01*
Y554984D01*
X679483D01*
X678467Y493968D02*
Y498032D01*
X682532D01*
Y493968D01*
X678467D01*
X679483Y494984D02*
Y497016D01*
X681516D01*
Y494984D01*
X679483D01*
X663467Y283968D02*
Y288032D01*
X667532D01*
Y283968D01*
X663467D01*
X664483Y284984D02*
Y287016D01*
X666516D01*
Y284984D01*
X664483D01*
X663467Y223968D02*
Y228032D01*
X667532D01*
Y223968D01*
X663467D01*
X664483Y224984D02*
Y227016D01*
X666516D01*
Y224984D01*
X664483D01*
X648467Y673968D02*
Y678032D01*
X652532D01*
Y673968D01*
X648467D01*
X649483Y674984D02*
Y677016D01*
X651516D01*
Y674984D01*
X649483D01*
X633467Y643968D02*
Y648032D01*
X637532D01*
Y643968D01*
X633467D01*
X634483Y644984D02*
Y647016D01*
X636516D01*
Y644984D01*
X634483D01*
X648467Y613968D02*
Y618032D01*
X652532D01*
Y613968D01*
X648467D01*
X649483Y614984D02*
Y617016D01*
X651516D01*
Y614984D01*
X649483D01*
X633467Y583968D02*
Y588032D01*
X637532D01*
Y583968D01*
X633467D01*
X634483Y584984D02*
Y587016D01*
X636516D01*
Y584984D01*
X634483D01*
X648467Y493968D02*
Y498032D01*
X652532D01*
Y493968D01*
X648467D01*
X649483Y494984D02*
Y497016D01*
X651516D01*
Y494984D01*
X649483D01*
X633467Y283968D02*
Y288032D01*
X637532D01*
Y283968D01*
X633467D01*
X634483Y284984D02*
Y287016D01*
X636516D01*
Y284984D01*
X634483D01*
X648467Y253968D02*
Y258032D01*
X652532D01*
Y253968D01*
X648467D01*
X649483Y254984D02*
Y257016D01*
X651516D01*
Y254984D01*
X649483D01*
X633467Y223968D02*
Y228032D01*
X637532D01*
Y223968D01*
X633467D01*
X634483Y224984D02*
Y227016D01*
X636516D01*
Y224984D01*
X634483D01*
X603467Y283968D02*
Y288032D01*
X607532D01*
Y283968D01*
X603467D01*
X604483Y284984D02*
Y287016D01*
X606516D01*
Y284984D01*
X604483D01*
X588467Y493968D02*
Y498032D01*
X592532D01*
Y493968D01*
X588467D01*
X589483Y494984D02*
Y497016D01*
X591516D01*
Y494984D01*
X589483D01*
X573467Y283968D02*
Y288032D01*
X577532D01*
Y283968D01*
X573467D01*
X574483Y284984D02*
Y287016D01*
X576516D01*
Y284984D01*
X574483D01*
X588467Y253968D02*
Y258032D01*
X592532D01*
Y253968D01*
X588467D01*
X589483Y254984D02*
Y257016D01*
X591516D01*
Y254984D01*
X589483D01*
X558467Y673968D02*
Y678032D01*
X562532D01*
Y673968D01*
X558467D01*
X559483Y674984D02*
Y677016D01*
X561516D01*
Y674984D01*
X559483D01*
X558467Y313968D02*
Y318032D01*
X562532D01*
Y313968D01*
X558467D01*
X559483Y314984D02*
Y317016D01*
X561516D01*
Y314984D01*
X559483D01*
X543467Y283968D02*
Y288032D01*
X547532D01*
Y283968D01*
X543467D01*
X544483Y284984D02*
Y287016D01*
X546516D01*
Y284984D01*
X544483D01*
X543467Y223968D02*
Y228032D01*
X547532D01*
Y223968D01*
X543467D01*
X544483Y224984D02*
Y227016D01*
X546516D01*
Y224984D01*
X544483D01*
X528467Y313968D02*
Y318032D01*
X532532D01*
Y313968D01*
X528467D01*
X529483Y314984D02*
Y317016D01*
X531516D01*
Y314984D01*
X529483D01*
X513467Y283968D02*
Y288032D01*
X517532D01*
Y283968D01*
X513467D01*
X514483Y284984D02*
Y287016D01*
X516516D01*
Y284984D01*
X514483D01*
X528467Y253968D02*
Y258032D01*
X532532D01*
Y253968D01*
X528467D01*
X529483Y254984D02*
Y257016D01*
X531516D01*
Y254984D01*
X529483D01*
X513467Y223968D02*
Y228032D01*
X517532D01*
Y223968D01*
X513467D01*
X514483Y224984D02*
Y227016D01*
X516516D01*
Y224984D01*
X514483D01*
X498467Y433968D02*
Y438032D01*
X502532D01*
Y433968D01*
X498467D01*
X499483Y434984D02*
Y437016D01*
X501516D01*
Y434984D01*
X499483D01*
X498467Y313968D02*
Y318032D01*
X502532D01*
Y313968D01*
X498467D01*
X499483Y314984D02*
Y317016D01*
X501516D01*
Y314984D01*
X499483D01*
X483467Y283968D02*
Y288032D01*
X487532D01*
Y283968D01*
X483467D01*
X484483Y284984D02*
Y287016D01*
X486516D01*
Y284984D01*
X484483D01*
X498467Y253968D02*
Y258032D01*
X502532D01*
Y253968D01*
X498467D01*
X499483Y254984D02*
Y257016D01*
X501516D01*
Y254984D01*
X499483D01*
X483467Y223968D02*
Y228032D01*
X487532D01*
Y223968D01*
X483467D01*
X484483Y224984D02*
Y227016D01*
X486516D01*
Y224984D01*
X484483D01*
X453467Y643968D02*
Y648032D01*
X457532D01*
Y643968D01*
X453467D01*
X454483Y644984D02*
Y647016D01*
X456516D01*
Y644984D01*
X454483D01*
X468467Y613968D02*
Y618032D01*
X472532D01*
Y613968D01*
X468467D01*
X469483Y614984D02*
Y617016D01*
X471516D01*
Y614984D01*
X469483D01*
X453467Y283968D02*
Y288032D01*
X457532D01*
Y283968D01*
X453467D01*
X454483Y284984D02*
Y287016D01*
X456516D01*
Y284984D01*
X454483D01*
X468467Y253968D02*
Y258032D01*
X472532D01*
Y253968D01*
X468467D01*
X469483Y254984D02*
Y257016D01*
X471516D01*
Y254984D01*
X469483D01*
X693468Y1103968D02*
Y1108032D01*
X697532D01*
Y1103968D01*
X693468D01*
X694484Y1104984D02*
Y1107016D01*
X696516D01*
Y1104984D01*
X694484D01*
X673468Y903968D02*
Y908032D01*
X677532D01*
Y903968D01*
X673468D01*
X674484Y904984D02*
Y907016D01*
X676516D01*
Y904984D01*
X674484D01*
X693468Y863968D02*
Y868032D01*
X697532D01*
Y863968D01*
X693468D01*
X694484Y864984D02*
Y867016D01*
X696516D01*
Y864984D01*
X694484D01*
X673468Y823968D02*
Y828032D01*
X677532D01*
Y823968D01*
X673468D01*
X674484Y824984D02*
Y827016D01*
X676516D01*
Y824984D01*
X674484D01*
X673468Y103968D02*
Y108032D01*
X677532D01*
Y103968D01*
X673468D01*
X674484Y104984D02*
Y107016D01*
X676516D01*
Y104984D01*
X674484D01*
X653468Y1103968D02*
Y1108032D01*
X657532D01*
Y1103968D01*
X653468D01*
X654484Y1104984D02*
Y1107016D01*
X656516D01*
Y1104984D01*
X654484D01*
X653468Y143968D02*
Y148032D01*
X657532D01*
Y143968D01*
X653468D01*
X654484Y144984D02*
Y147016D01*
X656516D01*
Y144984D01*
X654484D01*
X633468Y103968D02*
Y108032D01*
X637532D01*
Y103968D01*
X633468D01*
X634484Y104984D02*
Y107016D01*
X636516D01*
Y104984D01*
X634484D01*
X633468Y23968D02*
Y28032D01*
X637532D01*
Y23968D01*
X633468D01*
X634484Y24984D02*
Y27016D01*
X636516D01*
Y24984D01*
X634484D01*
X613468Y1183968D02*
Y1188032D01*
X617532D01*
Y1183968D01*
X613468D01*
X614484Y1184984D02*
Y1187016D01*
X616516D01*
Y1184984D01*
X614484D01*
X593468Y1143968D02*
Y1148032D01*
X597532D01*
Y1143968D01*
X593468D01*
X594484Y1144984D02*
Y1147016D01*
X596516D01*
Y1144984D01*
X594484D01*
X613468Y1103968D02*
Y1108032D01*
X617532D01*
Y1103968D01*
X613468D01*
X614484Y1104984D02*
Y1107016D01*
X616516D01*
Y1104984D01*
X614484D01*
X613468Y863968D02*
Y868032D01*
X617532D01*
Y863968D01*
X613468D01*
X614484Y864984D02*
Y867016D01*
X616516D01*
Y864984D01*
X614484D01*
X613468Y143968D02*
Y148032D01*
X617532D01*
Y143968D01*
X613468D01*
X614484Y144984D02*
Y147016D01*
X616516D01*
Y144984D01*
X614484D01*
X593468Y103968D02*
Y108032D01*
X597532D01*
Y103968D01*
X593468D01*
X594484Y104984D02*
Y107016D01*
X596516D01*
Y104984D01*
X594484D01*
X613468Y63968D02*
Y68032D01*
X617532D01*
Y63968D01*
X613468D01*
X614484Y64984D02*
Y67016D01*
X616516D01*
Y64984D01*
X614484D01*
X593468Y23968D02*
Y28032D01*
X597532D01*
Y23968D01*
X593468D01*
X594484Y24984D02*
Y27016D01*
X596516D01*
Y24984D01*
X594484D01*
X573468Y1183968D02*
Y1188032D01*
X577532D01*
Y1183968D01*
X573468D01*
X574484Y1184984D02*
Y1187016D01*
X576516D01*
Y1184984D01*
X574484D01*
X553468Y1143968D02*
Y1148032D01*
X557532D01*
Y1143968D01*
X553468D01*
X554484Y1144984D02*
Y1147016D01*
X556516D01*
Y1144984D01*
X554484D01*
X573468Y1103968D02*
Y1108032D01*
X577532D01*
Y1103968D01*
X573468D01*
X574484Y1104984D02*
Y1107016D01*
X576516D01*
Y1104984D01*
X574484D01*
X573468Y863968D02*
Y868032D01*
X577532D01*
Y863968D01*
X573468D01*
X574484Y864984D02*
Y867016D01*
X576516D01*
Y864984D01*
X574484D01*
X553468Y23968D02*
Y28032D01*
X557532D01*
Y23968D01*
X553468D01*
X554484Y24984D02*
Y27016D01*
X556516D01*
Y24984D01*
X554484D01*
X513468Y1143968D02*
Y1148032D01*
X517532D01*
Y1143968D01*
X513468D01*
X514484Y1144984D02*
Y1147016D01*
X516516D01*
Y1144984D01*
X514484D01*
X533468Y1103968D02*
Y1108032D01*
X537532D01*
Y1103968D01*
X533468D01*
X534484Y1104984D02*
Y1107016D01*
X536516D01*
Y1104984D01*
X534484D01*
X533468Y63968D02*
Y68032D01*
X537532D01*
Y63968D01*
X533468D01*
X534484Y64984D02*
Y67016D01*
X536516D01*
Y64984D01*
X534484D01*
X513468Y23968D02*
Y28032D01*
X517532D01*
Y23968D01*
X513468D01*
X514484Y24984D02*
Y27016D01*
X516516D01*
Y24984D01*
X514484D01*
X473468Y983968D02*
Y988032D01*
X477532D01*
Y983968D01*
X473468D01*
X474484Y984984D02*
Y987016D01*
X476516D01*
Y984984D01*
X474484D01*
X493468Y143968D02*
Y148032D01*
X497532D01*
Y143968D01*
X493468D01*
X494484Y144984D02*
Y147016D01*
X496516D01*
Y144984D01*
X494484D01*
X493468Y63968D02*
Y68032D01*
X497532D01*
Y63968D01*
X493468D01*
X494484Y64984D02*
Y67016D01*
X496516D01*
Y64984D01*
X494484D01*
X473468Y23968D02*
Y28032D01*
X477532D01*
Y23968D01*
X473468D01*
X474484Y24984D02*
Y27016D01*
X476516D01*
Y24984D01*
X474484D01*
X433468Y103968D02*
Y108032D01*
X437532D01*
Y103968D01*
X433468D01*
X434484Y104984D02*
Y107016D01*
X436516D01*
Y104984D01*
X434484D01*
X453468Y63968D02*
Y68032D01*
X457532D01*
Y63968D01*
X453468D01*
X454484Y64984D02*
Y67016D01*
X456516D01*
Y64984D01*
X454484D01*
X433468Y23968D02*
Y28032D01*
X437532D01*
Y23968D01*
X433468D01*
X434484Y24984D02*
Y27016D01*
X436516D01*
Y24984D01*
X434484D01*
X393468Y903968D02*
Y908032D01*
X397532D01*
Y903968D01*
X393468D01*
X394484Y904984D02*
Y907016D01*
X396516D01*
Y904984D01*
X394484D01*
X393468Y823968D02*
Y828032D01*
X397532D01*
Y823968D01*
X393468D01*
X394484Y824984D02*
Y827016D01*
X396516D01*
Y824984D01*
X394484D01*
X413468Y783968D02*
Y788032D01*
X417532D01*
Y783968D01*
X413468D01*
X414484Y784984D02*
Y787016D01*
X416516D01*
Y784984D01*
X414484D01*
X413468Y143968D02*
Y148032D01*
X417532D01*
Y143968D01*
X413468D01*
X414484Y144984D02*
Y147016D01*
X416516D01*
Y144984D01*
X414484D01*
X393468Y103968D02*
Y108032D01*
X397532D01*
Y103968D01*
X393468D01*
X394484Y104984D02*
Y107016D01*
X396516D01*
Y104984D01*
X394484D01*
X413468Y63968D02*
Y68032D01*
X417532D01*
Y63968D01*
X413468D01*
X414484Y64984D02*
Y67016D01*
X416516D01*
Y64984D01*
X414484D01*
X393468Y23968D02*
Y28032D01*
X397532D01*
Y23968D01*
X393468D01*
X394484Y24984D02*
Y27016D01*
X396516D01*
Y24984D01*
X394484D01*
X373468Y1183968D02*
Y1188032D01*
X377532D01*
Y1183968D01*
X373468D01*
X374484Y1184984D02*
Y1187016D01*
X376516D01*
Y1184984D01*
X374484D01*
X353468Y1143968D02*
Y1148032D01*
X357532D01*
Y1143968D01*
X353468D01*
X354484Y1144984D02*
Y1147016D01*
X356516D01*
Y1144984D01*
X354484D01*
X353468Y1063968D02*
Y1068032D01*
X357532D01*
Y1063968D01*
X353468D01*
X354484Y1064984D02*
Y1067016D01*
X356516D01*
Y1064984D01*
X354484D01*
X353468Y903968D02*
Y908032D01*
X357532D01*
Y903968D01*
X353468D01*
X354484Y904984D02*
Y907016D01*
X356516D01*
Y904984D01*
X354484D01*
X353468Y743968D02*
Y748032D01*
X357532D01*
Y743968D01*
X353468D01*
X354484Y744984D02*
Y747016D01*
X356516D01*
Y744984D01*
X354484D01*
X353468Y663968D02*
Y668032D01*
X357532D01*
Y663968D01*
X353468D01*
X354484Y664984D02*
Y667016D01*
X356516D01*
Y664984D01*
X354484D01*
X353468Y423968D02*
Y428032D01*
X357532D01*
Y423968D01*
X353468D01*
X354484Y424984D02*
Y427016D01*
X356516D01*
Y424984D01*
X354484D01*
X353468Y343968D02*
Y348032D01*
X357532D01*
Y343968D01*
X353468D01*
X354484Y344984D02*
Y347016D01*
X356516D01*
Y344984D01*
X354484D01*
X353468Y263968D02*
Y268032D01*
X357532D01*
Y263968D01*
X353468D01*
X354484Y264984D02*
Y267016D01*
X356516D01*
Y264984D01*
X354484D01*
X373468Y143968D02*
Y148032D01*
X377532D01*
Y143968D01*
X373468D01*
X374484Y144984D02*
Y147016D01*
X376516D01*
Y144984D01*
X374484D01*
X353468Y23968D02*
Y28032D01*
X357532D01*
Y23968D01*
X353468D01*
X354484Y24984D02*
Y27016D01*
X356516D01*
Y24984D01*
X354484D01*
X333468Y863968D02*
Y868032D01*
X337532D01*
Y863968D01*
X333468D01*
X334484Y864984D02*
Y867016D01*
X336516D01*
Y864984D01*
X334484D01*
X313468Y743968D02*
Y748032D01*
X317532D01*
Y743968D01*
X313468D01*
X314484Y744984D02*
Y747016D01*
X316516D01*
Y744984D01*
X314484D01*
X313468Y663968D02*
Y668032D01*
X317532D01*
Y663968D01*
X313468D01*
X314484Y664984D02*
Y667016D01*
X316516D01*
Y664984D01*
X314484D01*
X333468Y623968D02*
Y628032D01*
X337532D01*
Y623968D01*
X333468D01*
X334484Y624984D02*
Y627016D01*
X336516D01*
Y624984D01*
X334484D01*
X313468Y343968D02*
Y348032D01*
X317532D01*
Y343968D01*
X313468D01*
X314484Y344984D02*
Y347016D01*
X316516D01*
Y344984D01*
X314484D01*
X333468Y303968D02*
Y308032D01*
X337532D01*
Y303968D01*
X333468D01*
X334484Y304984D02*
Y307016D01*
X336516D01*
Y304984D01*
X334484D01*
X313468Y263968D02*
Y268032D01*
X317532D01*
Y263968D01*
X313468D01*
X314484Y264984D02*
Y267016D01*
X316516D01*
Y264984D01*
X314484D01*
X273468Y1063968D02*
Y1068032D01*
X277532D01*
Y1063968D01*
X273468D01*
X274484Y1064984D02*
Y1067016D01*
X276516D01*
Y1064984D01*
X274484D01*
X293468Y1023968D02*
Y1028032D01*
X297532D01*
Y1023968D01*
X293468D01*
X294484Y1024984D02*
Y1027016D01*
X296516D01*
Y1024984D01*
X294484D01*
X273468Y983968D02*
Y988032D01*
X277532D01*
Y983968D01*
X273468D01*
X274484Y984984D02*
Y987016D01*
X276516D01*
Y984984D01*
X274484D01*
X273468Y903968D02*
Y908032D01*
X277532D01*
Y903968D01*
X273468D01*
X274484Y904984D02*
Y907016D01*
X276516D01*
Y904984D01*
X274484D01*
X293468Y863968D02*
Y868032D01*
X297532D01*
Y863968D01*
X293468D01*
X294484Y864984D02*
Y867016D01*
X296516D01*
Y864984D01*
X294484D01*
X273468Y663968D02*
Y668032D01*
X277532D01*
Y663968D01*
X273468D01*
X274484Y664984D02*
Y667016D01*
X276516D01*
Y664984D01*
X274484D01*
X293468Y303968D02*
Y308032D01*
X297532D01*
Y303968D01*
X293468D01*
X294484Y304984D02*
Y307016D01*
X296516D01*
Y304984D01*
X294484D01*
X293468Y223968D02*
Y228032D01*
X297532D01*
Y223968D01*
X293468D01*
X294484Y224984D02*
Y227016D01*
X296516D01*
Y224984D01*
X294484D01*
X273468Y103968D02*
Y108032D01*
X277532D01*
Y103968D01*
X273468D01*
X274484Y104984D02*
Y107016D01*
X276516D01*
Y104984D01*
X274484D01*
X293468Y63968D02*
Y68032D01*
X297532D01*
Y63968D01*
X293468D01*
X294484Y64984D02*
Y67016D01*
X296516D01*
Y64984D01*
X294484D01*
X273468Y23968D02*
Y28032D01*
X277532D01*
Y23968D01*
X273468D01*
X274484Y24984D02*
Y27016D01*
X276516D01*
Y24984D01*
X274484D01*
X253468Y1183968D02*
Y1188032D01*
X257532D01*
Y1183968D01*
X253468D01*
X254484Y1184984D02*
Y1187016D01*
X256516D01*
Y1184984D01*
X254484D01*
X253468Y1103968D02*
Y1108032D01*
X257532D01*
Y1103968D01*
X253468D01*
X254484Y1104984D02*
Y1107016D01*
X256516D01*
Y1104984D01*
X254484D01*
X233468Y1063968D02*
Y1068032D01*
X237532D01*
Y1063968D01*
X233468D01*
X234484Y1064984D02*
Y1067016D01*
X236516D01*
Y1064984D01*
X234484D01*
X253468Y1023968D02*
Y1028032D01*
X257532D01*
Y1023968D01*
X253468D01*
X254484Y1024984D02*
Y1027016D01*
X256516D01*
Y1024984D01*
X254484D01*
X233468Y983968D02*
Y988032D01*
X237532D01*
Y983968D01*
X233468D01*
X234484Y984984D02*
Y987016D01*
X236516D01*
Y984984D01*
X234484D01*
X253468Y943968D02*
Y948032D01*
X257532D01*
Y943968D01*
X253468D01*
X254484Y944984D02*
Y947016D01*
X256516D01*
Y944984D01*
X254484D01*
X233468Y903968D02*
Y908032D01*
X237532D01*
Y903968D01*
X233468D01*
X234484Y904984D02*
Y907016D01*
X236516D01*
Y904984D01*
X234484D01*
X253468Y863968D02*
Y868032D01*
X257532D01*
Y863968D01*
X253468D01*
X254484Y864984D02*
Y867016D01*
X256516D01*
Y864984D01*
X254484D01*
X233468Y743968D02*
Y748032D01*
X237532D01*
Y743968D01*
X233468D01*
X234484Y744984D02*
Y747016D01*
X236516D01*
Y744984D01*
X234484D01*
X253468Y703968D02*
Y708032D01*
X257532D01*
Y703968D01*
X253468D01*
X254484Y704984D02*
Y707016D01*
X256516D01*
Y704984D01*
X254484D01*
X233468Y663968D02*
Y668032D01*
X237532D01*
Y663968D01*
X233468D01*
X234484Y664984D02*
Y667016D01*
X236516D01*
Y664984D01*
X234484D01*
X233468Y583968D02*
Y588032D01*
X237532D01*
Y583968D01*
X233468D01*
X234484Y584984D02*
Y587016D01*
X236516D01*
Y584984D01*
X234484D01*
X253468Y303968D02*
Y308032D01*
X257532D01*
Y303968D01*
X253468D01*
X254484Y304984D02*
Y307016D01*
X256516D01*
Y304984D01*
X254484D01*
X233468Y263968D02*
Y268032D01*
X237532D01*
Y263968D01*
X233468D01*
X234484Y264984D02*
Y267016D01*
X236516D01*
Y264984D01*
X234484D01*
X253468Y223968D02*
Y228032D01*
X257532D01*
Y223968D01*
X253468D01*
X254484Y224984D02*
Y227016D01*
X256516D01*
Y224984D01*
X254484D01*
X233468Y103968D02*
Y108032D01*
X237532D01*
Y103968D01*
X233468D01*
X234484Y104984D02*
Y107016D01*
X236516D01*
Y104984D01*
X234484D01*
X213468Y1183968D02*
Y1188032D01*
X217532D01*
Y1183968D01*
X213468D01*
X214484Y1184984D02*
Y1187016D01*
X216516D01*
Y1184984D01*
X214484D01*
X193468Y1143968D02*
Y1148032D01*
X197532D01*
Y1143968D01*
X193468D01*
X194484Y1144984D02*
Y1147016D01*
X196516D01*
Y1144984D01*
X194484D01*
X213468Y1103968D02*
Y1108032D01*
X217532D01*
Y1103968D01*
X213468D01*
X214484Y1104984D02*
Y1107016D01*
X216516D01*
Y1104984D01*
X214484D01*
X213468Y863968D02*
Y868032D01*
X217532D01*
Y863968D01*
X213468D01*
X214484Y864984D02*
Y867016D01*
X216516D01*
Y864984D01*
X214484D01*
X213468Y783968D02*
Y788032D01*
X217532D01*
Y783968D01*
X213468D01*
X214484Y784984D02*
Y787016D01*
X216516D01*
Y784984D01*
X214484D01*
X213468Y703968D02*
Y708032D01*
X217532D01*
Y703968D01*
X213468D01*
X214484Y704984D02*
Y707016D01*
X216516D01*
Y704984D01*
X214484D01*
X213468Y623968D02*
Y628032D01*
X217532D01*
Y623968D01*
X213468D01*
X214484Y624984D02*
Y627016D01*
X216516D01*
Y624984D01*
X214484D01*
X193468Y583968D02*
Y588032D01*
X197532D01*
Y583968D01*
X193468D01*
X194484Y584984D02*
Y587016D01*
X196516D01*
Y584984D01*
X194484D01*
X213468Y543968D02*
Y548032D01*
X217532D01*
Y543968D01*
X213468D01*
X214484Y544984D02*
Y547016D01*
X216516D01*
Y544984D01*
X214484D01*
X193468Y503968D02*
Y508032D01*
X197532D01*
Y503968D01*
X193468D01*
X194484Y504984D02*
Y507016D01*
X196516D01*
Y504984D01*
X194484D01*
X213468Y303968D02*
Y308032D01*
X217532D01*
Y303968D01*
X213468D01*
X214484Y304984D02*
Y307016D01*
X216516D01*
Y304984D01*
X214484D01*
X193468Y103968D02*
Y108032D01*
X197532D01*
Y103968D01*
X193468D01*
X194484Y104984D02*
Y107016D01*
X196516D01*
Y104984D01*
X194484D01*
X213468Y63968D02*
Y68032D01*
X217532D01*
Y63968D01*
X213468D01*
X214484Y64984D02*
Y67016D01*
X216516D01*
Y64984D01*
X214484D01*
X193468Y23968D02*
Y28032D01*
X197532D01*
Y23968D01*
X193468D01*
X194484Y24984D02*
Y27016D01*
X196516D01*
Y24984D01*
X194484D01*
X173468Y1183968D02*
Y1188032D01*
X177532D01*
Y1183968D01*
X173468D01*
X174484Y1184984D02*
Y1187016D01*
X176516D01*
Y1184984D01*
X174484D01*
X153468Y1143968D02*
Y1148032D01*
X157532D01*
Y1143968D01*
X153468D01*
X154484Y1144984D02*
Y1147016D01*
X156516D01*
Y1144984D01*
X154484D01*
X153468Y983968D02*
Y988032D01*
X157532D01*
Y983968D01*
X153468D01*
X154484Y984984D02*
Y987016D01*
X156516D01*
Y984984D01*
X154484D01*
X173468Y943968D02*
Y948032D01*
X177532D01*
Y943968D01*
X173468D01*
X174484Y944984D02*
Y947016D01*
X176516D01*
Y944984D01*
X174484D01*
X173468Y863968D02*
Y868032D01*
X177532D01*
Y863968D01*
X173468D01*
X174484Y864984D02*
Y867016D01*
X176516D01*
Y864984D01*
X174484D01*
X153468Y743968D02*
Y748032D01*
X157532D01*
Y743968D01*
X153468D01*
X154484Y744984D02*
Y747016D01*
X156516D01*
Y744984D01*
X154484D01*
X153468Y343968D02*
Y348032D01*
X157532D01*
Y343968D01*
X153468D01*
X154484Y344984D02*
Y347016D01*
X156516D01*
Y344984D01*
X154484D01*
X153468Y263968D02*
Y268032D01*
X157532D01*
Y263968D01*
X153468D01*
X154484Y264984D02*
Y267016D01*
X156516D01*
Y264984D01*
X154484D01*
X153468Y103968D02*
Y108032D01*
X157532D01*
Y103968D01*
X153468D01*
X154484Y104984D02*
Y107016D01*
X156516D01*
Y104984D01*
X154484D01*
X153468Y23968D02*
Y28032D01*
X157532D01*
Y23968D01*
X153468D01*
X154484Y24984D02*
Y27016D01*
X156516D01*
Y24984D01*
X154484D01*
X133468Y1183968D02*
Y1188032D01*
X137532D01*
Y1183968D01*
X133468D01*
X134484Y1184984D02*
Y1187016D01*
X136516D01*
Y1184984D01*
X134484D01*
X113468Y1143968D02*
Y1148032D01*
X117532D01*
Y1143968D01*
X113468D01*
X114484Y1144984D02*
Y1147016D01*
X116516D01*
Y1144984D01*
X114484D01*
X133468Y1103968D02*
Y1108032D01*
X137532D01*
Y1103968D01*
X133468D01*
X134484Y1104984D02*
Y1107016D01*
X136516D01*
Y1104984D01*
X134484D01*
X133468Y943968D02*
Y948032D01*
X137532D01*
Y943968D01*
X133468D01*
X134484Y944984D02*
Y947016D01*
X136516D01*
Y944984D01*
X134484D01*
X133468Y863968D02*
Y868032D01*
X137532D01*
Y863968D01*
X133468D01*
X134484Y864984D02*
Y867016D01*
X136516D01*
Y864984D01*
X134484D01*
X113468Y743968D02*
Y748032D01*
X117532D01*
Y743968D01*
X113468D01*
X114484Y744984D02*
Y747016D01*
X116516D01*
Y744984D01*
X114484D01*
X113468Y663968D02*
Y668032D01*
X117532D01*
Y663968D01*
X113468D01*
X114484Y664984D02*
Y667016D01*
X116516D01*
Y664984D01*
X114484D01*
X133468Y543968D02*
Y548032D01*
X137532D01*
Y543968D01*
X133468D01*
X134484Y544984D02*
Y547016D01*
X136516D01*
Y544984D01*
X134484D01*
X113468Y503968D02*
Y508032D01*
X117532D01*
Y503968D01*
X113468D01*
X114484Y504984D02*
Y507016D01*
X116516D01*
Y504984D01*
X114484D01*
X133468Y63968D02*
Y68032D01*
X137532D01*
Y63968D01*
X133468D01*
X134484Y64984D02*
Y67016D01*
X136516D01*
Y64984D01*
X134484D01*
X113468Y23968D02*
Y28032D01*
X117532D01*
Y23968D01*
X113468D01*
X114484Y24984D02*
Y27016D01*
X116516D01*
Y24984D01*
X114484D01*
X93468Y1183968D02*
Y1188032D01*
X97532D01*
Y1183968D01*
X93468D01*
X94484Y1184984D02*
Y1187016D01*
X96516D01*
Y1184984D01*
X94484D01*
X73468Y1143968D02*
Y1148032D01*
X77532D01*
Y1143968D01*
X73468D01*
X74484Y1144984D02*
Y1147016D01*
X76516D01*
Y1144984D01*
X74484D01*
X93468Y1103968D02*
Y1108032D01*
X97532D01*
Y1103968D01*
X93468D01*
X94484Y1104984D02*
Y1107016D01*
X96516D01*
Y1104984D01*
X94484D01*
X73468Y1063968D02*
Y1068032D01*
X77532D01*
Y1063968D01*
X73468D01*
X74484Y1064984D02*
Y1067016D01*
X76516D01*
Y1064984D01*
X74484D01*
X93468Y1023968D02*
Y1028032D01*
X97532D01*
Y1023968D01*
X93468D01*
X94484Y1024984D02*
Y1027016D01*
X96516D01*
Y1024984D01*
X94484D01*
X73468Y983968D02*
Y988032D01*
X77532D01*
Y983968D01*
X73468D01*
X74484Y984984D02*
Y987016D01*
X76516D01*
Y984984D01*
X74484D01*
X93468Y943968D02*
Y948032D01*
X97532D01*
Y943968D01*
X93468D01*
X94484Y944984D02*
Y947016D01*
X96516D01*
Y944984D01*
X94484D01*
X73468Y903968D02*
Y908032D01*
X77532D01*
Y903968D01*
X73468D01*
X74484Y904984D02*
Y907016D01*
X76516D01*
Y904984D01*
X74484D01*
X93468Y863968D02*
Y868032D01*
X97532D01*
Y863968D01*
X93468D01*
X94484Y864984D02*
Y867016D01*
X96516D01*
Y864984D01*
X94484D01*
X73468Y823968D02*
Y828032D01*
X77532D01*
Y823968D01*
X73468D01*
X74484Y824984D02*
Y827016D01*
X76516D01*
Y824984D01*
X74484D01*
X93468Y783968D02*
Y788032D01*
X97532D01*
Y783968D01*
X93468D01*
X94484Y784984D02*
Y787016D01*
X96516D01*
Y784984D01*
X94484D01*
X73468Y743968D02*
Y748032D01*
X77532D01*
Y743968D01*
X73468D01*
X74484Y744984D02*
Y747016D01*
X76516D01*
Y744984D01*
X74484D01*
X93468Y703968D02*
Y708032D01*
X97532D01*
Y703968D01*
X93468D01*
X94484Y704984D02*
Y707016D01*
X96516D01*
Y704984D01*
X94484D01*
X73468Y663968D02*
Y668032D01*
X77532D01*
Y663968D01*
X73468D01*
X74484Y664984D02*
Y667016D01*
X76516D01*
Y664984D01*
X74484D01*
X93468Y623968D02*
Y628032D01*
X97532D01*
Y623968D01*
X93468D01*
X94484Y624984D02*
Y627016D01*
X96516D01*
Y624984D01*
X94484D01*
X73468Y183968D02*
Y188032D01*
X77532D01*
Y183968D01*
X73468D01*
X74484Y184984D02*
Y187016D01*
X76516D01*
Y184984D01*
X74484D01*
X93468Y143968D02*
Y148032D01*
X97532D01*
Y143968D01*
X93468D01*
X94484Y144984D02*
Y147016D01*
X96516D01*
Y144984D01*
X94484D01*
X73468Y103968D02*
Y108032D01*
X77532D01*
Y103968D01*
X73468D01*
X74484Y104984D02*
Y107016D01*
X76516D01*
Y104984D01*
X74484D01*
X93468Y63968D02*
Y68032D01*
X97532D01*
Y63968D01*
X93468D01*
X94484Y64984D02*
Y67016D01*
X96516D01*
Y64984D01*
X94484D01*
X73468Y23968D02*
Y28032D01*
X77532D01*
Y23968D01*
X73468D01*
X74484Y24984D02*
Y27016D01*
X76516D01*
Y24984D01*
X74484D01*
X53468Y1183968D02*
Y1188032D01*
X57532D01*
Y1183968D01*
X53468D01*
X54484Y1184984D02*
Y1187016D01*
X56516D01*
Y1184984D01*
X54484D01*
X33468Y1143968D02*
Y1148032D01*
X37532D01*
Y1143968D01*
X33468D01*
X34484Y1144984D02*
Y1147016D01*
X36516D01*
Y1144984D01*
X34484D01*
X53468Y1103968D02*
Y1108032D01*
X57532D01*
Y1103968D01*
X53468D01*
X54484Y1104984D02*
Y1107016D01*
X56516D01*
Y1104984D01*
X54484D01*
X33468Y1063968D02*
Y1068032D01*
X37532D01*
Y1063968D01*
X33468D01*
X34484Y1064984D02*
Y1067016D01*
X36516D01*
Y1064984D01*
X34484D01*
X33468Y983968D02*
Y988032D01*
X37532D01*
Y983968D01*
X33468D01*
X34484Y984984D02*
Y987016D01*
X36516D01*
Y984984D01*
X34484D01*
X53468Y943968D02*
Y948032D01*
X57532D01*
Y943968D01*
X53468D01*
X54484Y944984D02*
Y947016D01*
X56516D01*
Y944984D01*
X54484D01*
X33468Y903968D02*
Y908032D01*
X37532D01*
Y903968D01*
X33468D01*
X34484Y904984D02*
Y907016D01*
X36516D01*
Y904984D01*
X34484D01*
X53468Y863968D02*
Y868032D01*
X57532D01*
Y863968D01*
X53468D01*
X54484Y864984D02*
Y867016D01*
X56516D01*
Y864984D01*
X54484D01*
X33468Y823968D02*
Y828032D01*
X37532D01*
Y823968D01*
X33468D01*
X34484Y824984D02*
Y827016D01*
X36516D01*
Y824984D01*
X34484D01*
X53468Y783968D02*
Y788032D01*
X57532D01*
Y783968D01*
X53468D01*
X54484Y784984D02*
Y787016D01*
X56516D01*
Y784984D01*
X54484D01*
X33468Y743968D02*
Y748032D01*
X37532D01*
Y743968D01*
X33468D01*
X34484Y744984D02*
Y747016D01*
X36516D01*
Y744984D01*
X34484D01*
X33468Y583968D02*
Y588032D01*
X37532D01*
Y583968D01*
X33468D01*
X34484Y584984D02*
Y587016D01*
X36516D01*
Y584984D01*
X34484D01*
X53468Y543968D02*
Y548032D01*
X57532D01*
Y543968D01*
X53468D01*
X54484Y544984D02*
Y547016D01*
X56516D01*
Y544984D01*
X54484D01*
X33468Y503968D02*
Y508032D01*
X37532D01*
Y503968D01*
X33468D01*
X34484Y504984D02*
Y507016D01*
X36516D01*
Y504984D01*
X34484D01*
X53468Y463968D02*
Y468032D01*
X57532D01*
Y463968D01*
X53468D01*
X54484Y464984D02*
Y467016D01*
X56516D01*
Y464984D01*
X54484D01*
X33468Y423968D02*
Y428032D01*
X37532D01*
Y423968D01*
X33468D01*
X34484Y424984D02*
Y427016D01*
X36516D01*
Y424984D01*
X34484D01*
X53468Y383968D02*
Y388032D01*
X57532D01*
Y383968D01*
X53468D01*
X54484Y384984D02*
Y387016D01*
X56516D01*
Y384984D01*
X54484D01*
X33468Y343968D02*
Y348032D01*
X37532D01*
Y343968D01*
X33468D01*
X34484Y344984D02*
Y347016D01*
X36516D01*
Y344984D01*
X34484D01*
X33468Y263968D02*
Y268032D01*
X37532D01*
Y263968D01*
X33468D01*
X34484Y264984D02*
Y267016D01*
X36516D01*
Y264984D01*
X34484D01*
X53468Y223968D02*
Y228032D01*
X57532D01*
Y223968D01*
X53468D01*
X54484Y224984D02*
Y227016D01*
X56516D01*
Y224984D01*
X54484D01*
X33468Y183968D02*
Y188032D01*
X37532D01*
Y183968D01*
X33468D01*
X34484Y184984D02*
Y187016D01*
X36516D01*
Y184984D01*
X34484D01*
X53468Y143968D02*
Y148032D01*
X57532D01*
Y143968D01*
X53468D01*
X54484Y144984D02*
Y147016D01*
X56516D01*
Y144984D01*
X54484D01*
X33468Y103968D02*
Y108032D01*
X37532D01*
Y103968D01*
X33468D01*
X34484Y104984D02*
Y107016D01*
X36516D01*
Y104984D01*
X34484D01*
X53468Y63968D02*
Y68032D01*
X57532D01*
Y63968D01*
X53468D01*
X54484Y64984D02*
Y67016D01*
X56516D01*
Y64984D01*
X54484D01*
X33468Y23968D02*
Y28032D01*
X37532D01*
Y23968D01*
X33468D01*
X34484Y24984D02*
Y27016D01*
X36516D01*
Y24984D01*
X34484D01*
X456373Y515904D02*
Y519968D01*
X460437D01*
Y515904D01*
X456373D01*
X457389Y516920D02*
Y518952D01*
X459421D01*
Y516920D01*
X457389D01*
X548640Y928116D02*
Y932180D01*
X552704D01*
Y928116D01*
X548640D01*
X549656Y929132D02*
Y931164D01*
X551688D01*
Y929132D01*
X549656D01*
X388366Y1004316D02*
Y1008380D01*
X392430D01*
Y1004316D01*
X388366D01*
X389382Y1005332D02*
Y1007364D01*
X391414D01*
Y1005332D01*
X389382D01*
X363728Y1008888D02*
Y1012952D01*
X367792D01*
Y1008888D01*
X363728D01*
X364744Y1009904D02*
Y1011936D01*
X366776D01*
Y1009904D01*
X364744D01*
X462026Y1029338D02*
Y1033402D01*
X466090D01*
Y1029338D01*
X462026D01*
X463042Y1030354D02*
Y1032386D01*
X465074D01*
Y1030354D01*
X463042D01*
X372371Y983971D02*
Y988036D01*
X376435D01*
Y983971D01*
X372371D01*
X373387Y984987D02*
Y987020D01*
X375419D01*
Y984987D01*
X373387D01*
X483870Y567436D02*
Y571500D01*
X487934D01*
Y567436D01*
X483870D01*
X484886Y568452D02*
Y570484D01*
X486918D01*
Y568452D01*
X484886D01*
X526542Y603504D02*
Y607568D01*
X530606D01*
Y603504D01*
X526542D01*
X527558Y604520D02*
Y606552D01*
X529590D01*
Y604520D01*
X527558D01*
X450596Y685038D02*
Y689102D01*
X454660D01*
Y685038D01*
X450596D01*
X451612Y686054D02*
Y688086D01*
X453644D01*
Y686054D01*
X451612D01*
X526818Y831686D02*
Y835750D01*
X530882D01*
Y831686D01*
X526818D01*
X527834Y832702D02*
Y834734D01*
X529866D01*
Y832702D01*
X527834D01*
X468311Y589821D02*
Y593885D01*
X472375D01*
Y589821D01*
X468311D01*
X469327Y590837D02*
Y592869D01*
X471359D01*
Y590837D01*
X469327D01*
X471257Y690879D02*
Y694942D01*
X475321D01*
Y690879D01*
X471257D01*
X472273Y691895D02*
Y693926D01*
X474305D01*
Y691895D01*
X472273D01*
X523494Y662432D02*
Y666496D01*
X527558D01*
Y662432D01*
X523494D01*
X524510Y663448D02*
Y665480D01*
X526542D01*
Y663448D01*
X524510D01*
X509778Y662686D02*
Y666750D01*
X513842D01*
Y662686D01*
X509778D01*
X510794Y663702D02*
Y665734D01*
X512826D01*
Y663702D01*
X510794D01*
X499364Y648970D02*
Y653034D01*
X503428D01*
Y648970D01*
X499364D01*
X500380Y649986D02*
Y652018D01*
X502412D01*
Y649986D01*
X500380D01*
X546862Y664972D02*
Y669036D01*
X550926D01*
Y664972D01*
X546862D01*
X547878Y665988D02*
Y668020D01*
X549910D01*
Y665988D01*
X547878D01*
X527658Y508911D02*
Y512975D01*
X531722D01*
Y508911D01*
X527658D01*
X528674Y509927D02*
Y511959D01*
X530706D01*
Y509927D01*
X528674D01*
X407670Y991108D02*
Y995172D01*
X411734D01*
Y991108D01*
X407670D01*
X408686Y992124D02*
Y994156D01*
X410718D01*
Y992124D01*
X408686D01*
X489712Y878586D02*
Y882650D01*
X493776D01*
Y878586D01*
X489712D01*
X490728Y879602D02*
Y881634D01*
X492760D01*
Y879602D01*
X490728D01*
X490780Y866191D02*
Y870255D01*
X494844D01*
Y866191D01*
X490780D01*
X491796Y867207D02*
Y869239D01*
X493828D01*
Y867207D01*
X491796D01*
X497180Y857226D02*
Y861290D01*
X501244D01*
Y857226D01*
X497180D01*
X498196Y858242D02*
Y860274D01*
X500228D01*
Y858242D01*
X498196D01*
X541131Y866620D02*
Y870684D01*
X545195D01*
Y866620D01*
X541131D01*
X542147Y867636D02*
Y869668D01*
X544179D01*
Y867636D01*
X542147D01*
X503580Y866191D02*
Y870255D01*
X507644D01*
Y866191D01*
X503580D01*
X504596Y867207D02*
Y869239D01*
X506628D01*
Y867207D01*
X504596D01*
X363220Y993394D02*
Y997458D01*
X367284D01*
Y993394D01*
X363220D01*
X364236Y994410D02*
Y996442D01*
X366268D01*
Y994410D01*
X364236D01*
X369298Y1023638D02*
Y1027702D01*
X373362D01*
Y1023638D01*
X369298D01*
X370314Y1024654D02*
Y1026686D01*
X372346D01*
Y1024654D01*
X370314D01*
X547370Y815594D02*
Y819658D01*
X551434D01*
Y815594D01*
X547370D01*
X548386Y816610D02*
Y818642D01*
X550418D01*
Y816610D01*
X548386D01*
X584708Y960882D02*
Y964946D01*
X588772D01*
Y960882D01*
X584708D01*
X585724Y961898D02*
Y963930D01*
X587756D01*
Y961898D01*
X585724D01*
X699770Y947674D02*
Y951738D01*
X703834D01*
Y947674D01*
X699770D01*
X700786Y948690D02*
Y950722D01*
X702818D01*
Y948690D01*
X700786D01*
X677418Y938784D02*
Y942848D01*
X681482D01*
Y938784D01*
X677418D01*
X678434Y939800D02*
Y941832D01*
X680466D01*
Y939800D01*
X678434D01*
X692561Y957229D02*
Y961293D01*
X696625D01*
Y957229D01*
X692561D01*
X693577Y958245D02*
Y960277D01*
X695609D01*
Y958245D01*
X693577D01*
X651764Y474472D02*
Y478536D01*
X655828D01*
Y474472D01*
X651764D01*
X652780Y475488D02*
Y477520D01*
X654812D01*
Y475488D01*
X652780D01*
X461518Y534416D02*
Y538480D01*
X465582D01*
Y534416D01*
X461518D01*
X462534Y535432D02*
Y537464D01*
X464566D01*
Y535432D01*
X462534D01*
X553720Y1006602D02*
Y1010666D01*
X557784D01*
Y1006602D01*
X553720D01*
X554736Y1007618D02*
Y1009650D01*
X556768D01*
Y1007618D01*
X554736D01*
X678434Y1015746D02*
Y1019810D01*
X682498D01*
Y1015746D01*
X678434D01*
X679450Y1016762D02*
Y1018794D01*
X681482D01*
Y1016762D01*
X679450D01*
X672846Y988822D02*
Y992886D01*
X676910D01*
Y988822D01*
X672846D01*
X673862Y989838D02*
Y991870D01*
X675894D01*
Y989838D01*
X673862D01*
X672846Y970534D02*
Y974598D01*
X676910D01*
Y970534D01*
X672846D01*
X673862Y971550D02*
Y973582D01*
X675894D01*
Y971550D01*
X673862D01*
X432816Y1088898D02*
Y1092962D01*
X436880D01*
Y1088898D01*
X432816D01*
X433832Y1089914D02*
Y1091946D01*
X435864D01*
Y1089914D01*
X433832D01*
X656082Y499872D02*
Y503936D01*
X660146D01*
Y499872D01*
X656082D01*
X657098Y500888D02*
Y502920D01*
X659130D01*
Y500888D01*
X657098D01*
X436880Y721614D02*
Y725678D01*
X440944D01*
Y721614D01*
X436880D01*
X437896Y722630D02*
Y724662D01*
X439928D01*
Y722630D01*
X437896D01*
X547878Y717550D02*
Y721614D01*
X551942D01*
Y717550D01*
X547878D01*
X548894Y718566D02*
Y720598D01*
X550926D01*
Y718566D01*
X548894D01*
X470965Y333967D02*
Y338031D01*
X475029D01*
Y333967D01*
X470965D01*
X471981Y334983D02*
Y337015D01*
X474013D01*
Y334983D01*
X471981D01*
X468465Y328967D02*
Y333031D01*
X472529D01*
Y328967D01*
X468465D01*
X469481Y329983D02*
Y332015D01*
X471513D01*
Y329983D01*
X469481D01*
X526034Y574548D02*
Y578612D01*
X530098D01*
Y574548D01*
X526034D01*
X527050Y575564D02*
Y577596D01*
X529082D01*
Y575564D01*
X527050D01*
X455466Y504742D02*
Y508806D01*
X459530D01*
Y504742D01*
X455466D01*
X456482Y505758D02*
Y507790D01*
X458514D01*
Y505758D01*
X456482D01*
X475234Y487426D02*
Y491490D01*
X479298D01*
Y487426D01*
X475234D01*
X476250Y488442D02*
Y490474D01*
X478282D01*
Y488442D01*
X476250D01*
X271526Y549402D02*
Y553466D01*
X275590D01*
Y549402D01*
X271526D01*
X272542Y550418D02*
Y552450D01*
X274574D01*
Y550418D01*
X272542D01*
X325580Y380362D02*
Y384426D01*
X329645D01*
Y380362D01*
X325580D01*
X326596Y381378D02*
Y383410D01*
X328629D01*
Y381378D01*
X326596D01*
X220044Y380318D02*
Y384382D01*
X224108D01*
Y380318D01*
X220044D01*
X221060Y381334D02*
Y383366D01*
X223092D01*
Y381334D01*
X221060D01*
X240792Y458216D02*
Y462280D01*
X244856D01*
Y458216D01*
X240792D01*
X241808Y459232D02*
Y461264D01*
X243840D01*
Y459232D01*
X241808D01*
X318516Y526288D02*
Y530352D01*
X322580D01*
Y526288D01*
X318516D01*
X319532Y527304D02*
Y529336D01*
X321564D01*
Y527304D01*
X319532D01*
X578238Y451641D02*
Y455705D01*
X582302D01*
Y451641D01*
X578238D01*
X579254Y452657D02*
Y454689D01*
X581286D01*
Y452657D01*
X579254D01*
X558038Y473202D02*
Y477266D01*
X562102D01*
Y473202D01*
X558038D01*
X559054Y474218D02*
Y476250D01*
X561086D01*
Y474218D01*
X559054D01*
X457454Y526796D02*
Y530860D01*
X461518D01*
Y526796D01*
X457454D01*
X458470Y527812D02*
Y529844D01*
X460502D01*
Y527812D01*
X458470D01*
X456176Y438396D02*
Y442460D01*
X460240D01*
Y438396D01*
X456176D01*
X457192Y439412D02*
Y441444D01*
X459224D01*
Y439412D01*
X457192D01*
X293116Y452120D02*
Y456184D01*
X297180D01*
Y452120D01*
X293116D01*
X294132Y453136D02*
Y455168D01*
X296164D01*
Y453136D01*
X294132D01*
X270956Y440067D02*
Y444131D01*
X275020D01*
Y440067D01*
X270956D01*
X271972Y441083D02*
Y443115D01*
X274004D01*
Y441083D01*
X271972D01*
X304653Y479848D02*
Y483912D01*
X308717D01*
Y479848D01*
X304653D01*
X305669Y480864D02*
Y482896D01*
X307701D01*
Y480864D01*
X305669D01*
X276218Y566468D02*
Y570532D01*
X280282D01*
Y566468D01*
X276218D01*
X277234Y567484D02*
Y569516D01*
X279266D01*
Y567484D01*
X277234D01*
X626364Y890270D02*
Y894334D01*
X630428D01*
Y890270D01*
X626364D01*
X627380Y891286D02*
Y893318D01*
X629412D01*
Y891286D01*
X627380D01*
X533654Y694944D02*
Y699008D01*
X537718D01*
Y694944D01*
X533654D01*
X534670Y695960D02*
Y697992D01*
X536702D01*
Y695960D01*
X534670D01*
X434594Y695968D02*
Y700032D01*
X438658D01*
Y695968D01*
X434594D01*
X435610Y696984D02*
Y699016D01*
X437642D01*
Y696984D01*
X435610D01*
X658368Y857758D02*
Y861822D01*
X662432D01*
Y857758D01*
X658368D01*
X659384Y858774D02*
Y860806D01*
X661416D01*
Y858774D01*
X659384D01*
X626618Y528828D02*
Y532892D01*
X630682D01*
Y528828D01*
X626618D01*
X627634Y529844D02*
Y531876D01*
X629666D01*
Y529844D01*
X627634D01*
X677418Y627888D02*
Y631952D01*
X681482D01*
Y627888D01*
X677418D01*
X678434Y628904D02*
Y630936D01*
X680466D01*
Y628904D01*
X678434D01*
X665988Y659638D02*
Y663702D01*
X670052D01*
Y659638D01*
X665988D01*
X667004Y660654D02*
Y662686D01*
X669036D01*
Y660654D01*
X667004D01*
X718058Y230378D02*
X719074Y232410D01*
X718058Y234442D01*
X720090Y233426D01*
X722122Y234442D01*
X721106Y232410D01*
X722122Y230378D01*
X720090Y231394D01*
X718058Y230378D01*
X525175Y264825D02*
Y268889D01*
X529239D01*
Y264825D01*
X525175D01*
X526191Y265841D02*
Y267873D01*
X528223D01*
Y265841D01*
X526191D01*
X474218Y1201928D02*
Y1205992D01*
X478282D01*
Y1201928D01*
X474218D01*
X475234Y1202944D02*
Y1204976D01*
X477266D01*
Y1202944D01*
X475234D01*
X394208Y1185418D02*
Y1189482D01*
X398272D01*
Y1185418D01*
X394208D01*
X395224Y1186434D02*
Y1188466D01*
X397256D01*
Y1186434D01*
X395224D01*
X449528Y1119378D02*
Y1123442D01*
X453592D01*
Y1119378D01*
X449528D01*
X450544Y1120394D02*
Y1122426D01*
X452576D01*
Y1120394D01*
X450544D01*
X436828Y1140258D02*
Y1144322D01*
X440892D01*
Y1140258D01*
X436828D01*
X437844Y1141274D02*
Y1143306D01*
X439876D01*
Y1141274D01*
X437844D01*
X491368Y981578D02*
Y985642D01*
X495432D01*
Y981578D01*
X491368D01*
X492384Y982594D02*
Y984626D01*
X494416D01*
Y982594D01*
X492384D01*
X615308Y488068D02*
Y492132D01*
X619372D01*
Y488068D01*
X615308D01*
X616324Y489084D02*
Y491116D01*
X618356D01*
Y489084D01*
X616324D01*
X641858Y265938D02*
Y270002D01*
X645922D01*
Y265938D01*
X641858D01*
X642874Y266954D02*
Y268986D01*
X644906D01*
Y266954D01*
X642874D01*
X589218Y449718D02*
Y453782D01*
X593282D01*
Y449718D01*
X589218D01*
X590234Y450734D02*
Y452766D01*
X592266D01*
Y450734D01*
X590234D01*
X616458Y422148D02*
Y426212D01*
X620522D01*
Y422148D01*
X616458D01*
X617474Y423164D02*
Y425196D01*
X619506D01*
Y423164D01*
X617474D01*
X595468Y392218D02*
Y396282D01*
X599532D01*
Y392218D01*
X595468D01*
X596484Y393234D02*
Y395266D01*
X598516D01*
Y393234D01*
X596484D01*
X658818Y483068D02*
Y487132D01*
X662882D01*
Y483068D01*
X658818D01*
X659834Y484084D02*
Y486116D01*
X661866D01*
Y484084D01*
X659834D01*
X664468Y717468D02*
Y721532D01*
X668532D01*
Y717468D01*
X664468D01*
X665484Y718484D02*
Y720516D01*
X667516D01*
Y718484D01*
X665484D01*
X432218Y815718D02*
Y819782D01*
X436282D01*
Y815718D01*
X432218D01*
X433234Y816734D02*
Y818766D01*
X435266D01*
Y816734D01*
X433234D01*
X615218Y169418D02*
X616234Y171450D01*
X615218Y173482D01*
X617250Y172466D01*
X619282Y173482D01*
X618266Y171450D01*
X619282Y169418D01*
X617250Y170434D01*
X615218Y169418D01*
X573532Y114166D02*
Y118230D01*
X577596D01*
Y114166D01*
X573532D01*
X574548Y115182D02*
Y117214D01*
X576580D01*
Y115182D01*
X574548D01*
X526968Y551718D02*
Y555782D01*
X531032D01*
Y551718D01*
X526968D01*
X527984Y552734D02*
Y554766D01*
X530016D01*
Y552734D01*
X527984D01*
X553468Y421968D02*
Y426032D01*
X557532D01*
Y421968D01*
X553468D01*
X554484Y422984D02*
Y425016D01*
X556516D01*
Y422984D01*
X554484D01*
X569218Y512218D02*
Y516282D01*
X573282D01*
Y512218D01*
X569218D01*
X570234Y513234D02*
Y515266D01*
X572266D01*
Y513234D01*
X570234D01*
X542218Y515218D02*
Y519282D01*
X546282D01*
Y515218D01*
X542218D01*
X543234Y516234D02*
Y518266D01*
X545266D01*
Y516234D01*
X543234D01*
X539242Y437642D02*
Y441706D01*
X543306D01*
Y437642D01*
X539242D01*
X540258Y438658D02*
Y440690D01*
X542290D01*
Y438658D01*
X540258D01*
X656718Y576218D02*
Y580282D01*
X660782D01*
Y576218D01*
X656718D01*
X657734Y577234D02*
Y579266D01*
X659766D01*
Y577234D01*
X657734D01*
X641968Y527718D02*
Y531782D01*
X646032D01*
Y527718D01*
X641968D01*
X642984Y528734D02*
Y530766D01*
X645016D01*
Y528734D01*
X642984D01*
X532218Y966218D02*
Y970282D01*
X536282D01*
Y966218D01*
X532218D01*
X533234Y967234D02*
Y969266D01*
X535266D01*
Y967234D01*
X533234D01*
X685468Y1038718D02*
Y1042782D01*
X689532D01*
Y1038718D01*
X685468D01*
X686484Y1039734D02*
Y1041766D01*
X688516D01*
Y1039734D01*
X686484D01*
X512968Y1056718D02*
Y1060782D01*
X517032D01*
Y1056718D01*
X512968D01*
X513984Y1057734D02*
Y1059766D01*
X516016D01*
Y1057734D01*
X513984D01*
X391968Y1090218D02*
Y1094282D01*
X396032D01*
Y1090218D01*
X391968D01*
X392984Y1091234D02*
Y1093266D01*
X395016D01*
Y1091234D01*
X392984D01*
X411428Y1142178D02*
Y1146242D01*
X415492D01*
Y1142178D01*
X411428D01*
X412444Y1143194D02*
Y1145226D01*
X414476D01*
Y1143194D01*
X412444D01*
X398728Y1121208D02*
Y1125272D01*
X402792D01*
Y1121208D01*
X398728D01*
X399744Y1122224D02*
Y1124256D01*
X401776D01*
Y1122224D01*
X399744D01*
X379218Y1123968D02*
Y1128032D01*
X383282D01*
Y1123968D01*
X379218D01*
X380234Y1124984D02*
Y1127016D01*
X382266D01*
Y1124984D01*
X380234D01*
X398718Y1139968D02*
Y1144032D01*
X402782D01*
Y1139968D01*
X398718D01*
X399734Y1140984D02*
Y1143016D01*
X401766D01*
Y1140984D01*
X399734D01*
X619968Y909468D02*
Y913532D01*
X624032D01*
Y909468D01*
X619968D01*
X620984Y910484D02*
Y912516D01*
X623016D01*
Y910484D01*
X620984D01*
X645364Y931048D02*
Y935112D01*
X649428D01*
Y931048D01*
X645364D01*
X646380Y932064D02*
Y934096D01*
X648412D01*
Y932064D01*
X646380D01*
X626518Y841618D02*
Y845682D01*
X630582D01*
Y841618D01*
X626518D01*
X627534Y842634D02*
Y844666D01*
X629566D01*
Y842634D01*
X627534D01*
X613818Y841618D02*
Y845682D01*
X617882D01*
Y841618D01*
X613818D01*
X614834Y842634D02*
Y844666D01*
X616866D01*
Y842634D01*
X614834D01*
X369718Y944468D02*
Y948532D01*
X373782D01*
Y944468D01*
X369718D01*
X370734Y945484D02*
Y947516D01*
X372766D01*
Y945484D01*
X370734D01*
X506468Y1004718D02*
Y1008782D01*
X510532D01*
Y1004718D01*
X506468D01*
X507484Y1005734D02*
Y1007766D01*
X509516D01*
Y1005734D01*
X507484D01*
X587468Y994468D02*
Y998532D01*
X591532D01*
Y994468D01*
X587468D01*
X588484Y995484D02*
Y997516D01*
X590516D01*
Y995484D01*
X588484D01*
X680435Y1066500D02*
Y1070564D01*
X684500D01*
Y1066500D01*
X680435D01*
X681451Y1067516D02*
Y1069548D01*
X683484D01*
Y1067516D01*
X681451D01*
X692718Y1020468D02*
Y1024532D01*
X696782D01*
Y1020468D01*
X692718D01*
X693734Y1021484D02*
Y1023516D01*
X695766D01*
Y1021484D01*
X693734D01*
D121*
X478282Y44450D02*
G03*
X478282Y44450I-2032J0D01*
G01*
Y69850D02*
G03*
X478282Y69850I-2032J0D01*
G01*
Y95250D02*
G03*
X478282Y95250I-2032J0D01*
G01*
M02*
