G04*
G04 #@! TF.GenerationSoftware,Altium Limited,Altium Designer,22.8.2 (66)*
G04*
G04 Layer_Color=16711935*
%FSLAX44Y44*%
%MOMM*%
G71*
G04*
G04 #@! TF.SameCoordinates,B0619A4A-581E-4249-BB79-A942B5E0D796*
G04*
G04*
G04 #@! TF.FilePolarity,Positive*
G04*
G01*
G75*
%ADD12C,0.2000*%
%ADD13C,0.2540*%
%ADD14C,0.1270*%
%ADD16C,0.0254*%
%ADD17C,0.0500*%
%ADD119C,0.1000*%
D12*
X541661Y880652D02*
G03*
X541661Y880652I-1000J0D01*
G01*
D13*
X252984Y692404D02*
G03*
X252984Y667004I0J-12700D01*
G01*
X358192Y457478D02*
Y587478D01*
Y457478D02*
X428192D01*
Y587478D01*
X358192D02*
X428192D01*
X282120Y380670D02*
Y407670D01*
X264120D02*
X282120D01*
X264120Y380670D02*
Y407670D01*
Y380670D02*
X282120D01*
X255380D02*
Y407670D01*
X237380D02*
X255380D01*
X237380Y380670D02*
Y407670D01*
Y380670D02*
X255380D01*
X289450Y380430D02*
Y407430D01*
Y380430D02*
X307450D01*
Y407430D01*
X289450D02*
X307450D01*
X285458Y543196D02*
X312458D01*
Y561196D01*
X285458D02*
X312458D01*
X285458Y543196D02*
Y561196D01*
X293290Y379350D02*
Y429350D01*
X254290D02*
X293290D01*
X254290Y379350D02*
Y429350D01*
Y379350D02*
X293290D01*
X367740Y1099170D02*
X459180D01*
X367740D02*
Y1166390D01*
X459180D01*
Y1099170D02*
Y1166390D01*
X689823Y920640D02*
Y938640D01*
Y920640D02*
X716823D01*
Y938640D01*
X689823D02*
X716823D01*
X532240Y435826D02*
Y462826D01*
X514240D02*
X532240D01*
X514240Y435826D02*
Y462826D01*
Y435826D02*
X532240D01*
X252384Y629504D02*
Y729704D01*
X251784Y628904D02*
X252384Y629504D01*
X49784Y628904D02*
X251784D01*
X49784D02*
Y730504D01*
X252984D01*
X327296Y637470D02*
Y664470D01*
X345296D01*
Y637470D02*
Y664470D01*
X327296Y637470D02*
X345296D01*
X312846Y635850D02*
Y695850D01*
X270846Y635850D02*
X312846D01*
X270846D02*
Y695850D01*
X312846D01*
X629450Y257805D02*
Y275805D01*
X602450Y257805D02*
X629450D01*
X602450D02*
Y275805D01*
X629450D01*
X548884Y257595D02*
X575884D01*
Y275595D01*
X548884D02*
X575884D01*
X548884Y257595D02*
Y275595D01*
X661750Y257700D02*
X700750D01*
Y275700D01*
X661750D02*
X700750D01*
X661750Y257700D02*
Y275700D01*
X566564Y14948D02*
X584564D01*
X566564D02*
Y41948D01*
X584564D01*
Y14948D02*
Y41948D01*
X566302Y68778D02*
Y95778D01*
Y68778D02*
X584302D01*
Y95778D01*
X566302D02*
X584302D01*
X586350Y119150D02*
X696350D01*
X586350D02*
Y249150D01*
X696350D01*
Y119150D02*
Y249150D01*
X411250Y10250D02*
Y130250D01*
Y10250D02*
X496250D01*
Y130250D01*
X411250D02*
X496250D01*
X555100Y115050D02*
Y154050D01*
X537100D02*
X555100D01*
X537100Y115050D02*
Y154050D01*
Y115050D02*
X555100D01*
X505612Y72370D02*
X523612D01*
X505612D02*
Y99370D01*
X523612D01*
Y72370D02*
Y99370D01*
X229200Y159370D02*
X247200D01*
X229200D02*
Y186370D01*
X247200D01*
Y159370D02*
Y186370D01*
X369500Y126193D02*
Y224193D01*
X258500Y126193D02*
X369500D01*
X258500D02*
Y224193D01*
X369500D01*
X381600Y159370D02*
X399600D01*
X381600D02*
Y186370D01*
X399600D01*
Y159370D02*
Y186370D01*
X391280Y38410D02*
Y98410D01*
X349280D02*
X391280D01*
X349280Y38410D02*
Y98410D01*
Y38410D02*
X391280D01*
X244550Y15870D02*
Y75870D01*
X317550D01*
Y15870D02*
Y75870D01*
X244550Y15870D02*
X317550D01*
X500400Y989330D02*
Y1080770D01*
X433180Y989330D02*
X500400D01*
X433180D02*
Y1080770D01*
X500400D01*
X567352Y964167D02*
X604852D01*
X567352D02*
Y1066667D01*
X604852D01*
Y964167D02*
Y1066667D01*
X719703Y964047D02*
Y1055488D01*
X652483Y964047D02*
X719703D01*
X652483D02*
Y1055488D01*
X719703D01*
X621420Y924190D02*
Y1018170D01*
X581420D02*
X621420D01*
X581420Y924190D02*
Y1018170D01*
Y924190D02*
X621420D01*
X535750Y985000D02*
Y1012000D01*
X517750D02*
X535750D01*
X517750Y985000D02*
Y1012000D01*
Y985000D02*
X535750D01*
X333900Y1048550D02*
X351900D01*
X333900Y1021550D02*
Y1048550D01*
Y1021550D02*
X351900D01*
Y1048550D01*
X333900Y946950D02*
X351900D01*
X333900Y919950D02*
Y946950D01*
Y919950D02*
X351900D01*
Y946950D01*
X476100Y1165820D02*
X494100D01*
Y1192820D01*
X476100D02*
X494100D01*
X476100Y1165820D02*
Y1192820D01*
X650410Y625920D02*
Y634920D01*
X667910D01*
Y625920D02*
Y634920D01*
X650410Y625920D02*
X667910D01*
X636304Y541743D02*
Y550742D01*
X653804D01*
Y541743D02*
Y550742D01*
X636304Y541743D02*
X653804D01*
X515760Y364270D02*
X539760D01*
X515760Y404270D02*
X539760D01*
Y364270D02*
Y404270D01*
X515760Y364270D02*
Y404270D01*
X553720Y517600D02*
X623720D01*
Y447600D02*
Y517600D01*
X553720Y447600D02*
X623720D01*
X553720D02*
Y517600D01*
X474048Y426250D02*
X492048D01*
Y399250D02*
Y426250D01*
X474048Y399250D02*
X492048D01*
X474048D02*
Y426250D01*
X449470Y399250D02*
X467470D01*
X449470D02*
Y426250D01*
X467470D01*
Y399250D02*
Y426250D01*
X507000Y533250D02*
X525000D01*
Y506250D02*
Y533250D01*
X507000Y506250D02*
X525000D01*
X507000D02*
Y533250D01*
X622900Y444184D02*
Y471184D01*
Y444184D02*
X640900D01*
Y471184D01*
X622900D02*
X640900D01*
X662270Y445454D02*
Y472454D01*
Y445454D02*
X680270D01*
Y472454D01*
X662270D02*
X680270D01*
X307740Y1145168D02*
Y1163168D01*
Y1145168D02*
X334740D01*
Y1163168D01*
X307740D02*
X334740D01*
X325720Y1202220D02*
X343720D01*
X325720Y1175220D02*
Y1202220D01*
Y1175220D02*
X343720D01*
Y1202220D01*
X297780D02*
X315780D01*
X297780Y1175220D02*
Y1202220D01*
Y1175220D02*
X315780D01*
Y1202220D01*
X308520Y1118760D02*
Y1136760D01*
Y1118760D02*
X335520D01*
Y1136760D01*
X308520D02*
X335520D01*
X324192Y1078114D02*
X342192D01*
Y1105114D01*
X324192D02*
X342192D01*
X324192Y1078114D02*
Y1105114D01*
X300320Y1078114D02*
X318320D01*
Y1105114D01*
X300320D02*
X318320D01*
X300320Y1078114D02*
Y1105114D01*
X700000Y0D02*
G03*
X733500Y33500I0J33500D01*
G01*
X0Y25000D02*
G03*
X25000Y0I25000J0D01*
G01*
X41400Y1216400D02*
G03*
X0Y1175000I0J-41400D01*
G01*
X733500Y1166500D02*
G03*
X683600Y1216400I-49900J0D01*
G01*
X0Y25000D02*
Y1175000D01*
X25000Y0D02*
X700000D01*
X733500Y33500D02*
Y1166500D01*
X41400Y1216400D02*
X683600D01*
D14*
X511161Y908152D02*
X525162D01*
X511161Y879152D02*
Y908152D01*
Y879152D02*
X525162D01*
Y908152D01*
D16*
X446547Y460248D02*
Y584454D01*
D17*
X353250Y588476D02*
X433145D01*
X353250Y456438D02*
Y588476D01*
Y456438D02*
X433145D01*
Y588476D01*
D119*
X658000Y797500D02*
G03*
X658000Y797500I-5000J0D01*
G01*
X491412Y755826D02*
G03*
X491412Y755826I-5000J0D01*
G01*
X454750Y797750D02*
G03*
X454750Y797750I-5000J0D01*
G01*
X426068Y1024808D02*
G03*
X426068Y1024808I-5000J0D01*
G01*
X650200Y1163300D02*
G03*
X574000Y1163300I-38100J0D01*
G01*
D02*
G03*
X650200Y1163300I38100J0D01*
G01*
X292100Y901700D02*
G03*
X292100Y977900I0J38100D01*
G01*
D02*
G03*
X292100Y901700I0J-38100D01*
G01*
X292100Y800100D02*
G03*
X292100Y876300I0J38100D01*
G01*
D02*
G03*
X292100Y800100I0J-38100D01*
G01*
X515352Y707262D02*
Y716662D01*
X532652Y707262D02*
Y716662D01*
X515352D02*
X532652D01*
X515352Y707262D02*
X532652D01*
X557000Y730500D02*
Y806500D01*
X662000Y730500D02*
Y806500D01*
X557000Y730500D02*
X662000D01*
X557000Y806500D02*
X662000D01*
X477412Y746826D02*
X527412D01*
X477412Y786826D02*
X527412D01*
X477412Y746826D02*
Y786826D01*
X527412Y746826D02*
Y786826D01*
X417844Y961770D02*
Y971170D01*
X400544Y961770D02*
Y971170D01*
X417844D01*
X400544Y961770D02*
X417844D01*
X469502Y574674D02*
X486802D01*
X469502Y584074D02*
X486802D01*
X469502Y574674D02*
Y584074D01*
X486802Y574674D02*
Y584074D01*
X512942Y845692D02*
Y855092D01*
X530242Y845692D02*
Y855092D01*
X512942Y845692D02*
X530242D01*
X512942Y855092D02*
X530242D01*
X548254Y867752D02*
Y885052D01*
X557654Y867752D02*
Y885052D01*
X548254Y867752D02*
X557654D01*
X548254Y885052D02*
X557654D01*
X545750Y730750D02*
Y806750D01*
X440750Y730750D02*
Y806750D01*
Y730750D02*
X545750D01*
X440750Y806750D02*
X545750D01*
X385050Y990220D02*
X402350D01*
X385050Y980820D02*
X402350D01*
Y990220D01*
X385050Y980820D02*
Y990220D01*
X399068Y1033808D02*
X430068D01*
X399068Y1002808D02*
X430068D01*
Y1033808D01*
X399068Y1002808D02*
Y1033808D01*
X651070Y1044033D02*
X665070D01*
Y1074283D01*
X651070Y1044033D02*
Y1074283D01*
X665070D01*
X481959Y511954D02*
X491359D01*
X481959Y494654D02*
X491359D01*
Y511954D01*
X481959Y494654D02*
Y511954D01*
X463272D02*
X472672D01*
X463272Y494654D02*
X472672D01*
Y511954D01*
X463272Y494654D02*
Y511954D01*
X304164Y444250D02*
X313564D01*
X304164Y426950D02*
X313564D01*
Y444250D01*
X304164Y426950D02*
Y444250D01*
X234822D02*
X244222D01*
X234822Y426950D02*
X244222D01*
Y444250D01*
X234822Y426950D02*
Y444250D01*
X290790Y513324D02*
X304790D01*
X290790D02*
Y543574D01*
X304790Y513324D02*
Y543574D01*
X290790D02*
X304790D01*
X304418Y398794D02*
X313818D01*
X304418Y381494D02*
X313818D01*
Y398794D01*
X304418Y381494D02*
Y398794D01*
X233806Y398750D02*
X243206D01*
X233806Y381450D02*
X243206D01*
Y398750D01*
X233806Y381450D02*
Y398750D01*
X291190Y465480D02*
X300590D01*
X291190Y482780D02*
X300590D01*
X291190Y465480D02*
Y482780D01*
X300590Y465480D02*
Y482780D01*
X312780Y465480D02*
X322180D01*
X312780Y482780D02*
X322180D01*
X312780Y465480D02*
Y482780D01*
X322180Y465480D02*
Y482780D01*
X309618Y584800D02*
X319018D01*
X309618Y567500D02*
X319018D01*
X309618D02*
Y584800D01*
X319018Y567500D02*
Y584800D01*
X290236Y584810D02*
X299636D01*
X290236Y567510D02*
X299636D01*
Y584810D01*
X290236Y567510D02*
Y584810D01*
X491260Y466286D02*
Y483586D01*
X481860Y466286D02*
Y483586D01*
X491260D01*
X481860Y466286D02*
X491260D01*
X472573D02*
Y483586D01*
X463172Y466286D02*
Y483586D01*
X472573D01*
X463172Y466286D02*
X472573D01*
X433350Y840300D02*
X450650D01*
X433350Y849700D02*
X450650D01*
X433350Y840300D02*
Y849700D01*
X450650Y840300D02*
Y849700D01*
X447100Y693300D02*
X464400D01*
X447100Y702700D02*
X464400D01*
X447100Y693300D02*
Y702700D01*
X464400Y693300D02*
Y702700D01*
X445896Y1014970D02*
Y1032270D01*
X455296Y1014970D02*
Y1032270D01*
X445896D02*
X455296D01*
X445896Y1014970D02*
X455296D01*
X465700Y1181350D02*
Y1198650D01*
X456300Y1181350D02*
Y1198650D01*
X465700D01*
X456300Y1181350D02*
X465700D01*
X446700D02*
Y1198650D01*
X437300Y1181350D02*
Y1198650D01*
X446700D01*
X437300Y1181350D02*
X446700D01*
X555052Y957200D02*
X572352D01*
X555052Y947800D02*
X572352D01*
X555052D02*
Y957200D01*
X572352Y947800D02*
Y957200D01*
X640600Y685650D02*
X657900D01*
X640600Y695050D02*
X657900D01*
Y685650D02*
Y695050D01*
X640600Y685650D02*
Y695050D01*
Y838050D02*
X657900D01*
X640600Y847450D02*
X657900D01*
Y838050D02*
Y847450D01*
X640600Y838050D02*
Y847450D01*
X464298Y684404D02*
X481598D01*
X464298Y675004D02*
X481598D01*
X464298D02*
Y684404D01*
X481598Y675004D02*
Y684404D01*
X508888Y615428D02*
Y632728D01*
X518288Y615428D02*
Y632728D01*
X508888Y615428D02*
X518288D01*
X508888Y632728D02*
X518288D01*
X454850Y719300D02*
X472150D01*
X454850Y728700D02*
X472150D01*
Y719300D02*
Y728700D01*
X454850Y719300D02*
Y728700D01*
X456050Y782676D02*
Y799976D01*
X465450Y782676D02*
Y799976D01*
X456050Y782676D02*
X465450D01*
X456050Y799976D02*
X465450D01*
X543800Y458373D02*
X561100D01*
X543800Y448973D02*
X561100D01*
Y458373D01*
X543800Y448973D02*
Y458373D01*
X281950Y796250D02*
Y810250D01*
X251700Y796250D02*
X281950D01*
X251700Y810250D02*
X281950D01*
X251700Y796250D02*
Y810250D01*
X265800Y719200D02*
X283100D01*
X265800Y728600D02*
X283100D01*
Y719200D02*
Y728600D01*
X265800Y719200D02*
Y728600D01*
X302500Y817500D02*
X319800D01*
X302500Y808100D02*
X319800D01*
X302500D02*
Y817500D01*
X319800Y808100D02*
Y817500D01*
X302500Y798450D02*
X319800D01*
X302500Y789050D02*
X319800D01*
X302500D02*
Y798450D01*
X319800Y789050D02*
Y798450D01*
X281950Y751800D02*
Y765800D01*
X251700Y751800D02*
X281950D01*
X251700Y765800D02*
X281950D01*
X251700Y751800D02*
Y765800D01*
X695850Y1073200D02*
X713150D01*
X695850Y1063800D02*
X713150D01*
X695850D02*
Y1073200D01*
X713150Y1063800D02*
Y1073200D01*
X530950Y1027100D02*
Y1044400D01*
X521550Y1027100D02*
Y1044400D01*
Y1027100D02*
X530950D01*
X521550Y1044400D02*
X530950D01*
X669620Y998483D02*
Y1015782D01*
X660220Y998483D02*
Y1015782D01*
Y998483D02*
X669620D01*
X660220Y1015782D02*
X669620D01*
Y965440D02*
Y982740D01*
X660220Y965440D02*
Y982740D01*
Y965440D02*
X669620D01*
X660220Y982740D02*
X669620D01*
X629190Y1034670D02*
X646490D01*
X629190Y1025270D02*
X646490D01*
Y1034670D01*
X629190Y1025270D02*
Y1034670D01*
X592770Y916200D02*
X610070D01*
X592770Y906800D02*
X610070D01*
Y916200D01*
X592770Y906800D02*
Y916200D01*
X696302Y903350D02*
X713603D01*
X696302Y912750D02*
X713603D01*
Y903350D02*
Y912750D01*
X696302Y903350D02*
Y912750D01*
X571180Y1034670D02*
X588480D01*
X571180Y1025270D02*
X588480D01*
Y1034670D01*
X571180Y1025270D02*
Y1034670D01*
X542110Y942080D02*
Y959380D01*
X551510Y942080D02*
Y959380D01*
X542110D02*
X551510D01*
X542110Y942080D02*
X551510D01*
X417300Y1181350D02*
Y1198650D01*
X426700Y1181350D02*
Y1198650D01*
X417300Y1181350D02*
X426700D01*
X417300Y1198650D02*
X426700D01*
X514030Y1077850D02*
X531330D01*
X514030Y1068450D02*
X531330D01*
X514030D02*
Y1077850D01*
X531330Y1068450D02*
Y1077850D01*
X669620Y932398D02*
Y949697D01*
X660220Y932398D02*
Y949697D01*
Y932398D02*
X669620D01*
X660220Y949697D02*
X669620D01*
X651010Y653485D02*
X668310D01*
X651010Y644085D02*
X668310D01*
Y653485D01*
X651010Y644085D02*
Y653485D01*
X644404Y569992D02*
X661704D01*
X644404Y560592D02*
X661704D01*
Y569992D01*
X644404Y560592D02*
Y569992D01*
X658009Y320440D02*
Y370440D01*
X624010Y320440D02*
Y370440D01*
X658009D01*
X624010Y320440D02*
X658009D01*
X675970Y401560D02*
Y418860D01*
X666570Y401560D02*
Y418860D01*
Y401560D02*
X675970D01*
X666570Y418860D02*
X675970D01*
X636600Y402830D02*
Y420130D01*
X627200Y402830D02*
Y420130D01*
Y402830D02*
X636600D01*
X627200Y420130D02*
X636600D01*
X679780Y336790D02*
Y354090D01*
X670380Y336790D02*
Y354090D01*
X679780D01*
X670380Y336790D02*
X679780D01*
X560450Y355350D02*
Y372650D01*
X551050Y355350D02*
Y372650D01*
X560450D01*
X551050Y355350D02*
X560450D01*
X551050Y395600D02*
Y412900D01*
X560450Y395600D02*
Y412900D01*
X551050Y395600D02*
X560450D01*
X551050Y412900D02*
X560450D01*
X595450Y364290D02*
Y381590D01*
X604850Y364290D02*
Y381590D01*
X595450Y364290D02*
X604850D01*
X595450Y381590D02*
X604850D01*
X604326Y309290D02*
Y326590D01*
X594926Y309290D02*
Y326590D01*
X604326D01*
X594926Y309290D02*
X604326D01*
X514648Y429500D02*
Y446800D01*
X524048Y429500D02*
Y446800D01*
X514648Y429500D02*
X524048D01*
X514648Y446800D02*
X524048D01*
X541970Y558420D02*
X559270D01*
X541970Y549020D02*
X559270D01*
X541970D02*
Y558420D01*
X559270Y549020D02*
Y558420D01*
X662792Y513320D02*
Y530620D01*
X653392Y513320D02*
Y530620D01*
X662792D01*
X653392Y513320D02*
X662792D01*
X601660Y402970D02*
X618960D01*
X601660Y412370D02*
X618960D01*
Y402970D02*
Y412370D01*
X601660Y402970D02*
Y412370D01*
M02*
