G04*
G04 #@! TF.GenerationSoftware,Altium Limited,Altium Designer,22.8.2 (66)*
G04*
G04 Layer_Color=128*
%FSLAX44Y44*%
%MOMM*%
G71*
G04*
G04 #@! TF.SameCoordinates,B0619A4A-581E-4249-BB79-A942B5E0D796*
G04*
G04*
G04 #@! TF.FilePolarity,Positive*
G04*
G01*
G75*
%ADD13C,0.2540*%
%ADD16C,0.0254*%
%ADD17C,0.0500*%
%ADD120C,0.0508*%
D13*
X700000Y0D02*
G03*
X733500Y33500I0J33500D01*
G01*
X0Y25000D02*
G03*
X25000Y0I25000J0D01*
G01*
X41400Y1216400D02*
G03*
X0Y1175000I0J-41400D01*
G01*
X733500Y1166500D02*
G03*
X683600Y1216400I-49900J0D01*
G01*
X0Y25000D02*
Y1175000D01*
X25000Y0D02*
X700000D01*
X733500Y33500D02*
Y1166500D01*
X41400Y1216400D02*
X683600D01*
D16*
X446547Y460248D02*
Y584454D01*
D17*
X353250Y588476D02*
X433145D01*
X353250Y456438D02*
Y588476D01*
Y456438D02*
X433145D01*
Y588476D01*
D120*
X44460Y302940D02*
X77460D01*
X60960Y286440D02*
Y319440D01*
X158760Y478340D02*
X191760D01*
X175260Y461840D02*
Y494840D01*
X158760Y127540D02*
X191760D01*
X175260Y111040D02*
Y144040D01*
X175960Y191590D02*
X194960D01*
X185460Y182090D02*
Y201090D01*
X175960Y236090D02*
X194960D01*
X185460Y226590D02*
Y245590D01*
X175960Y280590D02*
X194960D01*
X185460Y271090D02*
Y290090D01*
X175960Y325090D02*
X194960D01*
X185460Y315590D02*
Y334590D01*
X175960Y369590D02*
X194960D01*
X185460Y360090D02*
Y379090D01*
X175960Y414090D02*
X194960D01*
X185460Y404590D02*
Y423590D01*
X112460Y414090D02*
X131460D01*
X121960Y404590D02*
Y423590D01*
X112460Y369590D02*
X131460D01*
X121960Y360090D02*
Y379090D01*
X112460Y325090D02*
X131460D01*
X121960Y315590D02*
Y334590D01*
X112460Y280590D02*
X131460D01*
X121960Y271090D02*
Y290090D01*
X112460Y236090D02*
X131460D01*
X121960Y226590D02*
Y245590D01*
X112460Y191590D02*
X131460D01*
X121960Y182090D02*
Y201090D01*
X660000Y1159750D02*
X693000D01*
X676500Y1143250D02*
Y1176250D01*
X659000Y56250D02*
X692000D01*
X675500Y39750D02*
Y72750D01*
X325700Y844550D02*
X334700D01*
X330200Y840050D02*
Y849050D01*
X300300Y844550D02*
X309300D01*
X304800Y840050D02*
Y849050D01*
X274900Y844550D02*
X283900D01*
X279400Y840050D02*
Y849050D01*
X20900Y658622D02*
X29900D01*
X25400Y654122D02*
Y663122D01*
X20900Y684022D02*
X29900D01*
X25400Y679522D02*
Y688522D01*
X20900Y709422D02*
X29900D01*
X25400Y704922D02*
Y713922D01*
X172658Y842570D02*
X181658D01*
X177158Y838070D02*
Y847070D01*
X172658Y817170D02*
X181658D01*
X177158Y812670D02*
Y821670D01*
X198058Y842570D02*
X207058D01*
X202558Y838070D02*
Y847070D01*
X198058Y817170D02*
X207058D01*
X202558Y812670D02*
Y821670D01*
X223458Y842570D02*
X232458D01*
X227958Y838070D02*
Y847070D01*
X223458Y817170D02*
X232458D01*
X227958Y812670D02*
Y821670D01*
X478810Y370840D02*
X487810D01*
X483310Y366340D02*
Y375340D01*
X453410Y370840D02*
X462410D01*
X457910Y366340D02*
Y375340D01*
X478810Y345440D02*
X487810D01*
X483310Y340940D02*
Y349940D01*
X453410Y345440D02*
X462410D01*
X457910Y340940D02*
Y349940D01*
X478810Y320040D02*
X487810D01*
X483310Y315540D02*
Y324540D01*
X453410Y320040D02*
X462410D01*
X457910Y315540D02*
Y324540D01*
X558150Y1163300D02*
X564450D01*
X561300Y1160150D02*
Y1166450D01*
X532750Y1188700D02*
X539050D01*
X535900Y1185550D02*
Y1191850D01*
X507350Y1163300D02*
X513650D01*
X510500Y1160150D02*
Y1166450D01*
X288950Y990600D02*
X295250D01*
X292100Y987450D02*
Y993750D01*
X314350Y1016000D02*
X320650D01*
X317500Y1012850D02*
Y1019150D01*
X288950Y1041400D02*
X295250D01*
X292100Y1038250D02*
Y1044550D01*
X288950Y889000D02*
X295250D01*
X292100Y885850D02*
Y892150D01*
X314350Y914400D02*
X320650D01*
X317500Y911250D02*
Y917550D01*
X288950Y939800D02*
X295250D01*
X292100Y936650D02*
Y942950D01*
X108784Y641604D02*
X117784D01*
X113284Y637104D02*
Y646104D01*
X57984Y641604D02*
X66984D01*
X62484Y637104D02*
Y646104D01*
X57984Y717804D02*
X66984D01*
X62484Y713304D02*
Y722304D01*
X108784Y717804D02*
X117784D01*
X113284Y713304D02*
Y722304D01*
X159584Y717804D02*
X168584D01*
X164084Y713304D02*
Y722304D01*
X159584Y641604D02*
X168584D01*
X164084Y637104D02*
Y646104D01*
X235784Y641604D02*
X244784D01*
X240284Y637104D02*
Y646104D01*
X235784Y717804D02*
X244784D01*
X240284Y713304D02*
Y722304D01*
X471250Y44450D02*
X481250D01*
X476250Y39450D02*
Y49450D01*
X471250Y69850D02*
X481250D01*
X476250Y64850D02*
Y74850D01*
X471250Y95250D02*
X481250D01*
X476250Y90250D02*
Y100250D01*
X610088Y1086338D02*
X616488D01*
X613288Y1083138D02*
Y1089538D01*
X584688Y1086338D02*
X591088D01*
X587888Y1083138D02*
Y1089538D01*
X559288Y1086338D02*
X565688D01*
X562488Y1083138D02*
Y1089538D01*
X44968Y1017524D02*
X77968D01*
X61468Y1001024D02*
Y1034024D01*
X158968Y1127024D02*
X191968D01*
X175468Y1110524D02*
Y1143524D01*
X159268Y908974D02*
X192268D01*
X175768Y892474D02*
Y925474D01*
X176468Y973024D02*
X195468D01*
X185968Y963524D02*
Y982524D01*
X176468Y1017524D02*
X195468D01*
X185968Y1008024D02*
Y1027024D01*
X176468Y1062024D02*
X195468D01*
X185968Y1052524D02*
Y1071524D01*
X112968Y1062024D02*
X131968D01*
X122468Y1052524D02*
Y1071524D01*
X112968Y1017524D02*
X131968D01*
X122468Y1008024D02*
Y1027024D01*
X112968Y973024D02*
X131968D01*
X122468Y963524D02*
Y982524D01*
X706140Y445770D02*
X715140D01*
X710640Y441270D02*
Y450270D01*
X706140Y420370D02*
X715140D01*
X710640Y415870D02*
Y424870D01*
X706140Y394970D02*
X715140D01*
X710640Y390470D02*
Y399470D01*
X706140Y369570D02*
X715140D01*
X710640Y365070D02*
Y374070D01*
X694249Y706000D02*
X696749D01*
X695499Y704750D02*
Y707250D01*
X709249Y676000D02*
X711749D01*
X710499Y674750D02*
Y677250D01*
X694249Y646000D02*
X696749D01*
X695499Y644750D02*
Y647250D01*
X709249Y616000D02*
X711749D01*
X710499Y614750D02*
Y617250D01*
X709249Y556000D02*
X711749D01*
X710499Y554750D02*
Y557250D01*
X694249Y526000D02*
X696749D01*
X695499Y524750D02*
Y527250D01*
X709249Y496000D02*
X711749D01*
X710499Y494750D02*
Y497250D01*
X694249Y466000D02*
X696749D01*
X695499Y464750D02*
Y467250D01*
X694249Y406000D02*
X696749D01*
X695499Y404750D02*
Y407250D01*
X709249Y316000D02*
X711749D01*
X710499Y314750D02*
Y317250D01*
X694249Y286000D02*
X696749D01*
X695499Y284750D02*
Y287250D01*
X709249Y256000D02*
X711749D01*
X710499Y254750D02*
Y257250D01*
X679249Y676000D02*
X681749D01*
X680499Y674750D02*
Y677250D01*
X679249Y556000D02*
X681749D01*
X680499Y554750D02*
Y557250D01*
X679249Y496000D02*
X681749D01*
X680499Y494750D02*
Y497250D01*
X664249Y286000D02*
X666749D01*
X665499Y284750D02*
Y287250D01*
X664249Y226000D02*
X666749D01*
X665499Y224750D02*
Y227250D01*
X649249Y676000D02*
X651749D01*
X650499Y674750D02*
Y677250D01*
X634249Y646000D02*
X636749D01*
X635499Y644750D02*
Y647250D01*
X649249Y616000D02*
X651749D01*
X650499Y614750D02*
Y617250D01*
X634249Y586000D02*
X636749D01*
X635499Y584750D02*
Y587250D01*
X649249Y496000D02*
X651749D01*
X650499Y494750D02*
Y497250D01*
X634249Y286000D02*
X636749D01*
X635499Y284750D02*
Y287250D01*
X649249Y256000D02*
X651749D01*
X650499Y254750D02*
Y257250D01*
X634249Y226000D02*
X636749D01*
X635499Y224750D02*
Y227250D01*
X604249Y286000D02*
X606749D01*
X605499Y284750D02*
Y287250D01*
X589249Y496000D02*
X591749D01*
X590499Y494750D02*
Y497250D01*
X574249Y286000D02*
X576749D01*
X575499Y284750D02*
Y287250D01*
X589249Y256000D02*
X591749D01*
X590499Y254750D02*
Y257250D01*
X559249Y676000D02*
X561749D01*
X560499Y674750D02*
Y677250D01*
X559249Y316000D02*
X561749D01*
X560499Y314750D02*
Y317250D01*
X544249Y286000D02*
X546749D01*
X545499Y284750D02*
Y287250D01*
X544249Y226000D02*
X546749D01*
X545499Y224750D02*
Y227250D01*
X529249Y316000D02*
X531749D01*
X530499Y314750D02*
Y317250D01*
X514249Y286000D02*
X516749D01*
X515499Y284750D02*
Y287250D01*
X529249Y256000D02*
X531749D01*
X530499Y254750D02*
Y257250D01*
X514249Y226000D02*
X516749D01*
X515499Y224750D02*
Y227250D01*
X499249Y436000D02*
X501749D01*
X500499Y434750D02*
Y437250D01*
X499249Y316000D02*
X501749D01*
X500499Y314750D02*
Y317250D01*
X484250Y286000D02*
X486749D01*
X485499Y284750D02*
Y287250D01*
X499249Y256000D02*
X501749D01*
X500499Y254750D02*
Y257250D01*
X484250Y226000D02*
X486749D01*
X485499Y224750D02*
Y227250D01*
X454250Y646000D02*
X456749D01*
X455499Y644750D02*
Y647250D01*
X469250Y616000D02*
X471749D01*
X470499Y614750D02*
Y617250D01*
X454250Y286000D02*
X456749D01*
X455499Y284750D02*
Y287250D01*
X469250Y256000D02*
X471749D01*
X470499Y254750D02*
Y257250D01*
X694250Y1106000D02*
X696750D01*
X695500Y1104750D02*
Y1107250D01*
X674250Y906000D02*
X676750D01*
X675500Y904750D02*
Y907250D01*
X694250Y866000D02*
X696750D01*
X695500Y864750D02*
Y867250D01*
X674250Y826000D02*
X676750D01*
X675500Y824750D02*
Y827250D01*
X674250Y106000D02*
X676750D01*
X675500Y104750D02*
Y107250D01*
X654250Y1106000D02*
X656750D01*
X655500Y1104750D02*
Y1107250D01*
X654250Y146000D02*
X656750D01*
X655500Y144750D02*
Y147250D01*
X634250Y106000D02*
X636750D01*
X635500Y104750D02*
Y107250D01*
X634250Y26000D02*
X636750D01*
X635500Y24750D02*
Y27250D01*
X614250Y1186000D02*
X616750D01*
X615500Y1184750D02*
Y1187250D01*
X594250Y1146000D02*
X596750D01*
X595500Y1144750D02*
Y1147250D01*
X614250Y1106000D02*
X616750D01*
X615500Y1104750D02*
Y1107250D01*
X614250Y866000D02*
X616750D01*
X615500Y864750D02*
Y867250D01*
X614250Y146000D02*
X616750D01*
X615500Y144750D02*
Y147250D01*
X594250Y106000D02*
X596750D01*
X595500Y104750D02*
Y107250D01*
X614250Y66000D02*
X616750D01*
X615500Y64750D02*
Y67250D01*
X594250Y26000D02*
X596750D01*
X595500Y24750D02*
Y27250D01*
X574250Y1186000D02*
X576750D01*
X575500Y1184750D02*
Y1187250D01*
X554250Y1146000D02*
X556750D01*
X555500Y1144750D02*
Y1147250D01*
X574250Y1106000D02*
X576750D01*
X575500Y1104750D02*
Y1107250D01*
X574250Y866000D02*
X576750D01*
X575500Y864750D02*
Y867250D01*
X554250Y26000D02*
X556750D01*
X555500Y24750D02*
Y27250D01*
X514250Y1146000D02*
X516750D01*
X515500Y1144750D02*
Y1147250D01*
X534250Y1106000D02*
X536750D01*
X535500Y1104750D02*
Y1107250D01*
X534250Y66000D02*
X536750D01*
X535500Y64750D02*
Y67250D01*
X514250Y26000D02*
X516750D01*
X515500Y24750D02*
Y27250D01*
X474250Y986000D02*
X476750D01*
X475500Y984750D02*
Y987250D01*
X494250Y146000D02*
X496750D01*
X495500Y144750D02*
Y147250D01*
X494250Y66000D02*
X496750D01*
X495500Y64750D02*
Y67250D01*
X474250Y26000D02*
X476750D01*
X475500Y24750D02*
Y27250D01*
X434250Y106000D02*
X436750D01*
X435500Y104750D02*
Y107250D01*
X454250Y66000D02*
X456750D01*
X455500Y64750D02*
Y67250D01*
X434250Y26000D02*
X436750D01*
X435500Y24750D02*
Y27250D01*
X394250Y906000D02*
X396750D01*
X395500Y904750D02*
Y907250D01*
X394250Y826000D02*
X396750D01*
X395500Y824750D02*
Y827250D01*
X414250Y786000D02*
X416750D01*
X415500Y784750D02*
Y787250D01*
X414250Y146000D02*
X416750D01*
X415500Y144750D02*
Y147250D01*
X394250Y106000D02*
X396750D01*
X395500Y104750D02*
Y107250D01*
X414250Y66000D02*
X416750D01*
X415500Y64750D02*
Y67250D01*
X394250Y26000D02*
X396750D01*
X395500Y24750D02*
Y27250D01*
X374250Y1186000D02*
X376750D01*
X375500Y1184750D02*
Y1187250D01*
X354250Y1146000D02*
X356750D01*
X355500Y1144750D02*
Y1147250D01*
X354250Y1066000D02*
X356750D01*
X355500Y1064750D02*
Y1067250D01*
X354250Y906000D02*
X356750D01*
X355500Y904750D02*
Y907250D01*
X354250Y746000D02*
X356750D01*
X355500Y744750D02*
Y747250D01*
X354250Y666000D02*
X356750D01*
X355500Y664750D02*
Y667250D01*
X354250Y426000D02*
X356750D01*
X355500Y424750D02*
Y427250D01*
X354250Y346000D02*
X356750D01*
X355500Y344750D02*
Y347250D01*
X354250Y266000D02*
X356750D01*
X355500Y264750D02*
Y267250D01*
X374250Y146000D02*
X376750D01*
X375500Y144750D02*
Y147250D01*
X354250Y26000D02*
X356750D01*
X355500Y24750D02*
Y27250D01*
X334250Y866000D02*
X336750D01*
X335500Y864750D02*
Y867250D01*
X314250Y746000D02*
X316750D01*
X315500Y744750D02*
Y747250D01*
X314250Y666000D02*
X316750D01*
X315500Y664750D02*
Y667250D01*
X334250Y626000D02*
X336750D01*
X335500Y624750D02*
Y627250D01*
X314250Y346000D02*
X316750D01*
X315500Y344750D02*
Y347250D01*
X334250Y306000D02*
X336750D01*
X335500Y304750D02*
Y307250D01*
X314250Y266000D02*
X316750D01*
X315500Y264750D02*
Y267250D01*
X274250Y1066000D02*
X276750D01*
X275500Y1064750D02*
Y1067250D01*
X294250Y1026000D02*
X296750D01*
X295500Y1024750D02*
Y1027250D01*
X274250Y986000D02*
X276750D01*
X275500Y984750D02*
Y987250D01*
X274250Y906000D02*
X276750D01*
X275500Y904750D02*
Y907250D01*
X294250Y866000D02*
X296750D01*
X295500Y864750D02*
Y867250D01*
X274250Y666000D02*
X276750D01*
X275500Y664750D02*
Y667250D01*
X294250Y306000D02*
X296750D01*
X295500Y304750D02*
Y307250D01*
X294250Y226000D02*
X296750D01*
X295500Y224750D02*
Y227250D01*
X274250Y106000D02*
X276750D01*
X275500Y104750D02*
Y107250D01*
X294250Y66000D02*
X296750D01*
X295500Y64750D02*
Y67250D01*
X274250Y26000D02*
X276750D01*
X275500Y24750D02*
Y27250D01*
X254250Y1186000D02*
X256750D01*
X255500Y1184750D02*
Y1187250D01*
X254250Y1106000D02*
X256750D01*
X255500Y1104750D02*
Y1107250D01*
X234250Y1066000D02*
X236750D01*
X235500Y1064750D02*
Y1067250D01*
X254250Y1026000D02*
X256750D01*
X255500Y1024750D02*
Y1027250D01*
X234250Y986000D02*
X236750D01*
X235500Y984750D02*
Y987250D01*
X254250Y946000D02*
X256750D01*
X255500Y944750D02*
Y947250D01*
X234250Y906000D02*
X236750D01*
X235500Y904750D02*
Y907250D01*
X254250Y866000D02*
X256750D01*
X255500Y864750D02*
Y867250D01*
X234250Y746000D02*
X236750D01*
X235500Y744750D02*
Y747250D01*
X254250Y706000D02*
X256750D01*
X255500Y704750D02*
Y707250D01*
X234250Y666000D02*
X236750D01*
X235500Y664750D02*
Y667250D01*
X234250Y586000D02*
X236750D01*
X235500Y584750D02*
Y587250D01*
X254250Y306000D02*
X256750D01*
X255500Y304750D02*
Y307250D01*
X234250Y266000D02*
X236750D01*
X235500Y264750D02*
Y267250D01*
X254250Y226000D02*
X256750D01*
X255500Y224750D02*
Y227250D01*
X234250Y106000D02*
X236750D01*
X235500Y104750D02*
Y107250D01*
X214250Y1186000D02*
X216750D01*
X215500Y1184750D02*
Y1187250D01*
X194250Y1146000D02*
X196750D01*
X195500Y1144750D02*
Y1147250D01*
X214250Y1106000D02*
X216750D01*
X215500Y1104750D02*
Y1107250D01*
X214250Y866000D02*
X216750D01*
X215500Y864750D02*
Y867250D01*
X214250Y786000D02*
X216750D01*
X215500Y784750D02*
Y787250D01*
X214250Y706000D02*
X216750D01*
X215500Y704750D02*
Y707250D01*
X214250Y626000D02*
X216750D01*
X215500Y624750D02*
Y627250D01*
X194250Y586000D02*
X196750D01*
X195500Y584750D02*
Y587250D01*
X214250Y546000D02*
X216750D01*
X215500Y544750D02*
Y547250D01*
X194250Y506000D02*
X196750D01*
X195500Y504750D02*
Y507250D01*
X214250Y306000D02*
X216750D01*
X215500Y304750D02*
Y307250D01*
X194250Y106000D02*
X196750D01*
X195500Y104750D02*
Y107250D01*
X214250Y66000D02*
X216750D01*
X215500Y64750D02*
Y67250D01*
X194250Y26000D02*
X196750D01*
X195500Y24750D02*
Y27250D01*
X174250Y1186000D02*
X176750D01*
X175500Y1184750D02*
Y1187250D01*
X154250Y1146000D02*
X156750D01*
X155500Y1144750D02*
Y1147250D01*
X154250Y986000D02*
X156750D01*
X155500Y984750D02*
Y987250D01*
X174250Y946000D02*
X176750D01*
X175500Y944750D02*
Y947250D01*
X174250Y866000D02*
X176750D01*
X175500Y864750D02*
Y867250D01*
X154250Y746000D02*
X156750D01*
X155500Y744750D02*
Y747250D01*
X154250Y346000D02*
X156750D01*
X155500Y344750D02*
Y347250D01*
X154250Y266000D02*
X156750D01*
X155500Y264750D02*
Y267250D01*
X154250Y106000D02*
X156750D01*
X155500Y104750D02*
Y107250D01*
X154250Y26000D02*
X156750D01*
X155500Y24750D02*
Y27250D01*
X134250Y1186000D02*
X136750D01*
X135500Y1184750D02*
Y1187250D01*
X114250Y1146000D02*
X116750D01*
X115500Y1144750D02*
Y1147250D01*
X134250Y1106000D02*
X136750D01*
X135500Y1104750D02*
Y1107250D01*
X134250Y946000D02*
X136750D01*
X135500Y944750D02*
Y947250D01*
X134250Y866000D02*
X136750D01*
X135500Y864750D02*
Y867250D01*
X114250Y746000D02*
X116750D01*
X115500Y744750D02*
Y747250D01*
X114250Y666000D02*
X116750D01*
X115500Y664750D02*
Y667250D01*
X134250Y546000D02*
X136750D01*
X135500Y544750D02*
Y547250D01*
X114250Y506000D02*
X116750D01*
X115500Y504750D02*
Y507250D01*
X134250Y66000D02*
X136750D01*
X135500Y64750D02*
Y67250D01*
X114250Y26000D02*
X116750D01*
X115500Y24750D02*
Y27250D01*
X94250Y1186000D02*
X96750D01*
X95500Y1184750D02*
Y1187250D01*
X74250Y1146000D02*
X76750D01*
X75500Y1144750D02*
Y1147250D01*
X94250Y1106000D02*
X96750D01*
X95500Y1104750D02*
Y1107250D01*
X74250Y1066000D02*
X76750D01*
X75500Y1064750D02*
Y1067250D01*
X94250Y1026000D02*
X96750D01*
X95500Y1024750D02*
Y1027250D01*
X74250Y986000D02*
X76750D01*
X75500Y984750D02*
Y987250D01*
X94250Y946000D02*
X96750D01*
X95500Y944750D02*
Y947250D01*
X74250Y906000D02*
X76750D01*
X75500Y904750D02*
Y907250D01*
X94250Y866000D02*
X96750D01*
X95500Y864750D02*
Y867250D01*
X74250Y826000D02*
X76750D01*
X75500Y824750D02*
Y827250D01*
X94250Y786000D02*
X96750D01*
X95500Y784750D02*
Y787250D01*
X74250Y746000D02*
X76750D01*
X75500Y744750D02*
Y747250D01*
X94250Y706000D02*
X96750D01*
X95500Y704750D02*
Y707250D01*
X74250Y666000D02*
X76750D01*
X75500Y664750D02*
Y667250D01*
X94250Y626000D02*
X96750D01*
X95500Y624750D02*
Y627250D01*
X74250Y186000D02*
X76750D01*
X75500Y184750D02*
Y187250D01*
X94250Y146000D02*
X96750D01*
X95500Y144750D02*
Y147250D01*
X74250Y106000D02*
X76750D01*
X75500Y104750D02*
Y107250D01*
X94250Y66000D02*
X96750D01*
X95500Y64750D02*
Y67250D01*
X74250Y26000D02*
X76750D01*
X75500Y24750D02*
Y27250D01*
X54250Y1186000D02*
X56750D01*
X55500Y1184750D02*
Y1187250D01*
X34250Y1146000D02*
X36750D01*
X35500Y1144750D02*
Y1147250D01*
X54250Y1106000D02*
X56750D01*
X55500Y1104750D02*
Y1107250D01*
X34250Y1066000D02*
X36750D01*
X35500Y1064750D02*
Y1067250D01*
X34250Y986000D02*
X36750D01*
X35500Y984750D02*
Y987250D01*
X54250Y946000D02*
X56750D01*
X55500Y944750D02*
Y947250D01*
X34250Y906000D02*
X36750D01*
X35500Y904750D02*
Y907250D01*
X54250Y866000D02*
X56750D01*
X55500Y864750D02*
Y867250D01*
X34250Y826000D02*
X36750D01*
X35500Y824750D02*
Y827250D01*
X54250Y786000D02*
X56750D01*
X55500Y784750D02*
Y787250D01*
X34250Y746000D02*
X36750D01*
X35500Y744750D02*
Y747250D01*
X34250Y586000D02*
X36750D01*
X35500Y584750D02*
Y587250D01*
X54250Y546000D02*
X56750D01*
X55500Y544750D02*
Y547250D01*
X34250Y506000D02*
X36750D01*
X35500Y504750D02*
Y507250D01*
X54250Y466000D02*
X56750D01*
X55500Y464750D02*
Y467250D01*
X34250Y426000D02*
X36750D01*
X35500Y424750D02*
Y427250D01*
X54250Y386000D02*
X56750D01*
X55500Y384750D02*
Y387250D01*
X34250Y346000D02*
X36750D01*
X35500Y344750D02*
Y347250D01*
X34250Y266000D02*
X36750D01*
X35500Y264750D02*
Y267250D01*
X54250Y226000D02*
X56750D01*
X55500Y224750D02*
Y227250D01*
X34250Y186000D02*
X36750D01*
X35500Y184750D02*
Y187250D01*
X54250Y146000D02*
X56750D01*
X55500Y144750D02*
Y147250D01*
X34250Y106000D02*
X36750D01*
X35500Y104750D02*
Y107250D01*
X54250Y66000D02*
X56750D01*
X55500Y64750D02*
Y67250D01*
X34250Y26000D02*
X36750D01*
X35500Y24750D02*
Y27250D01*
X457155Y517936D02*
X459655D01*
X458405Y516686D02*
Y519186D01*
X549422Y930148D02*
X551922D01*
X550672Y928898D02*
Y931398D01*
X389148Y1006348D02*
X391648D01*
X390398Y1005098D02*
Y1007598D01*
X364510Y1010920D02*
X367010D01*
X365760Y1009670D02*
Y1012170D01*
X462808Y1031370D02*
X465308D01*
X464058Y1030120D02*
Y1032620D01*
X373153Y986003D02*
X375653D01*
X374403Y984753D02*
Y987253D01*
X484652Y569468D02*
X487152D01*
X485902Y568218D02*
Y570718D01*
X527324Y605536D02*
X529824D01*
X528574Y604286D02*
Y606786D01*
X451378Y687070D02*
X453878D01*
X452628Y685820D02*
Y688320D01*
X527600Y833718D02*
X530100D01*
X528850Y832468D02*
Y834968D01*
X469093Y591853D02*
X471593D01*
X470343Y590603D02*
Y593103D01*
X472039Y692911D02*
X474539D01*
X473289Y691661D02*
Y694160D01*
X524276Y664464D02*
X526776D01*
X525526Y663214D02*
Y665714D01*
X510560Y664718D02*
X513060D01*
X511810Y663468D02*
Y665968D01*
X500146Y651002D02*
X502646D01*
X501396Y649752D02*
Y652252D01*
X547644Y667004D02*
X550144D01*
X548894Y665754D02*
Y668254D01*
X528440Y510943D02*
X530940D01*
X529690Y509693D02*
Y512193D01*
X408452Y993140D02*
X410952D01*
X409702Y991890D02*
Y994390D01*
X490494Y880618D02*
X492994D01*
X491744Y879368D02*
Y881868D01*
X491562Y868223D02*
X494062D01*
X492812Y866973D02*
Y869473D01*
X497962Y859258D02*
X500462D01*
X499212Y858008D02*
Y860508D01*
X541913Y868652D02*
X544413D01*
X543163Y867402D02*
Y869902D01*
X504362Y868223D02*
X506862D01*
X505612Y866973D02*
Y869473D01*
X364002Y995426D02*
X366502D01*
X365252Y994176D02*
Y996676D01*
X370080Y1025670D02*
X372580D01*
X371330Y1024420D02*
Y1026920D01*
X548152Y817626D02*
X550652D01*
X549402Y816376D02*
Y818876D01*
X585490Y962914D02*
X587990D01*
X586740Y961664D02*
Y964164D01*
X700552Y949706D02*
X703052D01*
X701802Y948456D02*
Y950956D01*
X678200Y940816D02*
X680700D01*
X679450Y939566D02*
Y942066D01*
X693343Y959261D02*
X695843D01*
X694593Y958011D02*
Y960511D01*
X652546Y476504D02*
X655046D01*
X653796Y475254D02*
Y477754D01*
X462300Y536448D02*
X464800D01*
X463550Y535198D02*
Y537698D01*
X554502Y1008634D02*
X557002D01*
X555752Y1007384D02*
Y1009884D01*
X679216Y1017778D02*
X681716D01*
X680466Y1016528D02*
Y1019028D01*
X673628Y990854D02*
X676128D01*
X674878Y989604D02*
Y992104D01*
X673628Y972566D02*
X676128D01*
X674878Y971316D02*
Y973816D01*
X433598Y1090930D02*
X436098D01*
X434848Y1089680D02*
Y1092180D01*
X656864Y501904D02*
X659364D01*
X658114Y500654D02*
Y503154D01*
X437662Y723646D02*
X440162D01*
X438912Y722396D02*
Y724896D01*
X548660Y719582D02*
X551160D01*
X549910Y718332D02*
Y720832D01*
X471747Y335999D02*
X474247D01*
X472997Y334749D02*
Y337249D01*
X469247Y330999D02*
X471747D01*
X470497Y329749D02*
Y332249D01*
X526816Y576580D02*
X529316D01*
X528066Y575330D02*
Y577830D01*
X456248Y506774D02*
X458748D01*
X457498Y505524D02*
Y508024D01*
X476016Y489458D02*
X478516D01*
X477266Y488208D02*
Y490708D01*
X272308Y551434D02*
X274808D01*
X273558Y550184D02*
Y552684D01*
X326362Y382394D02*
X328862D01*
X327612Y381144D02*
Y383644D01*
X220826Y382350D02*
X223326D01*
X222076Y381100D02*
Y383600D01*
X241574Y460248D02*
X244074D01*
X242824Y458998D02*
Y461498D01*
X319298Y528320D02*
X321798D01*
X320548Y527070D02*
Y529570D01*
X579020Y453673D02*
X581520D01*
X580270Y452423D02*
Y454923D01*
X558820Y475234D02*
X561320D01*
X560070Y473984D02*
Y476484D01*
X458236Y528828D02*
X460736D01*
X459486Y527578D02*
Y530078D01*
X456958Y440428D02*
X459458D01*
X458208Y439178D02*
Y441678D01*
X293898Y454152D02*
X296398D01*
X295148Y452902D02*
Y455402D01*
X271738Y442099D02*
X274238D01*
X272988Y440849D02*
Y443349D01*
X305435Y481880D02*
X307935D01*
X306685Y480630D02*
Y483130D01*
X277000Y568500D02*
X279500D01*
X278250Y567250D02*
Y569750D01*
X627146Y892302D02*
X629646D01*
X628396Y891052D02*
Y893552D01*
X534436Y696976D02*
X536936D01*
X535686Y695726D02*
Y698226D01*
X435376Y698000D02*
X437876D01*
X436626Y696750D02*
Y699250D01*
X659150Y859790D02*
X661650D01*
X660400Y858540D02*
Y861040D01*
X627400Y530860D02*
X629900D01*
X628650Y529610D02*
Y532110D01*
X678200Y629920D02*
X680700D01*
X679450Y628670D02*
Y631170D01*
X666770Y661670D02*
X669270D01*
X668020Y660420D02*
Y662920D01*
X717590Y232410D02*
X722590D01*
X720090Y229910D02*
Y234910D01*
X525957Y266857D02*
X528457D01*
X527207Y265607D02*
Y268107D01*
X475000Y1203960D02*
X477500D01*
X476250Y1202710D02*
Y1205210D01*
X394990Y1187450D02*
X397490D01*
X396240Y1186200D02*
Y1188700D01*
X450310Y1121410D02*
X452810D01*
X451560Y1120160D02*
Y1122660D01*
X437610Y1142290D02*
X440110D01*
X438860Y1141040D02*
Y1143540D01*
X492150Y983610D02*
X494650D01*
X493400Y982360D02*
Y984860D01*
X616090Y490100D02*
X618590D01*
X617340Y488850D02*
Y491350D01*
X642640Y267970D02*
X645140D01*
X643890Y266720D02*
Y269220D01*
X590000Y451750D02*
X592500D01*
X591250Y450500D02*
Y453000D01*
X617240Y424180D02*
X619740D01*
X618490Y422930D02*
Y425430D01*
X596250Y394250D02*
X598750D01*
X597500Y393000D02*
Y395500D01*
X659600Y485100D02*
X662100D01*
X660850Y483850D02*
Y486350D01*
X665250Y719500D02*
X667750D01*
X666500Y718250D02*
Y720750D01*
X433000Y817750D02*
X435500D01*
X434250Y816500D02*
Y819000D01*
X614750Y171450D02*
X619750D01*
X617250Y168950D02*
Y173950D01*
X574314Y116198D02*
X576814D01*
X575564Y114948D02*
Y117448D01*
X527750Y553750D02*
X530250D01*
X529000Y552500D02*
Y555000D01*
X554250Y424000D02*
X556750D01*
X555500Y422750D02*
Y425250D01*
X570000Y514250D02*
X572500D01*
X571250Y513000D02*
Y515500D01*
X543000Y517250D02*
X545500D01*
X544250Y516000D02*
Y518500D01*
X540024Y439674D02*
X542524D01*
X541274Y438424D02*
Y440924D01*
X657500Y578250D02*
X660000D01*
X658750Y577000D02*
Y579500D01*
X642750Y529750D02*
X645250D01*
X644000Y528500D02*
Y531000D01*
X533000Y968250D02*
X535500D01*
X534250Y967000D02*
Y969500D01*
X686250Y1040750D02*
X688750D01*
X687500Y1039500D02*
Y1042000D01*
X513750Y1058750D02*
X516250D01*
X515000Y1057500D02*
Y1060000D01*
X392750Y1092250D02*
X395250D01*
X394000Y1091000D02*
Y1093500D01*
X412210Y1144210D02*
X414710D01*
X413460Y1142960D02*
Y1145460D01*
X399510Y1123240D02*
X402010D01*
X400760Y1121990D02*
Y1124490D01*
X380000Y1126000D02*
X382500D01*
X381250Y1124750D02*
Y1127250D01*
X399500Y1142000D02*
X402000D01*
X400750Y1140750D02*
Y1143250D01*
X620750Y911500D02*
X623250D01*
X622000Y910250D02*
Y912750D01*
X646146Y933080D02*
X648646D01*
X647396Y931830D02*
Y934330D01*
X627300Y843650D02*
X629800D01*
X628550Y842400D02*
Y844900D01*
X614600Y843650D02*
X617100D01*
X615850Y842400D02*
Y844900D01*
X370500Y946500D02*
X373000D01*
X371750Y945250D02*
Y947750D01*
X507250Y1006750D02*
X509750D01*
X508500Y1005500D02*
Y1008000D01*
X588250Y996500D02*
X590750D01*
X589500Y995250D02*
Y997750D01*
X681217Y1068532D02*
X683717D01*
X682467Y1067282D02*
Y1069782D01*
X693500Y1022500D02*
X696000D01*
X694750Y1021250D02*
Y1023750D01*
M02*
