G04*
G04 #@! TF.GenerationSoftware,Altium Limited,Altium Designer,22.8.2 (66)*
G04*
G04 Layer_Color=65535*
%FSLAX44Y44*%
%MOMM*%
G71*
G04*
G04 #@! TF.SameCoordinates,B0619A4A-581E-4249-BB79-A942B5E0D796*
G04*
G04*
G04 #@! TF.FilePolarity,Positive*
G04*
G01*
G75*
%ADD10C,0.6000*%
%ADD11C,0.2500*%
%ADD12C,0.2000*%
%ADD13C,0.2540*%
%ADD14C,0.1270*%
%ADD15R,1.2700X3.4290*%
%ADD16C,0.0254*%
%ADD17C,0.0500*%
G36*
X279804Y69859D02*
X280639D01*
Y69692D01*
X281139D01*
Y69525D01*
X281640D01*
Y69358D01*
X282308D01*
Y69191D01*
X282976D01*
Y69024D01*
X283643D01*
Y68857D01*
X284311D01*
Y68691D01*
X284645D01*
Y68524D01*
X285646D01*
Y68357D01*
X286982D01*
Y68190D01*
X289152D01*
Y68023D01*
X291822D01*
Y68190D01*
X294159D01*
Y68357D01*
X294493D01*
Y68190D01*
X294326D01*
Y68023D01*
X293992D01*
Y67856D01*
X293825D01*
Y67689D01*
X293659D01*
Y67522D01*
X293492D01*
Y67355D01*
X293158D01*
Y67188D01*
X292991D01*
Y67021D01*
X292824D01*
Y66855D01*
X292657D01*
Y66687D01*
X292323D01*
Y66521D01*
X292156D01*
Y66354D01*
X291989D01*
Y66187D01*
X291822D01*
Y66020D01*
X291655D01*
Y65853D01*
X291322D01*
Y65686D01*
X291155D01*
Y65519D01*
X290988D01*
Y65352D01*
X290821D01*
Y65185D01*
X290654D01*
Y65018D01*
X290320D01*
Y64851D01*
X290153D01*
Y64685D01*
X289819D01*
Y64518D01*
Y64351D01*
Y64184D01*
X290487D01*
Y64351D01*
X291155D01*
Y64518D01*
X291655D01*
Y64685D01*
X292323D01*
Y64851D01*
X293325D01*
Y65018D01*
X294326D01*
Y65185D01*
X295662D01*
Y65352D01*
X296162D01*
Y65519D01*
X297998D01*
Y65686D01*
X300836D01*
Y65853D01*
X305677D01*
Y65686D01*
X308514D01*
Y65519D01*
X310351D01*
Y65352D01*
X310851D01*
Y65185D01*
X312354D01*
Y65018D01*
X313522D01*
Y64851D01*
X314524D01*
Y64685D01*
X315191D01*
Y64518D01*
X315358D01*
Y64685D01*
X315525D01*
Y64518D01*
X316026D01*
Y64351D01*
X316694D01*
Y64184D01*
X317695D01*
Y64017D01*
X318530D01*
Y63850D01*
X319198D01*
Y63683D01*
X319531D01*
Y63516D01*
X320199D01*
Y63349D01*
X320867D01*
Y63182D01*
X321367D01*
Y63015D01*
X321868D01*
Y62848D01*
X322369D01*
Y62681D01*
X322870D01*
Y62515D01*
X323537D01*
Y62348D01*
X324205D01*
Y62181D01*
X324706D01*
Y62014D01*
X324873D01*
Y61847D01*
X325374D01*
Y61680D01*
X324873D01*
Y61847D01*
X324205D01*
Y62014D01*
X323871D01*
Y62181D01*
X323204D01*
Y62348D01*
X322202D01*
Y62515D01*
X321367D01*
Y62681D01*
X320366D01*
Y62848D01*
X320199D01*
Y63015D01*
X319198D01*
Y63182D01*
X318029D01*
Y63349D01*
X316861D01*
Y63516D01*
X316360D01*
Y63683D01*
X316193D01*
Y63516D01*
X316026D01*
Y63683D01*
X315859D01*
Y63516D01*
X315692D01*
Y63683D01*
X315358D01*
Y63850D01*
X314023D01*
Y64017D01*
X312521D01*
Y64184D01*
X310685D01*
Y64351D01*
X308181D01*
Y64518D01*
X308014D01*
Y64685D01*
X298165D01*
Y64518D01*
X297665D01*
Y64351D01*
X295828D01*
Y64184D01*
X294493D01*
Y64017D01*
X293158D01*
Y63850D01*
X292490D01*
Y63683D01*
X292156D01*
Y63516D01*
X291989D01*
Y63683D01*
X291822D01*
Y63516D01*
X291488D01*
Y63349D01*
X290654D01*
Y63182D01*
X289986D01*
Y63015D01*
X289319D01*
Y62848D01*
X288985D01*
Y62681D01*
X288651D01*
Y62515D01*
X288150D01*
Y62348D01*
X287482D01*
Y62181D01*
X287148D01*
Y62014D01*
X286815D01*
Y61847D01*
X286648D01*
Y61680D01*
X286147D01*
Y61513D01*
X285813D01*
Y61346D01*
X285479D01*
Y61179D01*
X285312D01*
Y61012D01*
X284979D01*
Y60845D01*
X284645D01*
Y60678D01*
Y60511D01*
X285646D01*
Y60345D01*
X286147D01*
Y60178D01*
X288651D01*
Y60011D01*
X290320D01*
Y59844D01*
X288651D01*
Y60011D01*
X285312D01*
Y60178D01*
X284812D01*
Y60011D01*
X283142D01*
Y59844D01*
X282976D01*
Y59677D01*
X282642D01*
Y59510D01*
X282475D01*
Y59343D01*
X282308D01*
Y59176D01*
X282141D01*
Y59009D01*
X281807D01*
Y58842D01*
X281640D01*
Y58675D01*
X281473D01*
Y58508D01*
X281306D01*
Y58341D01*
X280972D01*
Y58175D01*
X280805D01*
Y58008D01*
X280472D01*
Y57841D01*
Y57674D01*
X280305D01*
Y57507D01*
X279971D01*
Y57340D01*
X279804D01*
Y57173D01*
X279637D01*
Y57006D01*
X279470D01*
Y56839D01*
X279303D01*
Y56672D01*
X279136D01*
Y56505D01*
X278969D01*
Y56338D01*
X278803D01*
Y56171D01*
X278636D01*
Y56005D01*
X278469D01*
Y55838D01*
X278135D01*
Y55671D01*
X277968D01*
Y55504D01*
X277801D01*
Y55337D01*
X277634D01*
Y55170D01*
X277467D01*
Y55003D01*
X277300D01*
Y54836D01*
Y54669D01*
X277133D01*
Y54502D01*
X276966D01*
Y54335D01*
X276799D01*
Y54168D01*
X276632D01*
Y54001D01*
X276466D01*
Y53835D01*
X276299D01*
Y53668D01*
X276132D01*
Y53501D01*
X275965D01*
Y53334D01*
X275798D01*
Y53167D01*
X275631D01*
Y53000D01*
X275464D01*
Y52833D01*
Y52666D01*
X275297D01*
Y52499D01*
X275130D01*
Y52332D01*
Y52165D01*
X274963D01*
Y51999D01*
X274796D01*
Y51831D01*
X274629D01*
Y51665D01*
Y51498D01*
X275965D01*
Y51665D01*
X276966D01*
Y51831D01*
X278135D01*
Y51999D01*
X278302D01*
Y52165D01*
X279470D01*
Y52332D01*
X280639D01*
Y52499D01*
X281807D01*
Y52666D01*
X282809D01*
Y52833D01*
X283309D01*
Y53000D01*
X283476D01*
Y52833D01*
X283643D01*
Y53000D01*
X283810D01*
Y52833D01*
X283977D01*
Y53000D01*
X284478D01*
Y53167D01*
X285646D01*
Y53334D01*
X286982D01*
Y53501D01*
X288317D01*
Y53668D01*
X288484D01*
Y53835D01*
X289819D01*
Y54001D01*
X291155D01*
Y54168D01*
X292657D01*
Y54335D01*
X293825D01*
Y54502D01*
X294326D01*
Y54669D01*
X294493D01*
Y54502D01*
X294660D01*
Y54669D01*
X295662D01*
Y54836D01*
X297331D01*
Y55003D01*
X298833D01*
Y55170D01*
X300669D01*
Y55337D01*
X301170D01*
Y55504D01*
X302839D01*
Y55671D01*
X304842D01*
Y55838D01*
X306845D01*
Y56005D01*
Y56171D01*
Y56338D01*
X306678D01*
Y56505D01*
X307346D01*
Y56338D01*
X307513D01*
Y56171D01*
X307680D01*
Y56338D01*
X308014D01*
Y56171D01*
Y56005D01*
X307680D01*
Y55838D01*
X307179D01*
Y55671D01*
X306845D01*
Y55504D01*
X306678D01*
Y55337D01*
X306511D01*
Y55170D01*
X306178D01*
Y55003D01*
X305844D01*
Y54836D01*
X305510D01*
Y54669D01*
X305176D01*
Y54502D01*
X305009D01*
Y54335D01*
X304842D01*
Y54168D01*
X304675D01*
Y54001D01*
X304342D01*
Y53835D01*
X304008D01*
Y53668D01*
Y53501D01*
X303841D01*
Y53334D01*
X303507D01*
Y53167D01*
X303340D01*
Y53000D01*
X303006D01*
Y52833D01*
Y52666D01*
X302839D01*
Y52499D01*
X302505D01*
Y52332D01*
X302338D01*
Y52165D01*
X302171D01*
Y51999D01*
X302005D01*
Y51831D01*
X301838D01*
Y51665D01*
X301671D01*
Y51498D01*
X301504D01*
Y51331D01*
X301337D01*
Y51164D01*
X301170D01*
Y50997D01*
X301003D01*
Y50830D01*
X300836D01*
Y50663D01*
X300669D01*
Y50496D01*
X300502D01*
Y50329D01*
Y50162D01*
X300335D01*
Y49995D01*
X300168D01*
Y49829D01*
X300002D01*
Y49662D01*
X299835D01*
Y49495D01*
X299668D01*
Y49328D01*
Y49161D01*
X299501D01*
Y48994D01*
X299167D01*
Y48827D01*
Y48660D01*
X299000D01*
Y48493D01*
Y48326D01*
X298833D01*
Y48159D01*
X298666D01*
Y47992D01*
X298499D01*
Y47825D01*
X298332D01*
Y47659D01*
Y47492D01*
X298165D01*
Y47325D01*
X297998D01*
Y47158D01*
Y46991D01*
X297831D01*
Y46824D01*
X297665D01*
Y46657D01*
X297498D01*
Y46490D01*
X297331D01*
Y46323D01*
X297164D01*
Y46156D01*
Y45989D01*
X296997D01*
Y45822D01*
X296830D01*
Y45655D01*
X296663D01*
Y45489D01*
X296496D01*
Y45322D01*
Y45155D01*
X296329D01*
Y44988D01*
X296162D01*
Y44821D01*
X295828D01*
Y44654D01*
X295662D01*
Y44487D01*
Y44320D01*
X295495D01*
Y44153D01*
X295328D01*
Y43986D01*
X294994D01*
Y43819D01*
X294827D01*
Y43652D01*
X294660D01*
Y43485D01*
X294493D01*
Y43319D01*
X294159D01*
Y43152D01*
X293992D01*
Y42985D01*
X293659D01*
Y42818D01*
Y42651D01*
X293325D01*
Y42484D01*
X292991D01*
Y42317D01*
X292824D01*
Y42150D01*
X292323D01*
Y41983D01*
X292156D01*
Y41816D01*
X291822D01*
Y41649D01*
X291488D01*
Y41482D01*
X291155D01*
Y41315D01*
X290654D01*
Y41149D01*
Y40982D01*
X290153D01*
Y40815D01*
X289652D01*
Y40648D01*
X289152D01*
Y40481D01*
X288651D01*
Y40314D01*
X288484D01*
Y40147D01*
X288317D01*
Y40314D01*
X288150D01*
Y40147D01*
X287983D01*
Y39980D01*
X287482D01*
Y39813D01*
X286982D01*
Y39646D01*
X286481D01*
Y39479D01*
X286314D01*
Y39312D01*
X285813D01*
Y39146D01*
X285479D01*
Y38979D01*
X284812D01*
Y38812D01*
X284311D01*
Y38645D01*
X284144D01*
Y38478D01*
X283810D01*
Y38311D01*
X283142D01*
Y38144D01*
X282642D01*
Y37977D01*
X282141D01*
Y37810D01*
X281974D01*
Y37643D01*
X281139D01*
Y37476D01*
X280305D01*
Y37309D01*
X279303D01*
Y37476D01*
X278803D01*
Y37643D01*
X278302D01*
Y37810D01*
Y37977D01*
X278135D01*
Y38144D01*
X277968D01*
Y38311D01*
Y38478D01*
X277801D01*
Y38645D01*
X277634D01*
Y38812D01*
Y38979D01*
X277467D01*
Y39146D01*
Y39312D01*
X277300D01*
Y39479D01*
Y39646D01*
X277133D01*
Y39813D01*
Y39980D01*
Y40147D01*
X276632D01*
Y39980D01*
X276466D01*
Y39813D01*
Y39646D01*
X276299D01*
Y39479D01*
Y39312D01*
Y39146D01*
X275965D01*
Y38979D01*
X276132D01*
Y38812D01*
X275965D01*
Y38645D01*
X275798D01*
Y38478D01*
Y38311D01*
Y38144D01*
X275631D01*
Y37977D01*
Y37810D01*
Y37643D01*
X275464D01*
Y37476D01*
Y37309D01*
Y37143D01*
X275297D01*
Y36976D01*
X275130D01*
Y36809D01*
X275297D01*
Y36642D01*
X275130D01*
Y36475D01*
X274963D01*
Y36308D01*
Y36141D01*
Y35974D01*
Y35807D01*
X274796D01*
Y35640D01*
Y35473D01*
Y35306D01*
Y35139D01*
Y34973D01*
Y34806D01*
X274629D01*
Y34639D01*
Y34472D01*
Y34305D01*
Y34138D01*
Y33971D01*
Y33804D01*
Y33637D01*
Y33470D01*
X274796D01*
Y33303D01*
Y33136D01*
Y32969D01*
Y32803D01*
X274963D01*
Y32636D01*
Y32469D01*
X275297D01*
Y32302D01*
Y32135D01*
X275464D01*
Y31968D01*
Y31801D01*
X275631D01*
Y31634D01*
Y31467D01*
X275798D01*
Y31300D01*
X275965D01*
Y31133D01*
X276132D01*
Y30966D01*
X276299D01*
Y30799D01*
X276466D01*
Y30633D01*
Y30466D01*
X276632D01*
Y30299D01*
X276799D01*
Y30132D01*
X276966D01*
Y29965D01*
X277133D01*
Y29798D01*
X277300D01*
Y29631D01*
X277467D01*
Y29464D01*
X277634D01*
Y29297D01*
X277801D01*
Y29130D01*
X277968D01*
Y28963D01*
X278135D01*
Y28796D01*
X278302D01*
Y28630D01*
X278469D01*
Y28463D01*
X278636D01*
Y28296D01*
X278803D01*
Y28129D01*
X279136D01*
Y27962D01*
X279804D01*
Y28129D01*
X280639D01*
Y28296D01*
X281473D01*
Y28463D01*
X282308D01*
Y28630D01*
X282475D01*
Y28796D01*
X283309D01*
Y28963D01*
X283977D01*
Y29130D01*
X284979D01*
Y29297D01*
X285813D01*
Y29464D01*
X285980D01*
Y29631D01*
X286147D01*
Y29464D01*
X286314D01*
Y29631D01*
X286982D01*
Y29798D01*
X287983D01*
Y29965D01*
X288818D01*
Y30132D01*
X289652D01*
Y30299D01*
X289986D01*
Y30466D01*
X290988D01*
Y30633D01*
X291822D01*
Y30799D01*
X292991D01*
Y30966D01*
X294159D01*
Y31133D01*
X294326D01*
Y31300D01*
X294493D01*
Y31133D01*
X294660D01*
Y31300D01*
X295328D01*
Y31467D01*
X296496D01*
Y31634D01*
X297665D01*
Y31801D01*
X298833D01*
Y31968D01*
X299000D01*
Y32135D01*
X300335D01*
Y32302D01*
X301504D01*
Y32469D01*
X303006D01*
Y32636D01*
X304174D01*
Y32803D01*
X304675D01*
Y32969D01*
X304842D01*
Y32803D01*
X305009D01*
Y32969D01*
X305176D01*
Y32803D01*
X305343D01*
Y32969D01*
X305510D01*
Y32803D01*
X305677D01*
Y32969D01*
X306011D01*
Y33136D01*
X307680D01*
Y33303D01*
X309182D01*
Y33470D01*
X311018D01*
Y33637D01*
X311185D01*
Y33470D01*
X311352D01*
Y33637D01*
X311519D01*
Y33804D01*
X313522D01*
Y33971D01*
X315859D01*
Y34138D01*
X319031D01*
Y34305D01*
X319531D01*
Y34472D01*
X319698D01*
Y34305D01*
X320867D01*
Y34138D01*
X319364D01*
Y33971D01*
X318029D01*
Y33804D01*
X316694D01*
Y33637D01*
X316193D01*
Y33470D01*
X316026D01*
Y33637D01*
X315859D01*
Y33470D01*
X315024D01*
Y33303D01*
X313689D01*
Y33136D01*
X312354D01*
Y32969D01*
X311185D01*
Y32803D01*
X310685D01*
Y32636D01*
X309516D01*
Y32469D01*
X308348D01*
Y32302D01*
X307179D01*
Y32135D01*
X306011D01*
Y31968D01*
X305510D01*
Y31801D01*
X305343D01*
Y31968D01*
X305176D01*
Y31801D01*
X304508D01*
Y31634D01*
X303340D01*
Y31467D01*
X302338D01*
Y31300D01*
X301170D01*
Y31133D01*
X300669D01*
Y30966D01*
X299835D01*
Y30799D01*
X298833D01*
Y30633D01*
X297831D01*
Y30466D01*
X296830D01*
Y30299D01*
X296162D01*
Y30132D01*
X295495D01*
Y29965D01*
X294660D01*
Y29798D01*
X293659D01*
Y29631D01*
X292824D01*
Y29464D01*
X292323D01*
Y29297D01*
X291822D01*
Y29130D01*
X290821D01*
Y28963D01*
X289986D01*
Y28796D01*
X289319D01*
Y28630D01*
X288818D01*
Y28463D01*
X288150D01*
Y28296D01*
X287482D01*
Y28129D01*
X286648D01*
Y27962D01*
X285980D01*
Y27795D01*
X285646D01*
Y27628D01*
X285145D01*
Y27461D01*
X284478D01*
Y27294D01*
X283810D01*
Y27127D01*
X283309D01*
Y26960D01*
X282809D01*
Y26793D01*
X282475D01*
Y26626D01*
X281807D01*
Y26460D01*
X281306D01*
Y26293D01*
X280805D01*
Y26126D01*
X280639D01*
Y25959D01*
X280472D01*
Y26126D01*
X280305D01*
Y26293D01*
X280138D01*
Y26460D01*
X279971D01*
Y26626D01*
X279804D01*
Y26793D01*
X279637D01*
Y26960D01*
Y27127D01*
X279470D01*
Y27294D01*
X279303D01*
Y27461D01*
X279136D01*
Y27628D01*
X278969D01*
Y27795D01*
Y27962D01*
X278803D01*
Y28129D01*
X278636D01*
Y28296D01*
X278135D01*
Y28129D01*
X276966D01*
Y27962D01*
X276132D01*
Y27795D01*
X275965D01*
Y27628D01*
X275297D01*
Y27461D01*
X274629D01*
Y27294D01*
X273962D01*
Y27127D01*
X273461D01*
Y26960D01*
X273127D01*
Y26793D01*
X272793D01*
Y26626D01*
X272292D01*
Y26460D01*
X271625D01*
Y26293D01*
X271124D01*
Y26126D01*
X270957D01*
Y25959D01*
X270623D01*
Y25792D01*
X270123D01*
Y25625D01*
X269789D01*
Y25458D01*
X269288D01*
Y25291D01*
X269121D01*
Y25124D01*
X268787D01*
Y24957D01*
X268453D01*
Y24790D01*
X267953D01*
Y24623D01*
X267619D01*
Y24456D01*
X267452D01*
Y24290D01*
X267118D01*
Y24123D01*
X266784D01*
Y24290D01*
X266951D01*
Y24456D01*
X267118D01*
Y24623D01*
X267452D01*
Y24790D01*
X267619D01*
Y24957D01*
X267953D01*
Y25124D01*
X268286D01*
Y25291D01*
X268453D01*
Y25458D01*
X268787D01*
Y25625D01*
Y25792D01*
X265616D01*
Y25959D01*
X263780D01*
Y26126D01*
X262945D01*
Y26293D01*
X262110D01*
Y26460D01*
X260942D01*
Y26626D01*
X260107D01*
Y26793D01*
X259606D01*
Y26960D01*
X259106D01*
Y27127D01*
X258605D01*
Y27294D01*
X257937D01*
Y27461D01*
X257437D01*
Y27628D01*
X256936D01*
Y27795D01*
X256769D01*
Y27962D01*
X256268D01*
Y28129D01*
X255600D01*
Y28296D01*
X255100D01*
Y28463D01*
X254599D01*
Y28630D01*
X254432D01*
Y28463D01*
X254265D01*
Y28630D01*
X254098D01*
Y28796D01*
X252930D01*
Y28963D01*
X250760D01*
Y29130D01*
X249591D01*
Y28963D01*
X247087D01*
Y28796D01*
X246086D01*
Y28630D01*
X245585D01*
Y28463D01*
X244917D01*
Y28296D01*
X244417D01*
Y28129D01*
X243916D01*
Y27962D01*
X243415D01*
Y28129D01*
X243248D01*
Y28296D01*
X243081D01*
Y28463D01*
Y28630D01*
X242914D01*
Y28796D01*
Y28963D01*
X242747D01*
Y29130D01*
X242581D01*
Y29297D01*
Y29464D01*
X242414D01*
Y29631D01*
Y29798D01*
Y29965D01*
X242247D01*
Y30132D01*
Y30299D01*
Y30466D01*
Y30633D01*
Y30799D01*
Y30966D01*
X242080D01*
Y31133D01*
X241913D01*
Y31300D01*
X241746D01*
Y31133D01*
X241078D01*
Y30966D01*
X240244D01*
Y31133D01*
X240077D01*
Y31300D01*
X239743D01*
Y31467D01*
X239576D01*
Y31634D01*
X239242D01*
Y31801D01*
X239075D01*
Y31968D01*
Y32135D01*
X238908D01*
Y32302D01*
X238574D01*
Y32469D01*
Y32636D01*
X238407D01*
Y32803D01*
X238241D01*
Y32969D01*
X238074D01*
Y33136D01*
Y33303D01*
X237907D01*
Y33470D01*
Y33637D01*
X237740D01*
Y33804D01*
X237573D01*
Y33971D01*
Y34138D01*
Y34305D01*
X237406D01*
Y34472D01*
Y34639D01*
X237239D01*
Y34806D01*
Y34973D01*
Y35139D01*
Y35306D01*
X237072D01*
Y35473D01*
Y35640D01*
Y35807D01*
Y35974D01*
Y36141D01*
X236905D01*
Y36308D01*
Y36475D01*
X236738D01*
Y36642D01*
Y36809D01*
X236905D01*
Y36976D01*
X236738D01*
Y37143D01*
Y37309D01*
Y37476D01*
Y37643D01*
Y37810D01*
Y37977D01*
Y38144D01*
Y38311D01*
Y38478D01*
Y38645D01*
Y38812D01*
Y38979D01*
Y39146D01*
Y39312D01*
Y39479D01*
Y39646D01*
Y39813D01*
X236905D01*
Y39980D01*
Y40147D01*
Y40314D01*
Y40481D01*
X237072D01*
Y40648D01*
Y40815D01*
Y40982D01*
Y41149D01*
X237239D01*
Y41315D01*
Y41482D01*
Y41649D01*
Y41816D01*
X237406D01*
Y41983D01*
Y42150D01*
Y42317D01*
Y42484D01*
X237573D01*
Y42651D01*
Y42818D01*
Y42985D01*
X237740D01*
Y43152D01*
X237907D01*
Y43319D01*
Y43485D01*
Y43652D01*
X238074D01*
Y43819D01*
Y43986D01*
Y44153D01*
X238241D01*
Y44320D01*
Y44487D01*
Y44654D01*
X238407D01*
Y44821D01*
Y44988D01*
Y45155D01*
X238574D01*
Y45322D01*
Y45489D01*
X238741D01*
Y45655D01*
Y45822D01*
X238908D01*
Y45989D01*
Y46156D01*
Y46323D01*
Y46490D01*
X239075D01*
Y46657D01*
X239409D01*
Y46824D01*
X239910D01*
Y46991D01*
X241078D01*
Y46824D01*
X241913D01*
Y46657D01*
X242747D01*
Y46490D01*
X243582D01*
Y46657D01*
X243749D01*
Y46824D01*
X243916D01*
Y46991D01*
Y47158D01*
Y47325D01*
Y47492D01*
X244083D01*
Y47659D01*
Y47825D01*
Y47992D01*
Y48159D01*
X244250D01*
Y48326D01*
Y48493D01*
X244417D01*
Y48660D01*
Y48827D01*
X244584D01*
Y48994D01*
Y49161D01*
X244750D01*
Y49328D01*
Y49495D01*
X244917D01*
Y49662D01*
Y49829D01*
Y49995D01*
X245084D01*
Y50162D01*
X245251D01*
Y50329D01*
Y50496D01*
X245418D01*
Y50663D01*
Y50830D01*
X245585D01*
Y50997D01*
X245752D01*
Y51164D01*
Y51331D01*
X245919D01*
Y51498D01*
Y51665D01*
X246086D01*
Y51831D01*
X246253D01*
Y51999D01*
Y52165D01*
X246420D01*
Y52332D01*
X246587D01*
Y52499D01*
Y52666D01*
X246754D01*
Y52833D01*
X246921D01*
Y53000D01*
X247087D01*
Y53167D01*
X247254D01*
Y53334D01*
X247421D01*
Y53501D01*
X247588D01*
Y53668D01*
Y53835D01*
X247755D01*
Y54001D01*
X247922D01*
Y54168D01*
X248089D01*
Y54335D01*
X248256D01*
Y54502D01*
X248423D01*
Y54669D01*
X248590D01*
Y54836D01*
X248757D01*
Y55003D01*
X249090D01*
Y55170D01*
X249257D01*
Y55337D01*
X249424D01*
Y55504D01*
X249591D01*
Y55671D01*
X249758D01*
Y55838D01*
X250092D01*
Y56005D01*
X250426D01*
Y56171D01*
X250593D01*
Y56338D01*
X250760D01*
Y56505D01*
X251094D01*
Y56672D01*
X251427D01*
Y56839D01*
X251761D01*
Y56672D01*
X251594D01*
Y56505D01*
Y56338D01*
X251427D01*
Y56171D01*
Y56005D01*
Y55838D01*
Y55671D01*
X251261D01*
Y55504D01*
Y55337D01*
Y55170D01*
X251094D01*
Y55003D01*
Y54836D01*
X250927D01*
Y54669D01*
Y54502D01*
Y54335D01*
X250760D01*
Y54168D01*
Y54001D01*
Y53835D01*
Y53668D01*
Y53501D01*
X250593D01*
Y53334D01*
Y53167D01*
Y53000D01*
Y52833D01*
Y52666D01*
X250426D01*
Y52499D01*
Y52332D01*
Y52165D01*
Y51999D01*
Y51831D01*
Y51665D01*
Y51498D01*
Y51331D01*
Y51164D01*
Y50997D01*
Y50830D01*
Y50663D01*
Y50496D01*
X250593D01*
Y50663D01*
X250927D01*
Y50830D01*
X251094D01*
Y50997D01*
X251427D01*
Y51164D01*
X251594D01*
Y51331D01*
X251928D01*
Y51498D01*
X252262D01*
Y51665D01*
X252429D01*
Y51831D01*
X252763D01*
Y51999D01*
X253097D01*
Y52165D01*
Y52332D01*
Y52499D01*
Y52666D01*
X252930D01*
Y52833D01*
X252763D01*
Y53000D01*
X252596D01*
Y53167D01*
Y53334D01*
X252429D01*
Y53501D01*
Y53668D01*
Y53835D01*
X252262D01*
Y54001D01*
Y54168D01*
X252429D01*
Y54335D01*
Y54502D01*
Y54669D01*
Y54836D01*
X252596D01*
Y55003D01*
X252763D01*
Y55170D01*
X252930D01*
Y55337D01*
Y55504D01*
X253097D01*
Y55671D01*
X253430D01*
Y55838D01*
X253597D01*
Y56005D01*
X253931D01*
Y56171D01*
X254098D01*
Y56338D01*
X254265D01*
Y56505D01*
X254599D01*
Y56672D01*
X254933D01*
Y56839D01*
X255267D01*
Y57006D01*
X255434D01*
Y57173D01*
X255600D01*
Y57340D01*
X255934D01*
Y57507D01*
X256268D01*
Y57674D01*
X256602D01*
Y57841D01*
X256769D01*
Y58008D01*
X257103D01*
Y58175D01*
X257437D01*
Y58341D01*
X257770D01*
Y58508D01*
X258104D01*
Y58675D01*
X258271D01*
Y58842D01*
X258605D01*
Y59009D01*
X258772D01*
Y59176D01*
X259273D01*
Y59343D01*
X259606D01*
Y59510D01*
X259940D01*
Y59677D01*
X260107D01*
Y59844D01*
X260608D01*
Y60011D01*
X260942D01*
Y60178D01*
X261276D01*
Y60345D01*
X261443D01*
Y60511D01*
X261943D01*
Y60678D01*
X262277D01*
Y60845D01*
X262611D01*
Y61012D01*
X263112D01*
Y61179D01*
X263446D01*
Y61346D01*
X263780D01*
Y61513D01*
X264280D01*
Y61680D01*
X264781D01*
Y61847D01*
X265282D01*
Y62014D01*
X265449D01*
Y62181D01*
X265949D01*
Y62348D01*
X266617D01*
Y62515D01*
X267285D01*
Y62681D01*
X267786D01*
Y62848D01*
X268286D01*
Y63015D01*
X268787D01*
Y63182D01*
X269789D01*
Y63349D01*
X270790D01*
Y63516D01*
X270957D01*
Y63683D01*
Y63850D01*
Y64017D01*
X271124D01*
Y64184D01*
Y64351D01*
Y64518D01*
Y64685D01*
Y64851D01*
X271291D01*
Y65018D01*
Y65185D01*
Y65352D01*
Y65519D01*
X271458D01*
Y65686D01*
Y65853D01*
Y66020D01*
X271625D01*
Y66187D01*
Y66354D01*
X271792D01*
Y66521D01*
X271959D01*
Y66687D01*
Y66855D01*
X272126D01*
Y67021D01*
Y67188D01*
X272292D01*
Y67355D01*
X272460D01*
Y67522D01*
X272626D01*
Y67689D01*
X272793D01*
Y67856D01*
X272960D01*
Y68023D01*
X273127D01*
Y68190D01*
X273294D01*
Y68357D01*
X273461D01*
Y68524D01*
X273795D01*
Y68691D01*
X273962D01*
Y68857D01*
X274129D01*
Y69024D01*
X274463D01*
Y69191D01*
X274796D01*
Y69358D01*
X275297D01*
Y69525D01*
X275631D01*
Y69692D01*
X275965D01*
Y69859D01*
X276632D01*
Y70026D01*
X279804D01*
Y69859D01*
D02*
G37*
G36*
X291822Y59677D02*
X293158D01*
Y59510D01*
X293325D01*
Y59343D01*
X294493D01*
Y59176D01*
X293325D01*
Y59343D01*
X291989D01*
Y59510D01*
X291822D01*
Y59677D01*
X290487D01*
Y59844D01*
X291822D01*
Y59677D01*
D02*
G37*
G36*
X295662Y59009D02*
X296830D01*
Y58842D01*
X297831D01*
Y58675D01*
Y58508D01*
X298833D01*
Y58341D01*
X297831D01*
Y58508D01*
X296997D01*
Y58675D01*
X296830D01*
Y58842D01*
X295662D01*
Y59009D01*
X294660D01*
Y59176D01*
X295662D01*
Y59009D01*
D02*
G37*
G36*
X299835Y58175D02*
X300669D01*
Y58008D01*
X301504D01*
Y57841D01*
X301671D01*
Y57674D01*
X302505D01*
Y57507D01*
X301671D01*
Y57674D01*
X300836D01*
Y57841D01*
X300669D01*
Y58008D01*
X299835D01*
Y58175D01*
X299000D01*
Y58341D01*
X299835D01*
Y58175D01*
D02*
G37*
G36*
X303507Y57340D02*
X304174D01*
Y57173D01*
X305009D01*
Y57006D01*
X305176D01*
Y56839D01*
X306011D01*
Y56672D01*
X306511D01*
Y56505D01*
X306011D01*
Y56672D01*
X305176D01*
Y56839D01*
X304508D01*
Y57006D01*
X304174D01*
Y57173D01*
X303507D01*
Y57340D01*
X302672D01*
Y57507D01*
X303507D01*
Y57340D01*
D02*
G37*
G36*
X325874Y61513D02*
X326375D01*
Y61346D01*
X326876D01*
Y61179D01*
X326709D01*
Y61012D01*
X325874D01*
Y60845D01*
X325374D01*
Y60678D01*
X324706D01*
Y60511D01*
X324205D01*
Y60345D01*
X323871D01*
Y60178D01*
X323537D01*
Y60011D01*
X323204D01*
Y59844D01*
X322703D01*
Y59677D01*
X322369D01*
Y59510D01*
X322202D01*
Y59343D01*
X321868D01*
Y59176D01*
Y59009D01*
Y58842D01*
Y58675D01*
Y58508D01*
X322035D01*
Y58341D01*
X321868D01*
Y58175D01*
X322035D01*
Y58008D01*
X321868D01*
Y57841D01*
X322035D01*
Y57674D01*
X321868D01*
Y57507D01*
X322035D01*
Y57340D01*
X321868D01*
Y57173D01*
X322035D01*
Y57006D01*
X321868D01*
Y56839D01*
X322035D01*
Y56672D01*
X321868D01*
Y56505D01*
X322035D01*
Y56338D01*
X321868D01*
Y56171D01*
Y56005D01*
Y55838D01*
Y55671D01*
Y55504D01*
Y55337D01*
X321701D01*
Y55170D01*
Y55003D01*
Y54836D01*
Y54669D01*
Y54502D01*
Y54335D01*
Y54168D01*
Y54001D01*
X321534D01*
Y53835D01*
Y53668D01*
Y53501D01*
Y53334D01*
Y53167D01*
Y53000D01*
Y52833D01*
X321367D01*
Y52666D01*
Y52499D01*
Y52332D01*
Y52165D01*
Y51999D01*
X321200D01*
Y51831D01*
Y51665D01*
Y51498D01*
X321034D01*
Y51331D01*
Y51164D01*
X320867D01*
Y50997D01*
Y50830D01*
Y50663D01*
X320700D01*
Y50496D01*
Y50329D01*
Y50162D01*
X320533D01*
Y49995D01*
Y49829D01*
Y49662D01*
X320366D01*
Y49495D01*
Y49328D01*
X320199D01*
Y49161D01*
X320032D01*
Y48994D01*
Y48827D01*
Y48660D01*
X319865D01*
Y48493D01*
X319698D01*
Y48326D01*
Y48159D01*
X319531D01*
Y47992D01*
Y47825D01*
X319364D01*
Y47659D01*
X319198D01*
Y47492D01*
X319031D01*
Y47325D01*
Y47158D01*
X318864D01*
Y46991D01*
Y46824D01*
X318697D01*
Y46657D01*
X318530D01*
Y46490D01*
X318363D01*
Y46323D01*
X318196D01*
Y46156D01*
X318029D01*
Y45989D01*
X317862D01*
Y45822D01*
X317695D01*
Y45655D01*
X317528D01*
Y45489D01*
X317361D01*
Y45322D01*
Y45155D01*
X317194D01*
Y44988D01*
X317027D01*
Y44821D01*
X316861D01*
Y44654D01*
X316527D01*
Y44487D01*
Y44320D01*
X316360D01*
Y44153D01*
X316193D01*
Y43986D01*
X315859D01*
Y43819D01*
X315692D01*
Y43652D01*
X315525D01*
Y43485D01*
X315358D01*
Y43319D01*
X315191D01*
Y43152D01*
X315024D01*
Y42985D01*
X314858D01*
Y42818D01*
X314691D01*
Y42651D01*
X314524D01*
Y42484D01*
X314357D01*
Y42317D01*
X314023D01*
Y42150D01*
X313856D01*
Y41983D01*
X313689D01*
Y41816D01*
X313522D01*
Y41649D01*
X313188D01*
Y41482D01*
X313021D01*
Y41315D01*
X312854D01*
Y41149D01*
X312687D01*
Y40982D01*
X312354D01*
Y40815D01*
X312187D01*
Y40648D01*
X312020D01*
Y40481D01*
X311686D01*
Y40314D01*
X311519D01*
Y40147D01*
X311352D01*
Y39980D01*
X311185D01*
Y39813D01*
X311018D01*
Y39646D01*
X310685D01*
Y39479D01*
X310518D01*
Y39312D01*
X310351D01*
Y39146D01*
X310184D01*
Y38979D01*
X310017D01*
Y38812D01*
X309850D01*
Y38645D01*
X309683D01*
Y38478D01*
X309516D01*
Y38311D01*
X309349D01*
Y38144D01*
X309182D01*
Y37977D01*
X309015D01*
Y37810D01*
X308848D01*
Y37643D01*
X308681D01*
Y37476D01*
Y37309D01*
X308514D01*
Y37143D01*
X308348D01*
Y36976D01*
X308181D01*
Y36809D01*
Y36642D01*
X308014D01*
Y36475D01*
Y36308D01*
X308181D01*
Y36141D01*
X308348D01*
Y36308D01*
X309015D01*
Y36475D01*
X310351D01*
Y36642D01*
X311853D01*
Y36809D01*
X313689D01*
Y36976D01*
X314524D01*
Y37143D01*
X314691D01*
Y36976D01*
X314858D01*
Y37143D01*
X315358D01*
Y36976D01*
X315525D01*
Y37143D01*
X316360D01*
Y36976D01*
X316527D01*
Y37143D01*
X316694D01*
Y36976D01*
X317361D01*
Y37143D01*
Y37309D01*
X317194D01*
Y37476D01*
X316694D01*
Y37643D01*
X316193D01*
Y37810D01*
X316026D01*
Y37977D01*
X315358D01*
Y38144D01*
X316026D01*
Y37977D01*
X316861D01*
Y37810D01*
X317027D01*
Y37977D01*
X317194D01*
Y37810D01*
X317361D01*
Y37643D01*
X318363D01*
Y37476D01*
X319198D01*
Y37309D01*
X319865D01*
Y37143D01*
X320700D01*
Y36976D01*
X320867D01*
Y36809D01*
X321534D01*
Y36642D01*
X322035D01*
Y36475D01*
X322703D01*
Y36308D01*
X322870D01*
Y36141D01*
X323371D01*
Y35974D01*
X323871D01*
Y35807D01*
X324205D01*
Y35640D01*
X324706D01*
Y35473D01*
X325040D01*
Y35306D01*
X325207D01*
Y35139D01*
X325707D01*
Y34973D01*
X325874D01*
Y34806D01*
X324205D01*
Y34639D01*
X322870D01*
Y34472D01*
X322035D01*
Y34305D01*
X321534D01*
Y34472D01*
X321701D01*
Y34639D01*
Y34806D01*
X321200D01*
Y34973D01*
X320366D01*
Y35139D01*
X320032D01*
Y35306D01*
X319865D01*
Y35139D01*
X319531D01*
Y35306D01*
X319198D01*
Y35473D01*
X318196D01*
Y35640D01*
X316861D01*
Y35807D01*
X314858D01*
Y35974D01*
X309850D01*
Y35807D01*
X307847D01*
Y35640D01*
X306845D01*
Y35473D01*
X306678D01*
Y35640D01*
Y35807D01*
X307012D01*
Y35974D01*
Y36141D01*
Y36308D01*
X307179D01*
Y36475D01*
X307346D01*
Y36642D01*
Y36809D01*
X307513D01*
Y36976D01*
Y37143D01*
X307680D01*
Y37309D01*
X307847D01*
Y37476D01*
X308014D01*
Y37643D01*
X308181D01*
Y37810D01*
Y37977D01*
X308348D01*
Y38144D01*
X308514D01*
Y38311D01*
X308848D01*
Y38478D01*
X309015D01*
Y38645D01*
Y38812D01*
X309182D01*
Y38979D01*
X309349D01*
Y39146D01*
X309683D01*
Y39312D01*
X309850D01*
Y39479D01*
Y39646D01*
X310017D01*
Y39813D01*
X310351D01*
Y39980D01*
X310518D01*
Y40147D01*
X310685D01*
Y40314D01*
X310851D01*
Y40481D01*
X311018D01*
Y40648D01*
X311185D01*
Y40815D01*
X311519D01*
Y40982D01*
Y41149D01*
X311686D01*
Y41315D01*
X311853D01*
Y41482D01*
X312187D01*
Y41649D01*
X312354D01*
Y41816D01*
X312521D01*
Y41983D01*
X312687D01*
Y42150D01*
X312854D01*
Y42317D01*
X313021D01*
Y42484D01*
X313188D01*
Y42651D01*
X313355D01*
Y42818D01*
X313522D01*
Y42985D01*
X313689D01*
Y43152D01*
X313856D01*
Y43319D01*
X314023D01*
Y43485D01*
X314190D01*
Y43652D01*
Y43819D01*
X314357D01*
Y43986D01*
X314691D01*
Y44153D01*
Y44320D01*
X314858D01*
Y44487D01*
X315024D01*
Y44654D01*
X315191D01*
Y44821D01*
Y44988D01*
X315525D01*
Y45155D01*
Y45322D01*
Y45489D01*
X315692D01*
Y45655D01*
X315859D01*
Y45822D01*
Y45989D01*
X316026D01*
Y46156D01*
X316193D01*
Y46323D01*
X316360D01*
Y46490D01*
Y46657D01*
X316527D01*
Y46824D01*
Y46991D01*
X316694D01*
Y47158D01*
Y47325D01*
X316861D01*
Y47492D01*
X317027D01*
Y47659D01*
Y47825D01*
Y47992D01*
X317194D01*
Y48159D01*
Y48326D01*
Y48493D01*
X317361D01*
Y48660D01*
Y48827D01*
Y48994D01*
X317528D01*
Y49161D01*
Y49328D01*
Y49495D01*
X317695D01*
Y49662D01*
X317862D01*
Y49829D01*
Y49995D01*
Y50162D01*
X318029D01*
Y50329D01*
Y50496D01*
Y50663D01*
Y50830D01*
Y50997D01*
X318196D01*
Y51164D01*
Y51331D01*
Y51498D01*
Y51665D01*
Y51831D01*
X318363D01*
Y51999D01*
Y52165D01*
Y52332D01*
Y52499D01*
Y52666D01*
Y52833D01*
Y53000D01*
X318530D01*
Y53167D01*
X318697D01*
Y53334D01*
Y53501D01*
Y53668D01*
Y53835D01*
Y54001D01*
Y54168D01*
Y54335D01*
Y54502D01*
X318864D01*
Y54669D01*
Y54836D01*
Y55003D01*
Y55170D01*
Y55337D01*
Y55504D01*
Y55671D01*
Y55838D01*
Y56005D01*
Y56171D01*
Y56338D01*
Y56505D01*
Y56672D01*
Y56839D01*
Y57006D01*
Y57173D01*
Y57340D01*
Y57507D01*
Y57674D01*
Y57841D01*
Y58008D01*
Y58175D01*
Y58341D01*
Y58508D01*
Y58675D01*
Y58842D01*
Y59009D01*
Y59176D01*
Y59343D01*
X319031D01*
Y59510D01*
X319364D01*
Y59677D01*
X319698D01*
Y59844D01*
X320199D01*
Y60011D01*
X320700D01*
Y60178D01*
X321367D01*
Y60345D01*
X321534D01*
Y60511D01*
X322035D01*
Y60678D01*
X322870D01*
Y60845D01*
X324038D01*
Y61012D01*
X325207D01*
Y61179D01*
X325707D01*
Y61346D01*
X325874D01*
Y61513D01*
X325707D01*
Y61680D01*
X325874D01*
Y61513D01*
D02*
G37*
G36*
X194250Y36030D02*
X194309Y36021D01*
X194377Y36013D01*
X194453Y36004D01*
X194546Y35987D01*
X194639Y35970D01*
X194842Y35911D01*
X194952Y35869D01*
X195062Y35827D01*
X195164Y35768D01*
X195274Y35700D01*
X195375Y35624D01*
X195468Y35539D01*
X195477Y35531D01*
X195494Y35514D01*
X195511Y35488D01*
X195544Y35454D01*
X195587Y35404D01*
X195629Y35353D01*
X195671Y35285D01*
X195722Y35209D01*
X195807Y35040D01*
X195891Y34837D01*
X195925Y34727D01*
X195942Y34609D01*
X195959Y34482D01*
X195967Y34355D01*
Y34346D01*
Y34330D01*
Y34304D01*
Y34270D01*
X195950Y34169D01*
X195933Y34051D01*
X195900Y33907D01*
X195857Y33754D01*
X195790Y33602D01*
X195697Y33450D01*
X195688Y33433D01*
X195646Y33391D01*
X195587Y33315D01*
X195502Y33230D01*
X195384Y33128D01*
X195248Y33027D01*
X195088Y32926D01*
X194902Y32824D01*
X194910D01*
X194918Y32816D01*
X194961Y32782D01*
X195028Y32731D01*
X195113Y32672D01*
X195206Y32587D01*
X195299Y32494D01*
X195392Y32393D01*
X195468Y32274D01*
X195477Y32257D01*
X195502Y32215D01*
X195527Y32147D01*
X195570Y32063D01*
X195604Y31953D01*
X195629Y31826D01*
X195654Y31691D01*
X195663Y31538D01*
Y31530D01*
Y31496D01*
Y31454D01*
X195654Y31395D01*
X195646Y31319D01*
X195629Y31225D01*
X195604Y31132D01*
X195578Y31022D01*
X195544Y30904D01*
X195502Y30786D01*
X195451Y30659D01*
X195384Y30532D01*
X195308Y30405D01*
X195223Y30278D01*
X195121Y30151D01*
X195003Y30024D01*
X194995Y30016D01*
X194978Y29999D01*
X194935Y29965D01*
X194884Y29923D01*
X194825Y29881D01*
X194749Y29821D01*
X194665Y29771D01*
X194563Y29711D01*
X194453Y29652D01*
X194335Y29593D01*
X194208Y29534D01*
X194073Y29492D01*
X193920Y29449D01*
X193768Y29415D01*
X193607Y29399D01*
X193438Y29390D01*
X193354D01*
X193294Y29399D01*
X193218Y29407D01*
X193125Y29415D01*
X193032Y29432D01*
X192931Y29449D01*
X192702Y29508D01*
X192584Y29551D01*
X192457Y29602D01*
X192339Y29652D01*
X192229Y29720D01*
X192110Y29796D01*
X192009Y29881D01*
X192000Y29889D01*
X191983Y29906D01*
X191958Y29931D01*
X191924Y29974D01*
X191882Y30016D01*
X191831Y30084D01*
X191780Y30151D01*
X191730Y30227D01*
X191679Y30320D01*
X191628Y30422D01*
X191577Y30523D01*
X191527Y30642D01*
X191484Y30769D01*
X191451Y30904D01*
X191425Y31048D01*
X191408Y31200D01*
X192186Y31302D01*
Y31293D01*
X192195Y31268D01*
Y31234D01*
X192203Y31192D01*
X192212Y31132D01*
X192229Y31073D01*
X192271Y30921D01*
X192322Y30760D01*
X192389Y30600D01*
X192474Y30447D01*
X192525Y30380D01*
X192575Y30320D01*
X192592Y30312D01*
X192635Y30278D01*
X192694Y30227D01*
X192787Y30177D01*
X192905Y30126D01*
X193041Y30075D01*
X193193Y30041D01*
X193370Y30033D01*
X193430D01*
X193472Y30041D01*
X193523Y30050D01*
X193582Y30058D01*
X193726Y30084D01*
X193887Y30134D01*
X194056Y30210D01*
X194149Y30261D01*
X194233Y30320D01*
X194318Y30380D01*
X194402Y30456D01*
X194411Y30464D01*
X194419Y30473D01*
X194445Y30498D01*
X194470Y30532D01*
X194538Y30616D01*
X194622Y30735D01*
X194707Y30879D01*
X194775Y31048D01*
X194825Y31225D01*
X194834Y31327D01*
X194842Y31428D01*
Y31437D01*
Y31454D01*
Y31479D01*
X194834Y31513D01*
X194825Y31598D01*
X194800Y31708D01*
X194766Y31834D01*
X194707Y31970D01*
X194622Y32097D01*
X194512Y32223D01*
X194496Y32240D01*
X194453Y32274D01*
X194386Y32325D01*
X194284Y32384D01*
X194157Y32435D01*
X194013Y32486D01*
X193836Y32520D01*
X193641Y32536D01*
X193557D01*
X193506Y32528D01*
X193455D01*
X193387Y32520D01*
X193523Y33188D01*
X193540D01*
X193599Y33179D01*
X193667Y33171D01*
X193810D01*
X193861Y33179D01*
X193912D01*
X193979Y33188D01*
X194132Y33213D01*
X194309Y33255D01*
X194479Y33306D01*
X194648Y33391D01*
X194800Y33501D01*
X194808D01*
X194817Y33518D01*
X194859Y33560D01*
X194918Y33636D01*
X194986Y33729D01*
X195054Y33847D01*
X195113Y33991D01*
X195155Y34144D01*
X195172Y34237D01*
Y34321D01*
Y34330D01*
Y34338D01*
Y34363D01*
X195164Y34397D01*
X195155Y34482D01*
X195138Y34583D01*
X195096Y34702D01*
X195045Y34829D01*
X194969Y34955D01*
X194868Y35074D01*
X194851Y35091D01*
X194817Y35125D01*
X194749Y35175D01*
X194656Y35235D01*
X194546Y35285D01*
X194419Y35336D01*
X194276Y35370D01*
X194115Y35387D01*
X194098D01*
X194047Y35378D01*
X193963Y35370D01*
X193861Y35345D01*
X193743Y35311D01*
X193616Y35252D01*
X193480Y35175D01*
X193345Y35074D01*
X193328Y35057D01*
X193286Y35015D01*
X193227Y34947D01*
X193159Y34845D01*
X193083Y34719D01*
X193015Y34566D01*
X192948Y34389D01*
X192905Y34186D01*
X192119Y34346D01*
Y34355D01*
X192127Y34380D01*
X192144Y34423D01*
X192161Y34482D01*
X192178Y34550D01*
X192212Y34626D01*
X192246Y34710D01*
X192288Y34803D01*
X192389Y35006D01*
X192516Y35209D01*
X192677Y35412D01*
X192761Y35505D01*
X192863Y35590D01*
X192871Y35598D01*
X192888Y35607D01*
X192922Y35632D01*
X192964Y35658D01*
X193015Y35691D01*
X193083Y35725D01*
X193151Y35768D01*
X193235Y35810D01*
X193328Y35852D01*
X193430Y35894D01*
X193650Y35962D01*
X193903Y36013D01*
X194039Y36021D01*
X194174Y36030D01*
X194250D01*
D02*
G37*
G36*
X224539D02*
X224598Y36021D01*
X224666Y36013D01*
X224742Y36004D01*
X224835Y35987D01*
X224928Y35970D01*
X225131Y35911D01*
X225241Y35869D01*
X225351Y35827D01*
X225452Y35768D01*
X225562Y35700D01*
X225664Y35624D01*
X225757Y35539D01*
X225765Y35531D01*
X225782Y35514D01*
X225799Y35488D01*
X225833Y35454D01*
X225875Y35404D01*
X225918Y35353D01*
X225960Y35285D01*
X226011Y35209D01*
X226095Y35040D01*
X226180Y34837D01*
X226214Y34727D01*
X226231Y34609D01*
X226248Y34482D01*
X226256Y34355D01*
Y34346D01*
Y34330D01*
Y34304D01*
Y34270D01*
X226239Y34169D01*
X226222Y34051D01*
X226188Y33907D01*
X226146Y33754D01*
X226078Y33602D01*
X225985Y33450D01*
X225977Y33433D01*
X225935Y33391D01*
X225875Y33315D01*
X225791Y33230D01*
X225672Y33128D01*
X225537Y33027D01*
X225376Y32926D01*
X225190Y32824D01*
X225199D01*
X225207Y32816D01*
X225250Y32782D01*
X225317Y32731D01*
X225402Y32672D01*
X225495Y32587D01*
X225588Y32494D01*
X225681Y32393D01*
X225757Y32274D01*
X225765Y32257D01*
X225791Y32215D01*
X225816Y32147D01*
X225858Y32063D01*
X225892Y31953D01*
X225918Y31826D01*
X225943Y31691D01*
X225951Y31538D01*
Y31530D01*
Y31496D01*
Y31454D01*
X225943Y31395D01*
X225935Y31319D01*
X225918Y31225D01*
X225892Y31132D01*
X225867Y31022D01*
X225833Y30904D01*
X225791Y30786D01*
X225740Y30659D01*
X225672Y30532D01*
X225596Y30405D01*
X225512Y30278D01*
X225410Y30151D01*
X225292Y30024D01*
X225283Y30016D01*
X225266Y29999D01*
X225224Y29965D01*
X225173Y29923D01*
X225114Y29881D01*
X225038Y29821D01*
X224953Y29771D01*
X224852Y29711D01*
X224742Y29652D01*
X224624Y29593D01*
X224497Y29534D01*
X224361Y29492D01*
X224209Y29449D01*
X224057Y29415D01*
X223896Y29399D01*
X223727Y29390D01*
X223642D01*
X223583Y29399D01*
X223507Y29407D01*
X223414Y29415D01*
X223321Y29432D01*
X223220Y29449D01*
X222991Y29508D01*
X222873Y29551D01*
X222746Y29602D01*
X222627Y29652D01*
X222518Y29720D01*
X222399Y29796D01*
X222298Y29881D01*
X222289Y29889D01*
X222272Y29906D01*
X222247Y29931D01*
X222213Y29974D01*
X222171Y30016D01*
X222120Y30084D01*
X222069Y30151D01*
X222019Y30227D01*
X221968Y30320D01*
X221917Y30422D01*
X221866Y30523D01*
X221815Y30642D01*
X221773Y30769D01*
X221739Y30904D01*
X221714Y31048D01*
X221697Y31200D01*
X222475Y31302D01*
Y31293D01*
X222484Y31268D01*
Y31234D01*
X222492Y31192D01*
X222501Y31132D01*
X222518Y31073D01*
X222560Y30921D01*
X222610Y30760D01*
X222678Y30600D01*
X222763Y30447D01*
X222813Y30380D01*
X222864Y30320D01*
X222881Y30312D01*
X222924Y30278D01*
X222983Y30227D01*
X223076Y30177D01*
X223194Y30126D01*
X223330Y30075D01*
X223482Y30041D01*
X223659Y30033D01*
X223719D01*
X223761Y30041D01*
X223812Y30050D01*
X223871Y30058D01*
X224015Y30084D01*
X224175Y30134D01*
X224345Y30210D01*
X224438Y30261D01*
X224522Y30320D01*
X224607Y30380D01*
X224691Y30456D01*
X224700Y30464D01*
X224708Y30473D01*
X224734Y30498D01*
X224759Y30532D01*
X224827Y30616D01*
X224911Y30735D01*
X224996Y30879D01*
X225063Y31048D01*
X225114Y31225D01*
X225123Y31327D01*
X225131Y31428D01*
Y31437D01*
Y31454D01*
Y31479D01*
X225123Y31513D01*
X225114Y31598D01*
X225089Y31708D01*
X225055Y31834D01*
X224996Y31970D01*
X224911Y32097D01*
X224801Y32223D01*
X224784Y32240D01*
X224742Y32274D01*
X224674Y32325D01*
X224573Y32384D01*
X224446Y32435D01*
X224302Y32486D01*
X224125Y32520D01*
X223930Y32536D01*
X223845D01*
X223795Y32528D01*
X223744D01*
X223676Y32520D01*
X223812Y33188D01*
X223829D01*
X223888Y33179D01*
X223955Y33171D01*
X224099D01*
X224150Y33179D01*
X224201D01*
X224268Y33188D01*
X224421Y33213D01*
X224598Y33255D01*
X224767Y33306D01*
X224937Y33391D01*
X225089Y33501D01*
X225097D01*
X225106Y33518D01*
X225148Y33560D01*
X225207Y33636D01*
X225275Y33729D01*
X225343Y33847D01*
X225402Y33991D01*
X225444Y34144D01*
X225461Y34237D01*
Y34321D01*
Y34330D01*
Y34338D01*
Y34363D01*
X225452Y34397D01*
X225444Y34482D01*
X225427Y34583D01*
X225385Y34702D01*
X225334Y34829D01*
X225258Y34955D01*
X225156Y35074D01*
X225140Y35091D01*
X225106Y35125D01*
X225038Y35175D01*
X224945Y35235D01*
X224835Y35285D01*
X224708Y35336D01*
X224564Y35370D01*
X224404Y35387D01*
X224387D01*
X224336Y35378D01*
X224251Y35370D01*
X224150Y35345D01*
X224032Y35311D01*
X223905Y35252D01*
X223769Y35175D01*
X223634Y35074D01*
X223617Y35057D01*
X223575Y35015D01*
X223516Y34947D01*
X223448Y34845D01*
X223372Y34719D01*
X223304Y34566D01*
X223236Y34389D01*
X223194Y34186D01*
X222407Y34346D01*
Y34355D01*
X222416Y34380D01*
X222433Y34423D01*
X222450Y34482D01*
X222467Y34550D01*
X222501Y34626D01*
X222534Y34710D01*
X222577Y34803D01*
X222678Y35006D01*
X222805Y35209D01*
X222966Y35412D01*
X223050Y35505D01*
X223152Y35590D01*
X223160Y35598D01*
X223177Y35607D01*
X223211Y35632D01*
X223253Y35657D01*
X223304Y35691D01*
X223372Y35725D01*
X223439Y35768D01*
X223524Y35810D01*
X223617Y35852D01*
X223719Y35894D01*
X223939Y35962D01*
X224192Y36013D01*
X224328Y36021D01*
X224463Y36030D01*
X224539D01*
D02*
G37*
G36*
X188397Y32257D02*
X188236Y31454D01*
X185784D01*
X185953Y32257D01*
X188397D01*
D02*
G37*
G36*
X174086Y36004D02*
X173096Y31251D01*
Y31242D01*
X173088Y31209D01*
X173071Y31158D01*
X173054Y31090D01*
X173029Y31006D01*
X173003Y30912D01*
X172969Y30803D01*
X172927Y30693D01*
X172834Y30456D01*
X172707Y30219D01*
X172640Y30109D01*
X172563Y29999D01*
X172487Y29897D01*
X172394Y29813D01*
X172386Y29804D01*
X172369Y29796D01*
X172343Y29771D01*
X172310Y29745D01*
X172259Y29711D01*
X172200Y29678D01*
X172132Y29644D01*
X172056Y29602D01*
X171971Y29559D01*
X171878Y29525D01*
X171667Y29458D01*
X171422Y29407D01*
X171295Y29399D01*
X171151Y29390D01*
X171075D01*
X171015Y29399D01*
X170948D01*
X170872Y29407D01*
X170694Y29441D01*
X170491Y29483D01*
X170288Y29551D01*
X170094Y29644D01*
X170009Y29694D01*
X169924Y29762D01*
X169916Y29771D01*
X169907Y29779D01*
X169891Y29804D01*
X169865Y29830D01*
X169797Y29914D01*
X169721Y30033D01*
X169645Y30177D01*
X169586Y30354D01*
X169535Y30566D01*
X169527Y30684D01*
X169518Y30803D01*
Y30819D01*
Y30853D01*
Y30912D01*
X169527Y30989D01*
X169535Y31082D01*
X169544Y31175D01*
X169578Y31395D01*
X170390Y31454D01*
Y31437D01*
X170381Y31395D01*
X170373Y31327D01*
X170356Y31242D01*
X170330Y31056D01*
X170322Y30972D01*
Y30896D01*
Y30879D01*
Y30836D01*
X170330Y30769D01*
X170347Y30684D01*
X170373Y30600D01*
X170415Y30498D01*
X170466Y30405D01*
X170542Y30320D01*
X170550Y30312D01*
X170584Y30287D01*
X170635Y30253D01*
X170703Y30219D01*
X170796Y30177D01*
X170906Y30143D01*
X171024Y30117D01*
X171168Y30109D01*
X171218D01*
X171269Y30117D01*
X171345Y30126D01*
X171422Y30143D01*
X171514Y30160D01*
X171599Y30194D01*
X171684Y30236D01*
X171692Y30244D01*
X171717Y30261D01*
X171760Y30295D01*
X171811Y30337D01*
X171870Y30388D01*
X171929Y30464D01*
X171988Y30540D01*
X172047Y30642D01*
X172056Y30650D01*
X172064Y30684D01*
X172090Y30735D01*
X172115Y30811D01*
X172149Y30921D01*
X172183Y31048D01*
X172225Y31200D01*
X172267Y31386D01*
X173232Y36004D01*
X174086D01*
D02*
G37*
G36*
X180176D02*
X180243Y35996D01*
X180396Y35987D01*
X180573Y35979D01*
X180751Y35962D01*
X180920Y35928D01*
X181072Y35894D01*
X181081D01*
X181098Y35886D01*
X181123Y35877D01*
X181165Y35869D01*
X181258Y35835D01*
X181385Y35784D01*
X181529Y35717D01*
X181681Y35632D01*
X181833Y35531D01*
X181977Y35404D01*
X181986D01*
X181994Y35387D01*
X182036Y35345D01*
X182104Y35268D01*
X182189Y35167D01*
X182282Y35040D01*
X182383Y34888D01*
X182476Y34719D01*
X182553Y34524D01*
Y34516D01*
X182561Y34499D01*
X182569Y34473D01*
X182586Y34431D01*
X182595Y34380D01*
X182612Y34321D01*
X182629Y34253D01*
X182654Y34177D01*
X182688Y34008D01*
X182713Y33805D01*
X182739Y33577D01*
X182747Y33340D01*
Y33332D01*
Y33306D01*
Y33264D01*
Y33205D01*
X182739Y33137D01*
Y33061D01*
X182730Y32968D01*
X182713Y32866D01*
X182688Y32646D01*
X182645Y32410D01*
X182586Y32156D01*
X182502Y31911D01*
Y31902D01*
X182493Y31885D01*
X182476Y31851D01*
X182460Y31801D01*
X182434Y31750D01*
X182409Y31682D01*
X182333Y31530D01*
X182248Y31352D01*
X182138Y31158D01*
X182020Y30963D01*
X181884Y30777D01*
Y30769D01*
X181867Y30752D01*
X181850Y30726D01*
X181817Y30693D01*
X181740Y30608D01*
X181639Y30498D01*
X181521Y30371D01*
X181385Y30244D01*
X181233Y30117D01*
X181081Y30008D01*
X181072D01*
X181064Y29999D01*
X181038Y29982D01*
X181005Y29965D01*
X180920Y29914D01*
X180802Y29855D01*
X180658Y29788D01*
X180489Y29720D01*
X180303Y29652D01*
X180091Y29602D01*
X180074D01*
X180049Y29593D01*
X180015Y29585D01*
X179973Y29576D01*
X179922Y29568D01*
X179795Y29551D01*
X179634Y29534D01*
X179457Y29517D01*
X179245Y29508D01*
X179017Y29500D01*
X176682D01*
X178036Y36004D01*
X180176D01*
D02*
G37*
G36*
X153160D02*
X151951Y30236D01*
X155309D01*
X155156Y29500D01*
X150936D01*
X152297Y36004D01*
X153160D01*
D02*
G37*
G36*
X157220Y30413D02*
X157017Y29500D01*
X156112D01*
X156307Y30413D01*
X157220D01*
D02*
G37*
G36*
X160130Y36004D02*
X160274Y32782D01*
Y32773D01*
Y32756D01*
Y32731D01*
X160282Y32697D01*
Y32655D01*
Y32604D01*
X160291Y32536D01*
Y32460D01*
Y32376D01*
X160299Y32274D01*
Y32156D01*
X160307Y32029D01*
X160316Y31877D01*
Y31716D01*
X160324Y31530D01*
Y31521D01*
Y31488D01*
Y31437D01*
X160333Y31378D01*
Y31242D01*
Y31183D01*
Y31132D01*
Y31116D01*
Y31090D01*
Y31048D01*
Y30989D01*
Y30912D01*
Y30819D01*
Y30693D01*
X160341Y30710D01*
X160358Y30743D01*
X160384Y30794D01*
X160417Y30870D01*
X160468Y30963D01*
X160519Y31065D01*
X160570Y31183D01*
X160637Y31302D01*
X160764Y31564D01*
X160891Y31818D01*
X160950Y31944D01*
X161010Y32063D01*
X161060Y32164D01*
X161111Y32257D01*
X163090Y36004D01*
X163987D01*
X164198Y32198D01*
Y32190D01*
Y32173D01*
Y32130D01*
X164207Y32080D01*
Y32020D01*
Y31944D01*
X164215Y31860D01*
Y31758D01*
X164224Y31648D01*
Y31530D01*
X164232Y31395D01*
X164240Y31259D01*
Y31116D01*
X164249Y30955D01*
X164257Y30625D01*
Y30633D01*
X164274Y30667D01*
X164291Y30718D01*
X164325Y30794D01*
X164359Y30887D01*
X164410Y31006D01*
X164469Y31141D01*
X164545Y31302D01*
Y31310D01*
X164562Y31335D01*
X164579Y31369D01*
X164596Y31420D01*
X164621Y31479D01*
X164655Y31547D01*
X164723Y31699D01*
X164799Y31868D01*
X164883Y32037D01*
X164951Y32198D01*
X164985Y32274D01*
X165019Y32334D01*
X166871Y36004D01*
X167759D01*
X164452Y29500D01*
X163521D01*
X163302Y33433D01*
Y33442D01*
Y33458D01*
Y33484D01*
X163293Y33526D01*
Y33577D01*
Y33636D01*
X163285Y33704D01*
Y33780D01*
X163276Y33864D01*
Y33966D01*
X163259Y34177D01*
X163251Y34414D01*
X163242Y34685D01*
Y34676D01*
X163234Y34660D01*
X163217Y34626D01*
X163200Y34583D01*
X163175Y34533D01*
X163149Y34473D01*
X163082Y34330D01*
X163014Y34177D01*
X162938Y34017D01*
X162862Y33864D01*
X162786Y33721D01*
X160544Y29500D01*
X159648D01*
X159250Y36004D01*
X160130D01*
D02*
G37*
G36*
X168317Y30413D02*
X168114Y29500D01*
X167209D01*
X167404Y30413D01*
X168317D01*
D02*
G37*
G36*
X175380D02*
X175177Y29500D01*
X174272D01*
X174466Y30413D01*
X175380D01*
D02*
G37*
G36*
X200289Y36030D02*
X198936Y29500D01*
X198141D01*
X199164Y34406D01*
X199156Y34397D01*
X199131Y34380D01*
X199097Y34355D01*
X199037Y34321D01*
X198970Y34279D01*
X198885Y34220D01*
X198792Y34169D01*
X198682Y34101D01*
X198555Y34042D01*
X198412Y33974D01*
X198259Y33898D01*
X198090Y33831D01*
X197913Y33763D01*
X197718Y33695D01*
X197507Y33628D01*
X197287Y33568D01*
X197439Y34296D01*
X197447D01*
X197464Y34304D01*
X197498Y34321D01*
X197540Y34338D01*
X197600Y34363D01*
X197659Y34389D01*
X197735Y34423D01*
X197811Y34465D01*
X197989Y34550D01*
X198192Y34660D01*
X198403Y34778D01*
X198623Y34913D01*
X198631Y34922D01*
X198648Y34930D01*
X198682Y34955D01*
X198716Y34981D01*
X198767Y35015D01*
X198826Y35048D01*
X198953Y35142D01*
X199097Y35252D01*
X199240Y35370D01*
X199376Y35488D01*
X199494Y35598D01*
X199503Y35607D01*
X199528Y35632D01*
X199562Y35666D01*
X199604Y35717D01*
X199655Y35784D01*
X199714Y35852D01*
X199773Y35937D01*
X199833Y36030D01*
X200289D01*
D02*
G37*
G36*
X213975Y35920D02*
X213831Y35184D01*
X213822Y35175D01*
X213780Y35142D01*
X213729Y35091D01*
X213653Y35015D01*
X213560Y34922D01*
X213459Y34812D01*
X213332Y34685D01*
X213205Y34533D01*
X213061Y34372D01*
X212917Y34194D01*
X212765Y33991D01*
X212605Y33780D01*
X212452Y33551D01*
X212292Y33315D01*
X212139Y33061D01*
X211987Y32790D01*
Y32782D01*
X211979Y32773D01*
X211962Y32748D01*
X211945Y32714D01*
X211928Y32672D01*
X211902Y32621D01*
X211843Y32503D01*
X211767Y32350D01*
X211682Y32173D01*
X211590Y31970D01*
X211488Y31741D01*
X211387Y31505D01*
X211285Y31242D01*
X211175Y30972D01*
X211073Y30693D01*
X210980Y30396D01*
X210896Y30101D01*
X210811Y29804D01*
X210744Y29500D01*
X209906D01*
Y29508D01*
X209915Y29534D01*
Y29568D01*
X209932Y29618D01*
X209940Y29678D01*
X209957Y29754D01*
X209974Y29838D01*
X209999Y29940D01*
X210025Y30050D01*
X210059Y30168D01*
X210101Y30303D01*
X210135Y30439D01*
X210185Y30583D01*
X210236Y30743D01*
X210355Y31073D01*
X210363Y31090D01*
X210371Y31124D01*
X210397Y31183D01*
X210431Y31268D01*
X210473Y31369D01*
X210515Y31488D01*
X210574Y31623D01*
X210642Y31767D01*
X210718Y31927D01*
X210794Y32105D01*
X210888Y32291D01*
X210980Y32477D01*
X211192Y32875D01*
X211429Y33289D01*
X211437Y33306D01*
X211463Y33340D01*
X211497Y33399D01*
X211547Y33475D01*
X211606Y33568D01*
X211682Y33678D01*
X211767Y33805D01*
X211869Y33940D01*
X211970Y34084D01*
X212089Y34237D01*
X212342Y34550D01*
X212621Y34871D01*
X212917Y35184D01*
X209686D01*
X209839Y35920D01*
X213975D01*
D02*
G37*
G36*
X219430Y36030D02*
X219481Y36021D01*
X219540D01*
X219676Y36004D01*
X219828Y35970D01*
X219997Y35928D01*
X220175Y35869D01*
X220344Y35793D01*
X220352D01*
X220361Y35784D01*
X220386Y35768D01*
X220420Y35751D01*
X220496Y35700D01*
X220597Y35624D01*
X220707Y35531D01*
X220817Y35421D01*
X220927Y35294D01*
X221020Y35142D01*
Y35133D01*
X221029Y35125D01*
X221046Y35099D01*
X221054Y35074D01*
X221096Y34989D01*
X221139Y34879D01*
X221173Y34753D01*
X221215Y34609D01*
X221240Y34448D01*
X221249Y34287D01*
Y34279D01*
Y34262D01*
Y34220D01*
X221240Y34177D01*
X221232Y34118D01*
X221223Y34051D01*
X221206Y33974D01*
X221189Y33890D01*
X221139Y33695D01*
X221054Y33492D01*
X221003Y33382D01*
X220936Y33264D01*
X220868Y33154D01*
X220784Y33044D01*
Y33036D01*
X220767Y33027D01*
X220750Y33002D01*
X220716Y32968D01*
X220674Y32926D01*
X220623Y32866D01*
X220555Y32799D01*
X220471Y32714D01*
X220369Y32621D01*
X220251Y32520D01*
X220115Y32401D01*
X219963Y32266D01*
X219785Y32114D01*
X219591Y31953D01*
X219363Y31767D01*
X219117Y31572D01*
X219109Y31564D01*
X219092Y31555D01*
X219058Y31530D01*
X219024Y31496D01*
X218974Y31454D01*
X218914Y31403D01*
X218787Y31302D01*
X218644Y31175D01*
X218491Y31048D01*
X218356Y30912D01*
X218229Y30794D01*
X218221Y30777D01*
X218178Y30743D01*
X218128Y30684D01*
X218069Y30616D01*
X218001Y30532D01*
X217925Y30430D01*
X217857Y30337D01*
X217798Y30236D01*
X220707D01*
X220547Y29500D01*
X216681D01*
Y29508D01*
X216690Y29525D01*
Y29559D01*
X216707Y29593D01*
X216715Y29644D01*
X216732Y29703D01*
X216766Y29838D01*
X216817Y29990D01*
X216876Y30151D01*
X216943Y30312D01*
X217020Y30464D01*
Y30473D01*
X217028Y30481D01*
X217062Y30532D01*
X217113Y30608D01*
X217172Y30710D01*
X217257Y30819D01*
X217358Y30946D01*
X217476Y31073D01*
X217603Y31209D01*
X217612Y31217D01*
X217620Y31225D01*
X217646Y31251D01*
X217679Y31276D01*
X217722Y31319D01*
X217772Y31361D01*
X217840Y31420D01*
X217916Y31488D01*
X218001Y31564D01*
X218102Y31657D01*
X218221Y31750D01*
X218348Y31860D01*
X218491Y31978D01*
X218652Y32105D01*
X218821Y32240D01*
X219007Y32393D01*
X219016Y32401D01*
X219033Y32418D01*
X219067Y32443D01*
X219109Y32477D01*
X219160Y32520D01*
X219219Y32562D01*
X219346Y32680D01*
X219489Y32799D01*
X219633Y32917D01*
X219760Y33036D01*
X219811Y33086D01*
X219862Y33137D01*
X219879Y33154D01*
X219921Y33196D01*
X219980Y33264D01*
X220048Y33348D01*
X220132Y33458D01*
X220208Y33568D01*
X220285Y33687D01*
X220344Y33814D01*
X220352Y33822D01*
X220361Y33856D01*
X220378Y33898D01*
X220403Y33966D01*
X220420Y34034D01*
X220437Y34118D01*
X220445Y34211D01*
X220454Y34313D01*
Y34321D01*
Y34330D01*
Y34355D01*
X220445Y34389D01*
X220437Y34473D01*
X220411Y34575D01*
X220378Y34693D01*
X220318Y34820D01*
X220242Y34955D01*
X220132Y35074D01*
X220115Y35091D01*
X220073Y35125D01*
X220005Y35175D01*
X219921Y35235D01*
X219802Y35285D01*
X219676Y35336D01*
X219523Y35370D01*
X219354Y35387D01*
X219312D01*
X219278Y35378D01*
X219193Y35370D01*
X219083Y35345D01*
X218957Y35311D01*
X218830Y35252D01*
X218694Y35175D01*
X218559Y35066D01*
X218542Y35048D01*
X218508Y35006D01*
X218441Y34930D01*
X218373Y34820D01*
X218297Y34676D01*
X218212Y34499D01*
X218178Y34406D01*
X218136Y34296D01*
X218102Y34177D01*
X218077Y34051D01*
X217290Y34160D01*
Y34169D01*
X217299Y34203D01*
X217307Y34245D01*
X217316Y34304D01*
X217333Y34380D01*
X217358Y34465D01*
X217383Y34558D01*
X217417Y34660D01*
X217502Y34879D01*
X217553Y34989D01*
X217620Y35108D01*
X217688Y35218D01*
X217772Y35328D01*
X217857Y35429D01*
X217959Y35531D01*
X217967Y35539D01*
X217984Y35556D01*
X218018Y35573D01*
X218060Y35607D01*
X218111Y35649D01*
X218178Y35691D01*
X218255Y35734D01*
X218339Y35784D01*
X218432Y35827D01*
X218542Y35869D01*
X218652Y35911D01*
X218779Y35954D01*
X218906Y35987D01*
X219041Y36004D01*
X219185Y36021D01*
X219337Y36030D01*
X219430D01*
D02*
G37*
G36*
X204730Y36114D02*
X201237Y29390D01*
X200543D01*
X204036Y36114D01*
X204730D01*
D02*
G37*
G36*
X206997Y36030D02*
X207047Y36021D01*
X207107Y36013D01*
X207183Y36004D01*
X207267Y35987D01*
X207352Y35962D01*
X207555Y35894D01*
X207656Y35852D01*
X207758Y35793D01*
X207868Y35734D01*
X207969Y35657D01*
X208071Y35573D01*
X208164Y35471D01*
X208172Y35463D01*
X208189Y35446D01*
X208206Y35412D01*
X208240Y35370D01*
X208282Y35311D01*
X208325Y35243D01*
X208367Y35159D01*
X208418Y35066D01*
X208460Y34955D01*
X208502Y34837D01*
X208545Y34702D01*
X208587Y34558D01*
X208621Y34406D01*
X208638Y34237D01*
X208654Y34059D01*
X208663Y33873D01*
Y33864D01*
Y33822D01*
Y33763D01*
X208654Y33687D01*
Y33594D01*
X208646Y33475D01*
X208638Y33348D01*
X208621Y33196D01*
X208604Y33044D01*
X208578Y32875D01*
X208553Y32697D01*
X208519Y32511D01*
X208435Y32130D01*
X208316Y31733D01*
X208308Y31716D01*
X208299Y31682D01*
X208274Y31614D01*
X208240Y31530D01*
X208198Y31428D01*
X208147Y31310D01*
X208088Y31175D01*
X208020Y31031D01*
X207944Y30887D01*
X207859Y30726D01*
X207656Y30422D01*
X207547Y30270D01*
X207437Y30126D01*
X207310Y29990D01*
X207174Y29864D01*
X207166Y29855D01*
X207149Y29847D01*
X207115Y29821D01*
X207073Y29787D01*
X207022Y29754D01*
X206963Y29711D01*
X206887Y29669D01*
X206811Y29627D01*
X206616Y29542D01*
X206405Y29466D01*
X206168Y29407D01*
X206041Y29399D01*
X205906Y29390D01*
X205838D01*
X205787Y29399D01*
X205720Y29407D01*
X205643Y29424D01*
X205567Y29441D01*
X205474Y29458D01*
X205280Y29525D01*
X205178Y29576D01*
X205077Y29627D01*
X204967Y29694D01*
X204865Y29771D01*
X204764Y29855D01*
X204671Y29957D01*
X204662Y29965D01*
X204645Y29982D01*
X204628Y30016D01*
X204595Y30067D01*
X204552Y30126D01*
X204510Y30194D01*
X204468Y30287D01*
X204425Y30380D01*
X204375Y30498D01*
X204332Y30616D01*
X204290Y30760D01*
X204248Y30904D01*
X204214Y31065D01*
X204197Y31242D01*
X204180Y31428D01*
X204172Y31631D01*
Y31640D01*
Y31665D01*
Y31716D01*
Y31775D01*
X204180Y31851D01*
X204189Y31936D01*
Y32037D01*
X204205Y32147D01*
X204214Y32274D01*
X204231Y32401D01*
X204273Y32680D01*
X204332Y32993D01*
X204417Y33306D01*
Y33315D01*
X204425Y33340D01*
X204442Y33391D01*
X204459Y33450D01*
X204485Y33518D01*
X204510Y33602D01*
X204544Y33695D01*
X204578Y33797D01*
X204654Y34017D01*
X204747Y34245D01*
X204848Y34465D01*
X204958Y34668D01*
Y34676D01*
X204975Y34693D01*
X204992Y34719D01*
X205009Y34753D01*
X205068Y34845D01*
X205153Y34955D01*
X205246Y35082D01*
X205347Y35218D01*
X205466Y35345D01*
X205584Y35463D01*
X205601Y35480D01*
X205643Y35514D01*
X205703Y35564D01*
X205787Y35632D01*
X205880Y35700D01*
X205990Y35768D01*
X206100Y35835D01*
X206218Y35894D01*
X206236Y35903D01*
X206278Y35920D01*
X206337Y35937D01*
X206422Y35962D01*
X206532Y35987D01*
X206650Y36013D01*
X206777Y36021D01*
X206921Y36030D01*
X206997D01*
D02*
G37*
G36*
X217349Y36114D02*
X213856Y29390D01*
X213163D01*
X216656Y36114D01*
X217349D01*
D02*
G37*
G36*
X191894Y60365D02*
X192013D01*
X192161Y60350D01*
X192323Y60336D01*
X192664Y60276D01*
X193034Y60202D01*
X193419Y60099D01*
X193790Y59965D01*
X193804D01*
X193834Y59951D01*
X193878Y59921D01*
X193952Y59891D01*
X194130Y59788D01*
X194337Y59654D01*
X194589Y59492D01*
X194826Y59284D01*
X195078Y59033D01*
X195285Y58751D01*
Y58736D01*
X195315Y58721D01*
X195329Y58677D01*
X195374Y58618D01*
X195403Y58544D01*
X195448Y58455D01*
X195552Y58233D01*
X195655Y57966D01*
X195744Y57670D01*
X195818Y57330D01*
X195848Y56974D01*
X194397Y56870D01*
Y56885D01*
Y56915D01*
X194382Y56974D01*
X194367Y57048D01*
X194352Y57137D01*
X194322Y57241D01*
X194249Y57478D01*
X194145Y57729D01*
X194012Y57996D01*
X193834Y58262D01*
X193597Y58485D01*
X193567Y58514D01*
X193523Y58529D01*
X193479Y58573D01*
X193404Y58618D01*
X193316Y58662D01*
X193212Y58707D01*
X193108Y58766D01*
X192975Y58810D01*
X192827Y58855D01*
X192664Y58899D01*
X192486Y58944D01*
X192294Y58988D01*
X192087Y59003D01*
X191864Y59033D01*
X191405D01*
X191287Y59018D01*
X191168Y59003D01*
X190872Y58973D01*
X190546Y58914D01*
X190221Y58825D01*
X189910Y58692D01*
X189762Y58618D01*
X189643Y58529D01*
X189613Y58499D01*
X189540Y58440D01*
X189451Y58337D01*
X189332Y58188D01*
X189214Y58011D01*
X189125Y57803D01*
X189051Y57566D01*
X189021Y57315D01*
Y57285D01*
Y57211D01*
X189051Y57107D01*
X189080Y56959D01*
X189125Y56796D01*
X189199Y56634D01*
X189303Y56471D01*
X189451Y56308D01*
X189480Y56293D01*
X189510Y56263D01*
X189554Y56248D01*
X189613Y56204D01*
X189688Y56160D01*
X189791Y56115D01*
X189895Y56071D01*
X190043Y56012D01*
X190206Y55938D01*
X190384Y55878D01*
X190591Y55804D01*
X190828Y55730D01*
X191094Y55656D01*
X191390Y55582D01*
X191716Y55508D01*
X191731D01*
X191790Y55493D01*
X191894Y55464D01*
X192013Y55434D01*
X192161Y55405D01*
X192338Y55360D01*
X192516Y55316D01*
X192723Y55256D01*
X193138Y55153D01*
X193552Y55034D01*
X193745Y54960D01*
X193937Y54901D01*
X194100Y54842D01*
X194234Y54783D01*
X194249D01*
X194278Y54768D01*
X194322Y54738D01*
X194397Y54694D01*
X194574Y54605D01*
X194796Y54472D01*
X195033Y54294D01*
X195270Y54101D01*
X195507Y53864D01*
X195700Y53613D01*
Y53598D01*
X195714Y53583D01*
X195744Y53539D01*
X195774Y53494D01*
X195848Y53346D01*
X195951Y53154D01*
X196040Y52917D01*
X196114Y52635D01*
X196174Y52339D01*
X196188Y51999D01*
Y51984D01*
Y51954D01*
Y51910D01*
X196174Y51851D01*
Y51762D01*
X196159Y51673D01*
X196129Y51451D01*
X196055Y51184D01*
X195966Y50903D01*
X195833Y50592D01*
X195655Y50296D01*
Y50281D01*
X195626Y50266D01*
X195596Y50222D01*
X195566Y50162D01*
X195433Y50014D01*
X195270Y49837D01*
X195063Y49644D01*
X194811Y49437D01*
X194500Y49229D01*
X194160Y49052D01*
X194145D01*
X194115Y49037D01*
X194056Y49007D01*
X193997Y48978D01*
X193893Y48948D01*
X193790Y48918D01*
X193671Y48874D01*
X193523Y48830D01*
X193212Y48756D01*
X192842Y48682D01*
X192427Y48622D01*
X191983Y48608D01*
X191835D01*
X191731Y48622D01*
X191598D01*
X191435Y48637D01*
X191272Y48652D01*
X191080Y48667D01*
X190680Y48711D01*
X190236Y48800D01*
X189806Y48904D01*
X189391Y49052D01*
X189377D01*
X189347Y49067D01*
X189288Y49096D01*
X189214Y49141D01*
X189140Y49185D01*
X189036Y49244D01*
X188799Y49392D01*
X188533Y49585D01*
X188266Y49822D01*
X187999Y50103D01*
X187763Y50414D01*
Y50429D01*
X187733Y50458D01*
X187703Y50503D01*
X187674Y50577D01*
X187629Y50666D01*
X187570Y50755D01*
X187526Y50873D01*
X187466Y51006D01*
X187348Y51317D01*
X187244Y51658D01*
X187170Y52058D01*
X187141Y52472D01*
X188562Y52591D01*
Y52576D01*
Y52547D01*
X188577Y52502D01*
Y52443D01*
X188607Y52295D01*
X188651Y52087D01*
X188710Y51865D01*
X188799Y51628D01*
X188903Y51391D01*
X189021Y51169D01*
X189036Y51140D01*
X189095Y51080D01*
X189184Y50977D01*
X189303Y50858D01*
X189466Y50710D01*
X189658Y50562D01*
X189895Y50414D01*
X190161Y50281D01*
X190176D01*
X190191Y50266D01*
X190236Y50251D01*
X190295Y50236D01*
X190369Y50207D01*
X190458Y50177D01*
X190680Y50118D01*
X190931Y50059D01*
X191228Y49999D01*
X191553Y49970D01*
X191909Y49955D01*
X192057D01*
X192220Y49970D01*
X192427Y49985D01*
X192649Y50014D01*
X192916Y50059D01*
X193167Y50118D01*
X193419Y50207D01*
X193434D01*
X193449Y50222D01*
X193523Y50251D01*
X193641Y50310D01*
X193790Y50384D01*
X193952Y50488D01*
X194115Y50607D01*
X194278Y50740D01*
X194411Y50903D01*
X194426Y50918D01*
X194456Y50977D01*
X194515Y51080D01*
X194574Y51199D01*
X194634Y51347D01*
X194693Y51510D01*
X194722Y51688D01*
X194737Y51880D01*
Y51910D01*
Y51969D01*
X194722Y52073D01*
X194693Y52191D01*
X194663Y52339D01*
X194604Y52502D01*
X194515Y52665D01*
X194411Y52813D01*
X194397Y52828D01*
X194352Y52887D01*
X194278Y52961D01*
X194174Y53050D01*
X194026Y53154D01*
X193849Y53257D01*
X193641Y53376D01*
X193390Y53479D01*
X193360Y53494D01*
X193301Y53509D01*
X193242Y53539D01*
X193167Y53553D01*
X193079Y53583D01*
X192960Y53613D01*
X192842Y53657D01*
X192694Y53687D01*
X192531Y53731D01*
X192338Y53790D01*
X192131Y53835D01*
X191894Y53894D01*
X191642Y53953D01*
X191361Y54027D01*
X191346D01*
X191287Y54042D01*
X191213Y54072D01*
X191109Y54086D01*
X190976Y54131D01*
X190843Y54161D01*
X190502Y54264D01*
X190147Y54368D01*
X189776Y54501D01*
X189451Y54620D01*
X189303Y54694D01*
X189169Y54753D01*
X189154D01*
X189140Y54768D01*
X189095Y54797D01*
X189036Y54827D01*
X188888Y54916D01*
X188710Y55049D01*
X188518Y55197D01*
X188310Y55375D01*
X188118Y55582D01*
X187955Y55804D01*
Y55819D01*
X187940Y55834D01*
X187896Y55923D01*
X187837Y56041D01*
X187763Y56219D01*
X187689Y56426D01*
X187629Y56678D01*
X187585Y56944D01*
X187570Y57226D01*
Y57241D01*
Y57270D01*
Y57315D01*
X187585Y57374D01*
X187600Y57537D01*
X187629Y57759D01*
X187689Y58011D01*
X187777Y58277D01*
X187896Y58559D01*
X188059Y58840D01*
Y58855D01*
X188088Y58870D01*
X188148Y58958D01*
X188266Y59106D01*
X188414Y59269D01*
X188621Y59447D01*
X188858Y59640D01*
X189154Y59817D01*
X189480Y59980D01*
X189495D01*
X189525Y59995D01*
X189569Y60025D01*
X189643Y60039D01*
X189732Y60069D01*
X189836Y60114D01*
X189954Y60143D01*
X190087Y60188D01*
X190398Y60247D01*
X190754Y60321D01*
X191154Y60365D01*
X191568Y60380D01*
X191775D01*
X191894Y60365D01*
D02*
G37*
G36*
X146566Y57196D02*
X146744Y57167D01*
X146966Y57107D01*
X147218Y57033D01*
X147469Y56915D01*
X147751Y56767D01*
X147262Y55479D01*
X147233Y55493D01*
X147173Y55523D01*
X147070Y55567D01*
X146936Y55627D01*
X146788Y55686D01*
X146610Y55730D01*
X146418Y55760D01*
X146226Y55775D01*
X146152D01*
X146063Y55760D01*
X145944Y55745D01*
X145826Y55701D01*
X145678Y55656D01*
X145544Y55582D01*
X145396Y55493D01*
X145381Y55479D01*
X145337Y55449D01*
X145278Y55375D01*
X145204Y55286D01*
X145115Y55182D01*
X145026Y55049D01*
X144952Y54901D01*
X144878Y54723D01*
Y54708D01*
X144863Y54694D01*
Y54649D01*
X144848Y54590D01*
X144804Y54442D01*
X144774Y54249D01*
X144730Y53998D01*
X144685Y53731D01*
X144671Y53420D01*
X144656Y53094D01*
Y48800D01*
X143264D01*
Y57048D01*
X144523D01*
Y55789D01*
X144537Y55819D01*
X144567Y55863D01*
X144597Y55923D01*
X144700Y56071D01*
X144804Y56248D01*
X144937Y56456D01*
X145085Y56648D01*
X145248Y56811D01*
X145396Y56944D01*
X145411Y56959D01*
X145470Y56989D01*
X145559Y57033D01*
X145663Y57093D01*
X145796Y57137D01*
X145959Y57181D01*
X146122Y57211D01*
X146300Y57226D01*
X146418D01*
X146566Y57196D01*
D02*
G37*
G36*
X157406Y57211D02*
X157509D01*
X157628Y57196D01*
X157909Y57137D01*
X158205Y57063D01*
X158516Y56944D01*
X158827Y56767D01*
X158961Y56663D01*
X159094Y56545D01*
X159109Y56530D01*
X159123Y56515D01*
X159153Y56471D01*
X159198Y56411D01*
X159242Y56337D01*
X159301Y56248D01*
X159360Y56145D01*
X159434Y56026D01*
X159494Y55893D01*
X159553Y55730D01*
X159612Y55567D01*
X159657Y55375D01*
X159701Y55167D01*
X159731Y54945D01*
X159760Y54694D01*
Y54442D01*
Y48800D01*
X158368D01*
Y53983D01*
Y53998D01*
Y54012D01*
Y54057D01*
Y54116D01*
Y54264D01*
X158353Y54442D01*
X158339Y54634D01*
X158309Y54842D01*
X158279Y55019D01*
X158235Y55182D01*
Y55197D01*
X158205Y55242D01*
X158176Y55316D01*
X158117Y55390D01*
X158057Y55493D01*
X157968Y55582D01*
X157865Y55686D01*
X157732Y55775D01*
X157717Y55789D01*
X157672Y55819D01*
X157598Y55849D01*
X157495Y55893D01*
X157376Y55938D01*
X157228Y55982D01*
X157080Y55997D01*
X156902Y56012D01*
X156813D01*
X156754Y55997D01*
X156591Y55982D01*
X156384Y55938D01*
X156147Y55863D01*
X155910Y55760D01*
X155658Y55612D01*
X155436Y55419D01*
X155407Y55390D01*
X155347Y55316D01*
X155259Y55167D01*
X155155Y54975D01*
X155096Y54857D01*
X155036Y54723D01*
X154992Y54560D01*
X154948Y54398D01*
X154918Y54220D01*
X154888Y54027D01*
X154859Y53805D01*
Y53583D01*
Y48800D01*
X153467D01*
Y54146D01*
Y54161D01*
Y54190D01*
Y54235D01*
Y54294D01*
X153452Y54472D01*
X153422Y54664D01*
X153378Y54901D01*
X153319Y55123D01*
X153245Y55345D01*
X153126Y55538D01*
X153111Y55553D01*
X153067Y55612D01*
X152978Y55686D01*
X152860Y55775D01*
X152711Y55863D01*
X152519Y55938D01*
X152282Y55997D01*
X152015Y56012D01*
X151912D01*
X151808Y55997D01*
X151660Y55967D01*
X151482Y55938D01*
X151305Y55878D01*
X151112Y55804D01*
X150920Y55701D01*
X150905Y55686D01*
X150831Y55641D01*
X150742Y55567D01*
X150638Y55464D01*
X150520Y55345D01*
X150401Y55182D01*
X150283Y54990D01*
X150179Y54783D01*
X150164Y54753D01*
X150150Y54679D01*
X150105Y54531D01*
X150076Y54353D01*
X150031Y54101D01*
X149987Y53805D01*
X149972Y53465D01*
X149957Y53065D01*
Y48800D01*
X148565D01*
Y57048D01*
X149809D01*
Y55878D01*
X149824Y55908D01*
X149883Y55982D01*
X149972Y56086D01*
X150091Y56234D01*
X150239Y56382D01*
X150416Y56545D01*
X150624Y56708D01*
X150846Y56856D01*
X150861D01*
X150875Y56870D01*
X150964Y56915D01*
X151097Y56974D01*
X151275Y57048D01*
X151497Y57107D01*
X151734Y57167D01*
X152015Y57211D01*
X152312Y57226D01*
X152460D01*
X152638Y57211D01*
X152845Y57181D01*
X153082Y57137D01*
X153333Y57063D01*
X153570Y56974D01*
X153807Y56841D01*
X153837Y56826D01*
X153911Y56767D01*
X154015Y56678D01*
X154133Y56560D01*
X154281Y56411D01*
X154414Y56234D01*
X154548Y56012D01*
X154651Y55775D01*
X154666Y55789D01*
X154696Y55834D01*
X154755Y55908D01*
X154829Y55997D01*
X154933Y56115D01*
X155051Y56234D01*
X155184Y56367D01*
X155333Y56500D01*
X155510Y56634D01*
X155703Y56767D01*
X155910Y56885D01*
X156132Y57004D01*
X156384Y57093D01*
X156636Y57167D01*
X156917Y57211D01*
X157198Y57226D01*
X157317D01*
X157406Y57211D01*
D02*
G37*
G36*
X168482Y48800D02*
X167238D01*
Y50014D01*
X167223Y49999D01*
X167194Y49955D01*
X167135Y49881D01*
X167061Y49792D01*
X166957Y49689D01*
X166838Y49570D01*
X166705Y49452D01*
X166542Y49318D01*
X166365Y49185D01*
X166172Y49067D01*
X165950Y48948D01*
X165728Y48844D01*
X165476Y48756D01*
X165210Y48682D01*
X164914Y48637D01*
X164617Y48622D01*
X164499D01*
X164351Y48637D01*
X164173Y48652D01*
X163966Y48682D01*
X163744Y48741D01*
X163492Y48800D01*
X163255Y48889D01*
X163225Y48904D01*
X163151Y48933D01*
X163033Y49007D01*
X162899Y49081D01*
X162752Y49185D01*
X162589Y49303D01*
X162440Y49437D01*
X162307Y49585D01*
X162292Y49600D01*
X162263Y49659D01*
X162204Y49748D01*
X162144Y49881D01*
X162070Y50029D01*
X161996Y50207D01*
X161937Y50414D01*
X161878Y50636D01*
Y50651D01*
X161863Y50710D01*
X161848Y50814D01*
Y50962D01*
X161833Y51140D01*
X161819Y51362D01*
X161804Y51628D01*
Y51939D01*
Y57048D01*
X163196D01*
Y52472D01*
Y52458D01*
Y52428D01*
Y52369D01*
Y52295D01*
Y52206D01*
Y52102D01*
X163211Y51880D01*
Y51628D01*
X163225Y51391D01*
X163240Y51169D01*
X163255Y51066D01*
X163270Y50992D01*
Y50962D01*
X163299Y50903D01*
X163329Y50799D01*
X163388Y50681D01*
X163462Y50547D01*
X163566Y50399D01*
X163684Y50266D01*
X163832Y50133D01*
X163847Y50118D01*
X163906Y50088D01*
X163995Y50029D01*
X164129Y49985D01*
X164277Y49925D01*
X164454Y49866D01*
X164662Y49837D01*
X164884Y49822D01*
X164988D01*
X165121Y49837D01*
X165269Y49866D01*
X165447Y49896D01*
X165654Y49955D01*
X165861Y50029D01*
X166068Y50133D01*
X166098Y50148D01*
X166157Y50192D01*
X166261Y50266D01*
X166380Y50370D01*
X166513Y50488D01*
X166631Y50636D01*
X166750Y50814D01*
X166853Y51006D01*
X166868Y51036D01*
X166898Y51110D01*
X166927Y51243D01*
X166972Y51421D01*
X167016Y51643D01*
X167061Y51925D01*
X167076Y52250D01*
X167090Y52621D01*
Y57048D01*
X168482D01*
Y48800D01*
D02*
G37*
G36*
X217098Y58840D02*
X210389D01*
Y55375D01*
X216668D01*
Y54027D01*
X210389D01*
Y50148D01*
X217364D01*
Y48800D01*
X208879D01*
Y60188D01*
X217098D01*
Y58840D01*
D02*
G37*
G36*
X207620Y48800D02*
X205917D01*
X204599Y52250D01*
X199831D01*
X198587Y48800D01*
X197003D01*
X201342Y60188D01*
X202985D01*
X207620Y48800D01*
D02*
G37*
G36*
X178063Y57211D02*
X178300Y57196D01*
X178567Y57167D01*
X178863Y57122D01*
X179129Y57063D01*
X179396Y56974D01*
X179411D01*
X179426Y56959D01*
X179499Y56930D01*
X179618Y56870D01*
X179766Y56796D01*
X179929Y56708D01*
X180092Y56604D01*
X180240Y56471D01*
X180373Y56337D01*
X180388Y56323D01*
X180418Y56278D01*
X180477Y56189D01*
X180551Y56086D01*
X180625Y55952D01*
X180699Y55789D01*
X180758Y55612D01*
X180818Y55405D01*
Y55390D01*
X180832Y55330D01*
X180847Y55242D01*
X180862Y55108D01*
Y54931D01*
X180877Y54708D01*
X180891Y54442D01*
Y54116D01*
Y52250D01*
Y52235D01*
Y52161D01*
Y52073D01*
Y51939D01*
Y51791D01*
Y51614D01*
Y51421D01*
X180906Y51214D01*
Y50799D01*
X180921Y50399D01*
X180936Y50207D01*
Y50044D01*
X180951Y49911D01*
X180966Y49792D01*
Y49763D01*
X180980Y49703D01*
X181010Y49600D01*
X181040Y49481D01*
X181099Y49318D01*
X181158Y49155D01*
X181232Y48978D01*
X181321Y48800D01*
X179855D01*
X179840Y48815D01*
X179825Y48874D01*
X179781Y48963D01*
X179751Y49096D01*
X179692Y49244D01*
X179662Y49422D01*
X179618Y49615D01*
X179588Y49837D01*
X179574D01*
X179559Y49807D01*
X179514Y49777D01*
X179455Y49733D01*
X179307Y49615D01*
X179100Y49466D01*
X178878Y49318D01*
X178626Y49155D01*
X178344Y49007D01*
X178078Y48889D01*
X178063D01*
X178048Y48874D01*
X178004Y48859D01*
X177959Y48844D01*
X177811Y48800D01*
X177619Y48756D01*
X177397Y48711D01*
X177130Y48667D01*
X176849Y48637D01*
X176553Y48622D01*
X176419D01*
X176331Y48637D01*
X176212D01*
X176079Y48652D01*
X175783Y48711D01*
X175442Y48785D01*
X175102Y48904D01*
X174761Y49067D01*
X174613Y49155D01*
X174465Y49274D01*
X174450Y49289D01*
X174435Y49303D01*
X174346Y49392D01*
X174243Y49540D01*
X174109Y49733D01*
X173976Y49985D01*
X173858Y50266D01*
X173769Y50592D01*
X173754Y50770D01*
X173739Y50962D01*
Y50992D01*
Y51066D01*
X173754Y51184D01*
X173769Y51332D01*
X173798Y51495D01*
X173858Y51688D01*
X173917Y51880D01*
X174006Y52073D01*
X174021Y52102D01*
X174050Y52161D01*
X174124Y52250D01*
X174198Y52369D01*
X174302Y52487D01*
X174435Y52621D01*
X174568Y52754D01*
X174731Y52872D01*
X174746Y52887D01*
X174805Y52917D01*
X174909Y52976D01*
X175028Y53050D01*
X175175Y53124D01*
X175338Y53198D01*
X175531Y53272D01*
X175738Y53331D01*
X175753D01*
X175812Y53346D01*
X175916Y53376D01*
X176049Y53390D01*
X176227Y53435D01*
X176434Y53465D01*
X176686Y53494D01*
X176982Y53539D01*
X176997D01*
X177056Y53553D01*
X177145D01*
X177264Y53583D01*
X177397Y53598D01*
X177560Y53613D01*
X177737Y53642D01*
X177930Y53672D01*
X178330Y53746D01*
X178744Y53835D01*
X179129Y53924D01*
X179307Y53983D01*
X179470Y54027D01*
Y54042D01*
Y54072D01*
Y54116D01*
X179485Y54175D01*
Y54294D01*
Y54353D01*
Y54383D01*
Y54398D01*
Y54427D01*
Y54472D01*
Y54516D01*
X179470Y54679D01*
X179440Y54857D01*
X179381Y55064D01*
X179322Y55256D01*
X179218Y55449D01*
X179085Y55597D01*
X179055Y55612D01*
X178981Y55671D01*
X178863Y55745D01*
X178685Y55834D01*
X178448Y55923D01*
X178182Y55997D01*
X177856Y56056D01*
X177486Y56071D01*
X177323D01*
X177145Y56056D01*
X176938Y56026D01*
X176686Y55982D01*
X176449Y55923D01*
X176212Y55834D01*
X176020Y55715D01*
X176005Y55701D01*
X175946Y55656D01*
X175857Y55567D01*
X175768Y55434D01*
X175649Y55271D01*
X175546Y55064D01*
X175427Y54797D01*
X175338Y54501D01*
X173976Y54694D01*
Y54708D01*
X173991Y54738D01*
Y54783D01*
X174006Y54842D01*
X174050Y55005D01*
X174124Y55197D01*
X174198Y55419D01*
X174302Y55656D01*
X174435Y55893D01*
X174583Y56100D01*
X174598Y56130D01*
X174657Y56189D01*
X174761Y56278D01*
X174894Y56411D01*
X175072Y56545D01*
X175279Y56678D01*
X175531Y56811D01*
X175812Y56930D01*
X175827D01*
X175857Y56944D01*
X175901Y56959D01*
X175960Y56974D01*
X176034Y57004D01*
X176123Y57019D01*
X176360Y57078D01*
X176627Y57137D01*
X176952Y57181D01*
X177308Y57211D01*
X177693Y57226D01*
X177959D01*
X178063Y57211D01*
D02*
G37*
G36*
X172036Y48800D02*
X170644D01*
Y60188D01*
X172036D01*
Y48800D01*
D02*
G37*
G36*
X132661Y58840D02*
X126486D01*
Y55316D01*
X131832D01*
Y53968D01*
X126486D01*
Y48800D01*
X124976D01*
Y60188D01*
X132661D01*
Y58840D01*
D02*
G37*
G36*
X138051Y57211D02*
X138200Y57196D01*
X138362Y57167D01*
X138555Y57137D01*
X138762Y57093D01*
X138969Y57033D01*
X139192Y56944D01*
X139429Y56856D01*
X139665Y56752D01*
X139902Y56619D01*
X140125Y56471D01*
X140347Y56293D01*
X140554Y56100D01*
X140569Y56086D01*
X140598Y56056D01*
X140658Y55982D01*
X140717Y55893D01*
X140806Y55789D01*
X140895Y55641D01*
X140998Y55479D01*
X141102Y55301D01*
X141191Y55093D01*
X141294Y54871D01*
X141383Y54620D01*
X141472Y54338D01*
X141531Y54042D01*
X141590Y53731D01*
X141620Y53390D01*
X141635Y53035D01*
Y53020D01*
Y52961D01*
Y52887D01*
Y52769D01*
X141620Y52635D01*
X141605Y52487D01*
X141590Y52309D01*
X141576Y52132D01*
X141517Y51732D01*
X141428Y51317D01*
X141309Y50903D01*
X141235Y50710D01*
X141146Y50533D01*
Y50518D01*
X141131Y50488D01*
X141102Y50444D01*
X141058Y50384D01*
X140954Y50222D01*
X140791Y50014D01*
X140598Y49792D01*
X140361Y49555D01*
X140080Y49333D01*
X139754Y49126D01*
X139740D01*
X139710Y49111D01*
X139665Y49081D01*
X139591Y49052D01*
X139517Y49007D01*
X139414Y48963D01*
X139162Y48874D01*
X138881Y48785D01*
X138540Y48696D01*
X138170Y48637D01*
X137770Y48622D01*
X137696D01*
X137607Y48637D01*
X137489D01*
X137341Y48652D01*
X137178Y48682D01*
X136985Y48711D01*
X136778Y48756D01*
X136556Y48815D01*
X136334Y48889D01*
X136111Y48978D01*
X135875Y49081D01*
X135638Y49215D01*
X135415Y49363D01*
X135193Y49526D01*
X134986Y49718D01*
X134971Y49733D01*
X134942Y49777D01*
X134882Y49837D01*
X134823Y49925D01*
X134734Y50044D01*
X134646Y50177D01*
X134557Y50340D01*
X134453Y50533D01*
X134349Y50755D01*
X134261Y50992D01*
X134172Y51243D01*
X134083Y51540D01*
X134024Y51851D01*
X133964Y52176D01*
X133935Y52532D01*
X133920Y52917D01*
Y52946D01*
Y53020D01*
X133935Y53139D01*
Y53287D01*
X133964Y53479D01*
X133994Y53702D01*
X134024Y53938D01*
X134083Y54190D01*
X134142Y54472D01*
X134231Y54753D01*
X134334Y55034D01*
X134453Y55316D01*
X134601Y55582D01*
X134764Y55849D01*
X134957Y56086D01*
X135179Y56308D01*
X135193Y56323D01*
X135223Y56352D01*
X135282Y56397D01*
X135371Y56456D01*
X135475Y56515D01*
X135593Y56604D01*
X135741Y56678D01*
X135904Y56767D01*
X136082Y56856D01*
X136274Y56930D01*
X136496Y57019D01*
X136719Y57078D01*
X136970Y57137D01*
X137222Y57181D01*
X137489Y57211D01*
X137770Y57226D01*
X137933D01*
X138051Y57211D01*
D02*
G37*
G36*
X131961Y79559D02*
X129573D01*
Y82303D01*
X131961D01*
Y79559D01*
D02*
G37*
G36*
X99271Y82607D02*
X99474D01*
X99728Y82582D01*
X100007Y82557D01*
X100592Y82455D01*
X101227Y82328D01*
X101887Y82150D01*
X102522Y81922D01*
X102548D01*
X102598Y81896D01*
X102675Y81845D01*
X102802Y81795D01*
X103106Y81617D01*
X103462Y81388D01*
X103894Y81109D01*
X104300Y80753D01*
X104732Y80321D01*
X105087Y79839D01*
Y79813D01*
X105138Y79788D01*
X105164Y79712D01*
X105240Y79610D01*
X105291Y79483D01*
X105367Y79331D01*
X105545Y78950D01*
X105723Y78493D01*
X105875Y77985D01*
X106002Y77400D01*
X106053Y76791D01*
X103563Y76613D01*
Y76638D01*
Y76689D01*
X103538Y76791D01*
X103513Y76918D01*
X103487Y77070D01*
X103436Y77248D01*
X103309Y77654D01*
X103132Y78086D01*
X102903Y78543D01*
X102598Y79001D01*
X102192Y79382D01*
X102141Y79432D01*
X102065Y79458D01*
X101989Y79534D01*
X101862Y79610D01*
X101709Y79686D01*
X101531Y79763D01*
X101354Y79864D01*
X101125Y79940D01*
X100871Y80017D01*
X100592Y80093D01*
X100287Y80169D01*
X99957Y80245D01*
X99601Y80271D01*
X99220Y80321D01*
X98433D01*
X98230Y80296D01*
X98026Y80271D01*
X97518Y80220D01*
X96959Y80118D01*
X96401Y79966D01*
X95867Y79737D01*
X95613Y79610D01*
X95410Y79458D01*
X95359Y79407D01*
X95232Y79305D01*
X95080Y79128D01*
X94877Y78874D01*
X94674Y78569D01*
X94521Y78213D01*
X94394Y77807D01*
X94343Y77375D01*
Y77324D01*
Y77197D01*
X94394Y77019D01*
X94445Y76765D01*
X94521Y76486D01*
X94648Y76207D01*
X94826Y75927D01*
X95080Y75648D01*
X95131Y75622D01*
X95182Y75572D01*
X95258Y75546D01*
X95359Y75470D01*
X95486Y75394D01*
X95664Y75318D01*
X95842Y75241D01*
X96096Y75140D01*
X96375Y75013D01*
X96680Y74911D01*
X97036Y74784D01*
X97442Y74657D01*
X97899Y74530D01*
X98407Y74403D01*
X98966Y74276D01*
X98991D01*
X99093Y74251D01*
X99271Y74200D01*
X99474Y74149D01*
X99728Y74098D01*
X100033Y74022D01*
X100338Y73946D01*
X100693Y73844D01*
X101404Y73667D01*
X102116Y73463D01*
X102446Y73336D01*
X102776Y73235D01*
X103055Y73133D01*
X103284Y73032D01*
X103309D01*
X103360Y73006D01*
X103436Y72955D01*
X103563Y72879D01*
X103868Y72727D01*
X104249Y72498D01*
X104656Y72193D01*
X105062Y71863D01*
X105469Y71457D01*
X105799Y71025D01*
Y71000D01*
X105824Y70974D01*
X105875Y70898D01*
X105926Y70822D01*
X106053Y70568D01*
X106230Y70238D01*
X106383Y69831D01*
X106510Y69349D01*
X106611Y68841D01*
X106637Y68256D01*
Y68231D01*
Y68180D01*
Y68104D01*
X106611Y68002D01*
Y67850D01*
X106586Y67698D01*
X106535Y67317D01*
X106408Y66859D01*
X106256Y66377D01*
X106027Y65843D01*
X105723Y65335D01*
Y65310D01*
X105672Y65285D01*
X105621Y65208D01*
X105570Y65107D01*
X105342Y64853D01*
X105062Y64548D01*
X104706Y64218D01*
X104275Y63862D01*
X103741Y63507D01*
X103157Y63202D01*
X103132D01*
X103081Y63176D01*
X102979Y63126D01*
X102878Y63075D01*
X102700Y63024D01*
X102522Y62973D01*
X102319Y62897D01*
X102065Y62821D01*
X101531Y62694D01*
X100897Y62567D01*
X100185Y62465D01*
X99423Y62440D01*
X99169D01*
X98991Y62465D01*
X98763D01*
X98483Y62491D01*
X98204Y62516D01*
X97874Y62541D01*
X97188Y62618D01*
X96426Y62770D01*
X95689Y62948D01*
X94978Y63202D01*
X94953D01*
X94902Y63227D01*
X94801Y63278D01*
X94674Y63354D01*
X94546Y63430D01*
X94369Y63532D01*
X93962Y63786D01*
X93505Y64116D01*
X93048Y64523D01*
X92591Y65005D01*
X92184Y65539D01*
Y65564D01*
X92134Y65615D01*
X92083Y65691D01*
X92032Y65818D01*
X91956Y65970D01*
X91854Y66123D01*
X91778Y66326D01*
X91676Y66555D01*
X91473Y67088D01*
X91295Y67672D01*
X91168Y68358D01*
X91117Y69069D01*
X93556Y69272D01*
Y69247D01*
Y69196D01*
X93581Y69120D01*
Y69018D01*
X93632Y68764D01*
X93708Y68409D01*
X93810Y68028D01*
X93962Y67621D01*
X94140Y67215D01*
X94343Y66834D01*
X94369Y66783D01*
X94470Y66682D01*
X94623Y66504D01*
X94826Y66301D01*
X95105Y66047D01*
X95435Y65793D01*
X95842Y65539D01*
X96299Y65310D01*
X96325D01*
X96350Y65285D01*
X96426Y65259D01*
X96528Y65234D01*
X96655Y65183D01*
X96807Y65132D01*
X97188Y65031D01*
X97620Y64929D01*
X98128Y64827D01*
X98687Y64777D01*
X99296Y64751D01*
X99550D01*
X99830Y64777D01*
X100185Y64802D01*
X100566Y64853D01*
X101024Y64929D01*
X101455Y65031D01*
X101887Y65183D01*
X101912D01*
X101938Y65208D01*
X102065Y65259D01*
X102268Y65361D01*
X102522Y65488D01*
X102802Y65666D01*
X103081Y65869D01*
X103360Y66097D01*
X103589Y66377D01*
X103614Y66402D01*
X103665Y66504D01*
X103767Y66682D01*
X103868Y66885D01*
X103970Y67139D01*
X104072Y67418D01*
X104122Y67723D01*
X104148Y68053D01*
Y68104D01*
Y68206D01*
X104122Y68383D01*
X104072Y68587D01*
X104021Y68841D01*
X103919Y69120D01*
X103767Y69399D01*
X103589Y69653D01*
X103563Y69679D01*
X103487Y69780D01*
X103360Y69907D01*
X103182Y70060D01*
X102928Y70238D01*
X102624Y70415D01*
X102268Y70619D01*
X101836Y70796D01*
X101785Y70822D01*
X101684Y70847D01*
X101582Y70898D01*
X101455Y70923D01*
X101303Y70974D01*
X101100Y71025D01*
X100897Y71101D01*
X100642Y71152D01*
X100363Y71228D01*
X100033Y71330D01*
X99677Y71406D01*
X99271Y71508D01*
X98839Y71609D01*
X98357Y71736D01*
X98331D01*
X98230Y71762D01*
X98103Y71812D01*
X97925Y71838D01*
X97696Y71914D01*
X97467Y71965D01*
X96883Y72143D01*
X96274Y72320D01*
X95639Y72549D01*
X95080Y72752D01*
X94826Y72879D01*
X94597Y72981D01*
X94572D01*
X94546Y73006D01*
X94470Y73057D01*
X94369Y73108D01*
X94115Y73260D01*
X93810Y73489D01*
X93480Y73743D01*
X93124Y74048D01*
X92794Y74403D01*
X92514Y74784D01*
Y74810D01*
X92489Y74835D01*
X92413Y74987D01*
X92311Y75191D01*
X92184Y75495D01*
X92057Y75851D01*
X91956Y76283D01*
X91880Y76740D01*
X91854Y77223D01*
Y77248D01*
Y77299D01*
Y77375D01*
X91880Y77477D01*
X91905Y77756D01*
X91956Y78137D01*
X92057Y78569D01*
X92210Y79026D01*
X92413Y79509D01*
X92692Y79991D01*
Y80017D01*
X92743Y80042D01*
X92845Y80194D01*
X93048Y80448D01*
X93302Y80728D01*
X93658Y81033D01*
X94064Y81363D01*
X94572Y81668D01*
X95131Y81947D01*
X95156D01*
X95207Y81972D01*
X95283Y82023D01*
X95410Y82049D01*
X95562Y82099D01*
X95740Y82176D01*
X95943Y82226D01*
X96172Y82303D01*
X96706Y82404D01*
X97315Y82531D01*
X98001Y82607D01*
X98712Y82633D01*
X99068D01*
X99271Y82607D01*
D02*
G37*
G36*
X197315Y77197D02*
X197645Y77172D01*
X198001Y77096D01*
X198407Y77019D01*
X198813Y76892D01*
X199220Y76740D01*
X199271Y76715D01*
X199398Y76664D01*
X199576Y76562D01*
X199830Y76410D01*
X200084Y76257D01*
X200338Y76054D01*
X200592Y75800D01*
X200820Y75546D01*
X200846Y75521D01*
X200896Y75419D01*
X200998Y75267D01*
X201125Y75038D01*
X201227Y74784D01*
X201353Y74479D01*
X201455Y74149D01*
X201557Y73768D01*
Y73743D01*
X201582Y73641D01*
X201607Y73463D01*
X201633Y73235D01*
X201658Y72905D01*
X201684Y72524D01*
X201709Y72041D01*
Y71457D01*
Y62770D01*
X199321D01*
Y71355D01*
Y71381D01*
Y71431D01*
Y71482D01*
Y71584D01*
X199296Y71863D01*
Y72168D01*
X199245Y72524D01*
X199195Y72879D01*
X199118Y73209D01*
X199017Y73514D01*
Y73540D01*
X198966Y73641D01*
X198890Y73768D01*
X198788Y73946D01*
X198661Y74124D01*
X198483Y74327D01*
X198280Y74505D01*
X198026Y74683D01*
X198001Y74708D01*
X197899Y74759D01*
X197747Y74835D01*
X197544Y74911D01*
X197315Y74987D01*
X197036Y75064D01*
X196705Y75114D01*
X196375Y75140D01*
X196223D01*
X196121Y75114D01*
X195816Y75089D01*
X195461Y75013D01*
X195054Y74911D01*
X194597Y74733D01*
X194140Y74479D01*
X193708Y74149D01*
X193657Y74098D01*
X193606Y74048D01*
X193530Y73946D01*
X193454Y73844D01*
X193353Y73692D01*
X193276Y73540D01*
X193175Y73336D01*
X193073Y73082D01*
X192971Y72828D01*
X192870Y72524D01*
X192794Y72193D01*
X192717Y71812D01*
X192667Y71406D01*
X192641Y70949D01*
X192616Y70466D01*
Y62770D01*
X190228D01*
Y76918D01*
X192387D01*
Y74886D01*
X192413Y74911D01*
X192463Y74987D01*
X192540Y75114D01*
X192667Y75241D01*
X192845Y75419D01*
X193022Y75622D01*
X193251Y75826D01*
X193530Y76054D01*
X193835Y76283D01*
X194165Y76486D01*
X194521Y76689D01*
X194927Y76867D01*
X195359Y77019D01*
X195816Y77121D01*
X196324Y77197D01*
X196858Y77223D01*
X197086D01*
X197315Y77197D01*
D02*
G37*
G36*
X142730D02*
X143061Y77172D01*
X143416Y77096D01*
X143822Y77019D01*
X144229Y76892D01*
X144635Y76740D01*
X144686Y76715D01*
X144813Y76664D01*
X144991Y76562D01*
X145245Y76410D01*
X145499Y76257D01*
X145753Y76054D01*
X146007Y75800D01*
X146236Y75546D01*
X146261Y75521D01*
X146312Y75419D01*
X146413Y75267D01*
X146540Y75038D01*
X146642Y74784D01*
X146769Y74479D01*
X146870Y74149D01*
X146972Y73768D01*
Y73743D01*
X146997Y73641D01*
X147023Y73463D01*
X147048Y73235D01*
X147074Y72905D01*
X147099Y72524D01*
X147125Y72041D01*
Y71457D01*
Y62770D01*
X144737D01*
Y71355D01*
Y71381D01*
Y71431D01*
Y71482D01*
Y71584D01*
X144712Y71863D01*
Y72168D01*
X144661Y72524D01*
X144610Y72879D01*
X144534Y73209D01*
X144432Y73514D01*
Y73540D01*
X144381Y73641D01*
X144305Y73768D01*
X144204Y73946D01*
X144076Y74124D01*
X143899Y74327D01*
X143695Y74505D01*
X143441Y74683D01*
X143416Y74708D01*
X143315Y74759D01*
X143162Y74835D01*
X142959Y74911D01*
X142730Y74987D01*
X142451Y75064D01*
X142121Y75114D01*
X141791Y75140D01*
X141638D01*
X141537Y75114D01*
X141232Y75089D01*
X140876Y75013D01*
X140470Y74911D01*
X140013Y74733D01*
X139555Y74479D01*
X139123Y74149D01*
X139073Y74098D01*
X139022Y74048D01*
X138946Y73946D01*
X138869Y73844D01*
X138768Y73692D01*
X138692Y73540D01*
X138590Y73336D01*
X138489Y73082D01*
X138387Y72828D01*
X138285Y72524D01*
X138209Y72193D01*
X138133Y71812D01*
X138082Y71406D01*
X138057Y70949D01*
X138031Y70466D01*
Y62770D01*
X135644D01*
Y76918D01*
X137803D01*
Y74886D01*
X137828Y74911D01*
X137879Y74987D01*
X137955Y75114D01*
X138082Y75241D01*
X138260Y75419D01*
X138438Y75622D01*
X138666Y75826D01*
X138946Y76054D01*
X139250Y76283D01*
X139581Y76486D01*
X139936Y76689D01*
X140343Y76867D01*
X140774Y77019D01*
X141232Y77121D01*
X141740Y77197D01*
X142273Y77223D01*
X142502D01*
X142730Y77197D01*
D02*
G37*
G36*
X186774Y77172D02*
X187079Y77121D01*
X187460Y77019D01*
X187892Y76892D01*
X188323Y76689D01*
X188806Y76435D01*
X187968Y74225D01*
X187917Y74251D01*
X187815Y74302D01*
X187638Y74378D01*
X187409Y74479D01*
X187155Y74581D01*
X186850Y74657D01*
X186520Y74708D01*
X186190Y74733D01*
X186063D01*
X185910Y74708D01*
X185707Y74683D01*
X185504Y74606D01*
X185250Y74530D01*
X185021Y74403D01*
X184767Y74251D01*
X184742Y74225D01*
X184666Y74175D01*
X184564Y74048D01*
X184437Y73895D01*
X184285Y73717D01*
X184132Y73489D01*
X184005Y73235D01*
X183878Y72930D01*
Y72905D01*
X183853Y72879D01*
Y72803D01*
X183827Y72701D01*
X183751Y72447D01*
X183701Y72117D01*
X183624Y71685D01*
X183548Y71228D01*
X183523Y70695D01*
X183497Y70136D01*
Y62770D01*
X181110D01*
Y76918D01*
X183269D01*
Y74759D01*
X183294Y74810D01*
X183345Y74886D01*
X183396Y74987D01*
X183573Y75241D01*
X183751Y75546D01*
X183980Y75902D01*
X184234Y76232D01*
X184513Y76511D01*
X184767Y76740D01*
X184793Y76765D01*
X184894Y76816D01*
X185047Y76892D01*
X185224Y76994D01*
X185453Y77070D01*
X185732Y77146D01*
X186012Y77197D01*
X186317Y77223D01*
X186520D01*
X186774Y77172D01*
D02*
G37*
G36*
X76512Y77197D02*
X76690D01*
X76894Y77172D01*
X77376Y77070D01*
X77884Y76943D01*
X78418Y76740D01*
X78951Y76435D01*
X79180Y76257D01*
X79408Y76054D01*
X79433Y76029D01*
X79459Y76003D01*
X79510Y75927D01*
X79586Y75826D01*
X79662Y75699D01*
X79764Y75546D01*
X79865Y75368D01*
X79992Y75165D01*
X80094Y74937D01*
X80196Y74657D01*
X80297Y74378D01*
X80373Y74048D01*
X80449Y73692D01*
X80500Y73311D01*
X80551Y72879D01*
Y72447D01*
Y62770D01*
X78163D01*
Y71660D01*
Y71685D01*
Y71711D01*
Y71787D01*
Y71889D01*
Y72143D01*
X78138Y72447D01*
X78113Y72778D01*
X78062Y73133D01*
X78011Y73438D01*
X77935Y73717D01*
Y73743D01*
X77884Y73819D01*
X77833Y73946D01*
X77732Y74073D01*
X77630Y74251D01*
X77478Y74403D01*
X77300Y74581D01*
X77071Y74733D01*
X77046Y74759D01*
X76970Y74810D01*
X76843Y74860D01*
X76665Y74937D01*
X76462Y75013D01*
X76208Y75089D01*
X75954Y75114D01*
X75649Y75140D01*
X75497D01*
X75395Y75114D01*
X75115Y75089D01*
X74760Y75013D01*
X74353Y74886D01*
X73947Y74708D01*
X73515Y74454D01*
X73134Y74124D01*
X73084Y74073D01*
X72982Y73946D01*
X72829Y73692D01*
X72652Y73362D01*
X72550Y73159D01*
X72449Y72930D01*
X72372Y72651D01*
X72296Y72371D01*
X72245Y72066D01*
X72194Y71736D01*
X72144Y71355D01*
Y70974D01*
Y62770D01*
X69756D01*
Y71939D01*
Y71965D01*
Y72016D01*
Y72092D01*
Y72193D01*
X69731Y72498D01*
X69680Y72828D01*
X69604Y73235D01*
X69502Y73616D01*
X69375Y73997D01*
X69172Y74327D01*
X69146Y74352D01*
X69070Y74454D01*
X68918Y74581D01*
X68715Y74733D01*
X68461Y74886D01*
X68130Y75013D01*
X67724Y75114D01*
X67267Y75140D01*
X67089D01*
X66911Y75114D01*
X66657Y75064D01*
X66353Y75013D01*
X66048Y74911D01*
X65718Y74784D01*
X65387Y74606D01*
X65362Y74581D01*
X65235Y74505D01*
X65083Y74378D01*
X64905Y74200D01*
X64701Y73997D01*
X64498Y73717D01*
X64295Y73387D01*
X64117Y73032D01*
X64092Y72981D01*
X64067Y72854D01*
X63990Y72600D01*
X63939Y72295D01*
X63863Y71863D01*
X63787Y71355D01*
X63762Y70771D01*
X63736Y70085D01*
Y62770D01*
X61349D01*
Y76918D01*
X63482D01*
Y74911D01*
X63508Y74962D01*
X63609Y75089D01*
X63762Y75267D01*
X63965Y75521D01*
X64219Y75775D01*
X64524Y76054D01*
X64879Y76334D01*
X65260Y76588D01*
X65286D01*
X65311Y76613D01*
X65464Y76689D01*
X65692Y76791D01*
X65997Y76918D01*
X66378Y77019D01*
X66784Y77121D01*
X67267Y77197D01*
X67775Y77223D01*
X68029D01*
X68334Y77197D01*
X68689Y77146D01*
X69096Y77070D01*
X69528Y76943D01*
X69934Y76791D01*
X70340Y76562D01*
X70391Y76537D01*
X70518Y76435D01*
X70696Y76283D01*
X70899Y76080D01*
X71153Y75826D01*
X71382Y75521D01*
X71610Y75140D01*
X71788Y74733D01*
X71814Y74759D01*
X71864Y74835D01*
X71966Y74962D01*
X72093Y75114D01*
X72271Y75318D01*
X72474Y75521D01*
X72702Y75749D01*
X72957Y75978D01*
X73261Y76207D01*
X73591Y76435D01*
X73947Y76638D01*
X74328Y76842D01*
X74760Y76994D01*
X75192Y77121D01*
X75674Y77197D01*
X76157Y77223D01*
X76360D01*
X76512Y77197D01*
D02*
G37*
G36*
X123071Y62770D02*
X120607D01*
X118346Y71228D01*
X117788Y73641D01*
X114917Y62770D01*
X112403D01*
X108110Y76918D01*
X110599D01*
X112860Y68739D01*
X113673Y65691D01*
Y65716D01*
X113698Y65767D01*
X113723Y65894D01*
X113749Y66021D01*
X113774Y66148D01*
X113825Y66301D01*
X113876Y66504D01*
X113927Y66732D01*
X114003Y67012D01*
X114079Y67342D01*
X114181Y67723D01*
X114282Y68129D01*
X114409Y68612D01*
X116644Y76918D01*
X119108D01*
X121242Y68688D01*
X121928Y65996D01*
X122740Y68739D01*
X125179Y76918D01*
X127516D01*
X123071Y62770D01*
D02*
G37*
G36*
X177376D02*
X175242D01*
Y64853D01*
X175217Y64827D01*
X175166Y64751D01*
X175065Y64624D01*
X174937Y64472D01*
X174760Y64294D01*
X174557Y64091D01*
X174328Y63888D01*
X174049Y63659D01*
X173744Y63430D01*
X173414Y63227D01*
X173032Y63024D01*
X172652Y62846D01*
X172220Y62694D01*
X171763Y62567D01*
X171255Y62491D01*
X170746Y62465D01*
X170543D01*
X170289Y62491D01*
X169984Y62516D01*
X169629Y62567D01*
X169248Y62668D01*
X168816Y62770D01*
X168410Y62922D01*
X168359Y62948D01*
X168232Y62999D01*
X168029Y63126D01*
X167800Y63253D01*
X167546Y63430D01*
X167267Y63634D01*
X167013Y63862D01*
X166784Y64116D01*
X166759Y64142D01*
X166708Y64243D01*
X166606Y64396D01*
X166505Y64624D01*
X166378Y64878D01*
X166251Y65183D01*
X166149Y65539D01*
X166047Y65920D01*
Y65945D01*
X166022Y66047D01*
X165997Y66224D01*
Y66478D01*
X165971Y66783D01*
X165946Y67164D01*
X165921Y67621D01*
Y68155D01*
Y76918D01*
X168308D01*
Y69069D01*
Y69044D01*
Y68993D01*
Y68891D01*
Y68764D01*
Y68612D01*
Y68434D01*
X168333Y68053D01*
Y67621D01*
X168359Y67215D01*
X168384Y66834D01*
X168410Y66656D01*
X168435Y66529D01*
Y66478D01*
X168486Y66377D01*
X168537Y66199D01*
X168638Y65996D01*
X168765Y65767D01*
X168943Y65513D01*
X169146Y65285D01*
X169400Y65056D01*
X169426Y65031D01*
X169527Y64980D01*
X169680Y64878D01*
X169908Y64802D01*
X170162Y64700D01*
X170467Y64599D01*
X170823Y64548D01*
X171204Y64523D01*
X171381D01*
X171610Y64548D01*
X171864Y64599D01*
X172169Y64650D01*
X172525Y64751D01*
X172880Y64878D01*
X173236Y65056D01*
X173286Y65081D01*
X173388Y65158D01*
X173566Y65285D01*
X173769Y65462D01*
X173998Y65666D01*
X174201Y65920D01*
X174404Y66224D01*
X174582Y66555D01*
X174607Y66605D01*
X174658Y66732D01*
X174709Y66961D01*
X174785Y67266D01*
X174861Y67647D01*
X174937Y68129D01*
X174963Y68688D01*
X174988Y69323D01*
Y76918D01*
X177376D01*
Y62770D01*
D02*
G37*
G36*
X131961D02*
X129573D01*
Y76918D01*
X131961D01*
Y62770D01*
D02*
G37*
G36*
X52814Y77197D02*
X53221Y77172D01*
X53678Y77121D01*
X54186Y77045D01*
X54643Y76943D01*
X55100Y76791D01*
X55126D01*
X55151Y76765D01*
X55278Y76715D01*
X55481Y76613D01*
X55735Y76486D01*
X56015Y76334D01*
X56294Y76156D01*
X56548Y75927D01*
X56777Y75699D01*
X56802Y75673D01*
X56853Y75597D01*
X56954Y75445D01*
X57081Y75267D01*
X57208Y75038D01*
X57336Y74759D01*
X57437Y74454D01*
X57539Y74098D01*
Y74073D01*
X57564Y73971D01*
X57590Y73819D01*
X57615Y73590D01*
Y73286D01*
X57640Y72905D01*
X57666Y72447D01*
Y71889D01*
Y68688D01*
Y68663D01*
Y68536D01*
Y68383D01*
Y68155D01*
Y67901D01*
Y67596D01*
Y67266D01*
X57691Y66910D01*
Y66199D01*
X57716Y65513D01*
X57742Y65183D01*
Y64904D01*
X57767Y64675D01*
X57793Y64472D01*
Y64421D01*
X57818Y64319D01*
X57869Y64142D01*
X57920Y63938D01*
X58021Y63659D01*
X58123Y63380D01*
X58250Y63075D01*
X58402Y62770D01*
X55888D01*
X55862Y62795D01*
X55837Y62897D01*
X55761Y63049D01*
X55710Y63278D01*
X55608Y63532D01*
X55557Y63837D01*
X55481Y64167D01*
X55430Y64548D01*
X55405D01*
X55380Y64497D01*
X55304Y64446D01*
X55202Y64370D01*
X54948Y64167D01*
X54592Y63913D01*
X54211Y63659D01*
X53780Y63380D01*
X53297Y63126D01*
X52840Y62922D01*
X52814D01*
X52789Y62897D01*
X52713Y62872D01*
X52636Y62846D01*
X52382Y62770D01*
X52052Y62694D01*
X51671Y62618D01*
X51214Y62541D01*
X50732Y62491D01*
X50223Y62465D01*
X49995D01*
X49843Y62491D01*
X49639D01*
X49411Y62516D01*
X48903Y62618D01*
X48319Y62745D01*
X47734Y62948D01*
X47150Y63227D01*
X46896Y63380D01*
X46642Y63583D01*
X46617Y63608D01*
X46591Y63634D01*
X46439Y63786D01*
X46261Y64040D01*
X46033Y64370D01*
X45804Y64802D01*
X45601Y65285D01*
X45448Y65843D01*
X45423Y66148D01*
X45398Y66478D01*
Y66529D01*
Y66656D01*
X45423Y66859D01*
X45448Y67113D01*
X45499Y67393D01*
X45601Y67723D01*
X45702Y68053D01*
X45855Y68383D01*
X45880Y68434D01*
X45931Y68536D01*
X46058Y68688D01*
X46185Y68891D01*
X46363Y69095D01*
X46591Y69323D01*
X46820Y69552D01*
X47099Y69755D01*
X47125Y69780D01*
X47226Y69831D01*
X47404Y69933D01*
X47607Y70060D01*
X47861Y70187D01*
X48141Y70314D01*
X48471Y70441D01*
X48826Y70542D01*
X48852D01*
X48953Y70568D01*
X49131Y70619D01*
X49360Y70644D01*
X49665Y70720D01*
X50020Y70771D01*
X50452Y70822D01*
X50960Y70898D01*
X50985D01*
X51087Y70923D01*
X51240D01*
X51443Y70974D01*
X51671Y71000D01*
X51951Y71025D01*
X52256Y71076D01*
X52586Y71127D01*
X53271Y71254D01*
X53983Y71406D01*
X54643Y71558D01*
X54948Y71660D01*
X55227Y71736D01*
Y71762D01*
Y71812D01*
Y71889D01*
X55253Y71990D01*
Y72193D01*
Y72295D01*
Y72346D01*
Y72371D01*
Y72422D01*
Y72498D01*
Y72574D01*
X55227Y72854D01*
X55177Y73159D01*
X55075Y73514D01*
X54973Y73844D01*
X54795Y74175D01*
X54567Y74429D01*
X54516Y74454D01*
X54389Y74556D01*
X54186Y74683D01*
X53881Y74835D01*
X53475Y74987D01*
X53018Y75114D01*
X52459Y75216D01*
X51824Y75241D01*
X51544D01*
X51240Y75216D01*
X50884Y75165D01*
X50452Y75089D01*
X50046Y74987D01*
X49639Y74835D01*
X49309Y74632D01*
X49284Y74606D01*
X49182Y74530D01*
X49030Y74378D01*
X48877Y74149D01*
X48674Y73870D01*
X48496Y73514D01*
X48293Y73057D01*
X48141Y72549D01*
X45804Y72879D01*
Y72905D01*
X45829Y72955D01*
Y73032D01*
X45855Y73133D01*
X45931Y73413D01*
X46058Y73743D01*
X46185Y74124D01*
X46363Y74530D01*
X46591Y74937D01*
X46845Y75292D01*
X46871Y75343D01*
X46972Y75445D01*
X47150Y75597D01*
X47379Y75826D01*
X47684Y76054D01*
X48039Y76283D01*
X48471Y76511D01*
X48953Y76715D01*
X48979D01*
X49030Y76740D01*
X49106Y76765D01*
X49208Y76791D01*
X49335Y76842D01*
X49487Y76867D01*
X49893Y76969D01*
X50350Y77070D01*
X50909Y77146D01*
X51519Y77197D01*
X52179Y77223D01*
X52636D01*
X52814Y77197D01*
D02*
G37*
G36*
X28659Y79991D02*
X22233D01*
Y62770D01*
X19642D01*
Y79991D01*
X13216D01*
Y82303D01*
X28659D01*
Y79991D01*
D02*
G37*
G36*
X211640Y77197D02*
X211869Y77172D01*
X212148Y77121D01*
X212479Y77070D01*
X212809Y76994D01*
X213165Y76892D01*
X213545Y76740D01*
X213927Y76588D01*
X214307Y76410D01*
X214714Y76181D01*
X215095Y75927D01*
X215450Y75622D01*
X215806Y75292D01*
X215832Y75267D01*
X215882Y75191D01*
X215984Y75089D01*
X216085Y74937D01*
X216213Y74733D01*
X216365Y74505D01*
X216543Y74225D01*
X216721Y73895D01*
X216873Y73514D01*
X217051Y73108D01*
X217203Y72676D01*
X217330Y72193D01*
X217432Y71660D01*
X217533Y71101D01*
X217584Y70492D01*
X217610Y69857D01*
Y69806D01*
Y69704D01*
Y69501D01*
X217584Y69222D01*
X207043D01*
Y69196D01*
Y69120D01*
X207069Y68993D01*
X207094Y68841D01*
X207119Y68637D01*
X207145Y68409D01*
X207246Y67901D01*
X207424Y67317D01*
X207653Y66732D01*
X207957Y66174D01*
X208135Y65920D01*
X208339Y65666D01*
X208364Y65640D01*
X208389Y65615D01*
X208465Y65564D01*
X208542Y65488D01*
X208821Y65285D01*
X209151Y65056D01*
X209583Y64827D01*
X210091Y64650D01*
X210675Y64497D01*
X210980Y64472D01*
X211310Y64446D01*
X211539D01*
X211768Y64472D01*
X212098Y64523D01*
X212428Y64624D01*
X212809Y64726D01*
X213190Y64904D01*
X213545Y65132D01*
X213596Y65158D01*
X213698Y65259D01*
X213876Y65437D01*
X214079Y65666D01*
X214307Y65970D01*
X214562Y66377D01*
X214816Y66834D01*
X215019Y67367D01*
X217508Y67037D01*
Y67012D01*
X217482Y66936D01*
X217457Y66834D01*
X217381Y66682D01*
X217330Y66504D01*
X217229Y66275D01*
X217025Y65793D01*
X216721Y65259D01*
X216339Y64700D01*
X215882Y64142D01*
X215349Y63659D01*
X215324D01*
X215273Y63608D01*
X215196Y63557D01*
X215070Y63481D01*
X214917Y63380D01*
X214714Y63278D01*
X214511Y63176D01*
X214257Y63075D01*
X213977Y62948D01*
X213673Y62846D01*
X213342Y62745D01*
X212987Y62643D01*
X212199Y62516D01*
X211768Y62491D01*
X211310Y62465D01*
X211183D01*
X211005Y62491D01*
X210802D01*
X210548Y62516D01*
X210243Y62567D01*
X209888Y62618D01*
X209532Y62694D01*
X209151Y62795D01*
X208745Y62922D01*
X208339Y63075D01*
X207932Y63278D01*
X207526Y63481D01*
X207119Y63735D01*
X206738Y64040D01*
X206383Y64370D01*
X206357Y64396D01*
X206306Y64472D01*
X206205Y64573D01*
X206103Y64726D01*
X205976Y64929D01*
X205824Y65158D01*
X205646Y65437D01*
X205494Y65742D01*
X205316Y66123D01*
X205138Y66504D01*
X204986Y66961D01*
X204859Y67418D01*
X204757Y67952D01*
X204655Y68485D01*
X204605Y69069D01*
X204579Y69704D01*
Y69755D01*
Y69857D01*
X204605Y70060D01*
Y70288D01*
X204630Y70593D01*
X204681Y70949D01*
X204732Y71330D01*
X204808Y71736D01*
X204909Y72168D01*
X205037Y72625D01*
X205163Y73082D01*
X205341Y73540D01*
X205570Y73997D01*
X205798Y74454D01*
X206078Y74860D01*
X206408Y75241D01*
X206434Y75267D01*
X206484Y75318D01*
X206586Y75419D01*
X206738Y75546D01*
X206916Y75699D01*
X207145Y75876D01*
X207399Y76054D01*
X207678Y76232D01*
X208008Y76410D01*
X208364Y76588D01*
X208770Y76765D01*
X209177Y76918D01*
X209634Y77045D01*
X210117Y77146D01*
X210625Y77197D01*
X211158Y77223D01*
X211437D01*
X211640Y77197D01*
D02*
G37*
G36*
X153144Y75292D02*
X153170Y75318D01*
X153221Y75368D01*
X153297Y75470D01*
X153424Y75597D01*
X153576Y75749D01*
X153754Y75902D01*
X153957Y76080D01*
X154186Y76257D01*
X154465Y76435D01*
X154745Y76613D01*
X155075Y76765D01*
X155405Y76918D01*
X155760Y77045D01*
X156167Y77146D01*
X156573Y77197D01*
X157005Y77223D01*
X157234D01*
X157488Y77197D01*
X157818Y77146D01*
X158199Y77096D01*
X158605Y76994D01*
X159062Y76867D01*
X159494Y76689D01*
X159520D01*
X159545Y76664D01*
X159698Y76588D01*
X159901Y76461D01*
X160180Y76308D01*
X160485Y76080D01*
X160790Y75826D01*
X161094Y75521D01*
X161399Y75191D01*
X161425Y75140D01*
X161526Y75013D01*
X161653Y74835D01*
X161831Y74556D01*
X162034Y74225D01*
X162237Y73819D01*
X162415Y73387D01*
X162593Y72905D01*
Y72879D01*
X162619Y72854D01*
X162644Y72778D01*
X162669Y72676D01*
X162720Y72397D01*
X162822Y72041D01*
X162898Y71635D01*
X162949Y71127D01*
X162999Y70593D01*
X163025Y70034D01*
Y69984D01*
Y69882D01*
Y69679D01*
X162999Y69425D01*
X162974Y69120D01*
X162923Y68790D01*
X162873Y68383D01*
X162796Y67977D01*
X162695Y67520D01*
X162593Y67063D01*
X162441Y66605D01*
X162263Y66123D01*
X162060Y65666D01*
X161806Y65234D01*
X161552Y64802D01*
X161222Y64421D01*
X161196Y64396D01*
X161145Y64345D01*
X161044Y64243D01*
X160891Y64116D01*
X160739Y63964D01*
X160510Y63811D01*
X160282Y63634D01*
X160002Y63456D01*
X159698Y63253D01*
X159367Y63075D01*
X159012Y62922D01*
X158631Y62770D01*
X158224Y62643D01*
X157793Y62541D01*
X157335Y62491D01*
X156878Y62465D01*
X156777D01*
X156650Y62491D01*
X156472D01*
X156269Y62541D01*
X156014Y62567D01*
X155735Y62643D01*
X155456Y62719D01*
X155151Y62846D01*
X154821Y62973D01*
X154516Y63151D01*
X154186Y63354D01*
X153855Y63583D01*
X153551Y63862D01*
X153246Y64192D01*
X152966Y64548D01*
Y62770D01*
X150757D01*
Y82303D01*
X153144D01*
Y75292D01*
D02*
G37*
G36*
X37295Y77197D02*
X37524Y77172D01*
X37803Y77121D01*
X38133Y77070D01*
X38463Y76994D01*
X38819Y76892D01*
X39200Y76740D01*
X39581Y76588D01*
X39962Y76410D01*
X40368Y76181D01*
X40749Y75927D01*
X41105Y75622D01*
X41460Y75292D01*
X41486Y75267D01*
X41537Y75191D01*
X41638Y75089D01*
X41740Y74937D01*
X41867Y74733D01*
X42019Y74505D01*
X42197Y74225D01*
X42375Y73895D01*
X42527Y73514D01*
X42705Y73108D01*
X42857Y72676D01*
X42984Y72193D01*
X43086Y71660D01*
X43188Y71101D01*
X43239Y70492D01*
X43264Y69857D01*
Y69806D01*
Y69704D01*
Y69501D01*
X43239Y69222D01*
X32698D01*
Y69196D01*
Y69120D01*
X32723Y68993D01*
X32748Y68841D01*
X32774Y68637D01*
X32799Y68409D01*
X32901Y67901D01*
X33078Y67317D01*
X33307Y66732D01*
X33612Y66174D01*
X33790Y65920D01*
X33993Y65666D01*
X34018Y65640D01*
X34044Y65615D01*
X34120Y65564D01*
X34196Y65488D01*
X34476Y65285D01*
X34806Y65056D01*
X35238Y64827D01*
X35745Y64650D01*
X36330Y64497D01*
X36635Y64472D01*
X36965Y64446D01*
X37193D01*
X37422Y64472D01*
X37752Y64523D01*
X38082Y64624D01*
X38463Y64726D01*
X38844Y64904D01*
X39200Y65132D01*
X39251Y65158D01*
X39352Y65259D01*
X39530Y65437D01*
X39733Y65666D01*
X39962Y65970D01*
X40216Y66377D01*
X40470Y66834D01*
X40673Y67367D01*
X43162Y67037D01*
Y67012D01*
X43137Y66936D01*
X43112Y66834D01*
X43035Y66682D01*
X42984Y66504D01*
X42883Y66275D01*
X42680Y65793D01*
X42375Y65259D01*
X41994Y64700D01*
X41537Y64142D01*
X41003Y63659D01*
X40978D01*
X40927Y63608D01*
X40851Y63557D01*
X40724Y63481D01*
X40571Y63380D01*
X40368Y63278D01*
X40165Y63176D01*
X39911Y63075D01*
X39632Y62948D01*
X39327Y62846D01*
X38997Y62745D01*
X38641Y62643D01*
X37854Y62516D01*
X37422Y62491D01*
X36965Y62465D01*
X36838D01*
X36660Y62491D01*
X36457D01*
X36203Y62516D01*
X35898Y62567D01*
X35542Y62618D01*
X35187Y62694D01*
X34806Y62795D01*
X34399Y62922D01*
X33993Y63075D01*
X33586Y63278D01*
X33180Y63481D01*
X32774Y63735D01*
X32393Y64040D01*
X32037Y64370D01*
X32012Y64396D01*
X31961Y64472D01*
X31859Y64573D01*
X31758Y64726D01*
X31631Y64929D01*
X31478Y65158D01*
X31300Y65437D01*
X31148Y65742D01*
X30970Y66123D01*
X30793Y66504D01*
X30640Y66961D01*
X30513Y67418D01*
X30412Y67952D01*
X30310Y68485D01*
X30259Y69069D01*
X30234Y69704D01*
Y69755D01*
Y69857D01*
X30259Y70060D01*
Y70288D01*
X30285Y70593D01*
X30335Y70949D01*
X30386Y71330D01*
X30462Y71736D01*
X30564Y72168D01*
X30691Y72625D01*
X30818Y73082D01*
X30996Y73540D01*
X31224Y73997D01*
X31453Y74454D01*
X31732Y74860D01*
X32062Y75241D01*
X32088Y75267D01*
X32139Y75318D01*
X32240Y75419D01*
X32393Y75546D01*
X32571Y75699D01*
X32799Y75876D01*
X33053Y76054D01*
X33333Y76232D01*
X33663Y76410D01*
X34018Y76588D01*
X34425Y76765D01*
X34831Y76918D01*
X35288Y77045D01*
X35771Y77146D01*
X36279Y77197D01*
X36812Y77223D01*
X37092D01*
X37295Y77197D01*
D02*
G37*
G36*
X224934Y46440D02*
X224976Y46431D01*
X225035D01*
X225103Y46414D01*
X225255Y46389D01*
X225425Y46338D01*
X225611Y46262D01*
X225704Y46220D01*
X225788Y46161D01*
X225873Y46101D01*
X225958Y46025D01*
X225966Y46017D01*
X225974Y46008D01*
X226000Y45983D01*
X226025Y45949D01*
X226059Y45907D01*
X226093Y45856D01*
X226135Y45788D01*
X226177Y45721D01*
X226220Y45645D01*
X226262Y45552D01*
X226304Y45459D01*
X226338Y45349D01*
X226372Y45239D01*
X226406Y45112D01*
X226423Y44985D01*
X226440Y44841D01*
X225687Y44773D01*
Y44782D01*
Y44799D01*
X225678Y44824D01*
Y44858D01*
X225653Y44951D01*
X225628Y45061D01*
X225585Y45188D01*
X225535Y45306D01*
X225475Y45425D01*
X225391Y45526D01*
X225382Y45535D01*
X225348Y45560D01*
X225298Y45602D01*
X225230Y45645D01*
X225145Y45687D01*
X225052Y45729D01*
X224934Y45755D01*
X224816Y45763D01*
X224756D01*
X224680Y45746D01*
X224587Y45729D01*
X224477Y45695D01*
X224359Y45645D01*
X224223Y45577D01*
X224088Y45484D01*
X224071Y45467D01*
X224029Y45433D01*
X223961Y45366D01*
X223877Y45272D01*
X223775Y45163D01*
X223674Y45019D01*
X223564Y44850D01*
X223462Y44655D01*
Y44647D01*
X223454Y44630D01*
X223437Y44604D01*
X223420Y44562D01*
X223403Y44520D01*
X223378Y44461D01*
X223319Y44334D01*
X223259Y44181D01*
X223200Y44021D01*
X223149Y43851D01*
X223107Y43682D01*
X223124Y43691D01*
X223166Y43725D01*
X223225Y43775D01*
X223319Y43843D01*
X223412Y43911D01*
X223530Y43978D01*
X223648Y44046D01*
X223775Y44105D01*
X223792Y44114D01*
X223834Y44131D01*
X223902Y44148D01*
X223987Y44181D01*
X224088Y44207D01*
X224198Y44224D01*
X224317Y44241D01*
X224443Y44249D01*
X224511D01*
X224570Y44241D01*
X224629Y44232D01*
X224706Y44224D01*
X224782Y44207D01*
X224875Y44190D01*
X225061Y44122D01*
X225162Y44088D01*
X225264Y44038D01*
X225374Y43978D01*
X225467Y43911D01*
X225568Y43835D01*
X225661Y43741D01*
X225670Y43733D01*
X225687Y43716D01*
X225704Y43691D01*
X225737Y43649D01*
X225771Y43598D01*
X225814Y43538D01*
X225864Y43462D01*
X225907Y43378D01*
X225949Y43285D01*
X226000Y43183D01*
X226042Y43073D01*
X226076Y42947D01*
X226110Y42820D01*
X226135Y42676D01*
X226143Y42532D01*
X226152Y42371D01*
Y42363D01*
Y42321D01*
X226143Y42261D01*
Y42185D01*
X226127Y42092D01*
X226118Y41982D01*
X226093Y41855D01*
X226059Y41720D01*
X226025Y41576D01*
X225974Y41424D01*
X225915Y41263D01*
X225847Y41103D01*
X225763Y40942D01*
X225670Y40781D01*
X225560Y40629D01*
X225433Y40477D01*
X225425Y40468D01*
X225408Y40451D01*
X225374Y40417D01*
X225323Y40375D01*
X225264Y40316D01*
X225188Y40265D01*
X225103Y40198D01*
X225010Y40138D01*
X224900Y40079D01*
X224790Y40012D01*
X224663Y39961D01*
X224528Y39910D01*
X224393Y39859D01*
X224240Y39825D01*
X224080Y39808D01*
X223919Y39800D01*
X223843D01*
X223784Y39808D01*
X223716Y39817D01*
X223640Y39834D01*
X223547Y39851D01*
X223454Y39876D01*
X223344Y39901D01*
X223234Y39944D01*
X223124Y39995D01*
X223014Y40054D01*
X222896Y40121D01*
X222786Y40198D01*
X222676Y40291D01*
X222574Y40392D01*
X222566Y40401D01*
X222549Y40417D01*
X222523Y40451D01*
X222490Y40502D01*
X222447Y40561D01*
X222405Y40637D01*
X222354Y40722D01*
X222312Y40823D01*
X222261Y40942D01*
X222211Y41060D01*
X222168Y41204D01*
X222126Y41356D01*
X222092Y41517D01*
X222067Y41686D01*
X222050Y41881D01*
X222041Y42075D01*
Y42084D01*
Y42118D01*
Y42177D01*
X222050Y42244D01*
Y42337D01*
X222058Y42439D01*
X222067Y42566D01*
X222084Y42701D01*
X222101Y42845D01*
X222126Y43006D01*
X222151Y43166D01*
X222185Y43344D01*
X222270Y43716D01*
X222380Y44105D01*
Y44114D01*
X222388Y44139D01*
X222405Y44181D01*
X222430Y44241D01*
X222456Y44308D01*
X222490Y44384D01*
X222523Y44477D01*
X222566Y44570D01*
X222659Y44782D01*
X222769Y45002D01*
X222896Y45222D01*
X223039Y45425D01*
X223048Y45433D01*
X223056Y45450D01*
X223082Y45476D01*
X223107Y45509D01*
X223192Y45602D01*
X223293Y45721D01*
X223420Y45839D01*
X223564Y45974D01*
X223716Y46093D01*
X223877Y46194D01*
X223885D01*
X223894Y46203D01*
X223919Y46220D01*
X223953Y46237D01*
X224046Y46270D01*
X224164Y46321D01*
X224308Y46364D01*
X224477Y46406D01*
X224663Y46431D01*
X224866Y46440D01*
X224934D01*
D02*
G37*
G36*
X200456Y46414D02*
X199103Y39910D01*
X198358Y39910D01*
X198494Y40587D01*
X198485Y40578D01*
X198460Y40553D01*
X198426Y40519D01*
X198375Y40468D01*
X198316Y40409D01*
X198240Y40341D01*
X198155Y40274D01*
X198062Y40198D01*
X197952Y40121D01*
X197842Y40054D01*
X197724Y39986D01*
X197606Y39927D01*
X197470Y39885D01*
X197343Y39842D01*
X197200Y39817D01*
X197064Y39808D01*
X196997D01*
X196954Y39817D01*
X196895Y39825D01*
X196827Y39834D01*
X196675Y39868D01*
X196497Y39927D01*
X196404Y39969D01*
X196311Y40020D01*
X196218Y40071D01*
X196125Y40138D01*
X196032Y40215D01*
X195948Y40299D01*
X195939Y40307D01*
X195931Y40325D01*
X195905Y40350D01*
X195880Y40392D01*
X195846Y40443D01*
X195812Y40502D01*
X195770Y40578D01*
X195728Y40663D01*
X195686Y40756D01*
X195643Y40866D01*
X195609Y40984D01*
X195576Y41111D01*
X195550Y41246D01*
X195525Y41399D01*
X195516Y41559D01*
X195508Y41729D01*
Y41737D01*
Y41771D01*
Y41813D01*
X195516Y41872D01*
Y41948D01*
X195525Y42042D01*
X195533Y42143D01*
X195550Y42253D01*
X195592Y42490D01*
X195652Y42760D01*
X195736Y43031D01*
X195855Y43302D01*
X195863Y43310D01*
X195872Y43336D01*
X195889Y43369D01*
X195922Y43420D01*
X195956Y43479D01*
X195998Y43547D01*
X196100Y43699D01*
X196227Y43877D01*
X196379Y44054D01*
X196548Y44224D01*
X196734Y44367D01*
X196743Y44376D01*
X196760Y44384D01*
X196785Y44401D01*
X196827Y44427D01*
X196878Y44452D01*
X196929Y44477D01*
X197064Y44545D01*
X197225Y44613D01*
X197411Y44664D01*
X197606Y44706D01*
X197800Y44723D01*
X197842D01*
X197885Y44714D01*
X197944Y44706D01*
X198020Y44697D01*
X198105Y44680D01*
X198198Y44655D01*
X198299Y44621D01*
X198401Y44570D01*
X198511Y44520D01*
X198621Y44452D01*
X198731Y44367D01*
X198841Y44266D01*
X198942Y44156D01*
X199044Y44029D01*
X199128Y43877D01*
X199661Y46414D01*
X200456D01*
D02*
G37*
G36*
X165481Y44723D02*
X165532Y44714D01*
X165608Y44706D01*
X165693Y44680D01*
X165794Y44655D01*
X165904Y44613D01*
X166031Y44554D01*
X165701Y43809D01*
X165693Y43818D01*
X165667Y43835D01*
X165625Y43851D01*
X165566Y43885D01*
X165498Y43911D01*
X165422Y43928D01*
X165338Y43945D01*
X165245Y43953D01*
X165202D01*
X165168Y43945D01*
X165084Y43928D01*
X164974Y43894D01*
X164847Y43835D01*
X164695Y43750D01*
X164619Y43699D01*
X164543Y43640D01*
X164458Y43564D01*
X164373Y43479D01*
X164365Y43471D01*
X164356Y43454D01*
X164331Y43429D01*
X164297Y43386D01*
X164263Y43336D01*
X164221Y43268D01*
X164170Y43192D01*
X164120Y43099D01*
X164069Y42989D01*
X164010Y42862D01*
X163950Y42727D01*
X163891Y42574D01*
X163832Y42405D01*
X163773Y42219D01*
X163722Y42016D01*
X163671Y41796D01*
X163282Y39910D01*
X162521D01*
X163502Y44621D01*
X164221D01*
X164010Y43649D01*
X164018Y43657D01*
X164027Y43674D01*
X164043Y43699D01*
X164077Y43742D01*
X164145Y43835D01*
X164238Y43953D01*
X164348Y44088D01*
X164466Y44224D01*
X164602Y44351D01*
X164729Y44461D01*
X164746Y44469D01*
X164788Y44503D01*
X164855Y44545D01*
X164949Y44596D01*
X165058Y44638D01*
X165177Y44680D01*
X165304Y44714D01*
X165439Y44723D01*
X165481D01*
D02*
G37*
G36*
X168332D02*
X168391Y44714D01*
X168467D01*
X168552Y44697D01*
X168645Y44689D01*
X168746Y44672D01*
X168966Y44621D01*
X169195Y44545D01*
X169313Y44494D01*
X169423Y44444D01*
X169524Y44376D01*
X169626Y44300D01*
X169634D01*
X169643Y44283D01*
X169685Y44241D01*
X169753Y44181D01*
X169829Y44088D01*
X169897Y43970D01*
X169964Y43835D01*
X170007Y43674D01*
X170023Y43589D01*
Y43496D01*
Y43479D01*
Y43429D01*
X170015Y43352D01*
X170007Y43243D01*
X169998Y43116D01*
X169973Y42972D01*
X169947Y42803D01*
X169905Y42625D01*
X169643Y41449D01*
Y41441D01*
X169634Y41424D01*
Y41399D01*
X169626Y41356D01*
X169617Y41306D01*
X169609Y41255D01*
X169584Y41128D01*
X169558Y40984D01*
X169541Y40832D01*
X169533Y40680D01*
X169524Y40544D01*
Y40536D01*
Y40502D01*
X169533Y40451D01*
Y40384D01*
X169550Y40291D01*
X169567Y40181D01*
X169584Y40054D01*
X169617Y39910D01*
X168805D01*
Y39918D01*
X168797Y39952D01*
X168789Y40003D01*
X168772Y40071D01*
X168763Y40155D01*
X168746Y40257D01*
X168729Y40367D01*
X168721Y40494D01*
X168712D01*
X168704Y40477D01*
X168678Y40460D01*
X168653Y40434D01*
X168569Y40367D01*
X168459Y40291D01*
X168340Y40206D01*
X168196Y40121D01*
X168053Y40037D01*
X167909Y39969D01*
X167892Y39961D01*
X167841Y39944D01*
X167765Y39918D01*
X167663Y39893D01*
X167545Y39859D01*
X167401Y39834D01*
X167249Y39817D01*
X167088Y39808D01*
X167029D01*
X166978Y39817D01*
X166928D01*
X166860Y39825D01*
X166716Y39859D01*
X166547Y39901D01*
X166369Y39969D01*
X166200Y40062D01*
X166116Y40121D01*
X166040Y40189D01*
Y40198D01*
X166023Y40206D01*
X165980Y40257D01*
X165913Y40341D01*
X165845Y40451D01*
X165769Y40595D01*
X165701Y40764D01*
X165659Y40959D01*
X165651Y41060D01*
X165642Y41170D01*
Y41179D01*
Y41187D01*
Y41238D01*
X165651Y41306D01*
X165667Y41407D01*
X165684Y41509D01*
X165718Y41627D01*
X165760Y41745D01*
X165820Y41864D01*
X165828Y41881D01*
X165854Y41915D01*
X165896Y41974D01*
X165947Y42042D01*
X166014Y42118D01*
X166099Y42194D01*
X166192Y42278D01*
X166293Y42346D01*
X166310Y42354D01*
X166344Y42380D01*
X166412Y42414D01*
X166496Y42448D01*
X166598Y42498D01*
X166725Y42540D01*
X166868Y42583D01*
X167021Y42617D01*
X167038D01*
X167071Y42625D01*
X167148Y42634D01*
X167190Y42642D01*
X167249D01*
X167317Y42650D01*
X167393Y42659D01*
X167477Y42667D01*
X167570D01*
X167672Y42676D01*
X167782Y42684D01*
X167909D01*
X168044Y42693D01*
X168078D01*
X168120Y42701D01*
X168230D01*
X168306Y42710D01*
X168467Y42727D01*
X168645Y42752D01*
X168822Y42777D01*
X168992Y42820D01*
X169068Y42836D01*
X169135Y42862D01*
X169144Y42879D01*
X169152Y42913D01*
X169169Y42972D01*
X169186Y43048D01*
X169203Y43133D01*
X169211Y43226D01*
X169228Y43319D01*
Y43403D01*
Y43412D01*
Y43446D01*
X169220Y43496D01*
X169203Y43564D01*
X169178Y43632D01*
X169135Y43699D01*
X169084Y43775D01*
X169017Y43835D01*
X169000Y43843D01*
X168966Y43868D01*
X168898Y43911D01*
X168814Y43953D01*
X168695Y43987D01*
X168560Y44029D01*
X168391Y44054D01*
X168205Y44063D01*
X168120D01*
X168027Y44054D01*
X167909Y44038D01*
X167782Y44004D01*
X167638Y43970D01*
X167503Y43911D01*
X167376Y43835D01*
X167359Y43826D01*
X167325Y43792D01*
X167266Y43742D01*
X167198Y43674D01*
X167122Y43589D01*
X167046Y43479D01*
X166970Y43352D01*
X166911Y43209D01*
X166107Y43276D01*
Y43285D01*
X166116Y43310D01*
X166133Y43344D01*
X166158Y43395D01*
X166183Y43446D01*
X166217Y43513D01*
X166293Y43674D01*
X166403Y43843D01*
X166539Y44021D01*
X166699Y44190D01*
X166885Y44342D01*
X166894Y44351D01*
X166911Y44359D01*
X166945Y44376D01*
X166987Y44401D01*
X167038Y44427D01*
X167097Y44461D01*
X167173Y44494D01*
X167258Y44537D01*
X167351Y44570D01*
X167452Y44604D01*
X167570Y44638D01*
X167689Y44664D01*
X167951Y44706D01*
X168095Y44723D01*
X168332D01*
D02*
G37*
G36*
X177906D02*
X177957Y44714D01*
X178033Y44706D01*
X178118Y44697D01*
X178202Y44680D01*
X178304Y44655D01*
X178515Y44596D01*
X178634Y44554D01*
X178744Y44503D01*
X178854Y44444D01*
X178964Y44367D01*
X179065Y44291D01*
X179167Y44198D01*
X179175Y44190D01*
X179192Y44173D01*
X179217Y44148D01*
X179243Y44105D01*
X179285Y44046D01*
X179327Y43987D01*
X179370Y43911D01*
X179420Y43826D01*
X179471Y43725D01*
X179513Y43623D01*
X179556Y43505D01*
X179598Y43378D01*
X179623Y43234D01*
X179649Y43090D01*
X179666Y42938D01*
X179674Y42769D01*
Y42752D01*
Y42710D01*
Y42642D01*
X179666Y42549D01*
X179657Y42448D01*
X179649Y42329D01*
X179632Y42202D01*
X179606Y42067D01*
X176139D01*
Y42058D01*
Y42042D01*
X176130Y42016D01*
Y41982D01*
X176122Y41898D01*
Y41813D01*
Y41805D01*
Y41788D01*
Y41754D01*
X176130Y41703D01*
Y41652D01*
X176139Y41585D01*
X176156Y41441D01*
X176198Y41280D01*
X176249Y41111D01*
X176316Y40950D01*
X176418Y40807D01*
X176435Y40790D01*
X176469Y40756D01*
X176536Y40697D01*
X176629Y40637D01*
X176731Y40578D01*
X176858Y40519D01*
X177001Y40485D01*
X177162Y40468D01*
X177179D01*
X177230Y40477D01*
X177314Y40485D01*
X177416Y40502D01*
X177543Y40536D01*
X177678Y40578D01*
X177822Y40646D01*
X177974Y40730D01*
X177983D01*
X177991Y40739D01*
X178042Y40781D01*
X178118Y40840D01*
X178202Y40925D01*
X178304Y41035D01*
X178414Y41170D01*
X178507Y41322D01*
X178600Y41500D01*
X179378Y41432D01*
Y41424D01*
X179370Y41407D01*
X179361Y41373D01*
X179344Y41331D01*
X179319Y41280D01*
X179294Y41221D01*
X179226Y41077D01*
X179116Y40908D01*
X179057Y40815D01*
X178989Y40722D01*
X178904Y40620D01*
X178820Y40519D01*
X178718Y40426D01*
X178608Y40325D01*
X178600Y40316D01*
X178583Y40299D01*
X178549Y40274D01*
X178498Y40248D01*
X178439Y40206D01*
X178372Y40164D01*
X178287Y40113D01*
X178202Y40071D01*
X178101Y40020D01*
X177991Y39969D01*
X177873Y39927D01*
X177746Y39893D01*
X177610Y39859D01*
X177467Y39834D01*
X177314Y39817D01*
X177162Y39808D01*
X177078D01*
X177027Y39817D01*
X176976Y39825D01*
X176849Y39842D01*
X176697Y39868D01*
X176536Y39910D01*
X176367Y39969D01*
X176198Y40045D01*
X176189D01*
X176181Y40054D01*
X176130Y40088D01*
X176046Y40147D01*
X175953Y40223D01*
X175851Y40325D01*
X175741Y40443D01*
X175631Y40587D01*
X175538Y40747D01*
Y40756D01*
X175530Y40764D01*
X175521Y40790D01*
X175504Y40832D01*
X175487Y40874D01*
X175462Y40925D01*
X175428Y41052D01*
X175386Y41204D01*
X175344Y41382D01*
X175318Y41585D01*
X175310Y41796D01*
Y41805D01*
Y41830D01*
Y41872D01*
X175318Y41932D01*
Y41999D01*
X175327Y42075D01*
X175344Y42168D01*
X175352Y42270D01*
X175394Y42498D01*
X175462Y42752D01*
X175547Y43014D01*
X175665Y43285D01*
X175674Y43293D01*
X175682Y43319D01*
X175699Y43352D01*
X175733Y43403D01*
X175767Y43462D01*
X175809Y43530D01*
X175910Y43691D01*
X176046Y43868D01*
X176206Y44046D01*
X176384Y44215D01*
X176485Y44300D01*
X176587Y44367D01*
X176595Y44376D01*
X176612Y44384D01*
X176646Y44401D01*
X176688Y44427D01*
X176739Y44452D01*
X176798Y44477D01*
X176875Y44511D01*
X176951Y44545D01*
X177137Y44613D01*
X177348Y44664D01*
X177577Y44706D01*
X177822Y44723D01*
X177906D01*
D02*
G37*
G36*
X210217Y44723D02*
X210268Y44714D01*
X210344Y44706D01*
X210428Y44697D01*
X210513Y44680D01*
X210614Y44655D01*
X210826Y44596D01*
X210944Y44553D01*
X211054Y44503D01*
X211164Y44444D01*
X211274Y44367D01*
X211376Y44291D01*
X211477Y44198D01*
X211486Y44190D01*
X211502Y44173D01*
X211528Y44148D01*
X211553Y44105D01*
X211595Y44046D01*
X211638Y43987D01*
X211680Y43911D01*
X211731Y43826D01*
X211782Y43725D01*
X211824Y43623D01*
X211866Y43505D01*
X211908Y43378D01*
X211934Y43234D01*
X211959Y43090D01*
X211976Y42938D01*
X211985Y42769D01*
Y42752D01*
Y42710D01*
Y42642D01*
X211976Y42549D01*
X211968Y42447D01*
X211959Y42329D01*
X211942Y42202D01*
X211917Y42067D01*
X208449D01*
Y42058D01*
Y42041D01*
X208440Y42016D01*
Y41982D01*
X208432Y41898D01*
Y41813D01*
Y41805D01*
Y41788D01*
Y41754D01*
X208440Y41703D01*
Y41652D01*
X208449Y41585D01*
X208466Y41441D01*
X208508Y41280D01*
X208559Y41111D01*
X208627Y40950D01*
X208728Y40806D01*
X208745Y40790D01*
X208779Y40756D01*
X208846Y40697D01*
X208940Y40637D01*
X209041Y40578D01*
X209168Y40519D01*
X209312Y40485D01*
X209472Y40468D01*
X209489D01*
X209540Y40477D01*
X209625Y40485D01*
X209726Y40502D01*
X209853Y40536D01*
X209988Y40578D01*
X210132Y40646D01*
X210284Y40730D01*
X210293D01*
X210301Y40739D01*
X210352Y40781D01*
X210428Y40840D01*
X210513Y40925D01*
X210614Y41035D01*
X210724Y41170D01*
X210817Y41322D01*
X210910Y41500D01*
X211688Y41432D01*
Y41424D01*
X211680Y41407D01*
X211672Y41373D01*
X211655Y41331D01*
X211629Y41280D01*
X211604Y41221D01*
X211536Y41077D01*
X211426Y40908D01*
X211367Y40815D01*
X211299Y40722D01*
X211215Y40620D01*
X211130Y40519D01*
X211029Y40426D01*
X210919Y40324D01*
X210910Y40316D01*
X210893Y40299D01*
X210860Y40274D01*
X210809Y40248D01*
X210750Y40206D01*
X210682Y40164D01*
X210597Y40113D01*
X210513Y40071D01*
X210411Y40020D01*
X210301Y39969D01*
X210183Y39927D01*
X210056Y39893D01*
X209921Y39859D01*
X209777Y39834D01*
X209625Y39817D01*
X209472Y39808D01*
X209388D01*
X209337Y39817D01*
X209286Y39825D01*
X209160Y39842D01*
X209007Y39868D01*
X208846Y39910D01*
X208677Y39969D01*
X208508Y40045D01*
X208500D01*
X208491Y40054D01*
X208440Y40088D01*
X208356Y40147D01*
X208263Y40223D01*
X208161Y40324D01*
X208051Y40443D01*
X207941Y40587D01*
X207848Y40747D01*
Y40756D01*
X207840Y40764D01*
X207831Y40790D01*
X207815Y40832D01*
X207798Y40874D01*
X207772Y40925D01*
X207738Y41052D01*
X207696Y41204D01*
X207654Y41382D01*
X207628Y41585D01*
X207620Y41796D01*
Y41805D01*
Y41830D01*
Y41872D01*
X207628Y41932D01*
Y41999D01*
X207637Y42075D01*
X207654Y42168D01*
X207662Y42270D01*
X207705Y42498D01*
X207772Y42752D01*
X207857Y43014D01*
X207975Y43285D01*
X207984Y43293D01*
X207992Y43319D01*
X208009Y43352D01*
X208043Y43403D01*
X208077Y43462D01*
X208119Y43530D01*
X208221Y43691D01*
X208356Y43868D01*
X208517Y44046D01*
X208694Y44215D01*
X208796Y44300D01*
X208897Y44367D01*
X208906Y44376D01*
X208923Y44384D01*
X208957Y44401D01*
X208999Y44427D01*
X209049Y44452D01*
X209109Y44477D01*
X209185Y44511D01*
X209261Y44545D01*
X209447Y44613D01*
X209659Y44664D01*
X209887Y44706D01*
X210132Y44723D01*
X210217D01*
D02*
G37*
G36*
X160178Y46414D02*
X160296Y46406D01*
X160432D01*
X160576Y46397D01*
X160702Y46389D01*
X160821Y46372D01*
X160838D01*
X160863Y46364D01*
X160897Y46355D01*
X160982Y46338D01*
X161083Y46313D01*
X161201Y46271D01*
X161328Y46228D01*
X161455Y46169D01*
X161574Y46101D01*
X161591Y46093D01*
X161624Y46068D01*
X161684Y46025D01*
X161751Y45966D01*
X161827Y45890D01*
X161912Y45805D01*
X161988Y45704D01*
X162056Y45585D01*
X162064Y45568D01*
X162081Y45526D01*
X162106Y45467D01*
X162140Y45374D01*
X162174Y45272D01*
X162199Y45146D01*
X162216Y45010D01*
X162225Y44866D01*
Y44858D01*
Y44841D01*
Y44816D01*
X162216Y44774D01*
Y44731D01*
X162208Y44672D01*
X162191Y44545D01*
X162149Y44401D01*
X162098Y44241D01*
X162030Y44080D01*
X161929Y43919D01*
Y43911D01*
X161912Y43902D01*
X161870Y43851D01*
X161802Y43775D01*
X161709Y43691D01*
X161582Y43589D01*
X161421Y43488D01*
X161235Y43386D01*
X161024Y43293D01*
X161032D01*
X161049Y43285D01*
X161075Y43276D01*
X161108Y43260D01*
X161201Y43226D01*
X161320Y43166D01*
X161447Y43090D01*
X161574Y43006D01*
X161700Y42896D01*
X161810Y42777D01*
X161819Y42760D01*
X161853Y42718D01*
X161895Y42642D01*
X161946Y42549D01*
X161997Y42431D01*
X162039Y42287D01*
X162073Y42134D01*
X162081Y41965D01*
Y41957D01*
Y41940D01*
Y41915D01*
X162073Y41872D01*
Y41822D01*
X162064Y41771D01*
X162039Y41635D01*
X162005Y41475D01*
X161946Y41306D01*
X161870Y41119D01*
X161760Y40933D01*
Y40925D01*
X161743Y40908D01*
X161726Y40883D01*
X161700Y40849D01*
X161633Y40764D01*
X161540Y40654D01*
X161421Y40536D01*
X161278Y40409D01*
X161108Y40282D01*
X160922Y40172D01*
X160914D01*
X160897Y40164D01*
X160872Y40147D01*
X160829Y40130D01*
X160787Y40113D01*
X160728Y40088D01*
X160660Y40062D01*
X160584Y40045D01*
X160415Y39995D01*
X160220Y39952D01*
X160000Y39918D01*
X159764Y39910D01*
X156550D01*
X157911Y46414D01*
X160178D01*
D02*
G37*
G36*
X193064Y44723D02*
X193123Y44714D01*
X193190Y44706D01*
X193275Y44697D01*
X193368Y44680D01*
X193470Y44655D01*
X193689Y44596D01*
X193808Y44554D01*
X193918Y44494D01*
X194036Y44435D01*
X194146Y44367D01*
X194256Y44283D01*
X194358Y44190D01*
X194366Y44181D01*
X194383Y44165D01*
X194408Y44139D01*
X194442Y44097D01*
X194476Y44038D01*
X194527Y43970D01*
X194569Y43894D01*
X194620Y43809D01*
X194671Y43716D01*
X194713Y43606D01*
X194764Y43488D01*
X194797Y43361D01*
X194831Y43217D01*
X194857Y43073D01*
X194874Y42921D01*
X194882Y42752D01*
Y42744D01*
Y42718D01*
Y42676D01*
X194874Y42617D01*
Y42540D01*
X194865Y42456D01*
X194857Y42363D01*
X194840Y42261D01*
X194806Y42025D01*
X194747Y41771D01*
X194662Y41509D01*
X194552Y41238D01*
Y41230D01*
X194535Y41204D01*
X194518Y41170D01*
X194493Y41128D01*
X194459Y41069D01*
X194417Y41001D01*
X194315Y40849D01*
X194180Y40671D01*
X194019Y40494D01*
X193825Y40325D01*
X193613Y40172D01*
X193605D01*
X193588Y40155D01*
X193554Y40138D01*
X193512Y40113D01*
X193453Y40088D01*
X193385Y40054D01*
X193309Y40028D01*
X193233Y39995D01*
X193038Y39927D01*
X192818Y39868D01*
X192581Y39825D01*
X192463Y39817D01*
X192336Y39808D01*
X192243D01*
X192192Y39817D01*
X192142D01*
X192006Y39834D01*
X191854Y39868D01*
X191685Y39901D01*
X191507Y39961D01*
X191338Y40037D01*
X191330D01*
X191321Y40045D01*
X191296Y40062D01*
X191262Y40079D01*
X191186Y40138D01*
X191084Y40206D01*
X190974Y40307D01*
X190864Y40417D01*
X190754Y40553D01*
X190653Y40705D01*
Y40714D01*
X190644Y40722D01*
X190628Y40747D01*
X190619Y40781D01*
X190577Y40874D01*
X190534Y40993D01*
X190492Y41136D01*
X190450Y41306D01*
X190425Y41492D01*
X190416Y41695D01*
Y41712D01*
Y41754D01*
X190425Y41830D01*
X190433Y41923D01*
X190441Y42042D01*
X190458Y42177D01*
X190484Y42329D01*
X190518Y42498D01*
X190560Y42676D01*
X190611Y42862D01*
X190678Y43048D01*
X190763Y43243D01*
X190856Y43429D01*
X190957Y43623D01*
X191084Y43801D01*
X191228Y43978D01*
X191236Y43987D01*
X191262Y44012D01*
X191296Y44046D01*
X191346Y44097D01*
X191414Y44148D01*
X191499Y44215D01*
X191592Y44283D01*
X191702Y44351D01*
X191820Y44418D01*
X191947Y44486D01*
X192091Y44554D01*
X192251Y44604D01*
X192412Y44655D01*
X192590Y44689D01*
X192784Y44714D01*
X192979Y44723D01*
X193064D01*
D02*
G37*
G36*
X172755Y46414D02*
X171918Y42371D01*
X174261Y44621D01*
X175327D01*
X173314Y42862D01*
X174523Y39910D01*
X173643D01*
X172696Y42329D01*
X171723Y41483D01*
X171394Y39910D01*
X170599D01*
X171952Y46414D01*
X172755D01*
D02*
G37*
G36*
X185299D02*
X185899Y42194D01*
Y42185D01*
X185908Y42160D01*
Y42109D01*
X185916Y42050D01*
X185925Y41974D01*
X185942Y41889D01*
X185950Y41788D01*
X185967Y41678D01*
X185975Y41559D01*
X185993Y41441D01*
X186018Y41170D01*
X186043Y40891D01*
X186060Y40604D01*
Y40612D01*
X186077Y40637D01*
X186085Y40671D01*
X186111Y40722D01*
X186145Y40790D01*
X186178Y40866D01*
X186221Y40959D01*
X186272Y41069D01*
X186331Y41187D01*
X186399Y41322D01*
X186466Y41466D01*
X186551Y41627D01*
X186635Y41796D01*
X186737Y41982D01*
X186838Y42177D01*
X186957Y42380D01*
X189240Y46414D01*
X190331D01*
X188961Y39910D01*
X188107D01*
X188792Y43065D01*
Y43082D01*
X188801Y43116D01*
X188818Y43175D01*
X188834Y43260D01*
X188860Y43361D01*
X188894Y43488D01*
X188927Y43623D01*
X188970Y43784D01*
X189012Y43962D01*
X189063Y44148D01*
X189114Y44359D01*
X189181Y44570D01*
X189240Y44799D01*
X189317Y45036D01*
X189393Y45281D01*
X189465Y45523D01*
X189452Y45509D01*
X189435Y45467D01*
X189418Y45425D01*
X189384Y45366D01*
X189350Y45289D01*
X189317Y45213D01*
X189274Y45120D01*
X189223Y45027D01*
X189164Y44917D01*
X189046Y44689D01*
X188911Y44435D01*
X188767Y44165D01*
X186348Y39910D01*
X185510D01*
X184918Y44080D01*
Y44088D01*
Y44105D01*
X184910Y44139D01*
X184901Y44181D01*
Y44241D01*
X184893Y44300D01*
X184884Y44376D01*
X184867Y44461D01*
X184859Y44554D01*
X184851Y44655D01*
X184825Y44883D01*
X184808Y45137D01*
X184791Y45416D01*
Y45408D01*
X184783Y45374D01*
Y45332D01*
X184774Y45272D01*
X184758Y45196D01*
X184749Y45112D01*
X184732Y45019D01*
X184715Y44917D01*
X184681Y44697D01*
X184648Y44469D01*
X184605Y44249D01*
X184580Y44148D01*
X184563Y44046D01*
X183709Y39910D01*
X182854D01*
X184208Y46414D01*
X185299D01*
D02*
G37*
G36*
X202224Y44621D02*
X201530Y41568D01*
Y41551D01*
X201513Y41509D01*
X201505Y41432D01*
X201488Y41348D01*
X201471Y41255D01*
X201462Y41162D01*
X201446Y41060D01*
Y40976D01*
Y40967D01*
Y40933D01*
X201454Y40891D01*
X201462Y40840D01*
X201488Y40781D01*
X201513Y40722D01*
X201556Y40663D01*
X201606Y40604D01*
X201615Y40595D01*
X201640Y40587D01*
X201674Y40561D01*
X201733Y40536D01*
X201801Y40511D01*
X201885Y40494D01*
X201987Y40477D01*
X202097Y40468D01*
X202156D01*
X202224Y40477D01*
X202308Y40485D01*
X202410Y40511D01*
X202520Y40536D01*
X202638Y40578D01*
X202765Y40629D01*
X202782Y40637D01*
X202824Y40663D01*
X202883Y40697D01*
X202960Y40747D01*
X203053Y40806D01*
X203146Y40883D01*
X203239Y40967D01*
X203332Y41069D01*
X203340Y41086D01*
X203374Y41119D01*
X203416Y41179D01*
X203467Y41255D01*
X203526Y41348D01*
X203594Y41458D01*
X203653Y41585D01*
X203712Y41720D01*
X203721Y41729D01*
X203729Y41771D01*
X203755Y41830D01*
X203780Y41923D01*
X203814Y42033D01*
X203848Y42185D01*
X203899Y42363D01*
X203915Y42464D01*
X203941Y42574D01*
X204398Y44621D01*
X205201D01*
X204152Y39910D01*
X203416D01*
X203585Y40756D01*
X203577Y40747D01*
X203552Y40714D01*
X203501Y40671D01*
X203442Y40612D01*
X203366Y40536D01*
X203273Y40460D01*
X203171Y40367D01*
X203053Y40282D01*
X202926Y40198D01*
X202791Y40104D01*
X202647Y40028D01*
X202494Y39961D01*
X202342Y39893D01*
X202181Y39851D01*
X202021Y39817D01*
X201852Y39808D01*
X201801D01*
X201758Y39817D01*
X201665Y39825D01*
X201539Y39851D01*
X201403Y39885D01*
X201251Y39935D01*
X201107Y40012D01*
X200972Y40113D01*
X200955Y40130D01*
X200921Y40172D01*
X200870Y40240D01*
X200811Y40324D01*
X200744Y40434D01*
X200693Y40570D01*
X200659Y40714D01*
X200642Y40874D01*
Y40891D01*
Y40933D01*
X200651Y41009D01*
X200659Y41052D01*
Y41111D01*
X200667Y41179D01*
X200684Y41255D01*
X200693Y41339D01*
X200710Y41432D01*
X200727Y41534D01*
X200752Y41644D01*
X200777Y41771D01*
X200803Y41898D01*
X201420Y44621D01*
X202224D01*
D02*
G37*
G36*
X207527Y46414D02*
X206174Y39910D01*
X205370D01*
X206732Y46414D01*
X207527D01*
D02*
G37*
G36*
X219436D02*
X219512Y46406D01*
X219690Y46397D01*
X219893Y46381D01*
X220096Y46355D01*
X220291Y46321D01*
X220375Y46296D01*
X220460Y46270D01*
X220468D01*
X220476Y46262D01*
X220527Y46245D01*
X220603Y46211D01*
X220697Y46161D01*
X220798Y46084D01*
X220908Y46000D01*
X221018Y45890D01*
X221111Y45763D01*
X221119Y45746D01*
X221153Y45695D01*
X221187Y45619D01*
X221238Y45509D01*
X221280Y45374D01*
X221322Y45213D01*
X221348Y45027D01*
X221356Y44824D01*
Y44816D01*
Y44790D01*
Y44748D01*
X221348Y44689D01*
X221339Y44621D01*
X221331Y44545D01*
X221314Y44461D01*
X221289Y44359D01*
X221229Y44156D01*
X221187Y44046D01*
X221136Y43936D01*
X221077Y43818D01*
X221001Y43716D01*
X220925Y43606D01*
X220832Y43505D01*
X220823Y43496D01*
X220806Y43479D01*
X220773Y43454D01*
X220730Y43420D01*
X220679Y43378D01*
X220612Y43327D01*
X220527Y43276D01*
X220426Y43226D01*
X220316Y43166D01*
X220197Y43107D01*
X220062Y43056D01*
X219910Y42997D01*
X219741Y42947D01*
X219563Y42904D01*
X219368Y42862D01*
X219157Y42828D01*
X219174Y42820D01*
X219216Y42786D01*
X219275Y42735D01*
X219360Y42667D01*
X219445Y42591D01*
X219529Y42498D01*
X219614Y42405D01*
X219690Y42312D01*
X219698Y42304D01*
X219707Y42287D01*
X219732Y42253D01*
X219758Y42211D01*
X219791Y42160D01*
X219834Y42101D01*
X219876Y42024D01*
X219927Y41948D01*
X220028Y41771D01*
X220138Y41568D01*
X220240Y41356D01*
X220341Y41128D01*
X220849Y39910D01*
X219876D01*
X219394Y41119D01*
Y41128D01*
X219385Y41145D01*
X219368Y41187D01*
X219352Y41230D01*
X219326Y41289D01*
X219301Y41348D01*
X219233Y41509D01*
X219149Y41678D01*
X219056Y41872D01*
X218946Y42058D01*
X218827Y42244D01*
X218819Y42261D01*
X218793Y42295D01*
X218743Y42354D01*
X218692Y42431D01*
X218616Y42498D01*
X218540Y42574D01*
X218455Y42634D01*
X218370Y42684D01*
X218362Y42693D01*
X218328Y42701D01*
X218269Y42718D01*
X218193Y42744D01*
X218091Y42760D01*
X217964Y42777D01*
X217804Y42786D01*
X217626Y42794D01*
X216611D01*
X216011Y39910D01*
X215148D01*
X216510Y46414D01*
X219436D01*
D02*
G37*
%LPC*%
G36*
X279303Y68691D02*
X279136D01*
Y68524D01*
X278636D01*
Y68691D01*
X278469D01*
Y68524D01*
X278302D01*
Y68691D01*
X278135D01*
Y68524D01*
X277968D01*
Y68691D01*
X277801D01*
Y68524D01*
X277300D01*
Y68691D01*
X277133D01*
Y68524D01*
X276799D01*
Y68357D01*
X275965D01*
Y68190D01*
X275631D01*
Y68023D01*
X275130D01*
Y67856D01*
Y67689D01*
X274796D01*
Y67522D01*
X274629D01*
Y67355D01*
X274463D01*
Y67188D01*
X274296D01*
Y67021D01*
X274129D01*
Y66855D01*
X273962D01*
Y66687D01*
Y66521D01*
X273795D01*
Y66354D01*
Y66187D01*
Y66020D01*
X273628D01*
Y65853D01*
Y65686D01*
X273461D01*
Y65519D01*
Y65352D01*
Y65185D01*
X273294D01*
Y65018D01*
Y64851D01*
Y64685D01*
Y64518D01*
Y64351D01*
Y64184D01*
Y64017D01*
Y63850D01*
Y63683D01*
Y63516D01*
Y63349D01*
Y63182D01*
Y63015D01*
Y62848D01*
Y62681D01*
X273461D01*
Y62515D01*
Y62348D01*
Y62181D01*
Y62014D01*
Y61847D01*
X273628D01*
Y61680D01*
X273795D01*
Y61513D01*
X273294D01*
Y61680D01*
X272793D01*
Y61847D01*
X272626D01*
Y62014D01*
X272460D01*
Y61847D01*
X272292D01*
Y62014D01*
X272126D01*
Y61847D01*
X271959D01*
Y62014D01*
X271792D01*
Y61847D01*
X271625D01*
Y62014D01*
X270123D01*
Y61847D01*
X269956D01*
Y62014D01*
X269789D01*
Y61847D01*
X269622D01*
Y62014D01*
X269455D01*
Y61847D01*
X269288D01*
Y62014D01*
X269121D01*
Y61847D01*
X268787D01*
Y61680D01*
X267786D01*
Y61513D01*
X266951D01*
Y61346D01*
X266450D01*
Y61179D01*
X266283D01*
Y61012D01*
X265783D01*
Y60845D01*
X265115D01*
Y60678D01*
X264614D01*
Y60511D01*
X264280D01*
Y60345D01*
X264113D01*
Y60178D01*
X263946D01*
Y60345D01*
X263780D01*
Y60178D01*
X263613D01*
Y60011D01*
X263112D01*
Y59844D01*
X262611D01*
Y59677D01*
X262277D01*
Y59510D01*
X262110D01*
Y59343D01*
X261777D01*
Y59176D01*
X261276D01*
Y59009D01*
X260942D01*
Y58842D01*
X260608D01*
Y58675D01*
X260441D01*
Y58508D01*
X259940D01*
Y58341D01*
X259606D01*
Y58175D01*
X259273D01*
Y58008D01*
X258939D01*
Y57841D01*
X258772D01*
Y57674D01*
X258438D01*
Y57507D01*
X258104D01*
Y57340D01*
X257770D01*
Y57173D01*
X257437D01*
Y57006D01*
X257270D01*
Y56839D01*
X256936D01*
Y56672D01*
X256769D01*
Y56505D01*
X256435D01*
Y56338D01*
X256101D01*
Y56171D01*
X255934D01*
Y56005D01*
X255767D01*
Y55838D01*
X255434D01*
Y55671D01*
X255267D01*
Y55504D01*
X255100D01*
Y55337D01*
X254933D01*
Y55170D01*
X254766D01*
Y55003D01*
Y54836D01*
X254599D01*
Y54669D01*
X254432D01*
Y54502D01*
X254265D01*
Y54335D01*
Y54168D01*
Y54001D01*
Y53835D01*
Y53668D01*
X254432D01*
Y53501D01*
X254599D01*
Y53334D01*
X254766D01*
Y53167D01*
X254933D01*
Y53000D01*
X255100D01*
Y52833D01*
X255267D01*
Y52666D01*
X255600D01*
Y52499D01*
X256101D01*
Y52332D01*
X256435D01*
Y52165D01*
X256602D01*
Y51999D01*
X256268D01*
Y51831D01*
X255934D01*
Y51665D01*
X255434D01*
Y51498D01*
X255267D01*
Y51331D01*
X254766D01*
Y51164D01*
Y50997D01*
X254432D01*
Y50830D01*
X254098D01*
Y50663D01*
X253764D01*
Y50496D01*
X253597D01*
Y50329D01*
X253430D01*
Y50162D01*
X253097D01*
Y49995D01*
X252763D01*
Y49829D01*
X252596D01*
Y49662D01*
X252262D01*
Y49495D01*
X252095D01*
Y49328D01*
X251928D01*
Y49161D01*
X251594D01*
Y48994D01*
X251427D01*
Y48827D01*
X251261D01*
Y48660D01*
X251094D01*
Y48493D01*
Y48326D01*
X250760D01*
Y48159D01*
X250593D01*
Y47992D01*
Y47825D01*
X250426D01*
Y47659D01*
Y47492D01*
Y47325D01*
Y47158D01*
Y46991D01*
Y46824D01*
Y46657D01*
Y46490D01*
Y46323D01*
Y46156D01*
X250593D01*
Y45989D01*
Y45822D01*
Y45655D01*
Y45489D01*
Y45322D01*
Y45155D01*
Y44988D01*
X250760D01*
Y44821D01*
Y44654D01*
Y44487D01*
Y44320D01*
X250927D01*
Y44153D01*
Y43986D01*
Y43819D01*
Y43652D01*
X251094D01*
Y43485D01*
X251261D01*
Y43319D01*
Y43152D01*
X251427D01*
Y42985D01*
Y42818D01*
Y42651D01*
X251594D01*
Y42484D01*
Y42317D01*
X251761D01*
Y42150D01*
X251928D01*
Y41983D01*
X252095D01*
Y41816D01*
Y41649D01*
X252262D01*
Y41482D01*
Y41315D01*
X252429D01*
Y41149D01*
X252596D01*
Y40982D01*
X252763D01*
Y40815D01*
X252930D01*
Y40648D01*
X253097D01*
Y40481D01*
X253263D01*
Y40314D01*
X253430D01*
Y40147D01*
X253931D01*
Y40314D01*
X254098D01*
Y40481D01*
X254432D01*
Y40648D01*
X254766D01*
Y40815D01*
X255100D01*
Y40982D01*
X255434D01*
Y41149D01*
X255600D01*
Y41315D01*
X255934D01*
Y41482D01*
X256435D01*
Y41649D01*
X256769D01*
Y41816D01*
X257270D01*
Y41983D01*
X257437D01*
Y42150D01*
X257770D01*
Y42317D01*
X258271D01*
Y42484D01*
X258939D01*
Y42651D01*
X259440D01*
Y42818D01*
X259606D01*
Y42985D01*
X260107D01*
Y43152D01*
X260775D01*
Y43319D01*
X261443D01*
Y43485D01*
X262277D01*
Y43652D01*
Y43819D01*
X263279D01*
Y43986D01*
X264113D01*
Y44153D01*
X265282D01*
Y44320D01*
X266784D01*
Y44487D01*
X266951D01*
Y44320D01*
X267118D01*
Y44487D01*
X267285D01*
Y44320D01*
X267452D01*
Y44487D01*
X267619D01*
Y44654D01*
X267786D01*
Y44487D01*
X267953D01*
Y44654D01*
X268453D01*
Y44487D01*
X268286D01*
Y44320D01*
X267786D01*
Y44153D01*
X267285D01*
Y43986D01*
Y43819D01*
X267953D01*
Y43652D01*
X268120D01*
Y43819D01*
X268286D01*
Y43652D01*
X268453D01*
Y43485D01*
X268787D01*
Y43319D01*
X269121D01*
Y43152D01*
X269455D01*
Y42985D01*
Y42818D01*
X269622D01*
Y42651D01*
X269789D01*
Y42484D01*
X269956D01*
Y42317D01*
X270123D01*
Y42150D01*
X270289D01*
Y41983D01*
X270456D01*
Y41816D01*
Y41649D01*
Y41482D01*
X270623D01*
Y41315D01*
Y41149D01*
X270790D01*
Y40982D01*
Y40815D01*
Y40648D01*
Y40481D01*
X270957D01*
Y40314D01*
X271124D01*
Y40147D01*
X271291D01*
Y39980D01*
Y39813D01*
Y39646D01*
Y39479D01*
X271458D01*
Y39312D01*
Y39146D01*
X271625D01*
Y38979D01*
Y38812D01*
Y38645D01*
Y38478D01*
X271792D01*
Y38311D01*
Y38144D01*
X271959D01*
Y37977D01*
X271792D01*
Y37810D01*
X272126D01*
Y37643D01*
Y37476D01*
Y37309D01*
Y37143D01*
Y36976D01*
X272292D01*
Y36809D01*
Y36642D01*
Y36475D01*
Y36308D01*
Y36141D01*
Y35974D01*
X272126D01*
Y35807D01*
Y35640D01*
Y35473D01*
X271792D01*
Y35306D01*
X271625D01*
Y35139D01*
X271458D01*
Y34973D01*
X269288D01*
Y35139D01*
Y35306D01*
X269121D01*
Y35139D01*
X268954D01*
Y35306D01*
X268787D01*
Y35139D01*
X268620D01*
Y35306D01*
X268453D01*
Y35473D01*
X267786D01*
Y35640D01*
X267118D01*
Y35807D01*
X266283D01*
Y35974D01*
X265783D01*
Y36141D01*
X265616D01*
Y36308D01*
X264948D01*
Y36475D01*
X264113D01*
Y36642D01*
X263112D01*
Y36809D01*
X262945D01*
Y36976D01*
X262778D01*
Y36809D01*
X262611D01*
Y36976D01*
X262444D01*
Y36809D01*
X262277D01*
Y36976D01*
X262110D01*
Y36809D01*
X261943D01*
Y36976D01*
X261777D01*
Y36809D01*
X261610D01*
Y36976D01*
X261109D01*
Y37143D01*
X260942D01*
Y36976D01*
X260775D01*
Y37143D01*
X259606D01*
Y36976D01*
X259440D01*
Y37143D01*
X259273D01*
Y36976D01*
X258772D01*
Y36809D01*
X258605D01*
Y36976D01*
X258438D01*
Y36809D01*
X258271D01*
Y36976D01*
X258104D01*
Y36809D01*
X257937D01*
Y36976D01*
X257770D01*
Y36809D01*
X257603D01*
Y36976D01*
X257437D01*
Y36809D01*
X256769D01*
Y36642D01*
X255267D01*
Y36475D01*
X254265D01*
Y36308D01*
X253430D01*
Y36141D01*
X253263D01*
Y35974D01*
X252429D01*
Y35807D01*
X251761D01*
Y35640D01*
X251094D01*
Y35473D01*
Y35306D01*
Y35139D01*
X252763D01*
Y34973D01*
X252095D01*
Y34806D01*
X251427D01*
Y34639D01*
X250426D01*
Y34472D01*
X250259D01*
Y34305D01*
X250092D01*
Y34472D01*
X249925D01*
Y34305D01*
X246086D01*
Y34472D01*
X245919D01*
Y34305D01*
X245585D01*
Y34472D01*
X245084D01*
Y34305D01*
X244917D01*
Y34138D01*
X244750D01*
Y33971D01*
Y33804D01*
X244584D01*
Y33637D01*
X244417D01*
Y33470D01*
X244250D01*
Y33303D01*
Y33136D01*
X244083D01*
Y32969D01*
Y32803D01*
Y32636D01*
X243916D01*
Y32469D01*
Y32302D01*
Y32135D01*
Y31968D01*
Y31801D01*
Y31634D01*
Y31467D01*
Y31300D01*
Y31133D01*
Y30966D01*
Y30799D01*
Y30633D01*
Y30466D01*
Y30299D01*
Y30132D01*
X244083D01*
Y29965D01*
Y29798D01*
X244250D01*
Y29631D01*
X244417D01*
Y29464D01*
X244584D01*
Y29631D01*
X244750D01*
Y29464D01*
X244917D01*
Y29631D01*
X245251D01*
Y29798D01*
X245919D01*
Y29965D01*
X246754D01*
Y30132D01*
X247922D01*
Y30299D01*
X248256D01*
Y30466D01*
X249925D01*
Y30633D01*
X256435D01*
Y30466D01*
X258605D01*
Y30299D01*
X258772D01*
Y30132D01*
X260274D01*
Y29965D01*
X261443D01*
Y29798D01*
X262611D01*
Y29631D01*
X262778D01*
Y29464D01*
X262945D01*
Y29631D01*
X263112D01*
Y29464D01*
X263279D01*
Y29631D01*
X263446D01*
Y29798D01*
Y29965D01*
X263279D01*
Y30132D01*
X263112D01*
Y30299D01*
Y30466D01*
X262778D01*
Y30633D01*
X262611D01*
Y30799D01*
X262444D01*
Y30966D01*
X262277D01*
Y31133D01*
X262110D01*
Y31300D01*
X261777D01*
Y31467D01*
X261610D01*
Y31634D01*
X260942D01*
Y31801D01*
X260608D01*
Y31968D01*
X260441D01*
Y32135D01*
X259773D01*
Y32302D01*
X260942D01*
Y32135D01*
X262277D01*
Y31968D01*
X262444D01*
Y31801D01*
X263112D01*
Y31634D01*
X263780D01*
Y31467D01*
X264280D01*
Y31300D01*
X264447D01*
Y31133D01*
X264614D01*
Y31300D01*
X264781D01*
Y31133D01*
X264948D01*
Y30966D01*
X265282D01*
Y30799D01*
X265783D01*
Y30633D01*
X266283D01*
Y30466D01*
X266617D01*
Y30299D01*
X266784D01*
Y30132D01*
X267285D01*
Y29965D01*
X267786D01*
Y29798D01*
X268120D01*
Y29631D01*
X268453D01*
Y29464D01*
X268620D01*
Y29631D01*
X268787D01*
Y29464D01*
X268954D01*
Y29297D01*
X269455D01*
Y29130D01*
X270623D01*
Y28963D01*
X273461D01*
Y29130D01*
Y29297D01*
X273127D01*
Y29464D01*
X272960D01*
Y29631D01*
X272460D01*
Y29798D01*
X271625D01*
Y29965D01*
X271124D01*
Y30132D01*
X270957D01*
Y30299D01*
X270790D01*
Y30132D01*
X270623D01*
Y30299D01*
X270456D01*
Y30466D01*
X269956D01*
Y30633D01*
X271792D01*
Y30466D01*
X271959D01*
Y30633D01*
X273962D01*
Y30799D01*
X274463D01*
Y30966D01*
Y31133D01*
X274629D01*
Y31300D01*
X274129D01*
Y31467D01*
X273962D01*
Y31634D01*
X273795D01*
Y31801D01*
X273628D01*
Y31968D01*
X273461D01*
Y32135D01*
X273294D01*
Y32302D01*
X273127D01*
Y32469D01*
Y32636D01*
X272960D01*
Y32803D01*
Y32969D01*
Y33136D01*
Y33303D01*
Y33470D01*
Y33637D01*
Y33804D01*
Y33971D01*
X273127D01*
Y34138D01*
Y34305D01*
Y34472D01*
X273294D01*
Y34639D01*
Y34806D01*
Y34973D01*
X273461D01*
Y35139D01*
X273628D01*
Y35306D01*
X273461D01*
Y35473D01*
X273628D01*
Y35640D01*
X273795D01*
Y35807D01*
Y35974D01*
Y36141D01*
X273962D01*
Y36308D01*
Y36475D01*
Y36642D01*
X274129D01*
Y36809D01*
Y36976D01*
Y37143D01*
X274296D01*
Y37309D01*
X274463D01*
Y37476D01*
X274629D01*
Y37643D01*
Y37810D01*
Y37977D01*
X274796D01*
Y38144D01*
Y38311D01*
Y38478D01*
X274963D01*
Y38645D01*
Y38812D01*
Y38979D01*
X275130D01*
Y39146D01*
X275297D01*
Y39312D01*
X275464D01*
Y39479D01*
Y39646D01*
X275631D01*
Y39813D01*
Y39980D01*
X275798D01*
Y40147D01*
Y40314D01*
Y40481D01*
X275965D01*
Y40648D01*
X276132D01*
Y40815D01*
X276299D01*
Y40982D01*
Y41149D01*
X276466D01*
Y41315D01*
Y41482D01*
X276632D01*
Y41649D01*
X276799D01*
Y41816D01*
X277133D01*
Y41649D01*
Y41482D01*
X277300D01*
Y41649D01*
X277634D01*
Y41816D01*
X277801D01*
Y41983D01*
X277968D01*
Y42150D01*
Y42317D01*
X278135D01*
Y42484D01*
X278302D01*
Y42651D01*
Y42818D01*
X278469D01*
Y42985D01*
Y43152D01*
X278636D01*
Y43319D01*
Y43485D01*
X278803D01*
Y43319D01*
Y43152D01*
Y42985D01*
X278636D01*
Y42818D01*
Y42651D01*
X278469D01*
Y42484D01*
Y42317D01*
X278302D01*
Y42150D01*
Y41983D01*
X278135D01*
Y41816D01*
Y41649D01*
X277968D01*
Y41482D01*
Y41315D01*
X277801D01*
Y41149D01*
X277634D01*
Y40982D01*
X277467D01*
Y40815D01*
Y40648D01*
Y40481D01*
Y40314D01*
Y40147D01*
Y39980D01*
X277634D01*
Y39813D01*
Y39646D01*
X277801D01*
Y39479D01*
X277968D01*
Y39312D01*
Y39146D01*
X278135D01*
Y38979D01*
X278302D01*
Y38812D01*
X278636D01*
Y38645D01*
X278803D01*
Y38478D01*
X278969D01*
Y38311D01*
X279637D01*
Y38144D01*
X281640D01*
Y38311D01*
X282308D01*
Y38478D01*
X282809D01*
Y38645D01*
X283142D01*
Y38812D01*
X283643D01*
Y38979D01*
X284144D01*
Y39146D01*
X284645D01*
Y39312D01*
X285145D01*
Y39479D01*
X285312D01*
Y39646D01*
X285479D01*
Y39479D01*
X285646D01*
Y39646D01*
X285813D01*
Y39813D01*
X286314D01*
Y39980D01*
X286982D01*
Y40147D01*
X287482D01*
Y40314D01*
X287649D01*
Y40481D01*
X287983D01*
Y40648D01*
X288484D01*
Y40815D01*
X288985D01*
Y40982D01*
X289485D01*
Y41149D01*
X289652D01*
Y41315D01*
X289986D01*
Y41482D01*
X290487D01*
Y41649D01*
X290821D01*
Y41816D01*
X291322D01*
Y41983D01*
X291488D01*
Y42150D01*
X291822D01*
Y42317D01*
X292156D01*
Y42484D01*
X292490D01*
Y42651D01*
X292657D01*
Y42818D01*
X292991D01*
Y42985D01*
X293158D01*
Y43152D01*
X293492D01*
Y43319D01*
X293659D01*
Y43485D01*
X293992D01*
Y43652D01*
Y43819D01*
X294326D01*
Y43986D01*
X294493D01*
Y44153D01*
X294660D01*
Y44320D01*
X294827D01*
Y44487D01*
X294994D01*
Y44654D01*
X295161D01*
Y44821D01*
X295328D01*
Y44988D01*
X295495D01*
Y45155D01*
X295662D01*
Y45322D01*
X295828D01*
Y45489D01*
Y45655D01*
X295995D01*
Y45822D01*
X296162D01*
Y45989D01*
X296329D01*
Y46156D01*
Y46323D01*
X296496D01*
Y46490D01*
X296663D01*
Y46657D01*
Y46824D01*
X296830D01*
Y46991D01*
X296997D01*
Y47158D01*
Y47325D01*
X297164D01*
Y47492D01*
X297331D01*
Y47659D01*
Y47825D01*
X297498D01*
Y47992D01*
Y48159D01*
X297665D01*
Y48326D01*
Y48493D01*
X297831D01*
Y48660D01*
Y48827D01*
X297998D01*
Y48994D01*
Y49161D01*
X298165D01*
Y49328D01*
Y49495D01*
X298332D01*
Y49662D01*
Y49829D01*
Y49995D01*
X298499D01*
Y50162D01*
X298666D01*
Y50329D01*
Y50496D01*
Y50663D01*
X298833D01*
Y50830D01*
Y50997D01*
Y51164D01*
X299000D01*
Y51331D01*
Y51498D01*
Y51665D01*
Y51831D01*
Y51999D01*
Y52165D01*
X297998D01*
Y52332D01*
X299000D01*
Y52499D01*
Y52666D01*
Y52833D01*
Y53000D01*
X298833D01*
Y53167D01*
Y53334D01*
Y53501D01*
X298666D01*
Y53668D01*
X298499D01*
Y53835D01*
X298332D01*
Y54001D01*
X297998D01*
Y54168D01*
X297498D01*
Y54335D01*
X294493D01*
Y54168D01*
X293325D01*
Y54001D01*
X292156D01*
Y53835D01*
X290988D01*
Y53668D01*
X290487D01*
Y53501D01*
X290320D01*
Y53668D01*
X290153D01*
Y53501D01*
X289485D01*
Y53334D01*
X288317D01*
Y53167D01*
X287148D01*
Y53000D01*
X285813D01*
Y52833D01*
X285646D01*
Y52666D01*
X284478D01*
Y52499D01*
X283309D01*
Y52332D01*
X281974D01*
Y52165D01*
X280805D01*
Y51999D01*
X280472D01*
Y51831D01*
X280305D01*
Y51999D01*
X280138D01*
Y51831D01*
X279971D01*
Y51999D01*
X279804D01*
Y51831D01*
X279303D01*
Y51665D01*
X278135D01*
Y51498D01*
X276966D01*
Y51331D01*
X275798D01*
Y51164D01*
X275297D01*
Y50997D01*
X274129D01*
Y50830D01*
X273294D01*
Y50997D01*
Y51164D01*
X273461D01*
Y51331D01*
Y51498D01*
X273795D01*
Y51665D01*
Y51831D01*
X273962D01*
Y51999D01*
Y52165D01*
X274129D01*
Y52332D01*
X274296D01*
Y52499D01*
Y52666D01*
X274463D01*
Y52833D01*
X274629D01*
Y53000D01*
X274796D01*
Y53167D01*
X274963D01*
Y53334D01*
Y53501D01*
X275130D01*
Y53668D01*
X275297D01*
Y53835D01*
X275464D01*
Y54001D01*
X275631D01*
Y54168D01*
X275798D01*
Y54335D01*
Y54502D01*
X275965D01*
Y54669D01*
X276132D01*
Y54836D01*
X276299D01*
Y55003D01*
X276466D01*
Y55170D01*
X276632D01*
Y55337D01*
X276799D01*
Y55504D01*
Y55671D01*
X277133D01*
Y55838D01*
X277300D01*
Y56005D01*
X277467D01*
Y56171D01*
Y56338D01*
X277634D01*
Y56505D01*
X277968D01*
Y56672D01*
X278135D01*
Y56839D01*
X278302D01*
Y57006D01*
Y57173D01*
X278469D01*
Y57340D01*
X278803D01*
Y57507D01*
X278969D01*
Y57674D01*
X279136D01*
Y57841D01*
X279303D01*
Y58008D01*
X279470D01*
Y58175D01*
X279637D01*
Y58341D01*
X279804D01*
Y58508D01*
X280138D01*
Y58675D01*
Y58842D01*
X280472D01*
Y59009D01*
X280639D01*
Y59176D01*
X280805D01*
Y59343D01*
X281139D01*
Y59510D01*
Y59677D01*
Y59844D01*
Y60011D01*
X281807D01*
Y60178D01*
X282308D01*
Y60345D01*
Y60511D01*
X282642D01*
Y60678D01*
X282809D01*
Y60845D01*
X283309D01*
Y61012D01*
X283476D01*
Y61179D01*
X283643D01*
Y61346D01*
X283977D01*
Y61513D01*
X284311D01*
Y61680D01*
X284645D01*
Y61847D01*
X284979D01*
Y62014D01*
X285145D01*
Y62181D01*
X285479D01*
Y62348D01*
X285813D01*
Y62515D01*
X286314D01*
Y62681D01*
X286648D01*
Y62848D01*
X286982D01*
Y63015D01*
X287316D01*
Y63182D01*
X287649D01*
Y63349D01*
X287816D01*
Y63516D01*
X287983D01*
Y63683D01*
X288150D01*
Y63850D01*
X288317D01*
Y64017D01*
X288651D01*
Y64184D01*
X288985D01*
Y64351D01*
X289152D01*
Y64518D01*
X289319D01*
Y64685D01*
X289485D01*
Y64851D01*
X289652D01*
Y65018D01*
X289986D01*
Y65185D01*
X290153D01*
Y65352D01*
X290320D01*
Y65519D01*
X290487D01*
Y65686D01*
X290821D01*
Y65853D01*
X290988D01*
Y66020D01*
X291155D01*
Y66187D01*
X291322D01*
Y66354D01*
X291488D01*
Y66521D01*
X291989D01*
Y66687D01*
X291822D01*
Y66855D01*
X291989D01*
Y67021D01*
X291822D01*
Y67188D01*
X291655D01*
Y67021D01*
X291155D01*
Y66855D01*
X290988D01*
Y67021D01*
X290821D01*
Y66855D01*
X290654D01*
Y67021D01*
X290487D01*
Y66855D01*
X290320D01*
Y67021D01*
X290153D01*
Y66855D01*
X289652D01*
Y67021D01*
X289485D01*
Y66855D01*
X288985D01*
Y67021D01*
X288818D01*
Y66855D01*
X288317D01*
Y67021D01*
X288150D01*
Y66855D01*
X287649D01*
Y67021D01*
X287482D01*
Y66855D01*
X286982D01*
Y67021D01*
X286815D01*
Y66855D01*
X286648D01*
Y67021D01*
X286481D01*
Y66855D01*
X286314D01*
Y67021D01*
X285813D01*
Y67188D01*
X284645D01*
Y67355D01*
X283977D01*
Y67522D01*
X283309D01*
Y67689D01*
X282809D01*
Y67856D01*
X282642D01*
Y68023D01*
X281807D01*
Y68190D01*
X280805D01*
Y68357D01*
X279804D01*
Y68524D01*
X279303D01*
Y68691D01*
D02*
G37*
G36*
X267619Y42985D02*
X265449D01*
Y42818D01*
X264948D01*
Y42651D01*
X264280D01*
Y42484D01*
X263279D01*
Y42317D01*
X262611D01*
Y42150D01*
X261943D01*
Y41983D01*
X261777D01*
Y41816D01*
X261276D01*
Y41649D01*
X260608D01*
Y41482D01*
X260107D01*
Y41315D01*
X259773D01*
Y41149D01*
X259440D01*
Y40982D01*
X259106D01*
Y40815D01*
X258772D01*
Y40648D01*
X258271D01*
Y40481D01*
X257937D01*
Y40314D01*
X257770D01*
Y40147D01*
X257603D01*
Y39980D01*
X257103D01*
Y39813D01*
X256936D01*
Y39646D01*
X256602D01*
Y39479D01*
X256435D01*
Y39312D01*
X256101D01*
Y39146D01*
X255934D01*
Y38979D01*
X255767D01*
Y38812D01*
X255434D01*
Y38645D01*
X255267D01*
Y38478D01*
X255100D01*
Y38311D01*
X254933D01*
Y38144D01*
X254599D01*
Y37977D01*
Y37810D01*
Y37643D01*
Y37476D01*
X255100D01*
Y37643D01*
X256435D01*
Y37810D01*
X256936D01*
Y37977D01*
X257103D01*
Y37810D01*
X257270D01*
Y37977D01*
X257437D01*
Y37810D01*
X257603D01*
Y37977D01*
X257770D01*
Y37810D01*
X257937D01*
Y37977D01*
X258939D01*
Y38144D01*
X264447D01*
Y37977D01*
X265115D01*
Y37810D01*
X265282D01*
Y37977D01*
X265449D01*
Y37810D01*
X265616D01*
Y37977D01*
X265783D01*
Y37810D01*
X266117D01*
Y37643D01*
X267118D01*
Y37476D01*
X267953D01*
Y37309D01*
X269288D01*
Y37476D01*
X269622D01*
Y37643D01*
X269789D01*
Y37810D01*
Y37977D01*
Y38144D01*
Y38311D01*
X269622D01*
Y38478D01*
Y38645D01*
X269455D01*
Y38812D01*
X269121D01*
Y38979D01*
X268787D01*
Y39146D01*
X268453D01*
Y39312D01*
X267953D01*
Y39479D01*
X267619D01*
Y39646D01*
X266617D01*
Y39813D01*
X264781D01*
Y39980D01*
X262611D01*
Y40147D01*
X264614D01*
Y40314D01*
X264781D01*
Y40147D01*
X267953D01*
Y40314D01*
X268120D01*
Y40481D01*
X268286D01*
Y40648D01*
X268453D01*
Y40815D01*
X268620D01*
Y40982D01*
Y41149D01*
Y41315D01*
Y41482D01*
Y41649D01*
Y41816D01*
Y41983D01*
X268453D01*
Y42150D01*
X268286D01*
Y42317D01*
Y42484D01*
X268120D01*
Y42651D01*
X267953D01*
Y42818D01*
X267619D01*
Y42985D01*
D02*
G37*
G36*
X249758Y54168D02*
X249257D01*
Y54001D01*
X249090D01*
Y53835D01*
X248924D01*
Y53668D01*
X248757D01*
Y53501D01*
X248590D01*
Y53334D01*
X248423D01*
Y53167D01*
X248256D01*
Y53000D01*
X248089D01*
Y52833D01*
X247922D01*
Y52666D01*
Y52499D01*
X247755D01*
Y52332D01*
X247421D01*
Y52165D01*
Y51999D01*
X247254D01*
Y51831D01*
Y51665D01*
X247087D01*
Y51498D01*
X246921D01*
Y51331D01*
X246754D01*
Y51164D01*
X246587D01*
Y50997D01*
Y50830D01*
X246420D01*
Y50663D01*
Y50496D01*
X246253D01*
Y50329D01*
Y50162D01*
X245919D01*
Y49995D01*
Y49829D01*
X245752D01*
Y49662D01*
Y49495D01*
Y49328D01*
X245585D01*
Y49161D01*
Y48994D01*
X245418D01*
Y48827D01*
Y48660D01*
X245251D01*
Y48493D01*
X245084D01*
Y48326D01*
Y48159D01*
Y47992D01*
X244917D01*
Y47825D01*
Y47659D01*
Y47492D01*
X244750D01*
Y47325D01*
Y47158D01*
Y46991D01*
Y46824D01*
X244584D01*
Y46657D01*
Y46490D01*
Y46323D01*
Y46156D01*
Y45989D01*
X244417D01*
Y45822D01*
X244250D01*
Y45655D01*
Y45489D01*
Y45322D01*
Y45155D01*
Y44988D01*
Y44821D01*
Y44654D01*
Y44487D01*
Y44320D01*
Y44153D01*
Y43986D01*
X244083D01*
Y43819D01*
Y43652D01*
Y43485D01*
Y43319D01*
Y43152D01*
X244250D01*
Y42985D01*
Y42818D01*
Y42651D01*
Y42484D01*
Y42317D01*
Y42150D01*
Y41983D01*
Y41816D01*
Y41649D01*
Y41482D01*
Y41315D01*
X244417D01*
Y41149D01*
X244584D01*
Y40982D01*
Y40815D01*
Y40648D01*
Y40481D01*
Y40314D01*
X244750D01*
Y40147D01*
Y39980D01*
Y39813D01*
X244917D01*
Y39646D01*
Y39479D01*
Y39312D01*
Y39146D01*
X245084D01*
Y38979D01*
Y38812D01*
X245251D01*
Y38645D01*
Y38478D01*
X245418D01*
Y38311D01*
Y38144D01*
X245585D01*
Y37977D01*
Y37810D01*
Y37643D01*
X245752D01*
Y37476D01*
Y37309D01*
X245919D01*
Y37143D01*
X246086D01*
Y36976D01*
X246253D01*
Y36809D01*
Y36642D01*
X246754D01*
Y36475D01*
X248256D01*
Y36642D01*
X248924D01*
Y36809D01*
X249257D01*
Y36976D01*
X249424D01*
Y37143D01*
X249758D01*
Y37309D01*
X250092D01*
Y37476D01*
Y37643D01*
X250259D01*
Y37810D01*
X250426D01*
Y37977D01*
X250593D01*
Y38144D01*
Y38311D01*
X250760D01*
Y38478D01*
Y38645D01*
X250927D01*
Y38812D01*
Y38979D01*
Y39146D01*
Y39312D01*
X250760D01*
Y39479D01*
Y39646D01*
X250593D01*
Y39813D01*
X250426D01*
Y39980D01*
Y40147D01*
X250259D01*
Y40314D01*
X250092D01*
Y40481D01*
Y40648D01*
X249925D01*
Y40815D01*
Y40982D01*
X249758D01*
Y41149D01*
Y41315D01*
Y41482D01*
X249591D01*
Y41649D01*
Y41816D01*
Y41983D01*
X249424D01*
Y42150D01*
X249257D01*
Y42317D01*
Y42484D01*
Y42651D01*
X249090D01*
Y42818D01*
Y42985D01*
Y43152D01*
Y43319D01*
Y43485D01*
X248924D01*
Y43652D01*
Y43819D01*
Y43986D01*
Y44153D01*
Y44320D01*
Y44487D01*
Y44654D01*
X248757D01*
Y44821D01*
Y44988D01*
Y45155D01*
Y45322D01*
Y45489D01*
Y45655D01*
Y45822D01*
Y45989D01*
Y46156D01*
Y46323D01*
Y46490D01*
Y46657D01*
Y46824D01*
Y46991D01*
Y47158D01*
Y47325D01*
Y47492D01*
Y47659D01*
Y47825D01*
Y47992D01*
Y48159D01*
Y48326D01*
Y48493D01*
Y48660D01*
Y48827D01*
Y48994D01*
Y49161D01*
Y49328D01*
Y49495D01*
X248924D01*
Y49662D01*
Y49829D01*
Y49995D01*
Y50162D01*
Y50329D01*
Y50496D01*
Y50663D01*
Y50830D01*
X249090D01*
Y50997D01*
Y51164D01*
Y51331D01*
Y51498D01*
Y51665D01*
Y51831D01*
X249257D01*
Y51999D01*
Y52165D01*
Y52332D01*
X249424D01*
Y52499D01*
Y52666D01*
Y52833D01*
X249591D01*
Y53000D01*
Y53167D01*
Y53334D01*
Y53501D01*
X249758D01*
Y53668D01*
Y53835D01*
Y54001D01*
Y54168D01*
D02*
G37*
G36*
X240244Y45322D02*
X239743D01*
Y45155D01*
X239576D01*
Y44988D01*
X239409D01*
Y44821D01*
X239576D01*
Y44654D01*
X239409D01*
Y44487D01*
X239242D01*
Y44320D01*
Y44153D01*
Y43986D01*
X239075D01*
Y43819D01*
Y43652D01*
Y43485D01*
X238908D01*
Y43319D01*
Y43152D01*
Y42985D01*
X238741D01*
Y42818D01*
Y42651D01*
Y42484D01*
X238574D01*
Y42317D01*
X238407D01*
Y42150D01*
Y41983D01*
X238241D01*
Y41816D01*
Y41649D01*
Y41482D01*
Y41315D01*
X238074D01*
Y41149D01*
Y40982D01*
Y40815D01*
Y40648D01*
X237907D01*
Y40481D01*
Y40314D01*
Y40147D01*
Y39980D01*
X237740D01*
Y39813D01*
X237907D01*
Y39646D01*
X237740D01*
Y39479D01*
X237907D01*
Y39312D01*
X238074D01*
Y39479D01*
X238241D01*
Y39646D01*
Y39813D01*
Y39980D01*
X238407D01*
Y40147D01*
X238574D01*
Y40314D01*
X238741D01*
Y40481D01*
X238908D01*
Y40314D01*
Y40147D01*
X239075D01*
Y39980D01*
Y39813D01*
X239242D01*
Y39646D01*
Y39479D01*
X239576D01*
Y39312D01*
Y39146D01*
Y38979D01*
X239409D01*
Y38812D01*
X239576D01*
Y38645D01*
X239743D01*
Y38478D01*
Y38311D01*
Y38144D01*
Y37977D01*
Y37810D01*
Y37643D01*
Y37476D01*
Y37309D01*
Y37143D01*
Y36976D01*
Y36809D01*
Y36642D01*
Y36475D01*
X239576D01*
Y36308D01*
X239409D01*
Y36141D01*
X239576D01*
Y35974D01*
Y35807D01*
X239242D01*
Y35640D01*
Y35473D01*
Y35306D01*
X239075D01*
Y35139D01*
Y34973D01*
X239409D01*
Y34806D01*
X238241D01*
Y34639D01*
Y34472D01*
Y34305D01*
X238407D01*
Y34138D01*
Y33971D01*
Y33804D01*
X238741D01*
Y33637D01*
Y33470D01*
X238908D01*
Y33303D01*
Y33136D01*
X239075D01*
Y32969D01*
X239242D01*
Y32803D01*
X239576D01*
Y32636D01*
X239743D01*
Y32803D01*
X239910D01*
Y32969D01*
X240077D01*
Y33136D01*
X240244D01*
Y33303D01*
Y33470D01*
X240578D01*
Y33637D01*
Y33804D01*
Y33971D01*
X240744D01*
Y34138D01*
X240911D01*
Y34305D01*
Y34472D01*
Y34639D01*
X241078D01*
Y34806D01*
X241245D01*
Y34973D01*
Y35139D01*
Y35306D01*
X241412D01*
Y35473D01*
Y35640D01*
Y35807D01*
X241579D01*
Y35974D01*
Y36141D01*
Y36308D01*
Y36475D01*
Y36642D01*
Y36809D01*
Y36976D01*
Y37143D01*
Y37309D01*
X241746D01*
Y37476D01*
Y37643D01*
Y37810D01*
X241913D01*
Y37977D01*
X241746D01*
Y38144D01*
Y38311D01*
Y38478D01*
X241913D01*
Y38645D01*
X241746D01*
Y38812D01*
Y38979D01*
Y39146D01*
X241913D01*
Y39312D01*
X241746D01*
Y39479D01*
Y39646D01*
X241579D01*
Y39813D01*
Y39980D01*
Y40147D01*
Y40314D01*
Y40481D01*
Y40648D01*
Y40815D01*
Y40982D01*
Y41149D01*
Y41315D01*
Y41482D01*
Y41649D01*
X241412D01*
Y41816D01*
Y41983D01*
Y42150D01*
Y42317D01*
Y42484D01*
X241245D01*
Y42651D01*
Y42818D01*
Y42985D01*
Y43152D01*
Y43319D01*
X241078D01*
Y43485D01*
X240911D01*
Y43652D01*
Y43819D01*
Y43986D01*
Y44153D01*
X240744D01*
Y44320D01*
Y44487D01*
Y44654D01*
Y44821D01*
X240578D01*
Y44988D01*
X240411D01*
Y45155D01*
X240244D01*
Y45322D01*
D02*
G37*
G36*
X241913Y44988D02*
X241412D01*
Y44821D01*
Y44654D01*
Y44487D01*
Y44320D01*
Y44153D01*
X241579D01*
Y43986D01*
Y43819D01*
Y43652D01*
Y43485D01*
X241746D01*
Y43319D01*
Y43152D01*
Y42985D01*
Y42818D01*
X241913D01*
Y42651D01*
X242080D01*
Y42484D01*
Y42317D01*
Y42150D01*
Y41983D01*
Y41816D01*
Y41649D01*
Y41482D01*
X242247D01*
Y41315D01*
Y41149D01*
Y40982D01*
Y40815D01*
Y40648D01*
Y40481D01*
Y40314D01*
Y40147D01*
Y39980D01*
Y39813D01*
Y39646D01*
Y39479D01*
Y39312D01*
Y39146D01*
Y38979D01*
Y38812D01*
Y38645D01*
Y38478D01*
Y38311D01*
Y38144D01*
Y37977D01*
Y37810D01*
Y37643D01*
Y37476D01*
Y37309D01*
Y37143D01*
Y36976D01*
Y36809D01*
Y36642D01*
Y36475D01*
Y36308D01*
X242080D01*
Y36141D01*
Y35974D01*
Y35807D01*
Y35640D01*
Y35473D01*
Y35306D01*
X241913D01*
Y35139D01*
Y34973D01*
X241746D01*
Y34806D01*
Y34639D01*
Y34472D01*
X241579D01*
Y34305D01*
Y34138D01*
Y33971D01*
Y33804D01*
X241412D01*
Y33637D01*
Y33470D01*
Y33303D01*
X241245D01*
Y33136D01*
Y32969D01*
Y32803D01*
X241078D01*
Y32636D01*
X240911D01*
Y32469D01*
Y32302D01*
Y32135D01*
X242247D01*
Y32302D01*
X242414D01*
Y32469D01*
Y32636D01*
Y32803D01*
X242581D01*
Y32969D01*
Y33136D01*
X242914D01*
Y33303D01*
Y33470D01*
X243081D01*
Y33637D01*
Y33804D01*
X243248D01*
Y33971D01*
Y34138D01*
X243582D01*
Y34305D01*
Y34472D01*
X243916D01*
Y34639D01*
X244083D01*
Y34806D01*
X244584D01*
Y34973D01*
X244917D01*
Y35139D01*
Y35306D01*
X245084D01*
Y35473D01*
Y35640D01*
Y35807D01*
X244917D01*
Y35974D01*
Y36141D01*
Y36308D01*
X244750D01*
Y36475D01*
Y36642D01*
X244584D01*
Y36809D01*
Y36976D01*
X244417D01*
Y37143D01*
X244250D01*
Y37309D01*
Y37476D01*
X244083D01*
Y37643D01*
Y37810D01*
X243916D01*
Y37977D01*
Y38144D01*
Y38311D01*
X243749D01*
Y38478D01*
Y38645D01*
Y38812D01*
Y38979D01*
X243582D01*
Y39146D01*
X243415D01*
Y39312D01*
Y39479D01*
X243582D01*
Y39646D01*
X243415D01*
Y39813D01*
X243582D01*
Y39980D01*
X243415D01*
Y40147D01*
Y40314D01*
X243248D01*
Y40481D01*
Y40648D01*
Y40815D01*
Y40982D01*
Y41149D01*
Y41315D01*
Y41482D01*
Y41649D01*
Y41816D01*
Y41983D01*
Y42150D01*
Y42317D01*
Y42484D01*
Y42651D01*
Y42818D01*
Y42985D01*
Y43152D01*
Y43319D01*
Y43485D01*
Y43652D01*
Y43819D01*
Y43986D01*
Y44153D01*
Y44320D01*
Y44487D01*
Y44654D01*
Y44821D01*
X241913D01*
Y44988D01*
D02*
G37*
%LPD*%
G36*
X280972Y65686D02*
X281807D01*
Y65519D01*
X282809D01*
Y65352D01*
Y65185D01*
X283977D01*
Y65018D01*
X286147D01*
Y64851D01*
X285646D01*
Y64685D01*
X285479D01*
Y64518D01*
X285312D01*
Y64351D01*
X284979D01*
Y64184D01*
X284812D01*
Y64017D01*
X284478D01*
Y64184D01*
X284645D01*
Y64351D01*
X284144D01*
Y64518D01*
X283977D01*
Y64351D01*
X283476D01*
Y64518D01*
X282976D01*
Y64685D01*
X280972D01*
Y64851D01*
X279971D01*
Y64685D01*
X279136D01*
Y64518D01*
Y64351D01*
X278969D01*
Y64184D01*
X278803D01*
Y64017D01*
Y63850D01*
Y63683D01*
Y63516D01*
Y63349D01*
Y63182D01*
X278969D01*
Y63015D01*
X279136D01*
Y62848D01*
X279303D01*
Y62681D01*
X279637D01*
Y62515D01*
X280639D01*
Y62348D01*
X279971D01*
Y62181D01*
X278302D01*
Y62014D01*
X278135D01*
Y61847D01*
X277968D01*
Y61680D01*
Y61513D01*
Y61346D01*
Y61179D01*
X277801D01*
Y61346D01*
X277634D01*
Y61513D01*
X277467D01*
Y61680D01*
X277300D01*
Y61847D01*
X277133D01*
Y62014D01*
X276966D01*
Y62181D01*
X276799D01*
Y62348D01*
Y62515D01*
X276632D01*
Y62681D01*
Y62848D01*
Y63015D01*
X276466D01*
Y63182D01*
Y63349D01*
Y63516D01*
Y63683D01*
Y63850D01*
Y64017D01*
Y64184D01*
X276632D01*
Y64351D01*
Y64518D01*
X276799D01*
Y64685D01*
Y64851D01*
X277133D01*
Y65018D01*
X277300D01*
Y65185D01*
X277467D01*
Y65352D01*
X277634D01*
Y65519D01*
X277968D01*
Y65686D01*
X278469D01*
Y65853D01*
X280972D01*
Y65686D01*
D02*
G37*
G36*
X284311Y63683D02*
X284144D01*
Y63516D01*
X283977D01*
Y63683D01*
Y63850D01*
X284311D01*
Y63683D01*
D02*
G37*
G36*
X297331Y51999D02*
X296830D01*
Y51831D01*
X295662D01*
Y51999D01*
X296162D01*
Y52165D01*
X297331D01*
Y51999D01*
D02*
G37*
G36*
X264280Y54669D02*
X263946D01*
Y54502D01*
Y54335D01*
X263446D01*
Y54168D01*
X263279D01*
Y54001D01*
X262945D01*
Y53835D01*
X262778D01*
Y53668D01*
X262611D01*
Y53501D01*
X262444D01*
Y53334D01*
X262277D01*
Y53167D01*
X262110D01*
Y53000D01*
Y52833D01*
X261943D01*
Y52666D01*
X261777D01*
Y52499D01*
X261943D01*
Y52332D01*
X262611D01*
Y52499D01*
X263112D01*
Y52666D01*
X263780D01*
Y52833D01*
X263946D01*
Y53000D01*
X264113D01*
Y52833D01*
X264280D01*
Y53000D01*
X264781D01*
Y53167D01*
X266283D01*
Y53334D01*
X268120D01*
Y53167D01*
X269622D01*
Y53000D01*
X270289D01*
Y52833D01*
Y52666D01*
X269789D01*
Y52499D01*
X269288D01*
Y52332D01*
X268787D01*
Y52165D01*
X268286D01*
Y51999D01*
X268120D01*
Y51831D01*
Y51665D01*
Y51498D01*
Y51331D01*
Y51164D01*
X267953D01*
Y50997D01*
Y50830D01*
Y50663D01*
X267786D01*
Y50496D01*
X267619D01*
Y50329D01*
X267452D01*
Y50162D01*
Y49995D01*
X267285D01*
Y49829D01*
X267118D01*
Y49662D01*
Y49495D01*
X266951D01*
Y49328D01*
X266617D01*
Y49161D01*
X266450D01*
Y48994D01*
Y48827D01*
X266283D01*
Y48660D01*
X266450D01*
Y48493D01*
X267786D01*
Y48326D01*
X267118D01*
Y48159D01*
X264280D01*
Y48326D01*
X263446D01*
Y48493D01*
X263279D01*
Y48660D01*
X263112D01*
Y48493D01*
X262945D01*
Y48660D01*
X262778D01*
Y48827D01*
X262277D01*
Y48994D01*
X261777D01*
Y49161D01*
X261443D01*
Y49328D01*
X261109D01*
Y49495D01*
X260942D01*
Y49662D01*
X260107D01*
Y49495D01*
X259940D01*
Y49328D01*
X259773D01*
Y49495D01*
X259606D01*
Y49328D01*
X259273D01*
Y49161D01*
X258605D01*
Y48994D01*
X258104D01*
Y49161D01*
X258271D01*
Y49328D01*
Y49495D01*
X258438D01*
Y49662D01*
X258605D01*
Y49829D01*
X258939D01*
Y49995D01*
X259106D01*
Y50162D01*
X259440D01*
Y50329D01*
X259606D01*
Y50496D01*
X259940D01*
Y50663D01*
Y50830D01*
Y50997D01*
Y51164D01*
Y51331D01*
Y51498D01*
Y51665D01*
X260107D01*
Y51831D01*
X260274D01*
Y51999D01*
X260107D01*
Y52165D01*
X260274D01*
Y52332D01*
X260441D01*
Y52499D01*
X260608D01*
Y52666D01*
Y52833D01*
X260775D01*
Y53000D01*
Y53167D01*
X260942D01*
Y53334D01*
X261109D01*
Y53501D01*
X261443D01*
Y53668D01*
Y53835D01*
X261777D01*
Y54001D01*
X262110D01*
Y54168D01*
X262611D01*
Y54335D01*
X262778D01*
Y54502D01*
X263279D01*
Y54669D01*
X263613D01*
Y54836D01*
X264280D01*
Y54669D01*
D02*
G37*
G36*
X274463Y47825D02*
Y47659D01*
X273795D01*
Y47825D01*
X274129D01*
Y47992D01*
X274463D01*
Y47825D01*
D02*
G37*
G36*
X284311Y47659D02*
X284478D01*
Y47492D01*
X284311D01*
Y47659D01*
X283977D01*
Y47825D01*
X284311D01*
Y47659D01*
D02*
G37*
G36*
X286648Y47825D02*
Y47659D01*
X286314D01*
Y47492D01*
X286147D01*
Y47325D01*
X285813D01*
Y47492D01*
X285980D01*
Y47659D01*
X286147D01*
Y47825D01*
X286314D01*
Y47992D01*
X286648D01*
Y47825D01*
D02*
G37*
G36*
X283476Y47492D02*
X283643D01*
Y47325D01*
X283476D01*
Y47492D01*
X283142D01*
Y47659D01*
X283476D01*
Y47492D01*
D02*
G37*
G36*
X293992Y51498D02*
X292657D01*
Y51331D01*
X291155D01*
Y51164D01*
X290988D01*
Y50997D01*
X289652D01*
Y50830D01*
X288317D01*
Y50663D01*
X287148D01*
Y50496D01*
X285980D01*
Y50329D01*
X285479D01*
Y50162D01*
X284645D01*
Y49995D01*
X283643D01*
Y49829D01*
X282642D01*
Y49662D01*
X281640D01*
Y49495D01*
X281306D01*
Y49328D01*
X280639D01*
Y49161D01*
X279804D01*
Y48994D01*
X279303D01*
Y48827D01*
X278636D01*
Y48660D01*
X278469D01*
Y48493D01*
Y48326D01*
X278302D01*
Y48159D01*
Y47992D01*
Y47825D01*
Y47659D01*
Y47492D01*
Y47325D01*
Y47158D01*
Y46991D01*
X278135D01*
Y47158D01*
Y47325D01*
Y47492D01*
Y47659D01*
Y47825D01*
Y47992D01*
Y48159D01*
Y48326D01*
Y48493D01*
Y48660D01*
X277634D01*
Y48493D01*
X276966D01*
Y48660D01*
X277133D01*
Y48827D01*
X277801D01*
Y48994D01*
X278636D01*
Y49161D01*
X279470D01*
Y49328D01*
X280138D01*
Y49495D01*
X280639D01*
Y49662D01*
X281473D01*
Y49829D01*
X282308D01*
Y49995D01*
X283476D01*
Y50162D01*
X284311D01*
Y50329D01*
X284645D01*
Y50496D01*
X285646D01*
Y50663D01*
X286815D01*
Y50830D01*
X287983D01*
Y50997D01*
X289152D01*
Y51164D01*
X289652D01*
Y51331D01*
X290988D01*
Y51498D01*
X292490D01*
Y51665D01*
X293992D01*
Y51498D01*
D02*
G37*
G36*
X271959Y46991D02*
X271792D01*
Y46824D01*
X271291D01*
Y46991D01*
X271458D01*
Y47158D01*
X271959D01*
Y46991D01*
D02*
G37*
G36*
X270289Y46323D02*
X269789D01*
Y46156D01*
X269622D01*
Y46323D01*
Y46490D01*
X270289D01*
Y46323D01*
D02*
G37*
G36*
X283309Y46991D02*
Y46824D01*
Y46657D01*
X283643D01*
Y46490D01*
X282976D01*
Y46323D01*
Y46156D01*
Y45989D01*
X283977D01*
Y45822D01*
X283476D01*
Y45655D01*
X283142D01*
Y45489D01*
X282809D01*
Y45322D01*
X282642D01*
Y45489D01*
Y45655D01*
X282809D01*
Y45822D01*
Y45989D01*
Y46156D01*
Y46323D01*
Y46490D01*
X282642D01*
Y46657D01*
X282475D01*
Y46824D01*
Y46991D01*
X282642D01*
Y47158D01*
X283309D01*
Y46991D01*
D02*
G37*
G36*
X278469Y46490D02*
X278636D01*
Y46323D01*
Y46156D01*
X278803D01*
Y45989D01*
Y45822D01*
X278969D01*
Y45655D01*
Y45489D01*
Y45322D01*
Y45155D01*
Y44988D01*
X279136D01*
Y44821D01*
Y44654D01*
Y44487D01*
X278969D01*
Y44320D01*
Y44153D01*
Y43986D01*
Y43819D01*
Y43652D01*
Y43485D01*
X278803D01*
Y43652D01*
Y43819D01*
Y43986D01*
Y44153D01*
Y44320D01*
Y44487D01*
Y44654D01*
Y44821D01*
Y44988D01*
Y45155D01*
Y45322D01*
Y45489D01*
Y45655D01*
X278636D01*
Y45822D01*
Y45989D01*
X278469D01*
Y46156D01*
Y46323D01*
Y46490D01*
X278302D01*
Y46657D01*
X278469D01*
Y46490D01*
D02*
G37*
%LPC*%
G36*
X266951Y51999D02*
X266784D01*
Y51831D01*
X266617D01*
Y51999D01*
X266450D01*
Y51831D01*
X266117D01*
Y51665D01*
X265449D01*
Y51498D01*
X264781D01*
Y51331D01*
X264447D01*
Y51164D01*
X264280D01*
Y50997D01*
Y50830D01*
X264948D01*
Y50663D01*
X264447D01*
Y50496D01*
X263780D01*
Y50663D01*
X263446D01*
Y50830D01*
X262611D01*
Y50663D01*
X262444D01*
Y50496D01*
X262611D01*
Y50329D01*
Y50162D01*
X262945D01*
Y49995D01*
X263279D01*
Y49829D01*
X263613D01*
Y49662D01*
X263780D01*
Y49495D01*
X263946D01*
Y49662D01*
X264113D01*
Y49495D01*
X264280D01*
Y49328D01*
X264447D01*
Y49495D01*
X264614D01*
Y49328D01*
X264781D01*
Y49495D01*
X265282D01*
Y49662D01*
X265449D01*
Y49829D01*
X265783D01*
Y49995D01*
X265949D01*
Y50162D01*
X266117D01*
Y50329D01*
X266283D01*
Y50496D01*
X266450D01*
Y50663D01*
X266617D01*
Y50830D01*
Y50997D01*
X266784D01*
Y51164D01*
X266951D01*
Y51331D01*
X266784D01*
Y51498D01*
X267118D01*
Y51665D01*
Y51831D01*
X266951D01*
Y51999D01*
D02*
G37*
G36*
X178746Y35268D02*
X177698Y30236D01*
X178907D01*
X178975Y30244D01*
X179059D01*
X179144Y30253D01*
X179338Y30270D01*
X179550Y30287D01*
X179761Y30320D01*
X179973Y30363D01*
X179990D01*
X180032Y30380D01*
X180091Y30397D01*
X180167Y30422D01*
X180260Y30456D01*
X180353Y30490D01*
X180548Y30591D01*
X180565Y30600D01*
X180599Y30625D01*
X180658Y30676D01*
X180734Y30735D01*
X180827Y30811D01*
X180920Y30904D01*
X181022Y31006D01*
X181123Y31124D01*
Y31132D01*
X181140Y31141D01*
X181157Y31166D01*
X181182Y31200D01*
X181241Y31293D01*
X181318Y31411D01*
X181402Y31555D01*
X181495Y31725D01*
X181580Y31911D01*
X181664Y32114D01*
Y32122D01*
X181673Y32139D01*
X181681Y32173D01*
X181698Y32215D01*
X181715Y32266D01*
X181732Y32325D01*
X181749Y32401D01*
X181766Y32486D01*
X181800Y32672D01*
X181833Y32883D01*
X181859Y33120D01*
X181867Y33382D01*
Y33391D01*
Y33416D01*
Y33458D01*
Y33518D01*
X181859Y33577D01*
X181850Y33653D01*
X181833Y33831D01*
X181800Y34025D01*
X181749Y34228D01*
X181681Y34423D01*
X181639Y34516D01*
X181588Y34600D01*
Y34609D01*
X181580Y34617D01*
X181537Y34668D01*
X181478Y34744D01*
X181394Y34829D01*
X181292Y34922D01*
X181174Y35015D01*
X181038Y35099D01*
X180886Y35159D01*
X180869Y35167D01*
X180827Y35175D01*
X180751Y35192D01*
X180641Y35218D01*
X180506Y35235D01*
X180336Y35252D01*
X180133Y35260D01*
X179905Y35268D01*
X178746D01*
D02*
G37*
G36*
X206870Y35387D02*
X206802Y35378D01*
X206726Y35370D01*
X206633Y35345D01*
X206532Y35319D01*
X206430Y35277D01*
X206320Y35218D01*
X206312Y35209D01*
X206278Y35184D01*
X206218Y35150D01*
X206151Y35091D01*
X206075Y35015D01*
X205982Y34913D01*
X205889Y34795D01*
X205796Y34660D01*
Y34651D01*
X205779Y34634D01*
X205762Y34600D01*
X205736Y34550D01*
X205703Y34490D01*
X205669Y34423D01*
X205627Y34338D01*
X205584Y34237D01*
X205533Y34127D01*
X205491Y34000D01*
X205432Y33856D01*
X205381Y33704D01*
X205330Y33543D01*
X205271Y33365D01*
X205221Y33171D01*
X205170Y32968D01*
Y32959D01*
X205161Y32926D01*
X205153Y32875D01*
X205136Y32807D01*
X205119Y32731D01*
X205102Y32638D01*
X205077Y32528D01*
X205060Y32418D01*
X205018Y32173D01*
X204984Y31919D01*
X204958Y31665D01*
X204950Y31538D01*
Y31428D01*
Y31420D01*
Y31403D01*
Y31369D01*
Y31327D01*
X204958Y31276D01*
Y31225D01*
X204975Y31090D01*
X205001Y30938D01*
X205034Y30786D01*
X205077Y30633D01*
X205144Y30498D01*
Y30490D01*
X205161Y30481D01*
X205195Y30422D01*
X205254Y30354D01*
X205347Y30270D01*
X205457Y30177D01*
X205601Y30109D01*
X205762Y30050D01*
X205855Y30041D01*
X205948Y30033D01*
X205990D01*
X206024Y30041D01*
X206117Y30058D01*
X206227Y30084D01*
X206362Y30134D01*
X206498Y30210D01*
X206574Y30253D01*
X206650Y30312D01*
X206718Y30371D01*
X206794Y30447D01*
X206802Y30456D01*
X206819Y30473D01*
X206844Y30506D01*
X206887Y30557D01*
X206929Y30625D01*
X206980Y30701D01*
X207039Y30786D01*
X207107Y30887D01*
X207166Y31005D01*
X207242Y31141D01*
X207310Y31276D01*
X207377Y31437D01*
X207445Y31606D01*
X207504Y31784D01*
X207563Y31978D01*
X207623Y32190D01*
Y32207D01*
X207631Y32240D01*
X207648Y32300D01*
X207665Y32376D01*
X207690Y32477D01*
X207707Y32587D01*
X207733Y32714D01*
X207766Y32849D01*
X207792Y32993D01*
X207817Y33145D01*
X207859Y33458D01*
X207893Y33771D01*
X207902Y33915D01*
Y34059D01*
Y34067D01*
Y34093D01*
Y34127D01*
Y34177D01*
X207893Y34228D01*
X207885Y34296D01*
X207868Y34448D01*
X207834Y34617D01*
X207792Y34786D01*
X207724Y34939D01*
X207682Y35015D01*
X207631Y35074D01*
X207623Y35091D01*
X207580Y35125D01*
X207521Y35175D01*
X207445Y35235D01*
X207335Y35285D01*
X207217Y35336D01*
X207081Y35370D01*
X206921Y35387D01*
X206870D01*
D02*
G37*
G36*
X202127Y59003D02*
Y58988D01*
X202112Y58958D01*
X202097Y58899D01*
X202082Y58810D01*
X202067Y58707D01*
X202038Y58588D01*
X202008Y58455D01*
X201964Y58307D01*
X201875Y57981D01*
X201771Y57611D01*
X201653Y57211D01*
X201504Y56811D01*
X200261Y53479D01*
X204126D01*
X202941Y56619D01*
Y56634D01*
X202911Y56678D01*
X202882Y56752D01*
X202852Y56856D01*
X202808Y56974D01*
X202748Y57122D01*
X202689Y57285D01*
X202630Y57463D01*
X202497Y57833D01*
X202363Y58233D01*
X202245Y58633D01*
X202127Y59003D01*
D02*
G37*
G36*
X179470Y52931D02*
X179455D01*
X179440Y52917D01*
X179396Y52902D01*
X179322Y52887D01*
X179248Y52857D01*
X179144Y52828D01*
X179026Y52783D01*
X178892Y52754D01*
X178744Y52709D01*
X178581Y52665D01*
X178389Y52621D01*
X178182Y52576D01*
X177959Y52532D01*
X177723Y52487D01*
X177471Y52443D01*
X177190Y52398D01*
X177145D01*
X177115Y52384D01*
X177056D01*
X176893Y52354D01*
X176716Y52324D01*
X176523Y52280D01*
X176316Y52235D01*
X176123Y52176D01*
X175975Y52117D01*
X175960D01*
X175916Y52087D01*
X175857Y52058D01*
X175768Y52013D01*
X175590Y51865D01*
X175501Y51776D01*
X175427Y51673D01*
X175413Y51658D01*
X175398Y51628D01*
X175368Y51554D01*
X175338Y51480D01*
X175294Y51377D01*
X175264Y51273D01*
X175250Y51140D01*
X175235Y51006D01*
Y50977D01*
Y50918D01*
X175264Y50814D01*
X175294Y50681D01*
X175338Y50547D01*
X175413Y50384D01*
X175516Y50236D01*
X175649Y50088D01*
X175664Y50073D01*
X175723Y50029D01*
X175827Y49970D01*
X175960Y49911D01*
X176138Y49837D01*
X176360Y49777D01*
X176612Y49733D01*
X176893Y49718D01*
X177027D01*
X177175Y49733D01*
X177367Y49763D01*
X177589Y49807D01*
X177826Y49866D01*
X178078Y49940D01*
X178315Y50059D01*
X178330D01*
X178344Y50073D01*
X178419Y50118D01*
X178537Y50207D01*
X178670Y50310D01*
X178818Y50444D01*
X178981Y50621D01*
X179129Y50799D01*
X179248Y51021D01*
X179263Y51051D01*
X179277Y51110D01*
X179322Y51214D01*
X179366Y51377D01*
X179396Y51569D01*
X179440Y51806D01*
X179455Y52087D01*
X179470Y52413D01*
Y52931D01*
D02*
G37*
G36*
X137770Y56071D02*
X137666D01*
X137592Y56056D01*
X137503Y56041D01*
X137400Y56026D01*
X137163Y55967D01*
X136896Y55878D01*
X136600Y55745D01*
X136452Y55656D01*
X136319Y55553D01*
X136171Y55419D01*
X136038Y55286D01*
Y55271D01*
X136008Y55256D01*
X135978Y55197D01*
X135934Y55138D01*
X135875Y55049D01*
X135815Y54960D01*
X135756Y54842D01*
X135697Y54694D01*
X135638Y54546D01*
X135578Y54368D01*
X135519Y54175D01*
X135460Y53953D01*
X135415Y53731D01*
X135386Y53479D01*
X135371Y53198D01*
X135356Y52917D01*
Y52902D01*
Y52843D01*
Y52769D01*
X135371Y52665D01*
Y52532D01*
X135386Y52384D01*
X135415Y52206D01*
X135445Y52028D01*
X135519Y51658D01*
X135638Y51258D01*
X135815Y50888D01*
X135919Y50725D01*
X136038Y50562D01*
X136052Y50547D01*
X136067Y50533D01*
X136111Y50488D01*
X136156Y50444D01*
X136319Y50310D01*
X136511Y50177D01*
X136763Y50029D01*
X137059Y49896D01*
X137400Y49807D01*
X137577Y49792D01*
X137770Y49777D01*
X137874D01*
X137948Y49792D01*
X138037Y49807D01*
X138140Y49822D01*
X138377Y49881D01*
X138644Y49970D01*
X138940Y50103D01*
X139088Y50192D01*
X139236Y50310D01*
X139369Y50429D01*
X139503Y50562D01*
X139517Y50577D01*
X139532Y50607D01*
X139562Y50651D01*
X139606Y50710D01*
X139665Y50799D01*
X139725Y50903D01*
X139784Y51021D01*
X139858Y51154D01*
X139917Y51317D01*
X139977Y51495D01*
X140036Y51688D01*
X140095Y51910D01*
X140139Y52147D01*
X140169Y52398D01*
X140199Y52665D01*
Y52961D01*
Y52976D01*
Y53035D01*
Y53109D01*
X140184Y53213D01*
Y53346D01*
X140169Y53479D01*
X140139Y53642D01*
X140110Y53820D01*
X140036Y54190D01*
X139902Y54575D01*
X139740Y54945D01*
X139621Y55123D01*
X139503Y55271D01*
X139488Y55286D01*
X139473Y55301D01*
X139429Y55345D01*
X139384Y55390D01*
X139221Y55523D01*
X139029Y55671D01*
X138777Y55819D01*
X138481Y55952D01*
X138140Y56041D01*
X137963Y56056D01*
X137770Y56071D01*
D02*
G37*
G36*
X55227Y69857D02*
X55202D01*
X55177Y69831D01*
X55100Y69806D01*
X54973Y69780D01*
X54846Y69730D01*
X54668Y69679D01*
X54465Y69603D01*
X54237Y69552D01*
X53983Y69476D01*
X53703Y69399D01*
X53373Y69323D01*
X53018Y69247D01*
X52636Y69171D01*
X52230Y69095D01*
X51798Y69018D01*
X51316Y68942D01*
X51240D01*
X51189Y68917D01*
X51087D01*
X50808Y68866D01*
X50503Y68815D01*
X50173Y68739D01*
X49817Y68663D01*
X49487Y68561D01*
X49233Y68460D01*
X49208D01*
X49131Y68409D01*
X49030Y68358D01*
X48877Y68282D01*
X48573Y68028D01*
X48420Y67875D01*
X48293Y67698D01*
X48268Y67672D01*
X48242Y67621D01*
X48191Y67494D01*
X48141Y67367D01*
X48064Y67190D01*
X48014Y67012D01*
X47988Y66783D01*
X47963Y66555D01*
Y66504D01*
Y66402D01*
X48014Y66224D01*
X48064Y65996D01*
X48141Y65767D01*
X48268Y65488D01*
X48446Y65234D01*
X48674Y64980D01*
X48699Y64954D01*
X48801Y64878D01*
X48979Y64777D01*
X49208Y64675D01*
X49512Y64548D01*
X49893Y64446D01*
X50325Y64370D01*
X50808Y64345D01*
X51036D01*
X51290Y64370D01*
X51620Y64421D01*
X52002Y64497D01*
X52408Y64599D01*
X52840Y64726D01*
X53246Y64929D01*
X53271D01*
X53297Y64954D01*
X53424Y65031D01*
X53627Y65183D01*
X53856Y65361D01*
X54110Y65589D01*
X54389Y65894D01*
X54643Y66199D01*
X54846Y66580D01*
X54872Y66631D01*
X54897Y66732D01*
X54973Y66910D01*
X55050Y67190D01*
X55100Y67520D01*
X55177Y67926D01*
X55202Y68409D01*
X55227Y68968D01*
Y69857D01*
D02*
G37*
G36*
X211183Y75241D02*
X211031D01*
X210904Y75216D01*
X210777D01*
X210599Y75191D01*
X210218Y75114D01*
X209786Y74962D01*
X209304Y74759D01*
X208846Y74505D01*
X208618Y74327D01*
X208389Y74124D01*
X208339Y74073D01*
X208211Y73921D01*
X208034Y73692D01*
X207831Y73362D01*
X207602Y72930D01*
X207399Y72422D01*
X207246Y71863D01*
X207170Y71203D01*
X215070D01*
Y71228D01*
Y71279D01*
X215044Y71381D01*
X215019Y71482D01*
Y71635D01*
X214968Y71812D01*
X214892Y72193D01*
X214765Y72625D01*
X214612Y73057D01*
X214409Y73489D01*
X214155Y73844D01*
Y73870D01*
X214104Y73895D01*
X214028Y73971D01*
X213952Y74073D01*
X213698Y74276D01*
X213368Y74556D01*
X212936Y74810D01*
X212428Y75013D01*
X211844Y75191D01*
X211514Y75216D01*
X211183Y75241D01*
D02*
G37*
G36*
X156802D02*
X156650D01*
X156548Y75216D01*
X156243Y75165D01*
X155862Y75064D01*
X155456Y74911D01*
X154999Y74657D01*
X154770Y74505D01*
X154541Y74327D01*
X154313Y74124D01*
X154084Y73870D01*
Y73844D01*
X154033Y73819D01*
X153982Y73717D01*
X153906Y73616D01*
X153830Y73463D01*
X153729Y73311D01*
X153627Y73108D01*
X153525Y72854D01*
X153398Y72600D01*
X153297Y72295D01*
X153195Y71990D01*
X153119Y71635D01*
X153043Y71254D01*
X152992Y70847D01*
X152966Y70390D01*
X152941Y69933D01*
Y69907D01*
Y69831D01*
Y69704D01*
Y69526D01*
X152966Y69298D01*
Y69069D01*
X153017Y68536D01*
X153119Y67926D01*
X153221Y67317D01*
X153398Y66758D01*
X153500Y66504D01*
X153627Y66275D01*
X153652Y66250D01*
X153678Y66199D01*
X153754Y66097D01*
X153830Y65996D01*
X154084Y65691D01*
X154440Y65361D01*
X154872Y65031D01*
X155379Y64726D01*
X155684Y64624D01*
X155989Y64523D01*
X156319Y64472D01*
X156675Y64446D01*
X156827D01*
X156929Y64472D01*
X157234Y64523D01*
X157615Y64624D01*
X158021Y64777D01*
X158478Y65005D01*
X158707Y65158D01*
X158961Y65361D01*
X159164Y65564D01*
X159393Y65793D01*
X159418Y65818D01*
X159444Y65869D01*
X159494Y65945D01*
X159571Y66047D01*
X159672Y66199D01*
X159774Y66377D01*
X159875Y66580D01*
X159977Y66809D01*
X160079Y67088D01*
X160180Y67393D01*
X160282Y67723D01*
X160383Y68079D01*
X160459Y68485D01*
X160510Y68917D01*
X160561Y69374D01*
Y69857D01*
Y69882D01*
Y69984D01*
Y70111D01*
X160536Y70314D01*
Y70542D01*
X160510Y70796D01*
X160459Y71076D01*
X160434Y71406D01*
X160282Y72066D01*
X160079Y72727D01*
X159824Y73362D01*
X159647Y73667D01*
X159444Y73921D01*
Y73946D01*
X159393Y73971D01*
X159240Y74124D01*
X159012Y74327D01*
X158707Y74581D01*
X158326Y74835D01*
X157869Y75038D01*
X157361Y75191D01*
X157081Y75216D01*
X156802Y75241D01*
D02*
G37*
G36*
X36838D02*
X36685D01*
X36558Y75216D01*
X36431D01*
X36253Y75191D01*
X35872Y75114D01*
X35441Y74962D01*
X34958Y74759D01*
X34501Y74505D01*
X34272Y74327D01*
X34044Y74124D01*
X33993Y74073D01*
X33866Y73921D01*
X33688Y73692D01*
X33485Y73362D01*
X33256Y72930D01*
X33053Y72422D01*
X32901Y71863D01*
X32824Y71203D01*
X40724D01*
Y71228D01*
Y71279D01*
X40698Y71381D01*
X40673Y71482D01*
Y71635D01*
X40622Y71812D01*
X40546Y72193D01*
X40419Y72625D01*
X40267Y73057D01*
X40064Y73489D01*
X39810Y73844D01*
Y73870D01*
X39759Y73895D01*
X39683Y73971D01*
X39606Y74073D01*
X39352Y74276D01*
X39022Y74556D01*
X38590Y74810D01*
X38082Y75013D01*
X37498Y75191D01*
X37168Y75216D01*
X36838Y75241D01*
D02*
G37*
G36*
X224223Y43606D02*
X224181Y43598D01*
X224139Y43589D01*
X224080Y43581D01*
X223953Y43538D01*
X223801Y43479D01*
X223716Y43437D01*
X223631Y43386D01*
X223547Y43327D01*
X223462Y43251D01*
X223369Y43175D01*
X223285Y43082D01*
X223276Y43073D01*
X223268Y43056D01*
X223242Y43031D01*
X223217Y42989D01*
X223183Y42938D01*
X223141Y42870D01*
X223099Y42803D01*
X223056Y42718D01*
X223014Y42625D01*
X222972Y42524D01*
X222938Y42414D01*
X222896Y42295D01*
X222845Y42033D01*
X222836Y41889D01*
X222828Y41737D01*
Y41729D01*
Y41712D01*
Y41686D01*
X222836Y41644D01*
Y41602D01*
X222845Y41542D01*
X222870Y41416D01*
X222913Y41272D01*
X222972Y41119D01*
X223056Y40959D01*
X223166Y40815D01*
X223183Y40798D01*
X223225Y40756D01*
X223293Y40697D01*
X223386Y40629D01*
X223505Y40561D01*
X223631Y40502D01*
X223775Y40460D01*
X223860Y40451D01*
X223936Y40443D01*
X223987D01*
X224054Y40451D01*
X224130Y40468D01*
X224223Y40502D01*
X224333Y40536D01*
X224452Y40595D01*
X224579Y40671D01*
X224596Y40680D01*
X224638Y40714D01*
X224697Y40764D01*
X224782Y40840D01*
X224866Y40942D01*
X224968Y41060D01*
X225061Y41204D01*
X225154Y41365D01*
Y41373D01*
X225162Y41390D01*
X225179Y41407D01*
X225188Y41441D01*
X225230Y41534D01*
X225272Y41652D01*
X225315Y41796D01*
X225357Y41957D01*
X225382Y42126D01*
X225391Y42295D01*
Y42304D01*
Y42321D01*
Y42354D01*
X225382Y42397D01*
Y42447D01*
X225374Y42498D01*
X225348Y42634D01*
X225315Y42786D01*
X225255Y42947D01*
X225171Y43099D01*
X225061Y43243D01*
Y43251D01*
X225044Y43259D01*
X225002Y43302D01*
X224934Y43361D01*
X224841Y43429D01*
X224723Y43488D01*
X224587Y43547D01*
X224443Y43589D01*
X224359Y43606D01*
X224223D01*
D02*
G37*
G36*
X197800Y44063D02*
X197749Y44054D01*
X197673Y44046D01*
X197597Y44029D01*
X197504Y44004D01*
X197411Y43970D01*
X197318Y43928D01*
X197309Y43919D01*
X197276Y43902D01*
X197233Y43868D01*
X197174Y43826D01*
X197098Y43767D01*
X197022Y43691D01*
X196929Y43598D01*
X196844Y43488D01*
X196836Y43471D01*
X196810Y43437D01*
X196760Y43369D01*
X196709Y43276D01*
X196650Y43166D01*
X196582Y43031D01*
X196514Y42879D01*
X196455Y42710D01*
Y42701D01*
X196447Y42693D01*
X196438Y42667D01*
X196430Y42634D01*
X196404Y42540D01*
X196379Y42431D01*
X196354Y42295D01*
X196328Y42160D01*
X196311Y42016D01*
X196303Y41881D01*
Y41872D01*
Y41855D01*
Y41830D01*
Y41796D01*
X196311Y41712D01*
Y41602D01*
X196328Y41475D01*
X196345Y41348D01*
X196362Y41221D01*
X196396Y41103D01*
X196404Y41094D01*
X196413Y41060D01*
X196438Y41001D01*
X196472Y40942D01*
X196523Y40866D01*
X196582Y40790D01*
X196650Y40714D01*
X196726Y40637D01*
X196734Y40629D01*
X196768Y40612D01*
X196819Y40578D01*
X196887Y40544D01*
X196971Y40511D01*
X197064Y40477D01*
X197174Y40460D01*
X197293Y40451D01*
X197343D01*
X197386Y40460D01*
X197436Y40468D01*
X197487Y40485D01*
X197623Y40519D01*
X197775Y40587D01*
X197859Y40629D01*
X197944Y40688D01*
X198029Y40747D01*
X198113Y40823D01*
X198198Y40908D01*
X198282Y41010D01*
X198291Y41018D01*
X198308Y41043D01*
X198341Y41086D01*
X198375Y41145D01*
X198418Y41221D01*
X198468Y41306D01*
X198528Y41407D01*
X198587Y41526D01*
X198638Y41652D01*
X198697Y41796D01*
X198747Y41948D01*
X198790Y42109D01*
X198824Y42287D01*
X198857Y42473D01*
X198874Y42667D01*
X198883Y42870D01*
Y42879D01*
Y42896D01*
Y42921D01*
X198874Y42963D01*
X198866Y43065D01*
X198849Y43192D01*
X198807Y43327D01*
X198756Y43471D01*
X198688Y43615D01*
X198587Y43742D01*
X198570Y43759D01*
X198536Y43792D01*
X198468Y43843D01*
X198384Y43902D01*
X198274Y43962D01*
X198155Y44012D01*
X198012Y44046D01*
X197851Y44063D01*
X197800D01*
D02*
G37*
G36*
X169000Y42287D02*
X168983Y42278D01*
X168949Y42270D01*
X168907Y42253D01*
X168848Y42236D01*
X168789Y42219D01*
X168653Y42185D01*
X168645D01*
X168619Y42177D01*
X168569D01*
X168501Y42160D01*
X168408Y42151D01*
X168298Y42143D01*
X168171Y42126D01*
X168010Y42109D01*
X167976D01*
X167943Y42101D01*
X167892D01*
X167841Y42092D01*
X167773Y42084D01*
X167621Y42067D01*
X167452Y42050D01*
X167291Y42016D01*
X167139Y41991D01*
X167071Y41974D01*
X167012Y41957D01*
X167004D01*
X166961Y41940D01*
X166911Y41915D01*
X166852Y41881D01*
X166784Y41838D01*
X166708Y41788D01*
X166640Y41729D01*
X166581Y41652D01*
X166572Y41644D01*
X166556Y41619D01*
X166539Y41576D01*
X166513Y41517D01*
X166479Y41449D01*
X166462Y41373D01*
X166446Y41289D01*
X166437Y41196D01*
Y41179D01*
Y41136D01*
X166446Y41077D01*
X166462Y41001D01*
X166496Y40908D01*
X166530Y40815D01*
X166589Y40722D01*
X166665Y40637D01*
X166674Y40629D01*
X166708Y40604D01*
X166767Y40570D01*
X166835Y40536D01*
X166936Y40494D01*
X167046Y40460D01*
X167181Y40434D01*
X167334Y40426D01*
X167401D01*
X167477Y40434D01*
X167579Y40451D01*
X167697Y40477D01*
X167824Y40511D01*
X167960Y40561D01*
X168095Y40629D01*
X168103D01*
X168112Y40637D01*
X168154Y40671D01*
X168222Y40714D01*
X168306Y40781D01*
X168399Y40866D01*
X168501Y40967D01*
X168594Y41077D01*
X168678Y41213D01*
Y41221D01*
X168687Y41230D01*
X168695Y41255D01*
X168712Y41280D01*
X168729Y41322D01*
X168755Y41373D01*
X168797Y41492D01*
X168856Y41644D01*
X168907Y41830D01*
X168958Y42042D01*
X169008Y42287D01*
X169000D01*
D02*
G37*
G36*
X177788Y44105D02*
X177754Y44097D01*
X177703D01*
X177653Y44088D01*
X177526Y44063D01*
X177382Y44021D01*
X177221Y43953D01*
X177052Y43860D01*
X176976Y43809D01*
X176891Y43742D01*
X176883D01*
X176875Y43725D01*
X176824Y43674D01*
X176748Y43589D01*
X176655Y43479D01*
X176553Y43327D01*
X176452Y43141D01*
X176350Y42930D01*
X176266Y42676D01*
X178913D01*
Y42684D01*
Y42693D01*
X178921Y42744D01*
Y42803D01*
Y42853D01*
Y42862D01*
Y42879D01*
Y42913D01*
X178913Y42955D01*
Y43006D01*
X178904Y43065D01*
X178888Y43192D01*
X178845Y43344D01*
X178794Y43496D01*
X178718Y43640D01*
X178617Y43775D01*
X178600Y43792D01*
X178566Y43826D01*
X178498Y43877D01*
X178405Y43945D01*
X178295Y44004D01*
X178160Y44054D01*
X178008Y44088D01*
X177839Y44105D01*
X177788D01*
D02*
G37*
G36*
X210098Y44105D02*
X210065Y44097D01*
X210014D01*
X209963Y44088D01*
X209836Y44063D01*
X209692Y44021D01*
X209532Y43953D01*
X209363Y43860D01*
X209286Y43809D01*
X209202Y43741D01*
X209193D01*
X209185Y43725D01*
X209134Y43674D01*
X209058Y43589D01*
X208965Y43479D01*
X208863Y43327D01*
X208762Y43141D01*
X208660Y42930D01*
X208576Y42676D01*
X211223D01*
Y42684D01*
Y42693D01*
X211232Y42744D01*
Y42803D01*
Y42853D01*
Y42862D01*
Y42879D01*
Y42913D01*
X211223Y42955D01*
Y43006D01*
X211215Y43065D01*
X211198Y43192D01*
X211156Y43344D01*
X211105Y43496D01*
X211029Y43640D01*
X210927Y43775D01*
X210910Y43792D01*
X210877Y43826D01*
X210809Y43877D01*
X210716Y43945D01*
X210606Y44004D01*
X210471Y44054D01*
X210318Y44088D01*
X210149Y44105D01*
X210098D01*
D02*
G37*
G36*
X158613Y45679D02*
X158190Y43632D01*
X159670D01*
X159738Y43640D01*
X159823D01*
X159916Y43649D01*
X160017Y43657D01*
X160127Y43665D01*
X160356Y43708D01*
X160592Y43759D01*
X160702Y43792D01*
X160812Y43826D01*
X160905Y43877D01*
X160990Y43928D01*
X160998D01*
X161007Y43945D01*
X161058Y43987D01*
X161125Y44054D01*
X161201Y44156D01*
X161278Y44274D01*
X161345Y44435D01*
X161396Y44613D01*
X161404Y44706D01*
X161413Y44816D01*
Y44824D01*
Y44858D01*
X161404Y44909D01*
X161396Y44977D01*
X161379Y45053D01*
X161354Y45129D01*
X161320Y45213D01*
X161278Y45289D01*
X161269Y45298D01*
X161252Y45323D01*
X161227Y45357D01*
X161185Y45399D01*
X161134Y45450D01*
X161066Y45501D01*
X160998Y45543D01*
X160914Y45585D01*
X160905Y45594D01*
X160872Y45602D01*
X160812Y45619D01*
X160719Y45636D01*
X160609Y45653D01*
X160457Y45662D01*
X160373Y45670D01*
X160280Y45679D01*
X158613D01*
D02*
G37*
G36*
X158038Y42896D02*
X157564Y40646D01*
X159307D01*
X159434Y40654D01*
X159569D01*
X159704Y40663D01*
X159831Y40671D01*
X159882D01*
X159924Y40680D01*
X159941D01*
X159992Y40697D01*
X160077Y40714D01*
X160170Y40739D01*
X160280Y40773D01*
X160398Y40815D01*
X160516Y40866D01*
X160618Y40925D01*
X160626Y40933D01*
X160660Y40959D01*
X160711Y40993D01*
X160770Y41043D01*
X160838Y41111D01*
X160914Y41187D01*
X160982Y41272D01*
X161041Y41373D01*
X161049Y41390D01*
X161066Y41424D01*
X161091Y41475D01*
X161117Y41551D01*
X161142Y41635D01*
X161168Y41737D01*
X161185Y41847D01*
X161193Y41957D01*
Y41965D01*
Y41974D01*
Y41999D01*
X161185Y42033D01*
X161176Y42118D01*
X161159Y42219D01*
X161117Y42329D01*
X161066Y42439D01*
X160998Y42549D01*
X160897Y42650D01*
X160880Y42659D01*
X160838Y42693D01*
X160804Y42710D01*
X160762Y42727D01*
X160711Y42752D01*
X160643Y42777D01*
X160576Y42794D01*
X160491Y42820D01*
X160398Y42836D01*
X160296Y42862D01*
X160178Y42870D01*
X160051Y42887D01*
X159916Y42896D01*
X158038D01*
D02*
G37*
G36*
X192886Y44105D02*
X192810Y44097D01*
X192717Y44080D01*
X192615Y44063D01*
X192497Y44029D01*
X192378Y43978D01*
X192260Y43919D01*
X192243Y43911D01*
X192209Y43885D01*
X192150Y43843D01*
X192074Y43784D01*
X191981Y43716D01*
X191888Y43623D01*
X191795Y43513D01*
X191693Y43395D01*
X191685Y43378D01*
X191651Y43336D01*
X191609Y43260D01*
X191549Y43166D01*
X191490Y43048D01*
X191431Y42913D01*
X191372Y42760D01*
X191321Y42591D01*
Y42583D01*
X191313Y42574D01*
Y42549D01*
X191304Y42515D01*
X191287Y42431D01*
X191270Y42321D01*
X191245Y42194D01*
X191228Y42050D01*
X191220Y41915D01*
X191211Y41771D01*
Y41762D01*
Y41745D01*
Y41712D01*
X191220Y41661D01*
Y41610D01*
X191228Y41542D01*
X191254Y41399D01*
X191287Y41238D01*
X191346Y41069D01*
X191423Y40908D01*
X191524Y40764D01*
X191541Y40747D01*
X191583Y40714D01*
X191651Y40654D01*
X191744Y40595D01*
X191863Y40536D01*
X192006Y40477D01*
X192167Y40443D01*
X192345Y40426D01*
X192387D01*
X192438Y40434D01*
X192505Y40443D01*
X192581Y40451D01*
X192666Y40468D01*
X192759Y40494D01*
X192852Y40528D01*
X192861Y40536D01*
X192894Y40544D01*
X192945Y40570D01*
X193004Y40604D01*
X193080Y40646D01*
X193157Y40705D01*
X193241Y40764D01*
X193326Y40840D01*
X193334Y40849D01*
X193360Y40874D01*
X193402Y40925D01*
X193453Y40984D01*
X193512Y41052D01*
X193580Y41136D01*
X193639Y41221D01*
X193698Y41322D01*
X193706Y41339D01*
X193723Y41373D01*
X193749Y41424D01*
X193783Y41500D01*
X193825Y41593D01*
X193867Y41686D01*
X193909Y41796D01*
X193943Y41915D01*
Y41923D01*
X193952Y41932D01*
X193960Y41957D01*
X193969Y41991D01*
X193986Y42075D01*
X194019Y42185D01*
X194045Y42312D01*
X194062Y42456D01*
X194079Y42608D01*
X194087Y42760D01*
Y42769D01*
Y42786D01*
Y42820D01*
X194079Y42862D01*
Y42921D01*
X194070Y42980D01*
X194045Y43124D01*
X194011Y43285D01*
X193952Y43446D01*
X193867Y43606D01*
X193757Y43750D01*
X193740Y43767D01*
X193698Y43809D01*
X193630Y43860D01*
X193537Y43928D01*
X193419Y43995D01*
X193283Y44046D01*
X193123Y44088D01*
X192945Y44105D01*
X192886D01*
D02*
G37*
G36*
X189469Y45535D02*
X189465Y45523D01*
X189469Y45526D01*
Y45535D01*
D02*
G37*
G36*
X217220Y45704D02*
X216755Y43496D01*
X218413D01*
X218599Y43505D01*
X218776D01*
X218861Y43513D01*
X218937D01*
X219005Y43522D01*
X219081D01*
X219106Y43530D01*
X219140D01*
X219225Y43547D01*
X219343Y43564D01*
X219470Y43589D01*
X219605Y43632D01*
X219732Y43674D01*
X219859Y43733D01*
X219876Y43741D01*
X219910Y43767D01*
X219969Y43809D01*
X220045Y43860D01*
X220121Y43928D01*
X220206Y44012D01*
X220282Y44105D01*
X220350Y44207D01*
X220358Y44224D01*
X220375Y44257D01*
X220409Y44317D01*
X220443Y44401D01*
X220468Y44494D01*
X220502Y44596D01*
X220519Y44714D01*
X220527Y44841D01*
Y44858D01*
Y44892D01*
X220519Y44943D01*
X220510Y45010D01*
X220494Y45086D01*
X220468Y45171D01*
X220434Y45256D01*
X220392Y45340D01*
X220383Y45349D01*
X220367Y45374D01*
X220341Y45408D01*
X220299Y45459D01*
X220257Y45501D01*
X220197Y45552D01*
X220130Y45594D01*
X220054Y45628D01*
X220045D01*
X220011Y45636D01*
X219961Y45653D01*
X219893Y45670D01*
X219791Y45679D01*
X219665Y45695D01*
X219521Y45704D01*
X217220D01*
D02*
G37*
%LPD*%
D10*
X655000Y792500D02*
G03*
X655000Y792500I-3000J0D01*
G01*
D11*
X663700Y817500D02*
G03*
X663700Y817500I-1250J0D01*
G01*
X474012Y742326D02*
G03*
X474012Y742326I-1250J0D01*
G01*
D12*
X541661Y880652D02*
G03*
X541661Y880652I-1000J0D01*
G01*
X557000Y734500D02*
Y802500D01*
X662000Y734500D02*
Y802500D01*
X557000Y734500D02*
X662000D01*
X557000Y802500D02*
X662000D01*
X477412Y759076D02*
X527412D01*
X477412Y774576D02*
X527412D01*
X477412Y759076D02*
Y774576D01*
X527412Y759076D02*
Y774576D01*
X657010Y338440D02*
Y352440D01*
X625009Y338440D02*
Y352440D01*
D13*
X278450Y600250D02*
G03*
X278450Y600250I-12700J0D01*
G01*
X406400Y1065530D02*
G03*
X406400Y1065530I-12700J0D01*
G01*
X453846Y1142514D02*
G03*
X453846Y1142514I-2540J0D01*
G01*
X724950Y1093250D02*
G03*
X724950Y1093250I-12700J0D01*
G01*
X278700Y803750D02*
G03*
X278700Y803750I-2000J0D01*
G01*
Y759300D02*
G03*
X278700Y759300I-2000J0D01*
G01*
X459596Y1072896D02*
G03*
X459596Y1072896I-2540J0D01*
G01*
X599893Y974167D02*
G03*
X599893Y974167I-2540J0D01*
G01*
X678898Y1047614D02*
G03*
X678898Y1047614I-2540J0D01*
G01*
X511200Y1099500D02*
G03*
X511200Y1099500I-12700J0D01*
G01*
X568720Y457600D02*
G03*
X568720Y457600I-5000J0D01*
G01*
X266136Y412186D02*
X280104D01*
X263620Y375670D02*
Y378170D01*
Y375670D02*
X282410D01*
Y378170D01*
X280104Y412186D02*
X282120Y410170D01*
X264120D02*
X266136Y412186D01*
X239396D02*
X253364D01*
X236880Y375670D02*
Y378170D01*
Y375670D02*
X255670D01*
Y378170D01*
X253364Y412186D02*
X255380Y410170D01*
X237380D02*
X239396Y412186D01*
X291466Y375914D02*
X305434D01*
X307950Y409930D02*
Y412430D01*
X289160D02*
X307950D01*
X289160Y409930D02*
Y412430D01*
X289450Y377930D02*
X291466Y375914D01*
X305434D02*
X307450Y377930D01*
X370280Y1115590D02*
X456640D01*
X370280D02*
Y1148610D01*
X456640D01*
Y1115590D02*
Y1148610D01*
X719323Y920640D02*
X721339Y922656D01*
X719323Y938640D02*
X721339Y936624D01*
X684823Y938930D02*
X687323D01*
X684823Y920140D02*
Y938930D01*
Y920140D02*
X687323D01*
X721339Y922656D02*
Y936624D01*
X284200Y796250D02*
X284200Y796250D01*
Y810250D01*
X249200Y796250D02*
Y810250D01*
X275710Y796250D02*
X284200D01*
X249200D02*
X257690D01*
X264668Y810354D02*
X268986D01*
X284200Y751800D02*
X284200Y751800D01*
Y765800D01*
X249200Y751800D02*
Y765800D01*
X275710Y751800D02*
X284200D01*
X249200D02*
X257690D01*
X264668Y765904D02*
X268986D01*
X329312Y668985D02*
X343280D01*
X345796Y632470D02*
Y634970D01*
X327006Y632470D02*
X345796D01*
X327006D02*
Y634970D01*
X327296Y666970D02*
X329312Y668985D01*
X343280D02*
X345296Y666970D01*
X270846Y703350D02*
X312846D01*
X281846Y625850D02*
X298846D01*
X270846Y635850D02*
X280846Y625850D01*
X302846D01*
X312846Y635850D01*
Y695850D02*
Y703350D01*
X270846Y695850D02*
Y703350D01*
X483980Y991870D02*
Y1078230D01*
X450960Y991870D02*
X483980D01*
X450960D02*
Y1078230D01*
X483980D01*
X604852Y964167D02*
Y1066667D01*
X567352D02*
X604852D01*
X567352Y964167D02*
Y1066667D01*
Y964167D02*
X604852D01*
X703282Y966588D02*
Y1052947D01*
X670263Y966588D02*
X703282D01*
X670263D02*
Y1052947D01*
X703282D01*
X333900Y1019050D02*
X335916Y1017034D01*
X349884D02*
X351900Y1019050D01*
X352190Y1051050D02*
Y1053550D01*
X333400D02*
X352190D01*
X333400Y1051050D02*
Y1053550D01*
X335916Y1017034D02*
X349884D01*
X333900Y917450D02*
X335916Y915434D01*
X349884D02*
X351900Y917450D01*
X352190Y949450D02*
Y951950D01*
X333400D02*
X352190D01*
X333400Y949450D02*
Y951950D01*
X335916Y915434D02*
X349884D01*
X492084Y1197336D02*
X494100Y1195320D01*
X476100D02*
X478116Y1197336D01*
X475810Y1160820D02*
Y1163320D01*
Y1160820D02*
X494600D01*
Y1163320D01*
X478116Y1197336D02*
X492084D01*
X537760Y364270D02*
X539760Y366270D01*
X537760Y364270D02*
Y364270D01*
X516260Y401770D02*
X518760Y404270D01*
Y404270D01*
X537760Y404270D02*
X539760Y402270D01*
X537760Y404270D02*
Y404270D01*
Y364270D02*
Y364270D01*
X515760Y366270D02*
X517760Y364270D01*
X537760D01*
X518760Y404270D02*
X537760D01*
X553720Y447600D02*
Y517600D01*
Y447600D02*
X623720D01*
Y517600D01*
X553720D02*
X623720D01*
X337240Y1145168D02*
X339255Y1147184D01*
X337240Y1163168D02*
X339255Y1161152D01*
X302740Y1163458D02*
X305240D01*
X302740Y1144668D02*
Y1163458D01*
Y1144668D02*
X305240D01*
X339255Y1147184D02*
Y1161152D01*
X325720Y1172720D02*
X327736Y1170704D01*
X341704D02*
X343720Y1172720D01*
X344010Y1204720D02*
Y1207220D01*
X325220D02*
X344010D01*
X325220Y1204720D02*
Y1207220D01*
X327736Y1170704D02*
X341704D01*
X297780Y1172720D02*
X299796Y1170704D01*
X313764D02*
X315780Y1172720D01*
X316070Y1204720D02*
Y1207220D01*
X297280D02*
X316070D01*
X297280Y1204720D02*
Y1207220D01*
X299796Y1170704D02*
X313764D01*
X338020Y1118760D02*
X340036Y1120776D01*
X338020Y1136760D02*
X340036Y1134744D01*
X303520Y1137050D02*
X306020D01*
X303520Y1118260D02*
Y1137050D01*
Y1118260D02*
X306020D01*
X340036Y1120776D02*
Y1134744D01*
X340177Y1109630D02*
X342192Y1107614D01*
X324192D02*
X326208Y1109630D01*
X323903Y1073114D02*
Y1075614D01*
Y1073114D02*
X342692D01*
Y1075614D01*
X326208Y1109630D02*
X340177D01*
X316304D02*
X318320Y1107614D01*
X300320D02*
X302336Y1109630D01*
X300030Y1073114D02*
Y1075614D01*
Y1073114D02*
X318820D01*
Y1075614D01*
X302336Y1109630D02*
X316304D01*
X487120Y1131153D02*
Y1121156D01*
X493784D01*
X498783D02*
X502115D01*
X503781Y1122822D01*
Y1126154D01*
X502115Y1127821D01*
X498783D01*
X497117Y1126154D01*
Y1122822D01*
X498783Y1121156D01*
X507114Y1127821D02*
Y1122822D01*
X508780Y1121156D01*
X510446Y1122822D01*
X512112Y1121156D01*
X513778Y1122822D01*
Y1127821D01*
X527107Y1121156D02*
Y1131153D01*
X532105D01*
X533772Y1129487D01*
Y1126154D01*
X532105Y1124488D01*
X527107D01*
X537104Y1121156D02*
Y1122822D01*
X538770D01*
Y1121156D01*
X537104D01*
X315010Y1070415D02*
Y1060418D01*
Y1065416D01*
X321674D01*
Y1070415D01*
Y1060418D01*
X325006D02*
X328339D01*
X326673D01*
Y1067082D01*
X325006D01*
X336669Y1057085D02*
X338335D01*
X340002Y1058752D01*
Y1067082D01*
X335003D01*
X333337Y1065416D01*
Y1062084D01*
X335003Y1060418D01*
X340002D01*
X343334Y1070415D02*
Y1060418D01*
Y1065416D01*
X345000Y1067082D01*
X348332D01*
X349998Y1065416D01*
Y1060418D01*
X363327D02*
Y1070415D01*
X368326D01*
X369992Y1068748D01*
Y1065416D01*
X368326Y1063750D01*
X363327D01*
X373324Y1060418D02*
Y1062084D01*
X374990D01*
Y1060418D01*
X373324D01*
X625927Y1109498D02*
Y1099502D01*
X630926D01*
X632592Y1101168D01*
Y1102834D01*
X630926Y1104500D01*
X625927D01*
X630926D01*
X632592Y1106166D01*
Y1107832D01*
X630926Y1109498D01*
X625927D01*
X642589Y1107832D02*
X640923Y1109498D01*
X637590D01*
X635924Y1107832D01*
Y1106166D01*
X637590Y1104500D01*
X640923D01*
X642589Y1102834D01*
Y1101168D01*
X640923Y1099502D01*
X637590D01*
X635924Y1101168D01*
X645921Y1099502D02*
Y1109498D01*
X650919D01*
X652586Y1107832D01*
Y1104500D01*
X650919Y1102834D01*
X645921D01*
X655918Y1109498D02*
Y1099502D01*
X660916D01*
X662582Y1101168D01*
Y1107832D01*
X660916Y1109498D01*
X655918D01*
X680910D02*
X677577D01*
X675911Y1107832D01*
Y1101168D01*
X677577Y1099502D01*
X680910D01*
X682576Y1101168D01*
Y1107832D01*
X680910Y1109498D01*
X685908D02*
Y1099502D01*
Y1102834D01*
X692573Y1109498D01*
X687574Y1104500D01*
X692573Y1099502D01*
X301253Y614248D02*
X291257D01*
Y606750D01*
X296255Y609249D01*
X298754D01*
X301253Y606750D01*
Y601752D01*
X298754Y599252D01*
X293756D01*
X291257Y601752D01*
X306252Y599252D02*
Y614248D01*
Y604251D02*
X313749Y609249D01*
X306252Y604251D02*
X313749Y599252D01*
X321247Y614248D02*
Y599252D01*
X326245Y604251D01*
X331244Y599252D01*
Y614248D01*
X235593Y427332D02*
X233927Y428998D01*
X230595D01*
X228929Y427332D01*
Y420668D01*
X230595Y419002D01*
X233927D01*
X235593Y420668D01*
X238926Y419002D02*
Y425666D01*
X242258Y428998D01*
X245590Y425666D01*
Y419002D01*
Y424000D01*
X238926D01*
X248923Y419002D02*
Y428998D01*
X255587Y419002D01*
Y428998D01*
X268916D02*
X275581D01*
X272248D01*
Y419002D01*
X285577Y428998D02*
X278913D01*
Y419002D01*
X285577D01*
X278913Y424000D02*
X282245D01*
X288910Y419002D02*
Y428998D01*
X293908D01*
X295574Y427332D01*
Y424000D01*
X293908Y422334D01*
X288910D01*
X292242D02*
X295574Y419002D01*
X298906D02*
Y428998D01*
X302239Y425666D01*
X305571Y428998D01*
Y419002D01*
X700000Y0D02*
G03*
X733500Y33500I0J33500D01*
G01*
X0Y25000D02*
G03*
X25000Y0I25000J0D01*
G01*
X41400Y1216400D02*
G03*
X0Y1175000I0J-41400D01*
G01*
X733500Y1166500D02*
G03*
X683600Y1216400I-49900J0D01*
G01*
X0Y25000D02*
Y1175000D01*
X25000Y0D02*
X700000D01*
X733500Y33500D02*
Y1166500D01*
X41400Y1216400D02*
X683600D01*
D14*
X511161Y899852D02*
Y909352D01*
Y877952D02*
Y887452D01*
Y909352D02*
X525162D01*
X511161Y877952D02*
X525162D01*
D15*
X227846Y65945D02*
D03*
D16*
X446547Y460248D02*
Y584454D01*
D17*
X353250Y588476D02*
X433145D01*
X353250Y456438D02*
Y588476D01*
Y456438D02*
X433145D01*
Y588476D01*
M02*
