G04*
G04 #@! TF.GenerationSoftware,Altium Limited,Altium Designer,22.8.2 (66)*
G04*
G04 Layer_Physical_Order=2*
G04 Layer_Color=36540*
%FSLAX44Y44*%
%MOMM*%
G71*
G04*
G04 #@! TF.SameCoordinates,B0619A4A-581E-4249-BB79-A942B5E0D796*
G04*
G04*
G04 #@! TF.FilePolarity,Positive*
G04*
G01*
G75*
%ADD13C,0.2540*%
%ADD16C,0.0254*%
%ADD17C,0.0500*%
%ADD72R,3.0000X3.0000*%
%ADD74C,1.5000*%
%ADD78C,1.1550*%
%ADD81C,1.7500*%
%ADD83C,0.5000*%
%ADD85C,1.0000*%
G36*
X702582Y1196168D02*
X701743Y1195211D01*
X700719Y1195996D01*
X695781Y1198848D01*
X690513Y1201030D01*
X685005Y1202506D01*
X679351Y1203250D01*
X673649D01*
X667995Y1202506D01*
X662487Y1201030D01*
X657219Y1198848D01*
X652281Y1195996D01*
X647757Y1192525D01*
X643725Y1188493D01*
X640254Y1183969D01*
X637402Y1179031D01*
X635220Y1173763D01*
X633744Y1168255D01*
X633000Y1162601D01*
Y1156899D01*
X633744Y1151245D01*
X635220Y1145737D01*
X637402Y1140469D01*
X640254Y1135531D01*
X643725Y1131007D01*
X647757Y1126975D01*
X652281Y1123503D01*
X657219Y1120652D01*
X662487Y1118470D01*
X667995Y1116994D01*
X673649Y1116250D01*
X679351D01*
X685005Y1116994D01*
X690513Y1118470D01*
X695781Y1120652D01*
X700719Y1123503D01*
X705243Y1126975D01*
X709275Y1131007D01*
X712747Y1135531D01*
X715598Y1140469D01*
X717780Y1145737D01*
X719256Y1151245D01*
X720000Y1156899D01*
Y1162601D01*
X719256Y1168255D01*
X717780Y1173763D01*
X715598Y1179031D01*
X712747Y1183969D01*
X711961Y1184993D01*
X712918Y1185832D01*
X732250Y1166500D01*
Y801250D01*
X558000D01*
X533228Y776478D01*
X430728D01*
X363250Y709000D01*
Y277500D01*
X460000Y180750D01*
X614210D01*
X614377Y179480D01*
X613969Y179371D01*
X612031Y178252D01*
X610448Y176669D01*
X609329Y174731D01*
X608750Y172569D01*
Y170331D01*
X609329Y168169D01*
X610448Y166231D01*
X612031Y164648D01*
X613969Y163529D01*
X616131Y162950D01*
X618369D01*
X620531Y163529D01*
X622469Y164648D01*
X624052Y166231D01*
X625171Y168169D01*
X625750Y170331D01*
Y172569D01*
X625171Y174731D01*
X624052Y176669D01*
X622469Y178252D01*
X620531Y179371D01*
X620123Y179480D01*
X620290Y180750D01*
X732250D01*
Y38000D01*
X695500Y1250D01*
X27500D01*
X1250Y27500D01*
Y1173500D01*
X43000Y1215250D01*
X683500Y1215250D01*
X702582Y1196168D01*
D02*
G37*
G36*
X555500Y736500D02*
X732250D01*
Y213500D01*
X479750D01*
X424750Y268500D01*
Y729500D01*
X446500Y751250D01*
X540750D01*
X555500Y736500D01*
D02*
G37*
%LPC*%
G36*
X477444Y1209960D02*
X475056D01*
X472851Y1209047D01*
X471163Y1207359D01*
X470250Y1205154D01*
Y1202766D01*
X471163Y1200561D01*
X472851Y1198873D01*
X475056Y1197960D01*
X477444D01*
X479649Y1198873D01*
X481337Y1200561D01*
X482250Y1202766D01*
Y1205154D01*
X481337Y1207359D01*
X479649Y1209047D01*
X477444Y1209960D01*
D02*
G37*
G36*
X397434Y1193450D02*
X395047D01*
X392841Y1192537D01*
X391153Y1190849D01*
X390240Y1188643D01*
Y1186256D01*
X391153Y1184051D01*
X392841Y1182363D01*
X395047Y1181450D01*
X397434D01*
X399639Y1182363D01*
X401327Y1184051D01*
X402240Y1186256D01*
Y1188643D01*
X401327Y1190849D01*
X399639Y1192537D01*
X397434Y1193450D01*
D02*
G37*
G36*
X537121Y1197975D02*
X534679D01*
X532320Y1197343D01*
X530205Y1196122D01*
X528478Y1194395D01*
X527257Y1192280D01*
X526625Y1189921D01*
Y1187479D01*
X527257Y1185120D01*
X528478Y1183005D01*
X530205Y1181278D01*
X532320Y1180057D01*
X534679Y1179425D01*
X537121D01*
X539480Y1180057D01*
X541595Y1181278D01*
X543322Y1183005D01*
X544543Y1185120D01*
X545175Y1187479D01*
Y1189921D01*
X544543Y1192280D01*
X543322Y1194395D01*
X541595Y1196122D01*
X539480Y1197343D01*
X537121Y1197975D01*
D02*
G37*
G36*
X513500Y1171105D02*
Y1166300D01*
X518304D01*
X518248Y1166509D01*
X517154Y1168406D01*
X515606Y1169954D01*
X513709Y1171048D01*
X513500Y1171105D01*
D02*
G37*
G36*
X507500D02*
X507290Y1171048D01*
X505395Y1169954D01*
X503846Y1168406D01*
X502752Y1166509D01*
X502696Y1166300D01*
X507500D01*
Y1171105D01*
D02*
G37*
G36*
X518304Y1160300D02*
X513500D01*
Y1155496D01*
X513709Y1155552D01*
X515606Y1156646D01*
X517154Y1158195D01*
X518248Y1160090D01*
X518304Y1160300D01*
D02*
G37*
G36*
X507500D02*
X502696D01*
X502752Y1160090D01*
X503846Y1158195D01*
X505395Y1156646D01*
X507290Y1155552D01*
X507500Y1155496D01*
Y1160300D01*
D02*
G37*
G36*
X570575Y1172575D02*
X552025D01*
Y1154025D01*
X570575D01*
Y1172575D01*
D02*
G37*
G36*
X414654Y1150210D02*
X412267D01*
X410061Y1149297D01*
X408373Y1147609D01*
X407460Y1145404D01*
Y1144798D01*
X406190Y1144545D01*
X405837Y1145399D01*
X404149Y1147087D01*
X401944Y1148000D01*
X399557D01*
X397351Y1147087D01*
X395663Y1145399D01*
X394750Y1143194D01*
Y1140807D01*
X395663Y1138601D01*
X397351Y1136913D01*
X399557Y1136000D01*
X401944D01*
X404149Y1136913D01*
X405837Y1138601D01*
X406750Y1140807D01*
Y1141412D01*
X408020Y1141665D01*
X408373Y1140811D01*
X410061Y1139124D01*
X412267Y1138210D01*
X414654D01*
X416859Y1139124D01*
X418547Y1140811D01*
X419460Y1143017D01*
Y1145404D01*
X418547Y1147609D01*
X416859Y1149297D01*
X414654Y1150210D01*
D02*
G37*
G36*
X440053Y1148290D02*
X437667D01*
X435461Y1147376D01*
X433773Y1145689D01*
X432860Y1143484D01*
Y1141096D01*
X433773Y1138891D01*
X435461Y1137203D01*
X437667Y1136290D01*
X440053D01*
X442259Y1137203D01*
X443947Y1138891D01*
X444860Y1141096D01*
Y1143484D01*
X443947Y1145689D01*
X442259Y1147376D01*
X440053Y1148290D01*
D02*
G37*
G36*
X382444Y1132000D02*
X380056D01*
X377851Y1131087D01*
X376163Y1129399D01*
X375250Y1127194D01*
Y1124807D01*
X376163Y1122601D01*
X377851Y1120913D01*
X380056Y1120000D01*
X382444D01*
X384649Y1120913D01*
X386337Y1122601D01*
X387250Y1124807D01*
Y1127194D01*
X386337Y1129399D01*
X384649Y1131087D01*
X382444Y1132000D01*
D02*
G37*
G36*
X401954Y1129240D02*
X399566D01*
X397361Y1128326D01*
X395673Y1126639D01*
X394760Y1124434D01*
Y1122047D01*
X395673Y1119841D01*
X397361Y1118153D01*
X399566Y1117240D01*
X401954D01*
X404159Y1118153D01*
X405847Y1119841D01*
X406760Y1122047D01*
Y1124434D01*
X405847Y1126639D01*
X404159Y1128326D01*
X401954Y1129240D01*
D02*
G37*
G36*
X452753Y1127410D02*
X450367D01*
X448161Y1126497D01*
X446474Y1124809D01*
X445560Y1122604D01*
Y1120217D01*
X446474Y1118011D01*
X448161Y1116323D01*
X450367Y1115410D01*
X452753D01*
X454959Y1116323D01*
X456647Y1118011D01*
X457560Y1120217D01*
Y1122604D01*
X456647Y1124809D01*
X454959Y1126497D01*
X452753Y1127410D01*
D02*
G37*
G36*
X177438Y1147024D02*
X173498D01*
X169634Y1146255D01*
X165994Y1144748D01*
X162719Y1142559D01*
X159933Y1139773D01*
X157744Y1136497D01*
X156237Y1132858D01*
X155468Y1128994D01*
Y1125054D01*
X156237Y1121190D01*
X157744Y1117551D01*
X159933Y1114275D01*
X162719Y1111489D01*
X165994Y1109300D01*
X169634Y1107793D01*
X173498Y1107024D01*
X177438D01*
X181302Y1107793D01*
X184942Y1109300D01*
X188217Y1111489D01*
X191003Y1114275D01*
X193192Y1117551D01*
X194699Y1121190D01*
X195468Y1125054D01*
Y1128994D01*
X194699Y1132858D01*
X193192Y1136497D01*
X191003Y1139773D01*
X188217Y1142559D01*
X184942Y1144748D01*
X181302Y1146255D01*
X177438Y1147024D01*
D02*
G37*
G36*
X615086Y1099998D02*
X611490D01*
X608015Y1099067D01*
X604901Y1097269D01*
X602357Y1094725D01*
X601223Y1092761D01*
X599953D01*
X598819Y1094725D01*
X596275Y1097269D01*
X593161Y1099067D01*
X589686Y1099998D01*
X586090D01*
X582615Y1099067D01*
X579501Y1097269D01*
X576957Y1094725D01*
X575823Y1092761D01*
X574553D01*
X573419Y1094725D01*
X570875Y1097269D01*
X567761Y1099067D01*
X564286Y1099998D01*
X560690D01*
X557215Y1099067D01*
X554101Y1097269D01*
X551557Y1094725D01*
X549759Y1091611D01*
X548828Y1088136D01*
Y1084540D01*
X549759Y1081066D01*
X551557Y1077951D01*
X554101Y1075407D01*
X557215Y1073609D01*
X560690Y1072678D01*
X564286D01*
X567761Y1073609D01*
X570875Y1075407D01*
X573419Y1077951D01*
X574553Y1079915D01*
X575823D01*
X576957Y1077951D01*
X579501Y1075407D01*
X582615Y1073609D01*
X586090Y1072678D01*
X589686D01*
X593161Y1073609D01*
X596275Y1075407D01*
X598819Y1077951D01*
X599953Y1079915D01*
X601223D01*
X602357Y1077951D01*
X604901Y1075407D01*
X608015Y1073609D01*
X611490Y1072678D01*
X615086D01*
X618561Y1073609D01*
X621675Y1075407D01*
X624219Y1077951D01*
X626017Y1081066D01*
X626948Y1084540D01*
Y1088136D01*
X626017Y1091611D01*
X624219Y1094725D01*
X621675Y1097269D01*
X618561Y1099067D01*
X615086Y1099998D01*
D02*
G37*
G36*
X395193Y1098250D02*
X392807D01*
X390601Y1097337D01*
X388913Y1095649D01*
X388000Y1093444D01*
Y1091057D01*
X388913Y1088851D01*
X390601Y1087163D01*
X392807Y1086250D01*
X395193D01*
X397399Y1087163D01*
X399087Y1088851D01*
X400000Y1091057D01*
Y1093444D01*
X399087Y1095649D01*
X397399Y1097337D01*
X395193Y1098250D01*
D02*
G37*
G36*
X683661Y1074532D02*
X681274D01*
X679069Y1073619D01*
X677381Y1071931D01*
X676468Y1069726D01*
Y1067339D01*
X677381Y1065134D01*
X679069Y1063446D01*
X681274Y1062533D01*
X683661D01*
X685866Y1063446D01*
X687554Y1065134D01*
X688467Y1067339D01*
Y1069726D01*
X687554Y1071931D01*
X685866Y1073619D01*
X683661Y1074532D01*
D02*
G37*
G36*
X516194Y1064750D02*
X513806D01*
X511601Y1063837D01*
X509913Y1062149D01*
X509000Y1059943D01*
Y1057557D01*
X509913Y1055351D01*
X511601Y1053663D01*
X513806Y1052750D01*
X516194D01*
X518399Y1053663D01*
X520087Y1055351D01*
X521000Y1057557D01*
Y1059943D01*
X520087Y1062149D01*
X518399Y1063837D01*
X516194Y1064750D01*
D02*
G37*
G36*
X295100Y1049204D02*
Y1044400D01*
X299904D01*
X299848Y1044610D01*
X298754Y1046506D01*
X297206Y1048054D01*
X295309Y1049148D01*
X295100Y1049204D01*
D02*
G37*
G36*
X289100Y1049204D02*
X288890Y1049148D01*
X286994Y1048054D01*
X285446Y1046506D01*
X284352Y1044610D01*
X284296Y1044400D01*
X289100D01*
Y1049204D01*
D02*
G37*
G36*
X187790Y1080524D02*
X184146D01*
X180572Y1079813D01*
X177205Y1078419D01*
X174175Y1076394D01*
X171598Y1073817D01*
X169573Y1070787D01*
X168179Y1067420D01*
X167468Y1063846D01*
Y1060202D01*
X168179Y1056628D01*
X169573Y1053261D01*
X171598Y1050231D01*
X174175Y1047654D01*
X177205Y1045630D01*
X180572Y1044235D01*
X184146Y1043524D01*
X187790D01*
X191364Y1044235D01*
X194731Y1045630D01*
X197761Y1047654D01*
X200338Y1050231D01*
X202362Y1053261D01*
X203757Y1056628D01*
X204468Y1060202D01*
Y1063846D01*
X203757Y1067420D01*
X202362Y1070787D01*
X200338Y1073817D01*
X197761Y1076394D01*
X194731Y1078419D01*
X191364Y1079813D01*
X187790Y1080524D01*
D02*
G37*
G36*
X124290D02*
X120646D01*
X117072Y1079813D01*
X113705Y1078419D01*
X110675Y1076394D01*
X108098Y1073817D01*
X106074Y1070787D01*
X104679Y1067420D01*
X103968Y1063846D01*
Y1060202D01*
X104679Y1056628D01*
X106074Y1053261D01*
X108098Y1050231D01*
X110675Y1047654D01*
X113705Y1045630D01*
X117072Y1044235D01*
X120646Y1043524D01*
X124290D01*
X127864Y1044235D01*
X131231Y1045630D01*
X134261Y1047654D01*
X136838Y1050231D01*
X138862Y1053261D01*
X140257Y1056628D01*
X140968Y1060202D01*
Y1063846D01*
X140257Y1067420D01*
X138862Y1070787D01*
X136838Y1073817D01*
X134261Y1076394D01*
X131231Y1078419D01*
X127864Y1079813D01*
X124290Y1080524D01*
D02*
G37*
G36*
X688693Y1046750D02*
X686307D01*
X684101Y1045836D01*
X682413Y1044149D01*
X681500Y1041944D01*
Y1039557D01*
X682413Y1037351D01*
X684101Y1035663D01*
X686307Y1034750D01*
X688693D01*
X690899Y1035663D01*
X692587Y1037351D01*
X693500Y1039557D01*
Y1041944D01*
X692587Y1044149D01*
X690899Y1045836D01*
X688693Y1046750D01*
D02*
G37*
G36*
X289100Y1038400D02*
X284296D01*
X284352Y1038191D01*
X285446Y1036294D01*
X286994Y1034746D01*
X288890Y1033652D01*
X289100Y1033596D01*
Y1038400D01*
D02*
G37*
G36*
X299904D02*
X295100D01*
Y1033596D01*
X295309Y1033652D01*
X297206Y1034746D01*
X298754Y1036294D01*
X299848Y1038191D01*
X299904Y1038400D01*
D02*
G37*
G36*
X465252Y1037370D02*
X462864D01*
X460659Y1036457D01*
X458971Y1034769D01*
X458058Y1032563D01*
Y1030176D01*
X458971Y1027971D01*
X460659Y1026283D01*
X462864Y1025370D01*
X465252D01*
X467457Y1026283D01*
X469145Y1027971D01*
X470058Y1030176D01*
Y1032563D01*
X469145Y1034769D01*
X467457Y1036457D01*
X465252Y1037370D01*
D02*
G37*
G36*
X372523Y1031670D02*
X370136D01*
X367931Y1030757D01*
X366243Y1029069D01*
X365330Y1026864D01*
Y1024477D01*
X366243Y1022272D01*
X367931Y1020584D01*
X370136Y1019670D01*
X372523D01*
X374728Y1020584D01*
X376416Y1022272D01*
X377330Y1024477D01*
Y1026864D01*
X376416Y1029069D01*
X374728Y1030757D01*
X372523Y1031670D01*
D02*
G37*
G36*
X695944Y1028500D02*
X693557D01*
X691351Y1027587D01*
X689663Y1025899D01*
X688750Y1023693D01*
Y1021307D01*
X689663Y1019101D01*
X691351Y1017413D01*
X693557Y1016500D01*
X695944D01*
X698149Y1017413D01*
X699837Y1019101D01*
X700750Y1021307D01*
Y1023693D01*
X699837Y1025899D01*
X698149Y1027587D01*
X695944Y1028500D01*
D02*
G37*
G36*
X318721Y1025275D02*
X316279D01*
X313920Y1024643D01*
X311805Y1023422D01*
X310078Y1021695D01*
X308857Y1019580D01*
X308225Y1017221D01*
Y1014779D01*
X308857Y1012420D01*
X310078Y1010305D01*
X311805Y1008578D01*
X313920Y1007357D01*
X316279Y1006725D01*
X318721D01*
X321080Y1007357D01*
X323195Y1008578D01*
X324922Y1010305D01*
X326143Y1012420D01*
X326775Y1014779D01*
Y1017221D01*
X326143Y1019580D01*
X324922Y1021695D01*
X323195Y1023422D01*
X321080Y1024643D01*
X318721Y1025275D01*
D02*
G37*
G36*
X366954Y1016920D02*
X364566D01*
X362361Y1016007D01*
X360673Y1014319D01*
X359760Y1012113D01*
Y1009726D01*
X360673Y1007521D01*
X362361Y1005833D01*
X364566Y1004920D01*
X366954D01*
X369159Y1005833D01*
X370847Y1007521D01*
X371760Y1009726D01*
Y1012113D01*
X370847Y1014319D01*
X369159Y1016007D01*
X366954Y1016920D01*
D02*
G37*
G36*
X509693Y1012750D02*
X507307D01*
X505101Y1011837D01*
X503413Y1010149D01*
X502500Y1007943D01*
Y1005556D01*
X503413Y1003351D01*
X505101Y1001664D01*
X507307Y1000750D01*
X509693D01*
X511899Y1001664D01*
X513587Y1003351D01*
X514500Y1005556D01*
Y1007943D01*
X513587Y1010149D01*
X511899Y1011837D01*
X509693Y1012750D01*
D02*
G37*
G36*
X187790Y1036024D02*
X184146D01*
X180572Y1035313D01*
X177205Y1033919D01*
X174175Y1031894D01*
X171598Y1029317D01*
X169573Y1026287D01*
X168179Y1022920D01*
X167468Y1019346D01*
Y1015702D01*
X168179Y1012128D01*
X169573Y1008761D01*
X171598Y1005731D01*
X174175Y1003154D01*
X177205Y1001130D01*
X180572Y999735D01*
X184146Y999024D01*
X187790D01*
X191364Y999735D01*
X194731Y1001130D01*
X197761Y1003154D01*
X200338Y1005731D01*
X202362Y1008761D01*
X203757Y1012128D01*
X204468Y1015702D01*
Y1019346D01*
X203757Y1022920D01*
X202362Y1026287D01*
X200338Y1029317D01*
X197761Y1031894D01*
X194731Y1033919D01*
X191364Y1035313D01*
X187790Y1036024D01*
D02*
G37*
G36*
X124290D02*
X120646D01*
X117072Y1035313D01*
X113705Y1033919D01*
X110675Y1031894D01*
X108098Y1029317D01*
X106074Y1026287D01*
X104679Y1022920D01*
X103968Y1019346D01*
Y1015702D01*
X104679Y1012128D01*
X106074Y1008761D01*
X108098Y1005731D01*
X110675Y1003154D01*
X113705Y1001130D01*
X117072Y999735D01*
X120646Y999024D01*
X124290D01*
X127864Y999735D01*
X131231Y1001130D01*
X134261Y1003154D01*
X136838Y1005731D01*
X138862Y1008761D01*
X140257Y1012128D01*
X140968Y1015702D01*
Y1019346D01*
X140257Y1022920D01*
X138862Y1026287D01*
X136838Y1029317D01*
X134261Y1031894D01*
X131231Y1033919D01*
X127864Y1035313D01*
X124290Y1036024D01*
D02*
G37*
G36*
X63438Y1037524D02*
X59498D01*
X55634Y1036755D01*
X51995Y1035248D01*
X48719Y1033059D01*
X45933Y1030273D01*
X43744Y1026998D01*
X42237Y1023358D01*
X41468Y1019494D01*
Y1015554D01*
X42237Y1011690D01*
X43744Y1008051D01*
X45933Y1004775D01*
X48719Y1001989D01*
X51995Y999800D01*
X55634Y998293D01*
X59498Y997524D01*
X63438D01*
X67302Y998293D01*
X70942Y999800D01*
X74217Y1001989D01*
X77003Y1004775D01*
X79192Y1008051D01*
X80699Y1011690D01*
X81468Y1015554D01*
Y1019494D01*
X80699Y1023358D01*
X79192Y1026998D01*
X77003Y1030273D01*
X74217Y1033059D01*
X70942Y1035248D01*
X67302Y1036755D01*
X63438Y1037524D01*
D02*
G37*
G36*
X590694Y1002500D02*
X588307D01*
X586101Y1001587D01*
X584413Y999899D01*
X583500Y997693D01*
Y995306D01*
X584413Y993101D01*
X586101Y991413D01*
X588307Y990500D01*
X590694D01*
X592899Y991413D01*
X594586Y993101D01*
X595500Y995306D01*
Y997693D01*
X594586Y999899D01*
X592899Y1001587D01*
X590694Y1002500D01*
D02*
G37*
G36*
X366446Y1001426D02*
X364058D01*
X361853Y1000513D01*
X360165Y998825D01*
X359252Y996619D01*
Y994232D01*
X360165Y992027D01*
X361853Y990339D01*
X364058Y989426D01*
X366446D01*
X368651Y990339D01*
X370339Y992027D01*
X371252Y994232D01*
Y996619D01*
X370339Y998825D01*
X368651Y1000513D01*
X366446Y1001426D01*
D02*
G37*
G36*
X410896Y999140D02*
X408508D01*
X406303Y998227D01*
X404615Y996539D01*
X403702Y994333D01*
Y991946D01*
X404615Y989741D01*
X406303Y988053D01*
X408508Y987140D01*
X410896D01*
X413101Y988053D01*
X414789Y989741D01*
X415702Y991946D01*
Y994333D01*
X414789Y996539D01*
X413101Y998227D01*
X410896Y999140D01*
D02*
G37*
G36*
X301375Y999875D02*
X282825D01*
Y981325D01*
X301375D01*
Y999875D01*
D02*
G37*
G36*
X494594Y989610D02*
X492206D01*
X490001Y988697D01*
X488313Y987009D01*
X487400Y984803D01*
Y982417D01*
X488313Y980211D01*
X490001Y978523D01*
X492206Y977610D01*
X494594D01*
X496799Y978523D01*
X498487Y980211D01*
X499400Y982417D01*
Y984803D01*
X498487Y987009D01*
X496799Y988697D01*
X494594Y989610D01*
D02*
G37*
G36*
X535443Y974250D02*
X533056D01*
X530851Y973337D01*
X529164Y971649D01*
X528250Y969444D01*
Y967057D01*
X529164Y964851D01*
X530851Y963164D01*
X533056Y962250D01*
X535443D01*
X537649Y963164D01*
X539337Y964851D01*
X540250Y967057D01*
Y969444D01*
X539337Y971649D01*
X537649Y973337D01*
X535443Y974250D01*
D02*
G37*
G36*
X204468Y991524D02*
X167468D01*
Y954524D01*
X204468D01*
Y991524D01*
D02*
G37*
G36*
X124290D02*
X120646D01*
X117072Y990813D01*
X113705Y989418D01*
X110675Y987394D01*
X108098Y984817D01*
X106074Y981787D01*
X104679Y978420D01*
X103968Y974846D01*
Y971202D01*
X104679Y967628D01*
X106074Y964261D01*
X108098Y961231D01*
X110675Y958654D01*
X113705Y956629D01*
X117072Y955235D01*
X120646Y954524D01*
X124290D01*
X127864Y955235D01*
X131231Y956629D01*
X134261Y958654D01*
X136838Y961231D01*
X138862Y964261D01*
X140257Y967628D01*
X140968Y971202D01*
Y974846D01*
X140257Y978420D01*
X138862Y981787D01*
X136838Y984817D01*
X134261Y987394D01*
X131231Y989418D01*
X127864Y990813D01*
X124290Y991524D01*
D02*
G37*
G36*
X695787Y965261D02*
X693400D01*
X691194Y964348D01*
X689506Y962660D01*
X688593Y960454D01*
Y958067D01*
X689506Y955862D01*
X691194Y954174D01*
X693400Y953261D01*
X695406D01*
X696142Y952454D01*
X696299Y952098D01*
X695802Y950900D01*
Y948512D01*
X696715Y946307D01*
X698403Y944619D01*
X700609Y943706D01*
X702996D01*
X705201Y944619D01*
X706889Y946307D01*
X707802Y948512D01*
Y950900D01*
X706889Y953105D01*
X705201Y954793D01*
X702996Y955706D01*
X700990D01*
X700253Y956513D01*
X700096Y956869D01*
X700593Y958067D01*
Y960454D01*
X699680Y962660D01*
X697992Y964348D01*
X695787Y965261D01*
D02*
G37*
G36*
X295100Y947605D02*
Y942800D01*
X299904D01*
X299848Y943009D01*
X298754Y944905D01*
X297206Y946454D01*
X295310Y947548D01*
X295100Y947605D01*
D02*
G37*
G36*
X289100Y947605D02*
X288890Y947548D01*
X286994Y946454D01*
X285446Y944905D01*
X284352Y943009D01*
X284296Y942800D01*
X289100D01*
Y947605D01*
D02*
G37*
G36*
X372943Y952500D02*
X370556D01*
X368351Y951587D01*
X366664Y949899D01*
X365750Y947693D01*
Y945306D01*
X366664Y943101D01*
X368351Y941413D01*
X370556Y940500D01*
X372943D01*
X375149Y941413D01*
X376837Y943101D01*
X377750Y945306D01*
Y947693D01*
X376837Y949899D01*
X375149Y951587D01*
X372943Y952500D01*
D02*
G37*
G36*
X299904Y936800D02*
X295100D01*
Y931995D01*
X295310Y932052D01*
X297206Y933146D01*
X298754Y934695D01*
X299848Y936590D01*
X299904Y936800D01*
D02*
G37*
G36*
X289100D02*
X284296D01*
X284352Y936590D01*
X285446Y934695D01*
X286994Y933146D01*
X288890Y932052D01*
X289100Y931995D01*
Y936800D01*
D02*
G37*
G36*
X648590Y939080D02*
X646203D01*
X643997Y938167D01*
X642310Y936479D01*
X641396Y934274D01*
Y931887D01*
X642310Y929681D01*
X643997Y927993D01*
X646203Y927080D01*
X648590D01*
X650795Y927993D01*
X652483Y929681D01*
X653396Y931887D01*
Y934274D01*
X652483Y936479D01*
X650795Y938167D01*
X648590Y939080D01*
D02*
G37*
G36*
X623194Y917500D02*
X620807D01*
X618601Y916587D01*
X616913Y914899D01*
X616000Y912693D01*
Y910306D01*
X616913Y908101D01*
X618601Y906413D01*
X620807Y905500D01*
X623194D01*
X625399Y906413D01*
X627087Y908101D01*
X628000Y910306D01*
Y912693D01*
X627087Y914899D01*
X625399Y916587D01*
X623194Y917500D01*
D02*
G37*
G36*
X318721Y923675D02*
X316279D01*
X313920Y923043D01*
X311805Y921822D01*
X310078Y920095D01*
X308857Y917980D01*
X308225Y915621D01*
Y913179D01*
X308857Y910820D01*
X310078Y908705D01*
X311805Y906978D01*
X313920Y905757D01*
X316279Y905125D01*
X318721D01*
X321080Y905757D01*
X323195Y906978D01*
X324922Y908705D01*
X326143Y910820D01*
X326775Y913179D01*
Y915621D01*
X326143Y917980D01*
X324922Y920095D01*
X323195Y921822D01*
X321080Y923043D01*
X318721Y923675D01*
D02*
G37*
G36*
X177738Y928974D02*
X173798D01*
X169934Y928205D01*
X166294Y926698D01*
X163019Y924509D01*
X160233Y921723D01*
X158044Y918447D01*
X156537Y914808D01*
X155768Y910944D01*
Y907004D01*
X156537Y903140D01*
X158044Y899501D01*
X160233Y896225D01*
X163019Y893439D01*
X166294Y891250D01*
X169934Y889743D01*
X173798Y888974D01*
X177738D01*
X181602Y889743D01*
X185242Y891250D01*
X188517Y893439D01*
X191303Y896225D01*
X193492Y899501D01*
X194999Y903140D01*
X195768Y907004D01*
Y910944D01*
X194999Y914808D01*
X193492Y918447D01*
X191303Y921723D01*
X188517Y924509D01*
X185242Y926698D01*
X181602Y928205D01*
X177738Y928974D01*
D02*
G37*
G36*
X629590Y898302D02*
X627202D01*
X624997Y897389D01*
X623309Y895701D01*
X622396Y893495D01*
Y891108D01*
X623309Y888903D01*
X624997Y887215D01*
X627202Y886302D01*
X629590D01*
X631795Y887215D01*
X633483Y888903D01*
X634396Y891108D01*
Y893495D01*
X633483Y895701D01*
X631795Y897389D01*
X629590Y898302D01*
D02*
G37*
G36*
X301375Y898275D02*
X282825D01*
Y879725D01*
X301375D01*
Y898275D01*
D02*
G37*
G36*
X544356Y874652D02*
X541969D01*
X539764Y873738D01*
X538076Y872050D01*
X537163Y869845D01*
Y867458D01*
X538076Y865253D01*
X539764Y863565D01*
X541969Y862652D01*
X544356D01*
X546562Y863565D01*
X548249Y865253D01*
X549163Y867458D01*
Y869845D01*
X548249Y872050D01*
X546562Y873738D01*
X544356Y874652D01*
D02*
G37*
G36*
X661593Y865790D02*
X659206D01*
X657001Y864877D01*
X655313Y863189D01*
X654400Y860984D01*
Y858596D01*
X655313Y856391D01*
X657001Y854703D01*
X659206Y853790D01*
X661593D01*
X663799Y854703D01*
X665487Y856391D01*
X666400Y858596D01*
Y860984D01*
X665487Y863189D01*
X663799Y864877D01*
X661593Y865790D01*
D02*
G37*
G36*
X492938Y886618D02*
X490550D01*
X488345Y885705D01*
X486657Y884017D01*
X485744Y881812D01*
Y879425D01*
X486657Y877219D01*
X488345Y875531D01*
X489902Y874886D01*
Y873512D01*
X489413Y873309D01*
X487725Y871621D01*
X486812Y869416D01*
Y867029D01*
X487725Y864824D01*
X489413Y863136D01*
X491618Y862223D01*
X492803D01*
X493508Y861167D01*
X493212Y860451D01*
Y858064D01*
X494126Y855859D01*
X495813Y854171D01*
X498018Y853258D01*
X500406D01*
X502611Y854171D01*
X504299Y855859D01*
X505212Y858064D01*
Y860451D01*
X504916Y861167D01*
X505621Y862223D01*
X506805D01*
X509011Y863136D01*
X510699Y864824D01*
X511612Y867029D01*
Y869416D01*
X510699Y871621D01*
X509011Y873309D01*
X506805Y874223D01*
X504418D01*
X502213Y873309D01*
X500525Y871621D01*
X499899Y870110D01*
X498525D01*
X497898Y871621D01*
X496211Y873309D01*
X494654Y873954D01*
Y875329D01*
X495143Y875531D01*
X496831Y877219D01*
X497744Y879425D01*
Y881812D01*
X496831Y884017D01*
X495143Y885705D01*
X492938Y886618D01*
D02*
G37*
G36*
X629743Y849650D02*
X627356D01*
X625151Y848737D01*
X623463Y847049D01*
X622887Y845658D01*
X621513D01*
X620937Y847049D01*
X619249Y848737D01*
X617043Y849650D01*
X614656D01*
X612451Y848737D01*
X610763Y847049D01*
X609850Y844844D01*
Y842457D01*
X610763Y840251D01*
X612451Y838563D01*
X614656Y837650D01*
X617043D01*
X619249Y838563D01*
X620937Y840251D01*
X621513Y841642D01*
X622887D01*
X623463Y840251D01*
X625151Y838563D01*
X627356Y837650D01*
X629743D01*
X631949Y838563D01*
X633637Y840251D01*
X634550Y842457D01*
Y844844D01*
X633637Y847049D01*
X631949Y848737D01*
X629743Y849650D01*
D02*
G37*
G36*
X331648Y855550D02*
X328752D01*
X325954Y854800D01*
X323446Y853352D01*
X321398Y851304D01*
X319950Y848796D01*
X319200Y845998D01*
Y843102D01*
X319950Y840304D01*
X321398Y837796D01*
X323446Y835748D01*
X325954Y834300D01*
X328752Y833550D01*
X331648D01*
X334446Y834300D01*
X336954Y835748D01*
X339002Y837796D01*
X340450Y840304D01*
X341200Y843102D01*
Y845998D01*
X340450Y848796D01*
X339002Y851304D01*
X336954Y853352D01*
X334446Y854800D01*
X331648Y855550D01*
D02*
G37*
G36*
X306248D02*
X303352D01*
X300554Y854800D01*
X298046Y853352D01*
X295998Y851304D01*
X294550Y848796D01*
X293800Y845998D01*
Y843102D01*
X294550Y840304D01*
X295998Y837796D01*
X298046Y835748D01*
X300554Y834300D01*
X303352Y833550D01*
X306248D01*
X309046Y834300D01*
X311554Y835748D01*
X313602Y837796D01*
X315050Y840304D01*
X315800Y843102D01*
Y845998D01*
X315050Y848796D01*
X313602Y851304D01*
X311554Y853352D01*
X309046Y854800D01*
X306248Y855550D01*
D02*
G37*
G36*
X290400D02*
X268400D01*
Y833550D01*
X290400D01*
Y855550D01*
D02*
G37*
G36*
X229406Y853570D02*
X226510D01*
X223712Y852820D01*
X221204Y851372D01*
X219156Y849324D01*
X217708Y846816D01*
X216958Y844018D01*
Y841122D01*
X217708Y838324D01*
X219156Y835816D01*
X221204Y833768D01*
X223712Y832319D01*
X226510Y831570D01*
X229406D01*
X232204Y832319D01*
X234712Y833768D01*
X236760Y835816D01*
X238208Y838324D01*
X238958Y841122D01*
Y844018D01*
X238208Y846816D01*
X236760Y849324D01*
X234712Y851372D01*
X232204Y852820D01*
X229406Y853570D01*
D02*
G37*
G36*
X204006D02*
X201110D01*
X198312Y852820D01*
X195804Y851372D01*
X193756Y849324D01*
X192308Y846816D01*
X191558Y844018D01*
Y841122D01*
X192308Y838324D01*
X193756Y835816D01*
X195804Y833768D01*
X198312Y832319D01*
X201110Y831570D01*
X204006D01*
X206804Y832319D01*
X209312Y833768D01*
X211360Y835816D01*
X212808Y838324D01*
X213558Y841122D01*
Y844018D01*
X212808Y846816D01*
X211360Y849324D01*
X209312Y851372D01*
X206804Y852820D01*
X204006Y853570D01*
D02*
G37*
G36*
X188158D02*
X166158D01*
Y831570D01*
X188158D01*
Y853570D01*
D02*
G37*
G36*
X530044Y839718D02*
X527657D01*
X525452Y838804D01*
X523764Y837116D01*
X522850Y834911D01*
Y832524D01*
X523764Y830319D01*
X525452Y828631D01*
X527657Y827718D01*
X530044D01*
X532249Y828631D01*
X533937Y830319D01*
X534850Y832524D01*
Y834911D01*
X533937Y837116D01*
X532249Y838804D01*
X530044Y839718D01*
D02*
G37*
G36*
X230958Y826760D02*
Y820170D01*
X237548D01*
X237314Y821045D01*
X235992Y823335D01*
X234123Y825204D01*
X231833Y826526D01*
X230958Y826760D01*
D02*
G37*
G36*
X224958D02*
X224083Y826526D01*
X221793Y825204D01*
X219924Y823335D01*
X218602Y821045D01*
X218368Y820170D01*
X224958D01*
Y826760D01*
D02*
G37*
G36*
X435443Y823750D02*
X433056D01*
X430851Y822837D01*
X429164Y821149D01*
X428250Y818943D01*
Y816556D01*
X429164Y814351D01*
X430851Y812663D01*
X433056Y811750D01*
X435443D01*
X437649Y812663D01*
X439337Y814351D01*
X440250Y816556D01*
Y818943D01*
X439337Y821149D01*
X437649Y822837D01*
X435443Y823750D01*
D02*
G37*
G36*
X237548Y814170D02*
X230958D01*
Y807579D01*
X231833Y807814D01*
X234123Y809136D01*
X235992Y811005D01*
X237314Y813295D01*
X237548Y814170D01*
D02*
G37*
G36*
X224958D02*
X218368D01*
X218602Y813295D01*
X219924Y811005D01*
X221793Y809136D01*
X224083Y807814D01*
X224958Y807579D01*
Y814170D01*
D02*
G37*
G36*
X204006Y828170D02*
X201110D01*
X198312Y827420D01*
X195804Y825972D01*
X193756Y823924D01*
X192308Y821416D01*
X191558Y818618D01*
Y815722D01*
X192308Y812924D01*
X193756Y810416D01*
X195804Y808368D01*
X198312Y806919D01*
X201110Y806170D01*
X204006D01*
X206804Y806919D01*
X209312Y808368D01*
X211360Y810416D01*
X212808Y812924D01*
X213558Y815722D01*
Y818618D01*
X212808Y821416D01*
X211360Y823924D01*
X209312Y825972D01*
X206804Y827420D01*
X204006Y828170D01*
D02*
G37*
G36*
X178606D02*
X175710D01*
X172912Y827420D01*
X170404Y825972D01*
X168356Y823924D01*
X166908Y821416D01*
X166158Y818618D01*
Y815722D01*
X166908Y812924D01*
X168356Y810416D01*
X170404Y808368D01*
X172912Y806919D01*
X175710Y806170D01*
X178606D01*
X181404Y806919D01*
X183912Y808368D01*
X185960Y810416D01*
X187408Y812924D01*
X188158Y815722D01*
Y818618D01*
X187408Y821416D01*
X185960Y823924D01*
X183912Y825972D01*
X181404Y827420D01*
X178606Y828170D01*
D02*
G37*
G36*
X242082Y731464D02*
X238486D01*
X235011Y730533D01*
X231897Y728735D01*
X229353Y726191D01*
X227555Y723077D01*
X226624Y719602D01*
Y716006D01*
X227555Y712531D01*
X229353Y709417D01*
X231897Y706873D01*
X235011Y705075D01*
X238486Y704144D01*
X242082D01*
X245557Y705075D01*
X248671Y706873D01*
X251215Y709417D01*
X253013Y712531D01*
X253944Y716006D01*
Y719602D01*
X253013Y723077D01*
X251215Y726191D01*
X248671Y728735D01*
X245557Y730533D01*
X242082Y731464D01*
D02*
G37*
G36*
X165882D02*
X162286D01*
X158811Y730533D01*
X155697Y728735D01*
X153153Y726191D01*
X151355Y723077D01*
X150424Y719602D01*
Y716006D01*
X151355Y712531D01*
X153153Y709417D01*
X155697Y706873D01*
X158811Y705075D01*
X162286Y704144D01*
X165882D01*
X169357Y705075D01*
X172471Y706873D01*
X175015Y709417D01*
X176813Y712531D01*
X177744Y716006D01*
Y719602D01*
X176813Y723077D01*
X175015Y726191D01*
X172471Y728735D01*
X169357Y730533D01*
X165882Y731464D01*
D02*
G37*
G36*
X115082D02*
X111486D01*
X108011Y730533D01*
X104897Y728735D01*
X102353Y726191D01*
X100555Y723077D01*
X99624Y719602D01*
Y716006D01*
X100555Y712531D01*
X102353Y709417D01*
X104897Y706873D01*
X108011Y705075D01*
X111486Y704144D01*
X115082D01*
X118557Y705075D01*
X121671Y706873D01*
X124215Y709417D01*
X126013Y712531D01*
X126944Y716006D01*
Y719602D01*
X126013Y723077D01*
X124215Y726191D01*
X121671Y728735D01*
X118557Y730533D01*
X115082Y731464D01*
D02*
G37*
G36*
X64282D02*
X60686D01*
X57211Y730533D01*
X54097Y728735D01*
X51553Y726191D01*
X49755Y723077D01*
X48824Y719602D01*
Y716006D01*
X49755Y712531D01*
X51553Y709417D01*
X54097Y706873D01*
X57211Y705075D01*
X60686Y704144D01*
X64282D01*
X67757Y705075D01*
X70871Y706873D01*
X73415Y709417D01*
X75213Y712531D01*
X76144Y716006D01*
Y719602D01*
X75213Y723077D01*
X73415Y726191D01*
X70871Y728735D01*
X67757Y730533D01*
X64282Y731464D01*
D02*
G37*
G36*
X36400Y720422D02*
X14400D01*
Y698422D01*
X36400D01*
Y720422D01*
D02*
G37*
G36*
X26848Y695022D02*
X23952D01*
X21154Y694272D01*
X18646Y692824D01*
X16598Y690776D01*
X15150Y688268D01*
X14400Y685470D01*
Y682574D01*
X15150Y679776D01*
X16598Y677268D01*
X18646Y675220D01*
X21154Y673772D01*
X23952Y673022D01*
X26848D01*
X29646Y673772D01*
X32154Y675220D01*
X34202Y677268D01*
X35650Y679776D01*
X36400Y682574D01*
Y685470D01*
X35650Y688268D01*
X34202Y690776D01*
X32154Y692824D01*
X29646Y694272D01*
X26848Y695022D01*
D02*
G37*
G36*
Y669622D02*
X23952D01*
X21154Y668872D01*
X18646Y667424D01*
X16598Y665376D01*
X15150Y662868D01*
X14400Y660070D01*
Y657174D01*
X15150Y654376D01*
X16598Y651868D01*
X18646Y649820D01*
X21154Y648372D01*
X23952Y647622D01*
X26848D01*
X29646Y648372D01*
X32154Y649820D01*
X34202Y651868D01*
X35650Y654376D01*
X36400Y657174D01*
Y660070D01*
X35650Y662868D01*
X34202Y665376D01*
X32154Y667424D01*
X29646Y668872D01*
X26848Y669622D01*
D02*
G37*
G36*
X242082Y655264D02*
X238486D01*
X235011Y654333D01*
X231897Y652535D01*
X229353Y649991D01*
X227555Y646877D01*
X226624Y643402D01*
Y639806D01*
X227555Y636331D01*
X229353Y633217D01*
X231897Y630673D01*
X235011Y628875D01*
X238486Y627944D01*
X242082D01*
X245557Y628875D01*
X248671Y630673D01*
X251215Y633217D01*
X253013Y636331D01*
X253944Y639806D01*
Y643402D01*
X253013Y646877D01*
X251215Y649991D01*
X248671Y652535D01*
X245557Y654333D01*
X242082Y655264D01*
D02*
G37*
G36*
X165882D02*
X162286D01*
X158811Y654333D01*
X155697Y652535D01*
X153153Y649991D01*
X151355Y646877D01*
X150424Y643402D01*
Y639806D01*
X151355Y636331D01*
X153153Y633217D01*
X155697Y630673D01*
X158811Y628875D01*
X162286Y627944D01*
X165882D01*
X169357Y628875D01*
X172471Y630673D01*
X175015Y633217D01*
X176813Y636331D01*
X177744Y639806D01*
Y643402D01*
X176813Y646877D01*
X175015Y649991D01*
X172471Y652535D01*
X169357Y654333D01*
X165882Y655264D01*
D02*
G37*
G36*
X115082D02*
X111486D01*
X108011Y654333D01*
X104897Y652535D01*
X102353Y649991D01*
X100555Y646877D01*
X99624Y643402D01*
Y639806D01*
X100555Y636331D01*
X102353Y633217D01*
X104897Y630673D01*
X108011Y628875D01*
X111486Y627944D01*
X115082D01*
X118557Y628875D01*
X121671Y630673D01*
X124215Y633217D01*
X126013Y636331D01*
X126944Y639806D01*
Y643402D01*
X126013Y646877D01*
X124215Y649991D01*
X121671Y652535D01*
X118557Y654333D01*
X115082Y655264D01*
D02*
G37*
G36*
X64282D02*
X60686D01*
X57211Y654333D01*
X54097Y652535D01*
X51553Y649991D01*
X49755Y646877D01*
X48824Y643402D01*
Y639806D01*
X49755Y636331D01*
X51553Y633217D01*
X54097Y630673D01*
X57211Y628875D01*
X60686Y627944D01*
X64282D01*
X67757Y628875D01*
X70871Y630673D01*
X73415Y633217D01*
X75213Y636331D01*
X76144Y639806D01*
Y643402D01*
X75213Y646877D01*
X73415Y649991D01*
X70871Y652535D01*
X67757Y654333D01*
X64282Y655264D01*
D02*
G37*
G36*
X279443Y574500D02*
X277057D01*
X274851Y573587D01*
X273163Y571899D01*
X272250Y569693D01*
Y567307D01*
X273163Y565101D01*
X274851Y563414D01*
X277057Y562500D01*
X279443D01*
X281649Y563414D01*
X283337Y565101D01*
X284250Y567307D01*
Y569693D01*
X283337Y571899D01*
X281649Y573587D01*
X279443Y574500D01*
D02*
G37*
G36*
X307878Y487880D02*
X305492D01*
X303286Y486967D01*
X301598Y485279D01*
X300685Y483074D01*
Y480686D01*
X301598Y478481D01*
X303286Y476793D01*
X305492Y475880D01*
X307878D01*
X310084Y476793D01*
X311772Y478481D01*
X312685Y480686D01*
Y483074D01*
X311772Y485279D01*
X310084Y486967D01*
X307878Y487880D01*
D02*
G37*
G36*
X177230Y498340D02*
X173290D01*
X169426Y497571D01*
X165786Y496064D01*
X162511Y493875D01*
X159725Y491089D01*
X157536Y487813D01*
X156029Y484174D01*
X155260Y480310D01*
Y476370D01*
X156029Y472506D01*
X157536Y468866D01*
X159725Y465591D01*
X162511Y462805D01*
X165786Y460616D01*
X169426Y459109D01*
X173290Y458340D01*
X177230D01*
X181094Y459109D01*
X184734Y460616D01*
X188009Y462805D01*
X190795Y465591D01*
X192984Y468866D01*
X194491Y472506D01*
X195260Y476370D01*
Y480310D01*
X194491Y484174D01*
X192984Y487813D01*
X190795Y491089D01*
X188009Y493875D01*
X184734Y496064D01*
X181094Y497571D01*
X177230Y498340D01*
D02*
G37*
G36*
X244018Y466248D02*
X241630D01*
X239425Y465335D01*
X237737Y463647D01*
X236824Y461441D01*
Y459054D01*
X237737Y456849D01*
X239425Y455161D01*
X241630Y454248D01*
X244018D01*
X246223Y455161D01*
X247911Y456849D01*
X248824Y459054D01*
Y461441D01*
X247911Y463647D01*
X246223Y465335D01*
X244018Y466248D01*
D02*
G37*
G36*
X296341Y460152D02*
X293955D01*
X291749Y459239D01*
X290061Y457551D01*
X289148Y455345D01*
Y452958D01*
X290061Y450753D01*
X291749Y449065D01*
X293955Y448152D01*
X296341D01*
X298547Y449065D01*
X300235Y450753D01*
X301148Y452958D01*
Y455345D01*
X300235Y457551D01*
X298547Y459239D01*
X296341Y460152D01*
D02*
G37*
G36*
X187282Y432590D02*
X183638D01*
X180064Y431879D01*
X176697Y430485D01*
X173667Y428460D01*
X171090Y425883D01*
X169065Y422853D01*
X167671Y419486D01*
X166960Y415912D01*
Y412268D01*
X167671Y408694D01*
X169065Y405327D01*
X171090Y402297D01*
X173667Y399720D01*
X176697Y397696D01*
X180064Y396301D01*
X183638Y395590D01*
X187282D01*
X190856Y396301D01*
X194223Y397696D01*
X197253Y399720D01*
X199830Y402297D01*
X201854Y405327D01*
X203249Y408694D01*
X203960Y412268D01*
Y415912D01*
X203249Y419486D01*
X201854Y422853D01*
X199830Y425883D01*
X197253Y428460D01*
X194223Y430485D01*
X190856Y431879D01*
X187282Y432590D01*
D02*
G37*
G36*
X123782D02*
X120138D01*
X116564Y431879D01*
X113197Y430485D01*
X110167Y428460D01*
X107590Y425883D01*
X105566Y422853D01*
X104171Y419486D01*
X103460Y415912D01*
Y412268D01*
X104171Y408694D01*
X105566Y405327D01*
X107590Y402297D01*
X110167Y399720D01*
X113197Y397696D01*
X116564Y396301D01*
X120138Y395590D01*
X123782D01*
X127356Y396301D01*
X130723Y397696D01*
X133753Y399720D01*
X136330Y402297D01*
X138355Y405327D01*
X139749Y408694D01*
X140460Y412268D01*
Y415912D01*
X139749Y419486D01*
X138355Y422853D01*
X136330Y425883D01*
X133753Y428460D01*
X130723Y430485D01*
X127356Y431879D01*
X123782Y432590D01*
D02*
G37*
G36*
X328806Y388394D02*
X326419D01*
X324214Y387481D01*
X322526Y385793D01*
X321613Y383587D01*
Y381200D01*
X322526Y378995D01*
X324214Y377307D01*
X326419Y376394D01*
X328806D01*
X331011Y377307D01*
X332699Y378995D01*
X333613Y381200D01*
Y383587D01*
X332699Y385793D01*
X331011Y387481D01*
X328806Y388394D01*
D02*
G37*
G36*
X223270Y388350D02*
X220882D01*
X218677Y387437D01*
X216989Y385749D01*
X216076Y383544D01*
Y381157D01*
X216989Y378951D01*
X218677Y377263D01*
X220882Y376350D01*
X223270D01*
X225475Y377263D01*
X227163Y378951D01*
X228076Y381157D01*
Y383544D01*
X227163Y385749D01*
X225475Y387437D01*
X223270Y388350D01*
D02*
G37*
G36*
X187282Y388090D02*
X183638D01*
X180064Y387379D01*
X176697Y385984D01*
X173667Y383960D01*
X171090Y381383D01*
X169065Y378353D01*
X167671Y374986D01*
X166960Y371412D01*
Y367768D01*
X167671Y364194D01*
X169065Y360827D01*
X171090Y357797D01*
X173667Y355220D01*
X176697Y353195D01*
X180064Y351801D01*
X183638Y351090D01*
X187282D01*
X190856Y351801D01*
X194223Y353195D01*
X197253Y355220D01*
X199830Y357797D01*
X201854Y360827D01*
X203249Y364194D01*
X203960Y367768D01*
Y371412D01*
X203249Y374986D01*
X201854Y378353D01*
X199830Y381383D01*
X197253Y383960D01*
X194223Y385984D01*
X190856Y387379D01*
X187282Y388090D01*
D02*
G37*
G36*
X123782D02*
X120138D01*
X116564Y387379D01*
X113197Y385984D01*
X110167Y383960D01*
X107590Y381383D01*
X105566Y378353D01*
X104171Y374986D01*
X103460Y371412D01*
Y367768D01*
X104171Y364194D01*
X105566Y360827D01*
X107590Y357797D01*
X110167Y355220D01*
X113197Y353195D01*
X116564Y351801D01*
X120138Y351090D01*
X123782D01*
X127356Y351801D01*
X130723Y353195D01*
X133753Y355220D01*
X136330Y357797D01*
X138355Y360827D01*
X139749Y364194D01*
X140460Y367768D01*
Y371412D01*
X139749Y374986D01*
X138355Y378353D01*
X136330Y381383D01*
X133753Y383960D01*
X130723Y385984D01*
X127356Y387379D01*
X123782Y388090D01*
D02*
G37*
G36*
X187282Y343590D02*
X183638D01*
X180064Y342879D01*
X176697Y341484D01*
X173667Y339460D01*
X171090Y336883D01*
X169065Y333853D01*
X167671Y330486D01*
X166960Y326912D01*
Y323268D01*
X167671Y319694D01*
X169065Y316327D01*
X171090Y313297D01*
X173667Y310720D01*
X176697Y308696D01*
X180064Y307301D01*
X183638Y306590D01*
X187282D01*
X190856Y307301D01*
X194223Y308696D01*
X197253Y310720D01*
X199830Y313297D01*
X201854Y316327D01*
X203249Y319694D01*
X203960Y323268D01*
Y326912D01*
X203249Y330486D01*
X201854Y333853D01*
X199830Y336883D01*
X197253Y339460D01*
X194223Y341484D01*
X190856Y342879D01*
X187282Y343590D01*
D02*
G37*
G36*
X123782D02*
X120138D01*
X116564Y342879D01*
X113197Y341484D01*
X110167Y339460D01*
X107590Y336883D01*
X105566Y333853D01*
X104171Y330486D01*
X103460Y326912D01*
Y323268D01*
X104171Y319694D01*
X105566Y316327D01*
X107590Y313297D01*
X110167Y310720D01*
X113197Y308696D01*
X116564Y307301D01*
X120138Y306590D01*
X123782D01*
X127356Y307301D01*
X130723Y308696D01*
X133753Y310720D01*
X136330Y313297D01*
X138355Y316327D01*
X139749Y319694D01*
X140460Y323268D01*
Y326912D01*
X139749Y330486D01*
X138355Y333853D01*
X136330Y336883D01*
X133753Y339460D01*
X130723Y341484D01*
X127356Y342879D01*
X123782Y343590D01*
D02*
G37*
G36*
X62930Y322940D02*
X58990D01*
X55126Y322171D01*
X51487Y320664D01*
X48211Y318475D01*
X45425Y315689D01*
X43236Y312414D01*
X41729Y308774D01*
X40960Y304910D01*
Y300970D01*
X41729Y297106D01*
X43236Y293466D01*
X45425Y290191D01*
X48211Y287405D01*
X51487Y285216D01*
X55126Y283709D01*
X58990Y282940D01*
X62930D01*
X66794Y283709D01*
X70434Y285216D01*
X73709Y287405D01*
X76495Y290191D01*
X78684Y293466D01*
X80191Y297106D01*
X80960Y300970D01*
Y304910D01*
X80191Y308774D01*
X78684Y312414D01*
X76495Y315689D01*
X73709Y318475D01*
X70434Y320664D01*
X66794Y322171D01*
X62930Y322940D01*
D02*
G37*
G36*
X187282Y299090D02*
X183638D01*
X180064Y298379D01*
X176697Y296985D01*
X173667Y294960D01*
X171090Y292383D01*
X169065Y289353D01*
X167671Y285986D01*
X166960Y282412D01*
Y278768D01*
X167671Y275194D01*
X169065Y271827D01*
X171090Y268797D01*
X173667Y266220D01*
X176697Y264195D01*
X180064Y262801D01*
X183638Y262090D01*
X187282D01*
X190856Y262801D01*
X194223Y264195D01*
X197253Y266220D01*
X199830Y268797D01*
X201854Y271827D01*
X203249Y275194D01*
X203960Y278768D01*
Y282412D01*
X203249Y285986D01*
X201854Y289353D01*
X199830Y292383D01*
X197253Y294960D01*
X194223Y296985D01*
X190856Y298379D01*
X187282Y299090D01*
D02*
G37*
G36*
X123782D02*
X120138D01*
X116564Y298379D01*
X113197Y296985D01*
X110167Y294960D01*
X107590Y292383D01*
X105566Y289353D01*
X104171Y285986D01*
X103460Y282412D01*
Y278768D01*
X104171Y275194D01*
X105566Y271827D01*
X107590Y268797D01*
X110167Y266220D01*
X113197Y264195D01*
X116564Y262801D01*
X120138Y262090D01*
X123782D01*
X127356Y262801D01*
X130723Y264195D01*
X133753Y266220D01*
X136330Y268797D01*
X138355Y271827D01*
X139749Y275194D01*
X140460Y278768D01*
Y282412D01*
X139749Y285986D01*
X138355Y289353D01*
X136330Y292383D01*
X133753Y294960D01*
X130723Y296985D01*
X127356Y298379D01*
X123782Y299090D01*
D02*
G37*
G36*
X187282Y254590D02*
X183638D01*
X180064Y253879D01*
X176697Y252484D01*
X173667Y250460D01*
X171090Y247883D01*
X169065Y244853D01*
X167671Y241486D01*
X166960Y237912D01*
Y234268D01*
X167671Y230694D01*
X169065Y227327D01*
X171090Y224297D01*
X173667Y221720D01*
X176697Y219695D01*
X180064Y218301D01*
X183638Y217590D01*
X187282D01*
X190856Y218301D01*
X194223Y219695D01*
X197253Y221720D01*
X199830Y224297D01*
X201854Y227327D01*
X203249Y230694D01*
X203960Y234268D01*
Y237912D01*
X203249Y241486D01*
X201854Y244853D01*
X199830Y247883D01*
X197253Y250460D01*
X194223Y252484D01*
X190856Y253879D01*
X187282Y254590D01*
D02*
G37*
G36*
X123782D02*
X120138D01*
X116564Y253879D01*
X113197Y252484D01*
X110167Y250460D01*
X107590Y247883D01*
X105566Y244853D01*
X104171Y241486D01*
X103460Y237912D01*
Y234268D01*
X104171Y230694D01*
X105566Y227327D01*
X107590Y224297D01*
X110167Y221720D01*
X113197Y219695D01*
X116564Y218301D01*
X120138Y217590D01*
X123782D01*
X127356Y218301D01*
X130723Y219695D01*
X133753Y221720D01*
X136330Y224297D01*
X138355Y227327D01*
X139749Y230694D01*
X140460Y234268D01*
Y237912D01*
X139749Y241486D01*
X138355Y244853D01*
X136330Y247883D01*
X133753Y250460D01*
X130723Y252484D01*
X127356Y253879D01*
X123782Y254590D01*
D02*
G37*
G36*
X297434Y560007D02*
X273558D01*
X271339Y559715D01*
X269271Y558859D01*
X267496Y557496D01*
X266133Y555721D01*
X265277Y553653D01*
X264985Y551434D01*
X265277Y549215D01*
X266133Y547147D01*
X267496Y545372D01*
X269271Y544009D01*
X271339Y543153D01*
X273558Y542861D01*
X293883D01*
X308424Y528320D01*
X266938Y486834D01*
X265575Y485059D01*
X264719Y482991D01*
X264427Y480772D01*
Y282681D01*
X191835Y210090D01*
X166960D01*
Y173090D01*
X203960D01*
Y197965D01*
X279062Y273068D01*
X280425Y274843D01*
X281281Y276911D01*
X281573Y279130D01*
Y477221D01*
X326610Y522258D01*
X327973Y524033D01*
X328829Y526101D01*
X329121Y528320D01*
X328829Y530539D01*
X327973Y532607D01*
X326610Y534382D01*
X303496Y557496D01*
X301721Y558859D01*
X299653Y559715D01*
X297434Y560007D01*
D02*
G37*
G36*
X123782Y210090D02*
X120138D01*
X116564Y209379D01*
X113197Y207985D01*
X110167Y205960D01*
X107590Y203383D01*
X105566Y200353D01*
X104171Y196986D01*
X103460Y193412D01*
Y189768D01*
X104171Y186194D01*
X105566Y182827D01*
X107590Y179797D01*
X110167Y177220D01*
X113197Y175196D01*
X116564Y173801D01*
X120138Y173090D01*
X123782D01*
X127356Y173801D01*
X130723Y175196D01*
X133753Y177220D01*
X136330Y179797D01*
X138355Y182827D01*
X139749Y186194D01*
X140460Y189768D01*
Y193412D01*
X139749Y196986D01*
X138355Y200353D01*
X136330Y203383D01*
X133753Y205960D01*
X130723Y207985D01*
X127356Y209379D01*
X123782Y210090D01*
D02*
G37*
G36*
X576758Y122198D02*
X574370D01*
X572165Y121285D01*
X570477Y119597D01*
X569564Y117392D01*
Y115005D01*
X570477Y112799D01*
X572165Y111111D01*
X574370Y110198D01*
X576758D01*
X578963Y111111D01*
X580651Y112799D01*
X581564Y115005D01*
Y117392D01*
X580651Y119597D01*
X578963Y121285D01*
X576758Y122198D01*
D02*
G37*
G36*
X177230Y147540D02*
X173290D01*
X169426Y146771D01*
X165786Y145264D01*
X162511Y143075D01*
X159725Y140289D01*
X157536Y137014D01*
X156029Y133374D01*
X155260Y129510D01*
Y125570D01*
X156029Y121706D01*
X157536Y118066D01*
X159725Y114791D01*
X162511Y112005D01*
X165786Y109816D01*
X169426Y108309D01*
X173290Y107540D01*
X177230D01*
X181094Y108309D01*
X184734Y109816D01*
X188009Y112005D01*
X190795Y114791D01*
X192984Y118066D01*
X194491Y121706D01*
X195260Y125570D01*
Y129510D01*
X194491Y133374D01*
X192984Y137014D01*
X190795Y140289D01*
X188009Y143075D01*
X184734Y145264D01*
X181094Y146771D01*
X177230Y147540D01*
D02*
G37*
G36*
X488500Y107500D02*
X464000D01*
Y83000D01*
X488500D01*
Y107500D01*
D02*
G37*
G36*
X479250Y80734D02*
Y72850D01*
X487134D01*
X486771Y74208D01*
X485284Y76782D01*
X483182Y78884D01*
X480608Y80371D01*
X479250Y80734D01*
D02*
G37*
G36*
X473250D02*
X471892Y80371D01*
X469318Y78884D01*
X467216Y76782D01*
X465729Y74208D01*
X465366Y72850D01*
X473250D01*
Y80734D01*
D02*
G37*
G36*
X487134Y66850D02*
X479250D01*
Y58966D01*
X480608Y59329D01*
X483182Y60816D01*
X485284Y62918D01*
X486771Y65492D01*
X487134Y66850D01*
D02*
G37*
G36*
X473250D02*
X465366D01*
X465729Y65492D01*
X467216Y62918D01*
X469318Y60816D01*
X471892Y59329D01*
X473250Y58966D01*
Y66850D01*
D02*
G37*
G36*
X477863Y56700D02*
X474637D01*
X471522Y55865D01*
X468728Y54252D01*
X466448Y51972D01*
X464835Y49178D01*
X464000Y46063D01*
Y42837D01*
X464835Y39722D01*
X466448Y36928D01*
X468728Y34648D01*
X471522Y33035D01*
X474637Y32200D01*
X477863D01*
X480978Y33035D01*
X483772Y34648D01*
X486052Y36928D01*
X487665Y39722D01*
X488500Y42837D01*
Y46063D01*
X487665Y49178D01*
X486052Y51972D01*
X483772Y54252D01*
X480978Y55865D01*
X477863Y56700D01*
D02*
G37*
G36*
X678351Y99750D02*
X672649D01*
X666995Y99006D01*
X661487Y97530D01*
X656219Y95348D01*
X651281Y92497D01*
X646757Y89025D01*
X642725Y84993D01*
X639254Y80469D01*
X636402Y75531D01*
X634220Y70263D01*
X632744Y64755D01*
X632000Y59101D01*
Y53399D01*
X632744Y47745D01*
X634220Y42237D01*
X636402Y36969D01*
X639254Y32031D01*
X642725Y27507D01*
X646757Y23475D01*
X651281Y20003D01*
X656219Y17152D01*
X661487Y14970D01*
X666995Y13494D01*
X672649Y12750D01*
X678351D01*
X684005Y13494D01*
X689513Y14970D01*
X694781Y17152D01*
X699719Y20003D01*
X704243Y23475D01*
X708275Y27507D01*
X711747Y32031D01*
X714598Y36969D01*
X716780Y42237D01*
X718256Y47745D01*
X719000Y53399D01*
Y59101D01*
X718256Y64755D01*
X716780Y70263D01*
X714598Y75531D01*
X711747Y80469D01*
X708275Y84993D01*
X704243Y89025D01*
X699719Y92497D01*
X694781Y95348D01*
X689513Y97530D01*
X684005Y99006D01*
X678351Y99750D01*
D02*
G37*
%LPD*%
G36*
X207501Y206560D02*
X205518Y204506D01*
X202400Y200826D01*
X201266Y199198D01*
X200414Y197713D01*
X199846Y196370D01*
X199560Y195169D01*
X199557Y194109D01*
X199836Y193192D01*
X200399Y192417D01*
X186287Y206529D01*
X187062Y205966D01*
X187980Y205687D01*
X189039Y205690D01*
X190240Y205975D01*
X191583Y206544D01*
X193068Y207396D01*
X194695Y208530D01*
X196465Y209947D01*
X200429Y213631D01*
X207501Y206560D01*
D02*
G37*
%LPC*%
G36*
X667693Y725500D02*
X665306D01*
X663101Y724587D01*
X661413Y722899D01*
X660500Y720694D01*
Y718307D01*
X661413Y716101D01*
X663101Y714414D01*
X665306Y713500D01*
X667693D01*
X669899Y714414D01*
X671587Y716101D01*
X672500Y718307D01*
Y720694D01*
X671587Y722899D01*
X669899Y724587D01*
X667693Y725500D01*
D02*
G37*
G36*
X437820Y704000D02*
X435433D01*
X433227Y703087D01*
X431539Y701399D01*
X430626Y699193D01*
Y696806D01*
X431539Y694601D01*
X433227Y692913D01*
X435433Y692000D01*
X437820D01*
X440025Y692913D01*
X441713Y694601D01*
X442626Y696806D01*
Y699193D01*
X441713Y701399D01*
X440025Y703087D01*
X437820Y704000D01*
D02*
G37*
G36*
X536880Y702976D02*
X534492D01*
X532287Y702063D01*
X530599Y700375D01*
X529686Y698169D01*
Y695782D01*
X530599Y693577D01*
X532287Y691889D01*
X534492Y690976D01*
X536880D01*
X539085Y691889D01*
X540773Y693577D01*
X541686Y695782D01*
Y698169D01*
X540773Y700375D01*
X539085Y702063D01*
X536880Y702976D01*
D02*
G37*
G36*
X474483Y698910D02*
X472096D01*
X469890Y697997D01*
X468203Y696309D01*
X467289Y694104D01*
Y691717D01*
X468203Y689512D01*
X469890Y687824D01*
X472096Y686910D01*
X474483D01*
X476688Y687824D01*
X478376Y689512D01*
X479289Y691717D01*
Y694104D01*
X478376Y696309D01*
X476688Y697997D01*
X474483Y698910D01*
D02*
G37*
G36*
X550088Y673004D02*
X547701D01*
X545495Y672091D01*
X543807Y670403D01*
X542894Y668197D01*
Y665810D01*
X543807Y663605D01*
X545495Y661917D01*
X547701Y661004D01*
X550088D01*
X552293Y661917D01*
X553981Y663605D01*
X554894Y665810D01*
Y668197D01*
X553981Y670403D01*
X552293Y672091D01*
X550088Y673004D01*
D02*
G37*
G36*
X513004Y670718D02*
X510616D01*
X508411Y669805D01*
X506723Y668117D01*
X505810Y665911D01*
Y663524D01*
X506723Y661319D01*
X508411Y659631D01*
X510616Y658718D01*
X513004D01*
X515209Y659631D01*
X516897Y661319D01*
X517810Y663524D01*
Y665911D01*
X516897Y668117D01*
X515209Y669805D01*
X513004Y670718D01*
D02*
G37*
G36*
X526720Y670464D02*
X524333D01*
X522127Y669551D01*
X520439Y667863D01*
X519526Y665658D01*
Y663270D01*
X520439Y661065D01*
X522127Y659377D01*
X524333Y658464D01*
X526720D01*
X528925Y659377D01*
X530613Y661065D01*
X531526Y663270D01*
Y665658D01*
X530613Y667863D01*
X528925Y669551D01*
X526720Y670464D01*
D02*
G37*
G36*
X669213Y667670D02*
X666826D01*
X664621Y666757D01*
X662933Y665069D01*
X662020Y662863D01*
Y660477D01*
X662933Y658271D01*
X664621Y656583D01*
X666826Y655670D01*
X669213D01*
X671419Y656583D01*
X673107Y658271D01*
X674020Y660477D01*
Y662863D01*
X673107Y665069D01*
X671419Y666757D01*
X669213Y667670D01*
D02*
G37*
G36*
X502589Y657002D02*
X500202D01*
X497997Y656089D01*
X496309Y654401D01*
X495396Y652196D01*
Y649809D01*
X496309Y647603D01*
X497997Y645915D01*
X500202Y645002D01*
X502589D01*
X504795Y645915D01*
X506483Y647603D01*
X507396Y649809D01*
Y652196D01*
X506483Y654401D01*
X504795Y656089D01*
X502589Y657002D01*
D02*
G37*
G36*
X529767Y611536D02*
X527380D01*
X525175Y610623D01*
X523487Y608935D01*
X522574Y606730D01*
Y604342D01*
X523487Y602137D01*
X525175Y600449D01*
X527380Y599536D01*
X529767D01*
X531973Y600449D01*
X533661Y602137D01*
X534574Y604342D01*
Y606730D01*
X533661Y608935D01*
X531973Y610623D01*
X529767Y611536D01*
D02*
G37*
G36*
X471537Y597853D02*
X469150D01*
X466945Y596939D01*
X465257Y595252D01*
X464343Y593046D01*
Y590659D01*
X465257Y588454D01*
X466945Y586766D01*
X469150Y585853D01*
X471537D01*
X473742Y586766D01*
X475430Y588454D01*
X476343Y590659D01*
Y593046D01*
X475430Y595252D01*
X473742Y596939D01*
X471537Y597853D01*
D02*
G37*
G36*
X659943Y584250D02*
X657557D01*
X655351Y583337D01*
X653663Y581649D01*
X652750Y579444D01*
Y577057D01*
X653663Y574851D01*
X655351Y573163D01*
X657557Y572250D01*
X659943D01*
X662149Y573163D01*
X663837Y574851D01*
X664750Y577057D01*
Y579444D01*
X663837Y581649D01*
X662149Y583337D01*
X659943Y584250D01*
D02*
G37*
G36*
X487095Y575468D02*
X484709D01*
X482503Y574555D01*
X480815Y572867D01*
X479902Y570662D01*
Y568274D01*
X480815Y566069D01*
X482503Y564381D01*
X484709Y563468D01*
X487095D01*
X489301Y564381D01*
X490989Y566069D01*
X491902Y568274D01*
Y570662D01*
X490989Y572867D01*
X489301Y574555D01*
X487095Y575468D01*
D02*
G37*
G36*
X530193Y559750D02*
X527807D01*
X525601Y558837D01*
X523913Y557149D01*
X523000Y554944D01*
Y552556D01*
X523913Y550351D01*
X525601Y548663D01*
X527807Y547750D01*
X530193D01*
X532399Y548663D01*
X534087Y550351D01*
X535000Y552556D01*
Y554944D01*
X534087Y557149D01*
X532399Y558837D01*
X530193Y559750D01*
D02*
G37*
G36*
X629843Y536860D02*
X627457D01*
X625251Y535947D01*
X623563Y534259D01*
X622650Y532053D01*
Y529666D01*
X623563Y527461D01*
X625251Y525773D01*
X627457Y524860D01*
X629843D01*
X632049Y525773D01*
X633737Y527461D01*
X634650Y529666D01*
Y532053D01*
X633737Y534259D01*
X632049Y535947D01*
X629843Y536860D01*
D02*
G37*
G36*
X645193Y535750D02*
X642806D01*
X640601Y534837D01*
X638913Y533149D01*
X638000Y530943D01*
Y528557D01*
X638913Y526351D01*
X640601Y524663D01*
X642806Y523750D01*
X645193D01*
X647399Y524663D01*
X649087Y526351D01*
X650000Y528557D01*
Y530943D01*
X649087Y533149D01*
X647399Y534837D01*
X645193Y535750D01*
D02*
G37*
G36*
X464743Y542448D02*
X462356D01*
X460151Y541535D01*
X458463Y539847D01*
X457550Y537641D01*
Y535255D01*
X457809Y534628D01*
X456087Y533915D01*
X454399Y532227D01*
X453486Y530022D01*
Y527635D01*
X454399Y525429D01*
X455307Y524522D01*
X455009Y523024D01*
X455006Y523023D01*
X453319Y521335D01*
X452405Y519130D01*
Y516743D01*
X453319Y514538D01*
X455006Y512850D01*
X457212Y511936D01*
X459599D01*
X461804Y512850D01*
X463492Y514538D01*
X464405Y516743D01*
Y519130D01*
X463492Y521335D01*
X462584Y522242D01*
X462882Y523741D01*
X462885Y523741D01*
X464573Y525429D01*
X465486Y527635D01*
Y530022D01*
X465227Y530648D01*
X466949Y531361D01*
X468637Y533049D01*
X469550Y535255D01*
Y537641D01*
X468637Y539847D01*
X466949Y541535D01*
X464743Y542448D01*
D02*
G37*
G36*
X545443Y523250D02*
X543056D01*
X540851Y522337D01*
X539163Y520649D01*
X538250Y518443D01*
Y516057D01*
X539163Y513851D01*
X540851Y512163D01*
X543056Y511250D01*
X545443D01*
X547649Y512163D01*
X549337Y513851D01*
X550250Y516057D01*
Y518443D01*
X549337Y520649D01*
X547649Y522337D01*
X545443Y523250D01*
D02*
G37*
G36*
X572444Y520250D02*
X570056D01*
X567851Y519337D01*
X566163Y517649D01*
X565250Y515443D01*
Y513056D01*
X566163Y510851D01*
X567851Y509163D01*
X570056Y508250D01*
X572444D01*
X574649Y509163D01*
X576337Y510851D01*
X577250Y513056D01*
Y515443D01*
X576337Y517649D01*
X574649Y519337D01*
X572444Y520250D01*
D02*
G37*
G36*
X530883Y516943D02*
X528497D01*
X526291Y516030D01*
X524603Y514342D01*
X523690Y512136D01*
Y509749D01*
X524603Y507544D01*
X526291Y505856D01*
X528497Y504943D01*
X530883D01*
X533089Y505856D01*
X534777Y507544D01*
X535690Y509749D01*
Y512136D01*
X534777Y514342D01*
X533089Y516030D01*
X530883Y516943D01*
D02*
G37*
G36*
X618534Y496100D02*
X616147D01*
X613941Y495187D01*
X612253Y493499D01*
X611340Y491293D01*
Y488907D01*
X612253Y486701D01*
X613941Y485013D01*
X616147Y484100D01*
X618534D01*
X620739Y485013D01*
X622427Y486701D01*
X623340Y488907D01*
Y491293D01*
X622427Y493499D01*
X620739Y495187D01*
X618534Y496100D01*
D02*
G37*
G36*
X478460Y495458D02*
X476073D01*
X473867Y494545D01*
X472179Y492857D01*
X471266Y490652D01*
Y488265D01*
X472179Y486059D01*
X473867Y484371D01*
X476073Y483458D01*
X478460D01*
X480665Y484371D01*
X482353Y486059D01*
X483266Y488265D01*
Y490652D01*
X482353Y492857D01*
X480665Y494545D01*
X478460Y495458D01*
D02*
G37*
G36*
X662044Y491100D02*
X659657D01*
X657451Y490187D01*
X655763Y488499D01*
X654850Y486293D01*
Y483907D01*
X654905Y483774D01*
X654056Y482504D01*
X652602D01*
X650397Y481591D01*
X648709Y479903D01*
X647796Y477697D01*
Y475311D01*
X648709Y473105D01*
X650397Y471417D01*
X652602Y470504D01*
X654989D01*
X657195Y471417D01*
X658883Y473105D01*
X659796Y475311D01*
Y477697D01*
X659741Y477830D01*
X660590Y479100D01*
X662044D01*
X664249Y480013D01*
X665937Y481701D01*
X666850Y483907D01*
Y486293D01*
X665937Y488499D01*
X664249Y490187D01*
X662044Y491100D01*
D02*
G37*
G36*
X561264Y481234D02*
X558876D01*
X556671Y480321D01*
X554983Y478633D01*
X554070Y476427D01*
Y474040D01*
X554983Y471835D01*
X556671Y470147D01*
X558876Y469234D01*
X561264D01*
X563469Y470147D01*
X565157Y471835D01*
X566070Y474040D01*
Y476427D01*
X565157Y478633D01*
X563469Y480321D01*
X561264Y481234D01*
D02*
G37*
G36*
X713640Y455360D02*
Y448770D01*
X720230D01*
X719996Y449645D01*
X718674Y451935D01*
X716805Y453804D01*
X714515Y455126D01*
X713640Y455360D01*
D02*
G37*
G36*
X707640D02*
X706765Y455126D01*
X704475Y453804D01*
X702606Y451935D01*
X701284Y449645D01*
X701050Y448770D01*
X707640D01*
Y455360D01*
D02*
G37*
G36*
X581464Y459673D02*
X579076D01*
X576871Y458759D01*
X575183Y457071D01*
X574270Y454866D01*
Y452479D01*
X575183Y450274D01*
X576871Y448586D01*
X579076Y447673D01*
X581464D01*
X583669Y448586D01*
X584392Y449309D01*
X585890Y449011D01*
X586163Y448351D01*
X587851Y446663D01*
X590056Y445750D01*
X592444D01*
X594649Y446663D01*
X596337Y448351D01*
X597250Y450556D01*
Y452943D01*
X596337Y455149D01*
X594649Y456837D01*
X592444Y457750D01*
X590056D01*
X587851Y456837D01*
X587128Y456113D01*
X585630Y456411D01*
X585356Y457071D01*
X583669Y458759D01*
X581464Y459673D01*
D02*
G37*
G36*
X720230Y442770D02*
X713640D01*
Y436180D01*
X714515Y436414D01*
X716805Y437736D01*
X718674Y439605D01*
X719996Y441895D01*
X720230Y442770D01*
D02*
G37*
G36*
X707640D02*
X701050D01*
X701284Y441895D01*
X702606Y439605D01*
X704475Y437736D01*
X706765Y436414D01*
X707640Y436180D01*
Y442770D01*
D02*
G37*
G36*
X459402Y446428D02*
X457015D01*
X454809Y445515D01*
X453121Y443827D01*
X452208Y441622D01*
Y439235D01*
X453121Y437029D01*
X454809Y435341D01*
X457015Y434428D01*
X459402D01*
X461607Y435341D01*
X463295Y437029D01*
X464208Y439235D01*
Y441622D01*
X463295Y443827D01*
X461607Y445515D01*
X459402Y446428D01*
D02*
G37*
G36*
X542467Y445674D02*
X540080D01*
X537875Y444761D01*
X536187Y443073D01*
X535274Y440868D01*
Y438480D01*
X536187Y436275D01*
X537875Y434587D01*
X540080Y433674D01*
X542467D01*
X544673Y434587D01*
X546361Y436275D01*
X547274Y438480D01*
Y440868D01*
X546361Y443073D01*
X544673Y444761D01*
X542467Y445674D01*
D02*
G37*
G36*
X619683Y430180D02*
X617296D01*
X615091Y429267D01*
X613403Y427579D01*
X612490Y425373D01*
Y422986D01*
X613403Y420781D01*
X615091Y419093D01*
X617296Y418180D01*
X619683D01*
X621889Y419093D01*
X623577Y420781D01*
X624490Y422986D01*
Y425373D01*
X623577Y427579D01*
X621889Y429267D01*
X619683Y430180D01*
D02*
G37*
G36*
X712088Y431370D02*
X709192D01*
X706394Y430620D01*
X703886Y429172D01*
X701838Y427124D01*
X700390Y424616D01*
X699640Y421818D01*
Y418922D01*
X700390Y416124D01*
X701838Y413616D01*
X703886Y411568D01*
X706394Y410120D01*
X709192Y409370D01*
X712088D01*
X714886Y410120D01*
X717394Y411568D01*
X719442Y413616D01*
X720890Y416124D01*
X721640Y418922D01*
Y421818D01*
X720890Y424616D01*
X719442Y427124D01*
X717394Y429172D01*
X714886Y430620D01*
X712088Y431370D01*
D02*
G37*
G36*
Y405970D02*
X709192D01*
X706394Y405220D01*
X703886Y403772D01*
X701838Y401724D01*
X700390Y399216D01*
X699640Y396418D01*
Y393522D01*
X700390Y390724D01*
X701838Y388216D01*
X703886Y386168D01*
X706394Y384720D01*
X709192Y383970D01*
X712088D01*
X714886Y384720D01*
X717394Y386168D01*
X719442Y388216D01*
X720890Y390724D01*
X721640Y393522D01*
Y396418D01*
X720890Y399216D01*
X719442Y401724D01*
X717394Y403772D01*
X714886Y405220D01*
X712088Y405970D01*
D02*
G37*
G36*
X494310Y381840D02*
X472310D01*
Y359840D01*
X494310D01*
Y381840D01*
D02*
G37*
G36*
X459358D02*
X456462D01*
X453664Y381090D01*
X451156Y379642D01*
X449108Y377594D01*
X447660Y375086D01*
X446910Y372288D01*
Y369392D01*
X447660Y366594D01*
X449108Y364086D01*
X451156Y362038D01*
X453664Y360590D01*
X456462Y359840D01*
X459358D01*
X462156Y360590D01*
X464664Y362038D01*
X466712Y364086D01*
X468160Y366594D01*
X468910Y369392D01*
Y372288D01*
X468160Y375086D01*
X466712Y377594D01*
X464664Y379642D01*
X462156Y381090D01*
X459358Y381840D01*
D02*
G37*
G36*
X721640Y380570D02*
X699640D01*
Y358570D01*
X721640D01*
Y380570D01*
D02*
G37*
G36*
X484758Y356440D02*
X481862D01*
X479064Y355690D01*
X476556Y354242D01*
X474508Y352194D01*
X473060Y349686D01*
X472310Y346888D01*
Y343992D01*
X473060Y341194D01*
X474508Y338686D01*
X476556Y336638D01*
X479064Y335190D01*
X481862Y334440D01*
X484758D01*
X487556Y335190D01*
X490064Y336638D01*
X492112Y338686D01*
X493560Y341194D01*
X494310Y343992D01*
Y346888D01*
X493560Y349686D01*
X492112Y352194D01*
X490064Y354242D01*
X487556Y355690D01*
X484758Y356440D01*
D02*
G37*
G36*
X459358D02*
X456462D01*
X453664Y355690D01*
X451156Y354242D01*
X449108Y352194D01*
X447660Y349686D01*
X446910Y346888D01*
Y343992D01*
X447660Y341194D01*
X449108Y338686D01*
X451156Y336638D01*
X453664Y335190D01*
X456462Y334440D01*
X459358D01*
X462156Y335190D01*
X464664Y336638D01*
X466712Y338686D01*
X468160Y341194D01*
X468910Y343992D01*
Y346888D01*
X468160Y349686D01*
X466712Y352194D01*
X464664Y354242D01*
X462156Y355690D01*
X459358Y356440D01*
D02*
G37*
G36*
X486310Y329630D02*
Y323040D01*
X492900D01*
X492666Y323915D01*
X491344Y326205D01*
X489475Y328074D01*
X487185Y329396D01*
X486310Y329630D01*
D02*
G37*
G36*
X460910D02*
Y323040D01*
X467500D01*
X467266Y323915D01*
X465944Y326205D01*
X464075Y328074D01*
X461785Y329396D01*
X460910Y329630D01*
D02*
G37*
G36*
X480310D02*
X479435Y329396D01*
X477145Y328074D01*
X475276Y326205D01*
X473954Y323915D01*
X473720Y323040D01*
X480310D01*
Y329630D01*
D02*
G37*
G36*
X454910D02*
X454035Y329396D01*
X451745Y328074D01*
X449876Y326205D01*
X448554Y323915D01*
X448320Y323040D01*
X454910D01*
Y329630D01*
D02*
G37*
G36*
X492900Y317040D02*
X486310D01*
Y310450D01*
X487185Y310684D01*
X489475Y312006D01*
X491344Y313875D01*
X492666Y316165D01*
X492900Y317040D01*
D02*
G37*
G36*
X467500D02*
X460910D01*
Y310450D01*
X461785Y310684D01*
X464075Y312006D01*
X465944Y313875D01*
X467266Y316165D01*
X467500Y317040D01*
D02*
G37*
G36*
X480310D02*
X473720D01*
X473954Y316165D01*
X475276Y313875D01*
X477145Y312006D01*
X479435Y310684D01*
X480310Y310450D01*
Y317040D01*
D02*
G37*
G36*
X454910D02*
X448320D01*
X448554Y316165D01*
X449876Y313875D01*
X451745Y312006D01*
X454035Y310684D01*
X454910Y310450D01*
Y317040D01*
D02*
G37*
G36*
X528400Y272857D02*
X526013D01*
X523808Y271943D01*
X522120Y270256D01*
X521207Y268050D01*
Y265663D01*
X522120Y263458D01*
X523808Y261770D01*
X526013Y260857D01*
X528400D01*
X530606Y261770D01*
X532293Y263458D01*
X533207Y265663D01*
Y268050D01*
X532293Y270256D01*
X530606Y271943D01*
X528400Y272857D01*
D02*
G37*
G36*
X721209Y240910D02*
X718971D01*
X716809Y240331D01*
X714871Y239212D01*
X713288Y237629D01*
X712169Y235691D01*
X711590Y233529D01*
Y231291D01*
X712169Y229129D01*
X713288Y227191D01*
X714871Y225608D01*
X716809Y224489D01*
X718971Y223910D01*
X721209D01*
X723371Y224489D01*
X725309Y225608D01*
X726892Y227191D01*
X728011Y229129D01*
X728590Y231291D01*
Y233529D01*
X728011Y235691D01*
X726892Y237629D01*
X725309Y239212D01*
X723371Y240331D01*
X721209Y240910D01*
D02*
G37*
%LPD*%
D13*
X700000Y0D02*
G03*
X733500Y33500I0J33500D01*
G01*
X0Y25000D02*
G03*
X25000Y0I25000J0D01*
G01*
X41400Y1216400D02*
G03*
X0Y1175000I0J-41400D01*
G01*
X733500Y1166500D02*
G03*
X683600Y1216400I-49900J0D01*
G01*
X0Y25000D02*
Y1175000D01*
X25000Y0D02*
X700000D01*
X733500Y33500D02*
Y1166500D01*
X41400Y1216400D02*
X683600D01*
D16*
X446547Y460248D02*
Y584454D01*
D17*
X353250Y588476D02*
X433145D01*
X353250Y456438D02*
Y588476D01*
Y456438D02*
X433145D01*
Y588476D01*
D72*
X185460Y191590D02*
D03*
D74*
X227958Y817170D02*
D03*
X483310Y320040D02*
D03*
X457910D02*
D03*
X710640Y445770D02*
D03*
D78*
X510500Y1163300D02*
D03*
X292100Y1041400D02*
D03*
X292100Y939800D02*
D03*
D81*
X476250Y69850D02*
D03*
D83*
X695499Y706000D02*
D03*
X710499Y676000D02*
D03*
X695499Y646000D02*
D03*
X710499Y616000D02*
D03*
Y556000D02*
D03*
X695499Y526000D02*
D03*
X710499Y496000D02*
D03*
X695499Y466000D02*
D03*
Y406000D02*
D03*
X710499Y316000D02*
D03*
X695499Y286000D02*
D03*
X710499Y256000D02*
D03*
X680499Y676000D02*
D03*
Y556000D02*
D03*
Y496000D02*
D03*
X665499Y286000D02*
D03*
Y226000D02*
D03*
X650499Y676000D02*
D03*
X635499Y646000D02*
D03*
X650499Y616000D02*
D03*
X635499Y586000D02*
D03*
X650499Y496000D02*
D03*
X635499Y286000D02*
D03*
X650499Y256000D02*
D03*
X635499Y226000D02*
D03*
X605499Y286000D02*
D03*
X590499Y496000D02*
D03*
X575499Y286000D02*
D03*
X590499Y256000D02*
D03*
X560499Y676000D02*
D03*
Y316000D02*
D03*
X545499Y286000D02*
D03*
Y226000D02*
D03*
X530499Y316000D02*
D03*
X515499Y286000D02*
D03*
X530499Y256000D02*
D03*
X515499Y226000D02*
D03*
X500499Y436000D02*
D03*
Y316000D02*
D03*
X485499Y286000D02*
D03*
X500499Y256000D02*
D03*
X485499Y226000D02*
D03*
X455499Y646000D02*
D03*
X470499Y616000D02*
D03*
X455499Y286000D02*
D03*
X470499Y256000D02*
D03*
X695500Y1106000D02*
D03*
X675500Y906000D02*
D03*
X695500Y866000D02*
D03*
X675500Y826000D02*
D03*
Y106000D02*
D03*
X655500Y1106000D02*
D03*
Y146000D02*
D03*
X635500Y106000D02*
D03*
Y26000D02*
D03*
X615500Y1186000D02*
D03*
X595500Y1146000D02*
D03*
X615500Y1106000D02*
D03*
Y866000D02*
D03*
Y146000D02*
D03*
X595500Y106000D02*
D03*
X615500Y66000D02*
D03*
X595500Y26000D02*
D03*
X575500Y1186000D02*
D03*
X555500Y1146000D02*
D03*
X575500Y1106000D02*
D03*
Y866000D02*
D03*
X555500Y26000D02*
D03*
X515500Y1146000D02*
D03*
X535500Y1106000D02*
D03*
Y66000D02*
D03*
X515500Y26000D02*
D03*
X475500Y986000D02*
D03*
X495500Y146000D02*
D03*
Y66000D02*
D03*
X475500Y26000D02*
D03*
X435500Y106000D02*
D03*
X455500Y66000D02*
D03*
X435500Y26000D02*
D03*
X395500Y906000D02*
D03*
Y826000D02*
D03*
X415500Y786000D02*
D03*
Y146000D02*
D03*
X395500Y106000D02*
D03*
X415500Y66000D02*
D03*
X395500Y26000D02*
D03*
X375500Y1186000D02*
D03*
X355500Y1146000D02*
D03*
Y1066000D02*
D03*
Y906000D02*
D03*
Y746000D02*
D03*
Y666000D02*
D03*
Y426000D02*
D03*
Y346000D02*
D03*
Y266000D02*
D03*
X375500Y146000D02*
D03*
X355500Y26000D02*
D03*
X335500Y866000D02*
D03*
X315500Y746000D02*
D03*
Y666000D02*
D03*
X335500Y626000D02*
D03*
X315500Y346000D02*
D03*
X335500Y306000D02*
D03*
X315500Y266000D02*
D03*
X275500Y1066000D02*
D03*
X295500Y1026000D02*
D03*
X275500Y986000D02*
D03*
Y906000D02*
D03*
X295500Y866000D02*
D03*
X275500Y666000D02*
D03*
X295500Y306000D02*
D03*
Y226000D02*
D03*
X275500Y106000D02*
D03*
X295500Y66000D02*
D03*
X275500Y26000D02*
D03*
X255500Y1186000D02*
D03*
Y1106000D02*
D03*
X235500Y1066000D02*
D03*
X255500Y1026000D02*
D03*
X235500Y986000D02*
D03*
X255500Y946000D02*
D03*
X235500Y906000D02*
D03*
X255500Y866000D02*
D03*
X235500Y746000D02*
D03*
X255500Y706000D02*
D03*
X235500Y666000D02*
D03*
Y586000D02*
D03*
X255500Y306000D02*
D03*
X235500Y266000D02*
D03*
X255500Y226000D02*
D03*
X235500Y106000D02*
D03*
X215500Y1186000D02*
D03*
X195500Y1146000D02*
D03*
X215500Y1106000D02*
D03*
Y866000D02*
D03*
Y786000D02*
D03*
Y706000D02*
D03*
Y626000D02*
D03*
X195500Y586000D02*
D03*
X215500Y546000D02*
D03*
X195500Y506000D02*
D03*
X215500Y306000D02*
D03*
X195500Y106000D02*
D03*
X215500Y66000D02*
D03*
X195500Y26000D02*
D03*
X175500Y1186000D02*
D03*
X155500Y1146000D02*
D03*
Y986000D02*
D03*
X175500Y946000D02*
D03*
Y866000D02*
D03*
X155500Y746000D02*
D03*
Y346000D02*
D03*
Y266000D02*
D03*
Y106000D02*
D03*
Y26000D02*
D03*
X135500Y1186000D02*
D03*
X115500Y1146000D02*
D03*
X135500Y1106000D02*
D03*
Y946000D02*
D03*
Y866000D02*
D03*
X115500Y746000D02*
D03*
Y666000D02*
D03*
X135500Y546000D02*
D03*
X115500Y506000D02*
D03*
X135500Y66000D02*
D03*
X115500Y26000D02*
D03*
X95500Y1186000D02*
D03*
X75500Y1146000D02*
D03*
X95500Y1106000D02*
D03*
X75500Y1066000D02*
D03*
X95500Y1026000D02*
D03*
X75500Y986000D02*
D03*
X95500Y946000D02*
D03*
X75500Y906000D02*
D03*
X95500Y866000D02*
D03*
X75500Y826000D02*
D03*
X95500Y786000D02*
D03*
X75500Y746000D02*
D03*
X95500Y706000D02*
D03*
X75500Y666000D02*
D03*
X95500Y626000D02*
D03*
X75500Y186000D02*
D03*
X95500Y146000D02*
D03*
X75500Y106000D02*
D03*
X95500Y66000D02*
D03*
X75500Y26000D02*
D03*
X55500Y1186000D02*
D03*
X35500Y1146000D02*
D03*
X55500Y1106000D02*
D03*
X35500Y1066000D02*
D03*
Y986000D02*
D03*
X55500Y946000D02*
D03*
X35500Y906000D02*
D03*
X55500Y866000D02*
D03*
X35500Y826000D02*
D03*
X55500Y786000D02*
D03*
X35500Y746000D02*
D03*
Y586000D02*
D03*
X55500Y546000D02*
D03*
X35500Y506000D02*
D03*
X55500Y466000D02*
D03*
X35500Y426000D02*
D03*
X55500Y386000D02*
D03*
X35500Y346000D02*
D03*
Y266000D02*
D03*
X55500Y226000D02*
D03*
X35500Y186000D02*
D03*
X55500Y146000D02*
D03*
X35500Y106000D02*
D03*
X55500Y66000D02*
D03*
X35500Y26000D02*
D03*
X550672Y930148D02*
D03*
X390398Y1006348D02*
D03*
X374403Y986003D02*
D03*
X452628Y687070D02*
D03*
X549402Y817626D02*
D03*
X586740Y962914D02*
D03*
X679450Y940816D02*
D03*
X555752Y1008634D02*
D03*
X680466Y1017778D02*
D03*
X674878Y990854D02*
D03*
Y972566D02*
D03*
X434848Y1090930D02*
D03*
X658114Y501904D02*
D03*
X438912Y723646D02*
D03*
X549910Y719582D02*
D03*
X472997Y335999D02*
D03*
X470497Y330999D02*
D03*
X528066Y576580D02*
D03*
X457498Y506774D02*
D03*
X273558Y551434D02*
D03*
X320548Y528320D02*
D03*
X272988Y442099D02*
D03*
X679450Y629920D02*
D03*
X643890Y267970D02*
D03*
X597500Y394250D02*
D03*
X555500Y424000D02*
D03*
D85*
X297434Y551434D02*
X320548Y528320D01*
X273558Y551434D02*
X297434D01*
X273000Y279130D02*
Y480772D01*
X320548Y528320D01*
X185460Y191590D02*
X273000Y279130D01*
M02*
