G04*
G04 #@! TF.GenerationSoftware,Altium Limited,Altium Designer,22.8.2 (66)*
G04*
G04 Layer_Physical_Order=3*
G04 Layer_Color=16440176*
%FSLAX44Y44*%
%MOMM*%
G71*
G04*
G04 #@! TF.SameCoordinates,B0619A4A-581E-4249-BB79-A942B5E0D796*
G04*
G04*
G04 #@! TF.FilePolarity,Positive*
G04*
G01*
G75*
%ADD13C,0.2540*%
%ADD16C,0.0254*%
%ADD17C,0.0500*%
%ADD74C,1.5000*%
%ADD76R,1.5000X1.5000*%
%ADD77R,1.1550X1.1550*%
%ADD79R,1.1550X1.1550*%
%ADD80C,2.0320*%
%ADD81C,1.7500*%
%ADD83C,0.5000*%
%ADD84C,1.0000*%
G36*
X702582Y1196168D02*
X701743Y1195211D01*
X700719Y1195996D01*
X695781Y1198848D01*
X690513Y1201030D01*
X685005Y1202506D01*
X679351Y1203250D01*
X673649D01*
X667995Y1202506D01*
X662487Y1201030D01*
X657219Y1198848D01*
X652281Y1195996D01*
X647757Y1192525D01*
X643725Y1188493D01*
X640254Y1183969D01*
X637402Y1179031D01*
X635220Y1173763D01*
X633744Y1168255D01*
X633000Y1162601D01*
Y1156899D01*
X633744Y1151245D01*
X635220Y1145737D01*
X637402Y1140469D01*
X640254Y1135531D01*
X643725Y1131007D01*
X647757Y1126975D01*
X652281Y1123503D01*
X657219Y1120652D01*
X662487Y1118470D01*
X667995Y1116994D01*
X673649Y1116250D01*
X679351D01*
X685005Y1116994D01*
X690513Y1118470D01*
X695781Y1120652D01*
X700719Y1123503D01*
X705243Y1126975D01*
X709275Y1131007D01*
X712747Y1135531D01*
X715598Y1140469D01*
X717780Y1145737D01*
X719256Y1151245D01*
X720000Y1156899D01*
Y1162601D01*
X719256Y1168255D01*
X717780Y1173763D01*
X715598Y1179031D01*
X712747Y1183969D01*
X711961Y1184993D01*
X712918Y1185832D01*
X732250Y1166500D01*
Y801250D01*
X558000D01*
X533228Y776478D01*
X430728D01*
X363250Y709000D01*
Y277500D01*
X460000Y180750D01*
X732250D01*
Y38000D01*
X695500Y1250D01*
X27500D01*
X1250Y27500D01*
Y1173500D01*
X43000Y1215250D01*
X683500Y1215250D01*
X702582Y1196168D01*
D02*
G37*
G36*
X555500Y736500D02*
X732250D01*
Y588368D01*
X731520Y587769D01*
X641261D01*
X640586Y589398D01*
X638898Y591086D01*
X636693Y592000D01*
X634306D01*
X632101Y591086D01*
X630413Y589398D01*
X629738Y587769D01*
X555243D01*
X553878Y587497D01*
X552720Y586723D01*
X505314Y539317D01*
X504540Y538159D01*
X504268Y536794D01*
X504431Y535974D01*
Y443438D01*
X502989Y441996D01*
X502710Y441578D01*
X501693Y442000D01*
X499306D01*
X497101Y441086D01*
X495413Y439398D01*
X494500Y437193D01*
Y434806D01*
X494921Y433789D01*
X494504Y433510D01*
X447353Y386359D01*
X446579Y385202D01*
X446307Y383836D01*
Y378664D01*
X446579Y377299D01*
X447353Y376141D01*
X448014Y375699D01*
X447660Y375086D01*
X446910Y372288D01*
Y369392D01*
X447660Y366594D01*
X449108Y364086D01*
X451156Y362038D01*
X453664Y360590D01*
X456462Y359840D01*
X459358D01*
X459636Y359314D01*
X459895Y358926D01*
X460101Y358508D01*
X460278Y358352D01*
X460409Y358157D01*
X460797Y357897D01*
X461148Y357589D01*
X461371Y357514D01*
X461567Y357383D01*
X462025Y357292D01*
X462467Y357142D01*
X462701Y357157D01*
X462932Y357111D01*
X472050D01*
X472223Y357146D01*
X472399Y357129D01*
X473619Y357249D01*
X474121Y357401D01*
X474636Y357503D01*
X474783Y357601D01*
X474952Y357653D01*
X475357Y357985D01*
X475793Y358277D01*
X475892Y358424D01*
X476028Y358536D01*
X476276Y358998D01*
X476567Y359434D01*
X476601Y359608D01*
X476685Y359764D01*
X476692Y359840D01*
X489928D01*
X489935Y359764D01*
X490019Y359608D01*
X490053Y359434D01*
X490345Y358998D01*
X490592Y358536D01*
X490728Y358424D01*
X490827Y358277D01*
X491263Y357985D01*
X491668Y357653D01*
X491837Y357601D01*
X491984Y357503D01*
X492499Y357401D01*
X493001Y357249D01*
X494221Y357129D01*
X494397Y357146D01*
X494570Y357111D01*
X700600D01*
X701966Y357383D01*
X703123Y358157D01*
X703400Y358570D01*
X717880D01*
X718157Y358157D01*
X719314Y357383D01*
X720680Y357111D01*
X731520D01*
X732250Y356512D01*
Y213500D01*
X479750D01*
X424750Y268500D01*
Y729500D01*
X446500Y751250D01*
X540750D01*
X555500Y736500D01*
D02*
G37*
G36*
X731520Y360680D02*
X720680D01*
Y366570D01*
X710640D01*
Y369570D01*
D01*
Y366570D01*
X700600D01*
Y360680D01*
X494570D01*
X493350Y360800D01*
X493350Y361950D01*
Y367840D01*
X483310D01*
X473270D01*
X473270Y360800D01*
X472050Y360680D01*
X462932D01*
X462592Y361950D01*
X464075Y362806D01*
X465944Y364675D01*
X467266Y366965D01*
X467500Y367840D01*
X457910D01*
Y370840D01*
X454910D01*
Y380430D01*
X454035Y380196D01*
X451745Y378874D01*
X451049Y378178D01*
X449876Y378664D01*
Y383836D01*
X497027Y430987D01*
X497101Y430913D01*
X499306Y430000D01*
X501693D01*
X503898Y430913D01*
X505586Y432601D01*
X506499Y434806D01*
Y437193D01*
X505586Y439398D01*
X505512Y439472D01*
X508000Y441960D01*
Y536631D01*
X507837Y536794D01*
X555243Y584200D01*
X629751D01*
X630413Y582601D01*
X632101Y580913D01*
X634306Y580000D01*
X636693D01*
X638898Y580913D01*
X640586Y582601D01*
X641248Y584200D01*
X731520D01*
Y360680D01*
D02*
G37*
%LPC*%
G36*
X616693Y1192000D02*
X614306D01*
X612101Y1191086D01*
X610413Y1189399D01*
X609500Y1187193D01*
Y1184806D01*
X610413Y1182601D01*
X612101Y1180913D01*
X614306Y1180000D01*
X616693D01*
X618899Y1180913D01*
X620586Y1182601D01*
X621500Y1184806D01*
Y1187193D01*
X620586Y1189399D01*
X618899Y1191086D01*
X616693Y1192000D01*
D02*
G37*
G36*
X576693D02*
X574306D01*
X572101Y1191086D01*
X570413Y1189399D01*
X569500Y1187193D01*
Y1184806D01*
X570413Y1182601D01*
X572101Y1180913D01*
X574306Y1180000D01*
X576693D01*
X578899Y1180913D01*
X580586Y1182601D01*
X581500Y1184806D01*
Y1187193D01*
X580586Y1189399D01*
X578899Y1191086D01*
X576693Y1192000D01*
D02*
G37*
G36*
X376693D02*
X374306D01*
X372101Y1191086D01*
X370413Y1189399D01*
X369500Y1187193D01*
Y1184806D01*
X370413Y1182601D01*
X372101Y1180913D01*
X374306Y1180000D01*
X376693D01*
X378899Y1180913D01*
X380586Y1182601D01*
X381500Y1184806D01*
Y1187193D01*
X380586Y1189399D01*
X378899Y1191086D01*
X376693Y1192000D01*
D02*
G37*
G36*
X256693D02*
X254306D01*
X252101Y1191086D01*
X250413Y1189399D01*
X249500Y1187193D01*
Y1184806D01*
X250413Y1182601D01*
X252101Y1180913D01*
X254306Y1180000D01*
X256693D01*
X258899Y1180913D01*
X260586Y1182601D01*
X261500Y1184806D01*
Y1187193D01*
X260586Y1189399D01*
X258899Y1191086D01*
X256693Y1192000D01*
D02*
G37*
G36*
X216693D02*
X214306D01*
X212101Y1191086D01*
X210413Y1189399D01*
X209500Y1187193D01*
Y1184806D01*
X210413Y1182601D01*
X212101Y1180913D01*
X214306Y1180000D01*
X216693D01*
X218899Y1180913D01*
X220586Y1182601D01*
X221500Y1184806D01*
Y1187193D01*
X220586Y1189399D01*
X218899Y1191086D01*
X216693Y1192000D01*
D02*
G37*
G36*
X176693D02*
X174306D01*
X172101Y1191086D01*
X170413Y1189399D01*
X169500Y1187193D01*
Y1184806D01*
X170413Y1182601D01*
X172101Y1180913D01*
X174306Y1180000D01*
X176693D01*
X178899Y1180913D01*
X180586Y1182601D01*
X181500Y1184806D01*
Y1187193D01*
X180586Y1189399D01*
X178899Y1191086D01*
X176693Y1192000D01*
D02*
G37*
G36*
X136693D02*
X134306D01*
X132101Y1191086D01*
X130413Y1189399D01*
X129500Y1187193D01*
Y1184806D01*
X130413Y1182601D01*
X132101Y1180913D01*
X134306Y1180000D01*
X136693D01*
X138899Y1180913D01*
X140586Y1182601D01*
X141500Y1184806D01*
Y1187193D01*
X140586Y1189399D01*
X138899Y1191086D01*
X136693Y1192000D01*
D02*
G37*
G36*
X96693D02*
X94306D01*
X92101Y1191086D01*
X90413Y1189399D01*
X89500Y1187193D01*
Y1184806D01*
X90413Y1182601D01*
X92101Y1180913D01*
X94306Y1180000D01*
X96693D01*
X98899Y1180913D01*
X100586Y1182601D01*
X101500Y1184806D01*
Y1187193D01*
X100586Y1189399D01*
X98899Y1191086D01*
X96693Y1192000D01*
D02*
G37*
G36*
X56693D02*
X54306D01*
X52101Y1191086D01*
X50413Y1189399D01*
X49500Y1187193D01*
Y1184806D01*
X50413Y1182601D01*
X52101Y1180913D01*
X54306Y1180000D01*
X56693D01*
X58899Y1180913D01*
X60586Y1182601D01*
X61500Y1184806D01*
Y1187193D01*
X60586Y1189399D01*
X58899Y1191086D01*
X56693Y1192000D01*
D02*
G37*
G36*
X537121Y1197975D02*
X534679D01*
X532320Y1197343D01*
X530205Y1196122D01*
X528478Y1194395D01*
X527257Y1192280D01*
X526625Y1189921D01*
Y1187479D01*
X527257Y1185120D01*
X528478Y1183005D01*
X530205Y1181278D01*
X532320Y1180057D01*
X534679Y1179425D01*
X537121D01*
X539480Y1180057D01*
X541595Y1181278D01*
X543322Y1183005D01*
X544543Y1185120D01*
X545175Y1187479D01*
Y1189921D01*
X544543Y1192280D01*
X543322Y1194395D01*
X541595Y1196122D01*
X539480Y1197343D01*
X537121Y1197975D01*
D02*
G37*
G36*
X569615Y1171615D02*
X564300D01*
Y1166300D01*
X569615D01*
Y1171615D01*
D02*
G37*
G36*
X558300D02*
X552985D01*
Y1166300D01*
X558300D01*
Y1171615D01*
D02*
G37*
G36*
X569615Y1160300D02*
X564300D01*
Y1154985D01*
X569615D01*
Y1160300D01*
D02*
G37*
G36*
X558300D02*
X552985D01*
Y1154985D01*
X558300D01*
Y1160300D01*
D02*
G37*
G36*
X511721Y1172575D02*
X509279D01*
X506920Y1171943D01*
X504805Y1170722D01*
X503078Y1168995D01*
X501857Y1166880D01*
X501225Y1164521D01*
Y1162079D01*
X501857Y1159720D01*
X503078Y1157605D01*
X504805Y1155878D01*
X506920Y1154657D01*
X509279Y1154025D01*
X511721D01*
X514080Y1154657D01*
X516195Y1155878D01*
X517922Y1157605D01*
X519143Y1159720D01*
X519775Y1162079D01*
Y1164521D01*
X519143Y1166880D01*
X517922Y1168995D01*
X516195Y1170722D01*
X514080Y1171943D01*
X511721Y1172575D01*
D02*
G37*
G36*
X414654Y1150210D02*
X412267D01*
X410061Y1149297D01*
X408373Y1147609D01*
X407460Y1145404D01*
Y1144798D01*
X406190Y1144545D01*
X405837Y1145399D01*
X404149Y1147087D01*
X401944Y1148000D01*
X399557D01*
X397351Y1147087D01*
X395663Y1145399D01*
X394750Y1143194D01*
Y1140807D01*
X395663Y1138601D01*
X397351Y1136913D01*
X399557Y1136000D01*
X401944D01*
X404149Y1136913D01*
X405837Y1138601D01*
X406750Y1140807D01*
Y1141412D01*
X408020Y1141665D01*
X408373Y1140811D01*
X410061Y1139124D01*
X412267Y1138210D01*
X414654D01*
X416859Y1139124D01*
X418547Y1140811D01*
X419460Y1143017D01*
Y1145404D01*
X418547Y1147609D01*
X416859Y1149297D01*
X414654Y1150210D01*
D02*
G37*
G36*
X596693Y1152000D02*
X594306D01*
X592101Y1151086D01*
X590413Y1149399D01*
X589500Y1147193D01*
Y1144806D01*
X590413Y1142601D01*
X592101Y1140913D01*
X594306Y1140000D01*
X596693D01*
X598899Y1140913D01*
X600586Y1142601D01*
X601500Y1144806D01*
Y1147193D01*
X600586Y1149399D01*
X598899Y1151086D01*
X596693Y1152000D01*
D02*
G37*
G36*
X556693D02*
X554306D01*
X552101Y1151086D01*
X550413Y1149399D01*
X549500Y1147193D01*
Y1144806D01*
X550413Y1142601D01*
X552101Y1140913D01*
X554306Y1140000D01*
X556693D01*
X558899Y1140913D01*
X560586Y1142601D01*
X561500Y1144806D01*
Y1147193D01*
X560586Y1149399D01*
X558899Y1151086D01*
X556693Y1152000D01*
D02*
G37*
G36*
X516693D02*
X514306D01*
X512101Y1151086D01*
X510413Y1149399D01*
X509500Y1147193D01*
Y1144806D01*
X510413Y1142601D01*
X512101Y1140913D01*
X514306Y1140000D01*
X516693D01*
X518899Y1140913D01*
X520586Y1142601D01*
X521500Y1144806D01*
Y1147193D01*
X520586Y1149399D01*
X518899Y1151086D01*
X516693Y1152000D01*
D02*
G37*
G36*
X356693D02*
X354306D01*
X352101Y1151086D01*
X350413Y1149399D01*
X349500Y1147193D01*
Y1144806D01*
X350413Y1142601D01*
X352101Y1140913D01*
X354306Y1140000D01*
X356693D01*
X358899Y1140913D01*
X360586Y1142601D01*
X361500Y1144806D01*
Y1147193D01*
X360586Y1149399D01*
X358899Y1151086D01*
X356693Y1152000D01*
D02*
G37*
G36*
X196693D02*
X194306D01*
X192101Y1151086D01*
X190413Y1149399D01*
X189500Y1147193D01*
Y1144806D01*
X190413Y1142601D01*
X192101Y1140913D01*
X194306Y1140000D01*
X196693D01*
X198899Y1140913D01*
X200586Y1142601D01*
X201500Y1144806D01*
Y1147193D01*
X200586Y1149399D01*
X198899Y1151086D01*
X196693Y1152000D01*
D02*
G37*
G36*
X156693D02*
X154306D01*
X152101Y1151086D01*
X150413Y1149399D01*
X149500Y1147193D01*
Y1144806D01*
X150413Y1142601D01*
X152101Y1140913D01*
X154306Y1140000D01*
X156693D01*
X158899Y1140913D01*
X160586Y1142601D01*
X161500Y1144806D01*
Y1147193D01*
X160586Y1149399D01*
X158899Y1151086D01*
X156693Y1152000D01*
D02*
G37*
G36*
X116693D02*
X114306D01*
X112101Y1151086D01*
X110413Y1149399D01*
X109500Y1147193D01*
Y1144806D01*
X110413Y1142601D01*
X112101Y1140913D01*
X114306Y1140000D01*
X116693D01*
X118899Y1140913D01*
X120586Y1142601D01*
X121500Y1144806D01*
Y1147193D01*
X120586Y1149399D01*
X118899Y1151086D01*
X116693Y1152000D01*
D02*
G37*
G36*
X76693D02*
X74306D01*
X72101Y1151086D01*
X70413Y1149399D01*
X69500Y1147193D01*
Y1144806D01*
X70413Y1142601D01*
X72101Y1140913D01*
X74306Y1140000D01*
X76693D01*
X78899Y1140913D01*
X80587Y1142601D01*
X81500Y1144806D01*
Y1147193D01*
X80587Y1149399D01*
X78899Y1151086D01*
X76693Y1152000D01*
D02*
G37*
G36*
X36693D02*
X34306D01*
X32101Y1151086D01*
X30413Y1149399D01*
X29500Y1147193D01*
Y1144806D01*
X30413Y1142601D01*
X32101Y1140913D01*
X34306Y1140000D01*
X36693D01*
X38899Y1140913D01*
X40587Y1142601D01*
X41500Y1144806D01*
Y1147193D01*
X40587Y1149399D01*
X38899Y1151086D01*
X36693Y1152000D01*
D02*
G37*
G36*
X440053Y1148290D02*
X437667D01*
X435461Y1147376D01*
X433773Y1145689D01*
X432860Y1143484D01*
Y1141096D01*
X433773Y1138891D01*
X435461Y1137203D01*
X437667Y1136290D01*
X440053D01*
X442259Y1137203D01*
X443947Y1138891D01*
X444860Y1141096D01*
Y1143484D01*
X443947Y1145689D01*
X442259Y1147376D01*
X440053Y1148290D01*
D02*
G37*
G36*
X382444Y1132000D02*
X380056D01*
X377851Y1131087D01*
X376163Y1129399D01*
X375250Y1127194D01*
Y1124807D01*
X376163Y1122601D01*
X377851Y1120913D01*
X380056Y1120000D01*
X382444D01*
X384649Y1120913D01*
X386337Y1122601D01*
X387250Y1124807D01*
Y1127194D01*
X386337Y1129399D01*
X384649Y1131087D01*
X382444Y1132000D01*
D02*
G37*
G36*
X401954Y1129240D02*
X399566D01*
X397361Y1128326D01*
X395673Y1126639D01*
X394760Y1124434D01*
Y1122047D01*
X395673Y1119841D01*
X397361Y1118153D01*
X399566Y1117240D01*
X401954D01*
X404159Y1118153D01*
X405847Y1119841D01*
X406760Y1122047D01*
Y1124434D01*
X405847Y1126639D01*
X404159Y1128326D01*
X401954Y1129240D01*
D02*
G37*
G36*
X452753Y1127410D02*
X450367D01*
X448161Y1126497D01*
X446474Y1124809D01*
X445560Y1122604D01*
Y1120217D01*
X446474Y1118011D01*
X448161Y1116323D01*
X450367Y1115410D01*
X452753D01*
X454959Y1116323D01*
X456647Y1118011D01*
X457560Y1120217D01*
Y1122604D01*
X456647Y1124809D01*
X454959Y1126497D01*
X452753Y1127410D01*
D02*
G37*
G36*
X177438Y1147024D02*
X173498D01*
X169634Y1146255D01*
X165994Y1144748D01*
X162719Y1142559D01*
X159933Y1139773D01*
X157744Y1136497D01*
X156237Y1132858D01*
X155468Y1128994D01*
Y1125054D01*
X156237Y1121190D01*
X157744Y1117551D01*
X159933Y1114275D01*
X162719Y1111489D01*
X165994Y1109300D01*
X169634Y1107793D01*
X173498Y1107024D01*
X177438D01*
X181302Y1107793D01*
X184942Y1109300D01*
X188217Y1111489D01*
X191003Y1114275D01*
X193192Y1117551D01*
X194699Y1121190D01*
X195468Y1125054D01*
Y1128994D01*
X194699Y1132858D01*
X193192Y1136497D01*
X191003Y1139773D01*
X188217Y1142559D01*
X184942Y1144748D01*
X181302Y1146255D01*
X177438Y1147024D01*
D02*
G37*
G36*
X696693Y1112000D02*
X694306D01*
X692101Y1111086D01*
X690413Y1109399D01*
X689500Y1107193D01*
Y1104806D01*
X690413Y1102601D01*
X692101Y1100913D01*
X694306Y1100000D01*
X696693D01*
X698899Y1100913D01*
X700586Y1102601D01*
X701500Y1104806D01*
Y1107193D01*
X700586Y1109399D01*
X698899Y1111086D01*
X696693Y1112000D01*
D02*
G37*
G36*
X656693D02*
X654306D01*
X652101Y1111086D01*
X650413Y1109399D01*
X649500Y1107193D01*
Y1104806D01*
X650413Y1102601D01*
X652101Y1100913D01*
X654306Y1100000D01*
X656693D01*
X658899Y1100913D01*
X660586Y1102601D01*
X661500Y1104806D01*
Y1107193D01*
X660586Y1109399D01*
X658899Y1111086D01*
X656693Y1112000D01*
D02*
G37*
G36*
X576693D02*
X574306D01*
X572101Y1111086D01*
X570413Y1109399D01*
X569500Y1107193D01*
Y1104806D01*
X570413Y1102601D01*
X572101Y1100913D01*
X574306Y1100000D01*
X576693D01*
X578899Y1100913D01*
X580586Y1102601D01*
X581500Y1104806D01*
Y1107193D01*
X580586Y1109399D01*
X578899Y1111086D01*
X576693Y1112000D01*
D02*
G37*
G36*
X536693D02*
X534306D01*
X532101Y1111086D01*
X530413Y1109399D01*
X529500Y1107193D01*
Y1104806D01*
X530413Y1102601D01*
X532101Y1100913D01*
X534306Y1100000D01*
X536693D01*
X538899Y1100913D01*
X540586Y1102601D01*
X541500Y1104806D01*
Y1107193D01*
X540586Y1109399D01*
X538899Y1111086D01*
X536693Y1112000D01*
D02*
G37*
G36*
X256693D02*
X254306D01*
X252101Y1111086D01*
X250413Y1109399D01*
X249500Y1107193D01*
Y1104806D01*
X250413Y1102601D01*
X252101Y1100913D01*
X254306Y1100000D01*
X256693D01*
X258899Y1100913D01*
X260586Y1102601D01*
X261500Y1104806D01*
Y1107193D01*
X260586Y1109399D01*
X258899Y1111086D01*
X256693Y1112000D01*
D02*
G37*
G36*
X216693D02*
X214306D01*
X212101Y1111086D01*
X210413Y1109399D01*
X209500Y1107193D01*
Y1104806D01*
X210413Y1102601D01*
X212101Y1100913D01*
X214306Y1100000D01*
X216693D01*
X218899Y1100913D01*
X220586Y1102601D01*
X221500Y1104806D01*
Y1107193D01*
X220586Y1109399D01*
X218899Y1111086D01*
X216693Y1112000D01*
D02*
G37*
G36*
X136693D02*
X134306D01*
X132101Y1111086D01*
X130413Y1109399D01*
X129500Y1107193D01*
Y1104806D01*
X130413Y1102601D01*
X132101Y1100913D01*
X134306Y1100000D01*
X136693D01*
X138899Y1100913D01*
X140586Y1102601D01*
X141500Y1104806D01*
Y1107193D01*
X140586Y1109399D01*
X138899Y1111086D01*
X136693Y1112000D01*
D02*
G37*
G36*
X96693D02*
X94306D01*
X92101Y1111086D01*
X90413Y1109399D01*
X89500Y1107193D01*
Y1104806D01*
X90413Y1102601D01*
X92101Y1100913D01*
X94306Y1100000D01*
X96693D01*
X98899Y1100913D01*
X100586Y1102601D01*
X101500Y1104806D01*
Y1107193D01*
X100586Y1109399D01*
X98899Y1111086D01*
X96693Y1112000D01*
D02*
G37*
G36*
X56693D02*
X54306D01*
X52101Y1111086D01*
X50413Y1109399D01*
X49500Y1107193D01*
Y1104806D01*
X50413Y1102601D01*
X52101Y1100913D01*
X54306Y1100000D01*
X56693D01*
X58899Y1100913D01*
X60586Y1102601D01*
X61500Y1104806D01*
Y1107193D01*
X60586Y1109399D01*
X58899Y1111086D01*
X56693Y1112000D01*
D02*
G37*
G36*
X616693D02*
X614306D01*
X612101Y1111086D01*
X610413Y1109399D01*
X609500Y1107193D01*
Y1104806D01*
X610413Y1102601D01*
X611746Y1101268D01*
X611590Y1100494D01*
X611341Y1099958D01*
X608015Y1099067D01*
X604901Y1097269D01*
X602357Y1094725D01*
X601223Y1092761D01*
X599953D01*
X598819Y1094725D01*
X596275Y1097269D01*
X593161Y1099067D01*
X589686Y1099998D01*
X586090D01*
X582615Y1099067D01*
X579501Y1097269D01*
X576957Y1094725D01*
X575823Y1092761D01*
X574553D01*
X573419Y1094725D01*
X570875Y1097269D01*
X567761Y1099067D01*
X564286Y1099998D01*
X560690D01*
X557215Y1099067D01*
X554101Y1097269D01*
X551557Y1094725D01*
X549759Y1091611D01*
X548828Y1088136D01*
Y1084540D01*
X549759Y1081066D01*
X551557Y1077951D01*
X554101Y1075407D01*
X557215Y1073609D01*
X560690Y1072678D01*
X564286D01*
X567761Y1073609D01*
X570875Y1075407D01*
X573419Y1077951D01*
X574553Y1079915D01*
X575823D01*
X576957Y1077951D01*
X579501Y1075407D01*
X582615Y1073609D01*
X586090Y1072678D01*
X589686D01*
X593161Y1073609D01*
X596275Y1075407D01*
X598819Y1077951D01*
X599953Y1079915D01*
X601223D01*
X602357Y1077951D01*
X604901Y1075407D01*
X608015Y1073609D01*
X611490Y1072678D01*
X615086D01*
X618561Y1073609D01*
X621675Y1075407D01*
X624219Y1077951D01*
X626017Y1081066D01*
X626948Y1084540D01*
Y1088136D01*
X626017Y1091611D01*
X624219Y1094725D01*
X621675Y1097269D01*
X618561Y1099067D01*
X618074Y1099197D01*
X617987Y1100536D01*
X618899Y1100913D01*
X620586Y1102601D01*
X621500Y1104806D01*
Y1107193D01*
X620586Y1109399D01*
X618899Y1111086D01*
X616693Y1112000D01*
D02*
G37*
G36*
X395193Y1098250D02*
X392807D01*
X390601Y1097337D01*
X388913Y1095649D01*
X388000Y1093444D01*
Y1091057D01*
X388913Y1088851D01*
X390601Y1087163D01*
X392807Y1086250D01*
X395193D01*
X397399Y1087163D01*
X399087Y1088851D01*
X400000Y1091057D01*
Y1093444D01*
X399087Y1095649D01*
X397399Y1097337D01*
X395193Y1098250D01*
D02*
G37*
G36*
X436041Y1096930D02*
X433655D01*
X431449Y1096017D01*
X429761Y1094329D01*
X428848Y1092123D01*
Y1089736D01*
X429761Y1087531D01*
X431449Y1085843D01*
X433655Y1084930D01*
X436041D01*
X438247Y1085843D01*
X439935Y1087531D01*
X440848Y1089736D01*
Y1092123D01*
X439935Y1094329D01*
X438247Y1096017D01*
X436041Y1096930D01*
D02*
G37*
G36*
X683661Y1074532D02*
X681274D01*
X679069Y1073619D01*
X677381Y1071931D01*
X676468Y1069726D01*
Y1067339D01*
X677381Y1065134D01*
X679069Y1063446D01*
X681274Y1062533D01*
X683661D01*
X685866Y1063446D01*
X687554Y1065134D01*
X688467Y1067339D01*
Y1069726D01*
X687554Y1071931D01*
X685866Y1073619D01*
X683661Y1074532D01*
D02*
G37*
G36*
X356693Y1072000D02*
X354306D01*
X352101Y1071086D01*
X350413Y1069399D01*
X349500Y1067193D01*
Y1064806D01*
X350413Y1062601D01*
X352101Y1060913D01*
X354306Y1060000D01*
X356693D01*
X358899Y1060913D01*
X360586Y1062601D01*
X361500Y1064806D01*
Y1067193D01*
X360586Y1069399D01*
X358899Y1071086D01*
X356693Y1072000D01*
D02*
G37*
G36*
X276693D02*
X274306D01*
X272101Y1071086D01*
X270413Y1069399D01*
X269500Y1067193D01*
Y1064806D01*
X270413Y1062601D01*
X272101Y1060913D01*
X274306Y1060000D01*
X276693D01*
X278899Y1060913D01*
X280586Y1062601D01*
X281500Y1064806D01*
Y1067193D01*
X280586Y1069399D01*
X278899Y1071086D01*
X276693Y1072000D01*
D02*
G37*
G36*
X236693D02*
X234306D01*
X232101Y1071086D01*
X230413Y1069399D01*
X229500Y1067193D01*
Y1064806D01*
X230413Y1062601D01*
X232101Y1060913D01*
X234306Y1060000D01*
X236693D01*
X238899Y1060913D01*
X240586Y1062601D01*
X241500Y1064806D01*
Y1067193D01*
X240586Y1069399D01*
X238899Y1071086D01*
X236693Y1072000D01*
D02*
G37*
G36*
X76693D02*
X74306D01*
X72101Y1071086D01*
X70413Y1069399D01*
X69500Y1067193D01*
Y1064806D01*
X70413Y1062601D01*
X72101Y1060913D01*
X74306Y1060000D01*
X76693D01*
X78899Y1060913D01*
X80587Y1062601D01*
X81500Y1064806D01*
Y1067193D01*
X80587Y1069399D01*
X78899Y1071086D01*
X76693Y1072000D01*
D02*
G37*
G36*
X36693D02*
X34306D01*
X32101Y1071086D01*
X30413Y1069399D01*
X29500Y1067193D01*
Y1064806D01*
X30413Y1062601D01*
X32101Y1060913D01*
X34306Y1060000D01*
X36693D01*
X38899Y1060913D01*
X40587Y1062601D01*
X41500Y1064806D01*
Y1067193D01*
X40587Y1069399D01*
X38899Y1071086D01*
X36693Y1072000D01*
D02*
G37*
G36*
X187790Y1080524D02*
X184146D01*
X180572Y1079813D01*
X177205Y1078419D01*
X174175Y1076394D01*
X171598Y1073817D01*
X169573Y1070787D01*
X168179Y1067420D01*
X167468Y1063846D01*
Y1060202D01*
X168179Y1056628D01*
X169573Y1053261D01*
X171598Y1050231D01*
X174175Y1047654D01*
X177205Y1045630D01*
X180572Y1044235D01*
X184146Y1043524D01*
X187790D01*
X191364Y1044235D01*
X194731Y1045630D01*
X197761Y1047654D01*
X200338Y1050231D01*
X202362Y1053261D01*
X203757Y1056628D01*
X204468Y1060202D01*
Y1063846D01*
X203757Y1067420D01*
X202362Y1070787D01*
X200338Y1073817D01*
X197761Y1076394D01*
X194731Y1078419D01*
X191364Y1079813D01*
X187790Y1080524D01*
D02*
G37*
G36*
X124290D02*
X120646D01*
X117072Y1079813D01*
X113705Y1078419D01*
X110675Y1076394D01*
X108098Y1073817D01*
X106074Y1070787D01*
X104679Y1067420D01*
X103968Y1063846D01*
Y1060202D01*
X104679Y1056628D01*
X106074Y1053261D01*
X108098Y1050231D01*
X110675Y1047654D01*
X113705Y1045630D01*
X117072Y1044235D01*
X120646Y1043524D01*
X124290D01*
X127864Y1044235D01*
X131231Y1045630D01*
X134261Y1047654D01*
X136838Y1050231D01*
X138862Y1053261D01*
X140257Y1056628D01*
X140968Y1060202D01*
Y1063846D01*
X140257Y1067420D01*
X138862Y1070787D01*
X136838Y1073817D01*
X134261Y1076394D01*
X131231Y1078419D01*
X127864Y1079813D01*
X124290Y1080524D01*
D02*
G37*
G36*
X293321Y1050675D02*
X290879D01*
X288520Y1050043D01*
X286405Y1048822D01*
X284678Y1047095D01*
X283457Y1044980D01*
X282825Y1042621D01*
Y1040179D01*
X283457Y1037820D01*
X284678Y1035705D01*
X286405Y1033978D01*
X288520Y1032757D01*
X290879Y1032125D01*
X291480D01*
X291590Y1031943D01*
X291870Y1030855D01*
X290413Y1029399D01*
X289500Y1027193D01*
Y1024806D01*
X290413Y1022601D01*
X292101Y1020913D01*
X294306Y1020000D01*
X296693D01*
X298899Y1020913D01*
X300586Y1022601D01*
X301500Y1024806D01*
Y1027193D01*
X300586Y1029399D01*
X298899Y1031086D01*
X296819Y1031948D01*
X296650Y1032443D01*
X296568Y1033270D01*
X297795Y1033978D01*
X299522Y1035705D01*
X300743Y1037820D01*
X301375Y1040179D01*
Y1042621D01*
X300743Y1044980D01*
X299522Y1047095D01*
X297795Y1048822D01*
X295680Y1050043D01*
X293321Y1050675D01*
D02*
G37*
G36*
X256693Y1032000D02*
X254306D01*
X252101Y1031086D01*
X250413Y1029399D01*
X249500Y1027193D01*
Y1024806D01*
X250413Y1022601D01*
X252101Y1020913D01*
X254306Y1020000D01*
X256693D01*
X258899Y1020913D01*
X260586Y1022601D01*
X261500Y1024806D01*
Y1027193D01*
X260586Y1029399D01*
X258899Y1031086D01*
X256693Y1032000D01*
D02*
G37*
G36*
X96693D02*
X94306D01*
X92101Y1031086D01*
X90413Y1029399D01*
X89500Y1027193D01*
Y1024806D01*
X90413Y1022601D01*
X92101Y1020913D01*
X94306Y1020000D01*
X96693D01*
X98899Y1020913D01*
X100586Y1022601D01*
X101500Y1024806D01*
Y1027193D01*
X100586Y1029399D01*
X98899Y1031086D01*
X96693Y1032000D01*
D02*
G37*
G36*
X372523Y1031670D02*
X370136D01*
X367931Y1030757D01*
X366243Y1029069D01*
X365330Y1026864D01*
Y1024477D01*
X366243Y1022272D01*
X367931Y1020584D01*
X370136Y1019670D01*
X372523D01*
X374728Y1020584D01*
X376416Y1022272D01*
X377330Y1024477D01*
Y1026864D01*
X376416Y1029069D01*
X374728Y1030757D01*
X372523Y1031670D01*
D02*
G37*
G36*
X695944Y1028500D02*
X693557D01*
X691351Y1027587D01*
X689663Y1025899D01*
X688750Y1023693D01*
Y1021307D01*
X689663Y1019101D01*
X691351Y1017413D01*
X693557Y1016500D01*
X695944D01*
X698149Y1017413D01*
X699837Y1019101D01*
X700750Y1021307D01*
Y1023693D01*
X699837Y1025899D01*
X698149Y1027587D01*
X695944Y1028500D01*
D02*
G37*
G36*
X681659Y1023778D02*
X679273D01*
X677067Y1022865D01*
X675379Y1021177D01*
X674466Y1018971D01*
Y1016584D01*
X675379Y1014379D01*
X677067Y1012691D01*
X679273Y1011778D01*
X681659D01*
X683865Y1012691D01*
X685553Y1014379D01*
X686466Y1016584D01*
Y1018971D01*
X685553Y1021177D01*
X683865Y1022865D01*
X681659Y1023778D01*
D02*
G37*
G36*
X318721Y1025275D02*
X316279D01*
X313920Y1024643D01*
X311805Y1023422D01*
X310078Y1021695D01*
X308857Y1019580D01*
X308225Y1017221D01*
Y1014779D01*
X308857Y1012420D01*
X310078Y1010305D01*
X311805Y1008578D01*
X313920Y1007357D01*
X316279Y1006725D01*
X318721D01*
X321080Y1007357D01*
X323195Y1008578D01*
X324922Y1010305D01*
X326143Y1012420D01*
X326775Y1014779D01*
Y1017221D01*
X326143Y1019580D01*
X324922Y1021695D01*
X323195Y1023422D01*
X321080Y1024643D01*
X318721Y1025275D01*
D02*
G37*
G36*
X556945Y1014634D02*
X554558D01*
X552353Y1013721D01*
X550665Y1012033D01*
X549752Y1009827D01*
Y1007440D01*
X550665Y1005235D01*
X552353Y1003547D01*
X554558Y1002634D01*
X556945D01*
X559151Y1003547D01*
X560839Y1005235D01*
X561752Y1007440D01*
Y1009827D01*
X560839Y1012033D01*
X559151Y1013721D01*
X556945Y1014634D01*
D02*
G37*
G36*
X509693Y1012750D02*
X507307D01*
X505101Y1011837D01*
X503413Y1010149D01*
X502500Y1007943D01*
Y1005556D01*
X503413Y1003351D01*
X505101Y1001664D01*
X507307Y1000750D01*
X509693D01*
X511899Y1001664D01*
X513587Y1003351D01*
X514500Y1005556D01*
Y1007943D01*
X513587Y1010149D01*
X511899Y1011837D01*
X509693Y1012750D01*
D02*
G37*
G36*
X391591Y1012348D02*
X389204D01*
X386999Y1011435D01*
X385311Y1009747D01*
X384398Y1007542D01*
Y1005154D01*
X385311Y1002949D01*
X386999Y1001261D01*
X389204Y1000348D01*
X391591D01*
X393797Y1001261D01*
X395485Y1002949D01*
X396398Y1005154D01*
Y1007542D01*
X395485Y1009747D01*
X393797Y1011435D01*
X391591Y1012348D01*
D02*
G37*
G36*
X187790Y1036024D02*
X184146D01*
X180572Y1035313D01*
X177205Y1033919D01*
X174175Y1031894D01*
X171598Y1029317D01*
X169573Y1026287D01*
X168179Y1022920D01*
X167468Y1019346D01*
Y1015702D01*
X168179Y1012128D01*
X169573Y1008761D01*
X171598Y1005731D01*
X174175Y1003154D01*
X177205Y1001130D01*
X180572Y999735D01*
X184146Y999024D01*
X187790D01*
X191364Y999735D01*
X194731Y1001130D01*
X197761Y1003154D01*
X200338Y1005731D01*
X202362Y1008761D01*
X203757Y1012128D01*
X204468Y1015702D01*
Y1019346D01*
X203757Y1022920D01*
X202362Y1026287D01*
X200338Y1029317D01*
X197761Y1031894D01*
X194731Y1033919D01*
X191364Y1035313D01*
X187790Y1036024D01*
D02*
G37*
G36*
X124290D02*
X120646D01*
X117072Y1035313D01*
X113705Y1033919D01*
X110675Y1031894D01*
X108098Y1029317D01*
X106074Y1026287D01*
X104679Y1022920D01*
X103968Y1019346D01*
Y1015702D01*
X104679Y1012128D01*
X106074Y1008761D01*
X108098Y1005731D01*
X110675Y1003154D01*
X113705Y1001130D01*
X117072Y999735D01*
X120646Y999024D01*
X124290D01*
X127864Y999735D01*
X131231Y1001130D01*
X134261Y1003154D01*
X136838Y1005731D01*
X138862Y1008761D01*
X140257Y1012128D01*
X140968Y1015702D01*
Y1019346D01*
X140257Y1022920D01*
X138862Y1026287D01*
X136838Y1029317D01*
X134261Y1031894D01*
X131231Y1033919D01*
X127864Y1035313D01*
X124290Y1036024D01*
D02*
G37*
G36*
X63438Y1037524D02*
X59498D01*
X55634Y1036755D01*
X51995Y1035248D01*
X48719Y1033059D01*
X45933Y1030273D01*
X43744Y1026998D01*
X42237Y1023358D01*
X41468Y1019494D01*
Y1015554D01*
X42237Y1011690D01*
X43744Y1008051D01*
X45933Y1004775D01*
X48719Y1001989D01*
X51995Y999800D01*
X55634Y998293D01*
X59498Y997524D01*
X63438D01*
X67302Y998293D01*
X70942Y999800D01*
X74217Y1001989D01*
X77003Y1004775D01*
X79192Y1008051D01*
X80699Y1011690D01*
X81468Y1015554D01*
Y1019494D01*
X80699Y1023358D01*
X79192Y1026998D01*
X77003Y1030273D01*
X74217Y1033059D01*
X70942Y1035248D01*
X67302Y1036755D01*
X63438Y1037524D01*
D02*
G37*
G36*
X300415Y998915D02*
X295100D01*
Y993600D01*
X300415D01*
Y998915D01*
D02*
G37*
G36*
X289100D02*
X283785D01*
Y993600D01*
X289100D01*
Y998915D01*
D02*
G37*
G36*
X590694Y1002500D02*
X588307D01*
X586101Y1001587D01*
X584413Y999899D01*
X583500Y997693D01*
Y995306D01*
X584413Y993101D01*
X586101Y991413D01*
X588307Y990500D01*
X590694D01*
X592899Y991413D01*
X594586Y993101D01*
X595500Y995306D01*
Y997693D01*
X594586Y999899D01*
X592899Y1001587D01*
X590694Y1002500D01*
D02*
G37*
G36*
X676071Y996854D02*
X673684D01*
X671479Y995941D01*
X669791Y994253D01*
X668878Y992048D01*
Y989660D01*
X669791Y987455D01*
X671479Y985767D01*
X673684Y984854D01*
X676071D01*
X678277Y985767D01*
X679965Y987455D01*
X680878Y989660D01*
Y992048D01*
X679965Y994253D01*
X678277Y995941D01*
X676071Y996854D01*
D02*
G37*
G36*
X300415Y987600D02*
X295100D01*
Y982285D01*
X300415D01*
Y987600D01*
D02*
G37*
G36*
X289100D02*
X283785D01*
Y982285D01*
X289100D01*
Y987600D01*
D02*
G37*
G36*
X366446Y1001426D02*
X364058D01*
X361853Y1000513D01*
X360165Y998825D01*
X359252Y996619D01*
Y994232D01*
X360165Y992027D01*
X361853Y990339D01*
X364058Y989426D01*
X366446D01*
X368390Y990231D01*
X369002Y989684D01*
X369276Y989306D01*
X368403Y987197D01*
Y984810D01*
X369316Y982605D01*
X371004Y980917D01*
X373209Y980004D01*
X375596D01*
X377802Y980917D01*
X379490Y982605D01*
X380403Y984810D01*
Y987197D01*
X379490Y989402D01*
X377802Y991090D01*
X375596Y992003D01*
X373209D01*
X371265Y991198D01*
X370653Y991746D01*
X370378Y992124D01*
X371252Y994232D01*
Y996619D01*
X370339Y998825D01*
X368651Y1000513D01*
X366446Y1001426D01*
D02*
G37*
G36*
X476693Y992000D02*
X474306D01*
X472101Y991086D01*
X470413Y989399D01*
X469500Y987193D01*
Y984806D01*
X470413Y982601D01*
X472101Y980913D01*
X474306Y980000D01*
X476693D01*
X478899Y980913D01*
X480586Y982601D01*
X481500Y984806D01*
Y987193D01*
X480586Y989399D01*
X478899Y991086D01*
X476693Y992000D01*
D02*
G37*
G36*
X276693D02*
X274306D01*
X272101Y991086D01*
X270413Y989399D01*
X269500Y987193D01*
Y984806D01*
X270413Y982601D01*
X272101Y980913D01*
X274306Y980000D01*
X276693D01*
X278899Y980913D01*
X280586Y982601D01*
X281500Y984806D01*
Y987193D01*
X280586Y989399D01*
X278899Y991086D01*
X276693Y992000D01*
D02*
G37*
G36*
X236693D02*
X234306D01*
X232101Y991086D01*
X230413Y989399D01*
X229500Y987193D01*
Y984806D01*
X230413Y982601D01*
X232101Y980913D01*
X234306Y980000D01*
X236693D01*
X238899Y980913D01*
X240586Y982601D01*
X241500Y984806D01*
Y987193D01*
X240586Y989399D01*
X238899Y991086D01*
X236693Y992000D01*
D02*
G37*
G36*
X156693D02*
X154306D01*
X152101Y991086D01*
X150413Y989399D01*
X149500Y987193D01*
Y984806D01*
X150413Y982601D01*
X152101Y980913D01*
X154306Y980000D01*
X156693D01*
X158899Y980913D01*
X160586Y982601D01*
X161500Y984806D01*
Y987193D01*
X160586Y989399D01*
X158899Y991086D01*
X156693Y992000D01*
D02*
G37*
G36*
X76693D02*
X74306D01*
X72101Y991086D01*
X70413Y989399D01*
X69500Y987193D01*
Y984806D01*
X70413Y982601D01*
X72101Y980913D01*
X74306Y980000D01*
X76693D01*
X78899Y980913D01*
X80587Y982601D01*
X81500Y984806D01*
Y987193D01*
X80587Y989399D01*
X78899Y991086D01*
X76693Y992000D01*
D02*
G37*
G36*
X36693D02*
X34306D01*
X32101Y991086D01*
X30413Y989399D01*
X29500Y987193D01*
Y984806D01*
X30413Y982601D01*
X32101Y980913D01*
X34306Y980000D01*
X36693D01*
X38899Y980913D01*
X40587Y982601D01*
X41500Y984806D01*
Y987193D01*
X40587Y989399D01*
X38899Y991086D01*
X36693Y992000D01*
D02*
G37*
G36*
X494594Y989610D02*
X492206D01*
X490001Y988697D01*
X488313Y987009D01*
X487400Y984803D01*
Y982417D01*
X488313Y980211D01*
X490001Y978523D01*
X492206Y977610D01*
X494594D01*
X496799Y978523D01*
X498487Y980211D01*
X499400Y982417D01*
Y984803D01*
X498487Y987009D01*
X496799Y988697D01*
X494594Y989610D01*
D02*
G37*
G36*
X676071Y978566D02*
X673684D01*
X671479Y977653D01*
X669791Y975965D01*
X668878Y973760D01*
Y971373D01*
X669791Y969167D01*
X671479Y967479D01*
X673684Y966566D01*
X676071D01*
X678277Y967479D01*
X679965Y969167D01*
X680878Y971373D01*
Y973760D01*
X679965Y975965D01*
X678277Y977653D01*
X676071Y978566D01*
D02*
G37*
G36*
X587934Y968914D02*
X585546D01*
X583341Y968001D01*
X581653Y966313D01*
X580740Y964108D01*
Y961721D01*
X581653Y959515D01*
X583341Y957827D01*
X585546Y956914D01*
X587934D01*
X590139Y957827D01*
X591827Y959515D01*
X592740Y961721D01*
Y964108D01*
X591827Y966313D01*
X590139Y968001D01*
X587934Y968914D01*
D02*
G37*
G36*
X204468Y991524D02*
X167468D01*
Y954524D01*
X204468D01*
Y991524D01*
D02*
G37*
G36*
X124290D02*
X120646D01*
X117072Y990813D01*
X113705Y989418D01*
X110675Y987394D01*
X108098Y984817D01*
X106074Y981787D01*
X104679Y978420D01*
X103968Y974846D01*
Y971202D01*
X104679Y967628D01*
X106074Y964261D01*
X108098Y961231D01*
X110675Y958654D01*
X113705Y956629D01*
X117072Y955235D01*
X120646Y954524D01*
X124290D01*
X127864Y955235D01*
X131231Y956629D01*
X134261Y958654D01*
X136838Y961231D01*
X138862Y964261D01*
X140257Y967628D01*
X140968Y971202D01*
Y974846D01*
X140257Y978420D01*
X138862Y981787D01*
X136838Y984817D01*
X134261Y987394D01*
X131231Y989418D01*
X127864Y990813D01*
X124290Y991524D01*
D02*
G37*
G36*
X695787Y965261D02*
X693400D01*
X691194Y964348D01*
X689506Y962660D01*
X688593Y960454D01*
Y958067D01*
X689506Y955862D01*
X691194Y954174D01*
X693400Y953261D01*
X695787D01*
X697992Y954174D01*
X699680Y955862D01*
X700593Y958067D01*
Y960454D01*
X699680Y962660D01*
X697992Y964348D01*
X695787Y965261D01*
D02*
G37*
G36*
X372943Y952500D02*
X370556D01*
X368351Y951587D01*
X366664Y949899D01*
X365750Y947693D01*
Y945306D01*
X366664Y943101D01*
X368351Y941413D01*
X370556Y940500D01*
X372943D01*
X375149Y941413D01*
X376837Y943101D01*
X377750Y945306D01*
Y947693D01*
X376837Y949899D01*
X375149Y951587D01*
X372943Y952500D01*
D02*
G37*
G36*
X256693Y952000D02*
X254306D01*
X252101Y951086D01*
X250413Y949399D01*
X249500Y947193D01*
Y944806D01*
X250413Y942601D01*
X252101Y940913D01*
X254306Y940000D01*
X256693D01*
X258899Y940913D01*
X260586Y942601D01*
X261500Y944806D01*
Y947193D01*
X260586Y949399D01*
X258899Y951086D01*
X256693Y952000D01*
D02*
G37*
G36*
X176693D02*
X174306D01*
X172101Y951086D01*
X170413Y949399D01*
X169500Y947193D01*
Y944806D01*
X170413Y942601D01*
X172101Y940913D01*
X174306Y940000D01*
X176693D01*
X178899Y940913D01*
X180586Y942601D01*
X181500Y944806D01*
Y947193D01*
X180586Y949399D01*
X178899Y951086D01*
X176693Y952000D01*
D02*
G37*
G36*
X136693D02*
X134306D01*
X132101Y951086D01*
X130413Y949399D01*
X129500Y947193D01*
Y944806D01*
X130413Y942601D01*
X132101Y940913D01*
X134306Y940000D01*
X136693D01*
X138899Y940913D01*
X140586Y942601D01*
X141500Y944806D01*
Y947193D01*
X140586Y949399D01*
X138899Y951086D01*
X136693Y952000D01*
D02*
G37*
G36*
X96693D02*
X94306D01*
X92101Y951086D01*
X90413Y949399D01*
X89500Y947193D01*
Y944806D01*
X90413Y942601D01*
X92101Y940913D01*
X94306Y940000D01*
X96693D01*
X98899Y940913D01*
X100586Y942601D01*
X101500Y944806D01*
Y947193D01*
X100586Y949399D01*
X98899Y951086D01*
X96693Y952000D01*
D02*
G37*
G36*
X56693D02*
X54306D01*
X52101Y951086D01*
X50413Y949399D01*
X49500Y947193D01*
Y944806D01*
X50413Y942601D01*
X52101Y940913D01*
X54306Y940000D01*
X56693D01*
X58899Y940913D01*
X60586Y942601D01*
X61500Y944806D01*
Y947193D01*
X60586Y949399D01*
X58899Y951086D01*
X56693Y952000D01*
D02*
G37*
G36*
X680643Y946816D02*
X678257D01*
X676051Y945903D01*
X674363Y944215D01*
X673450Y942010D01*
Y939622D01*
X674363Y937417D01*
X676051Y935729D01*
X678257Y934816D01*
X680643D01*
X682849Y935729D01*
X684537Y937417D01*
X685450Y939622D01*
Y942010D01*
X684537Y944215D01*
X682849Y945903D01*
X680643Y946816D01*
D02*
G37*
G36*
X293321Y949075D02*
X290879D01*
X288520Y948443D01*
X286405Y947222D01*
X284678Y945495D01*
X283457Y943380D01*
X282825Y941021D01*
Y938579D01*
X283457Y936220D01*
X284678Y934105D01*
X286405Y932378D01*
X288520Y931157D01*
X290879Y930525D01*
X293321D01*
X295680Y931157D01*
X297795Y932378D01*
X299522Y934105D01*
X300743Y936220D01*
X301375Y938579D01*
Y941021D01*
X300743Y943380D01*
X299522Y945495D01*
X297795Y947222D01*
X295680Y948443D01*
X293321Y949075D01*
D02*
G37*
G36*
X551866Y936148D02*
X549478D01*
X547273Y935235D01*
X545585Y933547D01*
X544672Y931341D01*
Y928954D01*
X545585Y926749D01*
X547273Y925061D01*
X549478Y924148D01*
X551866D01*
X554071Y925061D01*
X555759Y926749D01*
X556672Y928954D01*
Y931341D01*
X555759Y933547D01*
X554071Y935235D01*
X551866Y936148D01*
D02*
G37*
G36*
X318721Y923675D02*
X316279D01*
X313920Y923043D01*
X311805Y921822D01*
X310078Y920095D01*
X308857Y917980D01*
X308225Y915621D01*
Y913179D01*
X308857Y910820D01*
X310078Y908705D01*
X311805Y906978D01*
X313920Y905757D01*
X316279Y905125D01*
X318721D01*
X321080Y905757D01*
X323195Y906978D01*
X324922Y908705D01*
X326143Y910820D01*
X326775Y913179D01*
Y915621D01*
X326143Y917980D01*
X324922Y920095D01*
X323195Y921822D01*
X321080Y923043D01*
X318721Y923675D01*
D02*
G37*
G36*
X676693Y912000D02*
X674306D01*
X672101Y911086D01*
X670413Y909399D01*
X669500Y907193D01*
Y904806D01*
X670413Y902601D01*
X672101Y900913D01*
X674306Y900000D01*
X676693D01*
X678899Y900913D01*
X680586Y902601D01*
X681500Y904806D01*
Y907193D01*
X680586Y909399D01*
X678899Y911086D01*
X676693Y912000D01*
D02*
G37*
G36*
X396693D02*
X394306D01*
X392101Y911086D01*
X390413Y909399D01*
X389500Y907193D01*
Y904806D01*
X390413Y902601D01*
X392101Y900913D01*
X394306Y900000D01*
X396693D01*
X398899Y900913D01*
X400586Y902601D01*
X401500Y904806D01*
Y907193D01*
X400586Y909399D01*
X398899Y911086D01*
X396693Y912000D01*
D02*
G37*
G36*
X356693D02*
X354306D01*
X352101Y911086D01*
X350413Y909399D01*
X349500Y907193D01*
Y904806D01*
X350413Y902601D01*
X352101Y900913D01*
X354306Y900000D01*
X356693D01*
X358899Y900913D01*
X360586Y902601D01*
X361500Y904806D01*
Y907193D01*
X360586Y909399D01*
X358899Y911086D01*
X356693Y912000D01*
D02*
G37*
G36*
X276693D02*
X274306D01*
X272101Y911086D01*
X270413Y909399D01*
X269500Y907193D01*
Y904806D01*
X270413Y902601D01*
X272101Y900913D01*
X274306Y900000D01*
X276693D01*
X278899Y900913D01*
X280586Y902601D01*
X281500Y904806D01*
Y907193D01*
X280586Y909399D01*
X278899Y911086D01*
X276693Y912000D01*
D02*
G37*
G36*
X236693D02*
X234306D01*
X232101Y911086D01*
X230413Y909399D01*
X229500Y907193D01*
Y904806D01*
X230413Y902601D01*
X232101Y900913D01*
X234306Y900000D01*
X236693D01*
X238899Y900913D01*
X240586Y902601D01*
X241500Y904806D01*
Y907193D01*
X240586Y909399D01*
X238899Y911086D01*
X236693Y912000D01*
D02*
G37*
G36*
X76693D02*
X74306D01*
X72101Y911086D01*
X70413Y909399D01*
X69500Y907193D01*
Y904806D01*
X70413Y902601D01*
X72101Y900913D01*
X74306Y900000D01*
X76693D01*
X78899Y900913D01*
X80587Y902601D01*
X81500Y904806D01*
Y907193D01*
X80587Y909399D01*
X78899Y911086D01*
X76693Y912000D01*
D02*
G37*
G36*
X36693D02*
X34306D01*
X32101Y911086D01*
X30413Y909399D01*
X29500Y907193D01*
Y904806D01*
X30413Y902601D01*
X32101Y900913D01*
X34306Y900000D01*
X36693D01*
X38899Y900913D01*
X40587Y902601D01*
X41500Y904806D01*
Y907193D01*
X40587Y909399D01*
X38899Y911086D01*
X36693Y912000D01*
D02*
G37*
G36*
X300415Y897315D02*
X295100D01*
Y892000D01*
X300415D01*
Y897315D01*
D02*
G37*
G36*
X289100D02*
X283785D01*
Y892000D01*
X289100D01*
Y897315D01*
D02*
G37*
G36*
X177738Y928974D02*
X173798D01*
X169934Y928205D01*
X166294Y926698D01*
X163019Y924509D01*
X160233Y921723D01*
X158044Y918447D01*
X156537Y914808D01*
X155768Y910944D01*
Y907004D01*
X156537Y903140D01*
X158044Y899501D01*
X160233Y896225D01*
X163019Y893439D01*
X166294Y891250D01*
X169934Y889743D01*
X173798Y888974D01*
X177738D01*
X181602Y889743D01*
X185242Y891250D01*
X188517Y893439D01*
X191303Y896225D01*
X193492Y899501D01*
X194999Y903140D01*
X195768Y907004D01*
Y910944D01*
X194999Y914808D01*
X193492Y918447D01*
X191303Y921723D01*
X188517Y924509D01*
X185242Y926698D01*
X181602Y928205D01*
X177738Y928974D01*
D02*
G37*
G36*
X629590Y898302D02*
X627202D01*
X624997Y897389D01*
X623309Y895701D01*
X622396Y893495D01*
Y891108D01*
X623309Y888903D01*
X624997Y887215D01*
X627202Y886302D01*
X629590D01*
X631795Y887215D01*
X633483Y888903D01*
X634396Y891108D01*
Y893495D01*
X633483Y895701D01*
X631795Y897389D01*
X629590Y898302D01*
D02*
G37*
G36*
X300415Y886000D02*
X295100D01*
Y880685D01*
X300415D01*
Y886000D01*
D02*
G37*
G36*
X289100D02*
X283785D01*
Y880685D01*
X289100D01*
Y886000D01*
D02*
G37*
G36*
X696693Y872000D02*
X694306D01*
X692101Y871086D01*
X690413Y869399D01*
X689500Y867193D01*
Y864806D01*
X690413Y862601D01*
X692101Y860913D01*
X694306Y860000D01*
X696693D01*
X698899Y860913D01*
X700586Y862601D01*
X701500Y864806D01*
Y867193D01*
X700586Y869399D01*
X698899Y871086D01*
X696693Y872000D01*
D02*
G37*
G36*
X616693D02*
X614306D01*
X612101Y871086D01*
X610413Y869399D01*
X609500Y867193D01*
Y864806D01*
X610413Y862601D01*
X612101Y860913D01*
X614306Y860000D01*
X616693D01*
X618899Y860913D01*
X620586Y862601D01*
X621500Y864806D01*
Y867193D01*
X620586Y869399D01*
X618899Y871086D01*
X616693Y872000D01*
D02*
G37*
G36*
X576693D02*
X574306D01*
X572101Y871086D01*
X570413Y869399D01*
X569500Y867193D01*
Y864806D01*
X570413Y862601D01*
X572101Y860913D01*
X574306Y860000D01*
X576693D01*
X578899Y860913D01*
X580586Y862601D01*
X581500Y864806D01*
Y867193D01*
X580586Y869399D01*
X578899Y871086D01*
X576693Y872000D01*
D02*
G37*
G36*
X336693D02*
X334306D01*
X332101Y871086D01*
X330413Y869399D01*
X329500Y867193D01*
Y864806D01*
X330413Y862601D01*
X332101Y860913D01*
X334306Y860000D01*
X336693D01*
X338899Y860913D01*
X340586Y862601D01*
X341500Y864806D01*
Y867193D01*
X340586Y869399D01*
X338899Y871086D01*
X336693Y872000D01*
D02*
G37*
G36*
X296693D02*
X294306D01*
X292101Y871086D01*
X290413Y869399D01*
X289500Y867193D01*
Y864806D01*
X290413Y862601D01*
X292101Y860913D01*
X294306Y860000D01*
X296693D01*
X298899Y860913D01*
X300586Y862601D01*
X301500Y864806D01*
Y867193D01*
X300586Y869399D01*
X298899Y871086D01*
X296693Y872000D01*
D02*
G37*
G36*
X256693D02*
X254306D01*
X252101Y871086D01*
X250413Y869399D01*
X249500Y867193D01*
Y864806D01*
X250413Y862601D01*
X252101Y860913D01*
X254306Y860000D01*
X256693D01*
X258899Y860913D01*
X260586Y862601D01*
X261500Y864806D01*
Y867193D01*
X260586Y869399D01*
X258899Y871086D01*
X256693Y872000D01*
D02*
G37*
G36*
X216693D02*
X214306D01*
X212101Y871086D01*
X210413Y869399D01*
X209500Y867193D01*
Y864806D01*
X210413Y862601D01*
X212101Y860913D01*
X214306Y860000D01*
X216693D01*
X218899Y860913D01*
X220586Y862601D01*
X221500Y864806D01*
Y867193D01*
X220586Y869399D01*
X218899Y871086D01*
X216693Y872000D01*
D02*
G37*
G36*
X176693D02*
X174306D01*
X172101Y871086D01*
X170413Y869399D01*
X169500Y867193D01*
Y864806D01*
X170413Y862601D01*
X172101Y860913D01*
X174306Y860000D01*
X176693D01*
X178899Y860913D01*
X180586Y862601D01*
X181500Y864806D01*
Y867193D01*
X180586Y869399D01*
X178899Y871086D01*
X176693Y872000D01*
D02*
G37*
G36*
X136693D02*
X134306D01*
X132101Y871086D01*
X130413Y869399D01*
X129500Y867193D01*
Y864806D01*
X130413Y862601D01*
X132101Y860913D01*
X134306Y860000D01*
X136693D01*
X138899Y860913D01*
X140586Y862601D01*
X141500Y864806D01*
Y867193D01*
X140586Y869399D01*
X138899Y871086D01*
X136693Y872000D01*
D02*
G37*
G36*
X96693D02*
X94306D01*
X92101Y871086D01*
X90413Y869399D01*
X89500Y867193D01*
Y864806D01*
X90413Y862601D01*
X92101Y860913D01*
X94306Y860000D01*
X96693D01*
X98899Y860913D01*
X100586Y862601D01*
X101500Y864806D01*
Y867193D01*
X100586Y869399D01*
X98899Y871086D01*
X96693Y872000D01*
D02*
G37*
G36*
X56693D02*
X54306D01*
X52101Y871086D01*
X50413Y869399D01*
X49500Y867193D01*
Y864806D01*
X50413Y862601D01*
X52101Y860913D01*
X54306Y860000D01*
X56693D01*
X58899Y860913D01*
X60586Y862601D01*
X61500Y864806D01*
Y867193D01*
X60586Y869399D01*
X58899Y871086D01*
X56693Y872000D01*
D02*
G37*
G36*
X492938Y886618D02*
X490550D01*
X488345Y885705D01*
X486657Y884017D01*
X485744Y881812D01*
Y879425D01*
X486657Y877219D01*
X488345Y875531D01*
X489902Y874886D01*
Y873512D01*
X489413Y873309D01*
X487725Y871621D01*
X486812Y869416D01*
Y867029D01*
X487725Y864824D01*
X489413Y863136D01*
X491618Y862223D01*
X492803D01*
X493508Y861167D01*
X493212Y860451D01*
Y858064D01*
X494126Y855859D01*
X495813Y854171D01*
X498018Y853258D01*
X500406D01*
X502611Y854171D01*
X504299Y855859D01*
X505212Y858064D01*
Y860451D01*
X504916Y861167D01*
X505621Y862223D01*
X506805D01*
X509011Y863136D01*
X510699Y864824D01*
X511612Y867029D01*
Y869416D01*
X510699Y871621D01*
X509011Y873309D01*
X506805Y874223D01*
X504418D01*
X502213Y873309D01*
X500525Y871621D01*
X499899Y870110D01*
X498525D01*
X497898Y871621D01*
X496211Y873309D01*
X494654Y873954D01*
Y875329D01*
X495143Y875531D01*
X496831Y877219D01*
X497744Y879425D01*
Y881812D01*
X496831Y884017D01*
X495143Y885705D01*
X492938Y886618D01*
D02*
G37*
G36*
X629743Y849650D02*
X627356D01*
X625151Y848737D01*
X623463Y847049D01*
X622887Y845658D01*
X621513D01*
X620937Y847049D01*
X619249Y848737D01*
X617043Y849650D01*
X614656D01*
X612451Y848737D01*
X610763Y847049D01*
X609850Y844844D01*
Y842457D01*
X610763Y840251D01*
X612451Y838563D01*
X614656Y837650D01*
X617043D01*
X619249Y838563D01*
X620937Y840251D01*
X621513Y841642D01*
X622887D01*
X623463Y840251D01*
X625151Y838563D01*
X627356Y837650D01*
X629743D01*
X631949Y838563D01*
X633637Y840251D01*
X634550Y842457D01*
Y844844D01*
X633637Y847049D01*
X631949Y848737D01*
X629743Y849650D01*
D02*
G37*
G36*
X230958Y852160D02*
Y845570D01*
X237548D01*
X237314Y846445D01*
X235992Y848735D01*
X234123Y850604D01*
X231833Y851926D01*
X230958Y852160D01*
D02*
G37*
G36*
X224958D02*
X224083Y851926D01*
X221793Y850604D01*
X219924Y848735D01*
X218602Y846445D01*
X218368Y845570D01*
X224958D01*
Y852160D01*
D02*
G37*
G36*
X331648Y855550D02*
X328752D01*
X325954Y854800D01*
X323446Y853352D01*
X321398Y851304D01*
X319950Y848796D01*
X319200Y845998D01*
Y843102D01*
X319950Y840304D01*
X321398Y837796D01*
X323446Y835748D01*
X325954Y834300D01*
X328752Y833550D01*
X331648D01*
X334446Y834300D01*
X336954Y835748D01*
X339002Y837796D01*
X340450Y840304D01*
X341200Y843102D01*
Y845998D01*
X340450Y848796D01*
X339002Y851304D01*
X336954Y853352D01*
X334446Y854800D01*
X331648Y855550D01*
D02*
G37*
G36*
X306248D02*
X303352D01*
X300554Y854800D01*
X298046Y853352D01*
X295998Y851304D01*
X294550Y848796D01*
X293800Y845998D01*
Y843102D01*
X294550Y840304D01*
X295998Y837796D01*
X298046Y835748D01*
X300554Y834300D01*
X303352Y833550D01*
X306248D01*
X309046Y834300D01*
X311554Y835748D01*
X313602Y837796D01*
X315050Y840304D01*
X315800Y843102D01*
Y845998D01*
X315050Y848796D01*
X313602Y851304D01*
X311554Y853352D01*
X309046Y854800D01*
X306248Y855550D01*
D02*
G37*
G36*
X290400D02*
X268400D01*
Y833550D01*
X290400D01*
Y855550D01*
D02*
G37*
G36*
X237548Y839570D02*
X230958D01*
Y832980D01*
X231833Y833214D01*
X234123Y834536D01*
X235992Y836405D01*
X237314Y838695D01*
X237548Y839570D01*
D02*
G37*
G36*
X224958D02*
X218368D01*
X218602Y838695D01*
X219924Y836405D01*
X221793Y834536D01*
X224083Y833214D01*
X224958Y832980D01*
Y839570D01*
D02*
G37*
G36*
X204006Y853570D02*
X201110D01*
X198312Y852820D01*
X195804Y851372D01*
X193756Y849324D01*
X192308Y846816D01*
X191558Y844018D01*
Y841122D01*
X192308Y838324D01*
X193756Y835816D01*
X195804Y833768D01*
X198312Y832319D01*
X201110Y831570D01*
X204006D01*
X206804Y832319D01*
X209312Y833768D01*
X211360Y835816D01*
X212808Y838324D01*
X213558Y841122D01*
Y844018D01*
X212808Y846816D01*
X211360Y849324D01*
X209312Y851372D01*
X206804Y852820D01*
X204006Y853570D01*
D02*
G37*
G36*
X188158D02*
X166158D01*
Y831570D01*
X188158D01*
Y853570D01*
D02*
G37*
G36*
X676693Y832000D02*
X674306D01*
X672101Y831087D01*
X670413Y829399D01*
X669500Y827193D01*
Y824806D01*
X670413Y822601D01*
X672101Y820913D01*
X674306Y820000D01*
X676693D01*
X678899Y820913D01*
X680586Y822601D01*
X681500Y824806D01*
Y827193D01*
X680586Y829399D01*
X678899Y831087D01*
X676693Y832000D01*
D02*
G37*
G36*
X396693D02*
X394306D01*
X392101Y831087D01*
X390413Y829399D01*
X389500Y827193D01*
Y824806D01*
X390413Y822601D01*
X392101Y820913D01*
X394306Y820000D01*
X396693D01*
X398899Y820913D01*
X400586Y822601D01*
X401500Y824806D01*
Y827193D01*
X400586Y829399D01*
X398899Y831087D01*
X396693Y832000D01*
D02*
G37*
G36*
X76693D02*
X74306D01*
X72101Y831087D01*
X70413Y829399D01*
X69500Y827193D01*
Y824806D01*
X70413Y822601D01*
X72101Y820913D01*
X74306Y820000D01*
X76693D01*
X78899Y820913D01*
X80587Y822601D01*
X81500Y824806D01*
Y827193D01*
X80587Y829399D01*
X78899Y831087D01*
X76693Y832000D01*
D02*
G37*
G36*
X36693D02*
X34306D01*
X32101Y831087D01*
X30413Y829399D01*
X29500Y827193D01*
Y824806D01*
X30413Y822601D01*
X32101Y820913D01*
X34306Y820000D01*
X36693D01*
X38899Y820913D01*
X40587Y822601D01*
X41500Y824806D01*
Y827193D01*
X40587Y829399D01*
X38899Y831087D01*
X36693Y832000D01*
D02*
G37*
G36*
X550596Y823626D02*
X548209D01*
X546003Y822713D01*
X544315Y821025D01*
X543402Y818820D01*
Y816432D01*
X544315Y814227D01*
X546003Y812539D01*
X548209Y811626D01*
X550596D01*
X552801Y812539D01*
X554489Y814227D01*
X555402Y816432D01*
Y818820D01*
X554489Y821025D01*
X552801Y822713D01*
X550596Y823626D01*
D02*
G37*
G36*
X229406Y828170D02*
X226510D01*
X223712Y827420D01*
X221204Y825972D01*
X219156Y823924D01*
X217708Y821416D01*
X216958Y818618D01*
Y815722D01*
X217708Y812924D01*
X219156Y810416D01*
X221204Y808368D01*
X223712Y806919D01*
X226510Y806170D01*
X229406D01*
X232204Y806919D01*
X234712Y808368D01*
X236760Y810416D01*
X238208Y812924D01*
X238958Y815722D01*
Y818618D01*
X238208Y821416D01*
X236760Y823924D01*
X234712Y825972D01*
X232204Y827420D01*
X229406Y828170D01*
D02*
G37*
G36*
X204006D02*
X201110D01*
X198312Y827420D01*
X195804Y825972D01*
X193756Y823924D01*
X192308Y821416D01*
X191558Y818618D01*
Y815722D01*
X192308Y812924D01*
X193756Y810416D01*
X195804Y808368D01*
X198312Y806919D01*
X201110Y806170D01*
X204006D01*
X206804Y806919D01*
X209312Y808368D01*
X211360Y810416D01*
X212808Y812924D01*
X213558Y815722D01*
Y818618D01*
X212808Y821416D01*
X211360Y823924D01*
X209312Y825972D01*
X206804Y827420D01*
X204006Y828170D01*
D02*
G37*
G36*
X178606D02*
X175710D01*
X172912Y827420D01*
X170404Y825972D01*
X168356Y823924D01*
X166908Y821416D01*
X166158Y818618D01*
Y815722D01*
X166908Y812924D01*
X168356Y810416D01*
X170404Y808368D01*
X172912Y806919D01*
X175710Y806170D01*
X178606D01*
X181404Y806919D01*
X183912Y808368D01*
X185960Y810416D01*
X187408Y812924D01*
X188158Y815722D01*
Y818618D01*
X187408Y821416D01*
X185960Y823924D01*
X183912Y825972D01*
X181404Y827420D01*
X178606Y828170D01*
D02*
G37*
G36*
X416693Y792000D02*
X414306D01*
X412101Y791087D01*
X410413Y789399D01*
X409500Y787193D01*
Y784806D01*
X410413Y782601D01*
X412101Y780913D01*
X414306Y780000D01*
X416693D01*
X418899Y780913D01*
X420586Y782601D01*
X421500Y784806D01*
Y787193D01*
X420586Y789399D01*
X418899Y791087D01*
X416693Y792000D01*
D02*
G37*
G36*
X216693D02*
X214306D01*
X212101Y791087D01*
X210413Y789399D01*
X209500Y787193D01*
Y784806D01*
X210413Y782601D01*
X212101Y780913D01*
X214306Y780000D01*
X216693D01*
X218899Y780913D01*
X220586Y782601D01*
X221500Y784806D01*
Y787193D01*
X220586Y789399D01*
X218899Y791087D01*
X216693Y792000D01*
D02*
G37*
G36*
X96693D02*
X94306D01*
X92101Y791087D01*
X90413Y789399D01*
X89500Y787193D01*
Y784806D01*
X90413Y782601D01*
X92101Y780913D01*
X94306Y780000D01*
X96693D01*
X98899Y780913D01*
X100586Y782601D01*
X101500Y784806D01*
Y787193D01*
X100586Y789399D01*
X98899Y791087D01*
X96693Y792000D01*
D02*
G37*
G36*
X56693D02*
X54306D01*
X52101Y791087D01*
X50413Y789399D01*
X49500Y787193D01*
Y784806D01*
X50413Y782601D01*
X52101Y780913D01*
X54306Y780000D01*
X56693D01*
X58899Y780913D01*
X60586Y782601D01*
X61500Y784806D01*
Y787193D01*
X60586Y789399D01*
X58899Y791087D01*
X56693Y792000D01*
D02*
G37*
G36*
X356693Y752000D02*
X354306D01*
X352101Y751087D01*
X350413Y749399D01*
X349500Y747193D01*
Y744806D01*
X350413Y742601D01*
X352101Y740913D01*
X354306Y740000D01*
X356693D01*
X358899Y740913D01*
X360586Y742601D01*
X361500Y744806D01*
Y747193D01*
X360586Y749399D01*
X358899Y751087D01*
X356693Y752000D01*
D02*
G37*
G36*
X316693D02*
X314306D01*
X312101Y751087D01*
X310413Y749399D01*
X309500Y747193D01*
Y744806D01*
X310413Y742601D01*
X312101Y740913D01*
X314306Y740000D01*
X316693D01*
X318899Y740913D01*
X320586Y742601D01*
X321500Y744806D01*
Y747193D01*
X320586Y749399D01*
X318899Y751087D01*
X316693Y752000D01*
D02*
G37*
G36*
X236693D02*
X234306D01*
X232101Y751087D01*
X230413Y749399D01*
X229500Y747193D01*
Y744806D01*
X230413Y742601D01*
X232101Y740913D01*
X234306Y740000D01*
X236693D01*
X238899Y740913D01*
X240586Y742601D01*
X241500Y744806D01*
Y747193D01*
X240586Y749399D01*
X238899Y751087D01*
X236693Y752000D01*
D02*
G37*
G36*
X156693D02*
X154306D01*
X152101Y751087D01*
X150413Y749399D01*
X149500Y747193D01*
Y744806D01*
X150413Y742601D01*
X152101Y740913D01*
X154306Y740000D01*
X156693D01*
X158899Y740913D01*
X160586Y742601D01*
X161500Y744806D01*
Y747193D01*
X160586Y749399D01*
X158899Y751087D01*
X156693Y752000D01*
D02*
G37*
G36*
X116693D02*
X114306D01*
X112101Y751087D01*
X110413Y749399D01*
X109500Y747193D01*
Y744806D01*
X110413Y742601D01*
X112101Y740913D01*
X114306Y740000D01*
X116693D01*
X118899Y740913D01*
X120586Y742601D01*
X121500Y744806D01*
Y747193D01*
X120586Y749399D01*
X118899Y751087D01*
X116693Y752000D01*
D02*
G37*
G36*
X76693D02*
X74306D01*
X72101Y751087D01*
X70413Y749399D01*
X69500Y747193D01*
Y744806D01*
X70413Y742601D01*
X72101Y740913D01*
X74306Y740000D01*
X76693D01*
X78899Y740913D01*
X80587Y742601D01*
X81500Y744806D01*
Y747193D01*
X80587Y749399D01*
X78899Y751087D01*
X76693Y752000D01*
D02*
G37*
G36*
X36693D02*
X34306D01*
X32101Y751087D01*
X30413Y749399D01*
X29500Y747193D01*
Y744806D01*
X30413Y742601D01*
X32101Y740913D01*
X34306Y740000D01*
X36693D01*
X38899Y740913D01*
X40587Y742601D01*
X41500Y744806D01*
Y747193D01*
X40587Y749399D01*
X38899Y751087D01*
X36693Y752000D01*
D02*
G37*
G36*
X165882Y731464D02*
X162286D01*
X158811Y730533D01*
X155697Y728735D01*
X153153Y726191D01*
X151355Y723077D01*
X150424Y719602D01*
Y716006D01*
X151355Y712531D01*
X153153Y709417D01*
X155697Y706873D01*
X158811Y705075D01*
X162286Y704144D01*
X165882D01*
X169357Y705075D01*
X172471Y706873D01*
X175015Y709417D01*
X176813Y712531D01*
X177744Y716006D01*
Y719602D01*
X176813Y723077D01*
X175015Y726191D01*
X172471Y728735D01*
X169357Y730533D01*
X165882Y731464D01*
D02*
G37*
G36*
X115082D02*
X111486D01*
X108011Y730533D01*
X104897Y728735D01*
X102353Y726191D01*
X100555Y723077D01*
X99624Y719602D01*
Y716006D01*
X100555Y712531D01*
X102353Y709417D01*
X104897Y706873D01*
X108011Y705075D01*
X111486Y704144D01*
X115082D01*
X118557Y705075D01*
X121671Y706873D01*
X124215Y709417D01*
X126013Y712531D01*
X126944Y716006D01*
Y719602D01*
X126013Y723077D01*
X124215Y726191D01*
X121671Y728735D01*
X118557Y730533D01*
X115082Y731464D01*
D02*
G37*
G36*
X64282D02*
X60686D01*
X57211Y730533D01*
X54097Y728735D01*
X51553Y726191D01*
X49755Y723077D01*
X48824Y719602D01*
Y716006D01*
X49755Y712531D01*
X51553Y709417D01*
X54097Y706873D01*
X57211Y705075D01*
X60686Y704144D01*
X64282D01*
X67757Y705075D01*
X70871Y706873D01*
X73415Y709417D01*
X75213Y712531D01*
X76144Y716006D01*
Y719602D01*
X75213Y723077D01*
X73415Y726191D01*
X70871Y728735D01*
X67757Y730533D01*
X64282Y731464D01*
D02*
G37*
G36*
X242082D02*
X238486D01*
X235011Y730533D01*
X231897Y728735D01*
X229353Y726191D01*
X227555Y723077D01*
X226624Y719602D01*
Y716006D01*
X227555Y712531D01*
X229353Y709417D01*
X231897Y706873D01*
X235011Y705075D01*
X238486Y704144D01*
X242082D01*
X245557Y705075D01*
X248230Y706618D01*
X249379Y706082D01*
X249500Y705946D01*
Y704806D01*
X250413Y702601D01*
X252101Y700913D01*
X254306Y700000D01*
X256693D01*
X258899Y700913D01*
X260586Y702601D01*
X261500Y704806D01*
Y707193D01*
X260586Y709399D01*
X258899Y711087D01*
X256693Y712000D01*
X254306D01*
X253981Y711865D01*
X253106Y712877D01*
X253944Y716006D01*
Y719602D01*
X253013Y723077D01*
X251215Y726191D01*
X248671Y728735D01*
X245557Y730533D01*
X242082Y731464D01*
D02*
G37*
G36*
X216693Y712000D02*
X214306D01*
X212101Y711087D01*
X210413Y709399D01*
X209500Y707193D01*
Y704806D01*
X210413Y702601D01*
X212101Y700913D01*
X214306Y700000D01*
X216693D01*
X218899Y700913D01*
X220586Y702601D01*
X221500Y704806D01*
Y707193D01*
X220586Y709399D01*
X218899Y711087D01*
X216693Y712000D01*
D02*
G37*
G36*
X96693D02*
X94306D01*
X92101Y711087D01*
X90413Y709399D01*
X89500Y707193D01*
Y704806D01*
X90413Y702601D01*
X92101Y700913D01*
X94306Y700000D01*
X96693D01*
X98899Y700913D01*
X100586Y702601D01*
X101500Y704806D01*
Y707193D01*
X100586Y709399D01*
X98899Y711087D01*
X96693Y712000D01*
D02*
G37*
G36*
X36400Y720422D02*
X14400D01*
Y698422D01*
X36400D01*
Y720422D01*
D02*
G37*
G36*
X26848Y695022D02*
X23952D01*
X21154Y694272D01*
X18646Y692824D01*
X16598Y690776D01*
X15150Y688268D01*
X14400Y685470D01*
Y682574D01*
X15150Y679776D01*
X16598Y677268D01*
X18646Y675220D01*
X21154Y673772D01*
X23952Y673022D01*
X26848D01*
X29646Y673772D01*
X32154Y675220D01*
X34202Y677268D01*
X35650Y679776D01*
X36400Y682574D01*
Y685470D01*
X35650Y688268D01*
X34202Y690776D01*
X32154Y692824D01*
X29646Y694272D01*
X26848Y695022D01*
D02*
G37*
G36*
X356693Y672000D02*
X354306D01*
X352101Y671087D01*
X350413Y669399D01*
X349500Y667193D01*
Y664806D01*
X350413Y662601D01*
X352101Y660913D01*
X354306Y660000D01*
X356693D01*
X358899Y660913D01*
X360586Y662601D01*
X361500Y664806D01*
Y667193D01*
X360586Y669399D01*
X358899Y671087D01*
X356693Y672000D01*
D02*
G37*
G36*
X316693D02*
X314306D01*
X312101Y671087D01*
X310413Y669399D01*
X309500Y667193D01*
Y664806D01*
X310413Y662601D01*
X312101Y660913D01*
X314306Y660000D01*
X316693D01*
X318899Y660913D01*
X320586Y662601D01*
X321500Y664806D01*
Y667193D01*
X320586Y669399D01*
X318899Y671087D01*
X316693Y672000D01*
D02*
G37*
G36*
X276693D02*
X274306D01*
X272101Y671087D01*
X270413Y669399D01*
X269500Y667193D01*
Y664806D01*
X270413Y662601D01*
X272101Y660913D01*
X274306Y660000D01*
X276693D01*
X278899Y660913D01*
X280586Y662601D01*
X281500Y664806D01*
Y667193D01*
X280586Y669399D01*
X278899Y671087D01*
X276693Y672000D01*
D02*
G37*
G36*
X236693D02*
X234306D01*
X232101Y671087D01*
X230413Y669399D01*
X229500Y667193D01*
Y664806D01*
X230413Y662601D01*
X232101Y660913D01*
X234306Y660000D01*
X236693D01*
X238899Y660913D01*
X240586Y662601D01*
X241500Y664806D01*
Y667193D01*
X240586Y669399D01*
X238899Y671087D01*
X236693Y672000D01*
D02*
G37*
G36*
X116693D02*
X114306D01*
X112101Y671087D01*
X110413Y669399D01*
X109500Y667193D01*
Y664806D01*
X110413Y662601D01*
X112101Y660913D01*
X114306Y660000D01*
X116693D01*
X118899Y660913D01*
X120586Y662601D01*
X121500Y664806D01*
Y667193D01*
X120586Y669399D01*
X118899Y671087D01*
X116693Y672000D01*
D02*
G37*
G36*
X76693D02*
X74306D01*
X72101Y671087D01*
X70413Y669399D01*
X69500Y667193D01*
Y664806D01*
X70413Y662601D01*
X72101Y660913D01*
X74306Y660000D01*
X76693D01*
X78899Y660913D01*
X80587Y662601D01*
X81500Y664806D01*
Y667193D01*
X80587Y669399D01*
X78899Y671087D01*
X76693Y672000D01*
D02*
G37*
G36*
X26848Y669622D02*
X23952D01*
X21154Y668872D01*
X18646Y667424D01*
X16598Y665376D01*
X15150Y662868D01*
X14400Y660070D01*
Y657174D01*
X15150Y654376D01*
X16598Y651868D01*
X18646Y649820D01*
X21154Y648372D01*
X23952Y647622D01*
X26848D01*
X29646Y648372D01*
X32154Y649820D01*
X34202Y651868D01*
X35650Y654376D01*
X36400Y657174D01*
Y660070D01*
X35650Y662868D01*
X34202Y665376D01*
X32154Y667424D01*
X29646Y668872D01*
X26848Y669622D01*
D02*
G37*
G36*
X165882Y655264D02*
X162286D01*
X158811Y654333D01*
X155697Y652535D01*
X153153Y649991D01*
X151355Y646877D01*
X150424Y643402D01*
Y639806D01*
X151355Y636331D01*
X153153Y633217D01*
X155697Y630673D01*
X158811Y628875D01*
X162286Y627944D01*
X165882D01*
X169357Y628875D01*
X172471Y630673D01*
X175015Y633217D01*
X176813Y636331D01*
X177744Y639806D01*
Y643402D01*
X176813Y646877D01*
X175015Y649991D01*
X172471Y652535D01*
X169357Y654333D01*
X165882Y655264D01*
D02*
G37*
G36*
X115082D02*
X111486D01*
X108011Y654333D01*
X104897Y652535D01*
X102353Y649991D01*
X100555Y646877D01*
X99624Y643402D01*
Y639806D01*
X100555Y636331D01*
X102353Y633217D01*
X104897Y630673D01*
X108011Y628875D01*
X111486Y627944D01*
X115082D01*
X118557Y628875D01*
X121671Y630673D01*
X124215Y633217D01*
X126013Y636331D01*
X126944Y639806D01*
Y643402D01*
X126013Y646877D01*
X124215Y649991D01*
X121671Y652535D01*
X118557Y654333D01*
X115082Y655264D01*
D02*
G37*
G36*
X64282D02*
X60686D01*
X57211Y654333D01*
X54097Y652535D01*
X51553Y649991D01*
X49755Y646877D01*
X48824Y643402D01*
Y639806D01*
X49755Y636331D01*
X51553Y633217D01*
X54097Y630673D01*
X57211Y628875D01*
X60686Y627944D01*
X64282D01*
X67757Y628875D01*
X70871Y630673D01*
X73415Y633217D01*
X75213Y636331D01*
X76144Y639806D01*
Y643402D01*
X75213Y646877D01*
X73415Y649991D01*
X70871Y652535D01*
X67757Y654333D01*
X64282Y655264D01*
D02*
G37*
G36*
X336693Y632000D02*
X334306D01*
X332101Y631087D01*
X330413Y629399D01*
X329500Y627193D01*
Y624806D01*
X330413Y622601D01*
X332101Y620913D01*
X334306Y620000D01*
X336693D01*
X338899Y620913D01*
X340586Y622601D01*
X341500Y624806D01*
Y627193D01*
X340586Y629399D01*
X338899Y631087D01*
X336693Y632000D01*
D02*
G37*
G36*
X216693D02*
X214306D01*
X212101Y631087D01*
X210413Y629399D01*
X209500Y627193D01*
Y624806D01*
X210413Y622601D01*
X212101Y620913D01*
X214306Y620000D01*
X216693D01*
X218899Y620913D01*
X220586Y622601D01*
X221500Y624806D01*
Y627193D01*
X220586Y629399D01*
X218899Y631087D01*
X216693Y632000D01*
D02*
G37*
G36*
X96693D02*
X94306D01*
X92101Y631087D01*
X90413Y629399D01*
X89500Y627193D01*
Y624806D01*
X90413Y622601D01*
X92101Y620913D01*
X94306Y620000D01*
X96693D01*
X98899Y620913D01*
X100586Y622601D01*
X101500Y624806D01*
Y627193D01*
X100586Y629399D01*
X98899Y631087D01*
X96693Y632000D01*
D02*
G37*
G36*
X236693Y592000D02*
X234306D01*
X232101Y591087D01*
X230413Y589399D01*
X229500Y587193D01*
Y584807D01*
X230413Y582601D01*
X232101Y580913D01*
X234306Y580000D01*
X236693D01*
X238899Y580913D01*
X240586Y582601D01*
X241500Y584807D01*
Y587193D01*
X240586Y589399D01*
X238899Y591087D01*
X236693Y592000D01*
D02*
G37*
G36*
X196693D02*
X194306D01*
X192101Y591087D01*
X190413Y589399D01*
X189500Y587193D01*
Y584807D01*
X190413Y582601D01*
X192101Y580913D01*
X194306Y580000D01*
X196693D01*
X198899Y580913D01*
X200586Y582601D01*
X201500Y584807D01*
Y587193D01*
X200586Y589399D01*
X198899Y591087D01*
X196693Y592000D01*
D02*
G37*
G36*
X36693D02*
X34306D01*
X32101Y591087D01*
X30413Y589399D01*
X29500Y587193D01*
Y584807D01*
X30413Y582601D01*
X32101Y580913D01*
X34306Y580000D01*
X36693D01*
X38899Y580913D01*
X40587Y582601D01*
X41500Y584807D01*
Y587193D01*
X40587Y589399D01*
X38899Y591087D01*
X36693Y592000D01*
D02*
G37*
G36*
X279443Y574500D02*
X277057D01*
X274851Y573587D01*
X273163Y571899D01*
X272250Y569693D01*
Y567307D01*
X273163Y565101D01*
X274851Y563414D01*
X277057Y562500D01*
X279443D01*
X281649Y563414D01*
X283337Y565101D01*
X284250Y567307D01*
Y569693D01*
X283337Y571899D01*
X281649Y573587D01*
X279443Y574500D01*
D02*
G37*
G36*
X274751Y557434D02*
X272365D01*
X270159Y556521D01*
X268471Y554833D01*
X267558Y552627D01*
Y550241D01*
X268471Y548035D01*
X270159Y546347D01*
X272365Y545434D01*
X274751D01*
X276957Y546347D01*
X278645Y548035D01*
X279558Y550241D01*
Y552627D01*
X278645Y554833D01*
X276957Y556521D01*
X274751Y557434D01*
D02*
G37*
G36*
X216693Y552000D02*
X214306D01*
X212101Y551087D01*
X210413Y549399D01*
X209500Y547193D01*
Y544807D01*
X210413Y542601D01*
X212101Y540913D01*
X214306Y540000D01*
X216693D01*
X218899Y540913D01*
X220586Y542601D01*
X221500Y544807D01*
Y547193D01*
X220586Y549399D01*
X218899Y551087D01*
X216693Y552000D01*
D02*
G37*
G36*
X136693D02*
X134306D01*
X132101Y551087D01*
X130413Y549399D01*
X129500Y547193D01*
Y544807D01*
X130413Y542601D01*
X132101Y540913D01*
X134306Y540000D01*
X136693D01*
X138899Y540913D01*
X140586Y542601D01*
X141500Y544807D01*
Y547193D01*
X140586Y549399D01*
X138899Y551087D01*
X136693Y552000D01*
D02*
G37*
G36*
X56693D02*
X54306D01*
X52101Y551087D01*
X50413Y549399D01*
X49500Y547193D01*
Y544807D01*
X50413Y542601D01*
X52101Y540913D01*
X54306Y540000D01*
X56693D01*
X58899Y540913D01*
X60586Y542601D01*
X61500Y544807D01*
Y547193D01*
X60586Y549399D01*
X58899Y551087D01*
X56693Y552000D01*
D02*
G37*
G36*
X321741Y534320D02*
X319354D01*
X317149Y533407D01*
X315461Y531719D01*
X314548Y529514D01*
Y527127D01*
X315461Y524921D01*
X317149Y523233D01*
X319354Y522320D01*
X321741D01*
X323947Y523233D01*
X325635Y524921D01*
X326548Y527127D01*
Y529514D01*
X325635Y531719D01*
X323947Y533407D01*
X321741Y534320D01*
D02*
G37*
G36*
X196693Y512000D02*
X194306D01*
X192101Y511087D01*
X190413Y509399D01*
X189500Y507193D01*
Y504807D01*
X190413Y502601D01*
X192101Y500913D01*
X194306Y500000D01*
X196693D01*
X198899Y500913D01*
X200586Y502601D01*
X201500Y504807D01*
Y507193D01*
X200586Y509399D01*
X198899Y511087D01*
X196693Y512000D01*
D02*
G37*
G36*
X116693D02*
X114306D01*
X112101Y511087D01*
X110413Y509399D01*
X109500Y507193D01*
Y504807D01*
X110413Y502601D01*
X112101Y500913D01*
X114306Y500000D01*
X116693D01*
X118899Y500913D01*
X120586Y502601D01*
X121500Y504807D01*
Y507193D01*
X120586Y509399D01*
X118899Y511087D01*
X116693Y512000D01*
D02*
G37*
G36*
X36693D02*
X34306D01*
X32101Y511087D01*
X30413Y509399D01*
X29500Y507193D01*
Y504807D01*
X30413Y502601D01*
X32101Y500913D01*
X34306Y500000D01*
X36693D01*
X38899Y500913D01*
X40587Y502601D01*
X41500Y504807D01*
Y507193D01*
X40587Y509399D01*
X38899Y511087D01*
X36693Y512000D01*
D02*
G37*
G36*
X307878Y487880D02*
X305492D01*
X303286Y486967D01*
X301598Y485279D01*
X300685Y483074D01*
Y480686D01*
X301598Y478481D01*
X303286Y476793D01*
X305492Y475880D01*
X307878D01*
X310084Y476793D01*
X311772Y478481D01*
X312685Y480686D01*
Y483074D01*
X311772Y485279D01*
X310084Y486967D01*
X307878Y487880D01*
D02*
G37*
G36*
X56693Y472000D02*
X54306D01*
X52101Y471087D01*
X50413Y469399D01*
X49500Y467193D01*
Y464807D01*
X50413Y462601D01*
X52101Y460913D01*
X54306Y460000D01*
X56693D01*
X58899Y460913D01*
X60586Y462601D01*
X61500Y464807D01*
Y467193D01*
X60586Y469399D01*
X58899Y471087D01*
X56693Y472000D01*
D02*
G37*
G36*
X177230Y498340D02*
X173290D01*
X169426Y497571D01*
X165786Y496064D01*
X162511Y493875D01*
X159725Y491089D01*
X157536Y487813D01*
X156029Y484174D01*
X155260Y480310D01*
Y476370D01*
X156029Y472506D01*
X157536Y468866D01*
X159725Y465591D01*
X162511Y462805D01*
X165786Y460616D01*
X169426Y459109D01*
X173290Y458340D01*
X177230D01*
X181094Y459109D01*
X184734Y460616D01*
X188009Y462805D01*
X190795Y465591D01*
X192984Y468866D01*
X194491Y472506D01*
X195260Y476370D01*
Y480310D01*
X194491Y484174D01*
X192984Y487813D01*
X190795Y491089D01*
X188009Y493875D01*
X184734Y496064D01*
X181094Y497571D01*
X177230Y498340D01*
D02*
G37*
G36*
X244018Y466248D02*
X241630D01*
X239425Y465335D01*
X237737Y463647D01*
X236824Y461441D01*
Y459054D01*
X237737Y456849D01*
X239425Y455161D01*
X241630Y454248D01*
X244018D01*
X246223Y455161D01*
X247911Y456849D01*
X248824Y459054D01*
Y461441D01*
X247911Y463647D01*
X246223Y465335D01*
X244018Y466248D01*
D02*
G37*
G36*
X296341Y460152D02*
X293955D01*
X291749Y459239D01*
X290061Y457551D01*
X289148Y455345D01*
Y452958D01*
X290061Y450753D01*
X291749Y449065D01*
X293955Y448152D01*
X296341D01*
X298547Y449065D01*
X300235Y450753D01*
X301148Y452958D01*
Y455345D01*
X300235Y457551D01*
X298547Y459239D01*
X296341Y460152D01*
D02*
G37*
G36*
X274181Y448099D02*
X271794D01*
X269589Y447185D01*
X267901Y445497D01*
X266988Y443292D01*
Y440905D01*
X267901Y438700D01*
X269589Y437012D01*
X271794Y436099D01*
X274181D01*
X276387Y437012D01*
X278074Y438700D01*
X278988Y440905D01*
Y443292D01*
X278074Y445497D01*
X276387Y447185D01*
X274181Y448099D01*
D02*
G37*
G36*
X356693Y432000D02*
X354306D01*
X352101Y431087D01*
X350413Y429399D01*
X349500Y427193D01*
Y424807D01*
X350413Y422601D01*
X352101Y420913D01*
X354306Y420000D01*
X356693D01*
X358899Y420913D01*
X360586Y422601D01*
X361500Y424807D01*
Y427193D01*
X360586Y429399D01*
X358899Y431087D01*
X356693Y432000D01*
D02*
G37*
G36*
X36693D02*
X34306D01*
X32101Y431087D01*
X30413Y429399D01*
X29500Y427193D01*
Y424807D01*
X30413Y422601D01*
X32101Y420913D01*
X34306Y420000D01*
X36693D01*
X38899Y420913D01*
X40587Y422601D01*
X41500Y424807D01*
Y427193D01*
X40587Y429399D01*
X38899Y431087D01*
X36693Y432000D01*
D02*
G37*
G36*
X187282Y432590D02*
X183638D01*
X180064Y431879D01*
X176697Y430485D01*
X173667Y428460D01*
X171090Y425883D01*
X169065Y422853D01*
X167671Y419486D01*
X166960Y415912D01*
Y412268D01*
X167671Y408694D01*
X169065Y405327D01*
X171090Y402297D01*
X173667Y399720D01*
X176697Y397696D01*
X180064Y396301D01*
X183638Y395590D01*
X187282D01*
X190856Y396301D01*
X194223Y397696D01*
X197253Y399720D01*
X199830Y402297D01*
X201854Y405327D01*
X203249Y408694D01*
X203960Y412268D01*
Y415912D01*
X203249Y419486D01*
X201854Y422853D01*
X199830Y425883D01*
X197253Y428460D01*
X194223Y430485D01*
X190856Y431879D01*
X187282Y432590D01*
D02*
G37*
G36*
X123782D02*
X120138D01*
X116564Y431879D01*
X113197Y430485D01*
X110167Y428460D01*
X107590Y425883D01*
X105566Y422853D01*
X104171Y419486D01*
X103460Y415912D01*
Y412268D01*
X104171Y408694D01*
X105566Y405327D01*
X107590Y402297D01*
X110167Y399720D01*
X113197Y397696D01*
X116564Y396301D01*
X120138Y395590D01*
X123782D01*
X127356Y396301D01*
X130723Y397696D01*
X133753Y399720D01*
X136330Y402297D01*
X138355Y405327D01*
X139749Y408694D01*
X140460Y412268D01*
Y415912D01*
X139749Y419486D01*
X138355Y422853D01*
X136330Y425883D01*
X133753Y428460D01*
X130723Y430485D01*
X127356Y431879D01*
X123782Y432590D01*
D02*
G37*
G36*
X56693Y392000D02*
X54306D01*
X52101Y391087D01*
X50413Y389399D01*
X49500Y387193D01*
Y384807D01*
X50413Y382601D01*
X52101Y380913D01*
X54306Y380000D01*
X56693D01*
X58899Y380913D01*
X60586Y382601D01*
X61500Y384807D01*
Y387193D01*
X60586Y389399D01*
X58899Y391087D01*
X56693Y392000D01*
D02*
G37*
G36*
X328806Y388394D02*
X326419D01*
X324214Y387481D01*
X322526Y385793D01*
X321613Y383587D01*
Y381200D01*
X322526Y378995D01*
X324214Y377307D01*
X326419Y376394D01*
X328806D01*
X331011Y377307D01*
X332699Y378995D01*
X333613Y381200D01*
Y383587D01*
X332699Y385793D01*
X331011Y387481D01*
X328806Y388394D01*
D02*
G37*
G36*
X223270Y388350D02*
X220882D01*
X218677Y387437D01*
X216989Y385749D01*
X216076Y383544D01*
Y381157D01*
X216989Y378951D01*
X218677Y377263D01*
X220882Y376350D01*
X223270D01*
X225475Y377263D01*
X227163Y378951D01*
X228076Y381157D01*
Y383544D01*
X227163Y385749D01*
X225475Y387437D01*
X223270Y388350D01*
D02*
G37*
G36*
X187282Y388090D02*
X183638D01*
X180064Y387379D01*
X176697Y385984D01*
X173667Y383960D01*
X171090Y381383D01*
X169065Y378353D01*
X167671Y374986D01*
X166960Y371412D01*
Y367768D01*
X167671Y364194D01*
X169065Y360827D01*
X171090Y357797D01*
X173667Y355220D01*
X176697Y353195D01*
X180064Y351801D01*
X183638Y351090D01*
X187282D01*
X190856Y351801D01*
X194223Y353195D01*
X197253Y355220D01*
X199830Y357797D01*
X201854Y360827D01*
X203249Y364194D01*
X203960Y367768D01*
Y371412D01*
X203249Y374986D01*
X201854Y378353D01*
X199830Y381383D01*
X197253Y383960D01*
X194223Y385984D01*
X190856Y387379D01*
X187282Y388090D01*
D02*
G37*
G36*
X123782D02*
X120138D01*
X116564Y387379D01*
X113197Y385984D01*
X110167Y383960D01*
X107590Y381383D01*
X105566Y378353D01*
X104171Y374986D01*
X103460Y371412D01*
Y367768D01*
X104171Y364194D01*
X105566Y360827D01*
X107590Y357797D01*
X110167Y355220D01*
X113197Y353195D01*
X116564Y351801D01*
X120138Y351090D01*
X123782D01*
X127356Y351801D01*
X130723Y353195D01*
X133753Y355220D01*
X136330Y357797D01*
X138355Y360827D01*
X139749Y364194D01*
X140460Y367768D01*
Y371412D01*
X139749Y374986D01*
X138355Y378353D01*
X136330Y381383D01*
X133753Y383960D01*
X130723Y385984D01*
X127356Y387379D01*
X123782Y388090D01*
D02*
G37*
G36*
X356693Y352000D02*
X354306D01*
X352101Y351087D01*
X350413Y349399D01*
X349500Y347193D01*
Y344807D01*
X350413Y342601D01*
X352101Y340913D01*
X354306Y340000D01*
X356693D01*
X358899Y340913D01*
X360586Y342601D01*
X361500Y344807D01*
Y347193D01*
X360586Y349399D01*
X358899Y351087D01*
X356693Y352000D01*
D02*
G37*
G36*
X316693D02*
X314306D01*
X312101Y351087D01*
X310413Y349399D01*
X309500Y347193D01*
Y344807D01*
X310413Y342601D01*
X312101Y340913D01*
X314306Y340000D01*
X316693D01*
X318899Y340913D01*
X320586Y342601D01*
X321500Y344807D01*
Y347193D01*
X320586Y349399D01*
X318899Y351087D01*
X316693Y352000D01*
D02*
G37*
G36*
X156693D02*
X154306D01*
X152101Y351087D01*
X150413Y349399D01*
X149500Y347193D01*
Y344807D01*
X150413Y342601D01*
X152101Y340913D01*
X154306Y340000D01*
X156693D01*
X158899Y340913D01*
X160586Y342601D01*
X161500Y344807D01*
Y347193D01*
X160586Y349399D01*
X158899Y351087D01*
X156693Y352000D01*
D02*
G37*
G36*
X36693D02*
X34306D01*
X32101Y351087D01*
X30413Y349399D01*
X29500Y347193D01*
Y344807D01*
X30413Y342601D01*
X32101Y340913D01*
X34306Y340000D01*
X36693D01*
X38899Y340913D01*
X40587Y342601D01*
X41500Y344807D01*
Y347193D01*
X40587Y349399D01*
X38899Y351087D01*
X36693Y352000D01*
D02*
G37*
G36*
X187282Y343590D02*
X183638D01*
X180064Y342879D01*
X176697Y341484D01*
X173667Y339460D01*
X171090Y336883D01*
X169065Y333853D01*
X167671Y330486D01*
X166960Y326912D01*
Y323268D01*
X167671Y319694D01*
X169065Y316327D01*
X171090Y313297D01*
X173667Y310720D01*
X176697Y308696D01*
X180064Y307301D01*
X183638Y306590D01*
X187282D01*
X190856Y307301D01*
X194223Y308696D01*
X197253Y310720D01*
X199830Y313297D01*
X201854Y316327D01*
X203249Y319694D01*
X203960Y323268D01*
Y326912D01*
X203249Y330486D01*
X201854Y333853D01*
X199830Y336883D01*
X197253Y339460D01*
X194223Y341484D01*
X190856Y342879D01*
X187282Y343590D01*
D02*
G37*
G36*
X123782D02*
X120138D01*
X116564Y342879D01*
X113197Y341484D01*
X110167Y339460D01*
X107590Y336883D01*
X105566Y333853D01*
X104171Y330486D01*
X103460Y326912D01*
Y323268D01*
X104171Y319694D01*
X105566Y316327D01*
X107590Y313297D01*
X110167Y310720D01*
X113197Y308696D01*
X116564Y307301D01*
X120138Y306590D01*
X123782D01*
X127356Y307301D01*
X130723Y308696D01*
X133753Y310720D01*
X136330Y313297D01*
X138355Y316327D01*
X139749Y319694D01*
X140460Y323268D01*
Y326912D01*
X139749Y330486D01*
X138355Y333853D01*
X136330Y336883D01*
X133753Y339460D01*
X130723Y341484D01*
X127356Y342879D01*
X123782Y343590D01*
D02*
G37*
G36*
X336693Y312000D02*
X334306D01*
X332101Y311087D01*
X330413Y309399D01*
X329500Y307193D01*
Y304806D01*
X330413Y302601D01*
X332101Y300913D01*
X334306Y300000D01*
X336693D01*
X338899Y300913D01*
X340586Y302601D01*
X341500Y304806D01*
Y307193D01*
X340586Y309399D01*
X338899Y311087D01*
X336693Y312000D01*
D02*
G37*
G36*
X296693D02*
X294306D01*
X292101Y311087D01*
X290413Y309399D01*
X289500Y307193D01*
Y304806D01*
X290413Y302601D01*
X292101Y300913D01*
X294306Y300000D01*
X296693D01*
X298899Y300913D01*
X300586Y302601D01*
X301500Y304806D01*
Y307193D01*
X300586Y309399D01*
X298899Y311087D01*
X296693Y312000D01*
D02*
G37*
G36*
X256693D02*
X254306D01*
X252101Y311087D01*
X250413Y309399D01*
X249500Y307193D01*
Y304806D01*
X250413Y302601D01*
X252101Y300913D01*
X254306Y300000D01*
X256693D01*
X258899Y300913D01*
X260586Y302601D01*
X261500Y304806D01*
Y307193D01*
X260586Y309399D01*
X258899Y311087D01*
X256693Y312000D01*
D02*
G37*
G36*
X216693D02*
X214306D01*
X212101Y311087D01*
X210413Y309399D01*
X209500Y307193D01*
Y304806D01*
X210413Y302601D01*
X212101Y300913D01*
X214306Y300000D01*
X216693D01*
X218899Y300913D01*
X220586Y302601D01*
X221500Y304806D01*
Y307193D01*
X220586Y309399D01*
X218899Y311087D01*
X216693Y312000D01*
D02*
G37*
G36*
X62930Y322940D02*
X58990D01*
X55126Y322171D01*
X51487Y320664D01*
X48211Y318475D01*
X45425Y315689D01*
X43236Y312414D01*
X41729Y308774D01*
X40960Y304910D01*
Y300970D01*
X41729Y297106D01*
X43236Y293466D01*
X45425Y290191D01*
X48211Y287405D01*
X51487Y285216D01*
X55126Y283709D01*
X58990Y282940D01*
X62930D01*
X66794Y283709D01*
X70434Y285216D01*
X73709Y287405D01*
X76495Y290191D01*
X78684Y293466D01*
X80191Y297106D01*
X80960Y300970D01*
Y304910D01*
X80191Y308774D01*
X78684Y312414D01*
X76495Y315689D01*
X73709Y318475D01*
X70434Y320664D01*
X66794Y322171D01*
X62930Y322940D01*
D02*
G37*
G36*
X187282Y299090D02*
X183638D01*
X180064Y298379D01*
X176697Y296985D01*
X173667Y294960D01*
X171090Y292383D01*
X169065Y289353D01*
X167671Y285986D01*
X166960Y282412D01*
Y278768D01*
X167671Y275194D01*
X169065Y271827D01*
X171090Y268797D01*
X173667Y266220D01*
X176697Y264195D01*
X180064Y262801D01*
X183638Y262090D01*
X187282D01*
X190856Y262801D01*
X194223Y264195D01*
X197253Y266220D01*
X199830Y268797D01*
X201854Y271827D01*
X203249Y275194D01*
X203960Y278768D01*
Y282412D01*
X203249Y285986D01*
X201854Y289353D01*
X199830Y292383D01*
X197253Y294960D01*
X194223Y296985D01*
X190856Y298379D01*
X187282Y299090D01*
D02*
G37*
G36*
X123782D02*
X120138D01*
X116564Y298379D01*
X113197Y296985D01*
X110167Y294960D01*
X107590Y292383D01*
X105566Y289353D01*
X104171Y285986D01*
X103460Y282412D01*
Y278768D01*
X104171Y275194D01*
X105566Y271827D01*
X107590Y268797D01*
X110167Y266220D01*
X113197Y264195D01*
X116564Y262801D01*
X120138Y262090D01*
X123782D01*
X127356Y262801D01*
X130723Y264195D01*
X133753Y266220D01*
X136330Y268797D01*
X138355Y271827D01*
X139749Y275194D01*
X140460Y278768D01*
Y282412D01*
X139749Y285986D01*
X138355Y289353D01*
X136330Y292383D01*
X133753Y294960D01*
X130723Y296985D01*
X127356Y298379D01*
X123782Y299090D01*
D02*
G37*
G36*
X356693Y272000D02*
X354306D01*
X352101Y271087D01*
X350413Y269399D01*
X349500Y267193D01*
Y264806D01*
X350413Y262601D01*
X352101Y260913D01*
X354306Y260000D01*
X356693D01*
X358899Y260913D01*
X360586Y262601D01*
X361500Y264806D01*
Y267193D01*
X360586Y269399D01*
X358899Y271087D01*
X356693Y272000D01*
D02*
G37*
G36*
X316693D02*
X314306D01*
X312101Y271087D01*
X310413Y269399D01*
X309500Y267193D01*
Y264806D01*
X310413Y262601D01*
X312101Y260913D01*
X314306Y260000D01*
X316693D01*
X318899Y260913D01*
X320586Y262601D01*
X321500Y264806D01*
Y267193D01*
X320586Y269399D01*
X318899Y271087D01*
X316693Y272000D01*
D02*
G37*
G36*
X236693D02*
X234306D01*
X232101Y271087D01*
X230413Y269399D01*
X229500Y267193D01*
Y264806D01*
X230413Y262601D01*
X232101Y260913D01*
X234306Y260000D01*
X236693D01*
X238899Y260913D01*
X240586Y262601D01*
X241500Y264806D01*
Y267193D01*
X240586Y269399D01*
X238899Y271087D01*
X236693Y272000D01*
D02*
G37*
G36*
X156693D02*
X154306D01*
X152101Y271087D01*
X150413Y269399D01*
X149500Y267193D01*
Y264806D01*
X150413Y262601D01*
X152101Y260913D01*
X154306Y260000D01*
X156693D01*
X158899Y260913D01*
X160586Y262601D01*
X161500Y264806D01*
Y267193D01*
X160586Y269399D01*
X158899Y271087D01*
X156693Y272000D01*
D02*
G37*
G36*
X36693D02*
X34306D01*
X32101Y271087D01*
X30413Y269399D01*
X29500Y267193D01*
Y264806D01*
X30413Y262601D01*
X32101Y260913D01*
X34306Y260000D01*
X36693D01*
X38899Y260913D01*
X40587Y262601D01*
X41500Y264806D01*
Y267193D01*
X40587Y269399D01*
X38899Y271087D01*
X36693Y272000D01*
D02*
G37*
G36*
X296693Y232000D02*
X294306D01*
X292101Y231087D01*
X290413Y229399D01*
X289500Y227193D01*
Y224806D01*
X290413Y222601D01*
X292101Y220913D01*
X294306Y220000D01*
X296693D01*
X298899Y220913D01*
X300586Y222601D01*
X301500Y224806D01*
Y227193D01*
X300586Y229399D01*
X298899Y231087D01*
X296693Y232000D01*
D02*
G37*
G36*
X256693D02*
X254306D01*
X252101Y231087D01*
X250413Y229399D01*
X249500Y227193D01*
Y224806D01*
X250413Y222601D01*
X252101Y220913D01*
X254306Y220000D01*
X256693D01*
X258899Y220913D01*
X260586Y222601D01*
X261500Y224806D01*
Y227193D01*
X260586Y229399D01*
X258899Y231087D01*
X256693Y232000D01*
D02*
G37*
G36*
X56693D02*
X54306D01*
X52101Y231087D01*
X50413Y229399D01*
X49500Y227193D01*
Y224806D01*
X50413Y222601D01*
X52101Y220913D01*
X54306Y220000D01*
X56693D01*
X58899Y220913D01*
X60586Y222601D01*
X61500Y224806D01*
Y227193D01*
X60586Y229399D01*
X58899Y231087D01*
X56693Y232000D01*
D02*
G37*
G36*
X187282Y254590D02*
X183638D01*
X180064Y253879D01*
X176697Y252484D01*
X173667Y250460D01*
X171090Y247883D01*
X169065Y244853D01*
X167671Y241486D01*
X166960Y237912D01*
Y234268D01*
X167671Y230694D01*
X169065Y227327D01*
X171090Y224297D01*
X173667Y221720D01*
X176697Y219695D01*
X180064Y218301D01*
X183638Y217590D01*
X187282D01*
X190856Y218301D01*
X194223Y219695D01*
X197253Y221720D01*
X199830Y224297D01*
X201854Y227327D01*
X203249Y230694D01*
X203960Y234268D01*
Y237912D01*
X203249Y241486D01*
X201854Y244853D01*
X199830Y247883D01*
X197253Y250460D01*
X194223Y252484D01*
X190856Y253879D01*
X187282Y254590D01*
D02*
G37*
G36*
X123782D02*
X120138D01*
X116564Y253879D01*
X113197Y252484D01*
X110167Y250460D01*
X107590Y247883D01*
X105566Y244853D01*
X104171Y241486D01*
X103460Y237912D01*
Y234268D01*
X104171Y230694D01*
X105566Y227327D01*
X107590Y224297D01*
X110167Y221720D01*
X113197Y219695D01*
X116564Y218301D01*
X120138Y217590D01*
X123782D01*
X127356Y218301D01*
X130723Y219695D01*
X133753Y221720D01*
X136330Y224297D01*
X138355Y227327D01*
X139749Y230694D01*
X140460Y234268D01*
Y237912D01*
X139749Y241486D01*
X138355Y244853D01*
X136330Y247883D01*
X133753Y250460D01*
X130723Y252484D01*
X127356Y253879D01*
X123782Y254590D01*
D02*
G37*
G36*
X76693Y192000D02*
X74306D01*
X72101Y191087D01*
X70413Y189399D01*
X69500Y187193D01*
Y184806D01*
X70413Y182601D01*
X72101Y180913D01*
X74306Y180000D01*
X76693D01*
X78899Y180913D01*
X80587Y182601D01*
X81500Y184806D01*
Y187193D01*
X80587Y189399D01*
X78899Y191087D01*
X76693Y192000D01*
D02*
G37*
G36*
X36693D02*
X34306D01*
X32101Y191087D01*
X30413Y189399D01*
X29500Y187193D01*
Y184806D01*
X30413Y182601D01*
X32101Y180913D01*
X34306Y180000D01*
X36693D01*
X38899Y180913D01*
X40587Y182601D01*
X41500Y184806D01*
Y187193D01*
X40587Y189399D01*
X38899Y191087D01*
X36693Y192000D01*
D02*
G37*
G36*
X203960Y210090D02*
X166960D01*
Y173090D01*
X203960D01*
Y210090D01*
D02*
G37*
G36*
X123782D02*
X120138D01*
X116564Y209379D01*
X113197Y207985D01*
X110167Y205960D01*
X107590Y203383D01*
X105566Y200353D01*
X104171Y196986D01*
X103460Y193412D01*
Y189768D01*
X104171Y186194D01*
X105566Y182827D01*
X107590Y179797D01*
X110167Y177220D01*
X113197Y175196D01*
X116564Y173801D01*
X120138Y173090D01*
X123782D01*
X127356Y173801D01*
X130723Y175196D01*
X133753Y177220D01*
X136330Y179797D01*
X138355Y182827D01*
X139749Y186194D01*
X140460Y189768D01*
Y193412D01*
X139749Y196986D01*
X138355Y200353D01*
X136330Y203383D01*
X133753Y205960D01*
X130723Y207985D01*
X127356Y209379D01*
X123782Y210090D01*
D02*
G37*
G36*
X656693Y152000D02*
X654306D01*
X652101Y151087D01*
X650413Y149399D01*
X649500Y147193D01*
Y144806D01*
X650413Y142601D01*
X652101Y140913D01*
X654306Y140000D01*
X656693D01*
X658899Y140913D01*
X660586Y142601D01*
X661500Y144806D01*
Y147193D01*
X660586Y149399D01*
X658899Y151087D01*
X656693Y152000D01*
D02*
G37*
G36*
X616693D02*
X614306D01*
X612101Y151087D01*
X610413Y149399D01*
X609500Y147193D01*
Y144806D01*
X610413Y142601D01*
X612101Y140913D01*
X614306Y140000D01*
X616693D01*
X618899Y140913D01*
X620586Y142601D01*
X621500Y144806D01*
Y147193D01*
X620586Y149399D01*
X618899Y151087D01*
X616693Y152000D01*
D02*
G37*
G36*
X496693D02*
X494306D01*
X492101Y151087D01*
X490413Y149399D01*
X489500Y147193D01*
Y144806D01*
X490413Y142601D01*
X492101Y140913D01*
X494306Y140000D01*
X496693D01*
X498899Y140913D01*
X500586Y142601D01*
X501500Y144806D01*
Y147193D01*
X500586Y149399D01*
X498899Y151087D01*
X496693Y152000D01*
D02*
G37*
G36*
X416693D02*
X414306D01*
X412101Y151087D01*
X410413Y149399D01*
X409500Y147193D01*
Y144806D01*
X410413Y142601D01*
X412101Y140913D01*
X414306Y140000D01*
X416693D01*
X418899Y140913D01*
X420586Y142601D01*
X421500Y144806D01*
Y147193D01*
X420586Y149399D01*
X418899Y151087D01*
X416693Y152000D01*
D02*
G37*
G36*
X376693D02*
X374306D01*
X372101Y151087D01*
X370413Y149399D01*
X369500Y147193D01*
Y144806D01*
X370413Y142601D01*
X372101Y140913D01*
X374306Y140000D01*
X376693D01*
X378899Y140913D01*
X380586Y142601D01*
X381500Y144806D01*
Y147193D01*
X380586Y149399D01*
X378899Y151087D01*
X376693Y152000D01*
D02*
G37*
G36*
X96693D02*
X94306D01*
X92101Y151087D01*
X90413Y149399D01*
X89500Y147193D01*
Y144806D01*
X90413Y142601D01*
X92101Y140913D01*
X94306Y140000D01*
X96693D01*
X98899Y140913D01*
X100586Y142601D01*
X101500Y144806D01*
Y147193D01*
X100586Y149399D01*
X98899Y151087D01*
X96693Y152000D01*
D02*
G37*
G36*
X56693D02*
X54306D01*
X52101Y151087D01*
X50413Y149399D01*
X49500Y147193D01*
Y144806D01*
X50413Y142601D01*
X52101Y140913D01*
X54306Y140000D01*
X56693D01*
X58899Y140913D01*
X60586Y142601D01*
X61500Y144806D01*
Y147193D01*
X60586Y149399D01*
X58899Y151087D01*
X56693Y152000D01*
D02*
G37*
G36*
X177230Y147540D02*
X173290D01*
X169426Y146771D01*
X165786Y145264D01*
X162511Y143075D01*
X159725Y140289D01*
X157536Y137014D01*
X156029Y133374D01*
X155260Y129510D01*
Y125570D01*
X156029Y121706D01*
X157536Y118066D01*
X159725Y114791D01*
X162511Y112005D01*
X165786Y109816D01*
X169426Y108309D01*
X173290Y107540D01*
X177230D01*
X181094Y108309D01*
X184734Y109816D01*
X188009Y112005D01*
X190795Y114791D01*
X192984Y118066D01*
X194491Y121706D01*
X195260Y125570D01*
Y129510D01*
X194491Y133374D01*
X192984Y137014D01*
X190795Y140289D01*
X188009Y143075D01*
X184734Y145264D01*
X181094Y146771D01*
X177230Y147540D01*
D02*
G37*
G36*
X636693Y112000D02*
X634306D01*
X632101Y111087D01*
X630413Y109399D01*
X629500Y107193D01*
Y104806D01*
X630413Y102601D01*
X632101Y100913D01*
X634306Y100000D01*
X636693D01*
X638899Y100913D01*
X640586Y102601D01*
X641500Y104806D01*
Y107193D01*
X640586Y109399D01*
X638899Y111087D01*
X636693Y112000D01*
D02*
G37*
G36*
X596693D02*
X594306D01*
X592101Y111087D01*
X590413Y109399D01*
X589500Y107193D01*
Y104806D01*
X590413Y102601D01*
X592101Y100913D01*
X594306Y100000D01*
X596693D01*
X598899Y100913D01*
X600586Y102601D01*
X601500Y104806D01*
Y107193D01*
X600586Y109399D01*
X598899Y111087D01*
X596693Y112000D01*
D02*
G37*
G36*
X436693D02*
X434306D01*
X432101Y111087D01*
X430413Y109399D01*
X429500Y107193D01*
Y104806D01*
X430413Y102601D01*
X432101Y100913D01*
X434306Y100000D01*
X436693D01*
X438899Y100913D01*
X440586Y102601D01*
X441500Y104806D01*
Y107193D01*
X440586Y109399D01*
X438899Y111087D01*
X436693Y112000D01*
D02*
G37*
G36*
X396693D02*
X394306D01*
X392101Y111087D01*
X390413Y109399D01*
X389500Y107193D01*
Y104806D01*
X390413Y102601D01*
X392101Y100913D01*
X394306Y100000D01*
X396693D01*
X398899Y100913D01*
X400586Y102601D01*
X401500Y104806D01*
Y107193D01*
X400586Y109399D01*
X398899Y111087D01*
X396693Y112000D01*
D02*
G37*
G36*
X276693D02*
X274306D01*
X272101Y111087D01*
X270413Y109399D01*
X269500Y107193D01*
Y104806D01*
X270413Y102601D01*
X272101Y100913D01*
X274306Y100000D01*
X276693D01*
X278899Y100913D01*
X280586Y102601D01*
X281500Y104806D01*
Y107193D01*
X280586Y109399D01*
X278899Y111087D01*
X276693Y112000D01*
D02*
G37*
G36*
X236693D02*
X234306D01*
X232101Y111087D01*
X230413Y109399D01*
X229500Y107193D01*
Y104806D01*
X230413Y102601D01*
X232101Y100913D01*
X234306Y100000D01*
X236693D01*
X238899Y100913D01*
X240586Y102601D01*
X241500Y104806D01*
Y107193D01*
X240586Y109399D01*
X238899Y111087D01*
X236693Y112000D01*
D02*
G37*
G36*
X196693D02*
X194306D01*
X192101Y111087D01*
X190413Y109399D01*
X189500Y107193D01*
Y104806D01*
X190413Y102601D01*
X192101Y100913D01*
X194306Y100000D01*
X196693D01*
X198899Y100913D01*
X200586Y102601D01*
X201500Y104806D01*
Y107193D01*
X200586Y109399D01*
X198899Y111087D01*
X196693Y112000D01*
D02*
G37*
G36*
X156693D02*
X154306D01*
X152101Y111087D01*
X150413Y109399D01*
X149500Y107193D01*
Y104806D01*
X150413Y102601D01*
X152101Y100913D01*
X154306Y100000D01*
X156693D01*
X158899Y100913D01*
X160586Y102601D01*
X161500Y104806D01*
Y107193D01*
X160586Y109399D01*
X158899Y111087D01*
X156693Y112000D01*
D02*
G37*
G36*
X76693D02*
X74306D01*
X72101Y111087D01*
X70413Y109399D01*
X69500Y107193D01*
Y104806D01*
X70413Y102601D01*
X72101Y100913D01*
X74306Y100000D01*
X76693D01*
X78899Y100913D01*
X80587Y102601D01*
X81500Y104806D01*
Y107193D01*
X80587Y109399D01*
X78899Y111087D01*
X76693Y112000D01*
D02*
G37*
G36*
X36693D02*
X34306D01*
X32101Y111087D01*
X30413Y109399D01*
X29500Y107193D01*
Y104806D01*
X30413Y102601D01*
X32101Y100913D01*
X34306Y100000D01*
X36693D01*
X38899Y100913D01*
X40587Y102601D01*
X41500Y104806D01*
Y107193D01*
X40587Y109399D01*
X38899Y111087D01*
X36693Y112000D01*
D02*
G37*
G36*
X616693Y72000D02*
X614306D01*
X612101Y71087D01*
X610413Y69399D01*
X609500Y67193D01*
Y64806D01*
X610413Y62601D01*
X612101Y60913D01*
X614306Y60000D01*
X616693D01*
X618899Y60913D01*
X620586Y62601D01*
X621500Y64806D01*
Y67193D01*
X620586Y69399D01*
X618899Y71087D01*
X616693Y72000D01*
D02*
G37*
G36*
X536693D02*
X534306D01*
X532101Y71087D01*
X530413Y69399D01*
X529500Y67193D01*
Y64806D01*
X530413Y62601D01*
X532101Y60913D01*
X534306Y60000D01*
X536693D01*
X538899Y60913D01*
X540586Y62601D01*
X541500Y64806D01*
Y67193D01*
X540586Y69399D01*
X538899Y71087D01*
X536693Y72000D01*
D02*
G37*
G36*
X488500Y107500D02*
X464000D01*
Y83000D01*
X473089D01*
X473256Y81730D01*
X471522Y81265D01*
X468728Y79652D01*
X466448Y77372D01*
X464835Y74578D01*
X464000Y71463D01*
Y68237D01*
X464835Y65122D01*
X466448Y62328D01*
X468728Y60048D01*
X471522Y58435D01*
X474637Y57600D01*
X477863D01*
X480978Y58435D01*
X483772Y60048D01*
X486052Y62328D01*
X487665Y65122D01*
X488086Y66693D01*
X488230Y66770D01*
X489020Y66448D01*
X489500Y66009D01*
Y64806D01*
X490413Y62601D01*
X492101Y60913D01*
X494306Y60000D01*
X496693D01*
X498899Y60913D01*
X500586Y62601D01*
X501500Y64806D01*
Y67193D01*
X500586Y69399D01*
X498899Y71087D01*
X496693Y72000D01*
X494306D01*
X492101Y71087D01*
X490413Y69399D01*
X489980Y68353D01*
X488555Y68191D01*
X488500Y68268D01*
X488500Y68237D01*
X488538Y68189D01*
X488500Y68237D01*
X488500Y68777D01*
Y71463D01*
X487665Y74578D01*
X486052Y77372D01*
X483772Y79652D01*
X480978Y81265D01*
X479244Y81730D01*
X479411Y83000D01*
X488500D01*
Y107500D01*
D02*
G37*
G36*
X456693Y72000D02*
X454306D01*
X452101Y71087D01*
X450413Y69399D01*
X449500Y67193D01*
Y64806D01*
X450413Y62601D01*
X452101Y60913D01*
X454306Y60000D01*
X456693D01*
X458899Y60913D01*
X460586Y62601D01*
X461500Y64806D01*
Y67193D01*
X460586Y69399D01*
X458899Y71087D01*
X456693Y72000D01*
D02*
G37*
G36*
X416693D02*
X414306D01*
X412101Y71087D01*
X410413Y69399D01*
X409500Y67193D01*
Y64806D01*
X410413Y62601D01*
X412101Y60913D01*
X414306Y60000D01*
X416693D01*
X418899Y60913D01*
X420586Y62601D01*
X421500Y64806D01*
Y67193D01*
X420586Y69399D01*
X418899Y71087D01*
X416693Y72000D01*
D02*
G37*
G36*
X296693D02*
X294306D01*
X292101Y71087D01*
X290413Y69399D01*
X289500Y67193D01*
Y64806D01*
X290413Y62601D01*
X292101Y60913D01*
X294306Y60000D01*
X296693D01*
X298899Y60913D01*
X300586Y62601D01*
X301500Y64806D01*
Y67193D01*
X300586Y69399D01*
X298899Y71087D01*
X296693Y72000D01*
D02*
G37*
G36*
X216693D02*
X214306D01*
X212101Y71087D01*
X210413Y69399D01*
X209500Y67193D01*
Y64806D01*
X210413Y62601D01*
X212101Y60913D01*
X214306Y60000D01*
X216693D01*
X218899Y60913D01*
X220586Y62601D01*
X221500Y64806D01*
Y67193D01*
X220586Y69399D01*
X218899Y71087D01*
X216693Y72000D01*
D02*
G37*
G36*
X136693D02*
X134306D01*
X132101Y71087D01*
X130413Y69399D01*
X129500Y67193D01*
Y64806D01*
X130413Y62601D01*
X132101Y60913D01*
X134306Y60000D01*
X136693D01*
X138899Y60913D01*
X140586Y62601D01*
X141500Y64806D01*
Y67193D01*
X140586Y69399D01*
X138899Y71087D01*
X136693Y72000D01*
D02*
G37*
G36*
X96693D02*
X94306D01*
X92101Y71087D01*
X90413Y69399D01*
X89500Y67193D01*
Y64806D01*
X90413Y62601D01*
X92101Y60913D01*
X94306Y60000D01*
X96693D01*
X98899Y60913D01*
X100586Y62601D01*
X101500Y64806D01*
Y67193D01*
X100586Y69399D01*
X98899Y71087D01*
X96693Y72000D01*
D02*
G37*
G36*
X56693D02*
X54306D01*
X52101Y71087D01*
X50413Y69399D01*
X49500Y67193D01*
Y64806D01*
X50413Y62601D01*
X52101Y60913D01*
X54306Y60000D01*
X56693D01*
X58899Y60913D01*
X60586Y62601D01*
X61500Y64806D01*
Y67193D01*
X60586Y69399D01*
X58899Y71087D01*
X56693Y72000D01*
D02*
G37*
G36*
X479250Y55334D02*
Y47450D01*
X487134D01*
X486771Y48808D01*
X485284Y51382D01*
X483182Y53484D01*
X480608Y54971D01*
X479250Y55334D01*
D02*
G37*
G36*
X473250D02*
X471892Y54971D01*
X469318Y53484D01*
X467216Y51382D01*
X465729Y48808D01*
X465366Y47450D01*
X473250D01*
Y55334D01*
D02*
G37*
G36*
X676693Y112000D02*
X674306D01*
X672101Y111087D01*
X670413Y109399D01*
X669500Y107193D01*
Y104806D01*
X670413Y102601D01*
X672061Y100954D01*
X672056Y100690D01*
X671846Y99644D01*
X666995Y99006D01*
X661487Y97530D01*
X656219Y95348D01*
X651281Y92497D01*
X646757Y89025D01*
X642725Y84993D01*
X639254Y80469D01*
X636402Y75531D01*
X634220Y70263D01*
X632744Y64755D01*
X632000Y59101D01*
Y53399D01*
X632744Y47745D01*
X634220Y42237D01*
X636402Y36969D01*
X639039Y32403D01*
X638156Y31394D01*
X636693Y32000D01*
X634306D01*
X632101Y31086D01*
X630413Y29399D01*
X629500Y27193D01*
Y24806D01*
X630413Y22601D01*
X632101Y20913D01*
X634306Y20000D01*
X636693D01*
X638899Y20913D01*
X640586Y22601D01*
X641500Y24806D01*
Y27017D01*
X641968Y27345D01*
X642673Y27574D01*
X642725Y27507D01*
X646757Y23475D01*
X651281Y20003D01*
X656219Y17152D01*
X661487Y14970D01*
X666995Y13494D01*
X672649Y12750D01*
X678351D01*
X684005Y13494D01*
X689513Y14970D01*
X694781Y17152D01*
X699719Y20003D01*
X704243Y23475D01*
X708275Y27507D01*
X711747Y32031D01*
X714598Y36969D01*
X716780Y42237D01*
X718256Y47745D01*
X719000Y53399D01*
Y59101D01*
X718256Y64755D01*
X716780Y70263D01*
X714598Y75531D01*
X711747Y80469D01*
X708275Y84993D01*
X704243Y89025D01*
X699719Y92497D01*
X694781Y95348D01*
X689513Y97530D01*
X684005Y99006D01*
X679154Y99644D01*
X678943Y100690D01*
X678939Y100954D01*
X680586Y102601D01*
X681500Y104806D01*
Y107193D01*
X680586Y109399D01*
X678899Y111087D01*
X676693Y112000D01*
D02*
G37*
G36*
X596693Y32000D02*
X594306D01*
X592101Y31086D01*
X590413Y29399D01*
X589500Y27193D01*
Y24806D01*
X590413Y22601D01*
X592101Y20913D01*
X594306Y20000D01*
X596693D01*
X598899Y20913D01*
X600586Y22601D01*
X601500Y24806D01*
Y27193D01*
X600586Y29399D01*
X598899Y31086D01*
X596693Y32000D01*
D02*
G37*
G36*
X556693D02*
X554306D01*
X552101Y31086D01*
X550413Y29399D01*
X549500Y27193D01*
Y24806D01*
X550413Y22601D01*
X552101Y20913D01*
X554306Y20000D01*
X556693D01*
X558899Y20913D01*
X560586Y22601D01*
X561500Y24806D01*
Y27193D01*
X560586Y29399D01*
X558899Y31086D01*
X556693Y32000D01*
D02*
G37*
G36*
X516693D02*
X514306D01*
X512101Y31086D01*
X510413Y29399D01*
X509500Y27193D01*
Y24806D01*
X510413Y22601D01*
X512101Y20913D01*
X514306Y20000D01*
X516693D01*
X518899Y20913D01*
X520586Y22601D01*
X521500Y24806D01*
Y27193D01*
X520586Y29399D01*
X518899Y31086D01*
X516693Y32000D01*
D02*
G37*
G36*
X487134Y41450D02*
X476250D01*
X465366D01*
X465729Y40092D01*
X467216Y37518D01*
X469318Y35416D01*
X471892Y33929D01*
X474284Y33289D01*
X474297Y32079D01*
X474259Y31980D01*
X472101Y31086D01*
X470413Y29399D01*
X469500Y27193D01*
Y24806D01*
X470413Y22601D01*
X472101Y20913D01*
X474306Y20000D01*
X476693D01*
X478899Y20913D01*
X480586Y22601D01*
X481500Y24806D01*
Y27193D01*
X480586Y29399D01*
X478899Y31086D01*
X476959Y31890D01*
X477211Y33160D01*
X477736D01*
X480608Y33929D01*
X483182Y35416D01*
X485284Y37518D01*
X486771Y40092D01*
X487134Y41450D01*
D02*
G37*
G36*
X436693Y32000D02*
X434306D01*
X432101Y31086D01*
X430413Y29399D01*
X429500Y27193D01*
Y24806D01*
X430413Y22601D01*
X432101Y20913D01*
X434306Y20000D01*
X436693D01*
X438899Y20913D01*
X440586Y22601D01*
X441500Y24806D01*
Y27193D01*
X440586Y29399D01*
X438899Y31086D01*
X436693Y32000D01*
D02*
G37*
G36*
X396693D02*
X394306D01*
X392101Y31086D01*
X390413Y29399D01*
X389500Y27193D01*
Y24806D01*
X390413Y22601D01*
X392101Y20913D01*
X394306Y20000D01*
X396693D01*
X398899Y20913D01*
X400586Y22601D01*
X401500Y24806D01*
Y27193D01*
X400586Y29399D01*
X398899Y31086D01*
X396693Y32000D01*
D02*
G37*
G36*
X356693D02*
X354306D01*
X352101Y31086D01*
X350413Y29399D01*
X349500Y27193D01*
Y24806D01*
X350413Y22601D01*
X352101Y20913D01*
X354306Y20000D01*
X356693D01*
X358899Y20913D01*
X360586Y22601D01*
X361500Y24806D01*
Y27193D01*
X360586Y29399D01*
X358899Y31086D01*
X356693Y32000D01*
D02*
G37*
G36*
X276693D02*
X274306D01*
X272101Y31086D01*
X270413Y29399D01*
X269500Y27193D01*
Y24806D01*
X270413Y22601D01*
X272101Y20913D01*
X274306Y20000D01*
X276693D01*
X278899Y20913D01*
X280586Y22601D01*
X281500Y24806D01*
Y27193D01*
X280586Y29399D01*
X278899Y31086D01*
X276693Y32000D01*
D02*
G37*
G36*
X196693D02*
X194306D01*
X192101Y31086D01*
X190413Y29399D01*
X189500Y27193D01*
Y24806D01*
X190413Y22601D01*
X192101Y20913D01*
X194306Y20000D01*
X196693D01*
X198899Y20913D01*
X200586Y22601D01*
X201500Y24806D01*
Y27193D01*
X200586Y29399D01*
X198899Y31086D01*
X196693Y32000D01*
D02*
G37*
G36*
X156693D02*
X154306D01*
X152101Y31086D01*
X150413Y29399D01*
X149500Y27193D01*
Y24806D01*
X150413Y22601D01*
X152101Y20913D01*
X154306Y20000D01*
X156693D01*
X158899Y20913D01*
X160586Y22601D01*
X161500Y24806D01*
Y27193D01*
X160586Y29399D01*
X158899Y31086D01*
X156693Y32000D01*
D02*
G37*
G36*
X116693D02*
X114306D01*
X112101Y31086D01*
X110413Y29399D01*
X109500Y27193D01*
Y24806D01*
X110413Y22601D01*
X112101Y20913D01*
X114306Y20000D01*
X116693D01*
X118899Y20913D01*
X120586Y22601D01*
X121500Y24806D01*
Y27193D01*
X120586Y29399D01*
X118899Y31086D01*
X116693Y32000D01*
D02*
G37*
G36*
X76693D02*
X74306D01*
X72101Y31086D01*
X70413Y29399D01*
X69500Y27193D01*
Y24806D01*
X70413Y22601D01*
X72101Y20913D01*
X74306Y20000D01*
X76693D01*
X78899Y20913D01*
X80587Y22601D01*
X81500Y24806D01*
Y27193D01*
X80587Y29399D01*
X78899Y31086D01*
X76693Y32000D01*
D02*
G37*
G36*
X36693D02*
X34306D01*
X32101Y31086D01*
X30413Y29399D01*
X29500Y27193D01*
Y24806D01*
X30413Y22601D01*
X32101Y20913D01*
X34306Y20000D01*
X36693D01*
X38899Y20913D01*
X40587Y22601D01*
X41500Y24806D01*
Y27193D01*
X40587Y29399D01*
X38899Y31086D01*
X36693Y32000D01*
D02*
G37*
G36*
X440106Y729646D02*
X437719D01*
X435513Y728733D01*
X433825Y727045D01*
X432912Y724839D01*
Y722452D01*
X433825Y720247D01*
X435513Y718559D01*
X437719Y717646D01*
X440106D01*
X442311Y718559D01*
X443999Y720247D01*
X444912Y722452D01*
Y724839D01*
X443999Y727045D01*
X442311Y728733D01*
X440106Y729646D01*
D02*
G37*
G36*
X551104Y725582D02*
X548717D01*
X546511Y724669D01*
X544823Y722981D01*
X543910Y720776D01*
Y718389D01*
X544823Y716183D01*
X546511Y714495D01*
X548717Y713582D01*
X551104D01*
X553309Y714495D01*
X554997Y716183D01*
X555910Y718389D01*
Y720776D01*
X554997Y722981D01*
X553309Y724669D01*
X551104Y725582D01*
D02*
G37*
G36*
X696693Y712000D02*
X694306D01*
X692101Y711086D01*
X690413Y709398D01*
X689500Y707193D01*
Y704806D01*
X690413Y702601D01*
X692101Y700913D01*
X694306Y700000D01*
X696693D01*
X698898Y700913D01*
X700586Y702601D01*
X701499Y704806D01*
Y707193D01*
X700586Y709398D01*
X698898Y711086D01*
X696693Y712000D01*
D02*
G37*
G36*
X474483Y698910D02*
X472096D01*
X469890Y697997D01*
X468203Y696309D01*
X467289Y694104D01*
Y691717D01*
X468203Y689512D01*
X469890Y687824D01*
X472096Y686910D01*
X474483D01*
X476688Y687824D01*
X478376Y689512D01*
X479289Y691717D01*
Y694104D01*
X478376Y696309D01*
X476688Y697997D01*
X474483Y698910D01*
D02*
G37*
G36*
X453821Y693070D02*
X451435D01*
X449229Y692157D01*
X447541Y690469D01*
X446628Y688263D01*
Y685876D01*
X447541Y683671D01*
X449229Y681983D01*
X451435Y681070D01*
X453821D01*
X456027Y681983D01*
X457715Y683671D01*
X458628Y685876D01*
Y688263D01*
X457715Y690469D01*
X456027Y692157D01*
X453821Y693070D01*
D02*
G37*
G36*
X711693Y682000D02*
X709306D01*
X707101Y681086D01*
X705413Y679398D01*
X704500Y677193D01*
Y674806D01*
X705413Y672601D01*
X707101Y670913D01*
X709306Y670000D01*
X711693D01*
X713898Y670913D01*
X715586Y672601D01*
X716499Y674806D01*
Y677193D01*
X715586Y679398D01*
X713898Y681086D01*
X711693Y682000D01*
D02*
G37*
G36*
X681693D02*
X679306D01*
X677101Y681086D01*
X675413Y679398D01*
X674500Y677193D01*
Y674806D01*
X675413Y672601D01*
X677101Y670913D01*
X679306Y670000D01*
X681693D01*
X683898Y670913D01*
X685586Y672601D01*
X686499Y674806D01*
Y677193D01*
X685586Y679398D01*
X683898Y681086D01*
X681693Y682000D01*
D02*
G37*
G36*
X651693D02*
X649306D01*
X647101Y681086D01*
X645413Y679398D01*
X644500Y677193D01*
Y674806D01*
X645413Y672601D01*
X647101Y670913D01*
X649306Y670000D01*
X651693D01*
X653898Y670913D01*
X655586Y672601D01*
X656499Y674806D01*
Y677193D01*
X655586Y679398D01*
X653898Y681086D01*
X651693Y682000D01*
D02*
G37*
G36*
X561693D02*
X559306D01*
X557101Y681086D01*
X555413Y679398D01*
X554500Y677193D01*
Y674806D01*
X555413Y672601D01*
X557101Y670913D01*
X559306Y670000D01*
X561693D01*
X563898Y670913D01*
X565586Y672601D01*
X566499Y674806D01*
Y677193D01*
X565586Y679398D01*
X563898Y681086D01*
X561693Y682000D01*
D02*
G37*
G36*
X550088Y673004D02*
X547701D01*
X545495Y672091D01*
X543807Y670403D01*
X542894Y668197D01*
Y665810D01*
X543807Y663605D01*
X545495Y661917D01*
X547701Y661004D01*
X550088D01*
X552293Y661917D01*
X553981Y663605D01*
X554894Y665810D01*
Y668197D01*
X553981Y670403D01*
X552293Y672091D01*
X550088Y673004D01*
D02*
G37*
G36*
X513004Y670718D02*
X510616D01*
X508411Y669805D01*
X506723Y668117D01*
X505810Y665911D01*
Y663524D01*
X506723Y661319D01*
X508411Y659631D01*
X510616Y658718D01*
X513004D01*
X515209Y659631D01*
X516897Y661319D01*
X517810Y663524D01*
Y665911D01*
X516897Y668117D01*
X515209Y669805D01*
X513004Y670718D01*
D02*
G37*
G36*
X526720Y670464D02*
X524333D01*
X522127Y669551D01*
X520439Y667863D01*
X519526Y665658D01*
Y663270D01*
X520439Y661065D01*
X522127Y659377D01*
X524333Y658464D01*
X526720D01*
X528925Y659377D01*
X530613Y661065D01*
X531526Y663270D01*
Y665658D01*
X530613Y667863D01*
X528925Y669551D01*
X526720Y670464D01*
D02*
G37*
G36*
X502589Y657002D02*
X500202D01*
X497997Y656089D01*
X496309Y654401D01*
X495396Y652196D01*
Y649809D01*
X496309Y647603D01*
X497997Y645915D01*
X500202Y645002D01*
X502589D01*
X504795Y645915D01*
X506483Y647603D01*
X507396Y649809D01*
Y652196D01*
X506483Y654401D01*
X504795Y656089D01*
X502589Y657002D01*
D02*
G37*
G36*
X696693Y652000D02*
X694306D01*
X692101Y651086D01*
X690413Y649398D01*
X689500Y647193D01*
Y644806D01*
X690413Y642601D01*
X692101Y640913D01*
X694306Y640000D01*
X696693D01*
X698898Y640913D01*
X700586Y642601D01*
X701499Y644806D01*
Y647193D01*
X700586Y649398D01*
X698898Y651086D01*
X696693Y652000D01*
D02*
G37*
G36*
X636693D02*
X634306D01*
X632101Y651086D01*
X630413Y649398D01*
X629500Y647193D01*
Y644806D01*
X630413Y642601D01*
X632101Y640913D01*
X634306Y640000D01*
X636693D01*
X638898Y640913D01*
X640586Y642601D01*
X641499Y644806D01*
Y647193D01*
X640586Y649398D01*
X638898Y651086D01*
X636693Y652000D01*
D02*
G37*
G36*
X456693D02*
X454306D01*
X452101Y651086D01*
X450413Y649398D01*
X449500Y647193D01*
Y644806D01*
X450413Y642601D01*
X452101Y640913D01*
X454306Y640000D01*
X456693D01*
X458898Y640913D01*
X460586Y642601D01*
X461499Y644806D01*
Y647193D01*
X460586Y649398D01*
X458898Y651086D01*
X456693Y652000D01*
D02*
G37*
G36*
X680643Y635920D02*
X678257D01*
X676051Y635007D01*
X674363Y633319D01*
X673450Y631114D01*
Y628727D01*
X674363Y626521D01*
X676051Y624833D01*
X678257Y623920D01*
X680643D01*
X682849Y624833D01*
X684537Y626521D01*
X685450Y628727D01*
Y631114D01*
X684537Y633319D01*
X682849Y635007D01*
X680643Y635920D01*
D02*
G37*
G36*
X711693Y622000D02*
X709306D01*
X707101Y621086D01*
X705413Y619398D01*
X704500Y617193D01*
Y614806D01*
X705413Y612601D01*
X707101Y610913D01*
X709306Y610000D01*
X711693D01*
X713898Y610913D01*
X715586Y612601D01*
X716499Y614806D01*
Y617193D01*
X715586Y619398D01*
X713898Y621086D01*
X711693Y622000D01*
D02*
G37*
G36*
X651693D02*
X649306D01*
X647101Y621086D01*
X645413Y619398D01*
X644500Y617193D01*
Y614806D01*
X645413Y612601D01*
X647101Y610913D01*
X649306Y610000D01*
X651693D01*
X653898Y610913D01*
X655586Y612601D01*
X656499Y614806D01*
Y617193D01*
X655586Y619398D01*
X653898Y621086D01*
X651693Y622000D01*
D02*
G37*
G36*
X471693D02*
X469306D01*
X467101Y621086D01*
X465413Y619398D01*
X464500Y617193D01*
Y614806D01*
X465413Y612601D01*
X467101Y610913D01*
X469306Y610000D01*
X471693D01*
X473898Y610913D01*
X475586Y612601D01*
X476499Y614806D01*
Y617193D01*
X475586Y619398D01*
X473898Y621086D01*
X471693Y622000D01*
D02*
G37*
G36*
X529259Y582580D02*
X526872D01*
X524667Y581667D01*
X522979Y579979D01*
X522066Y577774D01*
Y575387D01*
X522979Y573181D01*
X524667Y571493D01*
X526872Y570580D01*
X529259D01*
X531465Y571493D01*
X533153Y573181D01*
X534066Y575387D01*
Y577774D01*
X533153Y579979D01*
X531465Y581667D01*
X529259Y582580D01*
D02*
G37*
G36*
X487095Y575468D02*
X484709D01*
X482503Y574555D01*
X480815Y572867D01*
X479902Y570662D01*
Y568274D01*
X480815Y566069D01*
X482503Y564381D01*
X484709Y563468D01*
X487095D01*
X489301Y564381D01*
X490989Y566069D01*
X491902Y568274D01*
Y570662D01*
X490989Y572867D01*
X489301Y574555D01*
X487095Y575468D01*
D02*
G37*
G36*
X464743Y542448D02*
X462356D01*
X460151Y541535D01*
X458463Y539847D01*
X457550Y537641D01*
Y535255D01*
X457809Y534628D01*
X456087Y533915D01*
X454399Y532227D01*
X453486Y530022D01*
Y527635D01*
X454399Y525429D01*
X456087Y523741D01*
X458293Y522828D01*
X460680D01*
X462885Y523741D01*
X464573Y525429D01*
X465486Y527635D01*
Y530022D01*
X465227Y530648D01*
X466949Y531361D01*
X468637Y533049D01*
X469550Y535255D01*
Y537641D01*
X468637Y539847D01*
X466949Y541535D01*
X464743Y542448D01*
D02*
G37*
G36*
X458692Y512774D02*
X456305D01*
X454100Y511861D01*
X452412Y510173D01*
X451498Y507968D01*
Y505581D01*
X452412Y503376D01*
X454100Y501688D01*
X456305Y500774D01*
X458692D01*
X460897Y501688D01*
X462585Y503376D01*
X463498Y505581D01*
Y507968D01*
X462585Y510173D01*
X460897Y511861D01*
X458692Y512774D01*
D02*
G37*
G36*
X459402Y446428D02*
X457015D01*
X454809Y445515D01*
X453121Y443827D01*
X452208Y441622D01*
Y439235D01*
X453121Y437029D01*
X454809Y435341D01*
X457015Y434428D01*
X459402D01*
X461607Y435341D01*
X463295Y437029D01*
X464208Y439235D01*
Y441622D01*
X463295Y443827D01*
X461607Y445515D01*
X459402Y446428D01*
D02*
G37*
G36*
X484758Y356440D02*
X481862D01*
X479064Y355690D01*
X476556Y354242D01*
X474508Y352194D01*
X473060Y349686D01*
X472310Y346888D01*
Y343992D01*
X472575Y343004D01*
X471804Y341999D01*
X469598Y341085D01*
X469390Y340877D01*
X468252Y341535D01*
X468910Y343992D01*
Y346888D01*
X468160Y349686D01*
X466712Y352194D01*
X464664Y354242D01*
X462156Y355690D01*
X459358Y356440D01*
X456462D01*
X453664Y355690D01*
X451156Y354242D01*
X449108Y352194D01*
X447660Y349686D01*
X446910Y346888D01*
Y343992D01*
X447660Y341194D01*
X449108Y338686D01*
X451156Y336638D01*
X453664Y335190D01*
X456462Y334440D01*
X459358D01*
X462156Y335190D01*
X464664Y336638D01*
X465908Y337882D01*
X466945Y337225D01*
X466945Y335932D01*
X465410Y334398D01*
X464497Y332192D01*
Y330405D01*
X463300Y329630D01*
X462156Y330290D01*
X459358Y331040D01*
X456462D01*
X453664Y330290D01*
X451156Y328842D01*
X449108Y326794D01*
X447660Y324286D01*
X446910Y321488D01*
Y318592D01*
X447660Y315794D01*
X449108Y313286D01*
X451156Y311238D01*
X453664Y309790D01*
X456462Y309040D01*
X459358D01*
X462156Y309790D01*
X464664Y311238D01*
X466712Y313286D01*
X468160Y315794D01*
X468910Y318592D01*
Y321488D01*
X468217Y324074D01*
X468994Y325127D01*
X469304Y324999D01*
X471690D01*
X472104Y325170D01*
X472819Y324508D01*
X473031Y324179D01*
X472310Y321488D01*
Y318592D01*
X473060Y315794D01*
X474508Y313286D01*
X476556Y311238D01*
X479064Y309790D01*
X481862Y309040D01*
X484758D01*
X487556Y309790D01*
X490064Y311238D01*
X492112Y313286D01*
X493229Y315221D01*
X494500Y314881D01*
Y314806D01*
X495413Y312601D01*
X497101Y310913D01*
X499306Y310000D01*
X501693D01*
X503898Y310913D01*
X505586Y312601D01*
X506499Y314806D01*
Y317193D01*
X505586Y319398D01*
X503898Y321086D01*
X501693Y322000D01*
X499306D01*
X497101Y321086D01*
X495580Y319566D01*
X494791Y319712D01*
X494310Y319955D01*
Y321488D01*
X493560Y324286D01*
X492112Y326794D01*
X490064Y328842D01*
X487556Y330290D01*
X484758Y331040D01*
X481862D01*
X479064Y330290D01*
X478143Y329758D01*
X476932Y330451D01*
X476874Y331391D01*
X478083Y332600D01*
X478686Y334056D01*
X478997Y334805D01*
X480267Y334867D01*
X481862Y334440D01*
X484758D01*
X487556Y335190D01*
X490064Y336638D01*
X492112Y338686D01*
X493560Y341194D01*
X494310Y343992D01*
Y346888D01*
X493560Y349686D01*
X492112Y352194D01*
X490064Y354242D01*
X487556Y355690D01*
X484758Y356440D01*
D02*
G37*
G36*
X711693Y322000D02*
X709306D01*
X707101Y321086D01*
X705413Y319398D01*
X704500Y317193D01*
Y314806D01*
X705413Y312601D01*
X707101Y310913D01*
X709306Y310000D01*
X711693D01*
X713898Y310913D01*
X715586Y312601D01*
X716499Y314806D01*
Y317193D01*
X715586Y319398D01*
X713898Y321086D01*
X711693Y322000D01*
D02*
G37*
G36*
X561693D02*
X559306D01*
X557101Y321086D01*
X555413Y319398D01*
X554500Y317193D01*
Y314806D01*
X555413Y312601D01*
X557101Y310913D01*
X559306Y310000D01*
X561693D01*
X563898Y310913D01*
X565586Y312601D01*
X566499Y314806D01*
Y317193D01*
X565586Y319398D01*
X563898Y321086D01*
X561693Y322000D01*
D02*
G37*
G36*
X531693D02*
X529306D01*
X527101Y321086D01*
X525413Y319398D01*
X524500Y317193D01*
Y314806D01*
X525413Y312601D01*
X527101Y310913D01*
X529306Y310000D01*
X531693D01*
X533898Y310913D01*
X535586Y312601D01*
X536499Y314806D01*
Y317193D01*
X535586Y319398D01*
X533898Y321086D01*
X531693Y322000D01*
D02*
G37*
G36*
X696693Y292000D02*
X694306D01*
X692101Y291086D01*
X690413Y289399D01*
X689500Y287193D01*
Y284806D01*
X690413Y282601D01*
X692101Y280913D01*
X694306Y280000D01*
X696693D01*
X698898Y280913D01*
X700586Y282601D01*
X701499Y284806D01*
Y287193D01*
X700586Y289399D01*
X698898Y291086D01*
X696693Y292000D01*
D02*
G37*
G36*
X666693D02*
X664306D01*
X662101Y291086D01*
X660413Y289399D01*
X659500Y287193D01*
Y284806D01*
X660413Y282601D01*
X662101Y280913D01*
X664306Y280000D01*
X666693D01*
X668898Y280913D01*
X670586Y282601D01*
X671499Y284806D01*
Y287193D01*
X670586Y289399D01*
X668898Y291086D01*
X666693Y292000D01*
D02*
G37*
G36*
X636693D02*
X634306D01*
X632101Y291086D01*
X630413Y289399D01*
X629500Y287193D01*
Y284806D01*
X630413Y282601D01*
X632101Y280913D01*
X634306Y280000D01*
X636693D01*
X638898Y280913D01*
X640586Y282601D01*
X641499Y284806D01*
Y287193D01*
X640586Y289399D01*
X638898Y291086D01*
X636693Y292000D01*
D02*
G37*
G36*
X606693D02*
X604306D01*
X602101Y291086D01*
X600413Y289399D01*
X599500Y287193D01*
Y284806D01*
X600413Y282601D01*
X602101Y280913D01*
X604306Y280000D01*
X606693D01*
X608898Y280913D01*
X610586Y282601D01*
X611499Y284806D01*
Y287193D01*
X610586Y289399D01*
X608898Y291086D01*
X606693Y292000D01*
D02*
G37*
G36*
X576693D02*
X574306D01*
X572101Y291086D01*
X570413Y289399D01*
X569500Y287193D01*
Y284806D01*
X570413Y282601D01*
X572101Y280913D01*
X574306Y280000D01*
X576693D01*
X578898Y280913D01*
X580586Y282601D01*
X581499Y284806D01*
Y287193D01*
X580586Y289399D01*
X578898Y291086D01*
X576693Y292000D01*
D02*
G37*
G36*
X546693D02*
X544306D01*
X542101Y291086D01*
X540413Y289399D01*
X539500Y287193D01*
Y284806D01*
X540413Y282601D01*
X542101Y280913D01*
X544306Y280000D01*
X546693D01*
X548898Y280913D01*
X550586Y282601D01*
X551499Y284806D01*
Y287193D01*
X550586Y289399D01*
X548898Y291086D01*
X546693Y292000D01*
D02*
G37*
G36*
X516693D02*
X514306D01*
X512101Y291086D01*
X510413Y289399D01*
X509500Y287193D01*
Y284806D01*
X510413Y282601D01*
X512101Y280913D01*
X514306Y280000D01*
X516693D01*
X518898Y280913D01*
X520586Y282601D01*
X521499Y284806D01*
Y287193D01*
X520586Y289399D01*
X518898Y291086D01*
X516693Y292000D01*
D02*
G37*
G36*
X486693D02*
X484306D01*
X482101Y291086D01*
X480413Y289399D01*
X479500Y287193D01*
Y284806D01*
X480413Y282601D01*
X482101Y280913D01*
X484306Y280000D01*
X486693D01*
X488898Y280913D01*
X490586Y282601D01*
X491499Y284806D01*
Y287193D01*
X490586Y289399D01*
X488898Y291086D01*
X486693Y292000D01*
D02*
G37*
G36*
X456693D02*
X454306D01*
X452101Y291086D01*
X450413Y289399D01*
X449500Y287193D01*
Y284806D01*
X450413Y282601D01*
X452101Y280913D01*
X454306Y280000D01*
X456693D01*
X458898Y280913D01*
X460586Y282601D01*
X461499Y284806D01*
Y287193D01*
X460586Y289399D01*
X458898Y291086D01*
X456693Y292000D01*
D02*
G37*
G36*
X645083Y273970D02*
X642697D01*
X640491Y273057D01*
X638803Y271369D01*
X637890Y269163D01*
Y266777D01*
X638803Y264571D01*
X640491Y262883D01*
X642697Y261970D01*
X645083D01*
X647289Y262883D01*
X648977Y264571D01*
X649890Y266777D01*
Y269163D01*
X648977Y271369D01*
X647289Y273057D01*
X645083Y273970D01*
D02*
G37*
G36*
X711693Y262000D02*
X709306D01*
X707101Y261086D01*
X705413Y259399D01*
X704500Y257193D01*
Y254806D01*
X705413Y252601D01*
X707101Y250913D01*
X709306Y250000D01*
X711693D01*
X713898Y250913D01*
X715586Y252601D01*
X716499Y254806D01*
Y257193D01*
X715586Y259399D01*
X713898Y261086D01*
X711693Y262000D01*
D02*
G37*
G36*
X651693D02*
X649306D01*
X647101Y261086D01*
X645413Y259399D01*
X644500Y257193D01*
Y254806D01*
X645413Y252601D01*
X647101Y250913D01*
X649306Y250000D01*
X651693D01*
X653898Y250913D01*
X655586Y252601D01*
X656499Y254806D01*
Y257193D01*
X655586Y259399D01*
X653898Y261086D01*
X651693Y262000D01*
D02*
G37*
G36*
X591693D02*
X589306D01*
X587101Y261086D01*
X585413Y259399D01*
X584500Y257193D01*
Y254806D01*
X585413Y252601D01*
X587101Y250913D01*
X589306Y250000D01*
X591693D01*
X593898Y250913D01*
X595586Y252601D01*
X596499Y254806D01*
Y257193D01*
X595586Y259399D01*
X593898Y261086D01*
X591693Y262000D01*
D02*
G37*
G36*
X531693D02*
X529306D01*
X527101Y261086D01*
X525413Y259399D01*
X524500Y257193D01*
Y254806D01*
X525413Y252601D01*
X527101Y250913D01*
X529306Y250000D01*
X531693D01*
X533898Y250913D01*
X535586Y252601D01*
X536499Y254806D01*
Y257193D01*
X535586Y259399D01*
X533898Y261086D01*
X531693Y262000D01*
D02*
G37*
G36*
X501693D02*
X499306D01*
X497101Y261086D01*
X495413Y259399D01*
X494500Y257193D01*
Y254806D01*
X495413Y252601D01*
X497101Y250913D01*
X499306Y250000D01*
X501693D01*
X503898Y250913D01*
X505586Y252601D01*
X506499Y254806D01*
Y257193D01*
X505586Y259399D01*
X503898Y261086D01*
X501693Y262000D01*
D02*
G37*
G36*
X471693D02*
X469306D01*
X467101Y261086D01*
X465413Y259399D01*
X464500Y257193D01*
Y254806D01*
X465413Y252601D01*
X467101Y250913D01*
X469306Y250000D01*
X471693D01*
X473898Y250913D01*
X475586Y252601D01*
X476499Y254806D01*
Y257193D01*
X475586Y259399D01*
X473898Y261086D01*
X471693Y262000D01*
D02*
G37*
G36*
X666693Y232000D02*
X664306D01*
X662101Y231086D01*
X660413Y229399D01*
X659500Y227193D01*
Y224806D01*
X660413Y222601D01*
X662101Y220913D01*
X664306Y220000D01*
X666693D01*
X668898Y220913D01*
X670586Y222601D01*
X671499Y224806D01*
Y227193D01*
X670586Y229399D01*
X668898Y231086D01*
X666693Y232000D01*
D02*
G37*
G36*
X636693D02*
X634306D01*
X632101Y231086D01*
X630413Y229399D01*
X629500Y227193D01*
Y224806D01*
X630413Y222601D01*
X632101Y220913D01*
X634306Y220000D01*
X636693D01*
X638898Y220913D01*
X640586Y222601D01*
X641499Y224806D01*
Y227193D01*
X640586Y229399D01*
X638898Y231086D01*
X636693Y232000D01*
D02*
G37*
G36*
X546693D02*
X544306D01*
X542101Y231086D01*
X540413Y229399D01*
X539500Y227193D01*
Y224806D01*
X540413Y222601D01*
X542101Y220913D01*
X544306Y220000D01*
X546693D01*
X548898Y220913D01*
X550586Y222601D01*
X551499Y224806D01*
Y227193D01*
X550586Y229399D01*
X548898Y231086D01*
X546693Y232000D01*
D02*
G37*
G36*
X516693D02*
X514306D01*
X512101Y231086D01*
X510413Y229399D01*
X509500Y227193D01*
Y224806D01*
X510413Y222601D01*
X512101Y220913D01*
X514306Y220000D01*
X516693D01*
X518898Y220913D01*
X520586Y222601D01*
X521499Y224806D01*
Y227193D01*
X520586Y229399D01*
X518898Y231086D01*
X516693Y232000D01*
D02*
G37*
G36*
X486693D02*
X484306D01*
X482101Y231086D01*
X480413Y229399D01*
X479500Y227193D01*
Y224806D01*
X480413Y222601D01*
X482101Y220913D01*
X484306Y220000D01*
X486693D01*
X488898Y220913D01*
X490586Y222601D01*
X491499Y224806D01*
Y227193D01*
X490586Y229399D01*
X488898Y231086D01*
X486693Y232000D01*
D02*
G37*
G36*
X711693Y562000D02*
X709306D01*
X707101Y561086D01*
X705413Y559398D01*
X704500Y557193D01*
Y554806D01*
X705413Y552601D01*
X707101Y550913D01*
X709306Y550000D01*
X711693D01*
X713898Y550913D01*
X715586Y552601D01*
X716499Y554806D01*
Y557193D01*
X715586Y559398D01*
X713898Y561086D01*
X711693Y562000D01*
D02*
G37*
G36*
X681693D02*
X679306D01*
X677101Y561086D01*
X675413Y559398D01*
X674500Y557193D01*
Y554806D01*
X675413Y552601D01*
X677101Y550913D01*
X679306Y550000D01*
X681693D01*
X683898Y550913D01*
X685586Y552601D01*
X686499Y554806D01*
Y557193D01*
X685586Y559398D01*
X683898Y561086D01*
X681693Y562000D01*
D02*
G37*
G36*
X696693Y532000D02*
X694306D01*
X692101Y531086D01*
X690413Y529398D01*
X689500Y527193D01*
Y524806D01*
X690413Y522601D01*
X692101Y520913D01*
X694306Y520000D01*
X696693D01*
X698898Y520913D01*
X700586Y522601D01*
X701499Y524806D01*
Y527193D01*
X700586Y529398D01*
X698898Y531086D01*
X696693Y532000D01*
D02*
G37*
G36*
X545443Y523250D02*
X543056D01*
X540851Y522337D01*
X539163Y520649D01*
X538250Y518443D01*
Y516057D01*
X539163Y513851D01*
X540851Y512163D01*
X543056Y511250D01*
X545443D01*
X547649Y512163D01*
X549337Y513851D01*
X550250Y516057D01*
Y518443D01*
X549337Y520649D01*
X547649Y522337D01*
X545443Y523250D01*
D02*
G37*
G36*
X572444Y520250D02*
X570056D01*
X567851Y519337D01*
X566163Y517649D01*
X565250Y515443D01*
Y513056D01*
X566163Y510851D01*
X567851Y509163D01*
X570056Y508250D01*
X572444D01*
X574649Y509163D01*
X576337Y510851D01*
X577250Y513056D01*
Y515443D01*
X576337Y517649D01*
X574649Y519337D01*
X572444Y520250D01*
D02*
G37*
G36*
X711693Y502000D02*
X709306D01*
X707101Y501086D01*
X705413Y499398D01*
X704500Y497193D01*
Y494806D01*
X705413Y492601D01*
X707101Y490913D01*
X709306Y490000D01*
X711693D01*
X713898Y490913D01*
X715586Y492601D01*
X716499Y494806D01*
Y497193D01*
X715586Y499398D01*
X713898Y501086D01*
X711693Y502000D01*
D02*
G37*
G36*
X681693D02*
X679306D01*
X677101Y501086D01*
X675413Y499398D01*
X674500Y497193D01*
Y494806D01*
X675413Y492601D01*
X677101Y490913D01*
X679306Y490000D01*
X681693D01*
X683898Y490913D01*
X685586Y492601D01*
X686499Y494806D01*
Y497193D01*
X685586Y499398D01*
X683898Y501086D01*
X681693Y502000D01*
D02*
G37*
G36*
X659307Y507904D02*
X656920D01*
X654715Y506991D01*
X653027Y505303D01*
X652114Y503097D01*
Y502281D01*
X651693Y502000D01*
X649306D01*
X647101Y501086D01*
X645413Y499398D01*
X644500Y497193D01*
Y494806D01*
X645413Y492601D01*
X647101Y490913D01*
X649306Y490000D01*
X651693D01*
X653898Y490913D01*
X655586Y492601D01*
X656499Y494806D01*
Y495623D01*
X656921Y495904D01*
X659307D01*
X661513Y496817D01*
X663201Y498505D01*
X664114Y500710D01*
Y503097D01*
X663201Y505303D01*
X661513Y506991D01*
X659307Y507904D01*
D02*
G37*
G36*
X591693Y502000D02*
X589306D01*
X587101Y501086D01*
X585413Y499398D01*
X584500Y497193D01*
Y494806D01*
X585413Y492601D01*
X587101Y490913D01*
X589306Y490000D01*
X591693D01*
X593898Y490913D01*
X595586Y492601D01*
X596499Y494806D01*
Y497193D01*
X595586Y499398D01*
X593898Y501086D01*
X591693Y502000D01*
D02*
G37*
G36*
X618534Y496100D02*
X616147D01*
X613941Y495187D01*
X612253Y493499D01*
X611340Y491293D01*
Y488907D01*
X612253Y486701D01*
X613941Y485013D01*
X616147Y484100D01*
X618534D01*
X620739Y485013D01*
X622427Y486701D01*
X623340Y488907D01*
Y491293D01*
X622427Y493499D01*
X620739Y495187D01*
X618534Y496100D01*
D02*
G37*
G36*
X662044Y491100D02*
X659657D01*
X657451Y490187D01*
X655763Y488499D01*
X654850Y486293D01*
Y483907D01*
X654905Y483774D01*
X654056Y482504D01*
X652602D01*
X650397Y481591D01*
X648709Y479903D01*
X647796Y477697D01*
Y475311D01*
X648709Y473105D01*
X650397Y471417D01*
X652602Y470504D01*
X654989D01*
X657195Y471417D01*
X658883Y473105D01*
X659796Y475311D01*
Y477697D01*
X659741Y477830D01*
X660590Y479100D01*
X662044D01*
X664249Y480013D01*
X665937Y481701D01*
X666850Y483907D01*
Y486293D01*
X665937Y488499D01*
X664249Y490187D01*
X662044Y491100D01*
D02*
G37*
G36*
X561264Y481234D02*
X558876D01*
X556671Y480321D01*
X554983Y478633D01*
X554070Y476427D01*
Y474040D01*
X554983Y471835D01*
X556671Y470147D01*
X558876Y469234D01*
X561264D01*
X563469Y470147D01*
X565157Y471835D01*
X566070Y474040D01*
Y476427D01*
X565157Y478633D01*
X563469Y480321D01*
X561264Y481234D01*
D02*
G37*
G36*
X696693Y472000D02*
X694306D01*
X692101Y471086D01*
X690413Y469398D01*
X689500Y467193D01*
Y464806D01*
X690413Y462601D01*
X692101Y460913D01*
X694306Y460000D01*
X696693D01*
X698898Y460913D01*
X700586Y462601D01*
X701499Y464806D01*
Y467193D01*
X700586Y469398D01*
X698898Y471086D01*
X696693Y472000D01*
D02*
G37*
G36*
X581464Y459673D02*
X579076D01*
X576871Y458759D01*
X575183Y457071D01*
X574270Y454866D01*
Y452479D01*
X575183Y450274D01*
X576871Y448586D01*
X579076Y447673D01*
X581464D01*
X583669Y448586D01*
X584392Y449309D01*
X585890Y449011D01*
X586163Y448351D01*
X587851Y446663D01*
X590056Y445750D01*
X592444D01*
X594649Y446663D01*
X596337Y448351D01*
X597250Y450556D01*
Y452943D01*
X596337Y455149D01*
X594649Y456837D01*
X592444Y457750D01*
X590056D01*
X587851Y456837D01*
X587128Y456113D01*
X585630Y456411D01*
X585356Y457071D01*
X583669Y458759D01*
X581464Y459673D01*
D02*
G37*
G36*
X712088Y456770D02*
X709192D01*
X706394Y456020D01*
X703886Y454572D01*
X701838Y452524D01*
X700390Y450016D01*
X699640Y447218D01*
Y444322D01*
X700390Y441524D01*
X701838Y439016D01*
X703886Y436968D01*
X706394Y435520D01*
X709192Y434770D01*
X712088D01*
X714886Y435520D01*
X717394Y436968D01*
X719442Y439016D01*
X720890Y441524D01*
X721640Y444322D01*
Y447218D01*
X720890Y450016D01*
X719442Y452524D01*
X717394Y454572D01*
X714886Y456020D01*
X712088Y456770D01*
D02*
G37*
G36*
X556693Y430000D02*
X554306D01*
X552101Y429086D01*
X550414Y427399D01*
X549500Y425193D01*
Y422807D01*
X550414Y420601D01*
X552101Y418913D01*
X554306Y418000D01*
X556693D01*
X558899Y418913D01*
X560587Y420601D01*
X561500Y422807D01*
Y425193D01*
X560587Y427399D01*
X558899Y429086D01*
X556693Y430000D01*
D02*
G37*
G36*
X712088Y431370D02*
X709192D01*
X706394Y430620D01*
X703886Y429172D01*
X701838Y427124D01*
X700390Y424616D01*
X699640Y421818D01*
Y418922D01*
X700390Y416124D01*
X701838Y413616D01*
X703886Y411568D01*
X706394Y410120D01*
X709192Y409370D01*
X712088D01*
X714886Y410120D01*
X717394Y411568D01*
X719442Y413616D01*
X720890Y416124D01*
X721640Y418922D01*
Y421818D01*
X720890Y424616D01*
X719442Y427124D01*
X717394Y429172D01*
X714886Y430620D01*
X712088Y431370D01*
D02*
G37*
G36*
X696693Y412000D02*
X694306D01*
X692101Y411086D01*
X690413Y409398D01*
X689500Y407193D01*
Y404806D01*
X690413Y402601D01*
X692101Y400913D01*
X694306Y400000D01*
X696693D01*
X698898Y400913D01*
X700586Y402601D01*
X701499Y404806D01*
Y407193D01*
X700586Y409398D01*
X698898Y411086D01*
X696693Y412000D01*
D02*
G37*
G36*
X598694Y400250D02*
X596306D01*
X594101Y399337D01*
X592413Y397649D01*
X591500Y395443D01*
Y393056D01*
X592413Y390851D01*
X594101Y389164D01*
X596306Y388250D01*
X598694D01*
X600899Y389164D01*
X602587Y390851D01*
X603500Y393056D01*
Y395443D01*
X602587Y397649D01*
X600899Y399337D01*
X598694Y400250D01*
D02*
G37*
G36*
X712088Y405970D02*
X709192D01*
X706394Y405220D01*
X703886Y403772D01*
X701838Y401724D01*
X700390Y399216D01*
X699640Y396418D01*
Y393522D01*
X700390Y390724D01*
X701838Y388216D01*
X703886Y386168D01*
X706394Y384720D01*
X709192Y383970D01*
X712088D01*
X714886Y384720D01*
X717394Y386168D01*
X719442Y388216D01*
X720890Y390724D01*
X721640Y393522D01*
Y396418D01*
X720890Y399216D01*
X719442Y401724D01*
X717394Y403772D01*
X714886Y405220D01*
X712088Y405970D01*
D02*
G37*
G36*
X493350Y380880D02*
X486310D01*
Y373840D01*
X493350D01*
Y380880D01*
D02*
G37*
G36*
X460910Y380430D02*
Y373840D01*
X467500D01*
X467266Y374715D01*
X465944Y377005D01*
X464075Y378874D01*
X461785Y380196D01*
X460910Y380430D01*
D02*
G37*
G36*
X480310Y380880D02*
X473270D01*
Y373840D01*
X480310D01*
Y380880D01*
D02*
G37*
G36*
X720680Y379610D02*
X713640D01*
Y372570D01*
X720680D01*
Y379610D01*
D02*
G37*
G36*
X707640D02*
X700600D01*
Y372570D01*
X707640D01*
Y379610D01*
D02*
G37*
%LPD*%
D13*
X700000Y0D02*
G03*
X733500Y33500I0J33500D01*
G01*
X0Y25000D02*
G03*
X25000Y0I25000J0D01*
G01*
X41400Y1216400D02*
G03*
X0Y1175000I0J-41400D01*
G01*
X733500Y1166500D02*
G03*
X683600Y1216400I-49900J0D01*
G01*
X0Y25000D02*
Y1175000D01*
X25000Y0D02*
X700000D01*
X733500Y33500D02*
Y1166500D01*
X41400Y1216400D02*
X683600D01*
D16*
X446547Y460248D02*
Y584454D01*
D17*
X353250Y588476D02*
X433145D01*
X353250Y456438D02*
Y588476D01*
Y456438D02*
X433145D01*
Y588476D01*
D74*
X227958Y842570D02*
D03*
X457910Y370840D02*
D03*
D76*
X483310D02*
D03*
X710640Y369570D02*
D03*
D77*
X561300Y1163300D02*
D03*
D79*
X292100Y990600D02*
D03*
X292100Y889000D02*
D03*
D80*
X240284Y641604D02*
D03*
D81*
X476250Y44450D02*
D03*
D83*
X458405Y517936D02*
D03*
X365760Y1010920D02*
D03*
X464058Y1031370D02*
D03*
X528574Y605536D02*
D03*
X528850Y833718D02*
D03*
X470343Y591853D02*
D03*
X529690Y510943D02*
D03*
X409702Y993140D02*
D03*
X543163Y868652D02*
D03*
X701802Y949706D02*
D03*
X477266Y489458D02*
D03*
X535686Y696976D02*
D03*
X436626Y698000D02*
D03*
X660400Y859790D02*
D03*
X628650Y530860D02*
D03*
X668020Y661670D02*
D03*
X527207Y266857D02*
D03*
X476250Y1203960D02*
D03*
X396240Y1187450D02*
D03*
X618490Y424180D02*
D03*
X666500Y719500D02*
D03*
X434250Y817750D02*
D03*
X575564Y116198D02*
D03*
X529000Y553750D02*
D03*
X541274Y439674D02*
D03*
X658750Y578250D02*
D03*
X644000Y529750D02*
D03*
X534250Y968250D02*
D03*
X687500Y1040750D02*
D03*
X515000Y1058750D02*
D03*
X622000Y911500D02*
D03*
X647396Y933080D02*
D03*
D84*
X720090Y232410D02*
D03*
X617250Y171450D02*
D03*
M02*
