M48
;Layer_Color=9474304
;FILE_FORMAT=4:4
METRIC,TZ
;TYPE=PLATED
T1F00S00C0.7112
T2F00S00C0.9000
T3F00S00C1.0000
T4F00S00C6.2000
T5F00S00C8.2000
%
T01
X808990Y-276860
T02
X771180Y-171570
X796584
X821984
X847384
X872784
T03
X167640Y-288290
X192640
X427500
X452500
X513080Y-446240
X538480
X563880
X589280
X614680
X640080
X665480
X690880
X716280
X741680
X767080
X792480
X817880
X987500Y-290830
X1012500
X1187500
X1212500
T04
X1291000Y-551190
X884000
X477000
X253500Y-116190
X660500
X1087500
T05
X70000Y-551190
X1291000Y-116190
M30
