%TF.GenerationSoftware,KiCad,Pcbnew,(6.0.11)*%
%TF.CreationDate,2023-07-03T20:37:45+10:00*%
%TF.ProjectId,LVBMS_A_Sample_R2,4c56424d-535f-4415-9f53-616d706c655f,1*%
%TF.SameCoordinates,Original*%
%TF.FileFunction,Drillmap*%
%TF.FilePolarity,Positive*%
%FSLAX45Y45*%
G04 Gerber Fmt 4.5, Leading zero omitted, Abs format (unit mm)*
G04 Created by KiCad (PCBNEW (6.0.11)) date 2023-07-03 20:37:45*
%MOMM*%
%LPD*%
G01*
G04 APERTURE LIST*
%ADD10C,0.100000*%
%ADD11C,0.200000*%
%ADD12C,0.025000*%
%ADD13C,0.030000*%
%ADD14C,0.040000*%
%ADD15C,0.120000*%
G04 APERTURE END LIST*
D10*
X12512040Y-11861800D02*
X17332960Y-11861800D01*
X17332960Y-11861800D02*
X17332960Y-6507480D01*
X17332960Y-6507480D02*
X12512040Y-6507480D01*
X12512040Y-6507480D02*
X12512040Y-11861800D01*
D11*
D12*
X12669540Y-6664980D02*
X12694540Y-6689980D01*
X12694540Y-6664980D02*
X12669540Y-6689980D01*
X12669540Y-6839980D02*
X12694540Y-6864980D01*
X12694540Y-6839980D02*
X12669540Y-6864980D01*
X12669540Y-7014980D02*
X12694540Y-7039980D01*
X12694540Y-7014980D02*
X12669540Y-7039980D01*
X12669540Y-7189980D02*
X12694540Y-7214980D01*
X12694540Y-7189980D02*
X12669540Y-7214980D01*
X12669540Y-7364980D02*
X12694540Y-7389980D01*
X12694540Y-7364980D02*
X12669540Y-7389980D01*
X12669540Y-11039980D02*
X12694540Y-11064980D01*
X12694540Y-11039980D02*
X12669540Y-11064980D01*
X12669540Y-11214980D02*
X12694540Y-11239980D01*
X12694540Y-11214980D02*
X12669540Y-11239980D01*
X12669540Y-11389980D02*
X12694540Y-11414980D01*
X12694540Y-11389980D02*
X12669540Y-11414980D01*
X12669540Y-11564980D02*
X12694540Y-11589980D01*
X12694540Y-11564980D02*
X12669540Y-11589980D01*
X12669540Y-11739980D02*
X12694540Y-11764980D01*
X12694540Y-11739980D02*
X12669540Y-11764980D01*
X12844540Y-6664980D02*
X12869540Y-6689980D01*
X12869540Y-6664980D02*
X12844540Y-6689980D01*
X12844540Y-6839980D02*
X12869540Y-6864980D01*
X12869540Y-6839980D02*
X12844540Y-6864980D01*
X12844540Y-7014980D02*
X12869540Y-7039980D01*
X12869540Y-7014980D02*
X12844540Y-7039980D01*
X12844540Y-11739980D02*
X12869540Y-11764980D01*
X12869540Y-11739980D02*
X12844540Y-11764980D01*
X13019540Y-11739980D02*
X13044540Y-11764980D01*
X13044540Y-11739980D02*
X13019540Y-11764980D01*
X13544540Y-6664980D02*
X13569540Y-6689980D01*
X13569540Y-6664980D02*
X13544540Y-6689980D01*
X13544540Y-11739980D02*
X13569540Y-11764980D01*
X13569540Y-11739980D02*
X13544540Y-11764980D01*
X13719540Y-6664980D02*
X13744540Y-6689980D01*
X13744540Y-6664980D02*
X13719540Y-6689980D01*
X13894540Y-6664980D02*
X13919540Y-6689980D01*
X13919540Y-6664980D02*
X13894540Y-6689980D01*
X14069540Y-6664980D02*
X14094540Y-6689980D01*
X14094540Y-6664980D02*
X14069540Y-6689980D01*
X14069540Y-11739980D02*
X14094540Y-11764980D01*
X14094540Y-11739980D02*
X14069540Y-11764980D01*
X14244540Y-11739980D02*
X14269540Y-11764980D01*
X14269540Y-11739980D02*
X14244540Y-11764980D01*
X14419540Y-11739980D02*
X14444540Y-11764980D01*
X14444540Y-11739980D02*
X14419540Y-11764980D01*
X14594540Y-11564980D02*
X14619540Y-11589980D01*
X14619540Y-11564980D02*
X14594540Y-11589980D01*
X14594540Y-11739980D02*
X14619540Y-11764980D01*
X14619540Y-11739980D02*
X14594540Y-11764980D01*
X14769540Y-7364980D02*
X14794540Y-7389980D01*
X14794540Y-7364980D02*
X14769540Y-7389980D01*
X14769540Y-7539980D02*
X14794540Y-7564980D01*
X14794540Y-7539980D02*
X14769540Y-7564980D01*
X14769540Y-7714980D02*
X14794540Y-7739980D01*
X14794540Y-7714980D02*
X14769540Y-7739980D01*
X14769540Y-7889980D02*
X14794540Y-7914980D01*
X14794540Y-7889980D02*
X14769540Y-7914980D01*
X14769540Y-8064980D02*
X14794540Y-8089980D01*
X14794540Y-8064980D02*
X14769540Y-8089980D01*
X14769540Y-11389980D02*
X14794540Y-11414980D01*
X14794540Y-11389980D02*
X14769540Y-11414980D01*
X14769540Y-11564980D02*
X14794540Y-11589980D01*
X14794540Y-11564980D02*
X14769540Y-11589980D01*
X14769540Y-11739980D02*
X14794540Y-11764980D01*
X14794540Y-11739980D02*
X14769540Y-11764980D01*
X14944540Y-9989980D02*
X14969540Y-10014980D01*
X14969540Y-9989980D02*
X14944540Y-10014980D01*
X14944540Y-10164980D02*
X14969540Y-10189980D01*
X14969540Y-10164980D02*
X14944540Y-10189980D01*
X14944540Y-10339980D02*
X14969540Y-10364980D01*
X14969540Y-10339980D02*
X14944540Y-10364980D01*
X14944540Y-10514980D02*
X14969540Y-10539980D01*
X14969540Y-10514980D02*
X14944540Y-10539980D01*
X14944540Y-10689980D02*
X14969540Y-10714980D01*
X14969540Y-10689980D02*
X14944540Y-10714980D01*
X14944540Y-10864980D02*
X14969540Y-10889980D01*
X14969540Y-10864980D02*
X14944540Y-10889980D01*
X14944540Y-11039980D02*
X14969540Y-11064980D01*
X14969540Y-11039980D02*
X14944540Y-11064980D01*
X14944540Y-11214980D02*
X14969540Y-11239980D01*
X14969540Y-11214980D02*
X14944540Y-11239980D01*
X14944540Y-11389980D02*
X14969540Y-11414980D01*
X14969540Y-11389980D02*
X14944540Y-11414980D01*
X14944540Y-11564980D02*
X14969540Y-11589980D01*
X14969540Y-11564980D02*
X14944540Y-11589980D01*
X14944540Y-11739980D02*
X14969540Y-11764980D01*
X14969540Y-11739980D02*
X14944540Y-11764980D01*
X15063460Y-8503060D02*
X15088460Y-8528060D01*
X15088460Y-8503060D02*
X15063460Y-8528060D01*
X15119540Y-7364980D02*
X15144540Y-7389980D01*
X15144540Y-7364980D02*
X15119540Y-7389980D01*
X15119540Y-7539980D02*
X15144540Y-7564980D01*
X15144540Y-7539980D02*
X15119540Y-7564980D01*
X15119540Y-9114980D02*
X15144540Y-9139980D01*
X15144540Y-9114980D02*
X15119540Y-9139980D01*
X15119540Y-9289980D02*
X15144540Y-9314980D01*
X15144540Y-9289980D02*
X15119540Y-9314980D01*
X15119540Y-9464980D02*
X15144540Y-9489980D01*
X15144540Y-9464980D02*
X15119540Y-9489980D01*
X15119540Y-9989980D02*
X15144540Y-10014980D01*
X15144540Y-9989980D02*
X15119540Y-10014980D01*
X15119540Y-11564980D02*
X15144540Y-11589980D01*
X15144540Y-11564980D02*
X15119540Y-11589980D01*
X15119540Y-11739980D02*
X15144540Y-11764980D01*
X15144540Y-11739980D02*
X15119540Y-11764980D01*
X15225958Y-7886696D02*
X15250958Y-7911696D01*
X15250958Y-7886696D02*
X15225958Y-7911696D01*
X15294540Y-6664980D02*
X15319540Y-6689980D01*
X15319540Y-6664980D02*
X15294540Y-6689980D01*
X15294540Y-7364980D02*
X15319540Y-7389980D01*
X15319540Y-7364980D02*
X15294540Y-7389980D01*
X15294540Y-9464980D02*
X15319540Y-9489980D01*
X15319540Y-9464980D02*
X15294540Y-9489980D01*
X15294540Y-9989980D02*
X15319540Y-10014980D01*
X15319540Y-9989980D02*
X15294540Y-10014980D01*
X15294540Y-11564980D02*
X15319540Y-11589980D01*
X15319540Y-11564980D02*
X15294540Y-11589980D01*
X15294540Y-11739980D02*
X15319540Y-11764980D01*
X15319540Y-11739980D02*
X15294540Y-11764980D01*
X15418000Y-8648900D02*
X15443000Y-8673900D01*
X15443000Y-8648900D02*
X15418000Y-8673900D01*
X15469540Y-6664980D02*
X15494540Y-6689980D01*
X15494540Y-6664980D02*
X15469540Y-6689980D01*
X15469540Y-9989980D02*
X15494540Y-10014980D01*
X15494540Y-9989980D02*
X15469540Y-10014980D01*
X15469540Y-11564980D02*
X15494540Y-11589980D01*
X15494540Y-11564980D02*
X15469540Y-11589980D01*
X15469540Y-11739980D02*
X15494540Y-11764980D01*
X15494540Y-11739980D02*
X15469540Y-11764980D01*
X15644540Y-11039980D02*
X15669540Y-11064980D01*
X15669540Y-11039980D02*
X15644540Y-11064980D01*
X15644540Y-11389980D02*
X15669540Y-11414980D01*
X15669540Y-11389980D02*
X15644540Y-11414980D01*
X15644540Y-11564980D02*
X15669540Y-11589980D01*
X15669540Y-11564980D02*
X15644540Y-11589980D01*
X15644540Y-11739980D02*
X15669540Y-11764980D01*
X15669540Y-11739980D02*
X15644540Y-11764980D01*
X15788840Y-8849560D02*
X15813840Y-8874560D01*
X15813840Y-8849560D02*
X15788840Y-8874560D01*
X15819540Y-10864980D02*
X15844540Y-10889980D01*
X15844540Y-10864980D02*
X15819540Y-10889980D01*
X15819540Y-11389980D02*
X15844540Y-11414980D01*
X15844540Y-11389980D02*
X15819540Y-11414980D01*
X15819540Y-11564980D02*
X15844540Y-11589980D01*
X15844540Y-11564980D02*
X15819540Y-11589980D01*
X15819540Y-11739980D02*
X15844540Y-11764980D01*
X15844540Y-11739980D02*
X15819540Y-11764980D01*
X15862500Y-8895280D02*
X15887500Y-8920280D01*
X15887500Y-8895280D02*
X15862500Y-8920280D01*
X15994540Y-10689980D02*
X16019540Y-10714980D01*
X16019540Y-10689980D02*
X15994540Y-10714980D01*
X15994540Y-11214980D02*
X16019540Y-11239980D01*
X16019540Y-11214980D02*
X15994540Y-11239980D01*
X15994540Y-11389980D02*
X16019540Y-11414980D01*
X16019540Y-11389980D02*
X15994540Y-11414980D01*
X15994540Y-11564980D02*
X16019540Y-11589980D01*
X16019540Y-11564980D02*
X15994540Y-11589980D01*
X15994540Y-11739980D02*
X16019540Y-11764980D01*
X16019540Y-11739980D02*
X15994540Y-11764980D01*
X16050460Y-9309300D02*
X16075460Y-9334300D01*
X16075460Y-9309300D02*
X16050460Y-9334300D01*
X16169540Y-11039980D02*
X16194540Y-11064980D01*
X16194540Y-11039980D02*
X16169540Y-11064980D01*
X16169540Y-11214980D02*
X16194540Y-11239980D01*
X16194540Y-11214980D02*
X16169540Y-11239980D01*
X16169540Y-11389980D02*
X16194540Y-11414980D01*
X16194540Y-11389980D02*
X16169540Y-11414980D01*
X16169540Y-11564980D02*
X16194540Y-11589980D01*
X16194540Y-11564980D02*
X16169540Y-11589980D01*
X16169540Y-11739980D02*
X16194540Y-11764980D01*
X16194540Y-11739980D02*
X16169540Y-11764980D01*
X16344540Y-10864980D02*
X16369540Y-10889980D01*
X16369540Y-10864980D02*
X16344540Y-10889980D01*
X16344540Y-11039980D02*
X16369540Y-11064980D01*
X16369540Y-11039980D02*
X16344540Y-11064980D01*
X16344540Y-11214980D02*
X16369540Y-11239980D01*
X16369540Y-11214980D02*
X16344540Y-11239980D01*
X16344540Y-11389980D02*
X16369540Y-11414980D01*
X16369540Y-11389980D02*
X16344540Y-11414980D01*
X16344540Y-11564980D02*
X16369540Y-11589980D01*
X16369540Y-11564980D02*
X16344540Y-11589980D01*
X16344540Y-11739980D02*
X16369540Y-11764980D01*
X16369540Y-11739980D02*
X16344540Y-11764980D01*
X16519540Y-9639980D02*
X16544540Y-9664980D01*
X16544540Y-9639980D02*
X16519540Y-9664980D01*
X16519540Y-10514980D02*
X16544540Y-10539980D01*
X16544540Y-10514980D02*
X16519540Y-10539980D01*
X16519540Y-10689980D02*
X16544540Y-10714980D01*
X16544540Y-10689980D02*
X16519540Y-10714980D01*
X16519540Y-10864980D02*
X16544540Y-10889980D01*
X16544540Y-10864980D02*
X16519540Y-10889980D01*
X16519540Y-11039980D02*
X16544540Y-11064980D01*
X16544540Y-11039980D02*
X16519540Y-11064980D01*
X16519540Y-11214980D02*
X16544540Y-11239980D01*
X16544540Y-11214980D02*
X16519540Y-11239980D01*
X16519540Y-11389980D02*
X16544540Y-11414980D01*
X16544540Y-11389980D02*
X16519540Y-11414980D01*
X16519540Y-11564980D02*
X16544540Y-11589980D01*
X16544540Y-11564980D02*
X16519540Y-11589980D01*
X16519540Y-11739980D02*
X16544540Y-11764980D01*
X16544540Y-11739980D02*
X16519540Y-11764980D01*
X16694540Y-9639980D02*
X16719540Y-9664980D01*
X16719540Y-9639980D02*
X16694540Y-9664980D01*
X16694540Y-10514980D02*
X16719540Y-10539980D01*
X16719540Y-10514980D02*
X16694540Y-10539980D01*
X16694540Y-10689980D02*
X16719540Y-10714980D01*
X16719540Y-10689980D02*
X16694540Y-10714980D01*
X16694540Y-10864980D02*
X16719540Y-10889980D01*
X16719540Y-10864980D02*
X16694540Y-10889980D01*
X16694540Y-11039980D02*
X16719540Y-11064980D01*
X16719540Y-11039980D02*
X16694540Y-11064980D01*
X16694540Y-11214980D02*
X16719540Y-11239980D01*
X16719540Y-11214980D02*
X16694540Y-11239980D01*
X16694540Y-11389980D02*
X16719540Y-11414980D01*
X16719540Y-11389980D02*
X16694540Y-11414980D01*
X16694540Y-11564980D02*
X16719540Y-11589980D01*
X16719540Y-11564980D02*
X16694540Y-11589980D01*
X16694540Y-11739980D02*
X16719540Y-11764980D01*
X16719540Y-11739980D02*
X16694540Y-11764980D01*
X16869540Y-8589980D02*
X16894540Y-8614980D01*
X16894540Y-8589980D02*
X16869540Y-8614980D01*
X16869540Y-10339980D02*
X16894540Y-10364980D01*
X16894540Y-10339980D02*
X16869540Y-10364980D01*
X16869540Y-10514980D02*
X16894540Y-10539980D01*
X16894540Y-10514980D02*
X16869540Y-10539980D01*
X16869540Y-10689980D02*
X16894540Y-10714980D01*
X16894540Y-10689980D02*
X16869540Y-10714980D01*
X16869540Y-10864980D02*
X16894540Y-10889980D01*
X16894540Y-10864980D02*
X16869540Y-10889980D01*
X16869540Y-11039980D02*
X16894540Y-11064980D01*
X16894540Y-11039980D02*
X16869540Y-11064980D01*
X16869540Y-11214980D02*
X16894540Y-11239980D01*
X16894540Y-11214980D02*
X16869540Y-11239980D01*
X16869540Y-11389980D02*
X16894540Y-11414980D01*
X16894540Y-11389980D02*
X16869540Y-11414980D01*
X16869540Y-11564980D02*
X16894540Y-11589980D01*
X16894540Y-11564980D02*
X16869540Y-11589980D01*
X16869540Y-11739980D02*
X16894540Y-11764980D01*
X16894540Y-11739980D02*
X16869540Y-11764980D01*
X17044540Y-10514980D02*
X17069540Y-10539980D01*
X17069540Y-10514980D02*
X17044540Y-10539980D01*
X17044540Y-10689980D02*
X17069540Y-10714980D01*
X17069540Y-10689980D02*
X17044540Y-10714980D01*
X17044540Y-10864980D02*
X17069540Y-10889980D01*
X17069540Y-10864980D02*
X17044540Y-10889980D01*
X17044540Y-11039980D02*
X17069540Y-11064980D01*
X17069540Y-11039980D02*
X17044540Y-11064980D01*
X17044540Y-11214980D02*
X17069540Y-11239980D01*
X17069540Y-11214980D02*
X17044540Y-11239980D01*
X17044540Y-11389980D02*
X17069540Y-11414980D01*
X17069540Y-11389980D02*
X17044540Y-11414980D01*
X17044540Y-11564980D02*
X17069540Y-11589980D01*
X17069540Y-11564980D02*
X17044540Y-11589980D01*
X17044540Y-11739980D02*
X17069540Y-11764980D01*
X17069540Y-11739980D02*
X17044540Y-11764980D01*
X17219540Y-8414980D02*
X17244540Y-8439980D01*
X17244540Y-8414980D02*
X17219540Y-8439980D01*
X17219540Y-9289980D02*
X17244540Y-9314980D01*
X17244540Y-9289980D02*
X17219540Y-9314980D01*
X17219540Y-9464980D02*
X17244540Y-9489980D01*
X17244540Y-9464980D02*
X17219540Y-9489980D01*
X17219540Y-9639980D02*
X17244540Y-9664980D01*
X17244540Y-9639980D02*
X17219540Y-9664980D01*
X17219540Y-10164980D02*
X17244540Y-10189980D01*
X17244540Y-10164980D02*
X17219540Y-10189980D01*
X17219540Y-10514980D02*
X17244540Y-10539980D01*
X17244540Y-10514980D02*
X17219540Y-10539980D01*
X17219540Y-10689980D02*
X17244540Y-10714980D01*
X17244540Y-10689980D02*
X17219540Y-10714980D01*
X17219540Y-10864980D02*
X17244540Y-10889980D01*
X17244540Y-10864980D02*
X17219540Y-10889980D01*
X17219540Y-11039980D02*
X17244540Y-11064980D01*
X17244540Y-11039980D02*
X17219540Y-11064980D01*
X17219540Y-11214980D02*
X17244540Y-11239980D01*
X17244540Y-11214980D02*
X17219540Y-11239980D01*
X17219540Y-11389980D02*
X17244540Y-11414980D01*
X17244540Y-11389980D02*
X17219540Y-11414980D01*
X17219540Y-11564980D02*
X17244540Y-11589980D01*
X17244540Y-11564980D02*
X17219540Y-11589980D01*
X17219540Y-11739980D02*
X17244540Y-11764980D01*
X17244540Y-11739980D02*
X17219540Y-11764980D01*
D13*
X15859520Y-9014460D02*
G75*
G03*
X15859520Y-9014460I-15000J0D01*
G01*
D14*
X13075920Y-7125020D02*
X13075920Y-7165020D01*
X13055920Y-7145020D02*
X13095920Y-7145020D01*
X13075920Y-8308660D02*
X13075920Y-8348660D01*
X13055920Y-8328660D02*
X13095920Y-8328660D01*
X13075920Y-8707440D02*
X13075920Y-8747440D01*
X13055920Y-8727440D02*
X13095920Y-8727440D01*
X13075920Y-9098600D02*
X13075920Y-9138600D01*
X13055920Y-9118600D02*
X13095920Y-9118600D01*
X13075950Y-9484680D02*
X13075950Y-9524680D01*
X13055950Y-9504680D02*
X13095950Y-9504680D01*
X13075950Y-9875840D02*
X13075950Y-9915840D01*
X13055950Y-9895840D02*
X13095950Y-9895840D01*
X13075950Y-10267000D02*
X13075950Y-10307000D01*
X13055950Y-10287000D02*
X13095950Y-10287000D01*
X13075950Y-10653080D02*
X13075950Y-10693080D01*
X13055950Y-10673080D02*
X13095950Y-10673080D01*
X13075950Y-11044240D02*
X13075950Y-11084240D01*
X13055950Y-11064240D02*
X13095950Y-11064240D01*
X13075950Y-11432860D02*
X13075950Y-11472860D01*
X13055950Y-11452860D02*
X13095950Y-11452860D01*
X13075980Y-7516180D02*
X13075980Y-7556180D01*
X13055980Y-7536180D02*
X13095980Y-7536180D01*
X13078460Y-7912420D02*
X13078460Y-7952420D01*
X13058460Y-7932420D02*
X13098460Y-7932420D01*
X13619480Y-6925880D02*
X13619480Y-6965880D01*
X13599480Y-6945880D02*
X13639480Y-6945880D01*
X13619480Y-7320600D02*
X13619480Y-7360600D01*
X13599480Y-7340600D02*
X13639480Y-7340600D01*
X13619660Y-7711760D02*
X13619660Y-7751760D01*
X13599660Y-7731760D02*
X13639660Y-7731760D01*
X13620180Y-8905560D02*
X13620180Y-8945560D01*
X13600180Y-8925560D02*
X13640180Y-8925560D01*
X13620180Y-9291640D02*
X13620180Y-9331640D01*
X13600180Y-9311640D02*
X13640180Y-9311640D01*
X13620180Y-9677720D02*
X13620180Y-9717720D01*
X13600180Y-9697720D02*
X13640180Y-9697720D01*
X13620180Y-10071420D02*
X13620180Y-10111420D01*
X13600180Y-10091420D02*
X13640180Y-10091420D01*
X13620180Y-10460040D02*
X13620180Y-10500040D01*
X13600180Y-10480040D02*
X13640180Y-10480040D01*
X13620180Y-10848660D02*
X13620180Y-10888660D01*
X13600180Y-10868660D02*
X13640180Y-10868660D01*
X13620180Y-11239820D02*
X13620180Y-11279820D01*
X13600180Y-11259820D02*
X13640180Y-11259820D01*
X13621060Y-8110540D02*
X13621060Y-8150540D01*
X13601060Y-8130540D02*
X13641060Y-8130540D01*
X13622020Y-8509320D02*
X13622020Y-8549320D01*
X13602020Y-8529320D02*
X13642020Y-8529320D01*
X14274800Y-8300540D02*
X14274800Y-8340540D01*
X14254800Y-8320540D02*
X14294800Y-8320540D01*
X14274800Y-9867720D02*
X14274800Y-9907720D01*
X14254800Y-9887720D02*
X14294800Y-9887720D01*
X14362710Y-8079000D02*
X14362710Y-8119000D01*
X14342710Y-8099000D02*
X14382710Y-8099000D01*
X14369270Y-10063800D02*
X14369270Y-10103800D01*
X14349270Y-10083800D02*
X14389270Y-10083800D01*
X14432280Y-8833110D02*
X14432280Y-8873110D01*
X14412280Y-8853110D02*
X14452280Y-8853110D01*
X14434530Y-9365010D02*
X14434530Y-9405010D01*
X14414530Y-9385010D02*
X14454530Y-9385010D01*
X14441170Y-7575870D02*
X14441170Y-7615870D01*
X14421170Y-7595870D02*
X14461170Y-7595870D01*
X14442440Y-10536240D02*
X14442440Y-10576240D01*
X14422440Y-10556240D02*
X14462440Y-10556240D01*
X14457680Y-7254560D02*
X14457680Y-7294560D01*
X14437680Y-7274560D02*
X14477680Y-7274560D01*
X14476300Y-10985820D02*
X14476300Y-11025820D01*
X14456300Y-11005820D02*
X14496300Y-11005820D01*
X14476300Y-11342260D02*
X14476300Y-11382260D01*
X14456300Y-11362260D02*
X14496300Y-11362260D01*
X14483080Y-6858320D02*
X14483080Y-6898320D01*
X14463080Y-6878320D02*
X14503080Y-6878320D01*
X14554200Y-9095560D02*
X14554200Y-9135560D01*
X14534200Y-9115560D02*
X14574200Y-9115560D01*
X14597110Y-6637610D02*
X14597110Y-6677610D01*
X14577110Y-6657610D02*
X14617110Y-6657610D01*
X14726920Y-7117400D02*
X14726920Y-7157400D01*
X14706920Y-7137400D02*
X14746920Y-7137400D01*
X15143480Y-7165660D02*
X15143480Y-7205660D01*
X15123480Y-7185660D02*
X15163480Y-7185660D01*
X15184120Y-6911660D02*
X15184120Y-6951660D01*
X15164120Y-6931660D02*
X15204120Y-6931660D01*
X15333980Y-7038660D02*
X15333980Y-7078660D01*
X15313980Y-7058660D02*
X15353980Y-7058660D01*
X15364460Y-9286560D02*
X15364460Y-9326560D01*
X15344460Y-9306560D02*
X15384460Y-9306560D01*
X16314100Y-9050020D02*
X16314100Y-9090020D01*
X16294100Y-9070020D02*
X16334100Y-9070020D01*
X16316550Y-8945692D02*
X16316550Y-8985692D01*
X16296550Y-8965692D02*
X16336550Y-8965692D01*
X16476980Y-10257540D02*
X16476980Y-10297540D01*
X16456980Y-10277540D02*
X16496980Y-10277540D01*
X16661000Y-9835200D02*
X16661000Y-9875200D01*
X16641000Y-9855200D02*
X16681000Y-9855200D01*
X16827500Y-9140540D02*
X16827500Y-9180540D01*
X16807500Y-9160540D02*
X16847500Y-9160540D01*
X16891000Y-9477060D02*
X16891000Y-9517060D01*
X16871000Y-9497060D02*
X16911000Y-9497060D01*
X17119600Y-9804720D02*
X17119600Y-9844720D01*
X17099600Y-9824720D02*
X17139600Y-9824720D01*
X17172970Y-8654130D02*
X17172970Y-8694130D01*
X17152970Y-8674130D02*
X17192970Y-8674130D01*
D10*
X12806476Y-7716316D02*
X12806476Y-7645604D01*
X12735764Y-7645604D01*
X12735764Y-7716316D01*
X12806476Y-7716316D01*
X12806476Y-7970316D02*
X12806476Y-7899604D01*
X12735764Y-7899604D01*
X12735764Y-7970316D01*
X12806476Y-7970316D01*
X12806476Y-8224316D02*
X12806476Y-8153604D01*
X12735764Y-8153604D01*
X12735764Y-8224316D01*
X12806476Y-8224316D01*
X12806476Y-8478316D02*
X12806476Y-8407604D01*
X12735764Y-8407604D01*
X12735764Y-8478316D01*
X12806476Y-8478316D01*
X12806476Y-8732316D02*
X12806476Y-8661604D01*
X12735764Y-8661604D01*
X12735764Y-8732316D01*
X12806476Y-8732316D01*
X12806476Y-8986316D02*
X12806476Y-8915604D01*
X12735764Y-8915604D01*
X12735764Y-8986316D01*
X12806476Y-8986316D01*
X12806476Y-9240316D02*
X12806476Y-9169604D01*
X12735764Y-9169604D01*
X12735764Y-9240316D01*
X12806476Y-9240316D01*
X12806476Y-9494316D02*
X12806476Y-9423604D01*
X12735764Y-9423604D01*
X12735764Y-9494316D01*
X12806476Y-9494316D01*
X12806476Y-9748316D02*
X12806476Y-9677604D01*
X12735764Y-9677604D01*
X12735764Y-9748316D01*
X12806476Y-9748316D01*
X12806476Y-10002316D02*
X12806476Y-9931604D01*
X12735764Y-9931604D01*
X12735764Y-10002316D01*
X12806476Y-10002316D01*
X12806476Y-10256316D02*
X12806476Y-10185604D01*
X12735764Y-10185604D01*
X12735764Y-10256316D01*
X12806476Y-10256316D01*
X12806476Y-10510316D02*
X12806476Y-10439604D01*
X12735764Y-10439604D01*
X12735764Y-10510316D01*
X12806476Y-10510316D01*
X12806476Y-10764316D02*
X12806476Y-10693604D01*
X12735764Y-10693604D01*
X12735764Y-10764316D01*
X12806476Y-10764316D01*
X15239256Y-10297416D02*
X15239256Y-10226704D01*
X15168544Y-10226704D01*
X15168544Y-10297416D01*
X15239256Y-10297416D01*
X15239256Y-10551416D02*
X15239256Y-10480704D01*
X15168544Y-10480704D01*
X15168544Y-10551416D01*
X15239256Y-10551416D01*
X15239256Y-10805416D02*
X15239256Y-10734704D01*
X15168544Y-10734704D01*
X15168544Y-10805416D01*
X15239256Y-10805416D01*
X15239256Y-11059416D02*
X15239256Y-10988704D01*
X15168544Y-10988704D01*
X15168544Y-11059416D01*
X15239256Y-11059416D01*
X15239256Y-11313416D02*
X15239256Y-11242704D01*
X15168544Y-11242704D01*
X15168544Y-11313416D01*
X15239256Y-11313416D01*
X15493256Y-10297416D02*
X15493256Y-10226704D01*
X15422544Y-10226704D01*
X15422544Y-10297416D01*
X15493256Y-10297416D01*
X15493256Y-10551416D02*
X15493256Y-10480704D01*
X15422544Y-10480704D01*
X15422544Y-10551416D01*
X15493256Y-10551416D01*
X15493256Y-10805416D02*
X15493256Y-10734704D01*
X15422544Y-10734704D01*
X15422544Y-10805416D01*
X15493256Y-10805416D01*
X15493256Y-11059416D02*
X15493256Y-10988704D01*
X15422544Y-10988704D01*
X15422544Y-11059416D01*
X15493256Y-11059416D01*
X15493256Y-11313416D02*
X15493256Y-11242704D01*
X15422544Y-11242704D01*
X15422544Y-11313416D01*
X15493256Y-11313416D01*
X16966996Y-6854176D02*
X16966996Y-6783464D01*
X16896284Y-6783464D01*
X16896284Y-6854176D01*
X16966996Y-6854176D01*
X16966996Y-7104176D02*
X16966996Y-7033464D01*
X16896284Y-7033464D01*
X16896284Y-7104176D01*
X16966996Y-7104176D01*
X16966996Y-7710156D02*
X16966996Y-7639444D01*
X16896284Y-7639444D01*
X16896284Y-7710156D01*
X16966996Y-7710156D01*
X16966996Y-7960156D02*
X16966996Y-7889444D01*
X16896284Y-7889444D01*
X16896284Y-7960156D01*
X16966996Y-7960156D01*
D15*
X17131640Y-7288820D02*
X17191640Y-7228820D01*
X17131640Y-7168820D01*
X17071640Y-7228820D01*
X17131640Y-7288820D01*
X17131640Y-8144800D02*
X17191640Y-8084800D01*
X17131640Y-8024800D01*
X17071640Y-8084800D01*
X17131640Y-8144800D01*
D11*
X12764659Y-12177276D02*
X12764659Y-11977276D01*
X12812278Y-11977276D01*
X12840849Y-11986800D01*
X12859897Y-12005848D01*
X12869421Y-12024895D01*
X12878945Y-12062990D01*
X12878945Y-12091562D01*
X12869421Y-12129657D01*
X12859897Y-12148705D01*
X12840849Y-12167752D01*
X12812278Y-12177276D01*
X12764659Y-12177276D01*
X12964659Y-12177276D02*
X12964659Y-12043943D01*
X12964659Y-12082038D02*
X12974183Y-12062990D01*
X12983707Y-12053467D01*
X13002754Y-12043943D01*
X13021802Y-12043943D01*
X13088468Y-12177276D02*
X13088468Y-12043943D01*
X13088468Y-11977276D02*
X13078945Y-11986800D01*
X13088468Y-11996324D01*
X13097992Y-11986800D01*
X13088468Y-11977276D01*
X13088468Y-11996324D01*
X13212278Y-12177276D02*
X13193230Y-12167752D01*
X13183707Y-12148705D01*
X13183707Y-11977276D01*
X13317040Y-12177276D02*
X13297992Y-12167752D01*
X13288468Y-12148705D01*
X13288468Y-11977276D01*
X13545611Y-12177276D02*
X13545611Y-11977276D01*
X13612278Y-12120133D01*
X13678945Y-11977276D01*
X13678945Y-12177276D01*
X13859897Y-12177276D02*
X13859897Y-12072514D01*
X13850373Y-12053467D01*
X13831326Y-12043943D01*
X13793230Y-12043943D01*
X13774183Y-12053467D01*
X13859897Y-12167752D02*
X13840849Y-12177276D01*
X13793230Y-12177276D01*
X13774183Y-12167752D01*
X13764659Y-12148705D01*
X13764659Y-12129657D01*
X13774183Y-12110609D01*
X13793230Y-12101086D01*
X13840849Y-12101086D01*
X13859897Y-12091562D01*
X13955135Y-12043943D02*
X13955135Y-12243943D01*
X13955135Y-12053467D02*
X13974183Y-12043943D01*
X14012278Y-12043943D01*
X14031326Y-12053467D01*
X14040849Y-12062990D01*
X14050373Y-12082038D01*
X14050373Y-12139181D01*
X14040849Y-12158228D01*
X14031326Y-12167752D01*
X14012278Y-12177276D01*
X13974183Y-12177276D01*
X13955135Y-12167752D01*
X14136088Y-12158228D02*
X14145611Y-12167752D01*
X14136088Y-12177276D01*
X14126564Y-12167752D01*
X14136088Y-12158228D01*
X14136088Y-12177276D01*
X14136088Y-12053467D02*
X14145611Y-12062990D01*
X14136088Y-12072514D01*
X14126564Y-12062990D01*
X14136088Y-12053467D01*
X14136088Y-12072514D01*
D12*
X12482040Y-12494300D02*
X12507040Y-12519300D01*
X12507040Y-12494300D02*
X12482040Y-12519300D01*
D11*
X12802754Y-12397276D02*
X12821802Y-12397276D01*
X12840849Y-12406800D01*
X12850373Y-12416324D01*
X12859897Y-12435371D01*
X12869421Y-12473467D01*
X12869421Y-12521086D01*
X12859897Y-12559181D01*
X12850373Y-12578228D01*
X12840849Y-12587752D01*
X12821802Y-12597276D01*
X12802754Y-12597276D01*
X12783707Y-12587752D01*
X12774183Y-12578228D01*
X12764659Y-12559181D01*
X12755135Y-12521086D01*
X12755135Y-12473467D01*
X12764659Y-12435371D01*
X12774183Y-12416324D01*
X12783707Y-12406800D01*
X12802754Y-12397276D01*
X12955135Y-12578228D02*
X12964659Y-12587752D01*
X12955135Y-12597276D01*
X12945611Y-12587752D01*
X12955135Y-12578228D01*
X12955135Y-12597276D01*
X13040849Y-12416324D02*
X13050373Y-12406800D01*
X13069421Y-12397276D01*
X13117040Y-12397276D01*
X13136088Y-12406800D01*
X13145611Y-12416324D01*
X13155135Y-12435371D01*
X13155135Y-12454419D01*
X13145611Y-12482990D01*
X13031326Y-12597276D01*
X13155135Y-12597276D01*
X13336088Y-12397276D02*
X13240849Y-12397276D01*
X13231326Y-12492514D01*
X13240849Y-12482990D01*
X13259897Y-12473467D01*
X13307516Y-12473467D01*
X13326564Y-12482990D01*
X13336088Y-12492514D01*
X13345611Y-12511562D01*
X13345611Y-12559181D01*
X13336088Y-12578228D01*
X13326564Y-12587752D01*
X13307516Y-12597276D01*
X13259897Y-12597276D01*
X13240849Y-12587752D01*
X13231326Y-12578228D01*
X13469421Y-12397276D02*
X13488468Y-12397276D01*
X13507516Y-12406800D01*
X13517040Y-12416324D01*
X13526564Y-12435371D01*
X13536088Y-12473467D01*
X13536088Y-12521086D01*
X13526564Y-12559181D01*
X13517040Y-12578228D01*
X13507516Y-12587752D01*
X13488468Y-12597276D01*
X13469421Y-12597276D01*
X13450373Y-12587752D01*
X13440849Y-12578228D01*
X13431326Y-12559181D01*
X13421802Y-12521086D01*
X13421802Y-12473467D01*
X13431326Y-12435371D01*
X13440849Y-12416324D01*
X13450373Y-12406800D01*
X13469421Y-12397276D01*
X13621802Y-12597276D02*
X13621802Y-12463943D01*
X13621802Y-12482990D02*
X13631326Y-12473467D01*
X13650373Y-12463943D01*
X13678945Y-12463943D01*
X13697992Y-12473467D01*
X13707516Y-12492514D01*
X13707516Y-12597276D01*
X13707516Y-12492514D02*
X13717040Y-12473467D01*
X13736088Y-12463943D01*
X13764659Y-12463943D01*
X13783707Y-12473467D01*
X13793230Y-12492514D01*
X13793230Y-12597276D01*
X13888468Y-12597276D02*
X13888468Y-12463943D01*
X13888468Y-12482990D02*
X13897992Y-12473467D01*
X13917040Y-12463943D01*
X13945611Y-12463943D01*
X13964659Y-12473467D01*
X13974183Y-12492514D01*
X13974183Y-12597276D01*
X13974183Y-12492514D02*
X13983707Y-12473467D01*
X14002754Y-12463943D01*
X14031326Y-12463943D01*
X14050373Y-12473467D01*
X14059897Y-12492514D01*
X14059897Y-12597276D01*
X14450373Y-12387752D02*
X14278945Y-12644895D01*
X14707516Y-12397276D02*
X14726564Y-12397276D01*
X14745611Y-12406800D01*
X14755135Y-12416324D01*
X14764659Y-12435371D01*
X14774183Y-12473467D01*
X14774183Y-12521086D01*
X14764659Y-12559181D01*
X14755135Y-12578228D01*
X14745611Y-12587752D01*
X14726564Y-12597276D01*
X14707516Y-12597276D01*
X14688468Y-12587752D01*
X14678945Y-12578228D01*
X14669421Y-12559181D01*
X14659897Y-12521086D01*
X14659897Y-12473467D01*
X14669421Y-12435371D01*
X14678945Y-12416324D01*
X14688468Y-12406800D01*
X14707516Y-12397276D01*
X14859897Y-12578228D02*
X14869421Y-12587752D01*
X14859897Y-12597276D01*
X14850373Y-12587752D01*
X14859897Y-12578228D01*
X14859897Y-12597276D01*
X14993230Y-12397276D02*
X15012278Y-12397276D01*
X15031326Y-12406800D01*
X15040849Y-12416324D01*
X15050373Y-12435371D01*
X15059897Y-12473467D01*
X15059897Y-12521086D01*
X15050373Y-12559181D01*
X15040849Y-12578228D01*
X15031326Y-12587752D01*
X15012278Y-12597276D01*
X14993230Y-12597276D01*
X14974183Y-12587752D01*
X14964659Y-12578228D01*
X14955135Y-12559181D01*
X14945611Y-12521086D01*
X14945611Y-12473467D01*
X14955135Y-12435371D01*
X14964659Y-12416324D01*
X14974183Y-12406800D01*
X14993230Y-12397276D01*
X15183707Y-12397276D02*
X15202754Y-12397276D01*
X15221802Y-12406800D01*
X15231326Y-12416324D01*
X15240849Y-12435371D01*
X15250373Y-12473467D01*
X15250373Y-12521086D01*
X15240849Y-12559181D01*
X15231326Y-12578228D01*
X15221802Y-12587752D01*
X15202754Y-12597276D01*
X15183707Y-12597276D01*
X15164659Y-12587752D01*
X15155135Y-12578228D01*
X15145611Y-12559181D01*
X15136088Y-12521086D01*
X15136088Y-12473467D01*
X15145611Y-12435371D01*
X15155135Y-12416324D01*
X15164659Y-12406800D01*
X15183707Y-12397276D01*
X15345611Y-12597276D02*
X15383707Y-12597276D01*
X15402754Y-12587752D01*
X15412278Y-12578228D01*
X15431326Y-12549657D01*
X15440849Y-12511562D01*
X15440849Y-12435371D01*
X15431326Y-12416324D01*
X15421802Y-12406800D01*
X15402754Y-12397276D01*
X15364659Y-12397276D01*
X15345611Y-12406800D01*
X15336088Y-12416324D01*
X15326564Y-12435371D01*
X15326564Y-12482990D01*
X15336088Y-12502038D01*
X15345611Y-12511562D01*
X15364659Y-12521086D01*
X15402754Y-12521086D01*
X15421802Y-12511562D01*
X15431326Y-12502038D01*
X15440849Y-12482990D01*
X15555135Y-12482990D02*
X15536088Y-12473467D01*
X15526564Y-12463943D01*
X15517040Y-12444895D01*
X15517040Y-12435371D01*
X15526564Y-12416324D01*
X15536088Y-12406800D01*
X15555135Y-12397276D01*
X15593230Y-12397276D01*
X15612278Y-12406800D01*
X15621802Y-12416324D01*
X15631326Y-12435371D01*
X15631326Y-12444895D01*
X15621802Y-12463943D01*
X15612278Y-12473467D01*
X15593230Y-12482990D01*
X15555135Y-12482990D01*
X15536088Y-12492514D01*
X15526564Y-12502038D01*
X15517040Y-12521086D01*
X15517040Y-12559181D01*
X15526564Y-12578228D01*
X15536088Y-12587752D01*
X15555135Y-12597276D01*
X15593230Y-12597276D01*
X15612278Y-12587752D01*
X15621802Y-12578228D01*
X15631326Y-12559181D01*
X15631326Y-12521086D01*
X15621802Y-12502038D01*
X15612278Y-12492514D01*
X15593230Y-12482990D01*
X15707516Y-12397276D02*
X15707516Y-12435371D01*
X15783707Y-12397276D02*
X15783707Y-12435371D01*
X16078945Y-12673467D02*
X16069421Y-12663943D01*
X16050373Y-12635371D01*
X16040849Y-12616324D01*
X16031326Y-12587752D01*
X16021802Y-12540133D01*
X16021802Y-12502038D01*
X16031326Y-12454419D01*
X16040849Y-12425848D01*
X16050373Y-12406800D01*
X16069421Y-12378228D01*
X16078945Y-12368705D01*
X16259897Y-12597276D02*
X16145611Y-12597276D01*
X16202754Y-12597276D02*
X16202754Y-12397276D01*
X16183707Y-12425848D01*
X16164659Y-12444895D01*
X16145611Y-12454419D01*
X16431326Y-12463943D02*
X16431326Y-12597276D01*
X16383707Y-12387752D02*
X16336088Y-12530609D01*
X16459897Y-12530609D01*
X16640849Y-12597276D02*
X16526564Y-12597276D01*
X16583707Y-12597276D02*
X16583707Y-12397276D01*
X16564659Y-12425848D01*
X16545611Y-12444895D01*
X16526564Y-12454419D01*
X16878945Y-12597276D02*
X16878945Y-12397276D01*
X16964659Y-12597276D02*
X16964659Y-12492514D01*
X16955135Y-12473467D01*
X16936088Y-12463943D01*
X16907516Y-12463943D01*
X16888469Y-12473467D01*
X16878945Y-12482990D01*
X17088469Y-12597276D02*
X17069421Y-12587752D01*
X17059897Y-12578228D01*
X17050373Y-12559181D01*
X17050373Y-12502038D01*
X17059897Y-12482990D01*
X17069421Y-12473467D01*
X17088469Y-12463943D01*
X17117040Y-12463943D01*
X17136088Y-12473467D01*
X17145611Y-12482990D01*
X17155135Y-12502038D01*
X17155135Y-12559181D01*
X17145611Y-12578228D01*
X17136088Y-12587752D01*
X17117040Y-12597276D01*
X17088469Y-12597276D01*
X17269421Y-12597276D02*
X17250373Y-12587752D01*
X17240850Y-12568705D01*
X17240850Y-12397276D01*
X17421802Y-12587752D02*
X17402754Y-12597276D01*
X17364659Y-12597276D01*
X17345611Y-12587752D01*
X17336088Y-12568705D01*
X17336088Y-12492514D01*
X17345611Y-12473467D01*
X17364659Y-12463943D01*
X17402754Y-12463943D01*
X17421802Y-12473467D01*
X17431326Y-12492514D01*
X17431326Y-12511562D01*
X17336088Y-12530609D01*
X17507516Y-12587752D02*
X17526564Y-12597276D01*
X17564659Y-12597276D01*
X17583707Y-12587752D01*
X17593230Y-12568705D01*
X17593230Y-12559181D01*
X17583707Y-12540133D01*
X17564659Y-12530609D01*
X17536088Y-12530609D01*
X17517040Y-12521086D01*
X17507516Y-12502038D01*
X17507516Y-12492514D01*
X17517040Y-12473467D01*
X17536088Y-12463943D01*
X17564659Y-12463943D01*
X17583707Y-12473467D01*
X17659897Y-12673467D02*
X17669421Y-12663943D01*
X17688469Y-12635371D01*
X17697992Y-12616324D01*
X17707516Y-12587752D01*
X17717040Y-12540133D01*
X17717040Y-12502038D01*
X17707516Y-12454419D01*
X17697992Y-12425848D01*
X17688469Y-12406800D01*
X17669421Y-12378228D01*
X17659897Y-12368705D01*
D13*
X12507040Y-12770800D02*
G75*
G03*
X12507040Y-12770800I-15000J0D01*
G01*
D11*
X12802754Y-12661276D02*
X12821802Y-12661276D01*
X12840849Y-12670800D01*
X12850373Y-12680324D01*
X12859897Y-12699371D01*
X12869421Y-12737467D01*
X12869421Y-12785086D01*
X12859897Y-12823181D01*
X12850373Y-12842228D01*
X12840849Y-12851752D01*
X12821802Y-12861276D01*
X12802754Y-12861276D01*
X12783707Y-12851752D01*
X12774183Y-12842228D01*
X12764659Y-12823181D01*
X12755135Y-12785086D01*
X12755135Y-12737467D01*
X12764659Y-12699371D01*
X12774183Y-12680324D01*
X12783707Y-12670800D01*
X12802754Y-12661276D01*
X12955135Y-12842228D02*
X12964659Y-12851752D01*
X12955135Y-12861276D01*
X12945611Y-12851752D01*
X12955135Y-12842228D01*
X12955135Y-12861276D01*
X13031326Y-12661276D02*
X13155135Y-12661276D01*
X13088468Y-12737467D01*
X13117040Y-12737467D01*
X13136088Y-12746990D01*
X13145611Y-12756514D01*
X13155135Y-12775562D01*
X13155135Y-12823181D01*
X13145611Y-12842228D01*
X13136088Y-12851752D01*
X13117040Y-12861276D01*
X13059897Y-12861276D01*
X13040849Y-12851752D01*
X13031326Y-12842228D01*
X13278945Y-12661276D02*
X13297992Y-12661276D01*
X13317040Y-12670800D01*
X13326564Y-12680324D01*
X13336088Y-12699371D01*
X13345611Y-12737467D01*
X13345611Y-12785086D01*
X13336088Y-12823181D01*
X13326564Y-12842228D01*
X13317040Y-12851752D01*
X13297992Y-12861276D01*
X13278945Y-12861276D01*
X13259897Y-12851752D01*
X13250373Y-12842228D01*
X13240849Y-12823181D01*
X13231326Y-12785086D01*
X13231326Y-12737467D01*
X13240849Y-12699371D01*
X13250373Y-12680324D01*
X13259897Y-12670800D01*
X13278945Y-12661276D01*
X13469421Y-12661276D02*
X13488468Y-12661276D01*
X13507516Y-12670800D01*
X13517040Y-12680324D01*
X13526564Y-12699371D01*
X13536088Y-12737467D01*
X13536088Y-12785086D01*
X13526564Y-12823181D01*
X13517040Y-12842228D01*
X13507516Y-12851752D01*
X13488468Y-12861276D01*
X13469421Y-12861276D01*
X13450373Y-12851752D01*
X13440849Y-12842228D01*
X13431326Y-12823181D01*
X13421802Y-12785086D01*
X13421802Y-12737467D01*
X13431326Y-12699371D01*
X13440849Y-12680324D01*
X13450373Y-12670800D01*
X13469421Y-12661276D01*
X13621802Y-12861276D02*
X13621802Y-12727943D01*
X13621802Y-12746990D02*
X13631326Y-12737467D01*
X13650373Y-12727943D01*
X13678945Y-12727943D01*
X13697992Y-12737467D01*
X13707516Y-12756514D01*
X13707516Y-12861276D01*
X13707516Y-12756514D02*
X13717040Y-12737467D01*
X13736088Y-12727943D01*
X13764659Y-12727943D01*
X13783707Y-12737467D01*
X13793230Y-12756514D01*
X13793230Y-12861276D01*
X13888468Y-12861276D02*
X13888468Y-12727943D01*
X13888468Y-12746990D02*
X13897992Y-12737467D01*
X13917040Y-12727943D01*
X13945611Y-12727943D01*
X13964659Y-12737467D01*
X13974183Y-12756514D01*
X13974183Y-12861276D01*
X13974183Y-12756514D02*
X13983707Y-12737467D01*
X14002754Y-12727943D01*
X14031326Y-12727943D01*
X14050373Y-12737467D01*
X14059897Y-12756514D01*
X14059897Y-12861276D01*
X14450373Y-12651752D02*
X14278945Y-12908895D01*
X14707516Y-12661276D02*
X14726564Y-12661276D01*
X14745611Y-12670800D01*
X14755135Y-12680324D01*
X14764659Y-12699371D01*
X14774183Y-12737467D01*
X14774183Y-12785086D01*
X14764659Y-12823181D01*
X14755135Y-12842228D01*
X14745611Y-12851752D01*
X14726564Y-12861276D01*
X14707516Y-12861276D01*
X14688468Y-12851752D01*
X14678945Y-12842228D01*
X14669421Y-12823181D01*
X14659897Y-12785086D01*
X14659897Y-12737467D01*
X14669421Y-12699371D01*
X14678945Y-12680324D01*
X14688468Y-12670800D01*
X14707516Y-12661276D01*
X14859897Y-12842228D02*
X14869421Y-12851752D01*
X14859897Y-12861276D01*
X14850373Y-12851752D01*
X14859897Y-12842228D01*
X14859897Y-12861276D01*
X14993230Y-12661276D02*
X15012278Y-12661276D01*
X15031326Y-12670800D01*
X15040849Y-12680324D01*
X15050373Y-12699371D01*
X15059897Y-12737467D01*
X15059897Y-12785086D01*
X15050373Y-12823181D01*
X15040849Y-12842228D01*
X15031326Y-12851752D01*
X15012278Y-12861276D01*
X14993230Y-12861276D01*
X14974183Y-12851752D01*
X14964659Y-12842228D01*
X14955135Y-12823181D01*
X14945611Y-12785086D01*
X14945611Y-12737467D01*
X14955135Y-12699371D01*
X14964659Y-12680324D01*
X14974183Y-12670800D01*
X14993230Y-12661276D01*
X15250373Y-12861276D02*
X15136088Y-12861276D01*
X15193230Y-12861276D02*
X15193230Y-12661276D01*
X15174183Y-12689848D01*
X15155135Y-12708895D01*
X15136088Y-12718419D01*
X15440849Y-12861276D02*
X15326564Y-12861276D01*
X15383707Y-12861276D02*
X15383707Y-12661276D01*
X15364659Y-12689848D01*
X15345611Y-12708895D01*
X15326564Y-12718419D01*
X15555135Y-12746990D02*
X15536088Y-12737467D01*
X15526564Y-12727943D01*
X15517040Y-12708895D01*
X15517040Y-12699371D01*
X15526564Y-12680324D01*
X15536088Y-12670800D01*
X15555135Y-12661276D01*
X15593230Y-12661276D01*
X15612278Y-12670800D01*
X15621802Y-12680324D01*
X15631326Y-12699371D01*
X15631326Y-12708895D01*
X15621802Y-12727943D01*
X15612278Y-12737467D01*
X15593230Y-12746990D01*
X15555135Y-12746990D01*
X15536088Y-12756514D01*
X15526564Y-12766038D01*
X15517040Y-12785086D01*
X15517040Y-12823181D01*
X15526564Y-12842228D01*
X15536088Y-12851752D01*
X15555135Y-12861276D01*
X15593230Y-12861276D01*
X15612278Y-12851752D01*
X15621802Y-12842228D01*
X15631326Y-12823181D01*
X15631326Y-12785086D01*
X15621802Y-12766038D01*
X15612278Y-12756514D01*
X15593230Y-12746990D01*
X15707516Y-12661276D02*
X15707516Y-12699371D01*
X15783707Y-12661276D02*
X15783707Y-12699371D01*
X16078945Y-12937467D02*
X16069421Y-12927943D01*
X16050373Y-12899371D01*
X16040849Y-12880324D01*
X16031326Y-12851752D01*
X16021802Y-12804133D01*
X16021802Y-12766038D01*
X16031326Y-12718419D01*
X16040849Y-12689848D01*
X16050373Y-12670800D01*
X16069421Y-12642228D01*
X16078945Y-12632705D01*
X16259897Y-12861276D02*
X16145611Y-12861276D01*
X16202754Y-12861276D02*
X16202754Y-12661276D01*
X16183707Y-12689848D01*
X16164659Y-12708895D01*
X16145611Y-12718419D01*
X16497992Y-12861276D02*
X16497992Y-12661276D01*
X16583707Y-12861276D02*
X16583707Y-12756514D01*
X16574183Y-12737467D01*
X16555135Y-12727943D01*
X16526564Y-12727943D01*
X16507516Y-12737467D01*
X16497992Y-12746990D01*
X16707516Y-12861276D02*
X16688468Y-12851752D01*
X16678945Y-12842228D01*
X16669421Y-12823181D01*
X16669421Y-12766038D01*
X16678945Y-12746990D01*
X16688468Y-12737467D01*
X16707516Y-12727943D01*
X16736088Y-12727943D01*
X16755135Y-12737467D01*
X16764659Y-12746990D01*
X16774183Y-12766038D01*
X16774183Y-12823181D01*
X16764659Y-12842228D01*
X16755135Y-12851752D01*
X16736088Y-12861276D01*
X16707516Y-12861276D01*
X16888469Y-12861276D02*
X16869421Y-12851752D01*
X16859897Y-12832705D01*
X16859897Y-12661276D01*
X17040850Y-12851752D02*
X17021802Y-12861276D01*
X16983707Y-12861276D01*
X16964659Y-12851752D01*
X16955135Y-12832705D01*
X16955135Y-12756514D01*
X16964659Y-12737467D01*
X16983707Y-12727943D01*
X17021802Y-12727943D01*
X17040850Y-12737467D01*
X17050373Y-12756514D01*
X17050373Y-12775562D01*
X16955135Y-12794609D01*
X17117040Y-12937467D02*
X17126564Y-12927943D01*
X17145611Y-12899371D01*
X17155135Y-12880324D01*
X17164659Y-12851752D01*
X17174183Y-12804133D01*
X17174183Y-12766038D01*
X17164659Y-12718419D01*
X17155135Y-12689848D01*
X17145611Y-12670800D01*
X17126564Y-12642228D01*
X17117040Y-12632705D01*
D14*
X12487040Y-13014800D02*
X12487040Y-13054800D01*
X12467040Y-13034800D02*
X12507040Y-13034800D01*
D11*
X12802754Y-12925276D02*
X12821802Y-12925276D01*
X12840849Y-12934800D01*
X12850373Y-12944324D01*
X12859897Y-12963371D01*
X12869421Y-13001467D01*
X12869421Y-13049086D01*
X12859897Y-13087181D01*
X12850373Y-13106228D01*
X12840849Y-13115752D01*
X12821802Y-13125276D01*
X12802754Y-13125276D01*
X12783707Y-13115752D01*
X12774183Y-13106228D01*
X12764659Y-13087181D01*
X12755135Y-13049086D01*
X12755135Y-13001467D01*
X12764659Y-12963371D01*
X12774183Y-12944324D01*
X12783707Y-12934800D01*
X12802754Y-12925276D01*
X12955135Y-13106228D02*
X12964659Y-13115752D01*
X12955135Y-13125276D01*
X12945611Y-13115752D01*
X12955135Y-13106228D01*
X12955135Y-13125276D01*
X13136088Y-12991943D02*
X13136088Y-13125276D01*
X13088468Y-12915752D02*
X13040849Y-13058609D01*
X13164659Y-13058609D01*
X13278945Y-12925276D02*
X13297992Y-12925276D01*
X13317040Y-12934800D01*
X13326564Y-12944324D01*
X13336088Y-12963371D01*
X13345611Y-13001467D01*
X13345611Y-13049086D01*
X13336088Y-13087181D01*
X13326564Y-13106228D01*
X13317040Y-13115752D01*
X13297992Y-13125276D01*
X13278945Y-13125276D01*
X13259897Y-13115752D01*
X13250373Y-13106228D01*
X13240849Y-13087181D01*
X13231326Y-13049086D01*
X13231326Y-13001467D01*
X13240849Y-12963371D01*
X13250373Y-12944324D01*
X13259897Y-12934800D01*
X13278945Y-12925276D01*
X13469421Y-12925276D02*
X13488468Y-12925276D01*
X13507516Y-12934800D01*
X13517040Y-12944324D01*
X13526564Y-12963371D01*
X13536088Y-13001467D01*
X13536088Y-13049086D01*
X13526564Y-13087181D01*
X13517040Y-13106228D01*
X13507516Y-13115752D01*
X13488468Y-13125276D01*
X13469421Y-13125276D01*
X13450373Y-13115752D01*
X13440849Y-13106228D01*
X13431326Y-13087181D01*
X13421802Y-13049086D01*
X13421802Y-13001467D01*
X13431326Y-12963371D01*
X13440849Y-12944324D01*
X13450373Y-12934800D01*
X13469421Y-12925276D01*
X13621802Y-13125276D02*
X13621802Y-12991943D01*
X13621802Y-13010990D02*
X13631326Y-13001467D01*
X13650373Y-12991943D01*
X13678945Y-12991943D01*
X13697992Y-13001467D01*
X13707516Y-13020514D01*
X13707516Y-13125276D01*
X13707516Y-13020514D02*
X13717040Y-13001467D01*
X13736088Y-12991943D01*
X13764659Y-12991943D01*
X13783707Y-13001467D01*
X13793230Y-13020514D01*
X13793230Y-13125276D01*
X13888468Y-13125276D02*
X13888468Y-12991943D01*
X13888468Y-13010990D02*
X13897992Y-13001467D01*
X13917040Y-12991943D01*
X13945611Y-12991943D01*
X13964659Y-13001467D01*
X13974183Y-13020514D01*
X13974183Y-13125276D01*
X13974183Y-13020514D02*
X13983707Y-13001467D01*
X14002754Y-12991943D01*
X14031326Y-12991943D01*
X14050373Y-13001467D01*
X14059897Y-13020514D01*
X14059897Y-13125276D01*
X14450373Y-12915752D02*
X14278945Y-13172895D01*
X14707516Y-12925276D02*
X14726564Y-12925276D01*
X14745611Y-12934800D01*
X14755135Y-12944324D01*
X14764659Y-12963371D01*
X14774183Y-13001467D01*
X14774183Y-13049086D01*
X14764659Y-13087181D01*
X14755135Y-13106228D01*
X14745611Y-13115752D01*
X14726564Y-13125276D01*
X14707516Y-13125276D01*
X14688468Y-13115752D01*
X14678945Y-13106228D01*
X14669421Y-13087181D01*
X14659897Y-13049086D01*
X14659897Y-13001467D01*
X14669421Y-12963371D01*
X14678945Y-12944324D01*
X14688468Y-12934800D01*
X14707516Y-12925276D01*
X14859897Y-13106228D02*
X14869421Y-13115752D01*
X14859897Y-13125276D01*
X14850373Y-13115752D01*
X14859897Y-13106228D01*
X14859897Y-13125276D01*
X14993230Y-12925276D02*
X15012278Y-12925276D01*
X15031326Y-12934800D01*
X15040849Y-12944324D01*
X15050373Y-12963371D01*
X15059897Y-13001467D01*
X15059897Y-13049086D01*
X15050373Y-13087181D01*
X15040849Y-13106228D01*
X15031326Y-13115752D01*
X15012278Y-13125276D01*
X14993230Y-13125276D01*
X14974183Y-13115752D01*
X14964659Y-13106228D01*
X14955135Y-13087181D01*
X14945611Y-13049086D01*
X14945611Y-13001467D01*
X14955135Y-12963371D01*
X14964659Y-12944324D01*
X14974183Y-12934800D01*
X14993230Y-12925276D01*
X15250373Y-13125276D02*
X15136088Y-13125276D01*
X15193230Y-13125276D02*
X15193230Y-12925276D01*
X15174183Y-12953848D01*
X15155135Y-12972895D01*
X15136088Y-12982419D01*
X15431326Y-12925276D02*
X15336088Y-12925276D01*
X15326564Y-13020514D01*
X15336088Y-13010990D01*
X15355135Y-13001467D01*
X15402754Y-13001467D01*
X15421802Y-13010990D01*
X15431326Y-13020514D01*
X15440849Y-13039562D01*
X15440849Y-13087181D01*
X15431326Y-13106228D01*
X15421802Y-13115752D01*
X15402754Y-13125276D01*
X15355135Y-13125276D01*
X15336088Y-13115752D01*
X15326564Y-13106228D01*
X15507516Y-12925276D02*
X15640849Y-12925276D01*
X15555135Y-13125276D01*
X15707516Y-12925276D02*
X15707516Y-12963371D01*
X15783707Y-12925276D02*
X15783707Y-12963371D01*
X16078945Y-13201467D02*
X16069421Y-13191943D01*
X16050373Y-13163371D01*
X16040849Y-13144324D01*
X16031326Y-13115752D01*
X16021802Y-13068133D01*
X16021802Y-13030038D01*
X16031326Y-12982419D01*
X16040849Y-12953848D01*
X16050373Y-12934800D01*
X16069421Y-12906228D01*
X16078945Y-12896705D01*
X16250373Y-12925276D02*
X16155135Y-12925276D01*
X16145611Y-13020514D01*
X16155135Y-13010990D01*
X16174183Y-13001467D01*
X16221802Y-13001467D01*
X16240849Y-13010990D01*
X16250373Y-13020514D01*
X16259897Y-13039562D01*
X16259897Y-13087181D01*
X16250373Y-13106228D01*
X16240849Y-13115752D01*
X16221802Y-13125276D01*
X16174183Y-13125276D01*
X16155135Y-13115752D01*
X16145611Y-13106228D01*
X16450373Y-13125276D02*
X16336088Y-13125276D01*
X16393230Y-13125276D02*
X16393230Y-12925276D01*
X16374183Y-12953848D01*
X16355135Y-12972895D01*
X16336088Y-12982419D01*
X16688468Y-13125276D02*
X16688468Y-12925276D01*
X16774183Y-13125276D02*
X16774183Y-13020514D01*
X16764659Y-13001467D01*
X16745611Y-12991943D01*
X16717040Y-12991943D01*
X16697992Y-13001467D01*
X16688468Y-13010990D01*
X16897992Y-13125276D02*
X16878945Y-13115752D01*
X16869421Y-13106228D01*
X16859897Y-13087181D01*
X16859897Y-13030038D01*
X16869421Y-13010990D01*
X16878945Y-13001467D01*
X16897992Y-12991943D01*
X16926564Y-12991943D01*
X16945611Y-13001467D01*
X16955135Y-13010990D01*
X16964659Y-13030038D01*
X16964659Y-13087181D01*
X16955135Y-13106228D01*
X16945611Y-13115752D01*
X16926564Y-13125276D01*
X16897992Y-13125276D01*
X17078945Y-13125276D02*
X17059897Y-13115752D01*
X17050373Y-13096705D01*
X17050373Y-12925276D01*
X17231326Y-13115752D02*
X17212278Y-13125276D01*
X17174183Y-13125276D01*
X17155135Y-13115752D01*
X17145611Y-13096705D01*
X17145611Y-13020514D01*
X17155135Y-13001467D01*
X17174183Y-12991943D01*
X17212278Y-12991943D01*
X17231326Y-13001467D01*
X17240850Y-13020514D01*
X17240850Y-13039562D01*
X17145611Y-13058609D01*
X17317040Y-13115752D02*
X17336088Y-13125276D01*
X17374183Y-13125276D01*
X17393230Y-13115752D01*
X17402754Y-13096705D01*
X17402754Y-13087181D01*
X17393230Y-13068133D01*
X17374183Y-13058609D01*
X17345611Y-13058609D01*
X17326564Y-13049086D01*
X17317040Y-13030038D01*
X17317040Y-13020514D01*
X17326564Y-13001467D01*
X17345611Y-12991943D01*
X17374183Y-12991943D01*
X17393230Y-13001467D01*
X17469421Y-13201467D02*
X17478945Y-13191943D01*
X17497992Y-13163371D01*
X17507516Y-13144324D01*
X17517040Y-13115752D01*
X17526564Y-13068133D01*
X17526564Y-13030038D01*
X17517040Y-12982419D01*
X17507516Y-12953848D01*
X17497992Y-12934800D01*
X17478945Y-12906228D01*
X17469421Y-12896705D01*
D10*
X12492396Y-13334156D02*
X12492396Y-13263444D01*
X12421684Y-13263444D01*
X12421684Y-13334156D01*
X12492396Y-13334156D01*
D11*
X12869421Y-13389276D02*
X12755135Y-13389276D01*
X12812278Y-13389276D02*
X12812278Y-13189276D01*
X12793230Y-13217848D01*
X12774183Y-13236895D01*
X12755135Y-13246419D01*
X12955135Y-13370228D02*
X12964659Y-13379752D01*
X12955135Y-13389276D01*
X12945611Y-13379752D01*
X12955135Y-13370228D01*
X12955135Y-13389276D01*
X13088468Y-13189276D02*
X13107516Y-13189276D01*
X13126564Y-13198800D01*
X13136088Y-13208324D01*
X13145611Y-13227371D01*
X13155135Y-13265467D01*
X13155135Y-13313086D01*
X13145611Y-13351181D01*
X13136088Y-13370228D01*
X13126564Y-13379752D01*
X13107516Y-13389276D01*
X13088468Y-13389276D01*
X13069421Y-13379752D01*
X13059897Y-13370228D01*
X13050373Y-13351181D01*
X13040849Y-13313086D01*
X13040849Y-13265467D01*
X13050373Y-13227371D01*
X13059897Y-13208324D01*
X13069421Y-13198800D01*
X13088468Y-13189276D01*
X13278945Y-13189276D02*
X13297992Y-13189276D01*
X13317040Y-13198800D01*
X13326564Y-13208324D01*
X13336088Y-13227371D01*
X13345611Y-13265467D01*
X13345611Y-13313086D01*
X13336088Y-13351181D01*
X13326564Y-13370228D01*
X13317040Y-13379752D01*
X13297992Y-13389276D01*
X13278945Y-13389276D01*
X13259897Y-13379752D01*
X13250373Y-13370228D01*
X13240849Y-13351181D01*
X13231326Y-13313086D01*
X13231326Y-13265467D01*
X13240849Y-13227371D01*
X13250373Y-13208324D01*
X13259897Y-13198800D01*
X13278945Y-13189276D01*
X13469421Y-13189276D02*
X13488468Y-13189276D01*
X13507516Y-13198800D01*
X13517040Y-13208324D01*
X13526564Y-13227371D01*
X13536088Y-13265467D01*
X13536088Y-13313086D01*
X13526564Y-13351181D01*
X13517040Y-13370228D01*
X13507516Y-13379752D01*
X13488468Y-13389276D01*
X13469421Y-13389276D01*
X13450373Y-13379752D01*
X13440849Y-13370228D01*
X13431326Y-13351181D01*
X13421802Y-13313086D01*
X13421802Y-13265467D01*
X13431326Y-13227371D01*
X13440849Y-13208324D01*
X13450373Y-13198800D01*
X13469421Y-13189276D01*
X13621802Y-13389276D02*
X13621802Y-13255943D01*
X13621802Y-13274990D02*
X13631326Y-13265467D01*
X13650373Y-13255943D01*
X13678945Y-13255943D01*
X13697992Y-13265467D01*
X13707516Y-13284514D01*
X13707516Y-13389276D01*
X13707516Y-13284514D02*
X13717040Y-13265467D01*
X13736088Y-13255943D01*
X13764659Y-13255943D01*
X13783707Y-13265467D01*
X13793230Y-13284514D01*
X13793230Y-13389276D01*
X13888468Y-13389276D02*
X13888468Y-13255943D01*
X13888468Y-13274990D02*
X13897992Y-13265467D01*
X13917040Y-13255943D01*
X13945611Y-13255943D01*
X13964659Y-13265467D01*
X13974183Y-13284514D01*
X13974183Y-13389276D01*
X13974183Y-13284514D02*
X13983707Y-13265467D01*
X14002754Y-13255943D01*
X14031326Y-13255943D01*
X14050373Y-13265467D01*
X14059897Y-13284514D01*
X14059897Y-13389276D01*
X14450373Y-13179752D02*
X14278945Y-13436895D01*
X14707516Y-13189276D02*
X14726564Y-13189276D01*
X14745611Y-13198800D01*
X14755135Y-13208324D01*
X14764659Y-13227371D01*
X14774183Y-13265467D01*
X14774183Y-13313086D01*
X14764659Y-13351181D01*
X14755135Y-13370228D01*
X14745611Y-13379752D01*
X14726564Y-13389276D01*
X14707516Y-13389276D01*
X14688468Y-13379752D01*
X14678945Y-13370228D01*
X14669421Y-13351181D01*
X14659897Y-13313086D01*
X14659897Y-13265467D01*
X14669421Y-13227371D01*
X14678945Y-13208324D01*
X14688468Y-13198800D01*
X14707516Y-13189276D01*
X14859897Y-13370228D02*
X14869421Y-13379752D01*
X14859897Y-13389276D01*
X14850373Y-13379752D01*
X14859897Y-13370228D01*
X14859897Y-13389276D01*
X14993230Y-13189276D02*
X15012278Y-13189276D01*
X15031326Y-13198800D01*
X15040849Y-13208324D01*
X15050373Y-13227371D01*
X15059897Y-13265467D01*
X15059897Y-13313086D01*
X15050373Y-13351181D01*
X15040849Y-13370228D01*
X15031326Y-13379752D01*
X15012278Y-13389276D01*
X14993230Y-13389276D01*
X14974183Y-13379752D01*
X14964659Y-13370228D01*
X14955135Y-13351181D01*
X14945611Y-13313086D01*
X14945611Y-13265467D01*
X14955135Y-13227371D01*
X14964659Y-13208324D01*
X14974183Y-13198800D01*
X14993230Y-13189276D01*
X15126564Y-13189276D02*
X15250373Y-13189276D01*
X15183707Y-13265467D01*
X15212278Y-13265467D01*
X15231326Y-13274990D01*
X15240849Y-13284514D01*
X15250373Y-13303562D01*
X15250373Y-13351181D01*
X15240849Y-13370228D01*
X15231326Y-13379752D01*
X15212278Y-13389276D01*
X15155135Y-13389276D01*
X15136088Y-13379752D01*
X15126564Y-13370228D01*
X15345611Y-13389276D02*
X15383707Y-13389276D01*
X15402754Y-13379752D01*
X15412278Y-13370228D01*
X15431326Y-13341657D01*
X15440849Y-13303562D01*
X15440849Y-13227371D01*
X15431326Y-13208324D01*
X15421802Y-13198800D01*
X15402754Y-13189276D01*
X15364659Y-13189276D01*
X15345611Y-13198800D01*
X15336088Y-13208324D01*
X15326564Y-13227371D01*
X15326564Y-13274990D01*
X15336088Y-13294038D01*
X15345611Y-13303562D01*
X15364659Y-13313086D01*
X15402754Y-13313086D01*
X15421802Y-13303562D01*
X15431326Y-13294038D01*
X15440849Y-13274990D01*
X15612278Y-13255943D02*
X15612278Y-13389276D01*
X15564659Y-13179752D02*
X15517040Y-13322609D01*
X15640849Y-13322609D01*
X15707516Y-13189276D02*
X15707516Y-13227371D01*
X15783707Y-13189276D02*
X15783707Y-13227371D01*
X16078945Y-13465467D02*
X16069421Y-13455943D01*
X16050373Y-13427371D01*
X16040849Y-13408324D01*
X16031326Y-13379752D01*
X16021802Y-13332133D01*
X16021802Y-13294038D01*
X16031326Y-13246419D01*
X16040849Y-13217848D01*
X16050373Y-13198800D01*
X16069421Y-13170228D01*
X16078945Y-13160705D01*
X16145611Y-13208324D02*
X16155135Y-13198800D01*
X16174183Y-13189276D01*
X16221802Y-13189276D01*
X16240849Y-13198800D01*
X16250373Y-13208324D01*
X16259897Y-13227371D01*
X16259897Y-13246419D01*
X16250373Y-13274990D01*
X16136088Y-13389276D01*
X16259897Y-13389276D01*
X16326564Y-13189276D02*
X16459897Y-13189276D01*
X16374183Y-13389276D01*
X16688468Y-13389276D02*
X16688468Y-13189276D01*
X16774183Y-13389276D02*
X16774183Y-13284514D01*
X16764659Y-13265467D01*
X16745611Y-13255943D01*
X16717040Y-13255943D01*
X16697992Y-13265467D01*
X16688468Y-13274990D01*
X16897992Y-13389276D02*
X16878945Y-13379752D01*
X16869421Y-13370228D01*
X16859897Y-13351181D01*
X16859897Y-13294038D01*
X16869421Y-13274990D01*
X16878945Y-13265467D01*
X16897992Y-13255943D01*
X16926564Y-13255943D01*
X16945611Y-13265467D01*
X16955135Y-13274990D01*
X16964659Y-13294038D01*
X16964659Y-13351181D01*
X16955135Y-13370228D01*
X16945611Y-13379752D01*
X16926564Y-13389276D01*
X16897992Y-13389276D01*
X17078945Y-13389276D02*
X17059897Y-13379752D01*
X17050373Y-13360705D01*
X17050373Y-13189276D01*
X17231326Y-13379752D02*
X17212278Y-13389276D01*
X17174183Y-13389276D01*
X17155135Y-13379752D01*
X17145611Y-13360705D01*
X17145611Y-13284514D01*
X17155135Y-13265467D01*
X17174183Y-13255943D01*
X17212278Y-13255943D01*
X17231326Y-13265467D01*
X17240850Y-13284514D01*
X17240850Y-13303562D01*
X17145611Y-13322609D01*
X17317040Y-13379752D02*
X17336088Y-13389276D01*
X17374183Y-13389276D01*
X17393230Y-13379752D01*
X17402754Y-13360705D01*
X17402754Y-13351181D01*
X17393230Y-13332133D01*
X17374183Y-13322609D01*
X17345611Y-13322609D01*
X17326564Y-13313086D01*
X17317040Y-13294038D01*
X17317040Y-13284514D01*
X17326564Y-13265467D01*
X17345611Y-13255943D01*
X17374183Y-13255943D01*
X17393230Y-13265467D01*
X17469421Y-13465467D02*
X17478945Y-13455943D01*
X17497992Y-13427371D01*
X17507516Y-13408324D01*
X17517040Y-13379752D01*
X17526564Y-13332133D01*
X17526564Y-13294038D01*
X17517040Y-13246419D01*
X17507516Y-13217848D01*
X17497992Y-13198800D01*
X17478945Y-13170228D01*
X17469421Y-13160705D01*
D15*
X12447040Y-13622800D02*
X12507040Y-13562800D01*
X12447040Y-13502800D01*
X12387040Y-13562800D01*
X12447040Y-13622800D01*
D11*
X12869421Y-13653276D02*
X12755135Y-13653276D01*
X12812278Y-13653276D02*
X12812278Y-13453276D01*
X12793230Y-13481848D01*
X12774183Y-13500895D01*
X12755135Y-13510419D01*
X12955135Y-13634228D02*
X12964659Y-13643752D01*
X12955135Y-13653276D01*
X12945611Y-13643752D01*
X12955135Y-13634228D01*
X12955135Y-13653276D01*
X13040849Y-13472324D02*
X13050373Y-13462800D01*
X13069421Y-13453276D01*
X13117040Y-13453276D01*
X13136088Y-13462800D01*
X13145611Y-13472324D01*
X13155135Y-13491371D01*
X13155135Y-13510419D01*
X13145611Y-13538990D01*
X13031326Y-13653276D01*
X13155135Y-13653276D01*
X13278945Y-13453276D02*
X13297992Y-13453276D01*
X13317040Y-13462800D01*
X13326564Y-13472324D01*
X13336088Y-13491371D01*
X13345611Y-13529467D01*
X13345611Y-13577086D01*
X13336088Y-13615181D01*
X13326564Y-13634228D01*
X13317040Y-13643752D01*
X13297992Y-13653276D01*
X13278945Y-13653276D01*
X13259897Y-13643752D01*
X13250373Y-13634228D01*
X13240849Y-13615181D01*
X13231326Y-13577086D01*
X13231326Y-13529467D01*
X13240849Y-13491371D01*
X13250373Y-13472324D01*
X13259897Y-13462800D01*
X13278945Y-13453276D01*
X13469421Y-13453276D02*
X13488468Y-13453276D01*
X13507516Y-13462800D01*
X13517040Y-13472324D01*
X13526564Y-13491371D01*
X13536088Y-13529467D01*
X13536088Y-13577086D01*
X13526564Y-13615181D01*
X13517040Y-13634228D01*
X13507516Y-13643752D01*
X13488468Y-13653276D01*
X13469421Y-13653276D01*
X13450373Y-13643752D01*
X13440849Y-13634228D01*
X13431326Y-13615181D01*
X13421802Y-13577086D01*
X13421802Y-13529467D01*
X13431326Y-13491371D01*
X13440849Y-13472324D01*
X13450373Y-13462800D01*
X13469421Y-13453276D01*
X13621802Y-13653276D02*
X13621802Y-13519943D01*
X13621802Y-13538990D02*
X13631326Y-13529467D01*
X13650373Y-13519943D01*
X13678945Y-13519943D01*
X13697992Y-13529467D01*
X13707516Y-13548514D01*
X13707516Y-13653276D01*
X13707516Y-13548514D02*
X13717040Y-13529467D01*
X13736088Y-13519943D01*
X13764659Y-13519943D01*
X13783707Y-13529467D01*
X13793230Y-13548514D01*
X13793230Y-13653276D01*
X13888468Y-13653276D02*
X13888468Y-13519943D01*
X13888468Y-13538990D02*
X13897992Y-13529467D01*
X13917040Y-13519943D01*
X13945611Y-13519943D01*
X13964659Y-13529467D01*
X13974183Y-13548514D01*
X13974183Y-13653276D01*
X13974183Y-13548514D02*
X13983707Y-13529467D01*
X14002754Y-13519943D01*
X14031326Y-13519943D01*
X14050373Y-13529467D01*
X14059897Y-13548514D01*
X14059897Y-13653276D01*
X14450373Y-13443752D02*
X14278945Y-13700895D01*
X14707516Y-13453276D02*
X14726564Y-13453276D01*
X14745611Y-13462800D01*
X14755135Y-13472324D01*
X14764659Y-13491371D01*
X14774183Y-13529467D01*
X14774183Y-13577086D01*
X14764659Y-13615181D01*
X14755135Y-13634228D01*
X14745611Y-13643752D01*
X14726564Y-13653276D01*
X14707516Y-13653276D01*
X14688468Y-13643752D01*
X14678945Y-13634228D01*
X14669421Y-13615181D01*
X14659897Y-13577086D01*
X14659897Y-13529467D01*
X14669421Y-13491371D01*
X14678945Y-13472324D01*
X14688468Y-13462800D01*
X14707516Y-13453276D01*
X14859897Y-13634228D02*
X14869421Y-13643752D01*
X14859897Y-13653276D01*
X14850373Y-13643752D01*
X14859897Y-13634228D01*
X14859897Y-13653276D01*
X14993230Y-13453276D02*
X15012278Y-13453276D01*
X15031326Y-13462800D01*
X15040849Y-13472324D01*
X15050373Y-13491371D01*
X15059897Y-13529467D01*
X15059897Y-13577086D01*
X15050373Y-13615181D01*
X15040849Y-13634228D01*
X15031326Y-13643752D01*
X15012278Y-13653276D01*
X14993230Y-13653276D01*
X14974183Y-13643752D01*
X14964659Y-13634228D01*
X14955135Y-13615181D01*
X14945611Y-13577086D01*
X14945611Y-13529467D01*
X14955135Y-13491371D01*
X14964659Y-13472324D01*
X14974183Y-13462800D01*
X14993230Y-13453276D01*
X15231326Y-13519943D02*
X15231326Y-13653276D01*
X15183707Y-13443752D02*
X15136088Y-13586609D01*
X15259897Y-13586609D01*
X15317040Y-13453276D02*
X15450373Y-13453276D01*
X15364659Y-13653276D01*
X15517040Y-13472324D02*
X15526564Y-13462800D01*
X15545611Y-13453276D01*
X15593230Y-13453276D01*
X15612278Y-13462800D01*
X15621802Y-13472324D01*
X15631326Y-13491371D01*
X15631326Y-13510419D01*
X15621802Y-13538990D01*
X15507516Y-13653276D01*
X15631326Y-13653276D01*
X15707516Y-13453276D02*
X15707516Y-13491371D01*
X15783707Y-13453276D02*
X15783707Y-13491371D01*
X16078945Y-13729467D02*
X16069421Y-13719943D01*
X16050373Y-13691371D01*
X16040849Y-13672324D01*
X16031326Y-13643752D01*
X16021802Y-13596133D01*
X16021802Y-13558038D01*
X16031326Y-13510419D01*
X16040849Y-13481848D01*
X16050373Y-13462800D01*
X16069421Y-13434228D01*
X16078945Y-13424705D01*
X16145611Y-13472324D02*
X16155135Y-13462800D01*
X16174183Y-13453276D01*
X16221802Y-13453276D01*
X16240849Y-13462800D01*
X16250373Y-13472324D01*
X16259897Y-13491371D01*
X16259897Y-13510419D01*
X16250373Y-13538990D01*
X16136088Y-13653276D01*
X16259897Y-13653276D01*
X16497992Y-13653276D02*
X16497992Y-13453276D01*
X16583707Y-13653276D02*
X16583707Y-13548514D01*
X16574183Y-13529467D01*
X16555135Y-13519943D01*
X16526564Y-13519943D01*
X16507516Y-13529467D01*
X16497992Y-13538990D01*
X16707516Y-13653276D02*
X16688468Y-13643752D01*
X16678945Y-13634228D01*
X16669421Y-13615181D01*
X16669421Y-13558038D01*
X16678945Y-13538990D01*
X16688468Y-13529467D01*
X16707516Y-13519943D01*
X16736088Y-13519943D01*
X16755135Y-13529467D01*
X16764659Y-13538990D01*
X16774183Y-13558038D01*
X16774183Y-13615181D01*
X16764659Y-13634228D01*
X16755135Y-13643752D01*
X16736088Y-13653276D01*
X16707516Y-13653276D01*
X16888469Y-13653276D02*
X16869421Y-13643752D01*
X16859897Y-13624705D01*
X16859897Y-13453276D01*
X17040850Y-13643752D02*
X17021802Y-13653276D01*
X16983707Y-13653276D01*
X16964659Y-13643752D01*
X16955135Y-13624705D01*
X16955135Y-13548514D01*
X16964659Y-13529467D01*
X16983707Y-13519943D01*
X17021802Y-13519943D01*
X17040850Y-13529467D01*
X17050373Y-13548514D01*
X17050373Y-13567562D01*
X16955135Y-13586609D01*
X17126564Y-13643752D02*
X17145611Y-13653276D01*
X17183707Y-13653276D01*
X17202754Y-13643752D01*
X17212278Y-13624705D01*
X17212278Y-13615181D01*
X17202754Y-13596133D01*
X17183707Y-13586609D01*
X17155135Y-13586609D01*
X17136088Y-13577086D01*
X17126564Y-13558038D01*
X17126564Y-13548514D01*
X17136088Y-13529467D01*
X17155135Y-13519943D01*
X17183707Y-13519943D01*
X17202754Y-13529467D01*
X17278945Y-13729467D02*
X17288469Y-13719943D01*
X17307516Y-13691371D01*
X17317040Y-13672324D01*
X17326564Y-13643752D01*
X17336088Y-13596133D01*
X17336088Y-13558038D01*
X17326564Y-13510419D01*
X17317040Y-13481848D01*
X17307516Y-13462800D01*
X17288469Y-13434228D01*
X17278945Y-13424705D01*
X17640850Y-13729467D02*
X17631326Y-13719943D01*
X17612278Y-13691371D01*
X17602754Y-13672324D01*
X17593230Y-13643752D01*
X17583707Y-13596133D01*
X17583707Y-13558038D01*
X17593230Y-13510419D01*
X17602754Y-13481848D01*
X17612278Y-13462800D01*
X17631326Y-13434228D01*
X17640850Y-13424705D01*
X17717040Y-13519943D02*
X17717040Y-13653276D01*
X17717040Y-13538990D02*
X17726564Y-13529467D01*
X17745611Y-13519943D01*
X17774183Y-13519943D01*
X17793230Y-13529467D01*
X17802754Y-13548514D01*
X17802754Y-13653276D01*
X17926564Y-13653276D02*
X17907516Y-13643752D01*
X17897992Y-13634228D01*
X17888469Y-13615181D01*
X17888469Y-13558038D01*
X17897992Y-13538990D01*
X17907516Y-13529467D01*
X17926564Y-13519943D01*
X17955135Y-13519943D01*
X17974183Y-13529467D01*
X17983707Y-13538990D01*
X17993230Y-13558038D01*
X17993230Y-13615181D01*
X17983707Y-13634228D01*
X17974183Y-13643752D01*
X17955135Y-13653276D01*
X17926564Y-13653276D01*
X18050373Y-13519943D02*
X18126564Y-13519943D01*
X18078945Y-13453276D02*
X18078945Y-13624705D01*
X18088469Y-13643752D01*
X18107516Y-13653276D01*
X18126564Y-13653276D01*
X18345611Y-13519943D02*
X18345611Y-13719943D01*
X18345611Y-13529467D02*
X18364659Y-13519943D01*
X18402754Y-13519943D01*
X18421802Y-13529467D01*
X18431326Y-13538990D01*
X18440850Y-13558038D01*
X18440850Y-13615181D01*
X18431326Y-13634228D01*
X18421802Y-13643752D01*
X18402754Y-13653276D01*
X18364659Y-13653276D01*
X18345611Y-13643752D01*
X18555135Y-13653276D02*
X18536088Y-13643752D01*
X18526564Y-13624705D01*
X18526564Y-13453276D01*
X18717040Y-13653276D02*
X18717040Y-13548514D01*
X18707516Y-13529467D01*
X18688469Y-13519943D01*
X18650373Y-13519943D01*
X18631326Y-13529467D01*
X18717040Y-13643752D02*
X18697992Y-13653276D01*
X18650373Y-13653276D01*
X18631326Y-13643752D01*
X18621802Y-13624705D01*
X18621802Y-13605657D01*
X18631326Y-13586609D01*
X18650373Y-13577086D01*
X18697992Y-13577086D01*
X18717040Y-13567562D01*
X18783707Y-13519943D02*
X18859897Y-13519943D01*
X18812278Y-13453276D02*
X18812278Y-13624705D01*
X18821802Y-13643752D01*
X18840850Y-13653276D01*
X18859897Y-13653276D01*
X19002754Y-13643752D02*
X18983707Y-13653276D01*
X18945611Y-13653276D01*
X18926564Y-13643752D01*
X18917040Y-13624705D01*
X18917040Y-13548514D01*
X18926564Y-13529467D01*
X18945611Y-13519943D01*
X18983707Y-13519943D01*
X19002754Y-13529467D01*
X19012278Y-13548514D01*
X19012278Y-13567562D01*
X18917040Y-13586609D01*
X19183707Y-13653276D02*
X19183707Y-13453276D01*
X19183707Y-13643752D02*
X19164659Y-13653276D01*
X19126564Y-13653276D01*
X19107516Y-13643752D01*
X19097992Y-13634228D01*
X19088469Y-13615181D01*
X19088469Y-13558038D01*
X19097992Y-13538990D01*
X19107516Y-13529467D01*
X19126564Y-13519943D01*
X19164659Y-13519943D01*
X19183707Y-13529467D01*
X19259897Y-13729467D02*
X19269421Y-13719943D01*
X19288469Y-13691371D01*
X19297992Y-13672324D01*
X19307516Y-13643752D01*
X19317040Y-13596133D01*
X19317040Y-13558038D01*
X19307516Y-13510419D01*
X19297992Y-13481848D01*
X19288469Y-13462800D01*
X19269421Y-13434228D01*
X19259897Y-13424705D01*
M02*
