M48
; DRILL file {KiCad (6.0.11)} date Sun Jun 25 21:52:26 2023
; FORMAT={-:-/ absolute / metric / decimal}
; #@! TF.CreationDate,2023-06-25T21:52:26+10:00
; #@! TF.GenerationSoftware,Kicad,Pcbnew,(6.0.11)
; #@! TF.FileFunction,MixedPlating,1,2
FMAT,2
METRIC
; #@! TA.AperFunction,Plated,PTH,ViaDrill
T1C0.250
; #@! TA.AperFunction,Plated,PTH,ViaDrill
T2C0.300
; #@! TA.AperFunction,Plated,PTH,ViaDrill
T3C0.400
; #@! TA.AperFunction,Plated,PTH,ComponentDrill
T4C1.000
%
G90
G05
T1
X127.0Y-66.45
X127.0Y-68.2
X127.0Y-69.95
X127.0Y-71.7
X127.0Y-115.45
X127.0Y-117.2
X128.75Y-66.45
X128.75Y-68.2
X128.75Y-69.95
X128.75Y-75.2
X128.75Y-117.2
X135.75Y-66.45
X137.5Y-66.45
X139.25Y-66.45
X141.0Y-66.45
X144.5Y-117.2
X146.25Y-115.45
X146.25Y-117.2
X148.0Y-73.45
X148.0Y-75.2
X148.0Y-76.95
X148.0Y-78.7
X148.0Y-80.45
X148.0Y-113.7
X148.0Y-115.45
X148.0Y-117.2
X149.75Y-99.7
X149.75Y-101.45
X149.75Y-103.2
X149.75Y-104.95
X149.75Y-106.7
X149.75Y-108.45
X149.75Y-110.2
X149.75Y-111.95
X149.75Y-113.7
X149.75Y-115.45
X149.75Y-117.2
X150.76Y-85.156
X151.5Y-66.45
X151.5Y-75.2
X151.5Y-90.95
X151.5Y-92.7
X151.5Y-94.45
X151.5Y-96.2
X151.5Y-99.7
X151.5Y-108.45
X151.5Y-110.2
X151.5Y-111.95
X151.5Y-113.7
X151.5Y-115.45
X151.5Y-117.2
X152.385Y-78.992
X153.25Y-66.45
X153.25Y-73.45
X153.25Y-110.2
X153.25Y-111.95
X153.25Y-113.7
X153.25Y-115.45
X153.25Y-117.2
X155.0Y-66.45
X155.0Y-115.45
X155.0Y-117.2
X156.75Y-83.95
X156.75Y-115.45
X156.75Y-117.2
X158.013Y-88.621
X158.5Y-111.95
X158.5Y-113.7
X158.5Y-115.45
X158.5Y-117.2
X158.75Y-89.078
X160.25Y-99.7
X160.25Y-111.95
X160.25Y-113.7
X160.25Y-115.45
X160.25Y-117.2
X160.63Y-93.218
X162.0Y-106.7
X162.0Y-108.45
X162.0Y-110.2
X162.0Y-111.95
X162.0Y-113.7
X162.0Y-115.45
X162.0Y-117.2
X163.75Y-104.95
X163.75Y-106.7
X163.75Y-108.45
X163.75Y-110.2
X163.75Y-111.95
X163.75Y-113.7
X163.75Y-115.45
X163.75Y-117.2
X165.5Y-96.2
X165.5Y-106.7
X165.5Y-108.45
X165.5Y-110.2
X165.5Y-111.95
X165.5Y-113.7
X165.5Y-115.45
X165.5Y-117.2
X166.116Y-93.345
X167.25Y-85.7
X167.25Y-96.2
X167.25Y-106.7
X167.25Y-108.45
X167.25Y-110.2
X167.25Y-111.95
X167.25Y-113.7
X167.25Y-115.45
X167.25Y-117.2
X169.0Y-85.7
X169.0Y-103.2
X169.0Y-104.95
X169.0Y-106.7
X169.0Y-108.45
X169.0Y-110.2
X169.0Y-111.95
X169.0Y-113.7
X169.0Y-115.45
X169.0Y-117.2
X170.75Y-106.7
X170.75Y-108.45
X170.75Y-110.2
X170.75Y-111.95
X170.75Y-113.7
X170.75Y-115.45
X170.75Y-117.2
T2
X158.445Y-90.145
T3
X130.759Y-71.45
X130.759Y-83.287
X130.759Y-87.274
X130.759Y-91.186
X130.76Y-95.047
X130.76Y-98.958
X130.76Y-102.87
X130.76Y-106.731
X130.76Y-110.642
X130.76Y-114.529
X130.76Y-75.362
X130.785Y-79.324
X136.195Y-69.459
X136.195Y-73.406
X136.197Y-77.318
X136.202Y-89.256
X136.202Y-93.116
X136.202Y-96.977
X136.202Y-100.914
X136.202Y-104.8
X136.202Y-108.687
X136.202Y-112.598
X136.211Y-81.305
X136.22Y-85.293
X142.748Y-83.205
X142.748Y-98.877
X143.627Y-80.99
X143.693Y-100.838
X144.323Y-88.531
X144.345Y-93.85
X144.412Y-75.959
X144.424Y-105.562
X144.577Y-72.746
X144.763Y-110.058
X144.763Y-113.623
X144.831Y-68.783
X145.542Y-91.156
X145.971Y-66.576
X147.269Y-71.374
X151.435Y-71.857
X151.841Y-69.317
X153.34Y-70.587
X153.645Y-93.066
X163.141Y-90.7
X163.165Y-89.657
X164.77Y-102.775
X166.61Y-98.552
X168.275Y-91.605
X168.91Y-94.971
X171.196Y-98.247
X171.73Y-86.741
T4
X127.711Y-76.81
X127.711Y-79.35
X127.711Y-81.89
X127.711Y-84.43
X127.711Y-86.97
X127.711Y-89.51
X127.711Y-92.05
X127.711Y-94.59
X127.711Y-97.13
X127.711Y-99.67
X127.711Y-102.21
X127.711Y-104.75
X127.711Y-107.29
X155.178Y-102.62
X155.178Y-105.16
X155.178Y-107.7
X155.178Y-110.24
X155.178Y-112.78
X169.316Y-68.188
X169.316Y-70.688
X169.316Y-76.748
X169.316Y-79.248
T0
M30
