M48
; DRILL file {KiCad (6.0.11)} date Mon Jul  3 20:40:52 2023
; FORMAT={-:-/ absolute / metric / decimal}
; #@! TF.CreationDate,2023-07-03T20:40:52+10:00
; #@! TF.GenerationSoftware,Kicad,Pcbnew,(6.0.11)
; #@! TF.FileFunction,MixedPlating,1,4
FMAT,2
METRIC
; #@! TA.AperFunction,Plated,PTH,ViaDrill
T1C0.250
; #@! TA.AperFunction,Plated,PTH,ViaDrill
T2C0.400
; #@! TA.AperFunction,Plated,PTH,ComponentDrill
T3C1.000
; #@! TA.AperFunction,Plated,PTH,ComponentDrill
T4C1.170
; #@! TA.AperFunction,Plated,PTH,ComponentDrill
T5C1.400
%
G90
G05
T1
X110.77Y-80.88
X110.78Y-74.86
X110.78Y-76.89
X110.79Y-72.95
X110.79Y-78.73
X111.092Y-92.45
X111.092Y-99.45
X111.092Y-102.95
X111.092Y-104.7
X111.092Y-106.45
X112.842Y-92.45
X112.842Y-99.45
X112.842Y-102.95
X112.842Y-104.7
X112.842Y-106.45
X114.592Y-92.45
X114.592Y-102.95
X114.592Y-104.7
X114.592Y-106.45
X115.443Y-93.853
X116.342Y-92.45
X116.342Y-99.45
X116.342Y-101.2
X116.342Y-102.95
X118.092Y-97.7
X118.092Y-99.45
X118.092Y-101.2
X118.092Y-102.95
X118.91Y-80.08
X119.27Y-83.66
X119.842Y-95.95
X119.842Y-97.7
X119.842Y-99.45
X120.015Y-91.059
X120.285Y-92.71
X121.412Y-78.74
X121.592Y-73.2
X121.592Y-92.45
X121.592Y-101.2
X121.793Y-103.632
X122.936Y-98.171
X122.936Y-104.013
X123.342Y-73.2
X123.342Y-80.2
X123.342Y-92.45
X123.952Y-83.947
X123.952Y-86.106
X124.714Y-81.407
X125.092Y-73.2
X125.092Y-76.7
X125.476Y-104.013
X125.913Y-80.348
X126.441Y-81.915
X126.441Y-100.584
X126.619Y-103.632
X126.842Y-73.2
X126.842Y-76.7
X126.842Y-104.7
X126.842Y-106.45
X126.941Y-97.639
X128.592Y-73.2
X128.592Y-92.45
X128.592Y-94.2
X128.592Y-95.95
X128.592Y-101.2
X128.592Y-102.95
X128.592Y-104.7
X128.592Y-106.45
X128.905Y-90.932
X129.175Y-82.407
X130.238Y-79.311
X130.342Y-73.2
X130.342Y-76.7
X130.342Y-87.2
X130.342Y-95.95
X130.342Y-101.2
X130.342Y-102.95
X130.342Y-104.7
X130.342Y-106.45
X130.429Y-80.772
X131.445Y-80.907
X132.092Y-95.95
X132.092Y-97.7
X132.092Y-101.2
X132.092Y-102.95
X132.092Y-104.7
X132.092Y-106.45
X133.096Y-78.232
X133.604Y-89.408
X133.604Y-121.158
X133.842Y-73.2
X133.842Y-102.95
X133.842Y-106.45
X133.858Y-93.98
X134.381Y-93.588
X135.592Y-73.2
X135.592Y-76.7
X136.601Y-121.158
X137.16Y-99.568
X137.188Y-93.063
X137.342Y-73.2
X137.342Y-76.7
X137.342Y-78.45
X137.342Y-102.95
X139.092Y-73.2
X139.092Y-78.45
X139.598Y-121.158
X140.842Y-73.2
X140.842Y-78.45
X140.842Y-94.2
X142.367Y-89.434
X142.592Y-73.2
X142.592Y-74.95
X142.592Y-76.7
X142.592Y-90.7
X142.592Y-94.2
X142.596Y-121.158
X142.621Y-78.486
X144.342Y-73.2
X144.342Y-94.2
X144.342Y-95.95
X145.542Y-113.055
X145.593Y-121.158
X145.771Y-114.808
X146.092Y-73.2
X146.092Y-83.7
X146.092Y-87.2
X146.092Y-94.2
X147.842Y-73.2
X147.842Y-74.95
X147.842Y-76.7
X147.842Y-78.45
X147.842Y-80.2
X147.842Y-81.95
X147.842Y-83.7
X147.842Y-85.45
X147.842Y-87.2
X148.59Y-121.158
X150.876Y-101.727
X151.587Y-121.158
X152.781Y-108.939
X153.035Y-116.586
X153.543Y-73.787
X154.051Y-88.773
X154.584Y-121.158
X155.626Y-80.493
X155.702Y-118.999
X157.912Y-115.113
X157.988Y-121.158
X158.623Y-99.187
X160.528Y-119.126
X160.782Y-81.915
X160.909Y-115.164
X160.985Y-121.158
X163.322Y-114.91
X163.982Y-121.158
X164.211Y-119.126
X166.446Y-87.198
X166.98Y-121.158
X167.132Y-90.526
X169.57Y-121.158
X170.461Y-83.359
X172.568Y-121.158
X172.72Y-83.058
X173.634Y-92.583
X175.565Y-121.158
X178.562Y-121.158
X181.458Y-121.158
X184.455Y-121.158
X187.452Y-121.158
X190.449Y-121.158
X193.599Y-121.158
X196.596Y-121.158
X198.984Y-113.208
X198.984Y-119.228
X198.984Y-121.158
X199.009Y-110.185
X199.009Y-116.205
X199.034Y-89.205
X199.034Y-95.225
X199.034Y-101.219
X199.034Y-107.239
X199.06Y-77.241
X199.06Y-83.261
X199.06Y-86.182
X199.06Y-92.202
X199.06Y-98.196
X199.06Y-104.216
X199.085Y-74.219
X199.085Y-80.239
T2
X137.233Y-109.293
X171.577Y-94.234
X177.292Y-84.836
T3
X112.27Y-95.645
X112.27Y-98.185
X112.27Y-100.725
X114.81Y-95.645
X114.81Y-98.185
X114.81Y-100.725
X124.346Y-74.894
X126.886Y-74.894
X129.426Y-74.894
X131.966Y-74.894
X157.905Y-102.313
X160.445Y-102.313
X162.985Y-102.313
T4
X185.559Y-82.108
X185.559Y-86.548
X185.559Y-90.998
X185.559Y-95.438
X185.559Y-99.888
X185.559Y-104.328
X194.679Y-82.108
X194.679Y-86.548
X194.679Y-90.998
X194.679Y-95.438
X194.679Y-99.888
X194.679Y-104.328
T5
X121.337Y-118.745
X126.837Y-118.745
X168.946Y-113.978
X168.946Y-118.178
X174.446Y-113.978
X174.446Y-118.178
X181.916Y-113.978
X181.916Y-118.178
X187.416Y-113.978
X187.416Y-118.178
T0
M30
