%TF.GenerationSoftware,KiCad,Pcbnew,(6.0.11)*%
%TF.CreationDate,2023-06-26T18:16:24+10:00*%
%TF.ProjectId,LV_MASTER_A_SAMPLE,4c565f4d-4153-4544-9552-5f415f53414d,1*%
%TF.SameCoordinates,Original*%
%TF.FileFunction,Drillmap*%
%TF.FilePolarity,Positive*%
%FSLAX45Y45*%
G04 Gerber Fmt 4.5, Leading zero omitted, Abs format (unit mm)*
G04 Created by KiCad (PCBNEW (6.0.11)) date 2023-06-26 18:16:24*
%MOMM*%
%LPD*%
G01*
G04 APERTURE LIST*
%ADD10C,0.100000*%
%ADD11C,0.200000*%
%ADD12C,0.025000*%
%ADD13C,0.040000*%
%ADD14C,0.117000*%
%ADD15C,0.140000*%
G04 APERTURE END LIST*
D10*
X10947400Y-7226300D02*
X20002500Y-7226300D01*
X20002500Y-7226300D02*
X20002500Y-12217400D01*
X20002500Y-12217400D02*
X10947400Y-12217400D01*
X10947400Y-12217400D02*
X10947400Y-7226300D01*
D11*
D12*
X11064500Y-8075500D02*
X11089500Y-8100500D01*
X11089500Y-8075500D02*
X11064500Y-8100500D01*
X11065500Y-7473500D02*
X11090500Y-7498500D01*
X11090500Y-7473500D02*
X11065500Y-7498500D01*
X11065500Y-7676500D02*
X11090500Y-7701500D01*
X11090500Y-7676500D02*
X11065500Y-7701500D01*
X11066500Y-7282500D02*
X11091500Y-7307500D01*
X11091500Y-7282500D02*
X11066500Y-7307500D01*
X11066500Y-7860500D02*
X11091500Y-7885500D01*
X11091500Y-7860500D02*
X11066500Y-7885500D01*
X11096667Y-9232500D02*
X11121667Y-9257500D01*
X11121667Y-9232500D02*
X11096667Y-9257500D01*
X11096667Y-9932500D02*
X11121667Y-9957500D01*
X11121667Y-9932500D02*
X11096667Y-9957500D01*
X11096667Y-10282500D02*
X11121667Y-10307500D01*
X11121667Y-10282500D02*
X11096667Y-10307500D01*
X11096667Y-10457500D02*
X11121667Y-10482500D01*
X11121667Y-10457500D02*
X11096667Y-10482500D01*
X11096667Y-10632500D02*
X11121667Y-10657500D01*
X11121667Y-10632500D02*
X11096667Y-10657500D01*
X11271667Y-9232500D02*
X11296667Y-9257500D01*
X11296667Y-9232500D02*
X11271667Y-9257500D01*
X11271667Y-9932500D02*
X11296667Y-9957500D01*
X11296667Y-9932500D02*
X11271667Y-9957500D01*
X11271667Y-10282500D02*
X11296667Y-10307500D01*
X11296667Y-10282500D02*
X11271667Y-10307500D01*
X11271667Y-10457500D02*
X11296667Y-10482500D01*
X11296667Y-10457500D02*
X11271667Y-10482500D01*
X11271667Y-10632500D02*
X11296667Y-10657500D01*
X11296667Y-10632500D02*
X11271667Y-10657500D01*
X11446667Y-9232500D02*
X11471667Y-9257500D01*
X11471667Y-9232500D02*
X11446667Y-9257500D01*
X11446667Y-10282500D02*
X11471667Y-10307500D01*
X11471667Y-10282500D02*
X11446667Y-10307500D01*
X11446667Y-10457500D02*
X11471667Y-10482500D01*
X11471667Y-10457500D02*
X11446667Y-10482500D01*
X11446667Y-10632500D02*
X11471667Y-10657500D01*
X11471667Y-10632500D02*
X11446667Y-10657500D01*
X11531800Y-9372800D02*
X11556800Y-9397800D01*
X11556800Y-9372800D02*
X11531800Y-9397800D01*
X11621667Y-9232500D02*
X11646667Y-9257500D01*
X11646667Y-9232500D02*
X11621667Y-9257500D01*
X11621667Y-9932500D02*
X11646667Y-9957500D01*
X11646667Y-9932500D02*
X11621667Y-9957500D01*
X11621667Y-10107500D02*
X11646667Y-10132500D01*
X11646667Y-10107500D02*
X11621667Y-10132500D01*
X11621667Y-10282500D02*
X11646667Y-10307500D01*
X11646667Y-10282500D02*
X11621667Y-10307500D01*
X11796667Y-9757500D02*
X11821667Y-9782500D01*
X11821667Y-9757500D02*
X11796667Y-9782500D01*
X11796667Y-9932500D02*
X11821667Y-9957500D01*
X11821667Y-9932500D02*
X11796667Y-9957500D01*
X11796667Y-10107500D02*
X11821667Y-10132500D01*
X11821667Y-10107500D02*
X11796667Y-10132500D01*
X11796667Y-10282500D02*
X11821667Y-10307500D01*
X11821667Y-10282500D02*
X11796667Y-10307500D01*
X11878500Y-7995500D02*
X11903500Y-8020500D01*
X11903500Y-7995500D02*
X11878500Y-8020500D01*
X11914500Y-8353500D02*
X11939500Y-8378500D01*
X11939500Y-8353500D02*
X11914500Y-8378500D01*
X11971667Y-9582500D02*
X11996667Y-9607500D01*
X11996667Y-9582500D02*
X11971667Y-9607500D01*
X11971667Y-9757500D02*
X11996667Y-9782500D01*
X11996667Y-9757500D02*
X11971667Y-9782500D01*
X11971667Y-9932500D02*
X11996667Y-9957500D01*
X11996667Y-9932500D02*
X11971667Y-9957500D01*
X11989000Y-9093400D02*
X12014000Y-9118400D01*
X12014000Y-9093400D02*
X11989000Y-9118400D01*
X12016000Y-9258500D02*
X12041000Y-9283500D01*
X12041000Y-9258500D02*
X12016000Y-9283500D01*
X12128700Y-7861500D02*
X12153700Y-7886500D01*
X12153700Y-7861500D02*
X12128700Y-7886500D01*
X12146667Y-7307500D02*
X12171667Y-7332500D01*
X12171667Y-7307500D02*
X12146667Y-7332500D01*
X12146667Y-9232500D02*
X12171667Y-9257500D01*
X12171667Y-9232500D02*
X12146667Y-9257500D01*
X12146667Y-10107500D02*
X12171667Y-10132500D01*
X12171667Y-10107500D02*
X12146667Y-10132500D01*
X12166800Y-10350700D02*
X12191800Y-10375700D01*
X12191800Y-10350700D02*
X12166800Y-10375700D01*
X12281100Y-9804600D02*
X12306100Y-9829600D01*
X12306100Y-9804600D02*
X12281100Y-9829600D01*
X12281100Y-10388800D02*
X12306100Y-10413800D01*
X12306100Y-10388800D02*
X12281100Y-10413800D01*
X12321667Y-7307500D02*
X12346667Y-7332500D01*
X12346667Y-7307500D02*
X12321667Y-7332500D01*
X12321667Y-8007500D02*
X12346667Y-8032500D01*
X12346667Y-8007500D02*
X12321667Y-8032500D01*
X12321667Y-9232500D02*
X12346667Y-9257500D01*
X12346667Y-9232500D02*
X12321667Y-9257500D01*
X12382700Y-8382200D02*
X12407700Y-8407200D01*
X12407700Y-8382200D02*
X12382700Y-8407200D01*
X12382700Y-8598100D02*
X12407700Y-8623100D01*
X12407700Y-8598100D02*
X12382700Y-8623100D01*
X12458900Y-8128200D02*
X12483900Y-8153200D01*
X12483900Y-8128200D02*
X12458900Y-8153200D01*
X12496667Y-7307500D02*
X12521667Y-7332500D01*
X12521667Y-7307500D02*
X12496667Y-7332500D01*
X12496667Y-7657500D02*
X12521667Y-7682500D01*
X12521667Y-7657500D02*
X12496667Y-7682500D01*
X12535100Y-10388800D02*
X12560100Y-10413800D01*
X12560100Y-10388800D02*
X12535100Y-10413800D01*
X12578770Y-8022320D02*
X12603770Y-8047320D01*
X12603770Y-8022320D02*
X12578770Y-8047320D01*
X12631620Y-8179000D02*
X12656620Y-8204000D01*
X12656620Y-8179000D02*
X12631620Y-8204000D01*
X12631620Y-10045900D02*
X12656620Y-10070900D01*
X12656620Y-10045900D02*
X12631620Y-10070900D01*
X12649400Y-10350700D02*
X12674400Y-10375700D01*
X12674400Y-10350700D02*
X12649400Y-10375700D01*
X12671667Y-7307500D02*
X12696667Y-7332500D01*
X12696667Y-7307500D02*
X12671667Y-7332500D01*
X12671667Y-7657500D02*
X12696667Y-7682500D01*
X12696667Y-7657500D02*
X12671667Y-7682500D01*
X12671667Y-10457500D02*
X12696667Y-10482500D01*
X12696667Y-10457500D02*
X12671667Y-10482500D01*
X12671667Y-10632500D02*
X12696667Y-10657500D01*
X12696667Y-10632500D02*
X12671667Y-10657500D01*
X12681620Y-9751450D02*
X12706620Y-9776450D01*
X12706620Y-9751450D02*
X12681620Y-9776450D01*
X12846667Y-7307500D02*
X12871667Y-7332500D01*
X12871667Y-7307500D02*
X12846667Y-7332500D01*
X12846667Y-9232500D02*
X12871667Y-9257500D01*
X12871667Y-9232500D02*
X12846667Y-9257500D01*
X12846667Y-9407500D02*
X12871667Y-9432500D01*
X12871667Y-9407500D02*
X12846667Y-9432500D01*
X12846667Y-9582500D02*
X12871667Y-9607500D01*
X12871667Y-9582500D02*
X12846667Y-9607500D01*
X12846667Y-10107500D02*
X12871667Y-10132500D01*
X12871667Y-10107500D02*
X12846667Y-10132500D01*
X12846667Y-10282500D02*
X12871667Y-10307500D01*
X12871667Y-10282500D02*
X12846667Y-10307500D01*
X12846667Y-10457500D02*
X12871667Y-10482500D01*
X12871667Y-10457500D02*
X12846667Y-10482500D01*
X12846667Y-10632500D02*
X12871667Y-10657500D01*
X12871667Y-10632500D02*
X12846667Y-10657500D01*
X12878000Y-9080700D02*
X12903000Y-9105700D01*
X12903000Y-9080700D02*
X12878000Y-9105700D01*
X12904960Y-8228240D02*
X12929960Y-8253240D01*
X12929960Y-8228240D02*
X12904960Y-8253240D01*
X13011350Y-7918650D02*
X13036350Y-7943650D01*
X13036350Y-7918650D02*
X13011350Y-7943650D01*
X13021667Y-7307500D02*
X13046667Y-7332500D01*
X13046667Y-7307500D02*
X13021667Y-7332500D01*
X13021667Y-7657500D02*
X13046667Y-7682500D01*
X13046667Y-7657500D02*
X13021667Y-7682500D01*
X13021667Y-8707500D02*
X13046667Y-8732500D01*
X13046667Y-8707500D02*
X13021667Y-8732500D01*
X13021667Y-9582500D02*
X13046667Y-9607500D01*
X13046667Y-9582500D02*
X13021667Y-9607500D01*
X13021667Y-10107500D02*
X13046667Y-10132500D01*
X13046667Y-10107500D02*
X13021667Y-10132500D01*
X13021667Y-10282500D02*
X13046667Y-10307500D01*
X13046667Y-10282500D02*
X13021667Y-10307500D01*
X13021667Y-10457500D02*
X13046667Y-10482500D01*
X13046667Y-10457500D02*
X13021667Y-10482500D01*
X13021667Y-10632500D02*
X13046667Y-10657500D01*
X13046667Y-10632500D02*
X13021667Y-10657500D01*
X13030400Y-8064700D02*
X13055400Y-8089700D01*
X13055400Y-8064700D02*
X13030400Y-8089700D01*
X13132000Y-8078240D02*
X13157000Y-8103240D01*
X13157000Y-8078240D02*
X13132000Y-8103240D01*
X13196667Y-9582500D02*
X13221667Y-9607500D01*
X13221667Y-9582500D02*
X13196667Y-9607500D01*
X13196667Y-9757500D02*
X13221667Y-9782500D01*
X13221667Y-9757500D02*
X13196667Y-9782500D01*
X13196667Y-10107500D02*
X13221667Y-10132500D01*
X13221667Y-10107500D02*
X13196667Y-10132500D01*
X13196667Y-10282500D02*
X13221667Y-10307500D01*
X13221667Y-10282500D02*
X13196667Y-10307500D01*
X13196667Y-10457500D02*
X13221667Y-10482500D01*
X13221667Y-10457500D02*
X13196667Y-10482500D01*
X13196667Y-10632500D02*
X13221667Y-10657500D01*
X13221667Y-10632500D02*
X13196667Y-10657500D01*
X13297100Y-7810700D02*
X13322100Y-7835700D01*
X13322100Y-7810700D02*
X13297100Y-7835700D01*
X13347900Y-8928300D02*
X13372900Y-8953300D01*
X13372900Y-8928300D02*
X13347900Y-8953300D01*
X13347900Y-12103300D02*
X13372900Y-12128300D01*
X13372900Y-12103300D02*
X13347900Y-12128300D01*
X13371667Y-7307500D02*
X13396667Y-7332500D01*
X13396667Y-7307500D02*
X13371667Y-7332500D01*
X13371667Y-10282500D02*
X13396667Y-10307500D01*
X13396667Y-10282500D02*
X13371667Y-10307500D01*
X13371667Y-10632500D02*
X13396667Y-10657500D01*
X13396667Y-10632500D02*
X13371667Y-10657500D01*
X13373300Y-9385500D02*
X13398300Y-9410500D01*
X13398300Y-9385500D02*
X13373300Y-9410500D01*
X13425580Y-9346290D02*
X13450580Y-9371290D01*
X13450580Y-9346290D02*
X13425580Y-9371290D01*
X13546667Y-7307500D02*
X13571667Y-7332500D01*
X13571667Y-7307500D02*
X13546667Y-7332500D01*
X13546667Y-7657500D02*
X13571667Y-7682500D01*
X13571667Y-7657500D02*
X13546667Y-7682500D01*
X13647620Y-12103300D02*
X13672620Y-12128300D01*
X13672620Y-12103300D02*
X13647620Y-12128300D01*
X13703500Y-9944300D02*
X13728500Y-9969300D01*
X13728500Y-9944300D02*
X13703500Y-9969300D01*
X13706250Y-9293850D02*
X13731250Y-9318850D01*
X13731250Y-9293850D02*
X13706250Y-9318850D01*
X13721667Y-7307500D02*
X13746667Y-7332500D01*
X13746667Y-7307500D02*
X13721667Y-7332500D01*
X13721667Y-7657500D02*
X13746667Y-7682500D01*
X13746667Y-7657500D02*
X13721667Y-7682500D01*
X13721667Y-7832500D02*
X13746667Y-7857500D01*
X13746667Y-7832500D02*
X13721667Y-7857500D01*
X13721667Y-10282500D02*
X13746667Y-10307500D01*
X13746667Y-10282500D02*
X13721667Y-10307500D01*
X13896667Y-7307500D02*
X13921667Y-7332500D01*
X13921667Y-7307500D02*
X13896667Y-7332500D01*
X13896667Y-7832500D02*
X13921667Y-7857500D01*
X13921667Y-7832500D02*
X13896667Y-7857500D01*
X13947340Y-12103300D02*
X13972340Y-12128300D01*
X13972340Y-12103300D02*
X13947340Y-12128300D01*
X14071667Y-7307500D02*
X14096667Y-7332500D01*
X14096667Y-7307500D02*
X14071667Y-7332500D01*
X14071667Y-7832500D02*
X14096667Y-7857500D01*
X14096667Y-7832500D02*
X14071667Y-7857500D01*
X14071667Y-9407500D02*
X14096667Y-9432500D01*
X14096667Y-9407500D02*
X14071667Y-9432500D01*
X14224200Y-8930950D02*
X14249200Y-8955950D01*
X14249200Y-8930950D02*
X14224200Y-8955950D01*
X14246667Y-7307500D02*
X14271667Y-7332500D01*
X14271667Y-7307500D02*
X14246667Y-7332500D01*
X14246667Y-7482500D02*
X14271667Y-7507500D01*
X14271667Y-7482500D02*
X14246667Y-7507500D01*
X14246667Y-7657500D02*
X14271667Y-7682500D01*
X14271667Y-7657500D02*
X14246667Y-7682500D01*
X14246667Y-9057500D02*
X14271667Y-9082500D01*
X14271667Y-9057500D02*
X14246667Y-9082500D01*
X14246667Y-9407500D02*
X14271667Y-9432500D01*
X14271667Y-9407500D02*
X14246667Y-9432500D01*
X14247060Y-12103300D02*
X14272060Y-12128300D01*
X14272060Y-12103300D02*
X14247060Y-12128300D01*
X14249600Y-7836100D02*
X14274600Y-7861100D01*
X14274600Y-7836100D02*
X14249600Y-7861100D01*
X14421667Y-7307500D02*
X14446667Y-7332500D01*
X14446667Y-7307500D02*
X14421667Y-7332500D01*
X14421667Y-9407500D02*
X14446667Y-9432500D01*
X14446667Y-9407500D02*
X14421667Y-9432500D01*
X14421667Y-9582500D02*
X14446667Y-9607500D01*
X14446667Y-9582500D02*
X14421667Y-9607500D01*
X14541700Y-11293040D02*
X14566700Y-11318040D01*
X14566700Y-11293040D02*
X14541700Y-11318040D01*
X14546780Y-12103300D02*
X14571780Y-12128300D01*
X14571780Y-12103300D02*
X14546780Y-12128300D01*
X14564560Y-11468300D02*
X14589560Y-11493300D01*
X14589560Y-11468300D02*
X14564560Y-11493300D01*
X14596667Y-7307500D02*
X14621667Y-7332500D01*
X14621667Y-7307500D02*
X14596667Y-7332500D01*
X14596667Y-8357500D02*
X14621667Y-8382500D01*
X14621667Y-8357500D02*
X14596667Y-8382500D01*
X14596667Y-8707500D02*
X14621667Y-8732500D01*
X14621667Y-8707500D02*
X14596667Y-8732500D01*
X14596667Y-9407500D02*
X14621667Y-9432500D01*
X14621667Y-9407500D02*
X14596667Y-9432500D01*
X14771667Y-7307500D02*
X14796667Y-7332500D01*
X14796667Y-7307500D02*
X14771667Y-7332500D01*
X14771667Y-7482500D02*
X14796667Y-7507500D01*
X14796667Y-7482500D02*
X14771667Y-7507500D01*
X14771667Y-7657500D02*
X14796667Y-7682500D01*
X14796667Y-7657500D02*
X14771667Y-7682500D01*
X14771667Y-7832500D02*
X14796667Y-7857500D01*
X14796667Y-7832500D02*
X14771667Y-7857500D01*
X14771667Y-8007500D02*
X14796667Y-8032500D01*
X14796667Y-8007500D02*
X14771667Y-8032500D01*
X14771667Y-8182500D02*
X14796667Y-8207500D01*
X14796667Y-8182500D02*
X14771667Y-8207500D01*
X14771667Y-8357500D02*
X14796667Y-8382500D01*
X14796667Y-8357500D02*
X14771667Y-8382500D01*
X14771667Y-8532500D02*
X14796667Y-8557500D01*
X14796667Y-8532500D02*
X14771667Y-8557500D01*
X14771667Y-8707500D02*
X14796667Y-8732500D01*
X14796667Y-8707500D02*
X14771667Y-8732500D01*
X14846500Y-12103300D02*
X14871500Y-12128300D01*
X14871500Y-12103300D02*
X14846500Y-12128300D01*
X15075100Y-10160200D02*
X15100100Y-10185200D01*
X15100100Y-10160200D02*
X15075100Y-10185200D01*
X15146220Y-12103300D02*
X15171220Y-12128300D01*
X15171220Y-12103300D02*
X15146220Y-12128300D01*
X15265600Y-10881450D02*
X15290600Y-10906450D01*
X15290600Y-10881450D02*
X15265600Y-10906450D01*
X15291000Y-11646100D02*
X15316000Y-11671100D01*
X15316000Y-11646100D02*
X15291000Y-11671100D01*
X15341800Y-7366200D02*
X15366800Y-7391200D01*
X15366800Y-7366200D02*
X15341800Y-7391200D01*
X15392600Y-8864800D02*
X15417600Y-8889800D01*
X15417600Y-8864800D02*
X15392600Y-8889800D01*
X15445940Y-12103300D02*
X15470940Y-12128300D01*
X15470940Y-12103300D02*
X15445940Y-12128300D01*
X15550080Y-8036760D02*
X15575080Y-8061760D01*
X15575080Y-8036760D02*
X15550080Y-8061760D01*
X15557700Y-11887400D02*
X15582700Y-11912400D01*
X15582700Y-11887400D02*
X15557700Y-11912400D01*
X15778680Y-11498780D02*
X15803680Y-11523780D01*
X15803680Y-11498780D02*
X15778680Y-11523780D01*
X15786300Y-12103300D02*
X15811300Y-12128300D01*
X15811300Y-12103300D02*
X15786300Y-12128300D01*
X15849800Y-9906200D02*
X15874800Y-9931200D01*
X15874800Y-9906200D02*
X15849800Y-9931200D01*
X16040300Y-11900100D02*
X16065300Y-11925100D01*
X16065300Y-11900100D02*
X16040300Y-11925100D01*
X16065700Y-8179000D02*
X16090700Y-8204000D01*
X16090700Y-8179000D02*
X16065700Y-8204000D01*
X16078400Y-11503860D02*
X16103400Y-11528860D01*
X16103400Y-11503860D02*
X16078400Y-11528860D01*
X16086020Y-12103300D02*
X16111020Y-12128300D01*
X16111020Y-12103300D02*
X16086020Y-12128300D01*
X16319700Y-11478460D02*
X16344700Y-11503460D01*
X16344700Y-11478460D02*
X16319700Y-11503460D01*
X16385740Y-12103300D02*
X16410740Y-12128300D01*
X16410740Y-12103300D02*
X16385740Y-12128300D01*
X16408600Y-11900100D02*
X16433600Y-11925100D01*
X16433600Y-11900100D02*
X16408600Y-11925100D01*
X16632120Y-8707320D02*
X16657120Y-8732320D01*
X16657120Y-8707320D02*
X16632120Y-8732320D01*
X16685460Y-12103300D02*
X16710460Y-12128300D01*
X16710460Y-12103300D02*
X16685460Y-12128300D01*
X16700700Y-9040060D02*
X16725700Y-9065060D01*
X16725700Y-9040060D02*
X16700700Y-9065060D01*
X16944540Y-12103300D02*
X16969540Y-12128300D01*
X16969540Y-12103300D02*
X16944540Y-12128300D01*
X17033600Y-8323400D02*
X17058600Y-8348400D01*
X17058600Y-8323400D02*
X17033600Y-8348400D01*
X17244260Y-12103300D02*
X17269260Y-12128300D01*
X17269260Y-12103300D02*
X17244260Y-12128300D01*
X17259500Y-8293300D02*
X17284500Y-8318300D01*
X17284500Y-8293300D02*
X17259500Y-8318300D01*
X17350940Y-9245800D02*
X17375940Y-9270800D01*
X17375940Y-9245800D02*
X17350940Y-9270800D01*
X17543980Y-12103300D02*
X17568980Y-12128300D01*
X17568980Y-12103300D02*
X17543980Y-12128300D01*
X17843700Y-12103300D02*
X17868700Y-12128300D01*
X17868700Y-12103300D02*
X17843700Y-12128300D01*
X18133260Y-12103300D02*
X18158260Y-12128300D01*
X18158260Y-12103300D02*
X18133260Y-12128300D01*
X18432980Y-12103300D02*
X18457980Y-12128300D01*
X18457980Y-12103300D02*
X18432980Y-12128300D01*
X18732700Y-12103300D02*
X18757700Y-12128300D01*
X18757700Y-12103300D02*
X18732700Y-12128300D01*
X19032420Y-12103300D02*
X19057420Y-12128300D01*
X19057420Y-12103300D02*
X19032420Y-12128300D01*
X19347380Y-12103300D02*
X19372380Y-12128300D01*
X19372380Y-12103300D02*
X19347380Y-12128300D01*
X19647100Y-12103300D02*
X19672100Y-12128300D01*
X19672100Y-12103300D02*
X19647100Y-12128300D01*
X19885860Y-11308280D02*
X19910860Y-11333280D01*
X19910860Y-11308280D02*
X19885860Y-11333280D01*
X19885860Y-11910260D02*
X19910860Y-11935260D01*
X19910860Y-11910260D02*
X19885860Y-11935260D01*
X19885860Y-12103300D02*
X19910860Y-12128300D01*
X19910860Y-12103300D02*
X19885860Y-12128300D01*
X19888400Y-11006020D02*
X19913400Y-11031020D01*
X19913400Y-11006020D02*
X19888400Y-11031020D01*
X19888400Y-11608000D02*
X19913400Y-11633000D01*
X19913400Y-11608000D02*
X19888400Y-11633000D01*
X19890940Y-8907980D02*
X19915940Y-8932980D01*
X19915940Y-8907980D02*
X19890940Y-8932980D01*
X19890940Y-9509960D02*
X19915940Y-9534960D01*
X19915940Y-9509960D02*
X19890940Y-9534960D01*
X19890940Y-10109400D02*
X19915940Y-10134400D01*
X19915940Y-10109400D02*
X19890940Y-10134400D01*
X19890940Y-10711380D02*
X19915940Y-10736380D01*
X19915940Y-10711380D02*
X19890940Y-10736380D01*
X19893480Y-7711640D02*
X19918480Y-7736640D01*
X19918480Y-7711640D02*
X19893480Y-7736640D01*
X19893480Y-8313620D02*
X19918480Y-8338620D01*
X19918480Y-8313620D02*
X19893480Y-8338620D01*
X19893480Y-8605720D02*
X19918480Y-8630720D01*
X19918480Y-8605720D02*
X19893480Y-8630720D01*
X19893480Y-9207700D02*
X19918480Y-9232700D01*
X19918480Y-9207700D02*
X19893480Y-9232700D01*
X19893480Y-9807140D02*
X19918480Y-9832140D01*
X19918480Y-9807140D02*
X19893480Y-9832140D01*
X19893480Y-10409120D02*
X19918480Y-10434120D01*
X19918480Y-10409120D02*
X19893480Y-10434120D01*
X19896020Y-7409380D02*
X19921020Y-7434380D01*
X19921020Y-7409380D02*
X19896020Y-7434380D01*
X19896020Y-8011360D02*
X19921020Y-8036360D01*
X19921020Y-8011360D02*
X19896020Y-8036360D01*
D13*
X13743252Y-10929253D02*
G75*
G03*
X13743252Y-10929253I-20000J0D01*
G01*
X17177700Y-9423400D02*
G75*
G03*
X17177700Y-9423400I-20000J0D01*
G01*
X17749200Y-8483600D02*
G75*
G03*
X17749200Y-8483600I-20000J0D01*
G01*
D10*
X11227000Y-9514500D02*
X11227000Y-9614500D01*
X11177000Y-9564500D02*
X11277000Y-9564500D01*
X11227000Y-9768500D02*
X11227000Y-9868500D01*
X11177000Y-9818500D02*
X11277000Y-9818500D01*
X11227000Y-10022500D02*
X11227000Y-10122500D01*
X11177000Y-10072500D02*
X11277000Y-10072500D01*
X11481000Y-9514500D02*
X11481000Y-9614500D01*
X11431000Y-9564500D02*
X11531000Y-9564500D01*
X11481000Y-9768500D02*
X11481000Y-9868500D01*
X11431000Y-9818500D02*
X11531000Y-9818500D01*
X11481000Y-10022500D02*
X11481000Y-10122500D01*
X11431000Y-10072500D02*
X11531000Y-10072500D01*
X12434640Y-7439440D02*
X12434640Y-7539440D01*
X12384640Y-7489440D02*
X12484640Y-7489440D01*
X12688640Y-7439440D02*
X12688640Y-7539440D01*
X12638640Y-7489440D02*
X12738640Y-7489440D01*
X12942640Y-7439440D02*
X12942640Y-7539440D01*
X12892640Y-7489440D02*
X12992640Y-7489440D01*
X13196640Y-7439440D02*
X13196640Y-7539440D01*
X13146640Y-7489440D02*
X13246640Y-7489440D01*
X15790500Y-10181350D02*
X15790500Y-10281350D01*
X15740500Y-10231350D02*
X15840500Y-10231350D01*
X16044500Y-10181350D02*
X16044500Y-10281350D01*
X15994500Y-10231350D02*
X16094500Y-10231350D01*
X16298500Y-10181350D02*
X16298500Y-10281350D01*
X16248500Y-10231350D02*
X16348500Y-10231350D01*
D14*
X18597266Y-8252166D02*
X18597266Y-8169434D01*
X18514534Y-8169434D01*
X18514534Y-8252166D01*
X18597266Y-8252166D01*
X18597266Y-8696166D02*
X18597266Y-8613434D01*
X18514534Y-8613434D01*
X18514534Y-8696166D01*
X18597266Y-8696166D01*
X18597266Y-9141166D02*
X18597266Y-9058434D01*
X18514534Y-9058434D01*
X18514534Y-9141166D01*
X18597266Y-9141166D01*
X18597266Y-9585166D02*
X18597266Y-9502434D01*
X18514534Y-9502434D01*
X18514534Y-9585166D01*
X18597266Y-9585166D01*
X18597266Y-10030166D02*
X18597266Y-9947434D01*
X18514534Y-9947434D01*
X18514534Y-10030166D01*
X18597266Y-10030166D01*
X18597266Y-10474166D02*
X18597266Y-10391434D01*
X18514534Y-10391434D01*
X18514534Y-10474166D01*
X18597266Y-10474166D01*
X19509266Y-8252166D02*
X19509266Y-8169434D01*
X19426534Y-8169434D01*
X19426534Y-8252166D01*
X19509266Y-8252166D01*
X19509266Y-8696166D02*
X19509266Y-8613434D01*
X19426534Y-8613434D01*
X19426534Y-8696166D01*
X19509266Y-8696166D01*
X19509266Y-9141166D02*
X19509266Y-9058434D01*
X19426534Y-9058434D01*
X19426534Y-9141166D01*
X19509266Y-9141166D01*
X19509266Y-9585166D02*
X19509266Y-9502434D01*
X19426534Y-9502434D01*
X19426534Y-9585166D01*
X19509266Y-9585166D01*
X19509266Y-10030166D02*
X19509266Y-9947434D01*
X19426534Y-9947434D01*
X19426534Y-10030166D01*
X19509266Y-10030166D01*
X19509266Y-10474166D02*
X19509266Y-10391434D01*
X19426534Y-10391434D01*
X19426534Y-10474166D01*
X19509266Y-10474166D01*
D15*
X12133700Y-11944500D02*
X12203700Y-11874500D01*
X12133700Y-11804500D01*
X12063700Y-11874500D01*
X12133700Y-11944500D01*
X12683700Y-11944500D02*
X12753700Y-11874500D01*
X12683700Y-11804500D01*
X12613700Y-11874500D01*
X12683700Y-11944500D01*
X16894600Y-11467800D02*
X16964600Y-11397800D01*
X16894600Y-11327800D01*
X16824600Y-11397800D01*
X16894600Y-11467800D01*
X16894600Y-11887800D02*
X16964600Y-11817800D01*
X16894600Y-11747800D01*
X16824600Y-11817800D01*
X16894600Y-11887800D01*
X17444600Y-11467800D02*
X17514600Y-11397800D01*
X17444600Y-11327800D01*
X17374600Y-11397800D01*
X17444600Y-11467800D01*
X17444600Y-11887800D02*
X17514600Y-11817800D01*
X17444600Y-11747800D01*
X17374600Y-11817800D01*
X17444600Y-11887800D01*
X18191600Y-11467800D02*
X18261600Y-11397800D01*
X18191600Y-11327800D01*
X18121600Y-11397800D01*
X18191600Y-11467800D01*
X18191600Y-11887800D02*
X18261600Y-11817800D01*
X18191600Y-11747800D01*
X18121600Y-11817800D01*
X18191600Y-11887800D01*
X18741600Y-11467800D02*
X18811600Y-11397800D01*
X18741600Y-11327800D01*
X18671600Y-11397800D01*
X18741600Y-11467800D01*
X18741600Y-11887800D02*
X18811600Y-11817800D01*
X18741600Y-11747800D01*
X18671600Y-11817800D01*
X18741600Y-11887800D01*
D11*
X11200019Y-12532876D02*
X11200019Y-12332876D01*
X11247638Y-12332876D01*
X11276209Y-12342400D01*
X11295257Y-12361448D01*
X11304781Y-12380495D01*
X11314305Y-12418590D01*
X11314305Y-12447162D01*
X11304781Y-12485257D01*
X11295257Y-12504305D01*
X11276209Y-12523352D01*
X11247638Y-12532876D01*
X11200019Y-12532876D01*
X11400019Y-12532876D02*
X11400019Y-12399543D01*
X11400019Y-12437638D02*
X11409543Y-12418590D01*
X11419067Y-12409067D01*
X11438114Y-12399543D01*
X11457162Y-12399543D01*
X11523828Y-12532876D02*
X11523828Y-12399543D01*
X11523828Y-12332876D02*
X11514305Y-12342400D01*
X11523828Y-12351924D01*
X11533352Y-12342400D01*
X11523828Y-12332876D01*
X11523828Y-12351924D01*
X11647638Y-12532876D02*
X11628590Y-12523352D01*
X11619067Y-12504305D01*
X11619067Y-12332876D01*
X11752400Y-12532876D02*
X11733352Y-12523352D01*
X11723828Y-12504305D01*
X11723828Y-12332876D01*
X11980971Y-12532876D02*
X11980971Y-12332876D01*
X12047638Y-12475733D01*
X12114305Y-12332876D01*
X12114305Y-12532876D01*
X12295257Y-12532876D02*
X12295257Y-12428114D01*
X12285733Y-12409067D01*
X12266686Y-12399543D01*
X12228590Y-12399543D01*
X12209543Y-12409067D01*
X12295257Y-12523352D02*
X12276209Y-12532876D01*
X12228590Y-12532876D01*
X12209543Y-12523352D01*
X12200019Y-12504305D01*
X12200019Y-12485257D01*
X12209543Y-12466209D01*
X12228590Y-12456686D01*
X12276209Y-12456686D01*
X12295257Y-12447162D01*
X12390495Y-12399543D02*
X12390495Y-12599543D01*
X12390495Y-12409067D02*
X12409543Y-12399543D01*
X12447638Y-12399543D01*
X12466686Y-12409067D01*
X12476209Y-12418590D01*
X12485733Y-12437638D01*
X12485733Y-12494781D01*
X12476209Y-12513828D01*
X12466686Y-12523352D01*
X12447638Y-12532876D01*
X12409543Y-12532876D01*
X12390495Y-12523352D01*
X12571448Y-12513828D02*
X12580971Y-12523352D01*
X12571448Y-12532876D01*
X12561924Y-12523352D01*
X12571448Y-12513828D01*
X12571448Y-12532876D01*
X12571448Y-12409067D02*
X12580971Y-12418590D01*
X12571448Y-12428114D01*
X12561924Y-12418590D01*
X12571448Y-12409067D01*
X12571448Y-12428114D01*
D12*
X10917400Y-12849900D02*
X10942400Y-12874900D01*
X10942400Y-12849900D02*
X10917400Y-12874900D01*
D11*
X11238114Y-12752876D02*
X11257162Y-12752876D01*
X11276209Y-12762400D01*
X11285733Y-12771924D01*
X11295257Y-12790971D01*
X11304781Y-12829067D01*
X11304781Y-12876686D01*
X11295257Y-12914781D01*
X11285733Y-12933828D01*
X11276209Y-12943352D01*
X11257162Y-12952876D01*
X11238114Y-12952876D01*
X11219067Y-12943352D01*
X11209543Y-12933828D01*
X11200019Y-12914781D01*
X11190495Y-12876686D01*
X11190495Y-12829067D01*
X11200019Y-12790971D01*
X11209543Y-12771924D01*
X11219067Y-12762400D01*
X11238114Y-12752876D01*
X11390495Y-12933828D02*
X11400019Y-12943352D01*
X11390495Y-12952876D01*
X11380971Y-12943352D01*
X11390495Y-12933828D01*
X11390495Y-12952876D01*
X11476209Y-12771924D02*
X11485733Y-12762400D01*
X11504781Y-12752876D01*
X11552400Y-12752876D01*
X11571448Y-12762400D01*
X11580971Y-12771924D01*
X11590495Y-12790971D01*
X11590495Y-12810019D01*
X11580971Y-12838590D01*
X11466686Y-12952876D01*
X11590495Y-12952876D01*
X11771448Y-12752876D02*
X11676209Y-12752876D01*
X11666686Y-12848114D01*
X11676209Y-12838590D01*
X11695257Y-12829067D01*
X11742876Y-12829067D01*
X11761924Y-12838590D01*
X11771448Y-12848114D01*
X11780971Y-12867162D01*
X11780971Y-12914781D01*
X11771448Y-12933828D01*
X11761924Y-12943352D01*
X11742876Y-12952876D01*
X11695257Y-12952876D01*
X11676209Y-12943352D01*
X11666686Y-12933828D01*
X11904781Y-12752876D02*
X11923828Y-12752876D01*
X11942876Y-12762400D01*
X11952400Y-12771924D01*
X11961924Y-12790971D01*
X11971448Y-12829067D01*
X11971448Y-12876686D01*
X11961924Y-12914781D01*
X11952400Y-12933828D01*
X11942876Y-12943352D01*
X11923828Y-12952876D01*
X11904781Y-12952876D01*
X11885733Y-12943352D01*
X11876209Y-12933828D01*
X11866686Y-12914781D01*
X11857162Y-12876686D01*
X11857162Y-12829067D01*
X11866686Y-12790971D01*
X11876209Y-12771924D01*
X11885733Y-12762400D01*
X11904781Y-12752876D01*
X12057162Y-12952876D02*
X12057162Y-12819543D01*
X12057162Y-12838590D02*
X12066686Y-12829067D01*
X12085733Y-12819543D01*
X12114305Y-12819543D01*
X12133352Y-12829067D01*
X12142876Y-12848114D01*
X12142876Y-12952876D01*
X12142876Y-12848114D02*
X12152400Y-12829067D01*
X12171448Y-12819543D01*
X12200019Y-12819543D01*
X12219067Y-12829067D01*
X12228590Y-12848114D01*
X12228590Y-12952876D01*
X12323828Y-12952876D02*
X12323828Y-12819543D01*
X12323828Y-12838590D02*
X12333352Y-12829067D01*
X12352400Y-12819543D01*
X12380971Y-12819543D01*
X12400019Y-12829067D01*
X12409543Y-12848114D01*
X12409543Y-12952876D01*
X12409543Y-12848114D02*
X12419067Y-12829067D01*
X12438114Y-12819543D01*
X12466686Y-12819543D01*
X12485733Y-12829067D01*
X12495257Y-12848114D01*
X12495257Y-12952876D01*
X12885733Y-12743352D02*
X12714305Y-13000495D01*
X13142876Y-12752876D02*
X13161924Y-12752876D01*
X13180971Y-12762400D01*
X13190495Y-12771924D01*
X13200019Y-12790971D01*
X13209543Y-12829067D01*
X13209543Y-12876686D01*
X13200019Y-12914781D01*
X13190495Y-12933828D01*
X13180971Y-12943352D01*
X13161924Y-12952876D01*
X13142876Y-12952876D01*
X13123828Y-12943352D01*
X13114305Y-12933828D01*
X13104781Y-12914781D01*
X13095257Y-12876686D01*
X13095257Y-12829067D01*
X13104781Y-12790971D01*
X13114305Y-12771924D01*
X13123828Y-12762400D01*
X13142876Y-12752876D01*
X13295257Y-12933828D02*
X13304781Y-12943352D01*
X13295257Y-12952876D01*
X13285733Y-12943352D01*
X13295257Y-12933828D01*
X13295257Y-12952876D01*
X13428590Y-12752876D02*
X13447638Y-12752876D01*
X13466686Y-12762400D01*
X13476209Y-12771924D01*
X13485733Y-12790971D01*
X13495257Y-12829067D01*
X13495257Y-12876686D01*
X13485733Y-12914781D01*
X13476209Y-12933828D01*
X13466686Y-12943352D01*
X13447638Y-12952876D01*
X13428590Y-12952876D01*
X13409543Y-12943352D01*
X13400019Y-12933828D01*
X13390495Y-12914781D01*
X13380971Y-12876686D01*
X13380971Y-12829067D01*
X13390495Y-12790971D01*
X13400019Y-12771924D01*
X13409543Y-12762400D01*
X13428590Y-12752876D01*
X13619067Y-12752876D02*
X13638114Y-12752876D01*
X13657162Y-12762400D01*
X13666686Y-12771924D01*
X13676209Y-12790971D01*
X13685733Y-12829067D01*
X13685733Y-12876686D01*
X13676209Y-12914781D01*
X13666686Y-12933828D01*
X13657162Y-12943352D01*
X13638114Y-12952876D01*
X13619067Y-12952876D01*
X13600019Y-12943352D01*
X13590495Y-12933828D01*
X13580971Y-12914781D01*
X13571448Y-12876686D01*
X13571448Y-12829067D01*
X13580971Y-12790971D01*
X13590495Y-12771924D01*
X13600019Y-12762400D01*
X13619067Y-12752876D01*
X13780971Y-12952876D02*
X13819067Y-12952876D01*
X13838114Y-12943352D01*
X13847638Y-12933828D01*
X13866686Y-12905257D01*
X13876209Y-12867162D01*
X13876209Y-12790971D01*
X13866686Y-12771924D01*
X13857162Y-12762400D01*
X13838114Y-12752876D01*
X13800019Y-12752876D01*
X13780971Y-12762400D01*
X13771448Y-12771924D01*
X13761924Y-12790971D01*
X13761924Y-12838590D01*
X13771448Y-12857638D01*
X13780971Y-12867162D01*
X13800019Y-12876686D01*
X13838114Y-12876686D01*
X13857162Y-12867162D01*
X13866686Y-12857638D01*
X13876209Y-12838590D01*
X13990495Y-12838590D02*
X13971448Y-12829067D01*
X13961924Y-12819543D01*
X13952400Y-12800495D01*
X13952400Y-12790971D01*
X13961924Y-12771924D01*
X13971448Y-12762400D01*
X13990495Y-12752876D01*
X14028590Y-12752876D01*
X14047638Y-12762400D01*
X14057162Y-12771924D01*
X14066686Y-12790971D01*
X14066686Y-12800495D01*
X14057162Y-12819543D01*
X14047638Y-12829067D01*
X14028590Y-12838590D01*
X13990495Y-12838590D01*
X13971448Y-12848114D01*
X13961924Y-12857638D01*
X13952400Y-12876686D01*
X13952400Y-12914781D01*
X13961924Y-12933828D01*
X13971448Y-12943352D01*
X13990495Y-12952876D01*
X14028590Y-12952876D01*
X14047638Y-12943352D01*
X14057162Y-12933828D01*
X14066686Y-12914781D01*
X14066686Y-12876686D01*
X14057162Y-12857638D01*
X14047638Y-12848114D01*
X14028590Y-12838590D01*
X14142876Y-12752876D02*
X14142876Y-12790971D01*
X14219067Y-12752876D02*
X14219067Y-12790971D01*
X14514305Y-13029067D02*
X14504781Y-13019543D01*
X14485733Y-12990971D01*
X14476209Y-12971924D01*
X14466686Y-12943352D01*
X14457162Y-12895733D01*
X14457162Y-12857638D01*
X14466686Y-12810019D01*
X14476209Y-12781448D01*
X14485733Y-12762400D01*
X14504781Y-12733828D01*
X14514305Y-12724305D01*
X14695257Y-12952876D02*
X14580971Y-12952876D01*
X14638114Y-12952876D02*
X14638114Y-12752876D01*
X14619067Y-12781448D01*
X14600019Y-12800495D01*
X14580971Y-12810019D01*
X14790495Y-12952876D02*
X14828590Y-12952876D01*
X14847638Y-12943352D01*
X14857162Y-12933828D01*
X14876209Y-12905257D01*
X14885733Y-12867162D01*
X14885733Y-12790971D01*
X14876209Y-12771924D01*
X14866686Y-12762400D01*
X14847638Y-12752876D01*
X14809543Y-12752876D01*
X14790495Y-12762400D01*
X14780971Y-12771924D01*
X14771448Y-12790971D01*
X14771448Y-12838590D01*
X14780971Y-12857638D01*
X14790495Y-12867162D01*
X14809543Y-12876686D01*
X14847638Y-12876686D01*
X14866686Y-12867162D01*
X14876209Y-12857638D01*
X14885733Y-12838590D01*
X15009543Y-12752876D02*
X15028590Y-12752876D01*
X15047638Y-12762400D01*
X15057162Y-12771924D01*
X15066686Y-12790971D01*
X15076209Y-12829067D01*
X15076209Y-12876686D01*
X15066686Y-12914781D01*
X15057162Y-12933828D01*
X15047638Y-12943352D01*
X15028590Y-12952876D01*
X15009543Y-12952876D01*
X14990495Y-12943352D01*
X14980971Y-12933828D01*
X14971448Y-12914781D01*
X14961924Y-12876686D01*
X14961924Y-12829067D01*
X14971448Y-12790971D01*
X14980971Y-12771924D01*
X14990495Y-12762400D01*
X15009543Y-12752876D01*
X15314305Y-12952876D02*
X15314305Y-12752876D01*
X15400019Y-12952876D02*
X15400019Y-12848114D01*
X15390495Y-12829067D01*
X15371448Y-12819543D01*
X15342876Y-12819543D01*
X15323828Y-12829067D01*
X15314305Y-12838590D01*
X15523828Y-12952876D02*
X15504781Y-12943352D01*
X15495257Y-12933828D01*
X15485733Y-12914781D01*
X15485733Y-12857638D01*
X15495257Y-12838590D01*
X15504781Y-12829067D01*
X15523828Y-12819543D01*
X15552400Y-12819543D01*
X15571448Y-12829067D01*
X15580971Y-12838590D01*
X15590495Y-12857638D01*
X15590495Y-12914781D01*
X15580971Y-12933828D01*
X15571448Y-12943352D01*
X15552400Y-12952876D01*
X15523828Y-12952876D01*
X15704781Y-12952876D02*
X15685733Y-12943352D01*
X15676209Y-12924305D01*
X15676209Y-12752876D01*
X15857162Y-12943352D02*
X15838114Y-12952876D01*
X15800019Y-12952876D01*
X15780971Y-12943352D01*
X15771448Y-12924305D01*
X15771448Y-12848114D01*
X15780971Y-12829067D01*
X15800019Y-12819543D01*
X15838114Y-12819543D01*
X15857162Y-12829067D01*
X15866686Y-12848114D01*
X15866686Y-12867162D01*
X15771448Y-12886209D01*
X15942876Y-12943352D02*
X15961924Y-12952876D01*
X16000019Y-12952876D01*
X16019067Y-12943352D01*
X16028590Y-12924305D01*
X16028590Y-12914781D01*
X16019067Y-12895733D01*
X16000019Y-12886209D01*
X15971448Y-12886209D01*
X15952400Y-12876686D01*
X15942876Y-12857638D01*
X15942876Y-12848114D01*
X15952400Y-12829067D01*
X15971448Y-12819543D01*
X16000019Y-12819543D01*
X16019067Y-12829067D01*
X16095257Y-13029067D02*
X16104781Y-13019543D01*
X16123828Y-12990971D01*
X16133352Y-12971924D01*
X16142876Y-12943352D01*
X16152400Y-12895733D01*
X16152400Y-12857638D01*
X16142876Y-12810019D01*
X16133352Y-12781448D01*
X16123828Y-12762400D01*
X16104781Y-12733828D01*
X16095257Y-12724305D01*
D13*
X10942400Y-13126400D02*
G75*
G03*
X10942400Y-13126400I-20000J0D01*
G01*
D11*
X11238114Y-13016876D02*
X11257162Y-13016876D01*
X11276209Y-13026400D01*
X11285733Y-13035924D01*
X11295257Y-13054971D01*
X11304781Y-13093067D01*
X11304781Y-13140686D01*
X11295257Y-13178781D01*
X11285733Y-13197828D01*
X11276209Y-13207352D01*
X11257162Y-13216876D01*
X11238114Y-13216876D01*
X11219067Y-13207352D01*
X11209543Y-13197828D01*
X11200019Y-13178781D01*
X11190495Y-13140686D01*
X11190495Y-13093067D01*
X11200019Y-13054971D01*
X11209543Y-13035924D01*
X11219067Y-13026400D01*
X11238114Y-13016876D01*
X11390495Y-13197828D02*
X11400019Y-13207352D01*
X11390495Y-13216876D01*
X11380971Y-13207352D01*
X11390495Y-13197828D01*
X11390495Y-13216876D01*
X11571448Y-13083543D02*
X11571448Y-13216876D01*
X11523828Y-13007352D02*
X11476209Y-13150209D01*
X11600019Y-13150209D01*
X11714305Y-13016876D02*
X11733352Y-13016876D01*
X11752400Y-13026400D01*
X11761924Y-13035924D01*
X11771448Y-13054971D01*
X11780971Y-13093067D01*
X11780971Y-13140686D01*
X11771448Y-13178781D01*
X11761924Y-13197828D01*
X11752400Y-13207352D01*
X11733352Y-13216876D01*
X11714305Y-13216876D01*
X11695257Y-13207352D01*
X11685733Y-13197828D01*
X11676209Y-13178781D01*
X11666686Y-13140686D01*
X11666686Y-13093067D01*
X11676209Y-13054971D01*
X11685733Y-13035924D01*
X11695257Y-13026400D01*
X11714305Y-13016876D01*
X11904781Y-13016876D02*
X11923828Y-13016876D01*
X11942876Y-13026400D01*
X11952400Y-13035924D01*
X11961924Y-13054971D01*
X11971448Y-13093067D01*
X11971448Y-13140686D01*
X11961924Y-13178781D01*
X11952400Y-13197828D01*
X11942876Y-13207352D01*
X11923828Y-13216876D01*
X11904781Y-13216876D01*
X11885733Y-13207352D01*
X11876209Y-13197828D01*
X11866686Y-13178781D01*
X11857162Y-13140686D01*
X11857162Y-13093067D01*
X11866686Y-13054971D01*
X11876209Y-13035924D01*
X11885733Y-13026400D01*
X11904781Y-13016876D01*
X12057162Y-13216876D02*
X12057162Y-13083543D01*
X12057162Y-13102590D02*
X12066686Y-13093067D01*
X12085733Y-13083543D01*
X12114305Y-13083543D01*
X12133352Y-13093067D01*
X12142876Y-13112114D01*
X12142876Y-13216876D01*
X12142876Y-13112114D02*
X12152400Y-13093067D01*
X12171448Y-13083543D01*
X12200019Y-13083543D01*
X12219067Y-13093067D01*
X12228590Y-13112114D01*
X12228590Y-13216876D01*
X12323828Y-13216876D02*
X12323828Y-13083543D01*
X12323828Y-13102590D02*
X12333352Y-13093067D01*
X12352400Y-13083543D01*
X12380971Y-13083543D01*
X12400019Y-13093067D01*
X12409543Y-13112114D01*
X12409543Y-13216876D01*
X12409543Y-13112114D02*
X12419067Y-13093067D01*
X12438114Y-13083543D01*
X12466686Y-13083543D01*
X12485733Y-13093067D01*
X12495257Y-13112114D01*
X12495257Y-13216876D01*
X12885733Y-13007352D02*
X12714305Y-13264495D01*
X13142876Y-13016876D02*
X13161924Y-13016876D01*
X13180971Y-13026400D01*
X13190495Y-13035924D01*
X13200019Y-13054971D01*
X13209543Y-13093067D01*
X13209543Y-13140686D01*
X13200019Y-13178781D01*
X13190495Y-13197828D01*
X13180971Y-13207352D01*
X13161924Y-13216876D01*
X13142876Y-13216876D01*
X13123828Y-13207352D01*
X13114305Y-13197828D01*
X13104781Y-13178781D01*
X13095257Y-13140686D01*
X13095257Y-13093067D01*
X13104781Y-13054971D01*
X13114305Y-13035924D01*
X13123828Y-13026400D01*
X13142876Y-13016876D01*
X13295257Y-13197828D02*
X13304781Y-13207352D01*
X13295257Y-13216876D01*
X13285733Y-13207352D01*
X13295257Y-13197828D01*
X13295257Y-13216876D01*
X13428590Y-13016876D02*
X13447638Y-13016876D01*
X13466686Y-13026400D01*
X13476209Y-13035924D01*
X13485733Y-13054971D01*
X13495257Y-13093067D01*
X13495257Y-13140686D01*
X13485733Y-13178781D01*
X13476209Y-13197828D01*
X13466686Y-13207352D01*
X13447638Y-13216876D01*
X13428590Y-13216876D01*
X13409543Y-13207352D01*
X13400019Y-13197828D01*
X13390495Y-13178781D01*
X13380971Y-13140686D01*
X13380971Y-13093067D01*
X13390495Y-13054971D01*
X13400019Y-13035924D01*
X13409543Y-13026400D01*
X13428590Y-13016876D01*
X13685733Y-13216876D02*
X13571448Y-13216876D01*
X13628590Y-13216876D02*
X13628590Y-13016876D01*
X13609543Y-13045448D01*
X13590495Y-13064495D01*
X13571448Y-13074019D01*
X13866686Y-13016876D02*
X13771448Y-13016876D01*
X13761924Y-13112114D01*
X13771448Y-13102590D01*
X13790495Y-13093067D01*
X13838114Y-13093067D01*
X13857162Y-13102590D01*
X13866686Y-13112114D01*
X13876209Y-13131162D01*
X13876209Y-13178781D01*
X13866686Y-13197828D01*
X13857162Y-13207352D01*
X13838114Y-13216876D01*
X13790495Y-13216876D01*
X13771448Y-13207352D01*
X13761924Y-13197828D01*
X13942876Y-13016876D02*
X14076209Y-13016876D01*
X13990495Y-13216876D01*
X14142876Y-13016876D02*
X14142876Y-13054971D01*
X14219067Y-13016876D02*
X14219067Y-13054971D01*
X14514305Y-13293067D02*
X14504781Y-13283543D01*
X14485733Y-13254971D01*
X14476209Y-13235924D01*
X14466686Y-13207352D01*
X14457162Y-13159733D01*
X14457162Y-13121638D01*
X14466686Y-13074019D01*
X14476209Y-13045448D01*
X14485733Y-13026400D01*
X14504781Y-12997828D01*
X14514305Y-12988305D01*
X14571448Y-13016876D02*
X14695257Y-13016876D01*
X14628590Y-13093067D01*
X14657162Y-13093067D01*
X14676209Y-13102590D01*
X14685733Y-13112114D01*
X14695257Y-13131162D01*
X14695257Y-13178781D01*
X14685733Y-13197828D01*
X14676209Y-13207352D01*
X14657162Y-13216876D01*
X14600019Y-13216876D01*
X14580971Y-13207352D01*
X14571448Y-13197828D01*
X14933352Y-13216876D02*
X14933352Y-13016876D01*
X15019067Y-13216876D02*
X15019067Y-13112114D01*
X15009543Y-13093067D01*
X14990495Y-13083543D01*
X14961924Y-13083543D01*
X14942876Y-13093067D01*
X14933352Y-13102590D01*
X15142876Y-13216876D02*
X15123828Y-13207352D01*
X15114305Y-13197828D01*
X15104781Y-13178781D01*
X15104781Y-13121638D01*
X15114305Y-13102590D01*
X15123828Y-13093067D01*
X15142876Y-13083543D01*
X15171448Y-13083543D01*
X15190495Y-13093067D01*
X15200019Y-13102590D01*
X15209543Y-13121638D01*
X15209543Y-13178781D01*
X15200019Y-13197828D01*
X15190495Y-13207352D01*
X15171448Y-13216876D01*
X15142876Y-13216876D01*
X15323828Y-13216876D02*
X15304781Y-13207352D01*
X15295257Y-13188305D01*
X15295257Y-13016876D01*
X15476209Y-13207352D02*
X15457162Y-13216876D01*
X15419067Y-13216876D01*
X15400019Y-13207352D01*
X15390495Y-13188305D01*
X15390495Y-13112114D01*
X15400019Y-13093067D01*
X15419067Y-13083543D01*
X15457162Y-13083543D01*
X15476209Y-13093067D01*
X15485733Y-13112114D01*
X15485733Y-13131162D01*
X15390495Y-13150209D01*
X15561924Y-13207352D02*
X15580971Y-13216876D01*
X15619067Y-13216876D01*
X15638114Y-13207352D01*
X15647638Y-13188305D01*
X15647638Y-13178781D01*
X15638114Y-13159733D01*
X15619067Y-13150209D01*
X15590495Y-13150209D01*
X15571448Y-13140686D01*
X15561924Y-13121638D01*
X15561924Y-13112114D01*
X15571448Y-13093067D01*
X15590495Y-13083543D01*
X15619067Y-13083543D01*
X15638114Y-13093067D01*
X15714305Y-13293067D02*
X15723828Y-13283543D01*
X15742876Y-13254971D01*
X15752400Y-13235924D01*
X15761924Y-13207352D01*
X15771448Y-13159733D01*
X15771448Y-13121638D01*
X15761924Y-13074019D01*
X15752400Y-13045448D01*
X15742876Y-13026400D01*
X15723828Y-12997828D01*
X15714305Y-12988305D01*
D10*
X10892400Y-13340400D02*
X10892400Y-13440400D01*
X10842400Y-13390400D02*
X10942400Y-13390400D01*
D11*
X11304781Y-13480876D02*
X11190495Y-13480876D01*
X11247638Y-13480876D02*
X11247638Y-13280876D01*
X11228590Y-13309448D01*
X11209543Y-13328495D01*
X11190495Y-13338019D01*
X11390495Y-13461828D02*
X11400019Y-13471352D01*
X11390495Y-13480876D01*
X11380971Y-13471352D01*
X11390495Y-13461828D01*
X11390495Y-13480876D01*
X11523828Y-13280876D02*
X11542876Y-13280876D01*
X11561924Y-13290400D01*
X11571448Y-13299924D01*
X11580971Y-13318971D01*
X11590495Y-13357067D01*
X11590495Y-13404686D01*
X11580971Y-13442781D01*
X11571448Y-13461828D01*
X11561924Y-13471352D01*
X11542876Y-13480876D01*
X11523828Y-13480876D01*
X11504781Y-13471352D01*
X11495257Y-13461828D01*
X11485733Y-13442781D01*
X11476209Y-13404686D01*
X11476209Y-13357067D01*
X11485733Y-13318971D01*
X11495257Y-13299924D01*
X11504781Y-13290400D01*
X11523828Y-13280876D01*
X11714305Y-13280876D02*
X11733352Y-13280876D01*
X11752400Y-13290400D01*
X11761924Y-13299924D01*
X11771448Y-13318971D01*
X11780971Y-13357067D01*
X11780971Y-13404686D01*
X11771448Y-13442781D01*
X11761924Y-13461828D01*
X11752400Y-13471352D01*
X11733352Y-13480876D01*
X11714305Y-13480876D01*
X11695257Y-13471352D01*
X11685733Y-13461828D01*
X11676209Y-13442781D01*
X11666686Y-13404686D01*
X11666686Y-13357067D01*
X11676209Y-13318971D01*
X11685733Y-13299924D01*
X11695257Y-13290400D01*
X11714305Y-13280876D01*
X11904781Y-13280876D02*
X11923828Y-13280876D01*
X11942876Y-13290400D01*
X11952400Y-13299924D01*
X11961924Y-13318971D01*
X11971448Y-13357067D01*
X11971448Y-13404686D01*
X11961924Y-13442781D01*
X11952400Y-13461828D01*
X11942876Y-13471352D01*
X11923828Y-13480876D01*
X11904781Y-13480876D01*
X11885733Y-13471352D01*
X11876209Y-13461828D01*
X11866686Y-13442781D01*
X11857162Y-13404686D01*
X11857162Y-13357067D01*
X11866686Y-13318971D01*
X11876209Y-13299924D01*
X11885733Y-13290400D01*
X11904781Y-13280876D01*
X12057162Y-13480876D02*
X12057162Y-13347543D01*
X12057162Y-13366590D02*
X12066686Y-13357067D01*
X12085733Y-13347543D01*
X12114305Y-13347543D01*
X12133352Y-13357067D01*
X12142876Y-13376114D01*
X12142876Y-13480876D01*
X12142876Y-13376114D02*
X12152400Y-13357067D01*
X12171448Y-13347543D01*
X12200019Y-13347543D01*
X12219067Y-13357067D01*
X12228590Y-13376114D01*
X12228590Y-13480876D01*
X12323828Y-13480876D02*
X12323828Y-13347543D01*
X12323828Y-13366590D02*
X12333352Y-13357067D01*
X12352400Y-13347543D01*
X12380971Y-13347543D01*
X12400019Y-13357067D01*
X12409543Y-13376114D01*
X12409543Y-13480876D01*
X12409543Y-13376114D02*
X12419067Y-13357067D01*
X12438114Y-13347543D01*
X12466686Y-13347543D01*
X12485733Y-13357067D01*
X12495257Y-13376114D01*
X12495257Y-13480876D01*
X12885733Y-13271352D02*
X12714305Y-13528495D01*
X13142876Y-13280876D02*
X13161924Y-13280876D01*
X13180971Y-13290400D01*
X13190495Y-13299924D01*
X13200019Y-13318971D01*
X13209543Y-13357067D01*
X13209543Y-13404686D01*
X13200019Y-13442781D01*
X13190495Y-13461828D01*
X13180971Y-13471352D01*
X13161924Y-13480876D01*
X13142876Y-13480876D01*
X13123828Y-13471352D01*
X13114305Y-13461828D01*
X13104781Y-13442781D01*
X13095257Y-13404686D01*
X13095257Y-13357067D01*
X13104781Y-13318971D01*
X13114305Y-13299924D01*
X13123828Y-13290400D01*
X13142876Y-13280876D01*
X13295257Y-13461828D02*
X13304781Y-13471352D01*
X13295257Y-13480876D01*
X13285733Y-13471352D01*
X13295257Y-13461828D01*
X13295257Y-13480876D01*
X13428590Y-13280876D02*
X13447638Y-13280876D01*
X13466686Y-13290400D01*
X13476209Y-13299924D01*
X13485733Y-13318971D01*
X13495257Y-13357067D01*
X13495257Y-13404686D01*
X13485733Y-13442781D01*
X13476209Y-13461828D01*
X13466686Y-13471352D01*
X13447638Y-13480876D01*
X13428590Y-13480876D01*
X13409543Y-13471352D01*
X13400019Y-13461828D01*
X13390495Y-13442781D01*
X13380971Y-13404686D01*
X13380971Y-13357067D01*
X13390495Y-13318971D01*
X13400019Y-13299924D01*
X13409543Y-13290400D01*
X13428590Y-13280876D01*
X13561924Y-13280876D02*
X13685733Y-13280876D01*
X13619067Y-13357067D01*
X13647638Y-13357067D01*
X13666686Y-13366590D01*
X13676209Y-13376114D01*
X13685733Y-13395162D01*
X13685733Y-13442781D01*
X13676209Y-13461828D01*
X13666686Y-13471352D01*
X13647638Y-13480876D01*
X13590495Y-13480876D01*
X13571448Y-13471352D01*
X13561924Y-13461828D01*
X13780971Y-13480876D02*
X13819067Y-13480876D01*
X13838114Y-13471352D01*
X13847638Y-13461828D01*
X13866686Y-13433257D01*
X13876209Y-13395162D01*
X13876209Y-13318971D01*
X13866686Y-13299924D01*
X13857162Y-13290400D01*
X13838114Y-13280876D01*
X13800019Y-13280876D01*
X13780971Y-13290400D01*
X13771448Y-13299924D01*
X13761924Y-13318971D01*
X13761924Y-13366590D01*
X13771448Y-13385638D01*
X13780971Y-13395162D01*
X13800019Y-13404686D01*
X13838114Y-13404686D01*
X13857162Y-13395162D01*
X13866686Y-13385638D01*
X13876209Y-13366590D01*
X14047638Y-13347543D02*
X14047638Y-13480876D01*
X14000019Y-13271352D02*
X13952400Y-13414209D01*
X14076209Y-13414209D01*
X14142876Y-13280876D02*
X14142876Y-13318971D01*
X14219067Y-13280876D02*
X14219067Y-13318971D01*
X14514305Y-13557067D02*
X14504781Y-13547543D01*
X14485733Y-13518971D01*
X14476209Y-13499924D01*
X14466686Y-13471352D01*
X14457162Y-13423733D01*
X14457162Y-13385638D01*
X14466686Y-13338019D01*
X14476209Y-13309448D01*
X14485733Y-13290400D01*
X14504781Y-13261828D01*
X14514305Y-13252305D01*
X14695257Y-13480876D02*
X14580971Y-13480876D01*
X14638114Y-13480876D02*
X14638114Y-13280876D01*
X14619067Y-13309448D01*
X14600019Y-13328495D01*
X14580971Y-13338019D01*
X14761924Y-13280876D02*
X14885733Y-13280876D01*
X14819067Y-13357067D01*
X14847638Y-13357067D01*
X14866686Y-13366590D01*
X14876209Y-13376114D01*
X14885733Y-13395162D01*
X14885733Y-13442781D01*
X14876209Y-13461828D01*
X14866686Y-13471352D01*
X14847638Y-13480876D01*
X14790495Y-13480876D01*
X14771448Y-13471352D01*
X14761924Y-13461828D01*
X15123828Y-13480876D02*
X15123828Y-13280876D01*
X15209543Y-13480876D02*
X15209543Y-13376114D01*
X15200019Y-13357067D01*
X15180971Y-13347543D01*
X15152400Y-13347543D01*
X15133352Y-13357067D01*
X15123828Y-13366590D01*
X15333352Y-13480876D02*
X15314305Y-13471352D01*
X15304781Y-13461828D01*
X15295257Y-13442781D01*
X15295257Y-13385638D01*
X15304781Y-13366590D01*
X15314305Y-13357067D01*
X15333352Y-13347543D01*
X15361924Y-13347543D01*
X15380971Y-13357067D01*
X15390495Y-13366590D01*
X15400019Y-13385638D01*
X15400019Y-13442781D01*
X15390495Y-13461828D01*
X15380971Y-13471352D01*
X15361924Y-13480876D01*
X15333352Y-13480876D01*
X15514305Y-13480876D02*
X15495257Y-13471352D01*
X15485733Y-13452305D01*
X15485733Y-13280876D01*
X15666686Y-13471352D02*
X15647638Y-13480876D01*
X15609543Y-13480876D01*
X15590495Y-13471352D01*
X15580971Y-13452305D01*
X15580971Y-13376114D01*
X15590495Y-13357067D01*
X15609543Y-13347543D01*
X15647638Y-13347543D01*
X15666686Y-13357067D01*
X15676209Y-13376114D01*
X15676209Y-13395162D01*
X15580971Y-13414209D01*
X15752400Y-13471352D02*
X15771448Y-13480876D01*
X15809543Y-13480876D01*
X15828590Y-13471352D01*
X15838114Y-13452305D01*
X15838114Y-13442781D01*
X15828590Y-13423733D01*
X15809543Y-13414209D01*
X15780971Y-13414209D01*
X15761924Y-13404686D01*
X15752400Y-13385638D01*
X15752400Y-13376114D01*
X15761924Y-13357067D01*
X15780971Y-13347543D01*
X15809543Y-13347543D01*
X15828590Y-13357067D01*
X15904781Y-13557067D02*
X15914305Y-13547543D01*
X15933352Y-13518971D01*
X15942876Y-13499924D01*
X15952400Y-13471352D01*
X15961924Y-13423733D01*
X15961924Y-13385638D01*
X15952400Y-13338019D01*
X15942876Y-13309448D01*
X15933352Y-13290400D01*
X15914305Y-13261828D01*
X15904781Y-13252305D01*
D14*
X10925266Y-13695766D02*
X10925266Y-13613034D01*
X10842534Y-13613034D01*
X10842534Y-13695766D01*
X10925266Y-13695766D01*
D11*
X11304781Y-13744876D02*
X11190495Y-13744876D01*
X11247638Y-13744876D02*
X11247638Y-13544876D01*
X11228590Y-13573448D01*
X11209543Y-13592495D01*
X11190495Y-13602019D01*
X11390495Y-13725828D02*
X11400019Y-13735352D01*
X11390495Y-13744876D01*
X11380971Y-13735352D01*
X11390495Y-13725828D01*
X11390495Y-13744876D01*
X11590495Y-13744876D02*
X11476209Y-13744876D01*
X11533352Y-13744876D02*
X11533352Y-13544876D01*
X11514305Y-13573448D01*
X11495257Y-13592495D01*
X11476209Y-13602019D01*
X11657162Y-13544876D02*
X11790495Y-13544876D01*
X11704781Y-13744876D01*
X11904781Y-13544876D02*
X11923828Y-13544876D01*
X11942876Y-13554400D01*
X11952400Y-13563924D01*
X11961924Y-13582971D01*
X11971448Y-13621067D01*
X11971448Y-13668686D01*
X11961924Y-13706781D01*
X11952400Y-13725828D01*
X11942876Y-13735352D01*
X11923828Y-13744876D01*
X11904781Y-13744876D01*
X11885733Y-13735352D01*
X11876209Y-13725828D01*
X11866686Y-13706781D01*
X11857162Y-13668686D01*
X11857162Y-13621067D01*
X11866686Y-13582971D01*
X11876209Y-13563924D01*
X11885733Y-13554400D01*
X11904781Y-13544876D01*
X12057162Y-13744876D02*
X12057162Y-13611543D01*
X12057162Y-13630590D02*
X12066686Y-13621067D01*
X12085733Y-13611543D01*
X12114305Y-13611543D01*
X12133352Y-13621067D01*
X12142876Y-13640114D01*
X12142876Y-13744876D01*
X12142876Y-13640114D02*
X12152400Y-13621067D01*
X12171448Y-13611543D01*
X12200019Y-13611543D01*
X12219067Y-13621067D01*
X12228590Y-13640114D01*
X12228590Y-13744876D01*
X12323828Y-13744876D02*
X12323828Y-13611543D01*
X12323828Y-13630590D02*
X12333352Y-13621067D01*
X12352400Y-13611543D01*
X12380971Y-13611543D01*
X12400019Y-13621067D01*
X12409543Y-13640114D01*
X12409543Y-13744876D01*
X12409543Y-13640114D02*
X12419067Y-13621067D01*
X12438114Y-13611543D01*
X12466686Y-13611543D01*
X12485733Y-13621067D01*
X12495257Y-13640114D01*
X12495257Y-13744876D01*
X12885733Y-13535352D02*
X12714305Y-13792495D01*
X13142876Y-13544876D02*
X13161924Y-13544876D01*
X13180971Y-13554400D01*
X13190495Y-13563924D01*
X13200019Y-13582971D01*
X13209543Y-13621067D01*
X13209543Y-13668686D01*
X13200019Y-13706781D01*
X13190495Y-13725828D01*
X13180971Y-13735352D01*
X13161924Y-13744876D01*
X13142876Y-13744876D01*
X13123828Y-13735352D01*
X13114305Y-13725828D01*
X13104781Y-13706781D01*
X13095257Y-13668686D01*
X13095257Y-13621067D01*
X13104781Y-13582971D01*
X13114305Y-13563924D01*
X13123828Y-13554400D01*
X13142876Y-13544876D01*
X13295257Y-13725828D02*
X13304781Y-13735352D01*
X13295257Y-13744876D01*
X13285733Y-13735352D01*
X13295257Y-13725828D01*
X13295257Y-13744876D01*
X13428590Y-13544876D02*
X13447638Y-13544876D01*
X13466686Y-13554400D01*
X13476209Y-13563924D01*
X13485733Y-13582971D01*
X13495257Y-13621067D01*
X13495257Y-13668686D01*
X13485733Y-13706781D01*
X13476209Y-13725828D01*
X13466686Y-13735352D01*
X13447638Y-13744876D01*
X13428590Y-13744876D01*
X13409543Y-13735352D01*
X13400019Y-13725828D01*
X13390495Y-13706781D01*
X13380971Y-13668686D01*
X13380971Y-13621067D01*
X13390495Y-13582971D01*
X13400019Y-13563924D01*
X13409543Y-13554400D01*
X13428590Y-13544876D01*
X13666686Y-13611543D02*
X13666686Y-13744876D01*
X13619067Y-13535352D02*
X13571448Y-13678209D01*
X13695257Y-13678209D01*
X13857162Y-13544876D02*
X13819067Y-13544876D01*
X13800019Y-13554400D01*
X13790495Y-13563924D01*
X13771448Y-13592495D01*
X13761924Y-13630590D01*
X13761924Y-13706781D01*
X13771448Y-13725828D01*
X13780971Y-13735352D01*
X13800019Y-13744876D01*
X13838114Y-13744876D01*
X13857162Y-13735352D01*
X13866686Y-13725828D01*
X13876209Y-13706781D01*
X13876209Y-13659162D01*
X13866686Y-13640114D01*
X13857162Y-13630590D01*
X13838114Y-13621067D01*
X13800019Y-13621067D01*
X13780971Y-13630590D01*
X13771448Y-13640114D01*
X13761924Y-13659162D01*
X14066686Y-13744876D02*
X13952400Y-13744876D01*
X14009543Y-13744876D02*
X14009543Y-13544876D01*
X13990495Y-13573448D01*
X13971448Y-13592495D01*
X13952400Y-13602019D01*
X14142876Y-13544876D02*
X14142876Y-13582971D01*
X14219067Y-13544876D02*
X14219067Y-13582971D01*
X14514305Y-13821067D02*
X14504781Y-13811543D01*
X14485733Y-13782971D01*
X14476209Y-13763924D01*
X14466686Y-13735352D01*
X14457162Y-13687733D01*
X14457162Y-13649638D01*
X14466686Y-13602019D01*
X14476209Y-13573448D01*
X14485733Y-13554400D01*
X14504781Y-13525828D01*
X14514305Y-13516305D01*
X14695257Y-13744876D02*
X14580971Y-13744876D01*
X14638114Y-13744876D02*
X14638114Y-13544876D01*
X14619067Y-13573448D01*
X14600019Y-13592495D01*
X14580971Y-13602019D01*
X14771448Y-13563924D02*
X14780971Y-13554400D01*
X14800019Y-13544876D01*
X14847638Y-13544876D01*
X14866686Y-13554400D01*
X14876209Y-13563924D01*
X14885733Y-13582971D01*
X14885733Y-13602019D01*
X14876209Y-13630590D01*
X14761924Y-13744876D01*
X14885733Y-13744876D01*
X15123828Y-13744876D02*
X15123828Y-13544876D01*
X15209543Y-13744876D02*
X15209543Y-13640114D01*
X15200019Y-13621067D01*
X15180971Y-13611543D01*
X15152400Y-13611543D01*
X15133352Y-13621067D01*
X15123828Y-13630590D01*
X15333352Y-13744876D02*
X15314305Y-13735352D01*
X15304781Y-13725828D01*
X15295257Y-13706781D01*
X15295257Y-13649638D01*
X15304781Y-13630590D01*
X15314305Y-13621067D01*
X15333352Y-13611543D01*
X15361924Y-13611543D01*
X15380971Y-13621067D01*
X15390495Y-13630590D01*
X15400019Y-13649638D01*
X15400019Y-13706781D01*
X15390495Y-13725828D01*
X15380971Y-13735352D01*
X15361924Y-13744876D01*
X15333352Y-13744876D01*
X15514305Y-13744876D02*
X15495257Y-13735352D01*
X15485733Y-13716305D01*
X15485733Y-13544876D01*
X15666686Y-13735352D02*
X15647638Y-13744876D01*
X15609543Y-13744876D01*
X15590495Y-13735352D01*
X15580971Y-13716305D01*
X15580971Y-13640114D01*
X15590495Y-13621067D01*
X15609543Y-13611543D01*
X15647638Y-13611543D01*
X15666686Y-13621067D01*
X15676209Y-13640114D01*
X15676209Y-13659162D01*
X15580971Y-13678209D01*
X15752400Y-13735352D02*
X15771448Y-13744876D01*
X15809543Y-13744876D01*
X15828590Y-13735352D01*
X15838114Y-13716305D01*
X15838114Y-13706781D01*
X15828590Y-13687733D01*
X15809543Y-13678209D01*
X15780971Y-13678209D01*
X15761924Y-13668686D01*
X15752400Y-13649638D01*
X15752400Y-13640114D01*
X15761924Y-13621067D01*
X15780971Y-13611543D01*
X15809543Y-13611543D01*
X15828590Y-13621067D01*
X15904781Y-13821067D02*
X15914305Y-13811543D01*
X15933352Y-13782971D01*
X15942876Y-13763924D01*
X15952400Y-13735352D01*
X15961924Y-13687733D01*
X15961924Y-13649638D01*
X15952400Y-13602019D01*
X15942876Y-13573448D01*
X15933352Y-13554400D01*
X15914305Y-13525828D01*
X15904781Y-13516305D01*
D15*
X10872400Y-13988400D02*
X10942400Y-13918400D01*
X10872400Y-13848400D01*
X10802400Y-13918400D01*
X10872400Y-13988400D01*
D11*
X11304781Y-14008876D02*
X11190495Y-14008876D01*
X11247638Y-14008876D02*
X11247638Y-13808876D01*
X11228590Y-13837448D01*
X11209543Y-13856495D01*
X11190495Y-13866019D01*
X11390495Y-13989828D02*
X11400019Y-13999352D01*
X11390495Y-14008876D01*
X11380971Y-13999352D01*
X11390495Y-13989828D01*
X11390495Y-14008876D01*
X11571448Y-13875543D02*
X11571448Y-14008876D01*
X11523828Y-13799352D02*
X11476209Y-13942209D01*
X11600019Y-13942209D01*
X11714305Y-13808876D02*
X11733352Y-13808876D01*
X11752400Y-13818400D01*
X11761924Y-13827924D01*
X11771448Y-13846971D01*
X11780971Y-13885067D01*
X11780971Y-13932686D01*
X11771448Y-13970781D01*
X11761924Y-13989828D01*
X11752400Y-13999352D01*
X11733352Y-14008876D01*
X11714305Y-14008876D01*
X11695257Y-13999352D01*
X11685733Y-13989828D01*
X11676209Y-13970781D01*
X11666686Y-13932686D01*
X11666686Y-13885067D01*
X11676209Y-13846971D01*
X11685733Y-13827924D01*
X11695257Y-13818400D01*
X11714305Y-13808876D01*
X11904781Y-13808876D02*
X11923828Y-13808876D01*
X11942876Y-13818400D01*
X11952400Y-13827924D01*
X11961924Y-13846971D01*
X11971448Y-13885067D01*
X11971448Y-13932686D01*
X11961924Y-13970781D01*
X11952400Y-13989828D01*
X11942876Y-13999352D01*
X11923828Y-14008876D01*
X11904781Y-14008876D01*
X11885733Y-13999352D01*
X11876209Y-13989828D01*
X11866686Y-13970781D01*
X11857162Y-13932686D01*
X11857162Y-13885067D01*
X11866686Y-13846971D01*
X11876209Y-13827924D01*
X11885733Y-13818400D01*
X11904781Y-13808876D01*
X12057162Y-14008876D02*
X12057162Y-13875543D01*
X12057162Y-13894590D02*
X12066686Y-13885067D01*
X12085733Y-13875543D01*
X12114305Y-13875543D01*
X12133352Y-13885067D01*
X12142876Y-13904114D01*
X12142876Y-14008876D01*
X12142876Y-13904114D02*
X12152400Y-13885067D01*
X12171448Y-13875543D01*
X12200019Y-13875543D01*
X12219067Y-13885067D01*
X12228590Y-13904114D01*
X12228590Y-14008876D01*
X12323828Y-14008876D02*
X12323828Y-13875543D01*
X12323828Y-13894590D02*
X12333352Y-13885067D01*
X12352400Y-13875543D01*
X12380971Y-13875543D01*
X12400019Y-13885067D01*
X12409543Y-13904114D01*
X12409543Y-14008876D01*
X12409543Y-13904114D02*
X12419067Y-13885067D01*
X12438114Y-13875543D01*
X12466686Y-13875543D01*
X12485733Y-13885067D01*
X12495257Y-13904114D01*
X12495257Y-14008876D01*
X12885733Y-13799352D02*
X12714305Y-14056495D01*
X13142876Y-13808876D02*
X13161924Y-13808876D01*
X13180971Y-13818400D01*
X13190495Y-13827924D01*
X13200019Y-13846971D01*
X13209543Y-13885067D01*
X13209543Y-13932686D01*
X13200019Y-13970781D01*
X13190495Y-13989828D01*
X13180971Y-13999352D01*
X13161924Y-14008876D01*
X13142876Y-14008876D01*
X13123828Y-13999352D01*
X13114305Y-13989828D01*
X13104781Y-13970781D01*
X13095257Y-13932686D01*
X13095257Y-13885067D01*
X13104781Y-13846971D01*
X13114305Y-13827924D01*
X13123828Y-13818400D01*
X13142876Y-13808876D01*
X13295257Y-13989828D02*
X13304781Y-13999352D01*
X13295257Y-14008876D01*
X13285733Y-13999352D01*
X13295257Y-13989828D01*
X13295257Y-14008876D01*
X13428590Y-13808876D02*
X13447638Y-13808876D01*
X13466686Y-13818400D01*
X13476209Y-13827924D01*
X13485733Y-13846971D01*
X13495257Y-13885067D01*
X13495257Y-13932686D01*
X13485733Y-13970781D01*
X13476209Y-13989828D01*
X13466686Y-13999352D01*
X13447638Y-14008876D01*
X13428590Y-14008876D01*
X13409543Y-13999352D01*
X13400019Y-13989828D01*
X13390495Y-13970781D01*
X13380971Y-13932686D01*
X13380971Y-13885067D01*
X13390495Y-13846971D01*
X13400019Y-13827924D01*
X13409543Y-13818400D01*
X13428590Y-13808876D01*
X13676209Y-13808876D02*
X13580971Y-13808876D01*
X13571448Y-13904114D01*
X13580971Y-13894590D01*
X13600019Y-13885067D01*
X13647638Y-13885067D01*
X13666686Y-13894590D01*
X13676209Y-13904114D01*
X13685733Y-13923162D01*
X13685733Y-13970781D01*
X13676209Y-13989828D01*
X13666686Y-13999352D01*
X13647638Y-14008876D01*
X13600019Y-14008876D01*
X13580971Y-13999352D01*
X13571448Y-13989828D01*
X13866686Y-13808876D02*
X13771448Y-13808876D01*
X13761924Y-13904114D01*
X13771448Y-13894590D01*
X13790495Y-13885067D01*
X13838114Y-13885067D01*
X13857162Y-13894590D01*
X13866686Y-13904114D01*
X13876209Y-13923162D01*
X13876209Y-13970781D01*
X13866686Y-13989828D01*
X13857162Y-13999352D01*
X13838114Y-14008876D01*
X13790495Y-14008876D01*
X13771448Y-13999352D01*
X13761924Y-13989828D01*
X14066686Y-14008876D02*
X13952400Y-14008876D01*
X14009543Y-14008876D02*
X14009543Y-13808876D01*
X13990495Y-13837448D01*
X13971448Y-13856495D01*
X13952400Y-13866019D01*
X14142876Y-13808876D02*
X14142876Y-13846971D01*
X14219067Y-13808876D02*
X14219067Y-13846971D01*
X14514305Y-14085067D02*
X14504781Y-14075543D01*
X14485733Y-14046971D01*
X14476209Y-14027924D01*
X14466686Y-13999352D01*
X14457162Y-13951733D01*
X14457162Y-13913638D01*
X14466686Y-13866019D01*
X14476209Y-13837448D01*
X14485733Y-13818400D01*
X14504781Y-13789828D01*
X14514305Y-13780305D01*
X14695257Y-14008876D02*
X14580971Y-14008876D01*
X14638114Y-14008876D02*
X14638114Y-13808876D01*
X14619067Y-13837448D01*
X14600019Y-13856495D01*
X14580971Y-13866019D01*
X14819067Y-13808876D02*
X14838114Y-13808876D01*
X14857162Y-13818400D01*
X14866686Y-13827924D01*
X14876209Y-13846971D01*
X14885733Y-13885067D01*
X14885733Y-13932686D01*
X14876209Y-13970781D01*
X14866686Y-13989828D01*
X14857162Y-13999352D01*
X14838114Y-14008876D01*
X14819067Y-14008876D01*
X14800019Y-13999352D01*
X14790495Y-13989828D01*
X14780971Y-13970781D01*
X14771448Y-13932686D01*
X14771448Y-13885067D01*
X14780971Y-13846971D01*
X14790495Y-13827924D01*
X14800019Y-13818400D01*
X14819067Y-13808876D01*
X15123828Y-14008876D02*
X15123828Y-13808876D01*
X15209543Y-14008876D02*
X15209543Y-13904114D01*
X15200019Y-13885067D01*
X15180971Y-13875543D01*
X15152400Y-13875543D01*
X15133352Y-13885067D01*
X15123828Y-13894590D01*
X15333352Y-14008876D02*
X15314305Y-13999352D01*
X15304781Y-13989828D01*
X15295257Y-13970781D01*
X15295257Y-13913638D01*
X15304781Y-13894590D01*
X15314305Y-13885067D01*
X15333352Y-13875543D01*
X15361924Y-13875543D01*
X15380971Y-13885067D01*
X15390495Y-13894590D01*
X15400019Y-13913638D01*
X15400019Y-13970781D01*
X15390495Y-13989828D01*
X15380971Y-13999352D01*
X15361924Y-14008876D01*
X15333352Y-14008876D01*
X15514305Y-14008876D02*
X15495257Y-13999352D01*
X15485733Y-13980305D01*
X15485733Y-13808876D01*
X15666686Y-13999352D02*
X15647638Y-14008876D01*
X15609543Y-14008876D01*
X15590495Y-13999352D01*
X15580971Y-13980305D01*
X15580971Y-13904114D01*
X15590495Y-13885067D01*
X15609543Y-13875543D01*
X15647638Y-13875543D01*
X15666686Y-13885067D01*
X15676209Y-13904114D01*
X15676209Y-13923162D01*
X15580971Y-13942209D01*
X15752400Y-13999352D02*
X15771448Y-14008876D01*
X15809543Y-14008876D01*
X15828590Y-13999352D01*
X15838114Y-13980305D01*
X15838114Y-13970781D01*
X15828590Y-13951733D01*
X15809543Y-13942209D01*
X15780971Y-13942209D01*
X15761924Y-13932686D01*
X15752400Y-13913638D01*
X15752400Y-13904114D01*
X15761924Y-13885067D01*
X15780971Y-13875543D01*
X15809543Y-13875543D01*
X15828590Y-13885067D01*
X15904781Y-14085067D02*
X15914305Y-14075543D01*
X15933352Y-14046971D01*
X15942876Y-14027924D01*
X15952400Y-13999352D01*
X15961924Y-13951733D01*
X15961924Y-13913638D01*
X15952400Y-13866019D01*
X15942876Y-13837448D01*
X15933352Y-13818400D01*
X15914305Y-13789828D01*
X15904781Y-13780305D01*
M02*
