M48
;Layer_Color=9474304
;FILE_FORMAT=4:4
METRIC,LZ
;TYPE=PLATED
T1F00S00C0.2500
T2F00S00C0.5000
T3F00S00C0.6300
T4F00S00C0.6400
T5F00S00C0.9000
T6F00S00C1.0000
T7F00S00C1.9000
;TYPE=NON_PLATED
T8F00S00C3.3000
%
T01
X000355Y00026
X000755
X001155
X001355Y00066
X000955
X000555
X000355Y00106
X000755
X001555
X001955
X002355
X002755
X002955Y00066
X002755Y00026
X003555
X003955
X004355
X004755
X005155
X005355Y00066
X004955
X004555
X004155
X003955Y00106
X004355
X002155Y00066
X001955Y00026
X001555
X005555
X005955
X006355
X006155Y00066
X005955Y00106
X00575564Y00116198
X006355Y00106
X006755
X006555Y00146
X006155
X00635499Y00226
X00665499
X00650499Y00256
X0064389Y0026797
X00635499Y00286
X00665499
X00695499
X00710499Y00316
Y00256
X00590499
X00605499Y00286
X00575499
X00545499
X00560499Y00316
X00545499Y00226
X005555Y00424
X0058027Y00453673
X0059125Y0045175
X00590499Y00496
X0061734Y004901
X00650499Y00496
X00658114Y00501904
X0066085Y004851
X00653796Y00476504
X00680499Y00496
X00710499
X00695499Y00526
X00644Y0052975
X0062865Y0053086
X0057125Y0051425
X0054425Y0051725
X0056007Y00475234
X0061849Y0042418
X005975Y0039425
X00695499Y00406
Y00466
X00541274Y00439674
X00500499Y00436
X00458208Y00440428
X00457498Y00506774
X00458405Y00517936
X00459486Y00528828
X0046355Y00536448
X00477266Y00489458
X0052969Y00510943
X00530499Y00316
X00500499
X00515499Y00286
X00485499
X00455499
X00470499Y00256
X00500499
X00530499
X00527207Y00266857
X00515499Y00226
X00485499
X004955Y00146
X004155
X003755
X003555Y00266
X003155
X003355Y00306
X002955
X002555
X002155
X002355Y00266
X002555Y00226
X002955
X003155Y00346
X003555
X00327612Y00382394
X003555Y00426
X00295148Y00454152
X00272988Y00442099
X00242824Y00460248
X00306685Y0048188
X00320548Y0052832
X001955Y00506
X00222076Y0038235
X001555Y00346
Y00266
X00470497Y00330999
X00472997Y00335999
X000355Y00346
X000555Y00386
X000355Y00426
X000555Y00466
X000355Y00506
X001155
X000355Y00266
X000555Y00226
X000355Y00186
X000755
X000955Y00146
X000555
Y00546
X000355Y00586
X000955Y00626
X000755Y00666
X001155
X000955Y00706
X000755Y00746
X001155
X000955Y00786
X000555
X000355Y00826
X000755
X000955Y00866
X001355
X000555
X000355Y00906
X000755
X000355Y00746
X001355Y00546
X002155
X001955Y00586
X002355
X002155Y00626
X002355Y00666
X002755
X003155
X003555
X003355Y00626
X0027825Y005685
X00273558Y00551434
X002555Y00706
X002155
X002355Y00746
X002155Y00786
Y00866
X002555
X002955
X003355
X003555Y00906
X003955
Y00826
X0043425Y0081775
X004155Y00786
X00438912Y00723646
X00436626Y00698
X00452628Y0068707
X00473289Y00692911
X00455499Y00646
X00470499Y00616
X00470343Y00591853
X00485902Y00569468
X00528066Y0057658
X00529Y0055375
X00528574Y00605536
X00525526Y00664464
X0051181Y00664718
X00501396Y00651002
X00535686Y00696976
X0052885Y00833718
X00499212Y00859258
X00505612Y00868223
X00492812
X00491744Y00880618
X002755Y00906
X002355
X001755Y00866
X001555Y00746
X003155
X003555
X0054991Y00719582
X00548894Y00667004
X00560499Y00676
X00650499
X00680499
X0066802Y0066167
X00695499Y00646
X0067945Y0062992
X00650499Y00616
X00635499Y00646
Y00586
X0065875Y0057825
X00680499Y00556
X00710499
Y00616
Y00676
X00695499Y00706
X006665Y007195
X006755Y00826
X006604Y0085979
X006955Y00866
X006755Y00906
X00647396Y0093308
X00622Y009115
X00628396Y00892302
X006155Y00866
X0061585Y0084365
X0062855
X005755Y00866
X00543163Y00868652
X00549402Y00817626
X00550672Y00930148
X0058674Y00962914
X005895Y009965
X00555752Y01008634
X005755Y01106
X006155
X006555
X006955
X00682467Y01068532
X006875Y0104075
X0069475Y010225
X00680466Y01017778
X00674878Y00990854
Y00972566
X00694593Y00959261
X00701802Y00949706
X0067945Y00940816
X005955Y01146
X005555
X005755Y01186
X006155
X005155Y01146
X005355Y01106
X00515Y0105875
X005085Y0100675
X004934Y0098361
X004755Y00986
X00464058Y0103137
X00434848Y0109093
X00394Y0109225
X0040076Y0112324
X0040075Y01142
X0041346Y0114421
X0043886Y0114229
X0045156Y0112141
X0038125Y01126
X003555Y01146
X003755Y01186
X0039624Y0118745
X0047625Y0120396
X002555Y01186
X002155
X001755
X001555Y01146
X001955
X002155Y01106
X002555
X002355Y01066
X002755
X002955Y01026
X002555
X002355Y00986
X002755
X002555Y00946
X001755
X001555Y00986
X00374403Y00986003
X00365252Y00995426
X0036576Y0101092
X0037133Y0102567
X00390398Y01006348
X00409702Y0099314
X0037175Y009465
X003555Y01066
X0053425Y0096825
X001355Y00946
X000955
X000555
X000355Y00986
X000755
X000955Y01026
X000755Y01066
X000355
X000555Y01106
X000955
X001355
X001155Y01146
X000755
X000355
X000555Y01186
X000955
X001355
T02
X0061725Y0017145
X0072009Y0023241
T03
X002921Y00889
X003175Y009144
X005613Y011633
X005359Y011887
X005105Y011633
X003175Y01016
X002921Y009906
Y010414
X002921Y009398
T04
X00562488Y01086338
X00587888
X00613288
T05
X0071064Y0036957
Y0039497
Y0042037
Y0044577
X0048331Y0037084
X0045791
Y0034544
X0048331
Y0032004
X0045791
X00113284Y00641604
X00062484
X000254Y00658622
Y00684022
Y00709422
X00062484Y00717804
X00113284
X00164084
Y00641604
X00240284
Y00717804
X00227958Y0081717
X00202558
X00177158
Y0084257
X00202558
X00227958
X002794Y0084455
X003048
X003302
T06
X0047625Y0004445
Y0006985
Y0009525
T07
X0018546Y0019159
Y0023609
Y0028059
Y0032509
Y0036959
Y0041409
X0012196
Y0036959
Y0032509
Y0028059
Y0023609
Y0019159
X00185968Y00973024
Y01017524
Y01062024
X00122468
Y01017524
Y00973024
T08
X0017526Y0012754
X006755Y0005625
X0017526Y0047834
X0006096Y0030294
X00175768Y00908974
X006765Y0115975
X00175468Y01127024
X00061468Y01017524
M30
