G04*
G04 #@! TF.GenerationSoftware,Altium Limited,Altium Designer,22.8.2 (66)*
G04*
G04 Layer_Color=65535*
%FSLAX44Y44*%
%MOMM*%
G71*
G04*
G04 #@! TF.SameCoordinates,A88769B3-AE7A-4E98-8DBA-C7F6B74A5C9B*
G04*
G04*
G04 #@! TF.FilePolarity,Positive*
G04*
G01*
G75*
%ADD10C,0.2540*%
%ADD11C,0.2000*%
D10*
X972123Y-322560D02*
G03*
X972123Y-322560I-4123J0D01*
G01*
X1172123D02*
G03*
X1172123Y-322560I-4123J0D01*
G01*
X216263Y-256560D02*
G03*
X216263Y-256560I-4123J0D01*
G01*
X476123D02*
G03*
X476123Y-256560I-4123J0D01*
G01*
X277929Y-116190D02*
G03*
X277929Y-116190I-24429J0D01*
G01*
X1315429Y-551190D02*
G03*
X1315429Y-551190I-24429J0D01*
G01*
Y-116190D02*
G03*
X1315429Y-116190I-24429J0D01*
G01*
X908429Y-551190D02*
G03*
X908429Y-551190I-24429J0D01*
G01*
X1111929Y-116190D02*
G03*
X1111929Y-116190I-24429J0D01*
G01*
X684929D02*
G03*
X684929Y-116190I-24429J0D01*
G01*
X501429Y-551190D02*
G03*
X501429Y-551190I-24429J0D01*
G01*
X94429D02*
G03*
X94429Y-551190I-24429J0D01*
G01*
X963000Y-315560D02*
X1037000D01*
X963000D02*
Y-256560D01*
X1037000D01*
Y-315560D02*
Y-256560D01*
X1163000Y-315560D02*
X1237000D01*
X1163000D02*
Y-256560D01*
X1237000D01*
Y-315560D02*
Y-256560D01*
X143140Y-263560D02*
X217140D01*
Y-322560D02*
Y-263560D01*
X143140Y-322560D02*
X217140D01*
X143140D02*
Y-263560D01*
X403000D02*
X477000D01*
Y-322560D02*
Y-263560D01*
X403000Y-322560D02*
X477000D01*
X403000D02*
Y-263560D01*
X1046484Y-294638D02*
Y-279403D01*
X1054102D01*
X1056641Y-281942D01*
Y-287020D01*
X1054102Y-289559D01*
X1046484D01*
X1061719Y-281942D02*
X1064258Y-279403D01*
X1069337D01*
X1071876Y-281942D01*
Y-284481D01*
X1069337Y-287020D01*
X1066797D01*
X1069337D01*
X1071876Y-289559D01*
Y-292098D01*
X1069337Y-294638D01*
X1064258D01*
X1061719Y-292098D01*
X759968Y-130053D02*
X770125D01*
X765046D01*
Y-145288D01*
X782821D02*
X777742D01*
X775203Y-142749D01*
Y-137670D01*
X777742Y-135131D01*
X782821D01*
X785360Y-137670D01*
Y-140210D01*
X775203D01*
X790438Y-145288D02*
Y-135131D01*
X792977D01*
X795517Y-137670D01*
Y-145288D01*
Y-137670D01*
X798056Y-135131D01*
X800595Y-137670D01*
Y-145288D01*
X805673Y-150366D02*
Y-135131D01*
X813291D01*
X815830Y-137670D01*
Y-142749D01*
X813291Y-145288D01*
X805673D01*
X1127764Y-281938D02*
Y-266702D01*
X1135382D01*
X1137921Y-269242D01*
Y-274320D01*
X1135382Y-276859D01*
X1127764D01*
X1150617Y-281938D02*
Y-266702D01*
X1142999Y-274320D01*
X1153156D01*
X404368Y-243586D02*
Y-228351D01*
X411986D01*
X414525Y-230890D01*
Y-235968D01*
X411986Y-238508D01*
X404368D01*
X429760Y-243586D02*
X419603D01*
X429760Y-233429D01*
Y-230890D01*
X427221Y-228351D01*
X422142D01*
X419603Y-230890D01*
X144526Y-243586D02*
Y-228351D01*
X152143D01*
X154683Y-230890D01*
Y-235968D01*
X152143Y-238508D01*
X144526D01*
X159761Y-243586D02*
X164839D01*
X162300D01*
Y-228351D01*
X159761Y-230890D01*
D11*
X885484Y-184270D02*
Y-158870D01*
X758484Y-184270D02*
X885484D01*
X758484Y-158870D02*
X885484D01*
X758484Y-184270D02*
Y-158870D01*
X736430Y-498300D02*
X746930D01*
X513080Y-458940D02*
X836580D01*
Y-433540D01*
X497880D02*
X836580D01*
X497880Y-446240D02*
Y-433540D01*
X354330Y-259250D02*
Y-248750D01*
X1115060Y-560240D02*
Y-549740D01*
X1213660Y-242740D02*
Y-232240D01*
X966470Y-208450D02*
Y-197950D01*
X660230Y-213360D02*
X670730D01*
X562610Y-556430D02*
Y-545930D01*
X356870Y-503090D02*
Y-492590D01*
M02*
