G04*
G04 #@! TF.GenerationSoftware,Altium Limited,Altium Designer,22.8.2 (66)*
G04*
G04 Layer_Physical_Order=1*
G04 Layer_Color=255*
%FSLAX44Y44*%
%MOMM*%
G71*
G04*
G04 #@! TF.SameCoordinates,A88769B3-AE7A-4E98-8DBA-C7F6B74A5C9B*
G04*
G04*
G04 #@! TF.FilePolarity,Positive*
G04*
G01*
G75*
%ADD10C,0.2540*%
%ADD12R,1.4200X0.8900*%
%ADD13R,0.8900X1.4200*%
%ADD23R,1.5080X1.5080*%
%ADD24C,1.5080*%
%ADD25R,1.5000X1.5000*%
%ADD26C,1.5000*%
%ADD27C,8.0000*%
%ADD28C,10.0000*%
%ADD29C,1.2700*%
G36*
X1104297Y-152493D02*
X1100796Y-154229D01*
X1097663Y-156029D01*
X1094899Y-157892D01*
X1092504Y-159818D01*
X1090477Y-161807D01*
X1088818Y-163860D01*
X1087528Y-165975D01*
X1086607Y-168153D01*
X1086054Y-170395D01*
X1085870Y-172700D01*
X1083330D01*
X1083153Y-170407D01*
X1082622Y-168112D01*
X1081737Y-165815D01*
X1080498Y-163516D01*
X1078905Y-161215D01*
X1076958Y-158913D01*
X1074657Y-156608D01*
X1072002Y-154301D01*
X1068993Y-151992D01*
X1065630Y-149682D01*
X1104297Y-152493D01*
D02*
G37*
G36*
X680057Y-151605D02*
X672833Y-157895D01*
X669898Y-160883D01*
X667414Y-163768D01*
X665382Y-166549D01*
X663802Y-169225D01*
X662673Y-171797D01*
X661996Y-174266D01*
X661770Y-176630D01*
X659230D01*
X659004Y-174266D01*
X658327Y-171797D01*
X657198Y-169225D01*
X655618Y-166549D01*
X653586Y-163768D01*
X651102Y-160883D01*
X648167Y-157895D01*
X644781Y-154802D01*
X636653Y-148304D01*
X684347D01*
X680057Y-151605D01*
D02*
G37*
G36*
X276421Y-149826D02*
X261453Y-166709D01*
X259047Y-170081D01*
X257176Y-173113D01*
X255839Y-175805D01*
X255037Y-178157D01*
X254770Y-180170D01*
X252230D01*
X251963Y-178157D01*
X251161Y-175805D01*
X249824Y-173113D01*
X247953Y-170081D01*
X245548Y-166709D01*
X239132Y-158947D01*
X230579Y-149826D01*
X225500Y-144756D01*
X281500D01*
X276421Y-149826D01*
D02*
G37*
G36*
X877278Y-177694D02*
X876004Y-179153D01*
X875487Y-179844D01*
X875049Y-180511D01*
X874691Y-181152D01*
X874412Y-181767D01*
X874213Y-182357D01*
X874094Y-182922D01*
X874054Y-183462D01*
X871514D01*
X871474Y-182922D01*
X871355Y-182357D01*
X871156Y-181767D01*
X870877Y-181152D01*
X870519Y-180511D01*
X870081Y-179844D01*
X869564Y-179153D01*
X868290Y-177694D01*
X867534Y-176926D01*
X878034D01*
X877278Y-177694D01*
D02*
G37*
G36*
X1319591Y-158291D02*
X1300703Y-179497D01*
X1297667Y-183706D01*
X1295306Y-187479D01*
X1293619Y-190814D01*
X1292607Y-193712D01*
X1292270Y-196174D01*
X1289730D01*
X1289393Y-193712D01*
X1288381Y-190814D01*
X1286694Y-187479D01*
X1284333Y-183706D01*
X1281297Y-179497D01*
X1273202Y-169768D01*
X1262409Y-158291D01*
X1256000Y-151897D01*
X1326000D01*
X1319591Y-158291D01*
D02*
G37*
G36*
X666763Y-197189D02*
X666801Y-197626D01*
X666864Y-198011D01*
X666953Y-198346D01*
X667067Y-198628D01*
X667207Y-198860D01*
X667372Y-199040D01*
X667563Y-199168D01*
X667779Y-199245D01*
X668020Y-199271D01*
X662940D01*
X663181Y-199245D01*
X663397Y-199168D01*
X663588Y-199040D01*
X663753Y-198860D01*
X663893Y-198628D01*
X664007Y-198346D01*
X664096Y-198011D01*
X664159Y-197626D01*
X664197Y-197189D01*
X664210Y-196700D01*
X666750D01*
X666763Y-197189D01*
D02*
G37*
G36*
X980585Y-200901D02*
X980662Y-201117D01*
X980790Y-201308D01*
X980970Y-201473D01*
X981202Y-201612D01*
X981484Y-201727D01*
X981819Y-201816D01*
X982204Y-201879D01*
X982641Y-201917D01*
X983130Y-201930D01*
Y-204470D01*
X982641Y-204483D01*
X982204Y-204521D01*
X981819Y-204584D01*
X981484Y-204673D01*
X981202Y-204788D01*
X980970Y-204927D01*
X980790Y-205092D01*
X980662Y-205283D01*
X980585Y-205499D01*
X980559Y-205740D01*
Y-200660D01*
X980585Y-200901D01*
D02*
G37*
G36*
X952350Y-205740D02*
X952325Y-205499D01*
X952249Y-205283D01*
X952122Y-205092D01*
X951944Y-204927D01*
X951715Y-204788D01*
X951436Y-204673D01*
X951106Y-204584D01*
X950725Y-204521D01*
X950293Y-204483D01*
X949810Y-204470D01*
Y-201930D01*
X950293Y-201917D01*
X950725Y-201879D01*
X951106Y-201816D01*
X951436Y-201727D01*
X951715Y-201612D01*
X951944Y-201473D01*
X952122Y-201308D01*
X952249Y-201117D01*
X952325Y-200901D01*
X952350Y-200660D01*
Y-205740D01*
D02*
G37*
G36*
X667779Y-227505D02*
X667563Y-227581D01*
X667372Y-227708D01*
X667207Y-227886D01*
X667067Y-228114D01*
X666953Y-228394D01*
X666864Y-228724D01*
X666801Y-229105D01*
X666763Y-229537D01*
X666750Y-230019D01*
X664210D01*
X664197Y-229537D01*
X664159Y-229105D01*
X664096Y-228724D01*
X664007Y-228394D01*
X663893Y-228114D01*
X663753Y-227886D01*
X663588Y-227708D01*
X663397Y-227581D01*
X663181Y-227505D01*
X662940Y-227479D01*
X668020D01*
X667779Y-227505D01*
D02*
G37*
G36*
X1227775Y-235191D02*
X1227852Y-235407D01*
X1227980Y-235598D01*
X1228160Y-235763D01*
X1228392Y-235903D01*
X1228674Y-236017D01*
X1229009Y-236106D01*
X1229394Y-236169D01*
X1229831Y-236207D01*
X1230320Y-236220D01*
Y-238760D01*
X1229831Y-238773D01*
X1229394Y-238811D01*
X1229009Y-238874D01*
X1228674Y-238963D01*
X1228392Y-239077D01*
X1228160Y-239217D01*
X1227980Y-239382D01*
X1227852Y-239573D01*
X1227775Y-239789D01*
X1227749Y-240030D01*
Y-234950D01*
X1227775Y-235191D01*
D02*
G37*
G36*
X1199540Y-240030D02*
X1199515Y-239789D01*
X1199439Y-239573D01*
X1199312Y-239382D01*
X1199134Y-239217D01*
X1198905Y-239077D01*
X1198626Y-238963D01*
X1198296Y-238874D01*
X1197915Y-238811D01*
X1197483Y-238773D01*
X1197001Y-238760D01*
Y-236220D01*
X1197483Y-236207D01*
X1197915Y-236169D01*
X1198296Y-236106D01*
X1198626Y-236017D01*
X1198905Y-235903D01*
X1199134Y-235763D01*
X1199312Y-235598D01*
X1199439Y-235407D01*
X1199515Y-235191D01*
X1199540Y-234950D01*
Y-240030D01*
D02*
G37*
G36*
X368475Y-251701D02*
X368551Y-251917D01*
X368678Y-252108D01*
X368856Y-252273D01*
X369085Y-252412D01*
X369364Y-252527D01*
X369694Y-252616D01*
X370075Y-252679D01*
X370507Y-252717D01*
X370989Y-252730D01*
Y-255270D01*
X370507Y-255283D01*
X370075Y-255321D01*
X369694Y-255384D01*
X369364Y-255473D01*
X369085Y-255588D01*
X368856Y-255727D01*
X368678Y-255892D01*
X368551Y-256083D01*
X368475Y-256299D01*
X368450Y-256540D01*
Y-251460D01*
X368475Y-251701D01*
D02*
G37*
G36*
X340241Y-256540D02*
X340215Y-256299D01*
X340138Y-256083D01*
X340010Y-255892D01*
X339830Y-255727D01*
X339598Y-255588D01*
X339316Y-255473D01*
X338981Y-255384D01*
X338596Y-255321D01*
X338159Y-255283D01*
X337671Y-255270D01*
Y-252730D01*
X338159Y-252717D01*
X338596Y-252679D01*
X338981Y-252616D01*
X339316Y-252527D01*
X339598Y-252412D01*
X339830Y-252273D01*
X340010Y-252108D01*
X340138Y-251917D01*
X340215Y-251701D01*
X340241Y-251460D01*
Y-256540D01*
D02*
G37*
G36*
X816982Y-270665D02*
X816662Y-271029D01*
X816376Y-271449D01*
X816125Y-271925D01*
X815909Y-272455D01*
X815728Y-273041D01*
X815581Y-273682D01*
X815469Y-274377D01*
X815391Y-275129D01*
X815340Y-276796D01*
X809053Y-270510D01*
X809915Y-270502D01*
X811473Y-270381D01*
X812169Y-270269D01*
X812809Y-270122D01*
X813395Y-269941D01*
X813925Y-269725D01*
X814401Y-269474D01*
X814821Y-269188D01*
X815185Y-268869D01*
X816982Y-270665D01*
D02*
G37*
G36*
X819190Y-434888D02*
X819309Y-435453D01*
X819508Y-436043D01*
X819787Y-436659D01*
X820145Y-437299D01*
X820583Y-437966D01*
X821100Y-438657D01*
X822374Y-440116D01*
X823130Y-440884D01*
X812630D01*
X813386Y-440116D01*
X814660Y-438657D01*
X815177Y-437966D01*
X815615Y-437299D01*
X815973Y-436659D01*
X816252Y-436043D01*
X816451Y-435453D01*
X816570Y-434888D01*
X816610Y-434348D01*
X819150D01*
X819190Y-434888D01*
D02*
G37*
G36*
X768390D02*
X768509Y-435453D01*
X768708Y-436043D01*
X768987Y-436659D01*
X769345Y-437299D01*
X769783Y-437966D01*
X770300Y-438657D01*
X771574Y-440116D01*
X772330Y-440884D01*
X761830D01*
X762586Y-440116D01*
X763860Y-438657D01*
X764377Y-437966D01*
X764815Y-437299D01*
X765173Y-436659D01*
X765452Y-436043D01*
X765651Y-435453D01*
X765770Y-434888D01*
X765810Y-434348D01*
X768350D01*
X768390Y-434888D01*
D02*
G37*
G36*
X666790D02*
X666909Y-435453D01*
X667108Y-436043D01*
X667387Y-436659D01*
X667745Y-437299D01*
X668183Y-437966D01*
X668700Y-438657D01*
X669974Y-440116D01*
X670730Y-440884D01*
X660230D01*
X660986Y-440116D01*
X662260Y-438657D01*
X662777Y-437966D01*
X663215Y-437299D01*
X663573Y-436659D01*
X663852Y-436043D01*
X664051Y-435453D01*
X664170Y-434888D01*
X664210Y-434348D01*
X666750D01*
X666790Y-434888D01*
D02*
G37*
G36*
X615990D02*
X616109Y-435453D01*
X616308Y-436043D01*
X616587Y-436659D01*
X616945Y-437299D01*
X617383Y-437966D01*
X617900Y-438657D01*
X619174Y-440116D01*
X619930Y-440884D01*
X609430D01*
X610186Y-440116D01*
X611460Y-438657D01*
X611977Y-437966D01*
X612415Y-437299D01*
X612773Y-436659D01*
X613052Y-436043D01*
X613251Y-435453D01*
X613370Y-434888D01*
X613410Y-434348D01*
X615950D01*
X615990Y-434888D01*
D02*
G37*
G36*
X520545Y-443941D02*
X520622Y-444157D01*
X520750Y-444348D01*
X520930Y-444513D01*
X521162Y-444652D01*
X521444Y-444767D01*
X521779Y-444856D01*
X522164Y-444919D01*
X522601Y-444957D01*
X523089Y-444970D01*
Y-447510D01*
X522601Y-447523D01*
X522164Y-447561D01*
X521779Y-447624D01*
X521444Y-447713D01*
X521162Y-447827D01*
X520930Y-447967D01*
X520750Y-448132D01*
X520622Y-448323D01*
X520545Y-448539D01*
X520519Y-448780D01*
Y-443700D01*
X520545Y-443941D01*
D02*
G37*
G36*
X710924Y-451490D02*
X710156Y-450734D01*
X708697Y-449460D01*
X708006Y-448943D01*
X707339Y-448505D01*
X706699Y-448147D01*
X706083Y-447868D01*
X705493Y-447669D01*
X704928Y-447550D01*
X704388Y-447510D01*
Y-444970D01*
X704928Y-444930D01*
X705493Y-444811D01*
X706083Y-444612D01*
X706699Y-444333D01*
X707339Y-443975D01*
X708006Y-443537D01*
X708697Y-443020D01*
X710156Y-441746D01*
X710924Y-440990D01*
Y-451490D01*
D02*
G37*
G36*
X697004Y-441746D02*
X698463Y-443020D01*
X699154Y-443537D01*
X699821Y-443975D01*
X700462Y-444333D01*
X701077Y-444612D01*
X701667Y-444811D01*
X702232Y-444930D01*
X702772Y-444970D01*
Y-447510D01*
X702232Y-447550D01*
X701667Y-447669D01*
X701077Y-447868D01*
X700462Y-448147D01*
X699821Y-448505D01*
X699154Y-448943D01*
X698463Y-449460D01*
X697004Y-450734D01*
X696236Y-451490D01*
Y-440990D01*
X697004Y-441746D01*
D02*
G37*
G36*
X685524Y-451490D02*
X684756Y-450734D01*
X683297Y-449460D01*
X682606Y-448943D01*
X681939Y-448505D01*
X681299Y-448147D01*
X680683Y-447868D01*
X680093Y-447669D01*
X679528Y-447550D01*
X678988Y-447510D01*
Y-444970D01*
X679528Y-444930D01*
X680093Y-444811D01*
X680683Y-444612D01*
X681299Y-444333D01*
X681939Y-443975D01*
X682606Y-443537D01*
X683297Y-443020D01*
X684756Y-441746D01*
X685524Y-440990D01*
Y-451490D01*
D02*
G37*
G36*
X671604Y-441746D02*
X673063Y-443020D01*
X673754Y-443537D01*
X674421Y-443975D01*
X675061Y-444333D01*
X675677Y-444612D01*
X676267Y-444811D01*
X676832Y-444930D01*
X677372Y-444970D01*
Y-447510D01*
X676832Y-447550D01*
X676267Y-447669D01*
X675677Y-447868D01*
X675061Y-448147D01*
X674421Y-448505D01*
X673754Y-448943D01*
X673063Y-449460D01*
X671604Y-450734D01*
X670836Y-451490D01*
Y-440990D01*
X671604Y-441746D01*
D02*
G37*
G36*
X583924Y-451490D02*
X583156Y-450734D01*
X581697Y-449460D01*
X581006Y-448943D01*
X580339Y-448505D01*
X579698Y-448147D01*
X579083Y-447868D01*
X578493Y-447669D01*
X577928Y-447550D01*
X577388Y-447510D01*
Y-444970D01*
X577928Y-444930D01*
X578493Y-444811D01*
X579083Y-444612D01*
X579698Y-444333D01*
X580339Y-443975D01*
X581006Y-443537D01*
X581697Y-443020D01*
X583156Y-441746D01*
X583924Y-440990D01*
Y-451490D01*
D02*
G37*
G36*
X570004Y-441746D02*
X571463Y-443020D01*
X572154Y-443537D01*
X572821Y-443975D01*
X573461Y-444333D01*
X574077Y-444612D01*
X574667Y-444811D01*
X575232Y-444930D01*
X575772Y-444970D01*
Y-447510D01*
X575232Y-447550D01*
X574667Y-447669D01*
X574077Y-447868D01*
X573461Y-448147D01*
X572821Y-448505D01*
X572154Y-448943D01*
X571463Y-449460D01*
X570004Y-450734D01*
X569236Y-451490D01*
Y-440990D01*
X570004Y-441746D01*
D02*
G37*
G36*
X558524Y-451490D02*
X557756Y-450734D01*
X556297Y-449460D01*
X555606Y-448943D01*
X554939Y-448505D01*
X554299Y-448147D01*
X553683Y-447868D01*
X553093Y-447669D01*
X552528Y-447550D01*
X551988Y-447510D01*
Y-444970D01*
X552528Y-444930D01*
X553093Y-444811D01*
X553683Y-444612D01*
X554299Y-444333D01*
X554939Y-443975D01*
X555606Y-443537D01*
X556297Y-443020D01*
X557756Y-441746D01*
X558524Y-440990D01*
Y-451490D01*
D02*
G37*
G36*
X544604Y-441746D02*
X546063Y-443020D01*
X546754Y-443537D01*
X547421Y-443975D01*
X548061Y-444333D01*
X548677Y-444612D01*
X549267Y-444811D01*
X549832Y-444930D01*
X550372Y-444970D01*
Y-447510D01*
X549832Y-447550D01*
X549267Y-447669D01*
X548677Y-447868D01*
X548061Y-448147D01*
X547421Y-448505D01*
X546754Y-448943D01*
X546063Y-449460D01*
X544604Y-450734D01*
X543836Y-451490D01*
Y-440990D01*
X544604Y-441746D01*
D02*
G37*
G36*
X533124Y-451490D02*
X532356Y-450734D01*
X530897Y-449460D01*
X530206Y-448943D01*
X529539Y-448505D01*
X528899Y-448147D01*
X528283Y-447868D01*
X527693Y-447669D01*
X527128Y-447550D01*
X526588Y-447510D01*
Y-444970D01*
X527128Y-444930D01*
X527693Y-444811D01*
X528283Y-444612D01*
X528899Y-444333D01*
X529539Y-443975D01*
X530206Y-443537D01*
X530897Y-443020D01*
X532356Y-441746D01*
X533124Y-440990D01*
Y-451490D01*
D02*
G37*
G36*
X515379Y-453735D02*
X515163Y-453811D01*
X514972Y-453938D01*
X514807Y-454116D01*
X514668Y-454344D01*
X514553Y-454624D01*
X514464Y-454954D01*
X514401Y-455335D01*
X514363Y-455767D01*
X514350Y-456250D01*
X511810D01*
X511797Y-455767D01*
X511759Y-455335D01*
X511696Y-454954D01*
X511607Y-454624D01*
X511493Y-454344D01*
X511353Y-454116D01*
X511188Y-453938D01*
X510997Y-453811D01*
X510781Y-453735D01*
X510540Y-453709D01*
X515620D01*
X515379Y-453735D01*
D02*
G37*
G36*
X799138Y-449872D02*
X798903Y-450695D01*
X798747Y-451472D01*
X798670Y-452204D01*
X798671Y-452890D01*
X798752Y-453530D01*
X798911Y-454125D01*
X799149Y-454674D01*
X799466Y-455178D01*
X799862Y-455636D01*
X797361Y-456727D01*
X797097Y-456503D01*
X796725Y-456252D01*
X796244Y-455974D01*
X794959Y-455336D01*
X792222Y-454176D01*
X789856Y-453266D01*
X799452Y-449004D01*
X799138Y-449872D01*
D02*
G37*
G36*
X746174Y-452364D02*
X744900Y-453823D01*
X744383Y-454514D01*
X743945Y-455181D01*
X743587Y-455821D01*
X743308Y-456437D01*
X743109Y-457027D01*
X742990Y-457592D01*
X742950Y-458132D01*
X740410D01*
X740370Y-457592D01*
X740251Y-457027D01*
X740052Y-456437D01*
X739773Y-455821D01*
X739415Y-455181D01*
X738977Y-454514D01*
X738460Y-453823D01*
X737186Y-452364D01*
X736430Y-451596D01*
X746930D01*
X746174Y-452364D01*
D02*
G37*
G36*
X644574D02*
X643300Y-453823D01*
X642783Y-454514D01*
X642345Y-455181D01*
X641987Y-455821D01*
X641708Y-456437D01*
X641509Y-457027D01*
X641390Y-457592D01*
X641350Y-458132D01*
X638810D01*
X638770Y-457592D01*
X638651Y-457027D01*
X638452Y-456437D01*
X638173Y-455821D01*
X637815Y-455181D01*
X637377Y-454514D01*
X636860Y-453823D01*
X635586Y-452364D01*
X634830Y-451596D01*
X645330D01*
X644574Y-452364D01*
D02*
G37*
G36*
X742963Y-482123D02*
X743001Y-482555D01*
X743064Y-482936D01*
X743153Y-483266D01*
X743268Y-483545D01*
X743407Y-483774D01*
X743572Y-483952D01*
X743763Y-484079D01*
X743979Y-484155D01*
X744220Y-484180D01*
X739140D01*
X739381Y-484155D01*
X739597Y-484079D01*
X739788Y-483952D01*
X739953Y-483774D01*
X740092Y-483545D01*
X740207Y-483266D01*
X740296Y-482936D01*
X740359Y-482555D01*
X740397Y-482123D01*
X740410Y-481641D01*
X742950D01*
X742963Y-482123D01*
D02*
G37*
G36*
X371015Y-495541D02*
X371091Y-495757D01*
X371218Y-495948D01*
X371396Y-496113D01*
X371624Y-496253D01*
X371904Y-496367D01*
X372234Y-496456D01*
X372615Y-496519D01*
X373047Y-496557D01*
X373530Y-496570D01*
Y-499110D01*
X373047Y-499123D01*
X372615Y-499161D01*
X372234Y-499224D01*
X371904Y-499313D01*
X371624Y-499427D01*
X371396Y-499567D01*
X371218Y-499732D01*
X371091Y-499923D01*
X371015Y-500139D01*
X370989Y-500380D01*
Y-495300D01*
X371015Y-495541D01*
D02*
G37*
G36*
X342781Y-500380D02*
X342755Y-500139D01*
X342678Y-499923D01*
X342550Y-499732D01*
X342370Y-499567D01*
X342138Y-499427D01*
X341856Y-499313D01*
X341521Y-499224D01*
X341136Y-499161D01*
X340699Y-499123D01*
X340210Y-499110D01*
Y-496570D01*
X340699Y-496557D01*
X341136Y-496519D01*
X341521Y-496456D01*
X341856Y-496367D01*
X342138Y-496253D01*
X342370Y-496113D01*
X342550Y-495948D01*
X342678Y-495757D01*
X342755Y-495541D01*
X342781Y-495300D01*
Y-500380D01*
D02*
G37*
G36*
X743979Y-512415D02*
X743763Y-512492D01*
X743572Y-512620D01*
X743407Y-512800D01*
X743268Y-513032D01*
X743153Y-513314D01*
X743064Y-513649D01*
X743001Y-514034D01*
X742963Y-514471D01*
X742950Y-514959D01*
X740410D01*
X740397Y-514471D01*
X740359Y-514034D01*
X740296Y-513649D01*
X740207Y-513314D01*
X740092Y-513032D01*
X739953Y-512800D01*
X739788Y-512620D01*
X739597Y-512492D01*
X739381Y-512415D01*
X739140Y-512389D01*
X744220D01*
X743979Y-512415D01*
D02*
G37*
G36*
X1100940Y-557530D02*
X1100915Y-557289D01*
X1100839Y-557073D01*
X1100712Y-556882D01*
X1100534Y-556717D01*
X1100305Y-556577D01*
X1100026Y-556463D01*
X1099696Y-556374D01*
X1099315Y-556311D01*
X1098883Y-556273D01*
X1098400Y-556260D01*
Y-553720D01*
X1098883Y-553707D01*
X1099315Y-553669D01*
X1099696Y-553606D01*
X1100026Y-553517D01*
X1100305Y-553402D01*
X1100534Y-553263D01*
X1100712Y-553098D01*
X1100839Y-552907D01*
X1100915Y-552691D01*
X1100940Y-552450D01*
Y-557530D01*
D02*
G37*
G36*
X576755Y-552691D02*
X576831Y-552907D01*
X576958Y-553098D01*
X577136Y-553263D01*
X577365Y-553402D01*
X577644Y-553517D01*
X577974Y-553606D01*
X578355Y-553669D01*
X578787Y-553707D01*
X579269Y-553720D01*
Y-556260D01*
X578787Y-556273D01*
X578355Y-556311D01*
X577974Y-556374D01*
X577644Y-556463D01*
X577365Y-556577D01*
X577136Y-556717D01*
X576958Y-556882D01*
X576831Y-557073D01*
X576755Y-557289D01*
X576730Y-557530D01*
Y-552450D01*
X576755Y-552691D01*
D02*
G37*
G36*
X1129175Y-552701D02*
X1129252Y-552917D01*
X1129380Y-553108D01*
X1129560Y-553273D01*
X1129792Y-553413D01*
X1130074Y-553527D01*
X1130409Y-553616D01*
X1130794Y-553679D01*
X1131231Y-553717D01*
X1131720Y-553730D01*
Y-556270D01*
X1131231Y-556283D01*
X1130794Y-556321D01*
X1130409Y-556384D01*
X1130074Y-556473D01*
X1129792Y-556587D01*
X1129560Y-556727D01*
X1129380Y-556892D01*
X1129252Y-557083D01*
X1129175Y-557299D01*
X1129149Y-557540D01*
Y-552460D01*
X1129175Y-552701D01*
D02*
G37*
G36*
X548521Y-557540D02*
X548495Y-557299D01*
X548418Y-557083D01*
X548290Y-556892D01*
X548110Y-556727D01*
X547878Y-556587D01*
X547596Y-556473D01*
X547261Y-556384D01*
X546876Y-556321D01*
X546439Y-556283D01*
X545951Y-556270D01*
Y-553730D01*
X546439Y-553717D01*
X546876Y-553679D01*
X547261Y-553616D01*
X547596Y-553527D01*
X547878Y-553413D01*
X548110Y-553273D01*
X548290Y-553108D01*
X548418Y-552917D01*
X548495Y-552701D01*
X548521Y-552460D01*
Y-557540D01*
D02*
G37*
G36*
X1265231Y-581784D02*
X1259400Y-576936D01*
X1237045Y-560352D01*
X1233935Y-558566D01*
X1231277Y-557291D01*
X1229074Y-556525D01*
X1227324Y-556270D01*
X1227081Y-553730D01*
X1229285Y-553453D01*
X1231729Y-552622D01*
X1234412Y-551238D01*
X1237334Y-549299D01*
X1240496Y-546807D01*
X1243898Y-543761D01*
X1251419Y-536007D01*
X1259897Y-526038D01*
X1265231Y-581784D01*
D02*
G37*
G36*
X858231D02*
X852400Y-576936D01*
X830045Y-560352D01*
X826935Y-558566D01*
X824277Y-557291D01*
X822074Y-556525D01*
X820324Y-556270D01*
X820081Y-553730D01*
X822285Y-553453D01*
X824729Y-552622D01*
X827412Y-551238D01*
X830334Y-549299D01*
X833496Y-546807D01*
X836898Y-543761D01*
X844419Y-536007D01*
X852897Y-526038D01*
X858231Y-581784D01*
D02*
G37*
G36*
X512462Y-531300D02*
X524102Y-543761D01*
X527504Y-546807D01*
X530666Y-549299D01*
X533588Y-551238D01*
X536271Y-552622D01*
X538715Y-553453D01*
X540919Y-553730D01*
X540676Y-556270D01*
X538926Y-556525D01*
X536722Y-557291D01*
X534065Y-558566D01*
X530955Y-560352D01*
X523373Y-565455D01*
X513978Y-572599D01*
X502769Y-581784D01*
X508103Y-526038D01*
X512462Y-531300D01*
D02*
G37*
G36*
X113941Y-525609D02*
X128948Y-541232D01*
X133282Y-545051D01*
X137281Y-548175D01*
X140946Y-550606D01*
X144277Y-552341D01*
X147273Y-553383D01*
X149936Y-553730D01*
X149741Y-556270D01*
X147538Y-556595D01*
X144784Y-557572D01*
X141480Y-559198D01*
X137626Y-561476D01*
X133220Y-564405D01*
X122758Y-572214D01*
X102936Y-588809D01*
X108270Y-519013D01*
X113941Y-525609D01*
D02*
G37*
D10*
X200650Y-555000D02*
X257810Y-497840D01*
X347170D01*
X486410D02*
X513080Y-471170D01*
X366570Y-497840D02*
X486410D01*
X817880Y-391160D02*
X971550Y-237490D01*
X1203960D01*
X1223360D02*
X1262380D01*
X1291000Y-208870D01*
X1054100Y-203200D02*
X1084600Y-172700D01*
X976170Y-203200D02*
X1054100D01*
X767080Y-368300D02*
X932180Y-203200D01*
X956770D01*
X741680Y-488600D02*
Y-446240D01*
X513080Y-471170D02*
Y-450050D01*
X808990Y-276860D02*
X872784Y-213066D01*
Y-171570D01*
X563880Y-446240D02*
X589280D01*
X538480D02*
X563880D01*
X513080D02*
X538480D01*
X690880D02*
X716280D01*
X665480D02*
X690880D01*
X665480D02*
Y-226240D01*
X792480Y-450050D02*
X839000Y-496570D01*
X939800D02*
X998220Y-554990D01*
X839000Y-496570D02*
X939800D01*
X1124770Y-555000D02*
X1291000D01*
X1124760Y-554990D02*
X1124770Y-555000D01*
X998220Y-554990D02*
X1105360D01*
X70000Y-555000D02*
X200650D01*
X477000D02*
X552900D01*
X552910Y-554990D01*
X640080Y-505460D02*
Y-450050D01*
X590550Y-554990D02*
X640080Y-505460D01*
X572310Y-554990D02*
X590550D01*
X614680Y-450050D02*
Y-340360D01*
X528320Y-254000D02*
X614680Y-340360D01*
X364030Y-254000D02*
X528320D01*
X741680Y-532130D02*
Y-511810D01*
X764550Y-555000D02*
X884000D01*
X741680Y-532130D02*
X764550Y-555000D01*
X817880Y-450050D02*
Y-391160D01*
X767080Y-450050D02*
Y-368300D01*
X660500Y-176630D02*
Y-120000D01*
Y-176630D02*
X665480Y-181610D01*
Y-207470D02*
Y-181610D01*
X660400Y-203660D02*
X660500Y-203560D01*
X321310Y-254000D02*
X344630D01*
X253500Y-186190D02*
X321310Y-254000D01*
X253500Y-186190D02*
Y-120000D01*
X1084600Y-172700D02*
Y-122900D01*
X1087500Y-120000D01*
X1291000Y-555000D02*
Y-540430D01*
Y-208870D02*
Y-120000D01*
D12*
X741680Y-508000D02*
D03*
Y-488600D02*
D03*
X665480Y-203660D02*
D03*
Y-223060D02*
D03*
D13*
X344630Y-254000D02*
D03*
X364030D02*
D03*
X1124760Y-554990D02*
D03*
X1105360D02*
D03*
X1223360Y-237490D02*
D03*
X1203960D02*
D03*
X976170Y-203200D02*
D03*
X956770D02*
D03*
X552910Y-551180D02*
D03*
X572310D02*
D03*
X347170Y-497840D02*
D03*
X366570D02*
D03*
D23*
X1012500Y-290830D02*
D03*
X1212500D02*
D03*
X167640Y-288290D02*
D03*
X427500D02*
D03*
D24*
X987500Y-290830D02*
D03*
X1187500D02*
D03*
X192640Y-288290D02*
D03*
X452500D02*
D03*
D25*
X771180Y-171570D02*
D03*
X513080Y-446240D02*
D03*
D26*
X796584Y-171570D02*
D03*
X821984D02*
D03*
X847384D02*
D03*
X872784D02*
D03*
X538480Y-446240D02*
D03*
X563880D02*
D03*
X589280D02*
D03*
X614680D02*
D03*
X640080D02*
D03*
X665480D02*
D03*
X690880D02*
D03*
X716280D02*
D03*
X741680D02*
D03*
X767080D02*
D03*
X792480D02*
D03*
X817880D02*
D03*
D27*
X253500Y-116190D02*
D03*
X1291000Y-551190D02*
D03*
X884000D02*
D03*
X1087500Y-116190D02*
D03*
X660500D02*
D03*
X477000Y-551190D02*
D03*
D28*
X1291000Y-116190D02*
D03*
X70000Y-551190D02*
D03*
D29*
X808990Y-276860D02*
D03*
M02*
