G04*
G04 #@! TF.GenerationSoftware,Altium Limited,Altium Designer,22.8.2 (66)*
G04*
G04 Layer_Color=16711935*
%FSLAX44Y44*%
%MOMM*%
G71*
G04*
G04 #@! TF.SameCoordinates,A88769B3-AE7A-4E98-8DBA-C7F6B74A5C9B*
G04*
G04*
G04 #@! TF.FilePolarity,Negative*
G04*
G01*
G75*
%ADD16R,1.7112X1.7112*%
%ADD17C,1.7112*%
%ADD18R,1.7032X1.7032*%
%ADD19C,1.7032*%
%ADD20C,8.2032*%
%ADD21C,10.2032*%
%ADD22C,1.4732*%
D16*
X1012500Y-290830D02*
D03*
X1212500D02*
D03*
X167640Y-288290D02*
D03*
X427500D02*
D03*
D17*
X987500Y-290830D02*
D03*
X1187500D02*
D03*
X192640Y-288290D02*
D03*
X452500D02*
D03*
D18*
X771180Y-171570D02*
D03*
X513080Y-446240D02*
D03*
D19*
X796584Y-171570D02*
D03*
X821984D02*
D03*
X847384D02*
D03*
X872784D02*
D03*
X538480Y-446240D02*
D03*
X563880D02*
D03*
X589280D02*
D03*
X614680D02*
D03*
X640080D02*
D03*
X665480D02*
D03*
X690880D02*
D03*
X716280D02*
D03*
X741680D02*
D03*
X767080D02*
D03*
X792480D02*
D03*
X817880D02*
D03*
D20*
X253500Y-116190D02*
D03*
X1291000Y-551190D02*
D03*
X884000D02*
D03*
X1087500Y-116190D02*
D03*
X660500D02*
D03*
X477000Y-551190D02*
D03*
D21*
X1291000Y-116190D02*
D03*
X70000Y-551190D02*
D03*
D22*
X808990Y-276860D02*
D03*
M02*
