M48
;Layer_Color=9474304
;FILE_FORMAT=4:4
METRIC,LZ
;TYPE=PLATED
T1F00S00C0.1270
T2F00S00C0.2500
T3F00S00C0.3555
T4F00S00C0.7112
T5F00S00C0.9500
T6F00S00C1.0200
T7F00S00C1.1500
T8F00S00C3.3000
;TYPE=NON_PLATED
T9F00S00C3.0000
%
T01
X0106434Y0043315
Y0043815
Y0044315
X0106934
X0107434
Y0043815
Y0043315
X0106934
Y0043815
T02
X00111785Y0003875
X00151785
X00131785Y0007875
X00091785
X00111785Y0011875
X00151785
X00191785
X00171785Y0015875
X00151785Y0019875
X00191785
X00171785Y0023875
X00151785Y0027875
X00111785
X00131785Y0031875
X00171785
X00211785
X00191785Y0035875
X00231785
X00311785
X00351785
X00391785
X00371785Y0031875
X00331785
X00311785Y0027875
X00351785
X00391785
X00371785Y0023875
X00331785
X00351785Y0019875
X00391785
X00371785Y0015875
X00351785Y0011875
X00391785
X00371785Y0007875
X00391785Y0003875
X00311785
X00271785
X00231785
Y0027875
X00151785Y0035875
X00111785
X00071785
X00031785
Y0027875
Y0019875
Y0011875
X0009825Y0021875
X00091785Y0023875
Y0031875
X00411785
X00451785
X00491785
X00471785Y0035875
X00431785
Y0027875
X00471785
X00491785Y0023875
X00531785
X00563Y002825
X00571785Y0031875
X005725Y00376
X00631785Y0035875
X0065225Y0031025
X00671785Y0027875
X0071475Y0027175
X0073475Y0031175
X0075075Y0030675
X0075475Y0035175
X0077475Y0039175
X0073475
X0071475Y0019175
X00671785Y0019875
X00651785Y0015875
X00631785Y0011875
X00671785
X0070925Y00123
X0073475Y0015175
X0075Y0015975
X00731785Y0007875
X00771785
X00751785Y0003875
X00791785
X00711785
X00671785
X00631785
X00591785
X00551785
X00511785
X00471785
X00431785
X00411785Y0007875
X00431785Y0011875
X00471785
X005135Y0010975
X00531785Y0007875
X00571785
X00611785
X00591785Y0011875
X00531785Y0015875
X00491785
X00451785
X00411785
X00431785Y0019875
X00471785
X00451785Y0023875
X00411785
X00491785Y0007875
X006885Y0008575
X00811785Y0007875
X00851785
X00831785Y0003875
X00871785
X0091475Y0003175
X0092Y000115
X0095475Y0003175
X00956Y0006
X0094025Y0010125
X0098075Y0011175
X0103475Y0011175
X0106675Y001115
Y0007825
X0109475Y0007175
X0113475
X0117475
X0115475Y0003175
X0111475
X0107475
X0103475
X0101325Y0006
X0101475Y0015175
X010185Y001875
X0106175Y0017125
X0105475Y0023175
X0103475Y0027175
X0107475
X0111475
X01109Y0028725
X01124Y0033
X0117475Y0031175
X0116425Y0036625
X010425Y00388
X01041Y003295
X0105475Y0031175
X0097475
X0093475
X0091475Y0035175
X0095475
X0099475
X0097475Y0039175
X0093475
X0089475
X0085475
X0081475
X0079475Y0035175
X0083475
X0087475
X0095475Y0027175
X0099475
X0097475Y0023175
X0111375Y002285
X01105Y0011425
X0089725Y0015525
X0121475Y0015175
X0125475
X0123475Y0019175
X0119475
X0121475Y0023175
X0125475
X0123475Y0027175
X0119475
X0121475Y0031175
X0125475
X0123475Y0035175
X0119475
X0121475Y0039175
X0125475
X0123475Y0011175
X0119475
Y0003175
X0123475Y0043175
X0125475Y0047175
X0121475
X0119475Y0051175
X0123475
X0115475
X0111475
X011135Y00491
X010765Y0049075
X010385Y0049325
X01015Y0051325
X00951785Y0051875
X00911785
X00871785
X00831785
X00811785Y0055875
X00891785
X00971785
X0097675Y0059075
X0097475Y0047175
X0093475
X0089475
X0085475
X0081475
X009975Y0044725
X0113475Y0055175
X0117475
X00791785Y0051875
X00751785
X00711785
X00671785
X00691785Y0055875
X00731785
X00651785
X00571785
X00491785
X00471785Y0051875
X00511785
Y0043875
X00551785
X00571785Y0039875
X00531785
X00491785
X00451785
X00411785
X00471785Y0043875
X0044125Y00496215
X00631785Y0043875
X00671785
X0071475Y0043175
X0071125Y00473
X0073475Y0047175
X0077475
X007565Y0041175
X00391785Y0043875
X00351785
X00371785Y0039875
X00331785
X00291785Y0047875
X00251785
X00211785
X00171785
X00131785
X00091785
X00051785
X00031785Y0051875
X00071785
X00111785
X00151785
X00191785
X00231785
X00271785
X00311785
X00351785
X00391785
X00371785Y0055875
X00331785
X00291785
X00251785
X00211785
X00171785
X00131785
X00111785Y0043875
X00151785
X00191785
X00231785
X00211785Y0039875
X00171785
X00131785
X00091785
X00051785
X00031785Y0043875
X00071785
T03
X00592933Y00251617
Y0026162
X0082625Y0028018
X0083325Y0017858
X00906358Y0022626
Y0025126
X01069Y00406
X01043Y00443
T04
X0035375Y0015675
X0051575Y00188356
X00556Y0016945
Y0020882
X005825Y002745
X006Y0028956
X0051575Y0035619
X0099441Y0036957
X01159882Y00350536
X0110109Y001397
X0092425Y0025375
X0119126Y0017145
X0099466Y003979
X0104862Y0051225
X0109601
X0044196
T05
X00049403Y001262
Y001516
Y00177
Y002024
Y002278
Y002532
Y002786
X00074803
Y002532
Y002278
Y002024
Y00177
Y001516
Y00125692
Y00304
X00049403
X00505237Y0006127
X00530637
X00556037
X00581437
X00606837
X00632237
X00683037
X00708437
X00733837
X00759237
X00784637
X00810037
X00835437
X00860837
X00850321Y00542302
X00824921
X00799521
X00875721
X00901121
X00926521
X00951921
X00774121
X00748721
X00723321
X00683037
X00657637
X00632237
X00606837
X00581437
X00556037
X00530637
X00505237
T06
X0018Y00095
X0021
X0024
X0027
X003
X0033
X0036
X00962371Y00095
X00992371
X01022371
X01052371
X01082371
T07
X0065405Y0036195
X0073025Y0033655
Y0041275
X0065405
T08
X00051931Y0004127
X01241931
Y0056127
X00051931
T09
X002015Y000518
X003385
X00983871Y000518
X01060871
M30
