G04*
G04 #@! TF.GenerationSoftware,Altium Limited,Altium Designer,22.8.2 (66)*
G04*
G04 Layer_Physical_Order=4*
G04 Layer_Color=16711680*
%FSLAX44Y44*%
%MOMM*%
G71*
G04*
G04 #@! TF.SameCoordinates,AF58AEFE-5498-464C-92CE-300A63243590*
G04*
G04*
G04 #@! TF.FilePolarity,Positive*
G04*
G01*
G75*
%ADD10C,0.2540*%
%ADD17C,0.0254*%
%ADD18C,0.0500*%
%ADD68C,0.6350*%
%ADD69C,0.5000*%
%ADD71C,0.3810*%
%ADD73C,3.0000*%
%ADD74C,2.0000*%
G04:AMPARAMS|DCode=75|XSize=2mm|YSize=2mm|CornerRadius=0.5mm|HoleSize=0mm|Usage=FLASHONLY|Rotation=180.000|XOffset=0mm|YOffset=0mm|HoleType=Round|Shape=RoundedRectangle|*
%AMROUNDEDRECTD75*
21,1,2.0000,1.0000,0,0,180.0*
21,1,1.0000,2.0000,0,0,180.0*
1,1,1.0000,-0.5000,0.5000*
1,1,1.0000,0.5000,0.5000*
1,1,1.0000,0.5000,-0.5000*
1,1,1.0000,-0.5000,-0.5000*
%
%ADD75ROUNDEDRECTD75*%
%ADD76C,1.7000*%
%ADD77R,1.7000X1.7000*%
%ADD78C,6.6000*%
%ADD79C,2.2400*%
G04:AMPARAMS|DCode=80|XSize=2.24mm|YSize=2.24mm|CornerRadius=0.56mm|HoleSize=0mm|Usage=FLASHONLY|Rotation=90.000|XOffset=0mm|YOffset=0mm|HoleType=Round|Shape=RoundedRectangle|*
%AMROUNDEDRECTD80*
21,1,2.2400,1.1200,0,0,90.0*
21,1,1.1200,2.2400,0,0,90.0*
1,1,1.1200,0.5600,0.5600*
1,1,1.1200,0.5600,-0.5600*
1,1,1.1200,-0.5600,-0.5600*
1,1,1.1200,-0.5600,0.5600*
%
%ADD80ROUNDEDRECTD80*%
%ADD81C,0.6350*%
%ADD82C,0.5500*%
%ADD83C,1.2700*%
%ADD84C,0.2540*%
G36*
X1256950Y601270D02*
X1259412D01*
X1264242Y600309D01*
X1268792Y598425D01*
X1272887Y595689D01*
X1276369Y592207D01*
X1279105Y588112D01*
X1280989Y583562D01*
X1281950Y578732D01*
Y576270D01*
Y26270D01*
Y23808D01*
X1280989Y18978D01*
X1279105Y14428D01*
X1276369Y10333D01*
X1272887Y6851D01*
X1268792Y4115D01*
X1264242Y2231D01*
X1259412Y1270D01*
X907624D01*
Y91550D01*
X907522Y93641D01*
X906706Y97744D01*
X905105Y101608D01*
X902781Y105085D01*
X899824Y108043D01*
X896346Y110367D01*
X892482Y111967D01*
X888380Y112783D01*
X886288Y112886D01*
X702892D01*
X701398Y113505D01*
X700255Y114648D01*
X699636Y116142D01*
Y116950D01*
Y478800D01*
Y479608D01*
X700255Y481102D01*
X701398Y482245D01*
X702892Y482864D01*
X982909D01*
X985000Y482967D01*
X989102Y483783D01*
X992966Y485383D01*
X996444Y487707D01*
X999402Y490665D01*
X1001725Y494142D01*
X1003326Y498007D01*
X1004142Y502109D01*
X1004245Y504200D01*
Y601270D01*
X1256950Y601270D01*
D02*
G37*
G36*
X986973Y504200D02*
Y503392D01*
X986354Y501898D01*
X985211Y500755D01*
X983717Y500136D01*
X703700D01*
X701609Y500033D01*
X697506Y499217D01*
X693642Y497617D01*
X690165Y495293D01*
X687207Y492335D01*
X684883Y488858D01*
X683283Y484994D01*
X682467Y480891D01*
X682364Y478800D01*
Y116950D01*
X682467Y114859D01*
X683283Y110757D01*
X684883Y106892D01*
X687207Y103415D01*
X690165Y100457D01*
X693642Y98133D01*
X697506Y96533D01*
X701609Y95717D01*
X703700Y95614D01*
X887097D01*
X888590Y94995D01*
X889734Y93852D01*
X890352Y92358D01*
Y91550D01*
Y1270D01*
X36950D01*
X34488Y1270D01*
X29658Y2231D01*
X25108Y4115D01*
X21013Y6851D01*
X17531Y10333D01*
X14795Y14428D01*
X12911Y18978D01*
X11950Y23808D01*
Y26270D01*
Y576270D01*
X11950Y578732D01*
X12911Y583562D01*
X14795Y588112D01*
X17531Y592207D01*
X21013Y595689D01*
X25108Y598425D01*
X29658Y600309D01*
X34488Y601270D01*
X36950D01*
X986973Y601270D01*
Y504200D01*
D02*
G37*
%LPC*%
G36*
X1244765Y597270D02*
X1239098D01*
X1233501Y596384D01*
X1228112Y594632D01*
X1223063Y592060D01*
X1218479Y588729D01*
X1214472Y584722D01*
X1211142Y580138D01*
X1208569Y575089D01*
X1206818Y569700D01*
X1205931Y564103D01*
Y558437D01*
X1206818Y552840D01*
X1208569Y547451D01*
X1211142Y542402D01*
X1214472Y537817D01*
X1218479Y533811D01*
X1223063Y530480D01*
X1228112Y527907D01*
X1233501Y526156D01*
X1239098Y525270D01*
X1244765D01*
X1250361Y526156D01*
X1255751Y527907D01*
X1260799Y530480D01*
X1265384Y533811D01*
X1269391Y537817D01*
X1272721Y542402D01*
X1275294Y547451D01*
X1277045Y552840D01*
X1277931Y558437D01*
Y564103D01*
X1277045Y569700D01*
X1275294Y575089D01*
X1272721Y580138D01*
X1269391Y584722D01*
X1265384Y588729D01*
X1260799Y592060D01*
X1255751Y594632D01*
X1250361Y596384D01*
X1244765Y597270D01*
D02*
G37*
G36*
X1044119Y448625D02*
X1041881D01*
X1039814Y447769D01*
X1038231Y446186D01*
X1037375Y444119D01*
Y441881D01*
X1038231Y439814D01*
X1039115Y438930D01*
Y417500D01*
X1039411Y416013D01*
X1040253Y414753D01*
X1051753Y403253D01*
X1053013Y402411D01*
X1054500Y402115D01*
X1064930D01*
X1065814Y401231D01*
X1067881Y400375D01*
X1070119D01*
X1072186Y401231D01*
X1073769Y402814D01*
X1074625Y404881D01*
Y407119D01*
X1073769Y409186D01*
X1072186Y410769D01*
X1070119Y411625D01*
X1067881D01*
X1065814Y410769D01*
X1064930Y409885D01*
X1056109D01*
X1046885Y419109D01*
Y438930D01*
X1047769Y439814D01*
X1048625Y441881D01*
Y444119D01*
X1047769Y446186D01*
X1046186Y447769D01*
X1044119Y448625D01*
D02*
G37*
G36*
X732120Y426950D02*
X728381D01*
X724769Y425982D01*
X721531Y424113D01*
X718887Y421469D01*
X717018Y418231D01*
X716050Y414619D01*
Y410881D01*
X717018Y407269D01*
X718887Y404031D01*
X721531Y401387D01*
X724769Y399518D01*
X728381Y398550D01*
X732120D01*
X735731Y399518D01*
X738969Y401387D01*
X741613Y404031D01*
X743482Y407269D01*
X744450Y410881D01*
Y414619D01*
X743482Y418231D01*
X741613Y421469D01*
X738969Y424113D01*
X735731Y425982D01*
X732120Y426950D01*
D02*
G37*
G36*
X735850Y353850D02*
X733250D01*
Y339550D01*
X747550D01*
Y342150D01*
X747151Y345178D01*
X745983Y348000D01*
X744123Y350423D01*
X741700Y352283D01*
X738878Y353451D01*
X735850Y353850D01*
D02*
G37*
G36*
X727250D02*
X724650D01*
X721622Y353451D01*
X718800Y352283D01*
X716377Y350423D01*
X714517Y348000D01*
X713349Y345178D01*
X712950Y342150D01*
Y339550D01*
X727250D01*
Y353850D01*
D02*
G37*
G36*
X747550Y333550D02*
X733250D01*
Y319250D01*
X735850D01*
X738878Y319649D01*
X741700Y320817D01*
X744123Y322677D01*
X745983Y325100D01*
X747151Y327922D01*
X747550Y330950D01*
Y333550D01*
D02*
G37*
G36*
X727250D02*
X712950D01*
Y330950D01*
X713349Y327922D01*
X714517Y325100D01*
X716377Y322677D01*
X718800Y320817D01*
X721622Y319649D01*
X724650Y319250D01*
X727250D01*
Y333550D01*
D02*
G37*
G36*
X925481Y263100D02*
X923019D01*
X920641Y262463D01*
X918509Y261232D01*
X916768Y259491D01*
X915537Y257359D01*
X914900Y254981D01*
Y252519D01*
X915537Y250141D01*
X916768Y248009D01*
X917508Y247269D01*
X916698Y246283D01*
X916290Y246555D01*
X914376Y246936D01*
X912521D01*
X912347Y247091D01*
X911777Y248206D01*
X912533Y250032D01*
Y252488D01*
X911593Y254758D01*
X909856Y256495D01*
X907586Y257435D01*
X905130D01*
X902860Y256495D01*
X901123Y254758D01*
X900183Y252488D01*
Y250032D01*
X901123Y247762D01*
X901357Y247528D01*
Y244167D01*
X901738Y242253D01*
X902822Y240631D01*
X904692Y238760D01*
X902822Y236889D01*
X901738Y235267D01*
X901357Y233353D01*
Y229992D01*
X901123Y229758D01*
X900183Y227488D01*
Y225032D01*
X901123Y222762D01*
X902860Y221025D01*
X905130Y220085D01*
X907586D01*
X909856Y221025D01*
X911593Y222762D01*
X912533Y225032D01*
Y225930D01*
X913803Y226456D01*
X915868Y224391D01*
Y96003D01*
X916248Y94089D01*
X917333Y92466D01*
X940945Y68854D01*
X942568Y67770D01*
X944482Y67389D01*
X972615D01*
X972983Y66174D01*
X972397Y65781D01*
X969890Y63274D01*
X967920Y60326D01*
X966563Y57050D01*
X965871Y53573D01*
Y50027D01*
X966563Y46550D01*
X967920Y43274D01*
X969890Y40326D01*
X972397Y37819D01*
X975345Y35849D01*
X978621Y34492D01*
X982098Y33800D01*
X985644D01*
X989121Y34492D01*
X992397Y35849D01*
X995345Y37819D01*
X997852Y40326D01*
X999822Y43274D01*
X1001179Y46550D01*
X1001871Y50027D01*
Y53573D01*
X1001179Y57050D01*
X999822Y60326D01*
X997852Y63274D01*
X995345Y65781D01*
X994759Y66174D01*
X995127Y67389D01*
X1000966D01*
X1002879Y67770D01*
X1004502Y68854D01*
X1014082Y78434D01*
X1015166Y80056D01*
X1015547Y81970D01*
Y82659D01*
X1016647Y83294D01*
X1017353Y82886D01*
X1020659Y82000D01*
X1024082D01*
X1027389Y82886D01*
X1030353Y84597D01*
X1032774Y87018D01*
X1034485Y89982D01*
X1035371Y93288D01*
Y96712D01*
X1034485Y100018D01*
X1032774Y102982D01*
X1030353Y105403D01*
X1027389Y107114D01*
X1024082Y108000D01*
X1020659D01*
X1017353Y107114D01*
X1014389Y105403D01*
X1011968Y102982D01*
X1010257Y100018D01*
X1009371Y96712D01*
Y93611D01*
X1009242Y93525D01*
X1007371Y91655D01*
X1005500Y93525D01*
X1005371Y93611D01*
Y96712D01*
X1004485Y100018D01*
X1002774Y102982D01*
X1000353Y105403D01*
X997389Y107114D01*
X994082Y108000D01*
X990659D01*
X987353Y107114D01*
X984389Y105403D01*
X981968Y102982D01*
X980257Y100018D01*
X979371Y96712D01*
Y93288D01*
X980257Y89982D01*
X981968Y87018D01*
X983975Y85011D01*
X983449Y83741D01*
X974253D01*
X973627Y85011D01*
X974359Y85965D01*
X975165Y87912D01*
X975440Y90000D01*
Y100000D01*
X975165Y102088D01*
X974359Y104035D01*
X973077Y105706D01*
X971406Y106988D01*
X969460Y107794D01*
X967371Y108069D01*
X957371D01*
X955283Y107794D01*
X953336Y106988D01*
X951665Y105706D01*
X950383Y104035D01*
X949577Y102088D01*
X949302Y100000D01*
Y90000D01*
X949577Y87912D01*
X950383Y85965D01*
X951115Y85011D01*
X950489Y83741D01*
X949183D01*
X932220Y100704D01*
Y229093D01*
X931839Y231006D01*
X930755Y232629D01*
X918682Y244701D01*
X919462Y245718D01*
X920641Y245037D01*
X923019Y244400D01*
X925481D01*
X927859Y245037D01*
X929991Y246268D01*
X931732Y248009D01*
X932963Y250141D01*
X933600Y252519D01*
Y254981D01*
X932963Y257359D01*
X931732Y259491D01*
X929991Y261232D01*
X927859Y262463D01*
X925481Y263100D01*
D02*
G37*
G36*
X827478Y286355D02*
X825022D01*
X822752Y285415D01*
X821015Y283678D01*
X820075Y281409D01*
Y278952D01*
X820642Y277583D01*
Y185946D01*
X821069Y183800D01*
X822285Y181980D01*
X827189Y177076D01*
X828015Y175082D01*
X829752Y173346D01*
X832022Y172405D01*
X834478D01*
X836748Y173346D01*
X838485Y175082D01*
X839425Y177352D01*
Y179809D01*
X838485Y182078D01*
X836748Y183815D01*
X836002Y184124D01*
X831858Y188269D01*
Y277583D01*
X832425Y278952D01*
Y281409D01*
X831485Y283678D01*
X829748Y285415D01*
X827478Y286355D01*
D02*
G37*
G36*
X1192491Y180800D02*
X1190029D01*
X1187651Y180163D01*
X1185519Y178932D01*
X1183778Y177191D01*
X1182547Y175059D01*
X1181910Y172681D01*
Y171004D01*
X1156902Y145996D01*
X1108017D01*
X1106831Y147182D01*
X1104699Y148413D01*
X1102321Y149050D01*
X1099859D01*
X1097481Y148413D01*
X1095349Y147182D01*
X1093608Y145441D01*
X1092377Y143309D01*
X1091740Y140931D01*
Y138469D01*
X1092377Y136091D01*
X1093608Y133959D01*
X1095349Y132218D01*
X1097481Y130987D01*
X1099859Y130350D01*
X1102321D01*
X1104699Y130987D01*
X1106831Y132218D01*
X1108017Y133404D01*
X1159510D01*
X1161919Y133883D01*
X1163962Y135248D01*
X1190814Y162100D01*
X1192491D01*
X1194869Y162737D01*
X1197001Y163968D01*
X1198742Y165709D01*
X1199973Y167841D01*
X1200610Y170219D01*
Y172681D01*
X1199973Y175059D01*
X1198742Y177191D01*
X1197001Y178932D01*
X1194869Y180163D01*
X1192491Y180800D01*
D02*
G37*
G36*
X1084082Y108000D02*
X1080659D01*
X1077353Y107114D01*
X1074389Y105403D01*
X1071968Y102982D01*
X1070257Y100018D01*
X1069371Y96712D01*
Y93288D01*
X1070257Y89982D01*
X1071968Y87018D01*
X1074389Y84597D01*
X1077353Y82886D01*
X1080659Y82000D01*
X1084082D01*
X1087389Y82886D01*
X1090353Y84597D01*
X1092774Y87018D01*
X1094485Y89982D01*
X1095371Y93288D01*
Y96712D01*
X1094485Y100018D01*
X1092774Y102982D01*
X1090353Y105403D01*
X1087389Y107114D01*
X1084082Y108000D01*
D02*
G37*
G36*
X1054082D02*
X1050659D01*
X1047353Y107114D01*
X1044389Y105403D01*
X1041968Y102982D01*
X1040257Y100018D01*
X1039371Y96712D01*
Y93288D01*
X1040257Y89982D01*
X1041968Y87018D01*
X1044389Y84597D01*
X1047353Y82886D01*
X1050659Y82000D01*
X1054082D01*
X1057389Y82886D01*
X1060353Y84597D01*
X1062774Y87018D01*
X1064485Y89982D01*
X1065371Y93288D01*
Y96712D01*
X1064485Y100018D01*
X1062774Y102982D01*
X1060353Y105403D01*
X1057389Y107114D01*
X1054082Y108000D01*
D02*
G37*
G36*
X1062644Y69800D02*
X1059098D01*
X1055621Y69108D01*
X1052345Y67751D01*
X1049397Y65781D01*
X1046889Y63274D01*
X1044920Y60326D01*
X1043563Y57050D01*
X1042871Y53573D01*
Y50027D01*
X1043563Y46550D01*
X1044920Y43274D01*
X1046889Y40326D01*
X1049397Y37819D01*
X1052345Y35849D01*
X1055621Y34492D01*
X1059098Y33800D01*
X1062644D01*
X1066121Y34492D01*
X1069397Y35849D01*
X1072345Y37819D01*
X1074853Y40326D01*
X1076822Y43274D01*
X1078179Y46550D01*
X1078871Y50027D01*
Y53573D01*
X1078179Y57050D01*
X1076822Y60326D01*
X1074853Y63274D01*
X1072345Y65781D01*
X1069397Y67751D01*
X1066121Y69108D01*
X1062644Y69800D01*
D02*
G37*
G36*
X1244765Y77270D02*
X1239098D01*
X1233501Y76384D01*
X1228112Y74633D01*
X1223063Y72060D01*
X1218479Y68729D01*
X1214472Y64722D01*
X1211142Y60138D01*
X1208569Y55089D01*
X1206818Y49700D01*
X1205931Y44103D01*
Y38437D01*
X1206818Y32840D01*
X1208569Y27451D01*
X1211142Y22402D01*
X1214472Y17817D01*
X1218479Y13811D01*
X1223063Y10480D01*
X1228112Y7908D01*
X1233501Y6156D01*
X1239098Y5270D01*
X1244765D01*
X1250361Y6156D01*
X1255751Y7908D01*
X1260799Y10480D01*
X1265384Y13811D01*
X1269391Y17817D01*
X1272721Y22402D01*
X1275294Y27451D01*
X1277045Y32840D01*
X1277931Y38437D01*
Y44103D01*
X1277045Y49700D01*
X1275294Y55089D01*
X1272721Y60138D01*
X1269391Y64722D01*
X1265384Y68729D01*
X1260799Y72060D01*
X1255751Y74633D01*
X1250361Y76384D01*
X1244765Y77270D01*
D02*
G37*
%LPD*%
G36*
X1045042Y440539D02*
X1044880Y440332D01*
X1044737Y440111D01*
X1044613Y439877D01*
X1044508Y439629D01*
X1044422Y439367D01*
X1044356Y439092D01*
X1044308Y438803D01*
X1044279Y438501D01*
X1044270Y438185D01*
X1041730D01*
X1041721Y438501D01*
X1041692Y438803D01*
X1041644Y439092D01*
X1041578Y439367D01*
X1041492Y439629D01*
X1041387Y439877D01*
X1041263Y440111D01*
X1041120Y440332D01*
X1040958Y440539D01*
X1040778Y440733D01*
X1045222D01*
X1045042Y440539D01*
D02*
G37*
G36*
X1066733Y403778D02*
X1066539Y403959D01*
X1066332Y404120D01*
X1066111Y404263D01*
X1065877Y404387D01*
X1065629Y404492D01*
X1065367Y404578D01*
X1065092Y404644D01*
X1064803Y404692D01*
X1064501Y404720D01*
X1064185Y404730D01*
Y407270D01*
X1064501Y407280D01*
X1064803Y407308D01*
X1065092Y407356D01*
X1065367Y407422D01*
X1065629Y407508D01*
X1065877Y407613D01*
X1066111Y407737D01*
X1066332Y407880D01*
X1066539Y408041D01*
X1066733Y408223D01*
Y403778D01*
D02*
G37*
G36*
X908520Y248915D02*
X908466Y248806D01*
X908419Y248666D01*
X908377Y248495D01*
X908342Y248293D01*
X908292Y247795D01*
X908266Y247173D01*
X908263Y246815D01*
X904453D01*
X904450Y247173D01*
X904374Y248293D01*
X904339Y248495D01*
X904297Y248666D01*
X904250Y248806D01*
X904196Y248915D01*
X904136Y248993D01*
X908580D01*
X908520Y248915D01*
D02*
G37*
G36*
X908266Y230347D02*
X908342Y229227D01*
X908377Y229025D01*
X908419Y228854D01*
X908466Y228714D01*
X908520Y228605D01*
X908580Y228527D01*
X904136D01*
X904196Y228605D01*
X904250Y228714D01*
X904297Y228854D01*
X904339Y229025D01*
X904374Y229227D01*
X904424Y229725D01*
X904450Y230347D01*
X904453Y230705D01*
X908263D01*
X908266Y230347D01*
D02*
G37*
G36*
X1191197Y165100D02*
X1190834Y165079D01*
X1190456Y165007D01*
X1190065Y164885D01*
X1189659Y164712D01*
X1189239Y164490D01*
X1188804Y164217D01*
X1188355Y163894D01*
X1187892Y163520D01*
X1186922Y162622D01*
X1182432Y167112D01*
X1182906Y167604D01*
X1183704Y168545D01*
X1184027Y168994D01*
X1184300Y169429D01*
X1184522Y169849D01*
X1184695Y170255D01*
X1184817Y170646D01*
X1184889Y171024D01*
X1184910Y171387D01*
X1191197Y165100D01*
D02*
G37*
G36*
X1105897Y143904D02*
X1106214Y143688D01*
X1106577Y143497D01*
X1106986Y143332D01*
X1107441Y143193D01*
X1107941Y143078D01*
X1108487Y142989D01*
X1109079Y142926D01*
X1110399Y142875D01*
Y136525D01*
X1109716Y136512D01*
X1108487Y136411D01*
X1107941Y136322D01*
X1107441Y136208D01*
X1106986Y136068D01*
X1106577Y135903D01*
X1106214Y135712D01*
X1105897Y135496D01*
X1105625Y135255D01*
Y144145D01*
X1105897Y143904D01*
D02*
G37*
%LPC*%
G36*
X872721Y556510D02*
X870125Y555814D01*
X866818Y553905D01*
X864118Y551205D01*
X862210Y547899D01*
X862091Y547456D01*
X860728Y547277D01*
X859524Y549363D01*
X857383Y551504D01*
X854760Y553018D01*
X851835Y553802D01*
X848807D01*
X845883Y553018D01*
X843260Y551504D01*
X841119Y549363D01*
X839605Y546741D01*
X838821Y543816D01*
Y540788D01*
X839605Y537863D01*
X841119Y535241D01*
X843260Y533100D01*
X845883Y531586D01*
X848807Y530802D01*
X851835D01*
X854760Y531586D01*
X857383Y533100D01*
X859524Y535241D01*
X860728Y537327D01*
X862091Y537148D01*
X862210Y536705D01*
X864118Y533399D01*
X866818Y530699D01*
X870125Y528790D01*
X872721Y528094D01*
Y542302D01*
Y556510D01*
D02*
G37*
G36*
X953435Y553802D02*
X950407D01*
X947483Y553018D01*
X944860Y551504D01*
X942719Y549363D01*
X941205Y546741D01*
X940421Y543816D01*
Y540788D01*
X941205Y537863D01*
X942719Y535241D01*
X944860Y533100D01*
X947483Y531586D01*
X950407Y530802D01*
X953435D01*
X956360Y531586D01*
X958983Y533100D01*
X961124Y535241D01*
X962638Y537863D01*
X963421Y540788D01*
Y543816D01*
X962638Y546741D01*
X961124Y549363D01*
X958983Y551504D01*
X956360Y553018D01*
X953435Y553802D01*
D02*
G37*
G36*
X928035D02*
X925007D01*
X922083Y553018D01*
X919460Y551504D01*
X917319Y549363D01*
X915805Y546741D01*
X915021Y543816D01*
Y540788D01*
X915805Y537863D01*
X917319Y535241D01*
X919460Y533100D01*
X922083Y531586D01*
X925007Y530802D01*
X928035D01*
X930960Y531586D01*
X933583Y533100D01*
X935724Y535241D01*
X937238Y537863D01*
X938021Y540788D01*
Y543816D01*
X937238Y546741D01*
X935724Y549363D01*
X933583Y551504D01*
X930960Y553018D01*
X928035Y553802D01*
D02*
G37*
G36*
X878721Y556510D02*
Y542302D01*
Y528094D01*
X881318Y528790D01*
X884625Y530699D01*
X887324Y533399D01*
X889233Y536705D01*
X889352Y537148D01*
X890715Y537327D01*
X891919Y535241D01*
X894060Y533100D01*
X896683Y531586D01*
X899607Y530802D01*
X902635D01*
X905560Y531586D01*
X908183Y533100D01*
X910324Y535241D01*
X911838Y537863D01*
X912621Y540788D01*
Y543816D01*
X911838Y546741D01*
X910324Y549363D01*
X908183Y551504D01*
X905560Y553018D01*
X902635Y553802D01*
X899607D01*
X896683Y553018D01*
X894060Y551504D01*
X891919Y549363D01*
X890715Y547277D01*
X889352Y547456D01*
X889233Y547899D01*
X887324Y551205D01*
X884625Y553905D01*
X881318Y555814D01*
X878721Y556510D01*
D02*
G37*
G36*
X826435Y553802D02*
X823407D01*
X820483Y553018D01*
X817860Y551504D01*
X815719Y549363D01*
X814205Y546741D01*
X813421Y543816D01*
Y540788D01*
X814205Y537863D01*
X815719Y535241D01*
X817860Y533100D01*
X820483Y531586D01*
X823407Y530802D01*
X826435D01*
X829360Y531586D01*
X831983Y533100D01*
X834124Y535241D01*
X835638Y537863D01*
X836421Y540788D01*
Y543816D01*
X835638Y546741D01*
X834124Y549363D01*
X831983Y551504D01*
X829360Y553018D01*
X826435Y553802D01*
D02*
G37*
G36*
X801035D02*
X798007D01*
X795083Y553018D01*
X792460Y551504D01*
X790319Y549363D01*
X788805Y546741D01*
X788021Y543816D01*
Y540788D01*
X788805Y537863D01*
X790319Y535241D01*
X792460Y533100D01*
X795083Y531586D01*
X798007Y530802D01*
X801035D01*
X803960Y531586D01*
X806583Y533100D01*
X808724Y535241D01*
X810238Y537863D01*
X811021Y540788D01*
Y543816D01*
X810238Y546741D01*
X808724Y549363D01*
X806583Y551504D01*
X803960Y553018D01*
X801035Y553802D01*
D02*
G37*
G36*
X775635D02*
X772607D01*
X769683Y553018D01*
X767060Y551504D01*
X764919Y549363D01*
X763405Y546741D01*
X762621Y543816D01*
Y540788D01*
X763405Y537863D01*
X764919Y535241D01*
X767060Y533100D01*
X769683Y531586D01*
X772607Y530802D01*
X775635D01*
X778560Y531586D01*
X781183Y533100D01*
X783324Y535241D01*
X784838Y537863D01*
X785621Y540788D01*
Y543816D01*
X784838Y546741D01*
X783324Y549363D01*
X781183Y551504D01*
X778560Y553018D01*
X775635Y553802D01*
D02*
G37*
G36*
X750235D02*
X747207D01*
X744283Y553018D01*
X741660Y551504D01*
X739519Y549363D01*
X738005Y546741D01*
X737221Y543816D01*
Y540788D01*
X738005Y537863D01*
X739519Y535241D01*
X741660Y533100D01*
X744283Y531586D01*
X747207Y530802D01*
X750235D01*
X753160Y531586D01*
X755783Y533100D01*
X757924Y535241D01*
X759438Y537863D01*
X760221Y540788D01*
Y543816D01*
X759438Y546741D01*
X757924Y549363D01*
X755783Y551504D01*
X753160Y553018D01*
X750235Y553802D01*
D02*
G37*
G36*
X724835D02*
X721807D01*
X718883Y553018D01*
X716260Y551504D01*
X714119Y549363D01*
X712605Y546741D01*
X711821Y543816D01*
Y540788D01*
X712605Y537863D01*
X714119Y535241D01*
X716260Y533100D01*
X718883Y531586D01*
X721807Y530802D01*
X724835D01*
X727760Y531586D01*
X730383Y533100D01*
X732524Y535241D01*
X734038Y537863D01*
X734821Y540788D01*
Y543816D01*
X734038Y546741D01*
X732524Y549363D01*
X730383Y551504D01*
X727760Y553018D01*
X724835Y553802D01*
D02*
G37*
G36*
X684551D02*
X681523D01*
X678599Y553018D01*
X675976Y551504D01*
X673835Y549363D01*
X672321Y546741D01*
X671537Y543816D01*
Y540788D01*
X672321Y537863D01*
X673835Y535241D01*
X675976Y533100D01*
X678599Y531586D01*
X681523Y530802D01*
X684551D01*
X687476Y531586D01*
X690099Y533100D01*
X692240Y535241D01*
X693754Y537863D01*
X694537Y540788D01*
Y543816D01*
X693754Y546741D01*
X692240Y549363D01*
X690099Y551504D01*
X687476Y553018D01*
X684551Y553802D01*
D02*
G37*
G36*
X532151D02*
X529123D01*
X526199Y553018D01*
X523576Y551504D01*
X521435Y549363D01*
X519921Y546741D01*
X519137Y543816D01*
Y540788D01*
X519921Y537863D01*
X521435Y535241D01*
X523576Y533100D01*
X526199Y531586D01*
X529123Y530802D01*
X532151D01*
X535076Y531586D01*
X537699Y533100D01*
X539840Y535241D01*
X541354Y537863D01*
X542137Y540788D01*
Y543816D01*
X541354Y546741D01*
X539840Y549363D01*
X537699Y551504D01*
X535076Y553018D01*
X532151Y553802D01*
D02*
G37*
G36*
X506751D02*
X503723D01*
X500799Y553018D01*
X498176Y551504D01*
X496035Y549363D01*
X494521Y546741D01*
X493737Y543816D01*
Y540788D01*
X494521Y537863D01*
X496035Y535241D01*
X498176Y533100D01*
X500799Y531586D01*
X503723Y530802D01*
X506751D01*
X509676Y531586D01*
X512299Y533100D01*
X514440Y535241D01*
X515954Y537863D01*
X516737Y540788D01*
Y543816D01*
X515954Y546741D01*
X514440Y549363D01*
X512299Y551504D01*
X509676Y553018D01*
X506751Y553802D01*
D02*
G37*
G36*
X54765Y597270D02*
X49098D01*
X43501Y596384D01*
X38112Y594632D01*
X33063Y592060D01*
X28479Y588729D01*
X24472Y584722D01*
X21142Y580138D01*
X18569Y575089D01*
X16818Y569700D01*
X15931Y564103D01*
Y558437D01*
X16818Y552840D01*
X18569Y547451D01*
X21142Y542402D01*
X24472Y537817D01*
X28479Y533811D01*
X33063Y530480D01*
X38112Y527907D01*
X43501Y526156D01*
X49098Y525270D01*
X54765D01*
X60361Y526156D01*
X65751Y527907D01*
X70799Y530480D01*
X75384Y533811D01*
X79391Y537817D01*
X82721Y542402D01*
X85294Y547451D01*
X87045Y552840D01*
X87931Y558437D01*
Y564103D01*
X87045Y569700D01*
X85294Y575089D01*
X82721Y580138D01*
X79391Y584722D01*
X75384Y588729D01*
X70799Y592060D01*
X65751Y594632D01*
X60361Y596384D01*
X54765Y597270D01*
D02*
G37*
G36*
X659151Y553802D02*
X656123D01*
X653199Y553018D01*
X650576Y551504D01*
X648435Y549363D01*
X646921Y546741D01*
X646137Y543816D01*
Y540788D01*
X646921Y537863D01*
X648435Y535241D01*
X650576Y533100D01*
X652030Y532261D01*
Y474710D01*
X635549Y458230D01*
X619070D01*
X618584Y459403D01*
X636203Y477022D01*
X637418Y478841D01*
X637845Y480987D01*
Y532261D01*
X639299Y533100D01*
X641440Y535241D01*
X642954Y537863D01*
X643737Y540788D01*
Y543816D01*
X642954Y546741D01*
X641440Y549363D01*
X639299Y551504D01*
X636676Y553018D01*
X633751Y553802D01*
X630723D01*
X627799Y553018D01*
X625176Y551504D01*
X623035Y549363D01*
X621521Y546741D01*
X620737Y543816D01*
Y540788D01*
X621521Y537863D01*
X623035Y535241D01*
X625176Y533100D01*
X626630Y532261D01*
Y483310D01*
X608581Y465262D01*
X592852D01*
X592366Y466435D01*
X610715Y484785D01*
X611931Y486604D01*
X612358Y488750D01*
Y532210D01*
X613899Y533100D01*
X616040Y535241D01*
X617554Y537863D01*
X618337Y540788D01*
Y543816D01*
X617554Y546741D01*
X616040Y549363D01*
X613899Y551504D01*
X611276Y553018D01*
X608351Y553802D01*
X605323D01*
X602399Y553018D01*
X599776Y551504D01*
X597635Y549363D01*
X596121Y546741D01*
X595337Y543816D01*
Y540788D01*
X596121Y537863D01*
X597635Y535241D01*
X599776Y533100D01*
X601142Y532311D01*
Y491073D01*
X582363Y472294D01*
X568884D01*
X568398Y473467D01*
X585403Y490472D01*
X586618Y492291D01*
X587045Y494437D01*
Y532261D01*
X588499Y533100D01*
X590640Y535241D01*
X592154Y537863D01*
X592937Y540788D01*
Y543816D01*
X592154Y546741D01*
X590640Y549363D01*
X588499Y551504D01*
X585876Y553018D01*
X582951Y553802D01*
X579923D01*
X576999Y553018D01*
X574376Y551504D01*
X572235Y549363D01*
X570721Y546741D01*
X569937Y543816D01*
Y540788D01*
X570721Y537863D01*
X572235Y535241D01*
X574376Y533100D01*
X575830Y532261D01*
Y496760D01*
X558395Y479326D01*
X543416D01*
X542930Y480499D01*
X560003Y497572D01*
X561218Y499391D01*
X561645Y501537D01*
Y532261D01*
X563099Y533100D01*
X565240Y535241D01*
X566754Y537863D01*
X567537Y540788D01*
Y543816D01*
X566754Y546741D01*
X565240Y549363D01*
X563099Y551504D01*
X560476Y553018D01*
X557551Y553802D01*
X554523D01*
X551599Y553018D01*
X548976Y551504D01*
X546835Y549363D01*
X545321Y546741D01*
X544537Y543816D01*
Y540788D01*
X545321Y537863D01*
X546835Y535241D01*
X548976Y533100D01*
X550430Y532261D01*
Y503860D01*
X532927Y486358D01*
X327611D01*
X325465Y485931D01*
X323645Y484715D01*
X251971Y413041D01*
X250755Y411222D01*
X250328Y409076D01*
Y228259D01*
X206035Y183965D01*
X204819Y182146D01*
X204392Y180000D01*
Y107191D01*
X204123Y106726D01*
X204003Y106549D01*
X202018Y105402D01*
X199597Y102982D01*
X197886Y100018D01*
X197000Y96711D01*
Y93288D01*
X197886Y89982D01*
X199597Y87018D01*
X202018Y84597D01*
X204982Y82886D01*
X208288Y82000D01*
X211712D01*
X215018Y82886D01*
X217982Y84597D01*
X220403Y87018D01*
X222114Y89982D01*
X223000Y93288D01*
Y96711D01*
X222114Y100018D01*
X220403Y102982D01*
X217982Y105402D01*
X215997Y106549D01*
X215876Y106726D01*
X215608Y107191D01*
Y177677D01*
X256187Y218256D01*
X257360Y217770D01*
Y205291D01*
X236035Y183965D01*
X234819Y182146D01*
X234392Y180000D01*
Y107191D01*
X234123Y106726D01*
X234003Y106549D01*
X232018Y105402D01*
X229597Y102982D01*
X227886Y100018D01*
X227000Y96711D01*
Y93288D01*
X227886Y89982D01*
X229597Y87018D01*
X232018Y84597D01*
X234982Y82886D01*
X238288Y82000D01*
X241712D01*
X245018Y82886D01*
X247982Y84597D01*
X250403Y87018D01*
X252114Y89982D01*
X253000Y93288D01*
Y96711D01*
X252114Y100018D01*
X250403Y102982D01*
X247982Y105402D01*
X245997Y106549D01*
X245876Y106726D01*
X245608Y107191D01*
Y177677D01*
X263219Y195288D01*
X264392Y194802D01*
Y107191D01*
X264123Y106726D01*
X264003Y106549D01*
X262018Y105402D01*
X259597Y102982D01*
X257886Y100018D01*
X257000Y96711D01*
Y93288D01*
X257886Y89982D01*
X259597Y87018D01*
X262018Y84597D01*
X264982Y82886D01*
X268288Y82000D01*
X271711D01*
X275018Y82886D01*
X277982Y84597D01*
X280403Y87018D01*
X282114Y89982D01*
X283000Y93288D01*
Y96711D01*
X282114Y100018D01*
X280403Y102982D01*
X277982Y105402D01*
X275997Y106549D01*
X275876Y106726D01*
X275608Y107191D01*
Y194802D01*
X276781Y195288D01*
X294392Y177677D01*
Y107191D01*
X294123Y106726D01*
X294003Y106549D01*
X292018Y105402D01*
X289597Y102982D01*
X287886Y100018D01*
X287000Y96711D01*
Y93288D01*
X287886Y89982D01*
X289597Y87018D01*
X292018Y84597D01*
X294982Y82886D01*
X298288Y82000D01*
X301711D01*
X305018Y82886D01*
X307982Y84597D01*
X310403Y87018D01*
X312114Y89982D01*
X313000Y93288D01*
Y96711D01*
X312114Y100018D01*
X310403Y102982D01*
X307982Y105402D01*
X305997Y106549D01*
X305876Y106726D01*
X305608Y107191D01*
Y180000D01*
X305181Y182146D01*
X303965Y183965D01*
X282640Y205291D01*
Y217770D01*
X283813Y218256D01*
X324392Y177677D01*
Y107191D01*
X324123Y106726D01*
X324003Y106549D01*
X322018Y105402D01*
X319597Y102982D01*
X317886Y100018D01*
X317000Y96711D01*
Y93288D01*
X317886Y89982D01*
X319597Y87018D01*
X322018Y84597D01*
X324982Y82886D01*
X328288Y82000D01*
X331711D01*
X335018Y82886D01*
X337982Y84597D01*
X340402Y87018D01*
X342114Y89982D01*
X342846Y92714D01*
X344150Y92672D01*
X344615Y90333D01*
X345821Y87421D01*
X347572Y84800D01*
X349800Y82572D01*
X352421Y80821D01*
X355333Y79615D01*
X357000Y79283D01*
Y95000D01*
Y110716D01*
X355333Y110385D01*
X352421Y109179D01*
X349800Y107428D01*
X347572Y105199D01*
X345821Y102579D01*
X344615Y99667D01*
X344150Y97328D01*
X342846Y97285D01*
X342114Y100018D01*
X340402Y102982D01*
X337982Y105402D01*
X335997Y106549D01*
X335876Y106726D01*
X335608Y107191D01*
Y180000D01*
X335181Y182146D01*
X333965Y183965D01*
X289672Y228259D01*
Y395102D01*
X341584Y447014D01*
X637872D01*
X640018Y447441D01*
X641837Y448657D01*
X661603Y468422D01*
X662818Y470241D01*
X663245Y472387D01*
Y532261D01*
X664699Y533100D01*
X666840Y535241D01*
X668354Y537863D01*
X669137Y540788D01*
Y543816D01*
X668354Y546741D01*
X666840Y549363D01*
X664699Y551504D01*
X662076Y553018D01*
X659151Y553802D01*
D02*
G37*
G36*
X655919Y426950D02*
X652180D01*
X648569Y425982D01*
X645331Y424113D01*
X642687Y421469D01*
X640818Y418231D01*
X639850Y414619D01*
Y410881D01*
X640818Y407269D01*
X642687Y404031D01*
X645331Y401387D01*
X648569Y399518D01*
X652180Y398550D01*
X655919D01*
X659531Y399518D01*
X662769Y401387D01*
X665413Y404031D01*
X667282Y407269D01*
X668250Y410881D01*
Y414619D01*
X667282Y418231D01*
X665413Y421469D01*
X662769Y424113D01*
X659531Y425982D01*
X655919Y426950D01*
D02*
G37*
G36*
X657050Y378890D02*
Y364950D01*
X670990D01*
X670589Y366967D01*
X669292Y370097D01*
X667410Y372914D01*
X665014Y375310D01*
X662197Y377192D01*
X659067Y378489D01*
X657050Y378890D01*
D02*
G37*
G36*
X651050D02*
X649033Y378489D01*
X645903Y377192D01*
X643086Y375310D01*
X640690Y372914D01*
X638808Y370097D01*
X637511Y366967D01*
X637110Y364950D01*
X651050D01*
Y378890D01*
D02*
G37*
G36*
X670990Y358950D02*
X657050D01*
Y345010D01*
X659067Y345411D01*
X662197Y346708D01*
X665014Y348590D01*
X667410Y350986D01*
X669292Y353803D01*
X670589Y356933D01*
X670990Y358950D01*
D02*
G37*
G36*
X651050D02*
X637110D01*
X637511Y356933D01*
X638808Y353803D01*
X640690Y350986D01*
X643086Y348590D01*
X645903Y346708D01*
X649033Y345411D01*
X651050Y345010D01*
Y358950D01*
D02*
G37*
G36*
X46403Y318208D02*
X43807Y317512D01*
X40500Y315603D01*
X37801Y312903D01*
X35892Y309597D01*
X35196Y307000D01*
X46403D01*
Y318208D01*
D02*
G37*
G36*
X52403D02*
Y304000D01*
X49403D01*
Y301000D01*
X35196D01*
X35892Y298403D01*
X37801Y295097D01*
X40500Y292397D01*
X43807Y290488D01*
X44249Y290370D01*
X44429Y289007D01*
X42342Y287802D01*
X40201Y285661D01*
X38687Y283039D01*
X37903Y280114D01*
Y277086D01*
X38687Y274161D01*
X40201Y271539D01*
X42342Y269398D01*
X44965Y267884D01*
X47889Y267100D01*
X50917D01*
X53842Y267884D01*
X56465Y269398D01*
X58606Y271539D01*
X60120Y274161D01*
X60903Y277086D01*
Y280114D01*
X60120Y283039D01*
X58606Y285661D01*
X56465Y287802D01*
X54378Y289007D01*
X54558Y290370D01*
X55000Y290488D01*
X58307Y292397D01*
X61006Y295097D01*
X62915Y298403D01*
X63034Y298846D01*
X64397Y299025D01*
X65601Y296939D01*
X67742Y294798D01*
X70365Y293284D01*
X73289Y292500D01*
X76317D01*
X79242Y293284D01*
X81865Y294798D01*
X84006Y296939D01*
X85520Y299561D01*
X86303Y302486D01*
Y305514D01*
X85520Y308439D01*
X84006Y311061D01*
X81865Y313202D01*
X79242Y314716D01*
X76317Y315500D01*
X73289D01*
X70365Y314716D01*
X67742Y313202D01*
X65601Y311061D01*
X64397Y308975D01*
X63034Y309154D01*
X62915Y309597D01*
X61006Y312903D01*
X58307Y315603D01*
X55000Y317512D01*
X52403Y318208D01*
D02*
G37*
G36*
X76317Y290100D02*
X73289D01*
X70365Y289316D01*
X67742Y287802D01*
X65601Y285661D01*
X64087Y283039D01*
X63303Y280114D01*
Y277086D01*
X64087Y274161D01*
X65601Y271539D01*
X67742Y269398D01*
X70365Y267884D01*
X73289Y267100D01*
X76317D01*
X79242Y267884D01*
X81865Y269398D01*
X84006Y271539D01*
X85520Y274161D01*
X86303Y277086D01*
Y280114D01*
X85520Y283039D01*
X84006Y285661D01*
X81865Y287802D01*
X79242Y289316D01*
X76317Y290100D01*
D02*
G37*
G36*
X594161Y267795D02*
X591705D01*
X589435Y266855D01*
X587698Y265118D01*
X586758Y262848D01*
Y260392D01*
X587698Y258122D01*
X589202Y256618D01*
X587698Y255115D01*
X586758Y252845D01*
Y250389D01*
X587698Y248119D01*
X589435Y246382D01*
X591705Y245442D01*
X594161D01*
X596431Y246382D01*
X598168Y248119D01*
X599108Y250389D01*
Y252845D01*
X598168Y255115D01*
X596664Y256618D01*
X598168Y258122D01*
X599108Y260392D01*
Y262848D01*
X598168Y265118D01*
X596431Y266855D01*
X594161Y267795D01*
D02*
G37*
G36*
X76317Y264700D02*
X73289D01*
X70365Y263916D01*
X67742Y262402D01*
X65601Y260261D01*
X64087Y257639D01*
X63303Y254714D01*
Y251686D01*
X64087Y248761D01*
X65601Y246139D01*
X67742Y243998D01*
X70365Y242484D01*
X73289Y241700D01*
X76317D01*
X79242Y242484D01*
X81865Y243998D01*
X84006Y246139D01*
X85520Y248761D01*
X86303Y251686D01*
Y254714D01*
X85520Y257639D01*
X84006Y260261D01*
X81865Y262402D01*
X79242Y263916D01*
X76317Y264700D01*
D02*
G37*
G36*
X50917D02*
X47889D01*
X44965Y263916D01*
X42342Y262402D01*
X40201Y260261D01*
X38687Y257639D01*
X37903Y254714D01*
Y251686D01*
X38687Y248761D01*
X40201Y246139D01*
X42342Y243998D01*
X44965Y242484D01*
X47889Y241700D01*
X50917D01*
X53842Y242484D01*
X56465Y243998D01*
X58606Y246139D01*
X60120Y248761D01*
X60903Y251686D01*
Y254714D01*
X60120Y257639D01*
X58606Y260261D01*
X56465Y262402D01*
X53842Y263916D01*
X50917Y264700D01*
D02*
G37*
G36*
X76317Y239300D02*
X73289D01*
X70365Y238516D01*
X67742Y237002D01*
X65601Y234861D01*
X64087Y232239D01*
X63303Y229314D01*
Y226286D01*
X64087Y223361D01*
X65601Y220739D01*
X67742Y218598D01*
X70365Y217084D01*
X73289Y216300D01*
X76317D01*
X79242Y217084D01*
X81865Y218598D01*
X84006Y220739D01*
X85520Y223361D01*
X86303Y226286D01*
Y229314D01*
X85520Y232239D01*
X84006Y234861D01*
X81865Y237002D01*
X79242Y238516D01*
X76317Y239300D01*
D02*
G37*
G36*
X50917D02*
X47889D01*
X44965Y238516D01*
X42342Y237002D01*
X40201Y234861D01*
X38687Y232239D01*
X37903Y229314D01*
Y226286D01*
X38687Y223361D01*
X40201Y220739D01*
X42342Y218598D01*
X44965Y217084D01*
X47889Y216300D01*
X50917D01*
X53842Y217084D01*
X56465Y218598D01*
X58606Y220739D01*
X60120Y223361D01*
X60903Y226286D01*
Y229314D01*
X60120Y232239D01*
X58606Y234861D01*
X56465Y237002D01*
X53842Y238516D01*
X50917Y239300D01*
D02*
G37*
G36*
X76317Y213900D02*
X73289D01*
X70365Y213116D01*
X67742Y211602D01*
X65601Y209461D01*
X64087Y206839D01*
X63303Y203914D01*
Y200886D01*
X64087Y197961D01*
X65601Y195339D01*
X67742Y193198D01*
X70365Y191684D01*
X73289Y190900D01*
X76317D01*
X79242Y191684D01*
X81865Y193198D01*
X84006Y195339D01*
X85520Y197961D01*
X86303Y200886D01*
Y203914D01*
X85520Y206839D01*
X84006Y209461D01*
X81865Y211602D01*
X79242Y213116D01*
X76317Y213900D01*
D02*
G37*
G36*
X50917D02*
X47889D01*
X44965Y213116D01*
X42342Y211602D01*
X40201Y209461D01*
X38687Y206839D01*
X37903Y203914D01*
Y200886D01*
X38687Y197961D01*
X40201Y195339D01*
X42342Y193198D01*
X44965Y191684D01*
X47889Y190900D01*
X50917D01*
X53842Y191684D01*
X56465Y193198D01*
X58606Y195339D01*
X60120Y197961D01*
X60903Y200886D01*
Y203914D01*
X60120Y206839D01*
X58606Y209461D01*
X56465Y211602D01*
X53842Y213116D01*
X50917Y213900D01*
D02*
G37*
G36*
X516981Y365540D02*
X514519D01*
X512141Y364903D01*
X510009Y363672D01*
X508268Y361931D01*
X507037Y359799D01*
X506400Y357421D01*
Y354959D01*
X507037Y352581D01*
X508268Y350449D01*
X510009Y348708D01*
X510142Y348631D01*
Y195915D01*
X510009Y195838D01*
X508268Y194097D01*
X507037Y191965D01*
X506400Y189587D01*
Y187125D01*
X507037Y184747D01*
X508268Y182615D01*
X510009Y180875D01*
X512141Y179643D01*
X514519Y179006D01*
X516981D01*
X519359Y179643D01*
X521491Y180875D01*
X523232Y182615D01*
X524463Y184747D01*
X525100Y187125D01*
Y189587D01*
X524463Y191965D01*
X523232Y194097D01*
X521491Y195838D01*
X521358Y195915D01*
Y348631D01*
X521491Y348708D01*
X523232Y350449D01*
X524463Y352581D01*
X525100Y354959D01*
Y357421D01*
X524463Y359799D01*
X523232Y361931D01*
X521491Y363672D01*
X519359Y364903D01*
X516981Y365540D01*
D02*
G37*
G36*
X76317Y188500D02*
X73289D01*
X70365Y187716D01*
X67742Y186202D01*
X65601Y184061D01*
X64087Y181439D01*
X63303Y178514D01*
Y175486D01*
X64087Y172561D01*
X65601Y169939D01*
X67742Y167798D01*
X70365Y166284D01*
X73289Y165500D01*
X76317D01*
X79242Y166284D01*
X81865Y167798D01*
X84006Y169939D01*
X85520Y172561D01*
X86303Y175486D01*
Y178514D01*
X85520Y181439D01*
X84006Y184061D01*
X81865Y186202D01*
X79242Y187716D01*
X76317Y188500D01*
D02*
G37*
G36*
X50917D02*
X47889D01*
X44965Y187716D01*
X42342Y186202D01*
X40201Y184061D01*
X38687Y181439D01*
X37903Y178514D01*
Y175486D01*
X38687Y172561D01*
X40201Y169939D01*
X42342Y167798D01*
X44965Y166284D01*
X47889Y165500D01*
X50917D01*
X53842Y166284D01*
X56465Y167798D01*
X58606Y169939D01*
X60120Y172561D01*
X60903Y175486D01*
Y178514D01*
X60120Y181439D01*
X58606Y184061D01*
X56465Y186202D01*
X53842Y187716D01*
X50917Y188500D01*
D02*
G37*
G36*
X76317Y163100D02*
X73289D01*
X70365Y162316D01*
X67742Y160802D01*
X65601Y158661D01*
X64087Y156039D01*
X63303Y153114D01*
Y150086D01*
X64087Y147161D01*
X65601Y144539D01*
X67742Y142398D01*
X70365Y140884D01*
X73289Y140100D01*
X76317D01*
X79242Y140884D01*
X81865Y142398D01*
X84006Y144539D01*
X85520Y147161D01*
X86303Y150086D01*
Y153114D01*
X85520Y156039D01*
X84006Y158661D01*
X81865Y160802D01*
X79242Y162316D01*
X76317Y163100D01*
D02*
G37*
G36*
X50917D02*
X47889D01*
X44965Y162316D01*
X42342Y160802D01*
X40201Y158661D01*
X38687Y156039D01*
X37903Y153114D01*
Y150086D01*
X38687Y147161D01*
X40201Y144539D01*
X42342Y142398D01*
X44965Y140884D01*
X47889Y140100D01*
X50917D01*
X53842Y140884D01*
X56465Y142398D01*
X58606Y144539D01*
X60120Y147161D01*
X60903Y150086D01*
Y153114D01*
X60120Y156039D01*
X58606Y158661D01*
X56465Y160802D01*
X53842Y162316D01*
X50917Y163100D01*
D02*
G37*
G36*
Y137700D02*
X47889D01*
X44965Y136916D01*
X42342Y135402D01*
X40201Y133261D01*
X38687Y130639D01*
X37903Y127714D01*
Y124686D01*
X38687Y121761D01*
X40201Y119139D01*
X42342Y116998D01*
X44965Y115484D01*
X47889Y114700D01*
X50917D01*
X53842Y115484D01*
X56465Y116998D01*
X58606Y119139D01*
X60120Y121761D01*
X60903Y124686D01*
Y127714D01*
X60120Y130639D01*
X58606Y133261D01*
X56465Y135402D01*
X53842Y136916D01*
X50917Y137700D01*
D02*
G37*
G36*
X76317Y137192D02*
X73289D01*
X70365Y136408D01*
X67742Y134894D01*
X65601Y132753D01*
X64087Y130131D01*
X63303Y127206D01*
Y124178D01*
X64087Y121253D01*
X65601Y118631D01*
X67742Y116490D01*
X70365Y114976D01*
X73289Y114192D01*
X76317D01*
X79242Y114976D01*
X81865Y116490D01*
X84006Y118631D01*
X85520Y121253D01*
X86303Y124178D01*
Y127206D01*
X85520Y130131D01*
X84006Y132753D01*
X81865Y134894D01*
X79242Y136408D01*
X76317Y137192D01*
D02*
G37*
G36*
X363000Y110716D02*
Y98000D01*
X375717D01*
X375385Y99667D01*
X374179Y102579D01*
X372428Y105199D01*
X370199Y107428D01*
X367579Y109179D01*
X364667Y110385D01*
X363000Y110716D01*
D02*
G37*
G36*
X185000Y108069D02*
X175000D01*
X172912Y107794D01*
X170965Y106988D01*
X169294Y105705D01*
X168012Y104034D01*
X167206Y102088D01*
X166931Y100000D01*
Y90000D01*
X167206Y87911D01*
X168012Y85965D01*
X169294Y84294D01*
X170965Y83012D01*
X172912Y82206D01*
X175000Y81931D01*
X185000D01*
X187088Y82206D01*
X189035Y83012D01*
X190706Y84294D01*
X191988Y85965D01*
X192794Y87911D01*
X193069Y90000D01*
Y100000D01*
X192794Y102088D01*
X191988Y104034D01*
X190706Y105705D01*
X189035Y106988D01*
X187088Y107794D01*
X185000Y108069D01*
D02*
G37*
G36*
X375717Y92000D02*
X363000D01*
Y79283D01*
X364667Y79615D01*
X367579Y80821D01*
X370199Y82572D01*
X372428Y84800D01*
X374179Y87421D01*
X375385Y90333D01*
X375717Y92000D01*
D02*
G37*
G36*
X705437Y75478D02*
X702841Y74782D01*
X699534Y72873D01*
X696834Y70173D01*
X694926Y66867D01*
X694807Y66424D01*
X693444Y66245D01*
X692240Y68331D01*
X690099Y70472D01*
X687476Y71986D01*
X684551Y72770D01*
X681523D01*
X678599Y71986D01*
X675976Y70472D01*
X673835Y68331D01*
X672321Y65709D01*
X671537Y62784D01*
Y59756D01*
X672321Y56831D01*
X673835Y54209D01*
X675976Y52068D01*
X678599Y50554D01*
X681523Y49770D01*
X684551D01*
X687476Y50554D01*
X690099Y52068D01*
X692240Y54209D01*
X693444Y56295D01*
X694807Y56116D01*
X694926Y55673D01*
X696834Y52367D01*
X699534Y49667D01*
X702841Y47758D01*
X705437Y47062D01*
Y61270D01*
Y75478D01*
D02*
G37*
G36*
X872337Y72770D02*
X849337D01*
Y49770D01*
X872337D01*
Y72770D01*
D02*
G37*
G36*
X836951D02*
X833923D01*
X830999Y71986D01*
X828376Y70472D01*
X826235Y68331D01*
X824721Y65709D01*
X823937Y62784D01*
Y59756D01*
X824721Y56831D01*
X826235Y54209D01*
X828376Y52068D01*
X830999Y50554D01*
X833923Y49770D01*
X836951D01*
X839876Y50554D01*
X842499Y52068D01*
X844640Y54209D01*
X846154Y56831D01*
X846937Y59756D01*
Y62784D01*
X846154Y65709D01*
X844640Y68331D01*
X842499Y70472D01*
X839876Y71986D01*
X836951Y72770D01*
D02*
G37*
G36*
X811551D02*
X808523D01*
X805599Y71986D01*
X802976Y70472D01*
X800835Y68331D01*
X799321Y65709D01*
X798537Y62784D01*
Y59756D01*
X799321Y56831D01*
X800835Y54209D01*
X802976Y52068D01*
X805599Y50554D01*
X808523Y49770D01*
X811551D01*
X814476Y50554D01*
X817099Y52068D01*
X819240Y54209D01*
X820754Y56831D01*
X821537Y59756D01*
Y62784D01*
X820754Y65709D01*
X819240Y68331D01*
X817099Y70472D01*
X814476Y71986D01*
X811551Y72770D01*
D02*
G37*
G36*
X786151D02*
X783123D01*
X780199Y71986D01*
X777576Y70472D01*
X775435Y68331D01*
X773921Y65709D01*
X773137Y62784D01*
Y59756D01*
X773921Y56831D01*
X775435Y54209D01*
X777576Y52068D01*
X780199Y50554D01*
X783123Y49770D01*
X786151D01*
X789076Y50554D01*
X791699Y52068D01*
X793840Y54209D01*
X795354Y56831D01*
X796137Y59756D01*
Y62784D01*
X795354Y65709D01*
X793840Y68331D01*
X791699Y70472D01*
X789076Y71986D01*
X786151Y72770D01*
D02*
G37*
G36*
X736837Y75478D02*
Y61270D01*
Y47062D01*
X739434Y47758D01*
X742741Y49667D01*
X745440Y52367D01*
X747349Y55673D01*
X747468Y56116D01*
X748831Y56295D01*
X750035Y54209D01*
X752176Y52068D01*
X754799Y50554D01*
X757723Y49770D01*
X760751D01*
X763676Y50554D01*
X766299Y52068D01*
X768440Y54209D01*
X769954Y56831D01*
X770737Y59756D01*
Y62784D01*
X769954Y65709D01*
X768440Y68331D01*
X766299Y70472D01*
X763676Y71986D01*
X760751Y72770D01*
X757723D01*
X754799Y71986D01*
X752176Y70472D01*
X750035Y68331D01*
X748831Y66245D01*
X747468Y66424D01*
X747349Y66867D01*
X745440Y70173D01*
X742741Y72873D01*
X739434Y74782D01*
X736837Y75478D01*
D02*
G37*
G36*
X633751Y72770D02*
X630723D01*
X627799Y71986D01*
X625176Y70472D01*
X623035Y68331D01*
X621521Y65709D01*
X620737Y62784D01*
Y59756D01*
X621521Y56831D01*
X623035Y54209D01*
X625176Y52068D01*
X627799Y50554D01*
X630723Y49770D01*
X633751D01*
X636676Y50554D01*
X639299Y52068D01*
X641440Y54209D01*
X642954Y56831D01*
X643737Y59756D01*
Y62784D01*
X642954Y65709D01*
X641440Y68331D01*
X639299Y70472D01*
X636676Y71986D01*
X633751Y72770D01*
D02*
G37*
G36*
X608351D02*
X605323D01*
X602399Y71986D01*
X599776Y70472D01*
X597635Y68331D01*
X596121Y65709D01*
X595337Y62784D01*
Y59756D01*
X596121Y56831D01*
X597635Y54209D01*
X599776Y52068D01*
X602399Y50554D01*
X605323Y49770D01*
X608351D01*
X611276Y50554D01*
X613899Y52068D01*
X616040Y54209D01*
X617554Y56831D01*
X618337Y59756D01*
Y62784D01*
X617554Y65709D01*
X616040Y68331D01*
X613899Y70472D01*
X611276Y71986D01*
X608351Y72770D01*
D02*
G37*
G36*
X582951D02*
X579923D01*
X576999Y71986D01*
X574376Y70472D01*
X572235Y68331D01*
X570721Y65709D01*
X569937Y62784D01*
Y59756D01*
X570721Y56831D01*
X572235Y54209D01*
X574376Y52068D01*
X576999Y50554D01*
X579923Y49770D01*
X582951D01*
X585876Y50554D01*
X588499Y52068D01*
X590640Y54209D01*
X592154Y56831D01*
X592937Y59756D01*
Y62784D01*
X592154Y65709D01*
X590640Y68331D01*
X588499Y70472D01*
X585876Y71986D01*
X582951Y72770D01*
D02*
G37*
G36*
X557551D02*
X554523D01*
X551599Y71986D01*
X548976Y70472D01*
X546835Y68331D01*
X545321Y65709D01*
X544537Y62784D01*
Y59756D01*
X545321Y56831D01*
X546835Y54209D01*
X548976Y52068D01*
X551599Y50554D01*
X554523Y49770D01*
X557551D01*
X560476Y50554D01*
X563099Y52068D01*
X565240Y54209D01*
X566754Y56831D01*
X567537Y59756D01*
Y62784D01*
X566754Y65709D01*
X565240Y68331D01*
X563099Y70472D01*
X560476Y71986D01*
X557551Y72770D01*
D02*
G37*
G36*
X532151D02*
X529123D01*
X526199Y71986D01*
X523576Y70472D01*
X521435Y68331D01*
X519921Y65709D01*
X519137Y62784D01*
Y59756D01*
X519921Y56831D01*
X521435Y54209D01*
X523576Y52068D01*
X526199Y50554D01*
X529123Y49770D01*
X532151D01*
X535076Y50554D01*
X537699Y52068D01*
X539840Y54209D01*
X541354Y56831D01*
X542137Y59756D01*
Y62784D01*
X541354Y65709D01*
X539840Y68331D01*
X537699Y70472D01*
X535076Y71986D01*
X532151Y72770D01*
D02*
G37*
G36*
X506751D02*
X503723D01*
X500799Y71986D01*
X498176Y70472D01*
X496035Y68331D01*
X494521Y65709D01*
X493737Y62784D01*
Y59756D01*
X494521Y56831D01*
X496035Y54209D01*
X498176Y52068D01*
X500799Y50554D01*
X503723Y49770D01*
X506751D01*
X509676Y50554D01*
X512299Y52068D01*
X514440Y54209D01*
X515954Y56831D01*
X516737Y59756D01*
Y62784D01*
X515954Y65709D01*
X514440Y68331D01*
X512299Y70472D01*
X509676Y71986D01*
X506751Y72770D01*
D02*
G37*
G36*
X711437Y75478D02*
Y61270D01*
Y47062D01*
X714034Y47758D01*
X717341Y49667D01*
X720040Y52367D01*
X720502Y53167D01*
X721772D01*
X722234Y52367D01*
X724934Y49667D01*
X728241Y47758D01*
X730837Y47062D01*
Y61270D01*
Y75478D01*
X728241Y74782D01*
X724934Y72873D01*
X722234Y70173D01*
X721772Y69373D01*
X720502D01*
X720040Y70173D01*
X717341Y72873D01*
X714034Y74782D01*
X711437Y75478D01*
D02*
G37*
G36*
X340273Y69800D02*
X336727D01*
X333250Y69108D01*
X329974Y67751D01*
X327026Y65781D01*
X324519Y63274D01*
X322549Y60326D01*
X321192Y57050D01*
X320500Y53573D01*
Y50027D01*
X321192Y46549D01*
X322549Y43274D01*
X324519Y40325D01*
X327026Y37818D01*
X329974Y35848D01*
X333250Y34492D01*
X336727Y33800D01*
X340273D01*
X343750Y34492D01*
X347026Y35848D01*
X349974Y37818D01*
X352481Y40325D01*
X354451Y43274D01*
X355808Y46549D01*
X356500Y50027D01*
Y53573D01*
X355808Y57050D01*
X354451Y60326D01*
X352481Y63274D01*
X349974Y65781D01*
X347026Y67751D01*
X343750Y69108D01*
X340273Y69800D01*
D02*
G37*
G36*
X203273D02*
X199727D01*
X196250Y69108D01*
X192974Y67751D01*
X190026Y65781D01*
X187519Y63274D01*
X185549Y60326D01*
X184192Y57050D01*
X183500Y53573D01*
Y50027D01*
X184192Y46549D01*
X185549Y43274D01*
X187519Y40325D01*
X190026Y37818D01*
X192974Y35848D01*
X196250Y34492D01*
X199727Y33800D01*
X203273D01*
X206750Y34492D01*
X210026Y35848D01*
X212974Y37818D01*
X215481Y40325D01*
X217451Y43274D01*
X218808Y46549D01*
X219500Y50027D01*
Y53573D01*
X218808Y57050D01*
X217451Y60326D01*
X215481Y63274D01*
X212974Y65781D01*
X210026Y67751D01*
X206750Y69108D01*
X203273Y69800D01*
D02*
G37*
G36*
X54765Y77270D02*
X49098D01*
X43501Y76384D01*
X38112Y74633D01*
X33063Y72060D01*
X28479Y68729D01*
X24472Y64722D01*
X21142Y60138D01*
X18569Y55089D01*
X16818Y49700D01*
X15931Y44103D01*
Y38437D01*
X16818Y32840D01*
X18569Y27451D01*
X21142Y22402D01*
X24472Y17817D01*
X28479Y13811D01*
X33063Y10480D01*
X38112Y7908D01*
X43501Y6156D01*
X49098Y5270D01*
X54765D01*
X60361Y6156D01*
X65751Y7908D01*
X70799Y10480D01*
X75384Y13811D01*
X79391Y17817D01*
X82721Y22402D01*
X85294Y27451D01*
X87045Y32840D01*
X87931Y38437D01*
Y44103D01*
X87045Y49700D01*
X85294Y55089D01*
X82721Y60138D01*
X79391Y64722D01*
X75384Y68729D01*
X70799Y72060D01*
X65751Y74633D01*
X60361Y76384D01*
X54765Y77270D01*
D02*
G37*
%LPD*%
G36*
X662932Y535551D02*
X662345Y534864D01*
X661828Y534168D01*
X661379Y533464D01*
X661000Y532752D01*
X660689Y532033D01*
X660448Y531306D01*
X660275Y530571D01*
X660172Y529828D01*
X660137Y529078D01*
X655137D01*
X655103Y529828D01*
X654999Y530571D01*
X654827Y531306D01*
X654585Y532033D01*
X654275Y532752D01*
X653895Y533464D01*
X653447Y534168D01*
X652929Y534864D01*
X652343Y535551D01*
X651687Y536232D01*
X663587D01*
X662932Y535551D01*
D02*
G37*
G36*
X637532D02*
X636945Y534864D01*
X636428Y534168D01*
X635979Y533464D01*
X635600Y532752D01*
X635289Y532033D01*
X635048Y531306D01*
X634875Y530571D01*
X634772Y529828D01*
X634737Y529078D01*
X629737D01*
X629703Y529828D01*
X629599Y530571D01*
X629427Y531306D01*
X629185Y532033D01*
X628875Y532752D01*
X628495Y533464D01*
X628047Y534168D01*
X627529Y534864D01*
X626943Y535551D01*
X626287Y536232D01*
X638187D01*
X637532Y535551D01*
D02*
G37*
G36*
X586732D02*
X586145Y534864D01*
X585628Y534168D01*
X585179Y533464D01*
X584800Y532752D01*
X584489Y532033D01*
X584248Y531306D01*
X584075Y530571D01*
X583972Y529828D01*
X583937Y529078D01*
X578937D01*
X578903Y529828D01*
X578799Y530571D01*
X578627Y531306D01*
X578385Y532033D01*
X578075Y532752D01*
X577695Y533464D01*
X577247Y534168D01*
X576729Y534864D01*
X576143Y535551D01*
X575487Y536232D01*
X587387D01*
X586732Y535551D01*
D02*
G37*
G36*
X561332D02*
X560745Y534864D01*
X560228Y534168D01*
X559779Y533464D01*
X559400Y532752D01*
X559089Y532033D01*
X558848Y531306D01*
X558675Y530571D01*
X558572Y529828D01*
X558537Y529078D01*
X553537D01*
X553503Y529828D01*
X553399Y530571D01*
X553227Y531306D01*
X552985Y532033D01*
X552675Y532752D01*
X552295Y533464D01*
X551847Y534168D01*
X551329Y534864D01*
X550743Y535551D01*
X550087Y536232D01*
X561987D01*
X561332Y535551D01*
D02*
G37*
G36*
X612725Y536171D02*
X612065Y535499D01*
X611474Y534818D01*
X610953Y534129D01*
X610501Y533430D01*
X610119Y532723D01*
X609806Y532006D01*
X609563Y531281D01*
X609389Y530547D01*
X609285Y529804D01*
X609250Y529052D01*
X604250Y529105D01*
X604216Y529854D01*
X604113Y530597D01*
X603942Y531332D01*
X603702Y532061D01*
X603394Y532783D01*
X603017Y533498D01*
X602572Y534207D01*
X602058Y534909D01*
X601476Y535605D01*
X600825Y536293D01*
X612725Y536171D01*
D02*
G37*
G36*
X332545Y109853D02*
X332680Y109019D01*
X332905Y108179D01*
X333220Y107333D01*
X333625Y106482D01*
X334120Y105625D01*
X334705Y104762D01*
X335380Y103894D01*
X336145Y103021D01*
X337000Y102141D01*
X323000D01*
X323855Y103021D01*
X325295Y104762D01*
X325880Y105625D01*
X326375Y106482D01*
X326780Y107333D01*
X327095Y108179D01*
X327320Y109019D01*
X327455Y109853D01*
X327500Y110682D01*
X332500D01*
X332545Y109853D01*
D02*
G37*
G36*
X302545D02*
X302680Y109019D01*
X302905Y108179D01*
X303220Y107333D01*
X303625Y106482D01*
X304120Y105625D01*
X304705Y104762D01*
X305380Y103894D01*
X306145Y103021D01*
X307000Y102141D01*
X293000D01*
X293855Y103021D01*
X295295Y104762D01*
X295880Y105625D01*
X296375Y106482D01*
X296780Y107333D01*
X297095Y108179D01*
X297320Y109019D01*
X297455Y109853D01*
X297500Y110682D01*
X302500D01*
X302545Y109853D01*
D02*
G37*
G36*
X272545D02*
X272680Y109019D01*
X272905Y108179D01*
X273220Y107333D01*
X273625Y106482D01*
X274120Y105625D01*
X274705Y104762D01*
X275380Y103894D01*
X276145Y103021D01*
X277000Y102141D01*
X263000D01*
X263855Y103021D01*
X265295Y104762D01*
X265880Y105625D01*
X266375Y106482D01*
X266780Y107333D01*
X267095Y108179D01*
X267320Y109019D01*
X267455Y109853D01*
X267500Y110682D01*
X272500D01*
X272545Y109853D01*
D02*
G37*
G36*
X242545D02*
X242680Y109019D01*
X242905Y108179D01*
X243220Y107333D01*
X243625Y106482D01*
X244120Y105625D01*
X244705Y104762D01*
X245380Y103894D01*
X246145Y103021D01*
X247000Y102141D01*
X233000D01*
X233855Y103021D01*
X235295Y104762D01*
X235880Y105625D01*
X236375Y106482D01*
X236780Y107333D01*
X237095Y108179D01*
X237320Y109019D01*
X237455Y109853D01*
X237500Y110682D01*
X242500D01*
X242545Y109853D01*
D02*
G37*
G36*
X212545D02*
X212680Y109019D01*
X212905Y108179D01*
X213220Y107333D01*
X213625Y106482D01*
X214120Y105625D01*
X214705Y104762D01*
X215380Y103894D01*
X216145Y103021D01*
X217000Y102141D01*
X203000D01*
X203855Y103021D01*
X205295Y104762D01*
X205880Y105625D01*
X206375Y106482D01*
X206780Y107333D01*
X207095Y108179D01*
X207320Y109019D01*
X207455Y109853D01*
X207500Y110682D01*
X212500D01*
X212545Y109853D01*
D02*
G37*
G36*
X519826Y351261D02*
X519495Y350841D01*
X519203Y350394D01*
X518950Y349922D01*
X518736Y349424D01*
X518561Y348900D01*
X518425Y348349D01*
X518328Y347773D01*
X518269Y347171D01*
X518250Y346543D01*
X513250D01*
X513231Y347171D01*
X513172Y347773D01*
X513075Y348349D01*
X512939Y348900D01*
X512764Y349424D01*
X512550Y349922D01*
X512297Y350394D01*
X512005Y350841D01*
X511674Y351261D01*
X511305Y351655D01*
X520195D01*
X519826Y351261D01*
D02*
G37*
G36*
X518269Y197375D02*
X518328Y196773D01*
X518425Y196197D01*
X518561Y195647D01*
X518736Y195123D01*
X518950Y194624D01*
X519203Y194152D01*
X519495Y193706D01*
X519826Y193285D01*
X520195Y192891D01*
X511305D01*
X511674Y193285D01*
X512005Y193706D01*
X512297Y194152D01*
X512550Y194624D01*
X512764Y195123D01*
X512939Y195647D01*
X513075Y196197D01*
X513172Y196773D01*
X513231Y197375D01*
X513250Y198004D01*
X518250D01*
X518269Y197375D01*
D02*
G37*
D10*
X1043000Y417500D02*
Y443000D01*
Y417500D02*
X1054500Y406000D01*
X1069000D01*
D17*
X638795Y170180D02*
Y294386D01*
D18*
X652197Y298408D02*
X732092D01*
Y166370D02*
Y298408D01*
X652197Y166370D02*
X732092D01*
X652197D02*
Y298408D01*
D68*
X1101090Y139700D02*
X1159510D01*
X1191260Y171450D01*
D69*
X515750Y188356D02*
Y356190D01*
X255936Y409076D02*
X327611Y480750D01*
X535250D01*
X255936Y225936D02*
Y409076D01*
X284064Y225936D02*
Y397425D01*
X262968Y202968D02*
Y406163D01*
X339262Y452622D02*
X637872D01*
X262968Y406163D02*
X330523Y473718D01*
X284064Y397425D02*
X339262Y452622D01*
X270000Y403250D02*
X333436Y466686D01*
X240000Y180000D02*
X262968Y202968D01*
X277032Y400337D02*
X336349Y459654D01*
X277032Y202968D02*
X300000Y180000D01*
X277032Y202968D02*
Y400337D01*
X270000Y95000D02*
Y403250D01*
X284064Y225936D02*
X330000Y180000D01*
X535250Y480750D02*
X556037Y501537D01*
Y542302D01*
X330523Y473718D02*
X560718D01*
X637872Y452622D02*
X657637Y472387D01*
X610904Y459654D02*
X632237Y480987D01*
X336349Y459654D02*
X610904D01*
X632237Y480987D02*
Y542302D01*
X584686Y466686D02*
X606750Y488750D01*
X333436Y466686D02*
X584686D01*
X300000Y95000D02*
Y180000D01*
X606750Y488750D02*
Y542215D01*
X560718Y473718D02*
X581437Y494437D01*
X210000Y180000D02*
X255936Y225936D01*
X210000Y95000D02*
Y180000D01*
X240000Y95000D02*
Y180000D01*
X330000Y95000D02*
Y180000D01*
X581437Y494437D02*
Y542302D01*
X657637Y472387D02*
Y542302D01*
X606750Y542215D02*
X606837Y542302D01*
X833250Y178580D02*
Y178946D01*
X826250Y185946D02*
Y280180D01*
Y185946D02*
X833250Y178946D01*
D71*
X927219Y98633D02*
Y229093D01*
X1001763Y89989D02*
X1001964D01*
X996752Y95000D02*
X1001763Y89989D01*
X1001964D02*
X1004196Y87757D01*
X992371Y95000D02*
X996752D01*
X1004196Y84601D02*
Y87757D01*
X998335Y78740D02*
X1004196Y84601D01*
X947112Y78740D02*
X998335D01*
X927219Y98633D02*
X947112Y78740D01*
X1017990Y95000D02*
X1022371D01*
X1012979Y89989D02*
X1017990Y95000D01*
X1012778Y89989D02*
X1012979D01*
X1010546Y87757D02*
X1012778Y89989D01*
X1010546Y81970D02*
Y87757D01*
X1000966Y72390D02*
X1010546Y81970D01*
X920869Y96003D02*
X944482Y72390D01*
X1000966D01*
X920869Y96003D02*
Y226462D01*
X908590Y241935D02*
X914376D01*
X927219Y229093D01*
X906358Y226260D02*
Y233353D01*
Y244167D02*
Y251260D01*
Y244167D02*
X908590Y241935D01*
Y235585D02*
X911746D01*
X920869Y226462D01*
X906358Y233353D02*
X908590Y235585D01*
D73*
X201500Y51800D02*
D03*
X338500D02*
D03*
X983871Y51800D02*
D03*
X1060871D02*
D03*
D74*
X300000Y95000D02*
D03*
X270000D02*
D03*
X240000D02*
D03*
X210000D02*
D03*
X330000D02*
D03*
X360000D02*
D03*
X1082371Y95000D02*
D03*
X1052371D02*
D03*
X1022371D02*
D03*
X992371D02*
D03*
D75*
X180000Y95000D02*
D03*
X962371Y95000D02*
D03*
D76*
X683037Y61270D02*
D03*
X708437D02*
D03*
X733837D02*
D03*
X759237D02*
D03*
X784637D02*
D03*
X810037D02*
D03*
X835437D02*
D03*
X74803Y125692D02*
D03*
X49403Y278600D02*
D03*
Y253200D02*
D03*
Y227800D02*
D03*
Y202400D02*
D03*
Y177000D02*
D03*
Y151600D02*
D03*
Y126200D02*
D03*
X74803Y151600D02*
D03*
Y177000D02*
D03*
Y202400D02*
D03*
Y227800D02*
D03*
Y253200D02*
D03*
Y278600D02*
D03*
Y304000D02*
D03*
X49403D02*
D03*
X505237Y542302D02*
D03*
X606837Y61270D02*
D03*
X581437D02*
D03*
X556037D02*
D03*
X530637D02*
D03*
X505237D02*
D03*
X632237D02*
D03*
X683037Y542302D02*
D03*
X657637D02*
D03*
X632237D02*
D03*
X606837D02*
D03*
X581437D02*
D03*
X556037D02*
D03*
X530637D02*
D03*
X723321D02*
D03*
X748721D02*
D03*
X774121D02*
D03*
X799521D02*
D03*
X824921D02*
D03*
X850321D02*
D03*
X875721D02*
D03*
X901121D02*
D03*
X926521D02*
D03*
X951921D02*
D03*
D77*
X860837Y61270D02*
D03*
D78*
X51931Y41270D02*
D03*
Y561270D02*
D03*
X1241931Y41270D02*
D03*
Y561270D02*
D03*
D79*
X654050Y361950D02*
D03*
Y412750D02*
D03*
X730250D02*
D03*
D80*
Y336550D02*
D03*
D81*
X1069000Y406000D02*
D03*
X1043000Y443000D02*
D03*
X906358Y251260D02*
D03*
Y226260D02*
D03*
X833250Y178580D02*
D03*
X826250Y280180D02*
D03*
X592933Y261620D02*
D03*
Y251617D02*
D03*
D82*
X451785Y398750D02*
D03*
X971785Y558750D02*
D03*
X951785Y518750D02*
D03*
X911785D02*
D03*
X891785Y558750D02*
D03*
X871785Y518750D02*
D03*
Y38750D02*
D03*
X831785Y518750D02*
D03*
X851785Y78750D02*
D03*
X831785Y38750D02*
D03*
X811785Y558750D02*
D03*
X791785Y518750D02*
D03*
X811785Y78750D02*
D03*
X791785Y38750D02*
D03*
X751785Y518750D02*
D03*
X771785Y78750D02*
D03*
X751785Y38750D02*
D03*
X731785Y558750D02*
D03*
X711785Y518750D02*
D03*
X731785Y78750D02*
D03*
X711785Y38750D02*
D03*
X691785Y558750D02*
D03*
X671785Y518750D02*
D03*
Y438750D02*
D03*
Y278750D02*
D03*
Y198750D02*
D03*
Y118750D02*
D03*
Y38750D02*
D03*
X651785Y558750D02*
D03*
X631785Y438750D02*
D03*
Y358750D02*
D03*
X651785Y158750D02*
D03*
X631785Y118750D02*
D03*
Y38750D02*
D03*
X591785Y118750D02*
D03*
X611785Y78750D02*
D03*
X591785Y38750D02*
D03*
X571785Y558750D02*
D03*
X551785Y438750D02*
D03*
X571785Y398750D02*
D03*
Y318750D02*
D03*
Y78750D02*
D03*
X551785Y38750D02*
D03*
X511785Y518750D02*
D03*
Y438750D02*
D03*
X531785Y398750D02*
D03*
Y238750D02*
D03*
Y158750D02*
D03*
Y78750D02*
D03*
X511785Y38750D02*
D03*
X491785Y558750D02*
D03*
X471785Y518750D02*
D03*
Y438750D02*
D03*
X491785Y398750D02*
D03*
X471785Y358750D02*
D03*
X491785Y318750D02*
D03*
X471785Y278750D02*
D03*
X491785Y238750D02*
D03*
X471785Y198750D02*
D03*
X491785Y158750D02*
D03*
X471785Y118750D02*
D03*
X491785Y78750D02*
D03*
X471785Y38750D02*
D03*
X431785Y358750D02*
D03*
X451785Y318750D02*
D03*
X431785Y278750D02*
D03*
X451785Y238750D02*
D03*
X431785Y198750D02*
D03*
X451785Y158750D02*
D03*
X431785Y118750D02*
D03*
Y38750D02*
D03*
X391785Y518750D02*
D03*
Y438750D02*
D03*
X411785Y398750D02*
D03*
X391785Y358750D02*
D03*
X411785Y318750D02*
D03*
X391785Y278750D02*
D03*
X411785Y238750D02*
D03*
X391785Y198750D02*
D03*
X411785Y158750D02*
D03*
X391785Y118750D02*
D03*
X411785Y78750D02*
D03*
X391785Y38750D02*
D03*
X371785Y558750D02*
D03*
X351785Y518750D02*
D03*
Y438750D02*
D03*
X371785Y398750D02*
D03*
X351785Y358750D02*
D03*
X371785Y318750D02*
D03*
X351785Y278750D02*
D03*
X371785Y238750D02*
D03*
X351785Y198750D02*
D03*
X371785Y158750D02*
D03*
X351785Y118750D02*
D03*
X371785Y78750D02*
D03*
X331785Y558750D02*
D03*
X311785Y518750D02*
D03*
X331785Y398750D02*
D03*
X311785Y358750D02*
D03*
X331785Y318750D02*
D03*
X311785Y278750D02*
D03*
X331785Y238750D02*
D03*
X311785Y38750D02*
D03*
X291785Y558750D02*
D03*
X271785Y518750D02*
D03*
X291785Y478750D02*
D03*
X271785Y38750D02*
D03*
X251785Y558750D02*
D03*
X231785Y518750D02*
D03*
X251785Y478750D02*
D03*
X231785Y438750D02*
D03*
Y358750D02*
D03*
Y278750D02*
D03*
Y38750D02*
D03*
X211785Y558750D02*
D03*
X191785Y518750D02*
D03*
X211785Y478750D02*
D03*
X191785Y438750D02*
D03*
X211785Y398750D02*
D03*
X191785Y358750D02*
D03*
X211785Y318750D02*
D03*
X191785Y198750D02*
D03*
Y118750D02*
D03*
X171785Y558750D02*
D03*
X151785Y518750D02*
D03*
X171785Y478750D02*
D03*
X151785Y438750D02*
D03*
X171785Y398750D02*
D03*
X151785Y358750D02*
D03*
X171785Y318750D02*
D03*
X151785Y278750D02*
D03*
X171785Y238750D02*
D03*
X151785Y198750D02*
D03*
X171785Y158750D02*
D03*
X151785Y118750D02*
D03*
Y38750D02*
D03*
X131785Y558750D02*
D03*
X111785Y518750D02*
D03*
X131785Y478750D02*
D03*
X111785Y438750D02*
D03*
X131785Y398750D02*
D03*
X111785Y358750D02*
D03*
X131785Y318750D02*
D03*
X111785Y278750D02*
D03*
Y118750D02*
D03*
X131785Y78750D02*
D03*
X111785Y38750D02*
D03*
X71785Y518750D02*
D03*
X91785Y478750D02*
D03*
X71785Y438750D02*
D03*
X91785Y398750D02*
D03*
X71785Y358750D02*
D03*
X91785Y318750D02*
D03*
Y238750D02*
D03*
Y78750D02*
D03*
X31785Y518750D02*
D03*
X51785Y478750D02*
D03*
X31785Y438750D02*
D03*
X51785Y398750D02*
D03*
X31785Y358750D02*
D03*
Y278750D02*
D03*
Y198750D02*
D03*
Y118750D02*
D03*
X1234750Y511750D02*
D03*
X1254750Y471750D02*
D03*
X1234750Y431750D02*
D03*
X1254750Y391750D02*
D03*
X1234750Y351750D02*
D03*
X1254750Y311750D02*
D03*
X1234750Y271750D02*
D03*
X1254750Y231750D02*
D03*
X1234750Y191750D02*
D03*
X1254750Y151750D02*
D03*
X1234750Y111750D02*
D03*
X1194750Y511750D02*
D03*
X1214750Y471750D02*
D03*
Y391750D02*
D03*
X1194750Y351750D02*
D03*
X1214750Y311750D02*
D03*
X1194750Y271750D02*
D03*
X1214750Y231750D02*
D03*
X1194750Y191750D02*
D03*
X1214750Y151750D02*
D03*
X1194750Y111750D02*
D03*
Y31750D02*
D03*
X1174750Y551750D02*
D03*
X1154750Y511750D02*
D03*
X1174750Y311750D02*
D03*
Y71750D02*
D03*
X1154750Y31750D02*
D03*
X1134750Y551750D02*
D03*
X1114750Y511750D02*
D03*
Y271750D02*
D03*
X1134750Y71750D02*
D03*
X1114750Y31750D02*
D03*
X1074750Y271750D02*
D03*
X1094750Y71750D02*
D03*
X1074750Y31750D02*
D03*
X1054750Y311750D02*
D03*
X1034750Y271750D02*
D03*
X1054750Y231750D02*
D03*
X1034750Y111750D02*
D03*
Y31750D02*
D03*
X994750Y351750D02*
D03*
Y271750D02*
D03*
X1014750Y151750D02*
D03*
X974750Y471750D02*
D03*
Y391750D02*
D03*
X954750Y351750D02*
D03*
X974750Y311750D02*
D03*
X954750Y271750D02*
D03*
X974750Y231750D02*
D03*
X954750Y31750D02*
D03*
X934750Y471750D02*
D03*
Y391750D02*
D03*
X914750Y351750D02*
D03*
X934750Y311750D02*
D03*
X914750Y31750D02*
D03*
X894750Y471750D02*
D03*
Y391750D02*
D03*
X874750Y351750D02*
D03*
X854750Y471750D02*
D03*
Y391750D02*
D03*
X834750Y351750D02*
D03*
X814750Y471750D02*
D03*
Y391750D02*
D03*
X794750Y351750D02*
D03*
X774750Y471750D02*
D03*
Y391750D02*
D03*
X754750Y351750D02*
D03*
X734750Y471750D02*
D03*
X714750Y431750D02*
D03*
X734750Y391750D02*
D03*
Y311750D02*
D03*
X714750Y271750D02*
D03*
Y191750D02*
D03*
X734750Y151750D02*
D03*
X441250Y496215D02*
D03*
X572500Y376000D02*
D03*
X98250Y218750D02*
D03*
X563000Y282500D02*
D03*
X652250Y310250D02*
D03*
X976750Y590750D02*
D03*
X513500Y109750D02*
D03*
X688500Y85750D02*
D03*
X756500Y411750D02*
D03*
X1109000Y287250D02*
D03*
X1018500Y187500D02*
D03*
X920000Y11500D02*
D03*
X1013250Y60000D02*
D03*
X956000D02*
D03*
X1066750Y78250D02*
D03*
X1164250Y366250D02*
D03*
X1015000Y513250D02*
D03*
X997500Y447250D02*
D03*
X1113500Y491000D02*
D03*
X711250Y473000D02*
D03*
X709250Y123000D02*
D03*
X750750Y306750D02*
D03*
X750000Y159750D02*
D03*
X897250Y155250D02*
D03*
X1076500Y490750D02*
D03*
X1038500Y493250D02*
D03*
X1042500Y388000D02*
D03*
X1041000Y329500D02*
D03*
X1124000Y330000D02*
D03*
X1066750Y111500D02*
D03*
X980750Y111750D02*
D03*
X940250Y101250D02*
D03*
X1061750Y171250D02*
D03*
X1113750Y228500D02*
D03*
X1105000Y114250D02*
D03*
D83*
X515750Y356190D02*
D03*
Y188356D02*
D03*
X353750Y156750D02*
D03*
X441960Y512250D02*
D03*
X994660Y397900D02*
D03*
X1159882Y350536D02*
D03*
X582500Y274500D02*
D03*
X600000Y289560D02*
D03*
X1096010Y512250D02*
D03*
X1048620D02*
D03*
X556000Y169450D02*
D03*
Y208820D02*
D03*
X924250Y253750D02*
D03*
X1191260Y171450D02*
D03*
X1101090Y139700D02*
D03*
X994410Y369570D02*
D03*
D84*
X1064340Y443150D02*
D03*
Y438150D02*
D03*
X1074340Y433150D02*
D03*
X1069340D02*
D03*
X1064340D02*
D03*
X1074340Y438150D02*
D03*
Y443150D02*
D03*
X1069340D02*
D03*
Y438150D02*
D03*
M02*
