G04*
G04 #@! TF.GenerationSoftware,Altium Limited,Altium Designer,22.8.2 (66)*
G04*
G04 Layer_Color=16711935*
%FSLAX44Y44*%
%MOMM*%
G71*
G04*
G04 #@! TF.SameCoordinates,AF58AEFE-5498-464C-92CE-300A63243590*
G04*
G04*
G04 #@! TF.FilePolarity,Positive*
G04*
G01*
G75*
%ADD10C,0.2540*%
%ADD14C,0.1000*%
%ADD17C,0.0254*%
%ADD18C,0.0500*%
%ADD86C,0.0762*%
D10*
X1281950Y576270D02*
G03*
X1256950Y601270I-25000J0D01*
G01*
Y1270D02*
G03*
X1281950Y26270I0J25000D01*
G01*
X36950Y601270D02*
G03*
X11950Y576270I0J-25000D01*
G01*
Y26270D02*
G03*
X36950Y1270I25000J0D01*
G01*
X1256950D01*
X36950Y601270D02*
X1256950D01*
X1281950Y26270D02*
Y576270D01*
X11950Y26270D02*
Y576270D01*
X1001540Y232220D02*
Y330220D01*
Y232220D02*
X1112540D01*
Y330220D01*
X1001540D02*
X1112540D01*
X832730Y219260D02*
X882730D01*
X832730D02*
Y258260D01*
X882730D01*
Y219260D02*
Y258260D01*
X727150Y167410D02*
Y297410D01*
X657150Y167410D02*
X727150D01*
X657150D02*
Y297410D01*
X727150D01*
X875837Y46270D02*
Y76270D01*
X490837D02*
X875837D01*
X490837Y46270D02*
Y76270D01*
Y46270D02*
X875837D01*
X966837Y527270D02*
Y557270D01*
X490837Y557270D02*
X966837Y557270D01*
X490837Y527270D02*
Y557270D01*
Y527270D02*
X966837Y527270D01*
X90837Y108770D02*
Y321270D01*
X33337D02*
X90837D01*
X33337Y108770D02*
Y321270D01*
Y108770D02*
X90837D01*
X437460Y532910D02*
Y550410D01*
X446460D01*
Y532910D02*
Y550410D01*
X437460Y532910D02*
X446460D01*
X1044120Y533410D02*
Y550910D01*
X1053120D01*
Y533410D02*
Y550910D01*
X1044120Y533410D02*
X1053120D01*
X1091510Y532910D02*
Y550410D01*
X1100510D01*
Y532910D02*
Y550410D01*
X1091510Y532910D02*
X1100510D01*
X1110250Y394750D02*
Y412750D01*
X1083250D02*
X1110250D01*
X1083250Y394750D02*
Y412750D01*
Y394750D02*
X1110250D01*
X838089Y303060D02*
X856089D01*
X838089Y276060D02*
Y303060D01*
Y276060D02*
X856089D01*
Y303060D01*
X290895Y133820D02*
X308895D01*
Y160820D01*
X290895D02*
X308895D01*
X290895Y133820D02*
Y160820D01*
X260895Y133820D02*
X278895D01*
Y160820D01*
X260895D02*
X278895D01*
X260895Y133820D02*
Y160820D01*
X230895Y133820D02*
X248895D01*
Y160820D01*
X230895D02*
X248895D01*
X230895Y133820D02*
Y160820D01*
X200895Y133820D02*
X218895D01*
Y160820D01*
X200895D02*
X218895D01*
X200895Y133820D02*
Y160820D01*
X587420Y424770D02*
X621320D01*
Y392270D02*
Y424770D01*
X587420Y392270D02*
Y424770D01*
Y392270D02*
X621320D01*
X1045608Y342883D02*
X1090608D01*
X1045608D02*
Y374883D01*
X1090608Y342883D02*
Y374883D01*
X1045608D02*
X1090608D01*
X953250Y134010D02*
X1013250D01*
Y207010D01*
X953250D02*
X1013250D01*
X953250Y134010D02*
Y207010D01*
X415180Y528652D02*
Y555652D01*
X433180D01*
Y528652D02*
Y555652D01*
X415180Y528652D02*
X433180D01*
X1021578D02*
Y555652D01*
X1039578D01*
Y528652D02*
Y555652D01*
X1021578Y528652D02*
X1039578D01*
X1069230D02*
Y555652D01*
X1087230D01*
Y528652D02*
Y555652D01*
X1069230Y528652D02*
X1087230D01*
X1023140Y202760D02*
X1065140D01*
X1023140Y142760D02*
Y202760D01*
Y142760D02*
X1065140D01*
Y202760D01*
X593395Y323690D02*
X615195D01*
X593395D02*
Y356190D01*
X615195Y323690D02*
Y356190D01*
X593395D02*
X615195D01*
X1103500Y417500D02*
Y435500D01*
Y417500D02*
X1130500D01*
Y435500D01*
X1103500D02*
X1130500D01*
X1130250Y439750D02*
Y457750D01*
X1103250D02*
X1130250D01*
X1103250Y439750D02*
Y457750D01*
Y439750D02*
X1130250D01*
X1020970Y478320D02*
X1038970D01*
X1020970Y451320D02*
Y478320D01*
Y451320D02*
X1038970D01*
Y478320D01*
X1062598Y461540D02*
Y483340D01*
X1095098D01*
X1062598Y461540D02*
X1095098D01*
Y483340D01*
X1004400Y430400D02*
X1033600D01*
Y397900D02*
Y430400D01*
X1004400Y397900D02*
Y430400D01*
Y397900D02*
X1033600D01*
X1165180Y235620D02*
Y264820D01*
X1132680Y235620D02*
X1165180D01*
X1132680Y264820D02*
X1165180D01*
X1132680Y235620D02*
Y264820D01*
X1165180Y196815D02*
Y226015D01*
X1132680Y196815D02*
X1165180D01*
X1132680Y226015D02*
X1165180D01*
X1132680Y196815D02*
Y226015D01*
X1165180Y158010D02*
Y187210D01*
X1132680Y158010D02*
X1165180D01*
X1132680Y187210D02*
X1165180D01*
X1132680Y158010D02*
Y187210D01*
X1165180Y119205D02*
Y148405D01*
X1132680Y119205D02*
X1165180D01*
X1132680Y148405D02*
X1165180D01*
X1132680Y119205D02*
Y148405D01*
X1165180Y80400D02*
Y109600D01*
X1132680Y80400D02*
X1165180D01*
X1132680Y109600D02*
X1165180D01*
X1132680Y80400D02*
Y109600D01*
X1106250Y346750D02*
Y364250D01*
X1115250D01*
Y346750D02*
Y364250D01*
X1106250Y346750D02*
X1115250D01*
X1121000Y346385D02*
X1139000D01*
Y373385D01*
X1121000D02*
X1139000D01*
X1121000Y346385D02*
Y373385D01*
X1009645Y372910D02*
X1027645D01*
X1009645Y345910D02*
Y372910D01*
Y345910D02*
X1027645D01*
Y372910D01*
X1121380Y295420D02*
Y312920D01*
X1130380D01*
Y295420D02*
Y312920D01*
X1121380Y295420D02*
X1130380D01*
X1073730Y181560D02*
Y199060D01*
X1082730D01*
Y181560D02*
Y199060D01*
X1073730Y181560D02*
X1082730D01*
X867854Y303060D02*
X885854D01*
X867854Y276060D02*
Y303060D01*
Y276060D02*
X885854D01*
Y303060D01*
X847644Y174944D02*
X865644D01*
Y201944D01*
X847644D02*
X865644D01*
X847644Y174944D02*
Y201944D01*
X877410Y174944D02*
X895410D01*
Y201944D01*
X877410D02*
X895410D01*
X877410Y174944D02*
Y201944D01*
X897620Y303060D02*
X915620D01*
X897620Y276060D02*
Y303060D01*
Y276060D02*
X915620D01*
Y303060D01*
X805738Y201460D02*
X823738D01*
X805738Y174460D02*
Y201460D01*
Y174460D02*
X823738D01*
Y201460D01*
X768558Y303060D02*
X786557D01*
X768558Y276060D02*
Y303060D01*
Y276060D02*
X786557D01*
Y303060D01*
X798323D02*
X816323D01*
X798323Y276060D02*
Y303060D01*
Y276060D02*
X816323D01*
Y303060D01*
X595680Y165570D02*
X613680D01*
Y192570D01*
X595680D02*
X613680D01*
X595680Y165570D02*
Y192570D01*
X572820Y204940D02*
X590820D01*
Y231940D01*
X572820D02*
X590820D01*
X572820Y204940D02*
Y231940D01*
X595680Y204940D02*
X613680D01*
Y231940D01*
X595680D02*
X613680D01*
X595680Y204940D02*
Y231940D01*
X773582Y201460D02*
X791582D01*
X773582Y174460D02*
Y201460D01*
Y174460D02*
X791582D01*
Y201460D01*
X572820Y165570D02*
X590820D01*
Y192570D01*
X572820D02*
X590820D01*
X572820Y165570D02*
Y192570D01*
D14*
X1051500Y385750D02*
Y395250D01*
X1068500Y385750D02*
Y395250D01*
X1051500D02*
X1068500D01*
X1051500Y385750D02*
X1068500D01*
X774820Y253760D02*
X788820D01*
Y223510D02*
Y253760D01*
X774820Y223510D02*
Y253760D01*
Y223510D02*
X788820D01*
X1110590Y168560D02*
Y196560D01*
X1091590Y168560D02*
Y196560D01*
X1110590D01*
X1091590Y168560D02*
X1110590D01*
D17*
X1054100Y440690D02*
X1066800Y453390D01*
X1054100Y422910D02*
X1084580D01*
Y453390D01*
X1054100D02*
X1084580D01*
X1054100Y422910D02*
Y453390D01*
X638795Y170180D02*
Y294386D01*
D18*
X652197Y298408D02*
X732092D01*
Y166370D02*
Y298408D01*
X652197Y166370D02*
X732092D01*
X652197D02*
Y298408D01*
D86*
X1058253Y457380D02*
X1066717Y448916D01*
X1058253D02*
X1066717Y457380D01*
X1058253Y453148D02*
X1066717D01*
X1062485Y448916D02*
Y457380D01*
M02*
