G04*
G04 #@! TF.GenerationSoftware,Altium Limited,Altium Designer,22.8.2 (66)*
G04*
G04 Layer_Color=8388736*
%FSLAX44Y44*%
%MOMM*%
G71*
G04*
G04 #@! TF.SameCoordinates,AF58AEFE-5498-464C-92CE-300A63243590*
G04*
G04*
G04 #@! TF.FilePolarity,Negative*
G04*
G01*
G75*
%ADD17C,0.0254*%
%ADD18C,0.0500*%
G04:AMPARAMS|DCode=21|XSize=0.508mm|YSize=0.6096mm|CornerRadius=0.0635mm|HoleSize=0mm|Usage=FLASHONLY|Rotation=180.000|XOffset=0mm|YOffset=0mm|HoleType=Round|Shape=RoundedRectangle|*
%AMROUNDEDRECTD21*
21,1,0.5080,0.4826,0,0,180.0*
21,1,0.3810,0.6096,0,0,180.0*
1,1,0.1270,-0.1905,0.2413*
1,1,0.1270,0.1905,0.2413*
1,1,0.1270,0.1905,-0.2413*
1,1,0.1270,-0.1905,-0.2413*
%
%ADD21ROUNDEDRECTD21*%
%ADD22R,1.6002X1.6002*%
%ADD39R,0.8016X1.0016*%
G04:AMPARAMS|DCode=40|XSize=1.4016mm|YSize=1.6017mm|CornerRadius=0.3758mm|HoleSize=0mm|Usage=FLASHONLY|Rotation=180.000|XOffset=0mm|YOffset=0mm|HoleType=Round|Shape=RoundedRectangle|*
%AMROUNDEDRECTD40*
21,1,1.4016,0.8501,0,0,180.0*
21,1,0.6500,1.6017,0,0,180.0*
1,1,0.7516,-0.3250,0.4251*
1,1,0.7516,0.3250,0.4251*
1,1,0.7516,0.3250,-0.4251*
1,1,0.7516,-0.3250,-0.4251*
%
%ADD40ROUNDEDRECTD40*%
G04:AMPARAMS|DCode=41|XSize=0.254mm|YSize=0.6096mm|CornerRadius=0.0318mm|HoleSize=0mm|Usage=FLASHONLY|Rotation=270.000|XOffset=0mm|YOffset=0mm|HoleType=Round|Shape=RoundedRectangle|*
%AMROUNDEDRECTD41*
21,1,0.2540,0.5461,0,0,270.0*
21,1,0.1905,0.6096,0,0,270.0*
1,1,0.0635,-0.2731,-0.0953*
1,1,0.0635,-0.2731,0.0953*
1,1,0.0635,0.2731,0.0953*
1,1,0.0635,0.2731,-0.0953*
%
%ADD41ROUNDEDRECTD41*%
G04:AMPARAMS|DCode=42|XSize=2.8016mm|YSize=2.8016mm|CornerRadius=0.7258mm|HoleSize=0mm|Usage=FLASHONLY|Rotation=0.000|XOffset=0mm|YOffset=0mm|HoleType=Round|Shape=RoundedRectangle|*
%AMROUNDEDRECTD42*
21,1,2.8016,1.3500,0,0,0.0*
21,1,1.3500,2.8016,0,0,0.0*
1,1,1.4516,0.6750,-0.6750*
1,1,1.4516,-0.6750,-0.6750*
1,1,1.4516,-0.6750,0.6750*
1,1,1.4516,0.6750,0.6750*
%
%ADD42ROUNDEDRECTD42*%
G04:AMPARAMS|DCode=43|XSize=0.9016mm|YSize=1.0016mm|CornerRadius=0.2508mm|HoleSize=0mm|Usage=FLASHONLY|Rotation=90.000|XOffset=0mm|YOffset=0mm|HoleType=Round|Shape=RoundedRectangle|*
%AMROUNDEDRECTD43*
21,1,0.9016,0.5000,0,0,90.0*
21,1,0.4000,1.0016,0,0,90.0*
1,1,0.5016,0.2500,0.2000*
1,1,0.5016,0.2500,-0.2000*
1,1,0.5016,-0.2500,-0.2000*
1,1,0.5016,-0.2500,0.2000*
%
%ADD43ROUNDEDRECTD43*%
G04:AMPARAMS|DCode=44|XSize=1.4516mm|YSize=1.0016mm|CornerRadius=0.2758mm|HoleSize=0mm|Usage=FLASHONLY|Rotation=180.000|XOffset=0mm|YOffset=0mm|HoleType=Round|Shape=RoundedRectangle|*
%AMROUNDEDRECTD44*
21,1,1.4516,0.4500,0,0,180.0*
21,1,0.9000,1.0016,0,0,180.0*
1,1,0.5516,-0.4500,0.2250*
1,1,0.5516,0.4500,0.2250*
1,1,0.5516,0.4500,-0.2250*
1,1,0.5516,-0.4500,-0.2250*
%
%ADD44ROUNDEDRECTD44*%
%ADD45O,2.2606X0.8128*%
G04:AMPARAMS|DCode=46|XSize=2.2606mm|YSize=0.8128mm|CornerRadius=0.2286mm|HoleSize=0mm|Usage=FLASHONLY|Rotation=0.000|XOffset=0mm|YOffset=0mm|HoleType=Round|Shape=RoundedRectangle|*
%AMROUNDEDRECTD46*
21,1,2.2606,0.3556,0,0,0.0*
21,1,1.8034,0.8128,0,0,0.0*
1,1,0.4572,0.9017,-0.1778*
1,1,0.4572,-0.9017,-0.1778*
1,1,0.4572,-0.9017,0.1778*
1,1,0.4572,0.9017,0.1778*
%
%ADD46ROUNDEDRECTD46*%
G04:AMPARAMS|DCode=47|XSize=1.0016mm|YSize=0.9016mm|CornerRadius=0.2508mm|HoleSize=0mm|Usage=FLASHONLY|Rotation=90.000|XOffset=0mm|YOffset=0mm|HoleType=Round|Shape=RoundedRectangle|*
%AMROUNDEDRECTD47*
21,1,1.0016,0.4000,0,0,90.0*
21,1,0.5000,0.9016,0,0,90.0*
1,1,0.5016,0.2000,0.2500*
1,1,0.5016,0.2000,-0.2500*
1,1,0.5016,-0.2000,-0.2500*
1,1,0.5016,-0.2000,0.2500*
%
%ADD47ROUNDEDRECTD47*%
G04:AMPARAMS|DCode=48|XSize=1.4016mm|YSize=1.6017mm|CornerRadius=0.3758mm|HoleSize=0mm|Usage=FLASHONLY|Rotation=270.000|XOffset=0mm|YOffset=0mm|HoleType=Round|Shape=RoundedRectangle|*
%AMROUNDEDRECTD48*
21,1,1.4016,0.8501,0,0,270.0*
21,1,0.6500,1.6017,0,0,270.0*
1,1,0.7516,-0.4251,-0.3250*
1,1,0.7516,-0.4251,0.3250*
1,1,0.7516,0.4251,0.3250*
1,1,0.7516,0.4251,-0.3250*
%
%ADD48ROUNDEDRECTD48*%
G04:AMPARAMS|DCode=49|XSize=1.9016mm|YSize=3.1516mm|CornerRadius=0.5008mm|HoleSize=0mm|Usage=FLASHONLY|Rotation=90.000|XOffset=0mm|YOffset=0mm|HoleType=Round|Shape=RoundedRectangle|*
%AMROUNDEDRECTD49*
21,1,1.9016,2.1500,0,0,90.0*
21,1,0.9000,3.1516,0,0,90.0*
1,1,1.0016,1.0750,0.4500*
1,1,1.0016,1.0750,-0.4500*
1,1,1.0016,-1.0750,-0.4500*
1,1,1.0016,-1.0750,0.4500*
%
%ADD49ROUNDEDRECTD49*%
G04:AMPARAMS|DCode=50|XSize=2.3016mm|YSize=3.6016mm|CornerRadius=0.6008mm|HoleSize=0mm|Usage=FLASHONLY|Rotation=180.000|XOffset=0mm|YOffset=0mm|HoleType=Round|Shape=RoundedRectangle|*
%AMROUNDEDRECTD50*
21,1,2.3016,2.4000,0,0,180.0*
21,1,1.1000,3.6016,0,0,180.0*
1,1,1.2016,-0.5500,1.2000*
1,1,1.2016,0.5500,1.2000*
1,1,1.2016,0.5500,-1.2000*
1,1,1.2016,-0.5500,-1.2000*
%
%ADD50ROUNDEDRECTD50*%
G04:AMPARAMS|DCode=51|XSize=2.4016mm|YSize=5.7016mm|CornerRadius=0.6258mm|HoleSize=0mm|Usage=FLASHONLY|Rotation=90.000|XOffset=0mm|YOffset=0mm|HoleType=Round|Shape=RoundedRectangle|*
%AMROUNDEDRECTD51*
21,1,2.4016,4.4500,0,0,90.0*
21,1,1.1500,5.7016,0,0,90.0*
1,1,1.2516,2.2250,0.5750*
1,1,1.2516,2.2250,-0.5750*
1,1,1.2516,-2.2250,-0.5750*
1,1,1.2516,-2.2250,0.5750*
%
%ADD51ROUNDEDRECTD51*%
G04:AMPARAMS|DCode=52|XSize=2.6016mm|YSize=2.6016mm|CornerRadius=0.6758mm|HoleSize=0mm|Usage=FLASHONLY|Rotation=90.000|XOffset=0mm|YOffset=0mm|HoleType=Round|Shape=RoundedRectangle|*
%AMROUNDEDRECTD52*
21,1,2.6016,1.2500,0,0,90.0*
21,1,1.2500,2.6016,0,0,90.0*
1,1,1.3516,0.6250,0.6250*
1,1,1.3516,0.6250,-0.6250*
1,1,1.3516,-0.6250,-0.6250*
1,1,1.3516,-0.6250,0.6250*
%
%ADD52ROUNDEDRECTD52*%
%ADD53R,1.4016X1.2016*%
G04:AMPARAMS|DCode=54|XSize=1.9016mm|YSize=1.9016mm|CornerRadius=0.5008mm|HoleSize=0mm|Usage=FLASHONLY|Rotation=90.000|XOffset=0mm|YOffset=0mm|HoleType=Round|Shape=RoundedRectangle|*
%AMROUNDEDRECTD54*
21,1,1.9016,0.9000,0,0,90.0*
21,1,0.9000,1.9016,0,0,90.0*
1,1,1.0016,0.4500,0.4500*
1,1,1.0016,0.4500,-0.4500*
1,1,1.0016,-0.4500,-0.4500*
1,1,1.0016,-0.4500,0.4500*
%
%ADD54ROUNDEDRECTD54*%
G04:AMPARAMS|DCode=55|XSize=1.9016mm|YSize=1.9016mm|CornerRadius=0.5008mm|HoleSize=0mm|Usage=FLASHONLY|Rotation=0.000|XOffset=0mm|YOffset=0mm|HoleType=Round|Shape=RoundedRectangle|*
%AMROUNDEDRECTD55*
21,1,1.9016,0.9000,0,0,0.0*
21,1,0.9000,1.9016,0,0,0.0*
1,1,1.0016,0.4500,-0.4500*
1,1,1.0016,-0.4500,-0.4500*
1,1,1.0016,-0.4500,0.4500*
1,1,1.0016,0.4500,0.4500*
%
%ADD55ROUNDEDRECTD55*%
G04:AMPARAMS|DCode=56|XSize=1.9016mm|YSize=2.7016mm|CornerRadius=0.5008mm|HoleSize=0mm|Usage=FLASHONLY|Rotation=90.000|XOffset=0mm|YOffset=0mm|HoleType=Round|Shape=RoundedRectangle|*
%AMROUNDEDRECTD56*
21,1,1.9016,1.7000,0,0,90.0*
21,1,0.9000,2.7016,0,0,90.0*
1,1,1.0016,0.8500,0.4500*
1,1,1.0016,0.8500,-0.4500*
1,1,1.0016,-0.8500,-0.4500*
1,1,1.0016,-0.8500,0.4500*
%
%ADD56ROUNDEDRECTD56*%
G04:AMPARAMS|DCode=57|XSize=1.9016mm|YSize=2.7016mm|CornerRadius=0.5008mm|HoleSize=0mm|Usage=FLASHONLY|Rotation=0.000|XOffset=0mm|YOffset=0mm|HoleType=Round|Shape=RoundedRectangle|*
%AMROUNDEDRECTD57*
21,1,1.9016,1.7000,0,0,0.0*
21,1,0.9000,2.7016,0,0,0.0*
1,1,1.0016,0.4500,-0.8500*
1,1,1.0016,-0.4500,-0.8500*
1,1,1.0016,-0.4500,0.8500*
1,1,1.0016,0.4500,0.8500*
%
%ADD57ROUNDEDRECTD57*%
%ADD58C,3.1016*%
%ADD59C,2.1016*%
G04:AMPARAMS|DCode=60|XSize=2.1016mm|YSize=2.1016mm|CornerRadius=0.5508mm|HoleSize=0mm|Usage=FLASHONLY|Rotation=180.000|XOffset=0mm|YOffset=0mm|HoleType=Round|Shape=RoundedRectangle|*
%AMROUNDEDRECTD60*
21,1,2.1016,1.0000,0,0,180.0*
21,1,1.0000,2.1016,0,0,180.0*
1,1,1.1016,-0.5000,0.5000*
1,1,1.1016,0.5000,0.5000*
1,1,1.1016,0.5000,-0.5000*
1,1,1.1016,-0.5000,-0.5000*
%
%ADD60ROUNDEDRECTD60*%
%ADD61C,1.8016*%
%ADD62R,1.8016X1.8016*%
%ADD63C,6.7016*%
%ADD64C,2.3416*%
G04:AMPARAMS|DCode=65|XSize=2.3416mm|YSize=2.3416mm|CornerRadius=0.6108mm|HoleSize=0mm|Usage=FLASHONLY|Rotation=90.000|XOffset=0mm|YOffset=0mm|HoleType=Round|Shape=RoundedRectangle|*
%AMROUNDEDRECTD65*
21,1,2.3416,1.1200,0,0,90.0*
21,1,1.1200,2.3416,0,0,90.0*
1,1,1.2216,0.5600,0.5600*
1,1,1.2216,0.5600,-0.5600*
1,1,1.2216,-0.5600,-0.5600*
1,1,1.2216,-0.5600,0.5600*
%
%ADD65ROUNDEDRECTD65*%
%ADD66C,1.3716*%
%ADD67C,0.4572*%
D17*
X638795Y170180D02*
Y294386D01*
D18*
X652197Y298408D02*
X732092D01*
Y166370D02*
Y298408D01*
X652197Y166370D02*
X732092D01*
X652197D02*
Y298408D01*
D21*
X1063840Y424650D02*
D03*
X1074840D02*
D03*
Y451650D02*
D03*
X1063840D02*
D03*
D22*
X1069340Y438150D02*
D03*
D39*
X1052500Y390500D02*
D03*
X1067500D02*
D03*
D40*
X1126370Y449012D02*
D03*
X1126380Y426238D02*
D03*
X1106370Y404012D02*
D03*
X1087370D02*
D03*
X1107380Y426238D02*
D03*
X1107370Y449012D02*
D03*
D41*
X1055840Y450650D02*
D03*
Y445650D02*
D03*
Y440650D02*
D03*
Y435650D02*
D03*
Y430650D02*
D03*
Y425650D02*
D03*
X1082840D02*
D03*
Y430650D02*
D03*
Y435650D02*
D03*
Y440650D02*
D03*
Y445650D02*
D03*
Y450650D02*
D03*
D42*
X1094740Y312420D02*
D03*
X1018540D02*
D03*
Y250220D02*
D03*
X1094740D02*
D03*
D43*
X792320Y229260D02*
D03*
Y248260D02*
D03*
X772320Y238760D02*
D03*
D44*
X879730Y226260D02*
D03*
Y251260D02*
D03*
X834230D02*
D03*
Y226260D02*
D03*
D45*
X740923Y175260D02*
D03*
X643377D02*
D03*
X740913Y187960D02*
D03*
Y200660D02*
D03*
Y213360D02*
D03*
Y226060D02*
D03*
Y238760D02*
D03*
Y251460D02*
D03*
Y264160D02*
D03*
Y276860D02*
D03*
Y289560D02*
D03*
X643377Y187960D02*
D03*
Y200660D02*
D03*
Y213360D02*
D03*
Y226060D02*
D03*
Y238760D02*
D03*
Y251460D02*
D03*
Y264160D02*
D03*
Y276860D02*
D03*
D46*
Y289560D02*
D03*
D47*
X441960Y549910D02*
D03*
Y532910D02*
D03*
X1048620Y550410D02*
D03*
Y533410D02*
D03*
X1096010Y549910D02*
D03*
Y532910D02*
D03*
X1110750Y363750D02*
D03*
Y346750D02*
D03*
X1125880Y312420D02*
D03*
Y295420D02*
D03*
X1078230Y198560D02*
D03*
Y181560D02*
D03*
D48*
X846827Y299180D02*
D03*
Y280180D02*
D03*
X300157Y137700D02*
D03*
Y156700D02*
D03*
X270157Y137700D02*
D03*
Y156700D02*
D03*
X240157Y137700D02*
D03*
Y156700D02*
D03*
X210157Y137700D02*
D03*
Y156700D02*
D03*
X424442Y551532D02*
D03*
Y532533D02*
D03*
X1030840Y551532D02*
D03*
Y532533D02*
D03*
X1078492Y551532D02*
D03*
Y532533D02*
D03*
X1029708Y474440D02*
D03*
Y455440D02*
D03*
X1130262Y350265D02*
D03*
Y369265D02*
D03*
X1018383Y369030D02*
D03*
Y350030D02*
D03*
X876592Y299180D02*
D03*
Y280180D02*
D03*
X856906Y178825D02*
D03*
Y197824D02*
D03*
X886672Y178825D02*
D03*
Y197824D02*
D03*
X906358Y299180D02*
D03*
Y280180D02*
D03*
X814476Y197580D02*
D03*
Y178580D02*
D03*
X777296Y299180D02*
D03*
Y280180D02*
D03*
X807061Y299180D02*
D03*
Y280180D02*
D03*
X604942Y169450D02*
D03*
Y188450D02*
D03*
X582082Y208820D02*
D03*
Y227820D02*
D03*
X604942Y208820D02*
D03*
Y227820D02*
D03*
X782320Y197580D02*
D03*
Y178580D02*
D03*
X582082Y169450D02*
D03*
Y188450D02*
D03*
D49*
X604520Y424770D02*
D03*
Y392270D02*
D03*
D50*
X1050110Y358885D02*
D03*
X1086110D02*
D03*
D51*
X983250Y134010D02*
D03*
Y207010D02*
D03*
D52*
X1043940Y198560D02*
D03*
Y146560D02*
D03*
D53*
X1101090Y198560D02*
D03*
Y166560D02*
D03*
D54*
X604295Y323690D02*
D03*
Y356190D02*
D03*
D55*
X1062598Y472440D02*
D03*
X1095098D02*
D03*
D56*
X1019000Y430400D02*
D03*
Y397900D02*
D03*
D57*
X1165180Y250220D02*
D03*
X1132680D02*
D03*
X1165180Y211415D02*
D03*
X1132680D02*
D03*
X1165180Y172610D02*
D03*
X1132680D02*
D03*
X1165180Y133805D02*
D03*
X1132680D02*
D03*
X1165180Y95000D02*
D03*
X1132680D02*
D03*
D58*
X201500Y51800D02*
D03*
X338500D02*
D03*
X983871Y51800D02*
D03*
X1060871D02*
D03*
D59*
X300000Y95000D02*
D03*
X270000D02*
D03*
X240000D02*
D03*
X210000D02*
D03*
X330000D02*
D03*
X360000D02*
D03*
X1082371Y95000D02*
D03*
X1052371D02*
D03*
X1022371D02*
D03*
X992371D02*
D03*
D60*
X180000Y95000D02*
D03*
X962371Y95000D02*
D03*
D61*
X683037Y61270D02*
D03*
X708437D02*
D03*
X733837D02*
D03*
X759237D02*
D03*
X784637D02*
D03*
X810037D02*
D03*
X835437D02*
D03*
X74803Y125692D02*
D03*
X49403Y278600D02*
D03*
Y253200D02*
D03*
Y227800D02*
D03*
Y202400D02*
D03*
Y177000D02*
D03*
Y151600D02*
D03*
Y126200D02*
D03*
X74803Y151600D02*
D03*
Y177000D02*
D03*
Y202400D02*
D03*
Y227800D02*
D03*
Y253200D02*
D03*
Y278600D02*
D03*
Y304000D02*
D03*
X49403D02*
D03*
X505237Y542302D02*
D03*
X606837Y61270D02*
D03*
X581437D02*
D03*
X556037D02*
D03*
X530637D02*
D03*
X505237D02*
D03*
X632237D02*
D03*
X683037Y542302D02*
D03*
X657637D02*
D03*
X632237D02*
D03*
X606837D02*
D03*
X581437D02*
D03*
X556037D02*
D03*
X530637D02*
D03*
X723321D02*
D03*
X748721D02*
D03*
X774121D02*
D03*
X799521D02*
D03*
X824921D02*
D03*
X850321D02*
D03*
X875721D02*
D03*
X901121D02*
D03*
X926521D02*
D03*
X951921D02*
D03*
D62*
X860837Y61270D02*
D03*
D63*
X51931Y41270D02*
D03*
Y561270D02*
D03*
X1241931Y41270D02*
D03*
Y561270D02*
D03*
D64*
X654050Y361950D02*
D03*
Y412750D02*
D03*
X730250D02*
D03*
D65*
Y336550D02*
D03*
D66*
X515750Y356190D02*
D03*
Y188356D02*
D03*
D67*
X1064340Y443150D02*
D03*
Y438150D02*
D03*
X1074340Y433150D02*
D03*
X1069340D02*
D03*
X1064340D02*
D03*
X1074340Y438150D02*
D03*
Y443150D02*
D03*
X1069340D02*
D03*
Y438150D02*
D03*
M02*
