%TF.GenerationSoftware,KiCad,Pcbnew,(6.0.11)*%
%TF.CreationDate,2023-07-31T18:46:06+10:00*%
%TF.ProjectId,LVBMS_A_Sample_R2,4c56424d-535f-4415-9f53-616d706c655f,1*%
%TF.SameCoordinates,Original*%
%TF.FileFunction,AssemblyDrawing,Top*%
%FSLAX46Y46*%
G04 Gerber Fmt 4.6, Leading zero omitted, Abs format (unit mm)*
G04 Created by KiCad (PCBNEW (6.0.11)) date 2023-07-31 18:46:06*
%MOMM*%
%LPD*%
G01*
G04 APERTURE LIST*
%ADD10C,0.200000*%
%ADD11C,0.400000*%
%ADD12C,0.150000*%
%ADD13C,0.100000*%
G04 APERTURE END LIST*
D10*
X115681285Y-44051571D02*
X115681285Y-42551571D01*
X116538428Y-44051571D01*
X116538428Y-42551571D01*
X117467000Y-44051571D02*
X117324143Y-43980142D01*
X117252714Y-43908714D01*
X117181285Y-43765857D01*
X117181285Y-43337285D01*
X117252714Y-43194428D01*
X117324143Y-43123000D01*
X117467000Y-43051571D01*
X117681285Y-43051571D01*
X117824143Y-43123000D01*
X117895571Y-43194428D01*
X117967000Y-43337285D01*
X117967000Y-43765857D01*
X117895571Y-43908714D01*
X117824143Y-43980142D01*
X117681285Y-44051571D01*
X117467000Y-44051571D01*
X115681285Y-39836571D02*
X115681285Y-38336571D01*
X116538428Y-39836571D01*
X116538428Y-38336571D01*
X117467000Y-39836571D02*
X117324143Y-39765142D01*
X117252714Y-39693714D01*
X117181285Y-39550857D01*
X117181285Y-39122285D01*
X117252714Y-38979428D01*
X117324143Y-38908000D01*
X117467000Y-38836571D01*
X117681285Y-38836571D01*
X117824143Y-38908000D01*
X117895571Y-38979428D01*
X117967000Y-39122285D01*
X117967000Y-39550857D01*
X117895571Y-39693714D01*
X117824143Y-39765142D01*
X117681285Y-39836571D01*
X117467000Y-39836571D01*
X116467000Y-27191571D02*
X115609857Y-27191571D01*
X116038428Y-27191571D02*
X116038428Y-25691571D01*
X115895571Y-25905857D01*
X115752714Y-26048714D01*
X115609857Y-26120142D01*
X117109857Y-27048714D02*
X117181285Y-27120142D01*
X117109857Y-27191571D01*
X117038428Y-27120142D01*
X117109857Y-27048714D01*
X117109857Y-27191571D01*
X118467000Y-25691571D02*
X118181285Y-25691571D01*
X118038428Y-25763000D01*
X117967000Y-25834428D01*
X117824143Y-26048714D01*
X117752714Y-26334428D01*
X117752714Y-26905857D01*
X117824143Y-27048714D01*
X117895571Y-27120142D01*
X118038428Y-27191571D01*
X118324143Y-27191571D01*
X118467000Y-27120142D01*
X118538428Y-27048714D01*
X118609857Y-26905857D01*
X118609857Y-26548714D01*
X118538428Y-26405857D01*
X118467000Y-26334428D01*
X118324143Y-26263000D01*
X118038428Y-26263000D01*
X117895571Y-26334428D01*
X117824143Y-26405857D01*
X117752714Y-26548714D01*
X119538428Y-25691571D02*
X119681285Y-25691571D01*
X119824143Y-25763000D01*
X119895571Y-25834428D01*
X119967000Y-25977285D01*
X120038428Y-26263000D01*
X120038428Y-26620142D01*
X119967000Y-26905857D01*
X119895571Y-27048714D01*
X119824143Y-27120142D01*
X119681285Y-27191571D01*
X119538428Y-27191571D01*
X119395571Y-27120142D01*
X119324143Y-27048714D01*
X119252714Y-26905857D01*
X119181285Y-26620142D01*
X119181285Y-26263000D01*
X119252714Y-25977285D01*
X119324143Y-25834428D01*
X119395571Y-25763000D01*
X119538428Y-25691571D01*
X120967000Y-25691571D02*
X121109857Y-25691571D01*
X121252714Y-25763000D01*
X121324143Y-25834428D01*
X121395571Y-25977285D01*
X121467000Y-26263000D01*
X121467000Y-26620142D01*
X121395571Y-26905857D01*
X121324143Y-27048714D01*
X121252714Y-27120142D01*
X121109857Y-27191571D01*
X120967000Y-27191571D01*
X120824143Y-27120142D01*
X120752714Y-27048714D01*
X120681285Y-26905857D01*
X120609857Y-26620142D01*
X120609857Y-26263000D01*
X120681285Y-25977285D01*
X120752714Y-25834428D01*
X120824143Y-25763000D01*
X120967000Y-25691571D01*
X122395571Y-25691571D02*
X122538428Y-25691571D01*
X122681285Y-25763000D01*
X122752714Y-25834428D01*
X122824143Y-25977285D01*
X122895571Y-26263000D01*
X122895571Y-26620142D01*
X122824143Y-26905857D01*
X122752714Y-27048714D01*
X122681285Y-27120142D01*
X122538428Y-27191571D01*
X122395571Y-27191571D01*
X122252714Y-27120142D01*
X122181285Y-27048714D01*
X122109857Y-26905857D01*
X122038428Y-26620142D01*
X122038428Y-26263000D01*
X122109857Y-25977285D01*
X122181285Y-25834428D01*
X122252714Y-25763000D01*
X122395571Y-25691571D01*
X124681285Y-27191571D02*
X124681285Y-26191571D01*
X124681285Y-26334428D02*
X124752714Y-26263000D01*
X124895571Y-26191571D01*
X125109857Y-26191571D01*
X125252714Y-26263000D01*
X125324143Y-26405857D01*
X125324143Y-27191571D01*
X125324143Y-26405857D02*
X125395571Y-26263000D01*
X125538428Y-26191571D01*
X125752714Y-26191571D01*
X125895571Y-26263000D01*
X125967000Y-26405857D01*
X125967000Y-27191571D01*
X126681285Y-27191571D02*
X126681285Y-26191571D01*
X126681285Y-26334428D02*
X126752714Y-26263000D01*
X126895571Y-26191571D01*
X127109857Y-26191571D01*
X127252714Y-26263000D01*
X127324143Y-26405857D01*
X127324143Y-27191571D01*
X127324143Y-26405857D02*
X127395571Y-26263000D01*
X127538428Y-26191571D01*
X127752714Y-26191571D01*
X127895571Y-26263000D01*
X127967000Y-26405857D01*
X127967000Y-27191571D01*
X90838428Y-44051571D02*
X90838428Y-42551571D01*
X91409857Y-42551571D01*
X91552714Y-42623000D01*
X91624143Y-42694428D01*
X91695571Y-42837285D01*
X91695571Y-43051571D01*
X91624143Y-43194428D01*
X91552714Y-43265857D01*
X91409857Y-43337285D01*
X90838428Y-43337285D01*
X92552714Y-44051571D02*
X92409857Y-43980142D01*
X92338428Y-43837285D01*
X92338428Y-42551571D01*
X93767000Y-44051571D02*
X93767000Y-43265857D01*
X93695571Y-43123000D01*
X93552714Y-43051571D01*
X93267000Y-43051571D01*
X93124143Y-43123000D01*
X93767000Y-43980142D02*
X93624143Y-44051571D01*
X93267000Y-44051571D01*
X93124143Y-43980142D01*
X93052714Y-43837285D01*
X93052714Y-43694428D01*
X93124143Y-43551571D01*
X93267000Y-43480142D01*
X93624143Y-43480142D01*
X93767000Y-43408714D01*
X94267000Y-43051571D02*
X94838428Y-43051571D01*
X94481286Y-42551571D02*
X94481286Y-43837285D01*
X94552714Y-43980142D01*
X94695571Y-44051571D01*
X94838428Y-44051571D01*
X95909857Y-43980142D02*
X95767000Y-44051571D01*
X95481286Y-44051571D01*
X95338428Y-43980142D01*
X95267000Y-43837285D01*
X95267000Y-43265857D01*
X95338428Y-43123000D01*
X95481286Y-43051571D01*
X95767000Y-43051571D01*
X95909857Y-43123000D01*
X95981286Y-43265857D01*
X95981286Y-43408714D01*
X95267000Y-43551571D01*
X97267000Y-44051571D02*
X97267000Y-42551571D01*
X97267000Y-43980142D02*
X97124143Y-44051571D01*
X96838428Y-44051571D01*
X96695571Y-43980142D01*
X96624143Y-43908714D01*
X96552714Y-43765857D01*
X96552714Y-43337285D01*
X96624143Y-43194428D01*
X96695571Y-43123000D01*
X96838428Y-43051571D01*
X97124143Y-43051571D01*
X97267000Y-43123000D01*
X99624143Y-43265857D02*
X99838428Y-43337285D01*
X99909857Y-43408714D01*
X99981286Y-43551571D01*
X99981286Y-43765857D01*
X99909857Y-43908714D01*
X99838428Y-43980142D01*
X99695571Y-44051571D01*
X99124143Y-44051571D01*
X99124143Y-42551571D01*
X99624143Y-42551571D01*
X99767000Y-42623000D01*
X99838428Y-42694428D01*
X99909857Y-42837285D01*
X99909857Y-42980142D01*
X99838428Y-43123000D01*
X99767000Y-43194428D01*
X99624143Y-43265857D01*
X99124143Y-43265857D01*
X100838428Y-44051571D02*
X100695571Y-43980142D01*
X100624143Y-43908714D01*
X100552714Y-43765857D01*
X100552714Y-43337285D01*
X100624143Y-43194428D01*
X100695571Y-43123000D01*
X100838428Y-43051571D01*
X101052714Y-43051571D01*
X101195571Y-43123000D01*
X101267000Y-43194428D01*
X101338428Y-43337285D01*
X101338428Y-43765857D01*
X101267000Y-43908714D01*
X101195571Y-43980142D01*
X101052714Y-44051571D01*
X100838428Y-44051571D01*
X102624143Y-44051571D02*
X102624143Y-43265857D01*
X102552714Y-43123000D01*
X102409857Y-43051571D01*
X102124143Y-43051571D01*
X101981286Y-43123000D01*
X102624143Y-43980142D02*
X102481286Y-44051571D01*
X102124143Y-44051571D01*
X101981286Y-43980142D01*
X101909857Y-43837285D01*
X101909857Y-43694428D01*
X101981286Y-43551571D01*
X102124143Y-43480142D01*
X102481286Y-43480142D01*
X102624143Y-43408714D01*
X103338428Y-44051571D02*
X103338428Y-43051571D01*
X103338428Y-43337285D02*
X103409857Y-43194428D01*
X103481286Y-43123000D01*
X103624143Y-43051571D01*
X103767000Y-43051571D01*
X104909857Y-44051571D02*
X104909857Y-42551571D01*
X104909857Y-43980142D02*
X104767000Y-44051571D01*
X104481286Y-44051571D01*
X104338428Y-43980142D01*
X104267000Y-43908714D01*
X104195571Y-43765857D01*
X104195571Y-43337285D01*
X104267000Y-43194428D01*
X104338428Y-43123000D01*
X104481286Y-43051571D01*
X104767000Y-43051571D01*
X104909857Y-43123000D01*
X106767000Y-43265857D02*
X107267000Y-43265857D01*
X107481286Y-44051571D02*
X106767000Y-44051571D01*
X106767000Y-42551571D01*
X107481286Y-42551571D01*
X108767000Y-44051571D02*
X108767000Y-42551571D01*
X108767000Y-43980142D02*
X108624143Y-44051571D01*
X108338428Y-44051571D01*
X108195571Y-43980142D01*
X108124143Y-43908714D01*
X108052714Y-43765857D01*
X108052714Y-43337285D01*
X108124143Y-43194428D01*
X108195571Y-43123000D01*
X108338428Y-43051571D01*
X108624143Y-43051571D01*
X108767000Y-43123000D01*
X110124143Y-43051571D02*
X110124143Y-44265857D01*
X110052714Y-44408714D01*
X109981286Y-44480142D01*
X109838428Y-44551571D01*
X109624143Y-44551571D01*
X109481286Y-44480142D01*
X110124143Y-43980142D02*
X109981286Y-44051571D01*
X109695571Y-44051571D01*
X109552714Y-43980142D01*
X109481286Y-43908714D01*
X109409857Y-43765857D01*
X109409857Y-43337285D01*
X109481286Y-43194428D01*
X109552714Y-43123000D01*
X109695571Y-43051571D01*
X109981286Y-43051571D01*
X110124143Y-43123000D01*
X111409857Y-43980142D02*
X111267000Y-44051571D01*
X110981286Y-44051571D01*
X110838428Y-43980142D01*
X110767000Y-43837285D01*
X110767000Y-43265857D01*
X110838428Y-43123000D01*
X110981286Y-43051571D01*
X111267000Y-43051571D01*
X111409857Y-43123000D01*
X111481286Y-43265857D01*
X111481286Y-43408714D01*
X110767000Y-43551571D01*
X112124143Y-43908714D02*
X112195571Y-43980142D01*
X112124143Y-44051571D01*
X112052714Y-43980142D01*
X112124143Y-43908714D01*
X112124143Y-44051571D01*
X112124143Y-43123000D02*
X112195571Y-43194428D01*
X112124143Y-43265857D01*
X112052714Y-43194428D01*
X112124143Y-43123000D01*
X112124143Y-43265857D01*
X90838428Y-39836571D02*
X90838428Y-38336571D01*
X91552714Y-39836571D02*
X91552714Y-38836571D01*
X91552714Y-38979428D02*
X91624143Y-38908000D01*
X91767000Y-38836571D01*
X91981286Y-38836571D01*
X92124143Y-38908000D01*
X92195571Y-39050857D01*
X92195571Y-39836571D01*
X92195571Y-39050857D02*
X92267000Y-38908000D01*
X92409857Y-38836571D01*
X92624143Y-38836571D01*
X92767000Y-38908000D01*
X92838428Y-39050857D01*
X92838428Y-39836571D01*
X93552714Y-38836571D02*
X93552714Y-40336571D01*
X93552714Y-38908000D02*
X93695571Y-38836571D01*
X93981286Y-38836571D01*
X94124143Y-38908000D01*
X94195571Y-38979428D01*
X94267000Y-39122285D01*
X94267000Y-39550857D01*
X94195571Y-39693714D01*
X94124143Y-39765142D01*
X93981286Y-39836571D01*
X93695571Y-39836571D01*
X93552714Y-39765142D01*
X95481286Y-39765142D02*
X95338428Y-39836571D01*
X95052714Y-39836571D01*
X94909857Y-39765142D01*
X94838428Y-39622285D01*
X94838428Y-39050857D01*
X94909857Y-38908000D01*
X95052714Y-38836571D01*
X95338428Y-38836571D01*
X95481286Y-38908000D01*
X95552714Y-39050857D01*
X95552714Y-39193714D01*
X94838428Y-39336571D01*
X96838428Y-39836571D02*
X96838428Y-38336571D01*
X96838428Y-39765142D02*
X96695571Y-39836571D01*
X96409857Y-39836571D01*
X96267000Y-39765142D01*
X96195571Y-39693714D01*
X96124143Y-39550857D01*
X96124143Y-39122285D01*
X96195571Y-38979428D01*
X96267000Y-38908000D01*
X96409857Y-38836571D01*
X96695571Y-38836571D01*
X96838428Y-38908000D01*
X98195571Y-39836571D02*
X98195571Y-39050857D01*
X98124143Y-38908000D01*
X97981286Y-38836571D01*
X97695571Y-38836571D01*
X97552714Y-38908000D01*
X98195571Y-39765142D02*
X98052714Y-39836571D01*
X97695571Y-39836571D01*
X97552714Y-39765142D01*
X97481286Y-39622285D01*
X97481286Y-39479428D01*
X97552714Y-39336571D01*
X97695571Y-39265142D01*
X98052714Y-39265142D01*
X98195571Y-39193714D01*
X98909857Y-38836571D02*
X98909857Y-39836571D01*
X98909857Y-38979428D02*
X98981286Y-38908000D01*
X99124143Y-38836571D01*
X99338428Y-38836571D01*
X99481286Y-38908000D01*
X99552714Y-39050857D01*
X99552714Y-39836571D01*
X100909857Y-39765142D02*
X100767000Y-39836571D01*
X100481286Y-39836571D01*
X100338428Y-39765142D01*
X100267000Y-39693714D01*
X100195571Y-39550857D01*
X100195571Y-39122285D01*
X100267000Y-38979428D01*
X100338428Y-38908000D01*
X100481286Y-38836571D01*
X100767000Y-38836571D01*
X100909857Y-38908000D01*
X102124143Y-39765142D02*
X101981286Y-39836571D01*
X101695571Y-39836571D01*
X101552714Y-39765142D01*
X101481286Y-39622285D01*
X101481286Y-39050857D01*
X101552714Y-38908000D01*
X101695571Y-38836571D01*
X101981286Y-38836571D01*
X102124143Y-38908000D01*
X102195571Y-39050857D01*
X102195571Y-39193714D01*
X101481286Y-39336571D01*
X104838428Y-39693714D02*
X104767000Y-39765142D01*
X104552714Y-39836571D01*
X104409857Y-39836571D01*
X104195571Y-39765142D01*
X104052714Y-39622285D01*
X103981286Y-39479428D01*
X103909857Y-39193714D01*
X103909857Y-38979428D01*
X103981286Y-38693714D01*
X104052714Y-38550857D01*
X104195571Y-38408000D01*
X104409857Y-38336571D01*
X104552714Y-38336571D01*
X104767000Y-38408000D01*
X104838428Y-38479428D01*
X105695571Y-39836571D02*
X105552714Y-39765142D01*
X105481286Y-39693714D01*
X105409857Y-39550857D01*
X105409857Y-39122285D01*
X105481286Y-38979428D01*
X105552714Y-38908000D01*
X105695571Y-38836571D01*
X105909857Y-38836571D01*
X106052714Y-38908000D01*
X106124143Y-38979428D01*
X106195571Y-39122285D01*
X106195571Y-39550857D01*
X106124143Y-39693714D01*
X106052714Y-39765142D01*
X105909857Y-39836571D01*
X105695571Y-39836571D01*
X106838428Y-38836571D02*
X106838428Y-39836571D01*
X106838428Y-38979428D02*
X106909857Y-38908000D01*
X107052714Y-38836571D01*
X107267000Y-38836571D01*
X107409857Y-38908000D01*
X107481286Y-39050857D01*
X107481286Y-39836571D01*
X107981286Y-38836571D02*
X108552714Y-38836571D01*
X108195571Y-38336571D02*
X108195571Y-39622285D01*
X108267000Y-39765142D01*
X108409857Y-39836571D01*
X108552714Y-39836571D01*
X109052714Y-39836571D02*
X109052714Y-38836571D01*
X109052714Y-39122285D02*
X109124143Y-38979428D01*
X109195571Y-38908000D01*
X109338428Y-38836571D01*
X109481286Y-38836571D01*
X110195571Y-39836571D02*
X110052714Y-39765142D01*
X109981286Y-39693714D01*
X109909857Y-39550857D01*
X109909857Y-39122285D01*
X109981286Y-38979428D01*
X110052714Y-38908000D01*
X110195571Y-38836571D01*
X110409857Y-38836571D01*
X110552714Y-38908000D01*
X110624143Y-38979428D01*
X110695571Y-39122285D01*
X110695571Y-39550857D01*
X110624143Y-39693714D01*
X110552714Y-39765142D01*
X110409857Y-39836571D01*
X110195571Y-39836571D01*
X111552714Y-39836571D02*
X111409857Y-39765142D01*
X111338428Y-39622285D01*
X111338428Y-38336571D01*
X112124143Y-39693714D02*
X112195571Y-39765142D01*
X112124143Y-39836571D01*
X112052714Y-39765142D01*
X112124143Y-39693714D01*
X112124143Y-39836571D01*
X112124143Y-38908000D02*
X112195571Y-38979428D01*
X112124143Y-39050857D01*
X112052714Y-38979428D01*
X112124143Y-38908000D01*
X112124143Y-39050857D01*
X90838428Y-35621571D02*
X90838428Y-34121571D01*
X91338428Y-35193000D01*
X91838428Y-34121571D01*
X91838428Y-35621571D01*
X92552714Y-35621571D02*
X92552714Y-34621571D01*
X92552714Y-34121571D02*
X92481286Y-34193000D01*
X92552714Y-34264428D01*
X92624143Y-34193000D01*
X92552714Y-34121571D01*
X92552714Y-34264428D01*
X93267000Y-34621571D02*
X93267000Y-35621571D01*
X93267000Y-34764428D02*
X93338428Y-34693000D01*
X93481286Y-34621571D01*
X93695571Y-34621571D01*
X93838428Y-34693000D01*
X93909857Y-34835857D01*
X93909857Y-35621571D01*
X95767000Y-35621571D02*
X95767000Y-34121571D01*
X96409857Y-35621571D02*
X96409857Y-34835857D01*
X96338428Y-34693000D01*
X96195571Y-34621571D01*
X95981286Y-34621571D01*
X95838428Y-34693000D01*
X95767000Y-34764428D01*
X97338428Y-35621571D02*
X97195571Y-35550142D01*
X97124143Y-35478714D01*
X97052714Y-35335857D01*
X97052714Y-34907285D01*
X97124143Y-34764428D01*
X97195571Y-34693000D01*
X97338428Y-34621571D01*
X97552714Y-34621571D01*
X97695571Y-34693000D01*
X97767000Y-34764428D01*
X97838428Y-34907285D01*
X97838428Y-35335857D01*
X97767000Y-35478714D01*
X97695571Y-35550142D01*
X97552714Y-35621571D01*
X97338428Y-35621571D01*
X98695571Y-35621571D02*
X98552714Y-35550142D01*
X98481286Y-35407285D01*
X98481286Y-34121571D01*
X99838428Y-35550142D02*
X99695571Y-35621571D01*
X99409857Y-35621571D01*
X99267000Y-35550142D01*
X99195571Y-35407285D01*
X99195571Y-34835857D01*
X99267000Y-34693000D01*
X99409857Y-34621571D01*
X99695571Y-34621571D01*
X99838428Y-34693000D01*
X99909857Y-34835857D01*
X99909857Y-34978714D01*
X99195571Y-35121571D01*
X102338428Y-35621571D02*
X102338428Y-34121571D01*
X102338428Y-35550142D02*
X102195571Y-35621571D01*
X101909857Y-35621571D01*
X101767000Y-35550142D01*
X101695571Y-35478714D01*
X101624143Y-35335857D01*
X101624143Y-34907285D01*
X101695571Y-34764428D01*
X101767000Y-34693000D01*
X101909857Y-34621571D01*
X102195571Y-34621571D01*
X102338428Y-34693000D01*
X103052714Y-35621571D02*
X103052714Y-34621571D01*
X103052714Y-34121571D02*
X102981286Y-34193000D01*
X103052714Y-34264428D01*
X103124143Y-34193000D01*
X103052714Y-34121571D01*
X103052714Y-34264428D01*
X104409857Y-35621571D02*
X104409857Y-34835857D01*
X104338428Y-34693000D01*
X104195571Y-34621571D01*
X103909857Y-34621571D01*
X103767000Y-34693000D01*
X104409857Y-35550142D02*
X104267000Y-35621571D01*
X103909857Y-35621571D01*
X103767000Y-35550142D01*
X103695571Y-35407285D01*
X103695571Y-35264428D01*
X103767000Y-35121571D01*
X103909857Y-35050142D01*
X104267000Y-35050142D01*
X104409857Y-34978714D01*
X105124143Y-35621571D02*
X105124143Y-34621571D01*
X105124143Y-34764428D02*
X105195571Y-34693000D01*
X105338428Y-34621571D01*
X105552714Y-34621571D01*
X105695571Y-34693000D01*
X105767000Y-34835857D01*
X105767000Y-35621571D01*
X105767000Y-34835857D02*
X105838428Y-34693000D01*
X105981286Y-34621571D01*
X106195571Y-34621571D01*
X106338428Y-34693000D01*
X106409857Y-34835857D01*
X106409857Y-35621571D01*
X107695571Y-35550142D02*
X107552714Y-35621571D01*
X107267000Y-35621571D01*
X107124143Y-35550142D01*
X107052714Y-35407285D01*
X107052714Y-34835857D01*
X107124143Y-34693000D01*
X107267000Y-34621571D01*
X107552714Y-34621571D01*
X107695571Y-34693000D01*
X107767000Y-34835857D01*
X107767000Y-34978714D01*
X107052714Y-35121571D01*
X108195571Y-34621571D02*
X108767000Y-34621571D01*
X108409857Y-34121571D02*
X108409857Y-35407285D01*
X108481286Y-35550142D01*
X108624143Y-35621571D01*
X108767000Y-35621571D01*
X109838428Y-35550142D02*
X109695571Y-35621571D01*
X109409857Y-35621571D01*
X109267000Y-35550142D01*
X109195571Y-35407285D01*
X109195571Y-34835857D01*
X109267000Y-34693000D01*
X109409857Y-34621571D01*
X109695571Y-34621571D01*
X109838428Y-34693000D01*
X109909857Y-34835857D01*
X109909857Y-34978714D01*
X109195571Y-35121571D01*
X110552714Y-35621571D02*
X110552714Y-34621571D01*
X110552714Y-34907285D02*
X110624143Y-34764428D01*
X110695571Y-34693000D01*
X110838428Y-34621571D01*
X110981286Y-34621571D01*
X111481286Y-35478714D02*
X111552714Y-35550142D01*
X111481286Y-35621571D01*
X111409857Y-35550142D01*
X111481286Y-35478714D01*
X111481286Y-35621571D01*
X111481286Y-34693000D02*
X111552714Y-34764428D01*
X111481286Y-34835857D01*
X111409857Y-34764428D01*
X111481286Y-34693000D01*
X111481286Y-34835857D01*
X91338428Y-26405857D02*
X91552714Y-26477285D01*
X91624143Y-26548714D01*
X91695571Y-26691571D01*
X91695571Y-26905857D01*
X91624143Y-27048714D01*
X91552714Y-27120142D01*
X91409857Y-27191571D01*
X90838428Y-27191571D01*
X90838428Y-25691571D01*
X91338428Y-25691571D01*
X91481286Y-25763000D01*
X91552714Y-25834428D01*
X91624143Y-25977285D01*
X91624143Y-26120142D01*
X91552714Y-26263000D01*
X91481286Y-26334428D01*
X91338428Y-26405857D01*
X90838428Y-26405857D01*
X92552714Y-27191571D02*
X92409857Y-27120142D01*
X92338428Y-27048714D01*
X92267000Y-26905857D01*
X92267000Y-26477285D01*
X92338428Y-26334428D01*
X92409857Y-26263000D01*
X92552714Y-26191571D01*
X92767000Y-26191571D01*
X92909857Y-26263000D01*
X92981286Y-26334428D01*
X93052714Y-26477285D01*
X93052714Y-26905857D01*
X92981286Y-27048714D01*
X92909857Y-27120142D01*
X92767000Y-27191571D01*
X92552714Y-27191571D01*
X94338428Y-27191571D02*
X94338428Y-26405857D01*
X94267000Y-26263000D01*
X94124143Y-26191571D01*
X93838428Y-26191571D01*
X93695571Y-26263000D01*
X94338428Y-27120142D02*
X94195571Y-27191571D01*
X93838428Y-27191571D01*
X93695571Y-27120142D01*
X93624143Y-26977285D01*
X93624143Y-26834428D01*
X93695571Y-26691571D01*
X93838428Y-26620142D01*
X94195571Y-26620142D01*
X94338428Y-26548714D01*
X95052714Y-27191571D02*
X95052714Y-26191571D01*
X95052714Y-26477285D02*
X95124143Y-26334428D01*
X95195571Y-26263000D01*
X95338428Y-26191571D01*
X95481286Y-26191571D01*
X96624143Y-27191571D02*
X96624143Y-25691571D01*
X96624143Y-27120142D02*
X96481286Y-27191571D01*
X96195571Y-27191571D01*
X96052714Y-27120142D01*
X95981286Y-27048714D01*
X95909857Y-26905857D01*
X95909857Y-26477285D01*
X95981286Y-26334428D01*
X96052714Y-26263000D01*
X96195571Y-26191571D01*
X96481286Y-26191571D01*
X96624143Y-26263000D01*
X98267000Y-25691571D02*
X99124143Y-25691571D01*
X98695571Y-27191571D02*
X98695571Y-25691571D01*
X99624143Y-27191571D02*
X99624143Y-25691571D01*
X100267000Y-27191571D02*
X100267000Y-26405857D01*
X100195571Y-26263000D01*
X100052714Y-26191571D01*
X99838428Y-26191571D01*
X99695571Y-26263000D01*
X99624143Y-26334428D01*
X100981286Y-27191571D02*
X100981286Y-26191571D01*
X100981286Y-25691571D02*
X100909857Y-25763000D01*
X100981286Y-25834428D01*
X101052714Y-25763000D01*
X100981286Y-25691571D01*
X100981286Y-25834428D01*
X102338428Y-27120142D02*
X102195571Y-27191571D01*
X101909857Y-27191571D01*
X101767000Y-27120142D01*
X101695571Y-27048714D01*
X101624143Y-26905857D01*
X101624143Y-26477285D01*
X101695571Y-26334428D01*
X101767000Y-26263000D01*
X101909857Y-26191571D01*
X102195571Y-26191571D01*
X102338428Y-26263000D01*
X102981286Y-27191571D02*
X102981286Y-25691571D01*
X103124143Y-26620142D02*
X103552714Y-27191571D01*
X103552714Y-26191571D02*
X102981286Y-26763000D01*
X104195571Y-26191571D02*
X104195571Y-27191571D01*
X104195571Y-26334428D02*
X104267000Y-26263000D01*
X104409857Y-26191571D01*
X104624143Y-26191571D01*
X104767000Y-26263000D01*
X104838428Y-26405857D01*
X104838428Y-27191571D01*
X106124143Y-27120142D02*
X105981286Y-27191571D01*
X105695571Y-27191571D01*
X105552714Y-27120142D01*
X105481286Y-26977285D01*
X105481286Y-26405857D01*
X105552714Y-26263000D01*
X105695571Y-26191571D01*
X105981286Y-26191571D01*
X106124143Y-26263000D01*
X106195571Y-26405857D01*
X106195571Y-26548714D01*
X105481286Y-26691571D01*
X106767000Y-27120142D02*
X106909857Y-27191571D01*
X107195571Y-27191571D01*
X107338428Y-27120142D01*
X107409857Y-26977285D01*
X107409857Y-26905857D01*
X107338428Y-26763000D01*
X107195571Y-26691571D01*
X106981286Y-26691571D01*
X106838428Y-26620142D01*
X106767000Y-26477285D01*
X106767000Y-26405857D01*
X106838428Y-26263000D01*
X106981286Y-26191571D01*
X107195571Y-26191571D01*
X107338428Y-26263000D01*
X107981286Y-27120142D02*
X108124143Y-27191571D01*
X108409857Y-27191571D01*
X108552714Y-27120142D01*
X108624143Y-26977285D01*
X108624143Y-26905857D01*
X108552714Y-26763000D01*
X108409857Y-26691571D01*
X108195571Y-26691571D01*
X108052714Y-26620142D01*
X107981286Y-26477285D01*
X107981286Y-26405857D01*
X108052714Y-26263000D01*
X108195571Y-26191571D01*
X108409857Y-26191571D01*
X108552714Y-26263000D01*
X109267000Y-27048714D02*
X109338428Y-27120142D01*
X109267000Y-27191571D01*
X109195571Y-27120142D01*
X109267000Y-27048714D01*
X109267000Y-27191571D01*
X109267000Y-26263000D02*
X109338428Y-26334428D01*
X109267000Y-26405857D01*
X109195571Y-26334428D01*
X109267000Y-26263000D01*
X109267000Y-26405857D01*
X56781285Y-48266571D02*
X56781285Y-46766571D01*
X57638428Y-48266571D01*
X57638428Y-46766571D01*
X58567000Y-48266571D02*
X58424143Y-48195142D01*
X58352714Y-48123714D01*
X58281285Y-47980857D01*
X58281285Y-47552285D01*
X58352714Y-47409428D01*
X58424143Y-47338000D01*
X58567000Y-47266571D01*
X58781285Y-47266571D01*
X58924143Y-47338000D01*
X58995571Y-47409428D01*
X59067000Y-47552285D01*
X59067000Y-47980857D01*
X58995571Y-48123714D01*
X58924143Y-48195142D01*
X58781285Y-48266571D01*
X58567000Y-48266571D01*
X56781285Y-44051571D02*
X56781285Y-42551571D01*
X57638428Y-44051571D01*
X57638428Y-42551571D01*
X58567000Y-44051571D02*
X58424143Y-43980142D01*
X58352714Y-43908714D01*
X58281285Y-43765857D01*
X58281285Y-43337285D01*
X58352714Y-43194428D01*
X58424143Y-43123000D01*
X58567000Y-43051571D01*
X58781285Y-43051571D01*
X58924143Y-43123000D01*
X58995571Y-43194428D01*
X59067000Y-43337285D01*
X59067000Y-43765857D01*
X58995571Y-43908714D01*
X58924143Y-43980142D01*
X58781285Y-44051571D01*
X58567000Y-44051571D01*
X56781285Y-39050857D02*
X57281285Y-39050857D01*
X57495571Y-39836571D02*
X56781285Y-39836571D01*
X56781285Y-38336571D01*
X57495571Y-38336571D01*
X58138428Y-39836571D02*
X58138428Y-38336571D01*
X58995571Y-39836571D01*
X58995571Y-38336571D01*
X59709857Y-39836571D02*
X59709857Y-38336571D01*
X61209857Y-38408000D02*
X61067000Y-38336571D01*
X60852714Y-38336571D01*
X60638428Y-38408000D01*
X60495571Y-38550857D01*
X60424143Y-38693714D01*
X60352714Y-38979428D01*
X60352714Y-39193714D01*
X60424143Y-39479428D01*
X60495571Y-39622285D01*
X60638428Y-39765142D01*
X60852714Y-39836571D01*
X60995571Y-39836571D01*
X61209857Y-39765142D01*
X61281285Y-39693714D01*
X61281285Y-39193714D01*
X60995571Y-39193714D01*
X57067000Y-34121571D02*
X57209857Y-34121571D01*
X57352714Y-34193000D01*
X57424143Y-34264428D01*
X57495571Y-34407285D01*
X57567000Y-34693000D01*
X57567000Y-35050142D01*
X57495571Y-35335857D01*
X57424143Y-35478714D01*
X57352714Y-35550142D01*
X57209857Y-35621571D01*
X57067000Y-35621571D01*
X56924143Y-35550142D01*
X56852714Y-35478714D01*
X56781285Y-35335857D01*
X56709857Y-35050142D01*
X56709857Y-34693000D01*
X56781285Y-34407285D01*
X56852714Y-34264428D01*
X56924143Y-34193000D01*
X57067000Y-34121571D01*
X58209857Y-35478714D02*
X58281285Y-35550142D01*
X58209857Y-35621571D01*
X58138428Y-35550142D01*
X58209857Y-35478714D01*
X58209857Y-35621571D01*
X59209857Y-34121571D02*
X59352714Y-34121571D01*
X59495571Y-34193000D01*
X59567000Y-34264428D01*
X59638428Y-34407285D01*
X59709857Y-34693000D01*
X59709857Y-35050142D01*
X59638428Y-35335857D01*
X59567000Y-35478714D01*
X59495571Y-35550142D01*
X59352714Y-35621571D01*
X59209857Y-35621571D01*
X59067000Y-35550142D01*
X58995571Y-35478714D01*
X58924143Y-35335857D01*
X58852714Y-35050142D01*
X58852714Y-34693000D01*
X58924143Y-34407285D01*
X58995571Y-34264428D01*
X59067000Y-34193000D01*
X59209857Y-34121571D01*
X61067000Y-34121571D02*
X60352714Y-34121571D01*
X60281285Y-34835857D01*
X60352714Y-34764428D01*
X60495571Y-34693000D01*
X60852714Y-34693000D01*
X60995571Y-34764428D01*
X61067000Y-34835857D01*
X61138428Y-34978714D01*
X61138428Y-35335857D01*
X61067000Y-35478714D01*
X60995571Y-35550142D01*
X60852714Y-35621571D01*
X60495571Y-35621571D01*
X60352714Y-35550142D01*
X60281285Y-35478714D01*
X62067000Y-34121571D02*
X62209857Y-34121571D01*
X62352714Y-34193000D01*
X62424143Y-34264428D01*
X62495571Y-34407285D01*
X62567000Y-34693000D01*
X62567000Y-35050142D01*
X62495571Y-35335857D01*
X62424143Y-35478714D01*
X62352714Y-35550142D01*
X62209857Y-35621571D01*
X62067000Y-35621571D01*
X61924143Y-35550142D01*
X61852714Y-35478714D01*
X61781285Y-35335857D01*
X61709857Y-35050142D01*
X61709857Y-34693000D01*
X61781285Y-34407285D01*
X61852714Y-34264428D01*
X61924143Y-34193000D01*
X62067000Y-34121571D01*
X63424143Y-34764428D02*
X63281285Y-34693000D01*
X63209857Y-34621571D01*
X63138428Y-34478714D01*
X63138428Y-34407285D01*
X63209857Y-34264428D01*
X63281285Y-34193000D01*
X63424143Y-34121571D01*
X63709857Y-34121571D01*
X63852714Y-34193000D01*
X63924143Y-34264428D01*
X63995571Y-34407285D01*
X63995571Y-34478714D01*
X63924143Y-34621571D01*
X63852714Y-34693000D01*
X63709857Y-34764428D01*
X63424143Y-34764428D01*
X63281285Y-34835857D01*
X63209857Y-34907285D01*
X63138428Y-35050142D01*
X63138428Y-35335857D01*
X63209857Y-35478714D01*
X63281285Y-35550142D01*
X63424143Y-35621571D01*
X63709857Y-35621571D01*
X63852714Y-35550142D01*
X63924143Y-35478714D01*
X63995571Y-35335857D01*
X63995571Y-35050142D01*
X63924143Y-34907285D01*
X63852714Y-34835857D01*
X63709857Y-34764428D01*
X65781285Y-35621571D02*
X65781285Y-34621571D01*
X65781285Y-34764428D02*
X65852714Y-34693000D01*
X65995571Y-34621571D01*
X66209857Y-34621571D01*
X66352714Y-34693000D01*
X66424143Y-34835857D01*
X66424143Y-35621571D01*
X66424143Y-34835857D02*
X66495571Y-34693000D01*
X66638428Y-34621571D01*
X66852714Y-34621571D01*
X66995571Y-34693000D01*
X67067000Y-34835857D01*
X67067000Y-35621571D01*
X67781285Y-35621571D02*
X67781285Y-34621571D01*
X67781285Y-34764428D02*
X67852714Y-34693000D01*
X67995571Y-34621571D01*
X68209857Y-34621571D01*
X68352714Y-34693000D01*
X68424143Y-34835857D01*
X68424143Y-35621571D01*
X68424143Y-34835857D02*
X68495571Y-34693000D01*
X68638428Y-34621571D01*
X68852714Y-34621571D01*
X68995571Y-34693000D01*
X69067000Y-34835857D01*
X69067000Y-35621571D01*
X71995571Y-34050142D02*
X70709857Y-35978714D01*
X73924143Y-34121571D02*
X74067000Y-34121571D01*
X74209857Y-34193000D01*
X74281285Y-34264428D01*
X74352714Y-34407285D01*
X74424143Y-34693000D01*
X74424143Y-35050142D01*
X74352714Y-35335857D01*
X74281285Y-35478714D01*
X74209857Y-35550142D01*
X74067000Y-35621571D01*
X73924143Y-35621571D01*
X73781285Y-35550142D01*
X73709857Y-35478714D01*
X73638428Y-35335857D01*
X73567000Y-35050142D01*
X73567000Y-34693000D01*
X73638428Y-34407285D01*
X73709857Y-34264428D01*
X73781285Y-34193000D01*
X73924143Y-34121571D01*
X75067000Y-35478714D02*
X75138428Y-35550142D01*
X75067000Y-35621571D01*
X74995571Y-35550142D01*
X75067000Y-35478714D01*
X75067000Y-35621571D01*
X76067000Y-34121571D02*
X76209857Y-34121571D01*
X76352714Y-34193000D01*
X76424143Y-34264428D01*
X76495571Y-34407285D01*
X76567000Y-34693000D01*
X76567000Y-35050142D01*
X76495571Y-35335857D01*
X76424143Y-35478714D01*
X76352714Y-35550142D01*
X76209857Y-35621571D01*
X76067000Y-35621571D01*
X75924143Y-35550142D01*
X75852714Y-35478714D01*
X75781285Y-35335857D01*
X75709857Y-35050142D01*
X75709857Y-34693000D01*
X75781285Y-34407285D01*
X75852714Y-34264428D01*
X75924143Y-34193000D01*
X76067000Y-34121571D01*
X77924143Y-34121571D02*
X77209857Y-34121571D01*
X77138428Y-34835857D01*
X77209857Y-34764428D01*
X77352714Y-34693000D01*
X77709857Y-34693000D01*
X77852714Y-34764428D01*
X77924143Y-34835857D01*
X77995571Y-34978714D01*
X77995571Y-35335857D01*
X77924143Y-35478714D01*
X77852714Y-35550142D01*
X77709857Y-35621571D01*
X77352714Y-35621571D01*
X77209857Y-35550142D01*
X77138428Y-35478714D01*
X78924143Y-34121571D02*
X79067000Y-34121571D01*
X79209857Y-34193000D01*
X79281285Y-34264428D01*
X79352714Y-34407285D01*
X79424143Y-34693000D01*
X79424143Y-35050142D01*
X79352714Y-35335857D01*
X79281285Y-35478714D01*
X79209857Y-35550142D01*
X79067000Y-35621571D01*
X78924143Y-35621571D01*
X78781285Y-35550142D01*
X78709857Y-35478714D01*
X78638428Y-35335857D01*
X78567000Y-35050142D01*
X78567000Y-34693000D01*
X78638428Y-34407285D01*
X78709857Y-34264428D01*
X78781285Y-34193000D01*
X78924143Y-34121571D01*
X80281285Y-34764428D02*
X80138428Y-34693000D01*
X80067000Y-34621571D01*
X79995571Y-34478714D01*
X79995571Y-34407285D01*
X80067000Y-34264428D01*
X80138428Y-34193000D01*
X80281285Y-34121571D01*
X80567000Y-34121571D01*
X80709857Y-34193000D01*
X80781285Y-34264428D01*
X80852714Y-34407285D01*
X80852714Y-34478714D01*
X80781285Y-34621571D01*
X80709857Y-34693000D01*
X80567000Y-34764428D01*
X80281285Y-34764428D01*
X80138428Y-34835857D01*
X80067000Y-34907285D01*
X79995571Y-35050142D01*
X79995571Y-35335857D01*
X80067000Y-35478714D01*
X80138428Y-35550142D01*
X80281285Y-35621571D01*
X80567000Y-35621571D01*
X80709857Y-35550142D01*
X80781285Y-35478714D01*
X80852714Y-35335857D01*
X80852714Y-35050142D01*
X80781285Y-34907285D01*
X80709857Y-34835857D01*
X80567000Y-34764428D01*
X82638428Y-35621571D02*
X82638428Y-34621571D01*
X82638428Y-34764428D02*
X82709857Y-34693000D01*
X82852714Y-34621571D01*
X83067000Y-34621571D01*
X83209857Y-34693000D01*
X83281285Y-34835857D01*
X83281285Y-35621571D01*
X83281285Y-34835857D02*
X83352714Y-34693000D01*
X83495571Y-34621571D01*
X83709857Y-34621571D01*
X83852714Y-34693000D01*
X83924143Y-34835857D01*
X83924143Y-35621571D01*
X84638428Y-35621571D02*
X84638428Y-34621571D01*
X84638428Y-34764428D02*
X84709857Y-34693000D01*
X84852714Y-34621571D01*
X85067000Y-34621571D01*
X85209857Y-34693000D01*
X85281285Y-34835857D01*
X85281285Y-35621571D01*
X85281285Y-34835857D02*
X85352714Y-34693000D01*
X85495571Y-34621571D01*
X85709857Y-34621571D01*
X85852714Y-34693000D01*
X85924143Y-34835857D01*
X85924143Y-35621571D01*
X57424143Y-30406571D02*
X57424143Y-31406571D01*
X57067000Y-29835142D02*
X56709857Y-30906571D01*
X57638428Y-30906571D01*
X58424143Y-30549428D02*
X58281285Y-30478000D01*
X58209857Y-30406571D01*
X58138428Y-30263714D01*
X58138428Y-30192285D01*
X58209857Y-30049428D01*
X58281285Y-29978000D01*
X58424143Y-29906571D01*
X58709857Y-29906571D01*
X58852714Y-29978000D01*
X58924143Y-30049428D01*
X58995571Y-30192285D01*
X58995571Y-30263714D01*
X58924143Y-30406571D01*
X58852714Y-30478000D01*
X58709857Y-30549428D01*
X58424143Y-30549428D01*
X58281285Y-30620857D01*
X58209857Y-30692285D01*
X58138428Y-30835142D01*
X58138428Y-31120857D01*
X58209857Y-31263714D01*
X58281285Y-31335142D01*
X58424143Y-31406571D01*
X58709857Y-31406571D01*
X58852714Y-31335142D01*
X58924143Y-31263714D01*
X58995571Y-31120857D01*
X58995571Y-30835142D01*
X58924143Y-30692285D01*
X58852714Y-30620857D01*
X58709857Y-30549428D01*
X59638428Y-31263714D02*
X59709857Y-31335142D01*
X59638428Y-31406571D01*
X59567000Y-31335142D01*
X59638428Y-31263714D01*
X59638428Y-31406571D01*
X60281285Y-30049428D02*
X60352714Y-29978000D01*
X60495571Y-29906571D01*
X60852714Y-29906571D01*
X60995571Y-29978000D01*
X61067000Y-30049428D01*
X61138428Y-30192285D01*
X61138428Y-30335142D01*
X61067000Y-30549428D01*
X60209857Y-31406571D01*
X61138428Y-31406571D01*
X62067000Y-29906571D02*
X62209857Y-29906571D01*
X62352714Y-29978000D01*
X62424143Y-30049428D01*
X62495571Y-30192285D01*
X62567000Y-30478000D01*
X62567000Y-30835142D01*
X62495571Y-31120857D01*
X62424143Y-31263714D01*
X62352714Y-31335142D01*
X62209857Y-31406571D01*
X62067000Y-31406571D01*
X61924143Y-31335142D01*
X61852714Y-31263714D01*
X61781285Y-31120857D01*
X61709857Y-30835142D01*
X61709857Y-30478000D01*
X61781285Y-30192285D01*
X61852714Y-30049428D01*
X61924143Y-29978000D01*
X62067000Y-29906571D01*
X63281285Y-31406571D02*
X63567000Y-31406571D01*
X63709857Y-31335142D01*
X63781285Y-31263714D01*
X63924143Y-31049428D01*
X63995571Y-30763714D01*
X63995571Y-30192285D01*
X63924143Y-30049428D01*
X63852714Y-29978000D01*
X63709857Y-29906571D01*
X63424143Y-29906571D01*
X63281285Y-29978000D01*
X63209857Y-30049428D01*
X63138428Y-30192285D01*
X63138428Y-30549428D01*
X63209857Y-30692285D01*
X63281285Y-30763714D01*
X63424143Y-30835142D01*
X63709857Y-30835142D01*
X63852714Y-30763714D01*
X63924143Y-30692285D01*
X63995571Y-30549428D01*
X64567000Y-30049428D02*
X64638428Y-29978000D01*
X64781285Y-29906571D01*
X65138428Y-29906571D01*
X65281285Y-29978000D01*
X65352714Y-30049428D01*
X65424143Y-30192285D01*
X65424143Y-30335142D01*
X65352714Y-30549428D01*
X64495571Y-31406571D01*
X65424143Y-31406571D01*
X67209857Y-31406571D02*
X67209857Y-30406571D01*
X67209857Y-30549428D02*
X67281285Y-30478000D01*
X67424143Y-30406571D01*
X67638428Y-30406571D01*
X67781285Y-30478000D01*
X67852714Y-30620857D01*
X67852714Y-31406571D01*
X67852714Y-30620857D02*
X67924143Y-30478000D01*
X68067000Y-30406571D01*
X68281285Y-30406571D01*
X68424143Y-30478000D01*
X68495571Y-30620857D01*
X68495571Y-31406571D01*
X69209857Y-31406571D02*
X69209857Y-30406571D01*
X69209857Y-30549428D02*
X69281285Y-30478000D01*
X69424143Y-30406571D01*
X69638428Y-30406571D01*
X69781285Y-30478000D01*
X69852714Y-30620857D01*
X69852714Y-31406571D01*
X69852714Y-30620857D02*
X69924143Y-30478000D01*
X70067000Y-30406571D01*
X70281285Y-30406571D01*
X70424143Y-30478000D01*
X70495571Y-30620857D01*
X70495571Y-31406571D01*
X72209857Y-31406571D02*
X72995571Y-30406571D01*
X72209857Y-30406571D02*
X72995571Y-31406571D01*
X75424143Y-29906571D02*
X74709857Y-29906571D01*
X74638428Y-30620857D01*
X74709857Y-30549428D01*
X74852714Y-30478000D01*
X75209857Y-30478000D01*
X75352714Y-30549428D01*
X75424143Y-30620857D01*
X75495571Y-30763714D01*
X75495571Y-31120857D01*
X75424143Y-31263714D01*
X75352714Y-31335142D01*
X75209857Y-31406571D01*
X74852714Y-31406571D01*
X74709857Y-31335142D01*
X74638428Y-31263714D01*
X75995571Y-29906571D02*
X76924143Y-29906571D01*
X76424143Y-30478000D01*
X76638428Y-30478000D01*
X76781285Y-30549428D01*
X76852714Y-30620857D01*
X76924143Y-30763714D01*
X76924143Y-31120857D01*
X76852714Y-31263714D01*
X76781285Y-31335142D01*
X76638428Y-31406571D01*
X76209857Y-31406571D01*
X76067000Y-31335142D01*
X75995571Y-31263714D01*
X77567000Y-31263714D02*
X77638428Y-31335142D01*
X77567000Y-31406571D01*
X77495571Y-31335142D01*
X77567000Y-31263714D01*
X77567000Y-31406571D01*
X78995571Y-29906571D02*
X78281285Y-29906571D01*
X78209857Y-30620857D01*
X78281285Y-30549428D01*
X78424143Y-30478000D01*
X78781285Y-30478000D01*
X78924143Y-30549428D01*
X78995571Y-30620857D01*
X79067000Y-30763714D01*
X79067000Y-31120857D01*
X78995571Y-31263714D01*
X78924143Y-31335142D01*
X78781285Y-31406571D01*
X78424143Y-31406571D01*
X78281285Y-31335142D01*
X78209857Y-31263714D01*
X80352714Y-30406571D02*
X80352714Y-31406571D01*
X79995571Y-29835142D02*
X79638428Y-30906571D01*
X80567000Y-30906571D01*
X80995571Y-29906571D02*
X81924143Y-29906571D01*
X81424143Y-30478000D01*
X81638428Y-30478000D01*
X81781285Y-30549428D01*
X81852714Y-30620857D01*
X81924143Y-30763714D01*
X81924143Y-31120857D01*
X81852714Y-31263714D01*
X81781285Y-31335142D01*
X81638428Y-31406571D01*
X81209857Y-31406571D01*
X81067000Y-31335142D01*
X80995571Y-31263714D01*
X82495571Y-30049428D02*
X82567000Y-29978000D01*
X82709857Y-29906571D01*
X83067000Y-29906571D01*
X83209857Y-29978000D01*
X83281285Y-30049428D01*
X83352714Y-30192285D01*
X83352714Y-30335142D01*
X83281285Y-30549428D01*
X82424143Y-31406571D01*
X83352714Y-31406571D01*
X85138428Y-31406571D02*
X85138428Y-30406571D01*
X85138428Y-30549428D02*
X85209857Y-30478000D01*
X85352714Y-30406571D01*
X85567000Y-30406571D01*
X85709857Y-30478000D01*
X85781285Y-30620857D01*
X85781285Y-31406571D01*
X85781285Y-30620857D02*
X85852714Y-30478000D01*
X85995571Y-30406571D01*
X86209857Y-30406571D01*
X86352714Y-30478000D01*
X86424143Y-30620857D01*
X86424143Y-31406571D01*
X87138428Y-31406571D02*
X87138428Y-30406571D01*
X87138428Y-30549428D02*
X87209857Y-30478000D01*
X87352714Y-30406571D01*
X87567000Y-30406571D01*
X87709857Y-30478000D01*
X87781285Y-30620857D01*
X87781285Y-31406571D01*
X87781285Y-30620857D02*
X87852714Y-30478000D01*
X87995571Y-30406571D01*
X88209857Y-30406571D01*
X88352714Y-30478000D01*
X88424143Y-30620857D01*
X88424143Y-31406571D01*
X56709857Y-25834428D02*
X56781285Y-25763000D01*
X56924143Y-25691571D01*
X57281285Y-25691571D01*
X57424143Y-25763000D01*
X57495571Y-25834428D01*
X57567000Y-25977285D01*
X57567000Y-26120142D01*
X57495571Y-26334428D01*
X56638428Y-27191571D01*
X57567000Y-27191571D01*
X24224142Y-47480857D02*
X24724142Y-47480857D01*
X24938428Y-48266571D02*
X24224142Y-48266571D01*
X24224142Y-46766571D01*
X24938428Y-46766571D01*
X26224142Y-48266571D02*
X26224142Y-46766571D01*
X26224142Y-48195142D02*
X26081285Y-48266571D01*
X25795571Y-48266571D01*
X25652714Y-48195142D01*
X25581285Y-48123714D01*
X25509857Y-47980857D01*
X25509857Y-47552285D01*
X25581285Y-47409428D01*
X25652714Y-47338000D01*
X25795571Y-47266571D01*
X26081285Y-47266571D01*
X26224142Y-47338000D01*
X27581285Y-47266571D02*
X27581285Y-48480857D01*
X27509857Y-48623714D01*
X27438428Y-48695142D01*
X27295571Y-48766571D01*
X27081285Y-48766571D01*
X26938428Y-48695142D01*
X27581285Y-48195142D02*
X27438428Y-48266571D01*
X27152714Y-48266571D01*
X27009857Y-48195142D01*
X26938428Y-48123714D01*
X26867000Y-47980857D01*
X26867000Y-47552285D01*
X26938428Y-47409428D01*
X27009857Y-47338000D01*
X27152714Y-47266571D01*
X27438428Y-47266571D01*
X27581285Y-47338000D01*
X28867000Y-48195142D02*
X28724142Y-48266571D01*
X28438428Y-48266571D01*
X28295571Y-48195142D01*
X28224142Y-48052285D01*
X28224142Y-47480857D01*
X28295571Y-47338000D01*
X28438428Y-47266571D01*
X28724142Y-47266571D01*
X28867000Y-47338000D01*
X28938428Y-47480857D01*
X28938428Y-47623714D01*
X28224142Y-47766571D01*
X31367000Y-48195142D02*
X31224142Y-48266571D01*
X30938428Y-48266571D01*
X30795571Y-48195142D01*
X30724142Y-48123714D01*
X30652714Y-47980857D01*
X30652714Y-47552285D01*
X30724142Y-47409428D01*
X30795571Y-47338000D01*
X30938428Y-47266571D01*
X31224142Y-47266571D01*
X31367000Y-47338000D01*
X32652714Y-48266571D02*
X32652714Y-47480857D01*
X32581285Y-47338000D01*
X32438428Y-47266571D01*
X32152714Y-47266571D01*
X32009857Y-47338000D01*
X32652714Y-48195142D02*
X32509857Y-48266571D01*
X32152714Y-48266571D01*
X32009857Y-48195142D01*
X31938428Y-48052285D01*
X31938428Y-47909428D01*
X32009857Y-47766571D01*
X32152714Y-47695142D01*
X32509857Y-47695142D01*
X32652714Y-47623714D01*
X33367000Y-48266571D02*
X33367000Y-47266571D01*
X33367000Y-47552285D02*
X33438428Y-47409428D01*
X33509857Y-47338000D01*
X33652714Y-47266571D01*
X33795571Y-47266571D01*
X34938428Y-48266571D02*
X34938428Y-46766571D01*
X34938428Y-48195142D02*
X34795571Y-48266571D01*
X34509857Y-48266571D01*
X34367000Y-48195142D01*
X34295571Y-48123714D01*
X34224142Y-47980857D01*
X34224142Y-47552285D01*
X34295571Y-47409428D01*
X34367000Y-47338000D01*
X34509857Y-47266571D01*
X34795571Y-47266571D01*
X34938428Y-47338000D01*
X37438428Y-48195142D02*
X37295571Y-48266571D01*
X37009857Y-48266571D01*
X36867000Y-48195142D01*
X36795571Y-48123714D01*
X36724142Y-47980857D01*
X36724142Y-47552285D01*
X36795571Y-47409428D01*
X36867000Y-47338000D01*
X37009857Y-47266571D01*
X37295571Y-47266571D01*
X37438428Y-47338000D01*
X38295571Y-48266571D02*
X38152714Y-48195142D01*
X38081285Y-48123714D01*
X38009857Y-47980857D01*
X38009857Y-47552285D01*
X38081285Y-47409428D01*
X38152714Y-47338000D01*
X38295571Y-47266571D01*
X38509857Y-47266571D01*
X38652714Y-47338000D01*
X38724142Y-47409428D01*
X38795571Y-47552285D01*
X38795571Y-47980857D01*
X38724142Y-48123714D01*
X38652714Y-48195142D01*
X38509857Y-48266571D01*
X38295571Y-48266571D01*
X39438428Y-47266571D02*
X39438428Y-48266571D01*
X39438428Y-47409428D02*
X39509857Y-47338000D01*
X39652714Y-47266571D01*
X39867000Y-47266571D01*
X40009857Y-47338000D01*
X40081285Y-47480857D01*
X40081285Y-48266571D01*
X40795571Y-47266571D02*
X40795571Y-48266571D01*
X40795571Y-47409428D02*
X40867000Y-47338000D01*
X41009857Y-47266571D01*
X41224142Y-47266571D01*
X41367000Y-47338000D01*
X41438428Y-47480857D01*
X41438428Y-48266571D01*
X42724142Y-48195142D02*
X42581285Y-48266571D01*
X42295571Y-48266571D01*
X42152714Y-48195142D01*
X42081285Y-48052285D01*
X42081285Y-47480857D01*
X42152714Y-47338000D01*
X42295571Y-47266571D01*
X42581285Y-47266571D01*
X42724142Y-47338000D01*
X42795571Y-47480857D01*
X42795571Y-47623714D01*
X42081285Y-47766571D01*
X44081285Y-48195142D02*
X43938428Y-48266571D01*
X43652714Y-48266571D01*
X43509857Y-48195142D01*
X43438428Y-48123714D01*
X43367000Y-47980857D01*
X43367000Y-47552285D01*
X43438428Y-47409428D01*
X43509857Y-47338000D01*
X43652714Y-47266571D01*
X43938428Y-47266571D01*
X44081285Y-47338000D01*
X44509857Y-47266571D02*
X45081285Y-47266571D01*
X44724142Y-46766571D02*
X44724142Y-48052285D01*
X44795571Y-48195142D01*
X44938428Y-48266571D01*
X45081285Y-48266571D01*
X45795571Y-48266571D02*
X45652714Y-48195142D01*
X45581285Y-48123714D01*
X45509857Y-47980857D01*
X45509857Y-47552285D01*
X45581285Y-47409428D01*
X45652714Y-47338000D01*
X45795571Y-47266571D01*
X46009857Y-47266571D01*
X46152714Y-47338000D01*
X46224142Y-47409428D01*
X46295571Y-47552285D01*
X46295571Y-47980857D01*
X46224142Y-48123714D01*
X46152714Y-48195142D01*
X46009857Y-48266571D01*
X45795571Y-48266571D01*
X46938428Y-48266571D02*
X46938428Y-47266571D01*
X46938428Y-47552285D02*
X47009857Y-47409428D01*
X47081285Y-47338000D01*
X47224142Y-47266571D01*
X47367000Y-47266571D01*
X47795571Y-48195142D02*
X47938428Y-48266571D01*
X48224142Y-48266571D01*
X48367000Y-48195142D01*
X48438428Y-48052285D01*
X48438428Y-47980857D01*
X48367000Y-47838000D01*
X48224142Y-47766571D01*
X48009857Y-47766571D01*
X47867000Y-47695142D01*
X47795571Y-47552285D01*
X47795571Y-47480857D01*
X47867000Y-47338000D01*
X48009857Y-47266571D01*
X48224142Y-47266571D01*
X48367000Y-47338000D01*
X49081285Y-48123714D02*
X49152714Y-48195142D01*
X49081285Y-48266571D01*
X49009857Y-48195142D01*
X49081285Y-48123714D01*
X49081285Y-48266571D01*
X49081285Y-47338000D02*
X49152714Y-47409428D01*
X49081285Y-47480857D01*
X49009857Y-47409428D01*
X49081285Y-47338000D01*
X49081285Y-47480857D01*
X115967000Y-34121571D02*
X116109857Y-34121571D01*
X116252714Y-34193000D01*
X116324143Y-34264428D01*
X116395571Y-34407285D01*
X116467000Y-34693000D01*
X116467000Y-35050142D01*
X116395571Y-35335857D01*
X116324143Y-35478714D01*
X116252714Y-35550142D01*
X116109857Y-35621571D01*
X115967000Y-35621571D01*
X115824143Y-35550142D01*
X115752714Y-35478714D01*
X115681285Y-35335857D01*
X115609857Y-35050142D01*
X115609857Y-34693000D01*
X115681285Y-34407285D01*
X115752714Y-34264428D01*
X115824143Y-34193000D01*
X115967000Y-34121571D01*
X117109857Y-35478714D02*
X117181285Y-35550142D01*
X117109857Y-35621571D01*
X117038428Y-35550142D01*
X117109857Y-35478714D01*
X117109857Y-35621571D01*
X118109857Y-34121571D02*
X118252714Y-34121571D01*
X118395571Y-34193000D01*
X118467000Y-34264428D01*
X118538428Y-34407285D01*
X118609857Y-34693000D01*
X118609857Y-35050142D01*
X118538428Y-35335857D01*
X118467000Y-35478714D01*
X118395571Y-35550142D01*
X118252714Y-35621571D01*
X118109857Y-35621571D01*
X117967000Y-35550142D01*
X117895571Y-35478714D01*
X117824143Y-35335857D01*
X117752714Y-35050142D01*
X117752714Y-34693000D01*
X117824143Y-34407285D01*
X117895571Y-34264428D01*
X117967000Y-34193000D01*
X118109857Y-34121571D01*
X119109857Y-34121571D02*
X120109857Y-34121571D01*
X119467000Y-35621571D01*
X121324143Y-34121571D02*
X121038428Y-34121571D01*
X120895571Y-34193000D01*
X120824143Y-34264428D01*
X120681285Y-34478714D01*
X120609857Y-34764428D01*
X120609857Y-35335857D01*
X120681285Y-35478714D01*
X120752714Y-35550142D01*
X120895571Y-35621571D01*
X121181285Y-35621571D01*
X121324143Y-35550142D01*
X121395571Y-35478714D01*
X121467000Y-35335857D01*
X121467000Y-34978714D01*
X121395571Y-34835857D01*
X121324143Y-34764428D01*
X121181285Y-34693000D01*
X120895571Y-34693000D01*
X120752714Y-34764428D01*
X120681285Y-34835857D01*
X120609857Y-34978714D01*
X122395571Y-34121571D02*
X122538428Y-34121571D01*
X122681285Y-34193000D01*
X122752714Y-34264428D01*
X122824143Y-34407285D01*
X122895571Y-34693000D01*
X122895571Y-35050142D01*
X122824143Y-35335857D01*
X122752714Y-35478714D01*
X122681285Y-35550142D01*
X122538428Y-35621571D01*
X122395571Y-35621571D01*
X122252714Y-35550142D01*
X122181285Y-35478714D01*
X122109857Y-35335857D01*
X122038428Y-35050142D01*
X122038428Y-34693000D01*
X122109857Y-34407285D01*
X122181285Y-34264428D01*
X122252714Y-34193000D01*
X122395571Y-34121571D01*
X124681285Y-35621571D02*
X124681285Y-34621571D01*
X124681285Y-34764428D02*
X124752714Y-34693000D01*
X124895571Y-34621571D01*
X125109857Y-34621571D01*
X125252714Y-34693000D01*
X125324143Y-34835857D01*
X125324143Y-35621571D01*
X125324143Y-34835857D02*
X125395571Y-34693000D01*
X125538428Y-34621571D01*
X125752714Y-34621571D01*
X125895571Y-34693000D01*
X125967000Y-34835857D01*
X125967000Y-35621571D01*
X126681285Y-35621571D02*
X126681285Y-34621571D01*
X126681285Y-34764428D02*
X126752714Y-34693000D01*
X126895571Y-34621571D01*
X127109857Y-34621571D01*
X127252714Y-34693000D01*
X127324143Y-34835857D01*
X127324143Y-35621571D01*
X127324143Y-34835857D02*
X127395571Y-34693000D01*
X127538428Y-34621571D01*
X127752714Y-34621571D01*
X127895571Y-34693000D01*
X127967000Y-34835857D01*
X127967000Y-35621571D01*
X24724142Y-30620857D02*
X24938428Y-30692285D01*
X25009857Y-30763714D01*
X25081285Y-30906571D01*
X25081285Y-31120857D01*
X25009857Y-31263714D01*
X24938428Y-31335142D01*
X24795571Y-31406571D01*
X24224142Y-31406571D01*
X24224142Y-29906571D01*
X24724142Y-29906571D01*
X24867000Y-29978000D01*
X24938428Y-30049428D01*
X25009857Y-30192285D01*
X25009857Y-30335142D01*
X24938428Y-30478000D01*
X24867000Y-30549428D01*
X24724142Y-30620857D01*
X24224142Y-30620857D01*
X25938428Y-31406571D02*
X25795571Y-31335142D01*
X25724142Y-31263714D01*
X25652714Y-31120857D01*
X25652714Y-30692285D01*
X25724142Y-30549428D01*
X25795571Y-30478000D01*
X25938428Y-30406571D01*
X26152714Y-30406571D01*
X26295571Y-30478000D01*
X26367000Y-30549428D01*
X26438428Y-30692285D01*
X26438428Y-31120857D01*
X26367000Y-31263714D01*
X26295571Y-31335142D01*
X26152714Y-31406571D01*
X25938428Y-31406571D01*
X27724142Y-31406571D02*
X27724142Y-30620857D01*
X27652714Y-30478000D01*
X27509857Y-30406571D01*
X27224142Y-30406571D01*
X27081285Y-30478000D01*
X27724142Y-31335142D02*
X27581285Y-31406571D01*
X27224142Y-31406571D01*
X27081285Y-31335142D01*
X27009857Y-31192285D01*
X27009857Y-31049428D01*
X27081285Y-30906571D01*
X27224142Y-30835142D01*
X27581285Y-30835142D01*
X27724142Y-30763714D01*
X28438428Y-31406571D02*
X28438428Y-30406571D01*
X28438428Y-30692285D02*
X28509857Y-30549428D01*
X28581285Y-30478000D01*
X28724142Y-30406571D01*
X28867000Y-30406571D01*
X30009857Y-31406571D02*
X30009857Y-29906571D01*
X30009857Y-31335142D02*
X29867000Y-31406571D01*
X29581285Y-31406571D01*
X29438428Y-31335142D01*
X29367000Y-31263714D01*
X29295571Y-31120857D01*
X29295571Y-30692285D01*
X29367000Y-30549428D01*
X29438428Y-30478000D01*
X29581285Y-30406571D01*
X29867000Y-30406571D01*
X30009857Y-30478000D01*
X32081285Y-31406571D02*
X31938428Y-31335142D01*
X31867000Y-31263714D01*
X31795571Y-31120857D01*
X31795571Y-30692285D01*
X31867000Y-30549428D01*
X31938428Y-30478000D01*
X32081285Y-30406571D01*
X32295571Y-30406571D01*
X32438428Y-30478000D01*
X32509857Y-30549428D01*
X32581285Y-30692285D01*
X32581285Y-31120857D01*
X32509857Y-31263714D01*
X32438428Y-31335142D01*
X32295571Y-31406571D01*
X32081285Y-31406571D01*
X33081285Y-30406571D02*
X33438428Y-31406571D01*
X33795571Y-30406571D01*
X34938428Y-31335142D02*
X34795571Y-31406571D01*
X34509857Y-31406571D01*
X34367000Y-31335142D01*
X34295571Y-31192285D01*
X34295571Y-30620857D01*
X34367000Y-30478000D01*
X34509857Y-30406571D01*
X34795571Y-30406571D01*
X34938428Y-30478000D01*
X35009857Y-30620857D01*
X35009857Y-30763714D01*
X34295571Y-30906571D01*
X35652714Y-31406571D02*
X35652714Y-30406571D01*
X35652714Y-30692285D02*
X35724142Y-30549428D01*
X35795571Y-30478000D01*
X35938428Y-30406571D01*
X36081285Y-30406571D01*
X37224142Y-31406571D02*
X37224142Y-30620857D01*
X37152714Y-30478000D01*
X37009857Y-30406571D01*
X36724142Y-30406571D01*
X36581285Y-30478000D01*
X37224142Y-31335142D02*
X37081285Y-31406571D01*
X36724142Y-31406571D01*
X36581285Y-31335142D01*
X36509857Y-31192285D01*
X36509857Y-31049428D01*
X36581285Y-30906571D01*
X36724142Y-30835142D01*
X37081285Y-30835142D01*
X37224142Y-30763714D01*
X38152714Y-31406571D02*
X38009857Y-31335142D01*
X37938428Y-31192285D01*
X37938428Y-29906571D01*
X38938428Y-31406571D02*
X38795571Y-31335142D01*
X38724142Y-31192285D01*
X38724142Y-29906571D01*
X41295571Y-31406571D02*
X41295571Y-29906571D01*
X41295571Y-31335142D02*
X41152714Y-31406571D01*
X40867000Y-31406571D01*
X40724142Y-31335142D01*
X40652714Y-31263714D01*
X40581285Y-31120857D01*
X40581285Y-30692285D01*
X40652714Y-30549428D01*
X40724142Y-30478000D01*
X40867000Y-30406571D01*
X41152714Y-30406571D01*
X41295571Y-30478000D01*
X42009857Y-31406571D02*
X42009857Y-30406571D01*
X42009857Y-29906571D02*
X41938428Y-29978000D01*
X42009857Y-30049428D01*
X42081285Y-29978000D01*
X42009857Y-29906571D01*
X42009857Y-30049428D01*
X42724142Y-31406571D02*
X42724142Y-30406571D01*
X42724142Y-30549428D02*
X42795571Y-30478000D01*
X42938428Y-30406571D01*
X43152714Y-30406571D01*
X43295571Y-30478000D01*
X43367000Y-30620857D01*
X43367000Y-31406571D01*
X43367000Y-30620857D02*
X43438428Y-30478000D01*
X43581285Y-30406571D01*
X43795571Y-30406571D01*
X43938428Y-30478000D01*
X44009857Y-30620857D01*
X44009857Y-31406571D01*
X45295571Y-31335142D02*
X45152714Y-31406571D01*
X44867000Y-31406571D01*
X44724142Y-31335142D01*
X44652714Y-31192285D01*
X44652714Y-30620857D01*
X44724142Y-30478000D01*
X44867000Y-30406571D01*
X45152714Y-30406571D01*
X45295571Y-30478000D01*
X45367000Y-30620857D01*
X45367000Y-30763714D01*
X44652714Y-30906571D01*
X46009857Y-30406571D02*
X46009857Y-31406571D01*
X46009857Y-30549428D02*
X46081285Y-30478000D01*
X46224142Y-30406571D01*
X46438428Y-30406571D01*
X46581285Y-30478000D01*
X46652714Y-30620857D01*
X46652714Y-31406571D01*
X47295571Y-31335142D02*
X47438428Y-31406571D01*
X47724142Y-31406571D01*
X47867000Y-31335142D01*
X47938428Y-31192285D01*
X47938428Y-31120857D01*
X47867000Y-30978000D01*
X47724142Y-30906571D01*
X47509857Y-30906571D01*
X47367000Y-30835142D01*
X47295571Y-30692285D01*
X47295571Y-30620857D01*
X47367000Y-30478000D01*
X47509857Y-30406571D01*
X47724142Y-30406571D01*
X47867000Y-30478000D01*
X48581285Y-31406571D02*
X48581285Y-30406571D01*
X48581285Y-29906571D02*
X48509857Y-29978000D01*
X48581285Y-30049428D01*
X48652714Y-29978000D01*
X48581285Y-29906571D01*
X48581285Y-30049428D01*
X49509857Y-31406571D02*
X49367000Y-31335142D01*
X49295571Y-31263714D01*
X49224142Y-31120857D01*
X49224142Y-30692285D01*
X49295571Y-30549428D01*
X49367000Y-30478000D01*
X49509857Y-30406571D01*
X49724142Y-30406571D01*
X49867000Y-30478000D01*
X49938428Y-30549428D01*
X50009857Y-30692285D01*
X50009857Y-31120857D01*
X49938428Y-31263714D01*
X49867000Y-31335142D01*
X49724142Y-31406571D01*
X49509857Y-31406571D01*
X50652714Y-30406571D02*
X50652714Y-31406571D01*
X50652714Y-30549428D02*
X50724142Y-30478000D01*
X50867000Y-30406571D01*
X51081285Y-30406571D01*
X51224142Y-30478000D01*
X51295571Y-30620857D01*
X51295571Y-31406571D01*
X51938428Y-31335142D02*
X52081285Y-31406571D01*
X52367000Y-31406571D01*
X52509857Y-31335142D01*
X52581285Y-31192285D01*
X52581285Y-31120857D01*
X52509857Y-30978000D01*
X52367000Y-30906571D01*
X52152714Y-30906571D01*
X52009857Y-30835142D01*
X51938428Y-30692285D01*
X51938428Y-30620857D01*
X52009857Y-30478000D01*
X52152714Y-30406571D01*
X52367000Y-30406571D01*
X52509857Y-30478000D01*
X53224142Y-31263714D02*
X53295571Y-31335142D01*
X53224142Y-31406571D01*
X53152714Y-31335142D01*
X53224142Y-31263714D01*
X53224142Y-31406571D01*
X53224142Y-30478000D02*
X53295571Y-30549428D01*
X53224142Y-30620857D01*
X53152714Y-30549428D01*
X53224142Y-30478000D01*
X53224142Y-30620857D01*
X25081285Y-43908714D02*
X25009857Y-43980142D01*
X24795571Y-44051571D01*
X24652714Y-44051571D01*
X24438428Y-43980142D01*
X24295571Y-43837285D01*
X24224142Y-43694428D01*
X24152714Y-43408714D01*
X24152714Y-43194428D01*
X24224142Y-42908714D01*
X24295571Y-42765857D01*
X24438428Y-42623000D01*
X24652714Y-42551571D01*
X24795571Y-42551571D01*
X25009857Y-42623000D01*
X25081285Y-42694428D01*
X26367000Y-44051571D02*
X26367000Y-43265857D01*
X26295571Y-43123000D01*
X26152714Y-43051571D01*
X25867000Y-43051571D01*
X25724142Y-43123000D01*
X26367000Y-43980142D02*
X26224142Y-44051571D01*
X25867000Y-44051571D01*
X25724142Y-43980142D01*
X25652714Y-43837285D01*
X25652714Y-43694428D01*
X25724142Y-43551571D01*
X25867000Y-43480142D01*
X26224142Y-43480142D01*
X26367000Y-43408714D01*
X27009857Y-43980142D02*
X27152714Y-44051571D01*
X27438428Y-44051571D01*
X27581285Y-43980142D01*
X27652714Y-43837285D01*
X27652714Y-43765857D01*
X27581285Y-43623000D01*
X27438428Y-43551571D01*
X27224142Y-43551571D01*
X27081285Y-43480142D01*
X27009857Y-43337285D01*
X27009857Y-43265857D01*
X27081285Y-43123000D01*
X27224142Y-43051571D01*
X27438428Y-43051571D01*
X27581285Y-43123000D01*
X28081285Y-43051571D02*
X28652714Y-43051571D01*
X28295571Y-42551571D02*
X28295571Y-43837285D01*
X28367000Y-43980142D01*
X28509857Y-44051571D01*
X28652714Y-44051571D01*
X29724142Y-43980142D02*
X29581285Y-44051571D01*
X29295571Y-44051571D01*
X29152714Y-43980142D01*
X29081285Y-43837285D01*
X29081285Y-43265857D01*
X29152714Y-43123000D01*
X29295571Y-43051571D01*
X29581285Y-43051571D01*
X29724142Y-43123000D01*
X29795571Y-43265857D01*
X29795571Y-43408714D01*
X29081285Y-43551571D01*
X30652714Y-44051571D02*
X30509857Y-43980142D01*
X30438428Y-43837285D01*
X30438428Y-42551571D01*
X31438428Y-44051571D02*
X31295571Y-43980142D01*
X31224142Y-43837285D01*
X31224142Y-42551571D01*
X32652714Y-44051571D02*
X32652714Y-43265857D01*
X32581285Y-43123000D01*
X32438428Y-43051571D01*
X32152714Y-43051571D01*
X32009857Y-43123000D01*
X32652714Y-43980142D02*
X32509857Y-44051571D01*
X32152714Y-44051571D01*
X32009857Y-43980142D01*
X31938428Y-43837285D01*
X31938428Y-43694428D01*
X32009857Y-43551571D01*
X32152714Y-43480142D01*
X32509857Y-43480142D01*
X32652714Y-43408714D01*
X33152714Y-43051571D02*
X33724142Y-43051571D01*
X33367000Y-42551571D02*
X33367000Y-43837285D01*
X33438428Y-43980142D01*
X33581285Y-44051571D01*
X33724142Y-44051571D01*
X34795571Y-43980142D02*
X34652714Y-44051571D01*
X34367000Y-44051571D01*
X34224142Y-43980142D01*
X34152714Y-43837285D01*
X34152714Y-43265857D01*
X34224142Y-43123000D01*
X34367000Y-43051571D01*
X34652714Y-43051571D01*
X34795571Y-43123000D01*
X34867000Y-43265857D01*
X34867000Y-43408714D01*
X34152714Y-43551571D01*
X36152714Y-44051571D02*
X36152714Y-42551571D01*
X36152714Y-43980142D02*
X36009857Y-44051571D01*
X35724142Y-44051571D01*
X35581285Y-43980142D01*
X35509857Y-43908714D01*
X35438428Y-43765857D01*
X35438428Y-43337285D01*
X35509857Y-43194428D01*
X35581285Y-43123000D01*
X35724142Y-43051571D01*
X36009857Y-43051571D01*
X36152714Y-43123000D01*
X38009857Y-43051571D02*
X38009857Y-44551571D01*
X38009857Y-43123000D02*
X38152714Y-43051571D01*
X38438428Y-43051571D01*
X38581285Y-43123000D01*
X38652714Y-43194428D01*
X38724142Y-43337285D01*
X38724142Y-43765857D01*
X38652714Y-43908714D01*
X38581285Y-43980142D01*
X38438428Y-44051571D01*
X38152714Y-44051571D01*
X38009857Y-43980142D01*
X40009857Y-44051571D02*
X40009857Y-43265857D01*
X39938428Y-43123000D01*
X39795571Y-43051571D01*
X39509857Y-43051571D01*
X39367000Y-43123000D01*
X40009857Y-43980142D02*
X39867000Y-44051571D01*
X39509857Y-44051571D01*
X39367000Y-43980142D01*
X39295571Y-43837285D01*
X39295571Y-43694428D01*
X39367000Y-43551571D01*
X39509857Y-43480142D01*
X39867000Y-43480142D01*
X40009857Y-43408714D01*
X41367000Y-44051571D02*
X41367000Y-42551571D01*
X41367000Y-43980142D02*
X41224142Y-44051571D01*
X40938428Y-44051571D01*
X40795571Y-43980142D01*
X40724142Y-43908714D01*
X40652714Y-43765857D01*
X40652714Y-43337285D01*
X40724142Y-43194428D01*
X40795571Y-43123000D01*
X40938428Y-43051571D01*
X41224142Y-43051571D01*
X41367000Y-43123000D01*
X42009857Y-43980142D02*
X42152714Y-44051571D01*
X42438428Y-44051571D01*
X42581285Y-43980142D01*
X42652714Y-43837285D01*
X42652714Y-43765857D01*
X42581285Y-43623000D01*
X42438428Y-43551571D01*
X42224142Y-43551571D01*
X42081285Y-43480142D01*
X42009857Y-43337285D01*
X42009857Y-43265857D01*
X42081285Y-43123000D01*
X42224142Y-43051571D01*
X42438428Y-43051571D01*
X42581285Y-43123000D01*
X43295571Y-43908714D02*
X43367000Y-43980142D01*
X43295571Y-44051571D01*
X43224142Y-43980142D01*
X43295571Y-43908714D01*
X43295571Y-44051571D01*
X43295571Y-43123000D02*
X43367000Y-43194428D01*
X43295571Y-43265857D01*
X43224142Y-43194428D01*
X43295571Y-43123000D01*
X43295571Y-43265857D01*
X25081285Y-27048714D02*
X25009857Y-27120142D01*
X24795571Y-27191571D01*
X24652714Y-27191571D01*
X24438428Y-27120142D01*
X24295571Y-26977285D01*
X24224142Y-26834428D01*
X24152714Y-26548714D01*
X24152714Y-26334428D01*
X24224142Y-26048714D01*
X24295571Y-25905857D01*
X24438428Y-25763000D01*
X24652714Y-25691571D01*
X24795571Y-25691571D01*
X25009857Y-25763000D01*
X25081285Y-25834428D01*
X25938428Y-27191571D02*
X25795571Y-27120142D01*
X25724142Y-27048714D01*
X25652714Y-26905857D01*
X25652714Y-26477285D01*
X25724142Y-26334428D01*
X25795571Y-26263000D01*
X25938428Y-26191571D01*
X26152714Y-26191571D01*
X26295571Y-26263000D01*
X26367000Y-26334428D01*
X26438428Y-26477285D01*
X26438428Y-26905857D01*
X26367000Y-27048714D01*
X26295571Y-27120142D01*
X26152714Y-27191571D01*
X25938428Y-27191571D01*
X27081285Y-26191571D02*
X27081285Y-27691571D01*
X27081285Y-26263000D02*
X27224142Y-26191571D01*
X27509857Y-26191571D01*
X27652714Y-26263000D01*
X27724142Y-26334428D01*
X27795571Y-26477285D01*
X27795571Y-26905857D01*
X27724142Y-27048714D01*
X27652714Y-27120142D01*
X27509857Y-27191571D01*
X27224142Y-27191571D01*
X27081285Y-27120142D01*
X28438428Y-26191571D02*
X28438428Y-27691571D01*
X28438428Y-26263000D02*
X28581285Y-26191571D01*
X28867000Y-26191571D01*
X29009857Y-26263000D01*
X29081285Y-26334428D01*
X29152714Y-26477285D01*
X29152714Y-26905857D01*
X29081285Y-27048714D01*
X29009857Y-27120142D01*
X28867000Y-27191571D01*
X28581285Y-27191571D01*
X28438428Y-27120142D01*
X30367000Y-27120142D02*
X30224142Y-27191571D01*
X29938428Y-27191571D01*
X29795571Y-27120142D01*
X29724142Y-26977285D01*
X29724142Y-26405857D01*
X29795571Y-26263000D01*
X29938428Y-26191571D01*
X30224142Y-26191571D01*
X30367000Y-26263000D01*
X30438428Y-26405857D01*
X30438428Y-26548714D01*
X29724142Y-26691571D01*
X31081285Y-27191571D02*
X31081285Y-26191571D01*
X31081285Y-26477285D02*
X31152714Y-26334428D01*
X31224142Y-26263000D01*
X31367000Y-26191571D01*
X31509857Y-26191571D01*
X33867000Y-27191571D02*
X33152714Y-27191571D01*
X33152714Y-25691571D01*
X35009857Y-27191571D02*
X35009857Y-26405857D01*
X34938428Y-26263000D01*
X34795571Y-26191571D01*
X34509857Y-26191571D01*
X34367000Y-26263000D01*
X35009857Y-27120142D02*
X34867000Y-27191571D01*
X34509857Y-27191571D01*
X34367000Y-27120142D01*
X34295571Y-26977285D01*
X34295571Y-26834428D01*
X34367000Y-26691571D01*
X34509857Y-26620142D01*
X34867000Y-26620142D01*
X35009857Y-26548714D01*
X35581285Y-26191571D02*
X35938428Y-27191571D01*
X36295571Y-26191571D02*
X35938428Y-27191571D01*
X35795571Y-27548714D01*
X35724142Y-27620142D01*
X35581285Y-27691571D01*
X37438428Y-27120142D02*
X37295571Y-27191571D01*
X37009857Y-27191571D01*
X36867000Y-27120142D01*
X36795571Y-26977285D01*
X36795571Y-26405857D01*
X36867000Y-26263000D01*
X37009857Y-26191571D01*
X37295571Y-26191571D01*
X37438428Y-26263000D01*
X37509857Y-26405857D01*
X37509857Y-26548714D01*
X36795571Y-26691571D01*
X38152714Y-27191571D02*
X38152714Y-26191571D01*
X38152714Y-26477285D02*
X38224142Y-26334428D01*
X38295571Y-26263000D01*
X38438428Y-26191571D01*
X38581285Y-26191571D01*
X41081285Y-27048714D02*
X41009857Y-27120142D01*
X40795571Y-27191571D01*
X40652714Y-27191571D01*
X40438428Y-27120142D01*
X40295571Y-26977285D01*
X40224142Y-26834428D01*
X40152714Y-26548714D01*
X40152714Y-26334428D01*
X40224142Y-26048714D01*
X40295571Y-25905857D01*
X40438428Y-25763000D01*
X40652714Y-25691571D01*
X40795571Y-25691571D01*
X41009857Y-25763000D01*
X41081285Y-25834428D01*
X41938428Y-27191571D02*
X41795571Y-27120142D01*
X41724142Y-27048714D01*
X41652714Y-26905857D01*
X41652714Y-26477285D01*
X41724142Y-26334428D01*
X41795571Y-26263000D01*
X41938428Y-26191571D01*
X42152714Y-26191571D01*
X42295571Y-26263000D01*
X42367000Y-26334428D01*
X42438428Y-26477285D01*
X42438428Y-26905857D01*
X42367000Y-27048714D01*
X42295571Y-27120142D01*
X42152714Y-27191571D01*
X41938428Y-27191571D01*
X43724142Y-26191571D02*
X43724142Y-27191571D01*
X43081285Y-26191571D02*
X43081285Y-26977285D01*
X43152714Y-27120142D01*
X43295571Y-27191571D01*
X43509857Y-27191571D01*
X43652714Y-27120142D01*
X43724142Y-27048714D01*
X44438428Y-26191571D02*
X44438428Y-27191571D01*
X44438428Y-26334428D02*
X44509857Y-26263000D01*
X44652714Y-26191571D01*
X44867000Y-26191571D01*
X45009857Y-26263000D01*
X45081285Y-26405857D01*
X45081285Y-27191571D01*
X45581285Y-26191571D02*
X46152714Y-26191571D01*
X45795571Y-25691571D02*
X45795571Y-26977285D01*
X45867000Y-27120142D01*
X46009857Y-27191571D01*
X46152714Y-27191571D01*
X46652714Y-27048714D02*
X46724142Y-27120142D01*
X46652714Y-27191571D01*
X46581285Y-27120142D01*
X46652714Y-27048714D01*
X46652714Y-27191571D01*
X46652714Y-26263000D02*
X46724142Y-26334428D01*
X46652714Y-26405857D01*
X46581285Y-26334428D01*
X46652714Y-26263000D01*
X46652714Y-26405857D01*
X24224142Y-35621571D02*
X24224142Y-34121571D01*
X24724142Y-35193000D01*
X25224142Y-34121571D01*
X25224142Y-35621571D01*
X25938428Y-35621571D02*
X25938428Y-34621571D01*
X25938428Y-34121571D02*
X25867000Y-34193000D01*
X25938428Y-34264428D01*
X26009857Y-34193000D01*
X25938428Y-34121571D01*
X25938428Y-34264428D01*
X26652714Y-34621571D02*
X26652714Y-35621571D01*
X26652714Y-34764428D02*
X26724142Y-34693000D01*
X26867000Y-34621571D01*
X27081285Y-34621571D01*
X27224142Y-34693000D01*
X27295571Y-34835857D01*
X27295571Y-35621571D01*
X28938428Y-34621571D02*
X29509857Y-34621571D01*
X29152714Y-34121571D02*
X29152714Y-35407285D01*
X29224142Y-35550142D01*
X29367000Y-35621571D01*
X29509857Y-35621571D01*
X30009857Y-35621571D02*
X30009857Y-34621571D01*
X30009857Y-34907285D02*
X30081285Y-34764428D01*
X30152714Y-34693000D01*
X30295571Y-34621571D01*
X30438428Y-34621571D01*
X31581285Y-35621571D02*
X31581285Y-34835857D01*
X31509857Y-34693000D01*
X31367000Y-34621571D01*
X31081285Y-34621571D01*
X30938428Y-34693000D01*
X31581285Y-35550142D02*
X31438428Y-35621571D01*
X31081285Y-35621571D01*
X30938428Y-35550142D01*
X30867000Y-35407285D01*
X30867000Y-35264428D01*
X30938428Y-35121571D01*
X31081285Y-35050142D01*
X31438428Y-35050142D01*
X31581285Y-34978714D01*
X32938428Y-35550142D02*
X32795571Y-35621571D01*
X32509857Y-35621571D01*
X32367000Y-35550142D01*
X32295571Y-35478714D01*
X32224142Y-35335857D01*
X32224142Y-34907285D01*
X32295571Y-34764428D01*
X32367000Y-34693000D01*
X32509857Y-34621571D01*
X32795571Y-34621571D01*
X32938428Y-34693000D01*
X33581285Y-35621571D02*
X33581285Y-34121571D01*
X33724142Y-35050142D02*
X34152714Y-35621571D01*
X34152714Y-34621571D02*
X33581285Y-35193000D01*
X35867000Y-34050142D02*
X34581285Y-35978714D01*
X36295571Y-35550142D02*
X36438428Y-35621571D01*
X36724142Y-35621571D01*
X36867000Y-35550142D01*
X36938428Y-35407285D01*
X36938428Y-35335857D01*
X36867000Y-35193000D01*
X36724142Y-35121571D01*
X36509857Y-35121571D01*
X36367000Y-35050142D01*
X36295571Y-34907285D01*
X36295571Y-34835857D01*
X36367000Y-34693000D01*
X36509857Y-34621571D01*
X36724142Y-34621571D01*
X36867000Y-34693000D01*
X37581285Y-34621571D02*
X37581285Y-36121571D01*
X37581285Y-34693000D02*
X37724142Y-34621571D01*
X38009857Y-34621571D01*
X38152714Y-34693000D01*
X38224142Y-34764428D01*
X38295571Y-34907285D01*
X38295571Y-35335857D01*
X38224142Y-35478714D01*
X38152714Y-35550142D01*
X38009857Y-35621571D01*
X37724142Y-35621571D01*
X37581285Y-35550142D01*
X39581285Y-35621571D02*
X39581285Y-34835857D01*
X39509857Y-34693000D01*
X39367000Y-34621571D01*
X39081285Y-34621571D01*
X38938428Y-34693000D01*
X39581285Y-35550142D02*
X39438428Y-35621571D01*
X39081285Y-35621571D01*
X38938428Y-35550142D01*
X38867000Y-35407285D01*
X38867000Y-35264428D01*
X38938428Y-35121571D01*
X39081285Y-35050142D01*
X39438428Y-35050142D01*
X39581285Y-34978714D01*
X40938428Y-35550142D02*
X40795571Y-35621571D01*
X40509857Y-35621571D01*
X40367000Y-35550142D01*
X40295571Y-35478714D01*
X40224142Y-35335857D01*
X40224142Y-34907285D01*
X40295571Y-34764428D01*
X40367000Y-34693000D01*
X40509857Y-34621571D01*
X40795571Y-34621571D01*
X40938428Y-34693000D01*
X41581285Y-35621571D02*
X41581285Y-34621571D01*
X41581285Y-34121571D02*
X41509857Y-34193000D01*
X41581285Y-34264428D01*
X41652714Y-34193000D01*
X41581285Y-34121571D01*
X41581285Y-34264428D01*
X42295571Y-34621571D02*
X42295571Y-35621571D01*
X42295571Y-34764428D02*
X42367000Y-34693000D01*
X42509857Y-34621571D01*
X42724142Y-34621571D01*
X42867000Y-34693000D01*
X42938428Y-34835857D01*
X42938428Y-35621571D01*
X44295571Y-34621571D02*
X44295571Y-35835857D01*
X44224142Y-35978714D01*
X44152714Y-36050142D01*
X44009857Y-36121571D01*
X43795571Y-36121571D01*
X43652714Y-36050142D01*
X44295571Y-35550142D02*
X44152714Y-35621571D01*
X43867000Y-35621571D01*
X43724142Y-35550142D01*
X43652714Y-35478714D01*
X43581285Y-35335857D01*
X43581285Y-34907285D01*
X43652714Y-34764428D01*
X43724142Y-34693000D01*
X43867000Y-34621571D01*
X44152714Y-34621571D01*
X44295571Y-34693000D01*
X45009857Y-35478714D02*
X45081285Y-35550142D01*
X45009857Y-35621571D01*
X44938428Y-35550142D01*
X45009857Y-35478714D01*
X45009857Y-35621571D01*
X45009857Y-34693000D02*
X45081285Y-34764428D01*
X45009857Y-34835857D01*
X44938428Y-34764428D01*
X45009857Y-34693000D01*
X45009857Y-34835857D01*
X25081285Y-39693714D02*
X25009857Y-39765142D01*
X24795571Y-39836571D01*
X24652714Y-39836571D01*
X24438428Y-39765142D01*
X24295571Y-39622285D01*
X24224142Y-39479428D01*
X24152714Y-39193714D01*
X24152714Y-38979428D01*
X24224142Y-38693714D01*
X24295571Y-38550857D01*
X24438428Y-38408000D01*
X24652714Y-38336571D01*
X24795571Y-38336571D01*
X25009857Y-38408000D01*
X25081285Y-38479428D01*
X25938428Y-39836571D02*
X25795571Y-39765142D01*
X25724142Y-39693714D01*
X25652714Y-39550857D01*
X25652714Y-39122285D01*
X25724142Y-38979428D01*
X25795571Y-38908000D01*
X25938428Y-38836571D01*
X26152714Y-38836571D01*
X26295571Y-38908000D01*
X26367000Y-38979428D01*
X26438428Y-39122285D01*
X26438428Y-39550857D01*
X26367000Y-39693714D01*
X26295571Y-39765142D01*
X26152714Y-39836571D01*
X25938428Y-39836571D01*
X27081285Y-38836571D02*
X27081285Y-40336571D01*
X27081285Y-38908000D02*
X27224142Y-38836571D01*
X27509857Y-38836571D01*
X27652714Y-38908000D01*
X27724142Y-38979428D01*
X27795571Y-39122285D01*
X27795571Y-39550857D01*
X27724142Y-39693714D01*
X27652714Y-39765142D01*
X27509857Y-39836571D01*
X27224142Y-39836571D01*
X27081285Y-39765142D01*
X28438428Y-38836571D02*
X28438428Y-40336571D01*
X28438428Y-38908000D02*
X28581285Y-38836571D01*
X28867000Y-38836571D01*
X29009857Y-38908000D01*
X29081285Y-38979428D01*
X29152714Y-39122285D01*
X29152714Y-39550857D01*
X29081285Y-39693714D01*
X29009857Y-39765142D01*
X28867000Y-39836571D01*
X28581285Y-39836571D01*
X28438428Y-39765142D01*
X30367000Y-39765142D02*
X30224142Y-39836571D01*
X29938428Y-39836571D01*
X29795571Y-39765142D01*
X29724142Y-39622285D01*
X29724142Y-39050857D01*
X29795571Y-38908000D01*
X29938428Y-38836571D01*
X30224142Y-38836571D01*
X30367000Y-38908000D01*
X30438428Y-39050857D01*
X30438428Y-39193714D01*
X29724142Y-39336571D01*
X31081285Y-39836571D02*
X31081285Y-38836571D01*
X31081285Y-39122285D02*
X31152714Y-38979428D01*
X31224142Y-38908000D01*
X31367000Y-38836571D01*
X31509857Y-38836571D01*
X33652714Y-39050857D02*
X33152714Y-39050857D01*
X33152714Y-39836571D02*
X33152714Y-38336571D01*
X33867000Y-38336571D01*
X34438428Y-39836571D02*
X34438428Y-38836571D01*
X34438428Y-38336571D02*
X34367000Y-38408000D01*
X34438428Y-38479428D01*
X34509857Y-38408000D01*
X34438428Y-38336571D01*
X34438428Y-38479428D01*
X35152714Y-38836571D02*
X35152714Y-39836571D01*
X35152714Y-38979428D02*
X35224142Y-38908000D01*
X35367000Y-38836571D01*
X35581285Y-38836571D01*
X35724142Y-38908000D01*
X35795571Y-39050857D01*
X35795571Y-39836571D01*
X36509857Y-39836571D02*
X36509857Y-38836571D01*
X36509857Y-38336571D02*
X36438428Y-38408000D01*
X36509857Y-38479428D01*
X36581285Y-38408000D01*
X36509857Y-38336571D01*
X36509857Y-38479428D01*
X37152714Y-39765142D02*
X37295571Y-39836571D01*
X37581285Y-39836571D01*
X37724142Y-39765142D01*
X37795571Y-39622285D01*
X37795571Y-39550857D01*
X37724142Y-39408000D01*
X37581285Y-39336571D01*
X37367000Y-39336571D01*
X37224142Y-39265142D01*
X37152714Y-39122285D01*
X37152714Y-39050857D01*
X37224142Y-38908000D01*
X37367000Y-38836571D01*
X37581285Y-38836571D01*
X37724142Y-38908000D01*
X38438428Y-39836571D02*
X38438428Y-38336571D01*
X39081285Y-39836571D02*
X39081285Y-39050857D01*
X39009857Y-38908000D01*
X38867000Y-38836571D01*
X38652714Y-38836571D01*
X38509857Y-38908000D01*
X38438428Y-38979428D01*
X39795571Y-39693714D02*
X39867000Y-39765142D01*
X39795571Y-39836571D01*
X39724142Y-39765142D01*
X39795571Y-39693714D01*
X39795571Y-39836571D01*
X39795571Y-38908000D02*
X39867000Y-38979428D01*
X39795571Y-39050857D01*
X39724142Y-38979428D01*
X39795571Y-38908000D01*
X39795571Y-39050857D01*
D11*
X24389857Y-21050142D02*
X24675571Y-21145380D01*
X24770809Y-21240619D01*
X24866047Y-21431095D01*
X24866047Y-21716809D01*
X24770809Y-21907285D01*
X24675571Y-22002523D01*
X24485095Y-22097761D01*
X23723190Y-22097761D01*
X23723190Y-20097761D01*
X24389857Y-20097761D01*
X24580333Y-20193000D01*
X24675571Y-20288238D01*
X24770809Y-20478714D01*
X24770809Y-20669190D01*
X24675571Y-20859666D01*
X24580333Y-20954904D01*
X24389857Y-21050142D01*
X23723190Y-21050142D01*
X26104142Y-20097761D02*
X26485095Y-20097761D01*
X26675571Y-20193000D01*
X26866047Y-20383476D01*
X26961285Y-20764428D01*
X26961285Y-21431095D01*
X26866047Y-21812047D01*
X26675571Y-22002523D01*
X26485095Y-22097761D01*
X26104142Y-22097761D01*
X25913666Y-22002523D01*
X25723190Y-21812047D01*
X25627952Y-21431095D01*
X25627952Y-20764428D01*
X25723190Y-20383476D01*
X25913666Y-20193000D01*
X26104142Y-20097761D01*
X27723190Y-21526333D02*
X28675571Y-21526333D01*
X27532714Y-22097761D02*
X28199380Y-20097761D01*
X28866047Y-22097761D01*
X30675571Y-22097761D02*
X30008904Y-21145380D01*
X29532714Y-22097761D02*
X29532714Y-20097761D01*
X30294619Y-20097761D01*
X30485095Y-20193000D01*
X30580333Y-20288238D01*
X30675571Y-20478714D01*
X30675571Y-20764428D01*
X30580333Y-20954904D01*
X30485095Y-21050142D01*
X30294619Y-21145380D01*
X29532714Y-21145380D01*
X31532714Y-22097761D02*
X31532714Y-20097761D01*
X32008904Y-20097761D01*
X32294619Y-20193000D01*
X32485095Y-20383476D01*
X32580333Y-20573952D01*
X32675571Y-20954904D01*
X32675571Y-21240619D01*
X32580333Y-21621571D01*
X32485095Y-21812047D01*
X32294619Y-22002523D01*
X32008904Y-22097761D01*
X31532714Y-22097761D01*
X36199380Y-21907285D02*
X36104142Y-22002523D01*
X35818428Y-22097761D01*
X35627952Y-22097761D01*
X35342238Y-22002523D01*
X35151761Y-21812047D01*
X35056523Y-21621571D01*
X34961285Y-21240619D01*
X34961285Y-20954904D01*
X35056523Y-20573952D01*
X35151761Y-20383476D01*
X35342238Y-20193000D01*
X35627952Y-20097761D01*
X35818428Y-20097761D01*
X36104142Y-20193000D01*
X36199380Y-20288238D01*
X37056523Y-22097761D02*
X37056523Y-20097761D01*
X37056523Y-21050142D02*
X38199380Y-21050142D01*
X38199380Y-22097761D02*
X38199380Y-20097761D01*
X39056523Y-21526333D02*
X40008904Y-21526333D01*
X38866047Y-22097761D02*
X39532714Y-20097761D01*
X40199380Y-22097761D01*
X42008904Y-22097761D02*
X41342238Y-21145380D01*
X40866047Y-22097761D02*
X40866047Y-20097761D01*
X41627952Y-20097761D01*
X41818428Y-20193000D01*
X41913666Y-20288238D01*
X42008904Y-20478714D01*
X42008904Y-20764428D01*
X41913666Y-20954904D01*
X41818428Y-21050142D01*
X41627952Y-21145380D01*
X40866047Y-21145380D01*
X42770809Y-21526333D02*
X43723190Y-21526333D01*
X42580333Y-22097761D02*
X43247000Y-20097761D01*
X43913666Y-22097761D01*
X45723190Y-21907285D02*
X45627952Y-22002523D01*
X45342238Y-22097761D01*
X45151761Y-22097761D01*
X44866047Y-22002523D01*
X44675571Y-21812047D01*
X44580333Y-21621571D01*
X44485095Y-21240619D01*
X44485095Y-20954904D01*
X44580333Y-20573952D01*
X44675571Y-20383476D01*
X44866047Y-20193000D01*
X45151761Y-20097761D01*
X45342238Y-20097761D01*
X45627952Y-20193000D01*
X45723190Y-20288238D01*
X46294619Y-20097761D02*
X47437476Y-20097761D01*
X46866047Y-22097761D02*
X46866047Y-20097761D01*
X48104142Y-21050142D02*
X48770809Y-21050142D01*
X49056523Y-22097761D02*
X48104142Y-22097761D01*
X48104142Y-20097761D01*
X49056523Y-20097761D01*
X51056523Y-22097761D02*
X50389857Y-21145380D01*
X49913666Y-22097761D02*
X49913666Y-20097761D01*
X50675571Y-20097761D01*
X50866047Y-20193000D01*
X50961285Y-20288238D01*
X51056523Y-20478714D01*
X51056523Y-20764428D01*
X50961285Y-20954904D01*
X50866047Y-21050142D01*
X50675571Y-21145380D01*
X49913666Y-21145380D01*
X51913666Y-22097761D02*
X51913666Y-20097761D01*
X52770809Y-22002523D02*
X53056523Y-22097761D01*
X53532714Y-22097761D01*
X53723190Y-22002523D01*
X53818428Y-21907285D01*
X53913666Y-21716809D01*
X53913666Y-21526333D01*
X53818428Y-21335857D01*
X53723190Y-21240619D01*
X53532714Y-21145380D01*
X53151761Y-21050142D01*
X52961285Y-20954904D01*
X52866047Y-20859666D01*
X52770809Y-20669190D01*
X52770809Y-20478714D01*
X52866047Y-20288238D01*
X52961285Y-20193000D01*
X53151761Y-20097761D01*
X53627952Y-20097761D01*
X53913666Y-20193000D01*
X54485095Y-20097761D02*
X55627952Y-20097761D01*
X55056523Y-22097761D02*
X55056523Y-20097761D01*
X56294619Y-22097761D02*
X56294619Y-20097761D01*
X58389857Y-21907285D02*
X58294619Y-22002523D01*
X58008904Y-22097761D01*
X57818428Y-22097761D01*
X57532714Y-22002523D01*
X57342238Y-21812047D01*
X57246999Y-21621571D01*
X57151761Y-21240619D01*
X57151761Y-20954904D01*
X57246999Y-20573952D01*
X57342238Y-20383476D01*
X57532714Y-20193000D01*
X57818428Y-20097761D01*
X58008904Y-20097761D01*
X58294619Y-20193000D01*
X58389857Y-20288238D01*
X59151761Y-22002523D02*
X59437476Y-22097761D01*
X59913666Y-22097761D01*
X60104142Y-22002523D01*
X60199380Y-21907285D01*
X60294619Y-21716809D01*
X60294619Y-21526333D01*
X60199380Y-21335857D01*
X60104142Y-21240619D01*
X59913666Y-21145380D01*
X59532714Y-21050142D01*
X59342238Y-20954904D01*
X59246999Y-20859666D01*
X59151761Y-20669190D01*
X59151761Y-20478714D01*
X59246999Y-20288238D01*
X59342238Y-20193000D01*
X59532714Y-20097761D01*
X60008904Y-20097761D01*
X60294619Y-20193000D01*
D12*
X25903571Y-98776142D02*
X25332142Y-98776142D01*
X25046428Y-98919000D01*
X24903571Y-99061857D01*
X24617857Y-99490428D01*
X24475000Y-100061857D01*
X24475000Y-101204714D01*
X24617857Y-101490428D01*
X24760714Y-101633285D01*
X25046428Y-101776142D01*
X25617857Y-101776142D01*
X25903571Y-101633285D01*
X26046428Y-101490428D01*
X26189285Y-101204714D01*
X26189285Y-100490428D01*
X26046428Y-100204714D01*
X25903571Y-100061857D01*
X25617857Y-99919000D01*
X25046428Y-99919000D01*
X24760714Y-100061857D01*
X24617857Y-100204714D01*
X24475000Y-100490428D01*
X27475000Y-101490428D02*
X27617857Y-101633285D01*
X27475000Y-101776142D01*
X27332142Y-101633285D01*
X27475000Y-101490428D01*
X27475000Y-101776142D01*
X31046428Y-101633285D02*
X31475000Y-101776142D01*
X32189285Y-101776142D01*
X32475000Y-101633285D01*
X32617857Y-101490428D01*
X32760714Y-101204714D01*
X32760714Y-100919000D01*
X32617857Y-100633285D01*
X32475000Y-100490428D01*
X32189285Y-100347571D01*
X31617857Y-100204714D01*
X31332142Y-100061857D01*
X31189285Y-99919000D01*
X31046428Y-99633285D01*
X31046428Y-99347571D01*
X31189285Y-99061857D01*
X31332142Y-98919000D01*
X31617857Y-98776142D01*
X32332142Y-98776142D01*
X32760714Y-98919000D01*
X34046428Y-101776142D02*
X34046428Y-99776142D01*
X34046428Y-98776142D02*
X33903571Y-98919000D01*
X34046428Y-99061857D01*
X34189285Y-98919000D01*
X34046428Y-98776142D01*
X34046428Y-99061857D01*
X35903571Y-101776142D02*
X35617857Y-101633285D01*
X35475000Y-101347571D01*
X35475000Y-98776142D01*
X37046428Y-101776142D02*
X37046428Y-98776142D01*
X37332142Y-100633285D02*
X38189285Y-101776142D01*
X38189285Y-99776142D02*
X37046428Y-100919000D01*
X39332142Y-101633285D02*
X39617857Y-101776142D01*
X40189285Y-101776142D01*
X40475000Y-101633285D01*
X40617857Y-101347571D01*
X40617857Y-101204714D01*
X40475000Y-100919000D01*
X40189285Y-100776142D01*
X39760714Y-100776142D01*
X39475000Y-100633285D01*
X39332142Y-100347571D01*
X39332142Y-100204714D01*
X39475000Y-99919000D01*
X39760714Y-99776142D01*
X40189285Y-99776142D01*
X40475000Y-99919000D01*
X43189285Y-101633285D02*
X42903571Y-101776142D01*
X42332142Y-101776142D01*
X42046428Y-101633285D01*
X41903571Y-101490428D01*
X41760714Y-101204714D01*
X41760714Y-100347571D01*
X41903571Y-100061857D01*
X42046428Y-99919000D01*
X42332142Y-99776142D01*
X42903571Y-99776142D01*
X43189285Y-99919000D01*
X44475000Y-101776142D02*
X44475000Y-99776142D01*
X44475000Y-100347571D02*
X44617857Y-100061857D01*
X44760714Y-99919000D01*
X45046428Y-99776142D01*
X45332142Y-99776142D01*
X47475000Y-101633285D02*
X47189285Y-101776142D01*
X46617857Y-101776142D01*
X46332142Y-101633285D01*
X46189285Y-101347571D01*
X46189285Y-100204714D01*
X46332142Y-99919000D01*
X46617857Y-99776142D01*
X47189285Y-99776142D01*
X47475000Y-99919000D01*
X47617857Y-100204714D01*
X47617857Y-100490428D01*
X46189285Y-100776142D01*
X50046428Y-101633285D02*
X49760714Y-101776142D01*
X49189285Y-101776142D01*
X48903571Y-101633285D01*
X48760714Y-101347571D01*
X48760714Y-100204714D01*
X48903571Y-99919000D01*
X49189285Y-99776142D01*
X49760714Y-99776142D01*
X50046428Y-99919000D01*
X50189285Y-100204714D01*
X50189285Y-100490428D01*
X48760714Y-100776142D01*
X51475000Y-99776142D02*
X51475000Y-101776142D01*
X51475000Y-100061857D02*
X51617857Y-99919000D01*
X51903571Y-99776142D01*
X52332142Y-99776142D01*
X52617857Y-99919000D01*
X52760714Y-100204714D01*
X52760714Y-101776142D01*
X54189285Y-101490428D02*
X54332142Y-101633285D01*
X54189285Y-101776142D01*
X54046428Y-101633285D01*
X54189285Y-101490428D01*
X54189285Y-101776142D01*
X54189285Y-99919000D02*
X54332142Y-100061857D01*
X54189285Y-100204714D01*
X54046428Y-100061857D01*
X54189285Y-99919000D01*
X54189285Y-100204714D01*
X57617857Y-98776142D02*
X58332142Y-101776142D01*
X58903571Y-99633285D01*
X59475000Y-101776142D01*
X60189285Y-98776142D01*
X61332142Y-101776142D02*
X61332142Y-98776142D01*
X62617857Y-101776142D02*
X62617857Y-100204714D01*
X62475000Y-99919000D01*
X62189285Y-99776142D01*
X61760714Y-99776142D01*
X61475000Y-99919000D01*
X61332142Y-100061857D01*
X64046428Y-101776142D02*
X64046428Y-99776142D01*
X64046428Y-98776142D02*
X63903571Y-98919000D01*
X64046428Y-99061857D01*
X64189285Y-98919000D01*
X64046428Y-98776142D01*
X64046428Y-99061857D01*
X65046428Y-99776142D02*
X66189285Y-99776142D01*
X65475000Y-98776142D02*
X65475000Y-101347571D01*
X65617857Y-101633285D01*
X65903571Y-101776142D01*
X66189285Y-101776142D01*
X68332142Y-101633285D02*
X68046428Y-101776142D01*
X67475000Y-101776142D01*
X67189285Y-101633285D01*
X67046428Y-101347571D01*
X67046428Y-100204714D01*
X67189285Y-99919000D01*
X67475000Y-99776142D01*
X68046428Y-99776142D01*
X68332142Y-99919000D01*
X68475000Y-100204714D01*
X68475000Y-100490428D01*
X67046428Y-100776142D01*
X24312885Y-85769742D02*
X26170028Y-85769742D01*
X25170028Y-86912600D01*
X25598600Y-86912600D01*
X25884314Y-87055457D01*
X26027171Y-87198314D01*
X26170028Y-87484028D01*
X26170028Y-88198314D01*
X26027171Y-88484028D01*
X25884314Y-88626885D01*
X25598600Y-88769742D01*
X24741457Y-88769742D01*
X24455742Y-88626885D01*
X24312885Y-88484028D01*
X27455742Y-88484028D02*
X27598600Y-88626885D01*
X27455742Y-88769742D01*
X27312885Y-88626885D01*
X27455742Y-88484028D01*
X27455742Y-88769742D01*
X32598600Y-88769742D02*
X31170028Y-88769742D01*
X31170028Y-85769742D01*
X34884314Y-88769742D02*
X34884314Y-87198314D01*
X34741457Y-86912600D01*
X34455742Y-86769742D01*
X33884314Y-86769742D01*
X33598600Y-86912600D01*
X34884314Y-88626885D02*
X34598600Y-88769742D01*
X33884314Y-88769742D01*
X33598600Y-88626885D01*
X33455742Y-88341171D01*
X33455742Y-88055457D01*
X33598600Y-87769742D01*
X33884314Y-87626885D01*
X34598600Y-87626885D01*
X34884314Y-87484028D01*
X36027171Y-86769742D02*
X36741457Y-88769742D01*
X37455742Y-86769742D02*
X36741457Y-88769742D01*
X36455742Y-89484028D01*
X36312885Y-89626885D01*
X36027171Y-89769742D01*
X39741457Y-88626885D02*
X39455742Y-88769742D01*
X38884314Y-88769742D01*
X38598600Y-88626885D01*
X38455742Y-88341171D01*
X38455742Y-87198314D01*
X38598600Y-86912600D01*
X38884314Y-86769742D01*
X39455742Y-86769742D01*
X39741457Y-86912600D01*
X39884314Y-87198314D01*
X39884314Y-87484028D01*
X38455742Y-87769742D01*
X41170028Y-88769742D02*
X41170028Y-86769742D01*
X41170028Y-87341171D02*
X41312885Y-87055457D01*
X41455742Y-86912600D01*
X41741457Y-86769742D01*
X42027171Y-86769742D01*
X42884314Y-88626885D02*
X43170028Y-88769742D01*
X43741457Y-88769742D01*
X44027171Y-88626885D01*
X44170028Y-88341171D01*
X44170028Y-88198314D01*
X44027171Y-87912600D01*
X43741457Y-87769742D01*
X43312885Y-87769742D01*
X43027171Y-87626885D01*
X42884314Y-87341171D01*
X42884314Y-87198314D01*
X43027171Y-86912600D01*
X43312885Y-86769742D01*
X43741457Y-86769742D01*
X44027171Y-86912600D01*
X45455742Y-88484028D02*
X45598600Y-88626885D01*
X45455742Y-88769742D01*
X45312885Y-88626885D01*
X45455742Y-88484028D01*
X45455742Y-88769742D01*
X45455742Y-86912600D02*
X45598600Y-87055457D01*
X45455742Y-87198314D01*
X45312885Y-87055457D01*
X45455742Y-86912600D01*
X45455742Y-87198314D01*
X49027171Y-86055457D02*
X49170028Y-85912600D01*
X49455742Y-85769742D01*
X50170028Y-85769742D01*
X50455742Y-85912600D01*
X50598600Y-86055457D01*
X50741457Y-86341171D01*
X50741457Y-86626885D01*
X50598600Y-87055457D01*
X48884314Y-88769742D01*
X50741457Y-88769742D01*
X24903571Y-113561857D02*
X24617857Y-113419000D01*
X24474999Y-113276142D01*
X24332142Y-112990428D01*
X24332142Y-112847571D01*
X24474999Y-112561857D01*
X24617857Y-112419000D01*
X24903571Y-112276142D01*
X25474999Y-112276142D01*
X25760714Y-112419000D01*
X25903571Y-112561857D01*
X26046428Y-112847571D01*
X26046428Y-112990428D01*
X25903571Y-113276142D01*
X25760714Y-113419000D01*
X25474999Y-113561857D01*
X24903571Y-113561857D01*
X24617857Y-113704714D01*
X24474999Y-113847571D01*
X24332142Y-114133285D01*
X24332142Y-114704714D01*
X24474999Y-114990428D01*
X24617857Y-115133285D01*
X24903571Y-115276142D01*
X25474999Y-115276142D01*
X25760714Y-115133285D01*
X25903571Y-114990428D01*
X26046428Y-114704714D01*
X26046428Y-114133285D01*
X25903571Y-113847571D01*
X25760714Y-113704714D01*
X25474999Y-113561857D01*
X27332142Y-114990428D02*
X27474999Y-115133285D01*
X27332142Y-115276142D01*
X27189285Y-115133285D01*
X27332142Y-114990428D01*
X27332142Y-115276142D01*
X32046428Y-113704714D02*
X31046428Y-113704714D01*
X31046428Y-115276142D02*
X31046428Y-112276142D01*
X32474999Y-112276142D01*
X33617857Y-115276142D02*
X33617857Y-113276142D01*
X33617857Y-112276142D02*
X33474999Y-112419000D01*
X33617857Y-112561857D01*
X33760714Y-112419000D01*
X33617857Y-112276142D01*
X33617857Y-112561857D01*
X35046428Y-113276142D02*
X35046428Y-115276142D01*
X35046428Y-113561857D02*
X35189285Y-113419000D01*
X35474999Y-113276142D01*
X35903571Y-113276142D01*
X36189285Y-113419000D01*
X36332142Y-113704714D01*
X36332142Y-115276142D01*
X37760714Y-115276142D02*
X37760714Y-113276142D01*
X37760714Y-112276142D02*
X37617857Y-112419000D01*
X37760714Y-112561857D01*
X37903571Y-112419000D01*
X37760714Y-112276142D01*
X37760714Y-112561857D01*
X39046428Y-115133285D02*
X39332142Y-115276142D01*
X39903571Y-115276142D01*
X40189285Y-115133285D01*
X40332142Y-114847571D01*
X40332142Y-114704714D01*
X40189285Y-114419000D01*
X39903571Y-114276142D01*
X39474999Y-114276142D01*
X39189285Y-114133285D01*
X39046428Y-113847571D01*
X39046428Y-113704714D01*
X39189285Y-113419000D01*
X39474999Y-113276142D01*
X39903571Y-113276142D01*
X40189285Y-113419000D01*
X41617857Y-115276142D02*
X41617857Y-112276142D01*
X42903571Y-115276142D02*
X42903571Y-113704714D01*
X42760714Y-113419000D01*
X42474999Y-113276142D01*
X42046428Y-113276142D01*
X41760714Y-113419000D01*
X41617857Y-113561857D01*
X45474999Y-115133285D02*
X45189285Y-115276142D01*
X44617857Y-115276142D01*
X44332142Y-115133285D01*
X44189285Y-114847571D01*
X44189285Y-113704714D01*
X44332142Y-113419000D01*
X44617857Y-113276142D01*
X45189285Y-113276142D01*
X45474999Y-113419000D01*
X45617857Y-113704714D01*
X45617857Y-113990428D01*
X44189285Y-114276142D01*
X48189285Y-115276142D02*
X48189285Y-112276142D01*
X48189285Y-115133285D02*
X47903571Y-115276142D01*
X47332142Y-115276142D01*
X47046428Y-115133285D01*
X46903571Y-114990428D01*
X46760714Y-114704714D01*
X46760714Y-113847571D01*
X46903571Y-113561857D01*
X47046428Y-113419000D01*
X47332142Y-113276142D01*
X47903571Y-113276142D01*
X48189285Y-113419000D01*
X53617857Y-114990428D02*
X53474999Y-115133285D01*
X53046428Y-115276142D01*
X52760714Y-115276142D01*
X52332142Y-115133285D01*
X52046428Y-114847571D01*
X51903571Y-114561857D01*
X51760714Y-113990428D01*
X51760714Y-113561857D01*
X51903571Y-112990428D01*
X52046428Y-112704714D01*
X52332142Y-112419000D01*
X52760714Y-112276142D01*
X53046428Y-112276142D01*
X53474999Y-112419000D01*
X53617857Y-112561857D01*
X55332142Y-115276142D02*
X55046428Y-115133285D01*
X54903571Y-114990428D01*
X54760714Y-114704714D01*
X54760714Y-113847571D01*
X54903571Y-113561857D01*
X55046428Y-113419000D01*
X55332142Y-113276142D01*
X55760714Y-113276142D01*
X56046428Y-113419000D01*
X56189285Y-113561857D01*
X56332142Y-113847571D01*
X56332142Y-114704714D01*
X56189285Y-114990428D01*
X56046428Y-115133285D01*
X55760714Y-115276142D01*
X55332142Y-115276142D01*
X57617857Y-113276142D02*
X57617857Y-116276142D01*
X57617857Y-113419000D02*
X57903571Y-113276142D01*
X58474999Y-113276142D01*
X58760714Y-113419000D01*
X58903571Y-113561857D01*
X59046428Y-113847571D01*
X59046428Y-114704714D01*
X58903571Y-114990428D01*
X58760714Y-115133285D01*
X58474999Y-115276142D01*
X57903571Y-115276142D01*
X57617857Y-115133285D01*
X60332142Y-113276142D02*
X60332142Y-116276142D01*
X60332142Y-113419000D02*
X60617857Y-113276142D01*
X61189285Y-113276142D01*
X61474999Y-113419000D01*
X61617857Y-113561857D01*
X61760714Y-113847571D01*
X61760714Y-114704714D01*
X61617857Y-114990428D01*
X61474999Y-115133285D01*
X61189285Y-115276142D01*
X60617857Y-115276142D01*
X60332142Y-115133285D01*
X64189285Y-115133285D02*
X63903571Y-115276142D01*
X63332142Y-115276142D01*
X63046428Y-115133285D01*
X62903571Y-114847571D01*
X62903571Y-113704714D01*
X63046428Y-113419000D01*
X63332142Y-113276142D01*
X63903571Y-113276142D01*
X64189285Y-113419000D01*
X64332142Y-113704714D01*
X64332142Y-113990428D01*
X62903571Y-114276142D01*
X65617857Y-115276142D02*
X65617857Y-113276142D01*
X65617857Y-113847571D02*
X65760714Y-113561857D01*
X65903571Y-113419000D01*
X66189285Y-113276142D01*
X66475000Y-113276142D01*
X67475000Y-114990428D02*
X67617857Y-115133285D01*
X67475000Y-115276142D01*
X67332142Y-115133285D01*
X67475000Y-114990428D01*
X67475000Y-115276142D01*
X67475000Y-113419000D02*
X67617857Y-113561857D01*
X67475000Y-113704714D01*
X67332142Y-113561857D01*
X67475000Y-113419000D01*
X67475000Y-113704714D01*
X68760714Y-112561857D02*
X68903571Y-112419000D01*
X69189285Y-112276142D01*
X69903571Y-112276142D01*
X70189285Y-112419000D01*
X70332142Y-112561857D01*
X70474999Y-112847571D01*
X70474999Y-113133285D01*
X70332142Y-113561857D01*
X68617857Y-115276142D01*
X70474999Y-115276142D01*
X72189285Y-115276142D02*
X71903571Y-115133285D01*
X71760714Y-114990428D01*
X71617857Y-114704714D01*
X71617857Y-113847571D01*
X71760714Y-113561857D01*
X71903571Y-113419000D01*
X72189285Y-113276142D01*
X72617857Y-113276142D01*
X72903571Y-113419000D01*
X73046428Y-113561857D01*
X73189285Y-113847571D01*
X73189285Y-114704714D01*
X73046428Y-114990428D01*
X72903571Y-115133285D01*
X72617857Y-115276142D01*
X72189285Y-115276142D01*
X74189285Y-113276142D02*
X75760714Y-113276142D01*
X74189285Y-115276142D01*
X75760714Y-115276142D01*
X80903571Y-114990428D02*
X80760714Y-115133285D01*
X80332142Y-115276142D01*
X80046428Y-115276142D01*
X79617857Y-115133285D01*
X79332142Y-114847571D01*
X79189285Y-114561857D01*
X79046428Y-113990428D01*
X79046428Y-113561857D01*
X79189285Y-112990428D01*
X79332142Y-112704714D01*
X79617857Y-112419000D01*
X80046428Y-112276142D01*
X80332142Y-112276142D01*
X80760714Y-112419000D01*
X80903571Y-112561857D01*
X83474999Y-113276142D02*
X83474999Y-115276142D01*
X82189285Y-113276142D02*
X82189285Y-114847571D01*
X82332142Y-115133285D01*
X82617857Y-115276142D01*
X83046428Y-115276142D01*
X83332142Y-115133285D01*
X83474999Y-114990428D01*
X25796800Y-91917342D02*
X24368228Y-91917342D01*
X24225371Y-93345914D01*
X24368228Y-93203057D01*
X24653942Y-93060200D01*
X25368228Y-93060200D01*
X25653942Y-93203057D01*
X25796800Y-93345914D01*
X25939657Y-93631628D01*
X25939657Y-94345914D01*
X25796800Y-94631628D01*
X25653942Y-94774485D01*
X25368228Y-94917342D01*
X24653942Y-94917342D01*
X24368228Y-94774485D01*
X24225371Y-94631628D01*
X27225371Y-94631628D02*
X27368228Y-94774485D01*
X27225371Y-94917342D01*
X27082514Y-94774485D01*
X27225371Y-94631628D01*
X27225371Y-94917342D01*
X30796800Y-94774485D02*
X31225371Y-94917342D01*
X31939657Y-94917342D01*
X32225371Y-94774485D01*
X32368228Y-94631628D01*
X32511085Y-94345914D01*
X32511085Y-94060200D01*
X32368228Y-93774485D01*
X32225371Y-93631628D01*
X31939657Y-93488771D01*
X31368228Y-93345914D01*
X31082514Y-93203057D01*
X30939657Y-93060200D01*
X30796800Y-92774485D01*
X30796800Y-92488771D01*
X30939657Y-92203057D01*
X31082514Y-92060200D01*
X31368228Y-91917342D01*
X32082514Y-91917342D01*
X32511085Y-92060200D01*
X34368228Y-91917342D02*
X34939657Y-91917342D01*
X35225371Y-92060200D01*
X35511085Y-92345914D01*
X35653942Y-92917342D01*
X35653942Y-93917342D01*
X35511085Y-94488771D01*
X35225371Y-94774485D01*
X34939657Y-94917342D01*
X34368228Y-94917342D01*
X34082514Y-94774485D01*
X33796800Y-94488771D01*
X33653942Y-93917342D01*
X33653942Y-92917342D01*
X33796800Y-92345914D01*
X34082514Y-92060200D01*
X34368228Y-91917342D01*
X38368228Y-94917342D02*
X36939657Y-94917342D01*
X36939657Y-91917342D01*
X39368228Y-94917342D02*
X39368228Y-91917342D01*
X40082514Y-91917342D01*
X40511085Y-92060200D01*
X40796800Y-92345914D01*
X40939657Y-92631628D01*
X41082514Y-93203057D01*
X41082514Y-93631628D01*
X40939657Y-94203057D01*
X40796800Y-94488771D01*
X40511085Y-94774485D01*
X40082514Y-94917342D01*
X39368228Y-94917342D01*
X42368228Y-93345914D02*
X43368228Y-93345914D01*
X43796800Y-94917342D02*
X42368228Y-94917342D01*
X42368228Y-91917342D01*
X43796800Y-91917342D01*
X46796800Y-94917342D02*
X45796800Y-93488771D01*
X45082514Y-94917342D02*
X45082514Y-91917342D01*
X46225371Y-91917342D01*
X46511085Y-92060200D01*
X46653942Y-92203057D01*
X46796800Y-92488771D01*
X46796800Y-92917342D01*
X46653942Y-93203057D01*
X46511085Y-93345914D01*
X46225371Y-93488771D01*
X45082514Y-93488771D01*
X50368228Y-94917342D02*
X50368228Y-91917342D01*
X51368228Y-94060200D01*
X52368228Y-91917342D01*
X52368228Y-94917342D01*
X53653942Y-94060200D02*
X55082514Y-94060200D01*
X53368228Y-94917342D02*
X54368228Y-91917342D01*
X55368228Y-94917342D01*
X56225371Y-94774485D02*
X56653942Y-94917342D01*
X57368228Y-94917342D01*
X57653942Y-94774485D01*
X57796800Y-94631628D01*
X57939657Y-94345914D01*
X57939657Y-94060200D01*
X57796800Y-93774485D01*
X57653942Y-93631628D01*
X57368228Y-93488771D01*
X56796800Y-93345914D01*
X56511085Y-93203057D01*
X56368228Y-93060200D01*
X56225371Y-92774485D01*
X56225371Y-92488771D01*
X56368228Y-92203057D01*
X56511085Y-92060200D01*
X56796800Y-91917342D01*
X57511085Y-91917342D01*
X57939657Y-92060200D01*
X59225371Y-94917342D02*
X59225371Y-91917342D01*
X60939657Y-94917342D02*
X59653942Y-93203057D01*
X60939657Y-91917342D02*
X59225371Y-93631628D01*
X62225371Y-94631628D02*
X62368228Y-94774485D01*
X62225371Y-94917342D01*
X62082514Y-94774485D01*
X62225371Y-94631628D01*
X62225371Y-94917342D01*
X62225371Y-93060200D02*
X62368228Y-93203057D01*
X62225371Y-93345914D01*
X62082514Y-93203057D01*
X62225371Y-93060200D01*
X62225371Y-93345914D01*
X67653942Y-94917342D02*
X66653942Y-93488771D01*
X65939657Y-94917342D02*
X65939657Y-91917342D01*
X67082514Y-91917342D01*
X67368228Y-92060200D01*
X67511085Y-92203057D01*
X67653942Y-92488771D01*
X67653942Y-92917342D01*
X67511085Y-93203057D01*
X67368228Y-93345914D01*
X67082514Y-93488771D01*
X65939657Y-93488771D01*
X68939657Y-93345914D02*
X69939657Y-93345914D01*
X70368228Y-94917342D02*
X68939657Y-94917342D01*
X68939657Y-91917342D01*
X70368228Y-91917342D01*
X71653942Y-94917342D02*
X71653942Y-91917342D01*
X72368228Y-91917342D01*
X72796800Y-92060200D01*
X73082514Y-92345914D01*
X73225371Y-92631628D01*
X73368228Y-93203057D01*
X73368228Y-93631628D01*
X73225371Y-94203057D01*
X73082514Y-94488771D01*
X72796800Y-94774485D01*
X72368228Y-94917342D01*
X71653942Y-94917342D01*
X24689285Y-121276142D02*
X25260714Y-121276142D01*
X25546428Y-121133285D01*
X25689285Y-120990428D01*
X25975000Y-120561857D01*
X26117857Y-119990428D01*
X26117857Y-118847571D01*
X25975000Y-118561857D01*
X25832142Y-118419000D01*
X25546428Y-118276142D01*
X24975000Y-118276142D01*
X24689285Y-118419000D01*
X24546428Y-118561857D01*
X24403571Y-118847571D01*
X24403571Y-119561857D01*
X24546428Y-119847571D01*
X24689285Y-119990428D01*
X24975000Y-120133285D01*
X25546428Y-120133285D01*
X25832142Y-119990428D01*
X25975000Y-119847571D01*
X26117857Y-119561857D01*
X27403571Y-120990428D02*
X27546428Y-121133285D01*
X27403571Y-121276142D01*
X27260714Y-121133285D01*
X27403571Y-120990428D01*
X27403571Y-121276142D01*
X30689285Y-118276142D02*
X32403571Y-118276142D01*
X31546428Y-121276142D02*
X31546428Y-118276142D01*
X33832142Y-121276142D02*
X33546428Y-121133285D01*
X33403571Y-120990428D01*
X33260714Y-120704714D01*
X33260714Y-119847571D01*
X33403571Y-119561857D01*
X33546428Y-119419000D01*
X33832142Y-119276142D01*
X34260714Y-119276142D01*
X34546428Y-119419000D01*
X34689285Y-119561857D01*
X34832142Y-119847571D01*
X34832142Y-120704714D01*
X34689285Y-120990428D01*
X34546428Y-121133285D01*
X34260714Y-121276142D01*
X33832142Y-121276142D01*
X35689285Y-119276142D02*
X36832142Y-119276142D01*
X36117857Y-118276142D02*
X36117857Y-120847571D01*
X36260714Y-121133285D01*
X36546428Y-121276142D01*
X36832142Y-121276142D01*
X39117857Y-121276142D02*
X39117857Y-119704714D01*
X38975000Y-119419000D01*
X38689285Y-119276142D01*
X38117857Y-119276142D01*
X37832142Y-119419000D01*
X39117857Y-121133285D02*
X38832142Y-121276142D01*
X38117857Y-121276142D01*
X37832142Y-121133285D01*
X37689285Y-120847571D01*
X37689285Y-120561857D01*
X37832142Y-120276142D01*
X38117857Y-120133285D01*
X38832142Y-120133285D01*
X39117857Y-119990428D01*
X40975000Y-121276142D02*
X40689285Y-121133285D01*
X40546428Y-120847571D01*
X40546428Y-118276142D01*
X43975000Y-118276142D02*
X45689285Y-118276142D01*
X44832142Y-121276142D02*
X44832142Y-118276142D01*
X46689285Y-121276142D02*
X46689285Y-118276142D01*
X47975000Y-121276142D02*
X47975000Y-119704714D01*
X47832142Y-119419000D01*
X47546428Y-119276142D01*
X47117857Y-119276142D01*
X46832142Y-119419000D01*
X46689285Y-119561857D01*
X49403571Y-121276142D02*
X49403571Y-119276142D01*
X49403571Y-118276142D02*
X49260714Y-118419000D01*
X49403571Y-118561857D01*
X49546428Y-118419000D01*
X49403571Y-118276142D01*
X49403571Y-118561857D01*
X52117857Y-121133285D02*
X51832142Y-121276142D01*
X51260714Y-121276142D01*
X50975000Y-121133285D01*
X50832142Y-120990428D01*
X50689285Y-120704714D01*
X50689285Y-119847571D01*
X50832142Y-119561857D01*
X50975000Y-119419000D01*
X51260714Y-119276142D01*
X51832142Y-119276142D01*
X52117857Y-119419000D01*
X53403571Y-121276142D02*
X53403571Y-118276142D01*
X53689285Y-120133285D02*
X54546428Y-121276142D01*
X54546428Y-119276142D02*
X53403571Y-120419000D01*
X55832142Y-119276142D02*
X55832142Y-121276142D01*
X55832142Y-119561857D02*
X55975000Y-119419000D01*
X56260714Y-119276142D01*
X56689285Y-119276142D01*
X56975000Y-119419000D01*
X57117857Y-119704714D01*
X57117857Y-121276142D01*
X59689285Y-121133285D02*
X59403571Y-121276142D01*
X58832142Y-121276142D01*
X58546428Y-121133285D01*
X58403571Y-120847571D01*
X58403571Y-119704714D01*
X58546428Y-119419000D01*
X58832142Y-119276142D01*
X59403571Y-119276142D01*
X59689285Y-119419000D01*
X59832142Y-119704714D01*
X59832142Y-119990428D01*
X58403571Y-120276142D01*
X60975000Y-121133285D02*
X61260714Y-121276142D01*
X61832142Y-121276142D01*
X62117857Y-121133285D01*
X62260714Y-120847571D01*
X62260714Y-120704714D01*
X62117857Y-120419000D01*
X61832142Y-120276142D01*
X61403571Y-120276142D01*
X61117857Y-120133285D01*
X60975000Y-119847571D01*
X60975000Y-119704714D01*
X61117857Y-119419000D01*
X61403571Y-119276142D01*
X61832142Y-119276142D01*
X62117857Y-119419000D01*
X63403571Y-121133285D02*
X63689285Y-121276142D01*
X64260714Y-121276142D01*
X64546428Y-121133285D01*
X64689285Y-120847571D01*
X64689285Y-120704714D01*
X64546428Y-120419000D01*
X64260714Y-120276142D01*
X63832142Y-120276142D01*
X63546428Y-120133285D01*
X63403571Y-119847571D01*
X63403571Y-119704714D01*
X63546428Y-119419000D01*
X63832142Y-119276142D01*
X64260714Y-119276142D01*
X64546428Y-119419000D01*
X65975000Y-120990428D02*
X66117857Y-121133285D01*
X65975000Y-121276142D01*
X65832142Y-121133285D01*
X65975000Y-120990428D01*
X65975000Y-121276142D01*
X65975000Y-119419000D02*
X66117857Y-119561857D01*
X65975000Y-119704714D01*
X65832142Y-119561857D01*
X65975000Y-119419000D01*
X65975000Y-119704714D01*
X71260714Y-121276142D02*
X69546428Y-121276142D01*
X70403571Y-121276142D02*
X70403571Y-118276142D01*
X70117857Y-118704714D01*
X69832142Y-118990428D01*
X69546428Y-119133285D01*
X72546428Y-120990428D02*
X72689285Y-121133285D01*
X72546428Y-121276142D01*
X72403571Y-121133285D01*
X72546428Y-120990428D01*
X72546428Y-121276142D01*
X75260714Y-118276142D02*
X74689285Y-118276142D01*
X74403571Y-118419000D01*
X74260714Y-118561857D01*
X73975000Y-118990428D01*
X73832142Y-119561857D01*
X73832142Y-120704714D01*
X73975000Y-120990428D01*
X74117857Y-121133285D01*
X74403571Y-121276142D01*
X74975000Y-121276142D01*
X75260714Y-121133285D01*
X75403571Y-120990428D01*
X75546428Y-120704714D01*
X75546428Y-119990428D01*
X75403571Y-119704714D01*
X75260714Y-119561857D01*
X74975000Y-119419000D01*
X74403571Y-119419000D01*
X74117857Y-119561857D01*
X73975000Y-119704714D01*
X73832142Y-119990428D01*
X76832142Y-121276142D02*
X76832142Y-119276142D01*
X76832142Y-119561857D02*
X76975000Y-119419000D01*
X77260714Y-119276142D01*
X77689285Y-119276142D01*
X77975000Y-119419000D01*
X78117857Y-119704714D01*
X78117857Y-121276142D01*
X78117857Y-119704714D02*
X78260714Y-119419000D01*
X78546428Y-119276142D01*
X78975000Y-119276142D01*
X79260714Y-119419000D01*
X79403571Y-119704714D01*
X79403571Y-121276142D01*
X80832142Y-121276142D02*
X80832142Y-119276142D01*
X80832142Y-119561857D02*
X80975000Y-119419000D01*
X81260714Y-119276142D01*
X81689285Y-119276142D01*
X81975000Y-119419000D01*
X82117857Y-119704714D01*
X82117857Y-121276142D01*
X82117857Y-119704714D02*
X82260714Y-119419000D01*
X82546428Y-119276142D01*
X82975000Y-119276142D01*
X83260714Y-119419000D01*
X83403571Y-119704714D01*
X83403571Y-121276142D01*
X23162114Y-105448542D02*
X25162114Y-105448542D01*
X23876400Y-108448542D01*
X26304971Y-108162828D02*
X26447828Y-108305685D01*
X26304971Y-108448542D01*
X26162114Y-108305685D01*
X26304971Y-108162828D01*
X26304971Y-108448542D01*
X29876400Y-108305685D02*
X30304971Y-108448542D01*
X31019257Y-108448542D01*
X31304971Y-108305685D01*
X31447828Y-108162828D01*
X31590685Y-107877114D01*
X31590685Y-107591400D01*
X31447828Y-107305685D01*
X31304971Y-107162828D01*
X31019257Y-107019971D01*
X30447828Y-106877114D01*
X30162114Y-106734257D01*
X30019257Y-106591400D01*
X29876400Y-106305685D01*
X29876400Y-106019971D01*
X30019257Y-105734257D01*
X30162114Y-105591400D01*
X30447828Y-105448542D01*
X31162114Y-105448542D01*
X31590685Y-105591400D01*
X34162114Y-106448542D02*
X34162114Y-108448542D01*
X32876400Y-106448542D02*
X32876400Y-108019971D01*
X33019257Y-108305685D01*
X33304971Y-108448542D01*
X33733542Y-108448542D01*
X34019257Y-108305685D01*
X34162114Y-108162828D01*
X35590685Y-108448542D02*
X35590685Y-106448542D01*
X35590685Y-107019971D02*
X35733542Y-106734257D01*
X35876400Y-106591400D01*
X36162114Y-106448542D01*
X36447828Y-106448542D01*
X37019257Y-106448542D02*
X38162114Y-106448542D01*
X37447828Y-108448542D02*
X37447828Y-105877114D01*
X37590685Y-105591400D01*
X37876400Y-105448542D01*
X38162114Y-105448542D01*
X40447828Y-108448542D02*
X40447828Y-106877114D01*
X40304971Y-106591400D01*
X40019257Y-106448542D01*
X39447828Y-106448542D01*
X39162114Y-106591400D01*
X40447828Y-108305685D02*
X40162114Y-108448542D01*
X39447828Y-108448542D01*
X39162114Y-108305685D01*
X39019257Y-108019971D01*
X39019257Y-107734257D01*
X39162114Y-107448542D01*
X39447828Y-107305685D01*
X40162114Y-107305685D01*
X40447828Y-107162828D01*
X43162114Y-108305685D02*
X42876400Y-108448542D01*
X42304971Y-108448542D01*
X42019257Y-108305685D01*
X41876400Y-108162828D01*
X41733542Y-107877114D01*
X41733542Y-107019971D01*
X41876400Y-106734257D01*
X42019257Y-106591400D01*
X42304971Y-106448542D01*
X42876400Y-106448542D01*
X43162114Y-106591400D01*
X45590685Y-108305685D02*
X45304971Y-108448542D01*
X44733542Y-108448542D01*
X44447828Y-108305685D01*
X44304971Y-108019971D01*
X44304971Y-106877114D01*
X44447828Y-106591400D01*
X44733542Y-106448542D01*
X45304971Y-106448542D01*
X45590685Y-106591400D01*
X45733542Y-106877114D01*
X45733542Y-107162828D01*
X44304971Y-107448542D01*
X48876400Y-106448542D02*
X50019257Y-106448542D01*
X49304971Y-108448542D02*
X49304971Y-105877114D01*
X49447828Y-105591400D01*
X49733542Y-105448542D01*
X50019257Y-105448542D01*
X51019257Y-108448542D02*
X51019257Y-106448542D01*
X51019257Y-105448542D02*
X50876400Y-105591400D01*
X51019257Y-105734257D01*
X51162114Y-105591400D01*
X51019257Y-105448542D01*
X51019257Y-105734257D01*
X52447828Y-106448542D02*
X52447828Y-108448542D01*
X52447828Y-106734257D02*
X52590685Y-106591400D01*
X52876400Y-106448542D01*
X53304971Y-106448542D01*
X53590685Y-106591400D01*
X53733542Y-106877114D01*
X53733542Y-108448542D01*
X55162114Y-108448542D02*
X55162114Y-106448542D01*
X55162114Y-105448542D02*
X55019257Y-105591400D01*
X55162114Y-105734257D01*
X55304971Y-105591400D01*
X55162114Y-105448542D01*
X55162114Y-105734257D01*
X56447828Y-108305685D02*
X56733542Y-108448542D01*
X57304971Y-108448542D01*
X57590685Y-108305685D01*
X57733542Y-108019971D01*
X57733542Y-107877114D01*
X57590685Y-107591400D01*
X57304971Y-107448542D01*
X56876400Y-107448542D01*
X56590685Y-107305685D01*
X56447828Y-107019971D01*
X56447828Y-106877114D01*
X56590685Y-106591400D01*
X56876400Y-106448542D01*
X57304971Y-106448542D01*
X57590685Y-106591400D01*
X59019257Y-108448542D02*
X59019257Y-105448542D01*
X60304971Y-108448542D02*
X60304971Y-106877114D01*
X60162114Y-106591400D01*
X59876400Y-106448542D01*
X59447828Y-106448542D01*
X59162114Y-106591400D01*
X59019257Y-106734257D01*
X61733542Y-108162828D02*
X61876400Y-108305685D01*
X61733542Y-108448542D01*
X61590685Y-108305685D01*
X61733542Y-108162828D01*
X61733542Y-108448542D01*
X61733542Y-106591400D02*
X61876400Y-106734257D01*
X61733542Y-106877114D01*
X61590685Y-106734257D01*
X61733542Y-106591400D01*
X61733542Y-106877114D01*
X65447828Y-106877114D02*
X66447828Y-106877114D01*
X66876399Y-108448542D02*
X65447828Y-108448542D01*
X65447828Y-105448542D01*
X66876399Y-105448542D01*
X68162114Y-108448542D02*
X68162114Y-105448542D01*
X69876400Y-108448542D01*
X69876400Y-105448542D01*
X71304971Y-108448542D02*
X71304971Y-105448542D01*
X74304971Y-105591400D02*
X74019257Y-105448542D01*
X73590685Y-105448542D01*
X73162114Y-105591400D01*
X72876400Y-105877114D01*
X72733542Y-106162828D01*
X72590685Y-106734257D01*
X72590685Y-107162828D01*
X72733542Y-107734257D01*
X72876400Y-108019971D01*
X73162114Y-108305685D01*
X73590685Y-108448542D01*
X73876400Y-108448542D01*
X74304971Y-108305685D01*
X74447828Y-108162828D01*
X74447828Y-107162828D01*
X73876400Y-107162828D01*
X24175828Y-79948257D02*
X24318685Y-79805400D01*
X24604400Y-79662542D01*
X25318685Y-79662542D01*
X25604400Y-79805400D01*
X25747257Y-79948257D01*
X25890114Y-80233971D01*
X25890114Y-80519685D01*
X25747257Y-80948257D01*
X24032971Y-82662542D01*
X25890114Y-82662542D01*
X27175828Y-82376828D02*
X27318685Y-82519685D01*
X27175828Y-82662542D01*
X27032971Y-82519685D01*
X27175828Y-82376828D01*
X27175828Y-82662542D01*
X30747257Y-82519685D02*
X31175828Y-82662542D01*
X31890114Y-82662542D01*
X32175828Y-82519685D01*
X32318685Y-82376828D01*
X32461542Y-82091114D01*
X32461542Y-81805400D01*
X32318685Y-81519685D01*
X32175828Y-81376828D01*
X31890114Y-81233971D01*
X31318685Y-81091114D01*
X31032971Y-80948257D01*
X30890114Y-80805400D01*
X30747257Y-80519685D01*
X30747257Y-80233971D01*
X30890114Y-79948257D01*
X31032971Y-79805400D01*
X31318685Y-79662542D01*
X32032971Y-79662542D01*
X32461542Y-79805400D01*
X33747257Y-82662542D02*
X33747257Y-80662542D01*
X33747257Y-79662542D02*
X33604400Y-79805400D01*
X33747257Y-79948257D01*
X33890114Y-79805400D01*
X33747257Y-79662542D01*
X33747257Y-79948257D01*
X34890114Y-80662542D02*
X36461542Y-80662542D01*
X34890114Y-82662542D01*
X36461542Y-82662542D01*
X38747257Y-82519685D02*
X38461542Y-82662542D01*
X37890114Y-82662542D01*
X37604400Y-82519685D01*
X37461542Y-82233971D01*
X37461542Y-81091114D01*
X37604400Y-80805400D01*
X37890114Y-80662542D01*
X38461542Y-80662542D01*
X38747257Y-80805400D01*
X38890114Y-81091114D01*
X38890114Y-81376828D01*
X37461542Y-81662542D01*
X40175828Y-82376828D02*
X40318685Y-82519685D01*
X40175828Y-82662542D01*
X40032971Y-82519685D01*
X40175828Y-82376828D01*
X40175828Y-82662542D01*
X40175828Y-80805400D02*
X40318685Y-80948257D01*
X40175828Y-81091114D01*
X40032971Y-80948257D01*
X40175828Y-80805400D01*
X40175828Y-81091114D01*
X45175828Y-80662542D02*
X45175828Y-82662542D01*
X44461542Y-79519685D02*
X43747257Y-81662542D01*
X45604400Y-81662542D01*
X47175828Y-80948257D02*
X46890114Y-80805400D01*
X46747257Y-80662542D01*
X46604400Y-80376828D01*
X46604400Y-80233971D01*
X46747257Y-79948257D01*
X46890114Y-79805400D01*
X47175828Y-79662542D01*
X47747257Y-79662542D01*
X48032971Y-79805400D01*
X48175828Y-79948257D01*
X48318685Y-80233971D01*
X48318685Y-80376828D01*
X48175828Y-80662542D01*
X48032971Y-80805400D01*
X47747257Y-80948257D01*
X47175828Y-80948257D01*
X46890114Y-81091114D01*
X46747257Y-81233971D01*
X46604400Y-81519685D01*
X46604400Y-82091114D01*
X46747257Y-82376828D01*
X46890114Y-82519685D01*
X47175828Y-82662542D01*
X47747257Y-82662542D01*
X48032971Y-82519685D01*
X48175828Y-82376828D01*
X48318685Y-82091114D01*
X48318685Y-81519685D01*
X48175828Y-81233971D01*
X48032971Y-81091114D01*
X47747257Y-80948257D01*
X49604400Y-82376828D02*
X49747257Y-82519685D01*
X49604400Y-82662542D01*
X49461542Y-82519685D01*
X49604400Y-82376828D01*
X49604400Y-82662542D01*
X50890114Y-79948257D02*
X51032971Y-79805400D01*
X51318685Y-79662542D01*
X52032971Y-79662542D01*
X52318685Y-79805400D01*
X52461542Y-79948257D01*
X52604400Y-80233971D01*
X52604400Y-80519685D01*
X52461542Y-80948257D01*
X50747257Y-82662542D01*
X52604400Y-82662542D01*
X54461542Y-79662542D02*
X54747257Y-79662542D01*
X55032971Y-79805400D01*
X55175828Y-79948257D01*
X55318685Y-80233971D01*
X55461542Y-80805400D01*
X55461542Y-81519685D01*
X55318685Y-82091114D01*
X55175828Y-82376828D01*
X55032971Y-82519685D01*
X54747257Y-82662542D01*
X54461542Y-82662542D01*
X54175828Y-82519685D01*
X54032971Y-82376828D01*
X53890114Y-82091114D01*
X53747257Y-81519685D01*
X53747257Y-80805400D01*
X53890114Y-80233971D01*
X54032971Y-79948257D01*
X54175828Y-79805400D01*
X54461542Y-79662542D01*
X56890114Y-82662542D02*
X57461542Y-82662542D01*
X57747257Y-82519685D01*
X57890114Y-82376828D01*
X58175828Y-81948257D01*
X58318685Y-81376828D01*
X58318685Y-80233971D01*
X58175828Y-79948257D01*
X58032971Y-79805400D01*
X57747257Y-79662542D01*
X57175828Y-79662542D01*
X56890114Y-79805400D01*
X56747257Y-79948257D01*
X56604400Y-80233971D01*
X56604400Y-80948257D01*
X56747257Y-81233971D01*
X56890114Y-81376828D01*
X57175828Y-81519685D01*
X57747257Y-81519685D01*
X58032971Y-81376828D01*
X58175828Y-81233971D01*
X58318685Y-80948257D01*
X59461542Y-79948257D02*
X59604400Y-79805400D01*
X59890114Y-79662542D01*
X60604400Y-79662542D01*
X60890114Y-79805400D01*
X61032971Y-79948257D01*
X61175828Y-80233971D01*
X61175828Y-80519685D01*
X61032971Y-80948257D01*
X59318685Y-82662542D01*
X61175828Y-82662542D01*
X64461542Y-82662542D02*
X66032971Y-80662542D01*
X64461542Y-80662542D02*
X66032971Y-82662542D01*
X70890114Y-79662542D02*
X69461542Y-79662542D01*
X69318685Y-81091114D01*
X69461542Y-80948257D01*
X69747257Y-80805400D01*
X70461542Y-80805400D01*
X70747257Y-80948257D01*
X70890114Y-81091114D01*
X71032971Y-81376828D01*
X71032971Y-82091114D01*
X70890114Y-82376828D01*
X70747257Y-82519685D01*
X70461542Y-82662542D01*
X69747257Y-82662542D01*
X69461542Y-82519685D01*
X69318685Y-82376828D01*
X72032971Y-79662542D02*
X73890114Y-79662542D01*
X72890114Y-80805400D01*
X73318685Y-80805400D01*
X73604400Y-80948257D01*
X73747257Y-81091114D01*
X73890114Y-81376828D01*
X73890114Y-82091114D01*
X73747257Y-82376828D01*
X73604400Y-82519685D01*
X73318685Y-82662542D01*
X72461542Y-82662542D01*
X72175828Y-82519685D01*
X72032971Y-82376828D01*
X75175828Y-82376828D02*
X75318685Y-82519685D01*
X75175828Y-82662542D01*
X75032971Y-82519685D01*
X75175828Y-82376828D01*
X75175828Y-82662542D01*
X78032971Y-79662542D02*
X76604400Y-79662542D01*
X76461542Y-81091114D01*
X76604400Y-80948257D01*
X76890114Y-80805400D01*
X77604400Y-80805400D01*
X77890114Y-80948257D01*
X78032971Y-81091114D01*
X78175828Y-81376828D01*
X78175828Y-82091114D01*
X78032971Y-82376828D01*
X77890114Y-82519685D01*
X77604400Y-82662542D01*
X76890114Y-82662542D01*
X76604400Y-82519685D01*
X76461542Y-82376828D01*
X80747257Y-80662542D02*
X80747257Y-82662542D01*
X80032971Y-79519685D02*
X79318685Y-81662542D01*
X81175828Y-81662542D01*
X82032971Y-79662542D02*
X83890114Y-79662542D01*
X82890114Y-80805400D01*
X83318685Y-80805400D01*
X83604400Y-80948257D01*
X83747257Y-81091114D01*
X83890114Y-81376828D01*
X83890114Y-82091114D01*
X83747257Y-82376828D01*
X83604400Y-82519685D01*
X83318685Y-82662542D01*
X82461542Y-82662542D01*
X82175828Y-82519685D01*
X82032971Y-82376828D01*
X85032971Y-79948257D02*
X85175828Y-79805400D01*
X85461542Y-79662542D01*
X86175828Y-79662542D01*
X86461542Y-79805400D01*
X86604400Y-79948257D01*
X86747257Y-80233971D01*
X86747257Y-80519685D01*
X86604400Y-80948257D01*
X84890114Y-82662542D01*
X86747257Y-82662542D01*
X90318685Y-82662542D02*
X90318685Y-80662542D01*
X90318685Y-80948257D02*
X90461542Y-80805400D01*
X90747257Y-80662542D01*
X91175828Y-80662542D01*
X91461542Y-80805400D01*
X91604400Y-81091114D01*
X91604400Y-82662542D01*
X91604400Y-81091114D02*
X91747257Y-80805400D01*
X92032971Y-80662542D01*
X92461542Y-80662542D01*
X92747257Y-80805400D01*
X92890114Y-81091114D01*
X92890114Y-82662542D01*
X94318685Y-82662542D02*
X94318685Y-80662542D01*
X94318685Y-80948257D02*
X94461542Y-80805400D01*
X94747257Y-80662542D01*
X95175828Y-80662542D01*
X95461542Y-80805400D01*
X95604400Y-81091114D01*
X95604400Y-82662542D01*
X95604400Y-81091114D02*
X95747257Y-80805400D01*
X96032971Y-80662542D01*
X96461542Y-80662542D01*
X96747257Y-80805400D01*
X96890114Y-81091114D01*
X96890114Y-82662542D01*
X26321028Y-76744342D02*
X24606742Y-76744342D01*
X25463885Y-76744342D02*
X25463885Y-73744342D01*
X25178171Y-74172914D01*
X24892457Y-74458628D01*
X24606742Y-74601485D01*
X27606742Y-76458628D02*
X27749600Y-76601485D01*
X27606742Y-76744342D01*
X27463885Y-76601485D01*
X27606742Y-76458628D01*
X27606742Y-76744342D01*
X33321028Y-77030057D02*
X33035314Y-76887200D01*
X32749600Y-76601485D01*
X32321028Y-76172914D01*
X32035314Y-76030057D01*
X31749600Y-76030057D01*
X31892457Y-76744342D02*
X31606742Y-76601485D01*
X31321028Y-76315771D01*
X31178171Y-75744342D01*
X31178171Y-74744342D01*
X31321028Y-74172914D01*
X31606742Y-73887200D01*
X31892457Y-73744342D01*
X32463885Y-73744342D01*
X32749600Y-73887200D01*
X33035314Y-74172914D01*
X33178171Y-74744342D01*
X33178171Y-75744342D01*
X33035314Y-76315771D01*
X32749600Y-76601485D01*
X32463885Y-76744342D01*
X31892457Y-76744342D01*
X35749600Y-74744342D02*
X35749600Y-76744342D01*
X34463885Y-74744342D02*
X34463885Y-76315771D01*
X34606742Y-76601485D01*
X34892457Y-76744342D01*
X35321028Y-76744342D01*
X35606742Y-76601485D01*
X35749600Y-76458628D01*
X38463885Y-76744342D02*
X38463885Y-75172914D01*
X38321028Y-74887200D01*
X38035314Y-74744342D01*
X37463885Y-74744342D01*
X37178171Y-74887200D01*
X38463885Y-76601485D02*
X38178171Y-76744342D01*
X37463885Y-76744342D01*
X37178171Y-76601485D01*
X37035314Y-76315771D01*
X37035314Y-76030057D01*
X37178171Y-75744342D01*
X37463885Y-75601485D01*
X38178171Y-75601485D01*
X38463885Y-75458628D01*
X39892457Y-74744342D02*
X39892457Y-76744342D01*
X39892457Y-75030057D02*
X40035314Y-74887200D01*
X40321028Y-74744342D01*
X40749600Y-74744342D01*
X41035314Y-74887200D01*
X41178171Y-75172914D01*
X41178171Y-76744342D01*
X42178171Y-74744342D02*
X43321028Y-74744342D01*
X42606742Y-73744342D02*
X42606742Y-76315771D01*
X42749600Y-76601485D01*
X43035314Y-76744342D01*
X43321028Y-76744342D01*
X44321028Y-76744342D02*
X44321028Y-74744342D01*
X44321028Y-73744342D02*
X44178171Y-73887200D01*
X44321028Y-74030057D01*
X44463885Y-73887200D01*
X44321028Y-73744342D01*
X44321028Y-74030057D01*
X45321028Y-74744342D02*
X46463885Y-74744342D01*
X45749600Y-73744342D02*
X45749600Y-76315771D01*
X45892457Y-76601485D01*
X46178171Y-76744342D01*
X46463885Y-76744342D01*
X47178171Y-74744342D02*
X47892457Y-76744342D01*
X48606742Y-74744342D02*
X47892457Y-76744342D01*
X47606742Y-77458628D01*
X47463885Y-77601485D01*
X47178171Y-77744342D01*
X49749599Y-76458628D02*
X49892457Y-76601485D01*
X49749599Y-76744342D01*
X49606742Y-76601485D01*
X49749599Y-76458628D01*
X49749599Y-76744342D01*
X49749599Y-74887200D02*
X49892457Y-75030057D01*
X49749599Y-75172914D01*
X49606742Y-75030057D01*
X49749599Y-74887200D01*
X49749599Y-75172914D01*
X55035314Y-76744342D02*
X53321028Y-76744342D01*
X54178171Y-76744342D02*
X54178171Y-73744342D01*
X53892457Y-74172914D01*
X53606742Y-74458628D01*
X53321028Y-74601485D01*
X57749600Y-73744342D02*
X56321028Y-73744342D01*
X56178171Y-75172914D01*
X56321028Y-75030057D01*
X56606742Y-74887200D01*
X57321028Y-74887200D01*
X57606742Y-75030057D01*
X57749600Y-75172914D01*
X57892457Y-75458628D01*
X57892457Y-76172914D01*
X57749600Y-76458628D01*
X57606742Y-76601485D01*
X57321028Y-76744342D01*
X56606742Y-76744342D01*
X56321028Y-76601485D01*
X56178171Y-76458628D01*
X24622409Y-65055457D02*
X22955742Y-65055457D01*
X22955742Y-67674504D02*
X22955742Y-62674504D01*
X25336695Y-62674504D01*
X29384314Y-67674504D02*
X29384314Y-65055457D01*
X29146219Y-64579266D01*
X28670028Y-64341171D01*
X27717647Y-64341171D01*
X27241457Y-64579266D01*
X29384314Y-67436409D02*
X28908123Y-67674504D01*
X27717647Y-67674504D01*
X27241457Y-67436409D01*
X27003361Y-66960219D01*
X27003361Y-66484028D01*
X27241457Y-66007838D01*
X27717647Y-65769742D01*
X28908123Y-65769742D01*
X29384314Y-65531647D01*
X31765266Y-67674504D02*
X31765266Y-62674504D01*
X31765266Y-64579266D02*
X32241457Y-64341171D01*
X33193838Y-64341171D01*
X33670028Y-64579266D01*
X33908123Y-64817361D01*
X34146219Y-65293552D01*
X34146219Y-66722123D01*
X33908123Y-67198314D01*
X33670028Y-67436409D01*
X33193838Y-67674504D01*
X32241457Y-67674504D01*
X31765266Y-67436409D01*
X36289076Y-67674504D02*
X36289076Y-64341171D01*
X36289076Y-65293552D02*
X36527171Y-64817361D01*
X36765266Y-64579266D01*
X37241457Y-64341171D01*
X37717647Y-64341171D01*
X39384314Y-67674504D02*
X39384314Y-64341171D01*
X39384314Y-62674504D02*
X39146219Y-62912600D01*
X39384314Y-63150695D01*
X39622409Y-62912600D01*
X39384314Y-62674504D01*
X39384314Y-63150695D01*
X43908123Y-67436409D02*
X43431933Y-67674504D01*
X42479552Y-67674504D01*
X42003361Y-67436409D01*
X41765266Y-67198314D01*
X41527171Y-66722123D01*
X41527171Y-65293552D01*
X41765266Y-64817361D01*
X42003361Y-64579266D01*
X42479552Y-64341171D01*
X43431933Y-64341171D01*
X43908123Y-64579266D01*
X48193838Y-67674504D02*
X48193838Y-65055457D01*
X47955742Y-64579266D01*
X47479552Y-64341171D01*
X46527171Y-64341171D01*
X46050980Y-64579266D01*
X48193838Y-67436409D02*
X47717647Y-67674504D01*
X46527171Y-67674504D01*
X46050980Y-67436409D01*
X45812885Y-66960219D01*
X45812885Y-66484028D01*
X46050980Y-66007838D01*
X46527171Y-65769742D01*
X47717647Y-65769742D01*
X48193838Y-65531647D01*
X49860504Y-64341171D02*
X51765266Y-64341171D01*
X50574790Y-62674504D02*
X50574790Y-66960219D01*
X50812885Y-67436409D01*
X51289076Y-67674504D01*
X51765266Y-67674504D01*
X53431933Y-67674504D02*
X53431933Y-64341171D01*
X53431933Y-62674504D02*
X53193838Y-62912600D01*
X53431933Y-63150695D01*
X53670028Y-62912600D01*
X53431933Y-62674504D01*
X53431933Y-63150695D01*
X56527171Y-67674504D02*
X56050980Y-67436409D01*
X55812885Y-67198314D01*
X55574790Y-66722123D01*
X55574790Y-65293552D01*
X55812885Y-64817361D01*
X56050980Y-64579266D01*
X56527171Y-64341171D01*
X57241457Y-64341171D01*
X57717647Y-64579266D01*
X57955742Y-64817361D01*
X58193838Y-65293552D01*
X58193838Y-66722123D01*
X57955742Y-67198314D01*
X57717647Y-67436409D01*
X57241457Y-67674504D01*
X56527171Y-67674504D01*
X60336695Y-64341171D02*
X60336695Y-67674504D01*
X60336695Y-64817361D02*
X60574790Y-64579266D01*
X61050980Y-64341171D01*
X61765266Y-64341171D01*
X62241457Y-64579266D01*
X62479552Y-65055457D01*
X62479552Y-67674504D01*
X68670028Y-67674504D02*
X68670028Y-62674504D01*
X71527171Y-67674504D01*
X71527171Y-62674504D01*
X74622409Y-67674504D02*
X74146219Y-67436409D01*
X73908123Y-67198314D01*
X73670028Y-66722123D01*
X73670028Y-65293552D01*
X73908123Y-64817361D01*
X74146219Y-64579266D01*
X74622409Y-64341171D01*
X75336695Y-64341171D01*
X75812885Y-64579266D01*
X76050980Y-64817361D01*
X76289076Y-65293552D01*
X76289076Y-66722123D01*
X76050980Y-67198314D01*
X75812885Y-67436409D01*
X75336695Y-67674504D01*
X74622409Y-67674504D01*
X77717647Y-64341171D02*
X79622409Y-64341171D01*
X78431933Y-62674504D02*
X78431933Y-66960219D01*
X78670028Y-67436409D01*
X79146219Y-67674504D01*
X79622409Y-67674504D01*
X83193838Y-67436409D02*
X82717647Y-67674504D01*
X81765266Y-67674504D01*
X81289076Y-67436409D01*
X81050980Y-66960219D01*
X81050980Y-65055457D01*
X81289076Y-64579266D01*
X81765266Y-64341171D01*
X82717647Y-64341171D01*
X83193838Y-64579266D01*
X83431933Y-65055457D01*
X83431933Y-65531647D01*
X81050980Y-66007838D01*
X85336695Y-67436409D02*
X85812885Y-67674504D01*
X86765266Y-67674504D01*
X87241457Y-67436409D01*
X87479552Y-66960219D01*
X87479552Y-66722123D01*
X87241457Y-66245933D01*
X86765266Y-66007838D01*
X86050980Y-66007838D01*
X85574790Y-65769742D01*
X85336695Y-65293552D01*
X85336695Y-65055457D01*
X85574790Y-64579266D01*
X86050980Y-64341171D01*
X86765266Y-64341171D01*
X87241457Y-64579266D01*
X24832142Y-127776142D02*
X23117857Y-127776142D01*
X23975000Y-127776142D02*
X23975000Y-124776142D01*
X23689285Y-125204714D01*
X23403571Y-125490428D01*
X23117857Y-125633285D01*
X26689285Y-124776142D02*
X26975000Y-124776142D01*
X27260714Y-124919000D01*
X27403571Y-125061857D01*
X27546428Y-125347571D01*
X27689285Y-125919000D01*
X27689285Y-126633285D01*
X27546428Y-127204714D01*
X27403571Y-127490428D01*
X27260714Y-127633285D01*
X26975000Y-127776142D01*
X26689285Y-127776142D01*
X26403571Y-127633285D01*
X26260714Y-127490428D01*
X26117857Y-127204714D01*
X25975000Y-126633285D01*
X25975000Y-125919000D01*
X26117857Y-125347571D01*
X26260714Y-125061857D01*
X26403571Y-124919000D01*
X26689285Y-124776142D01*
X28975000Y-127490428D02*
X29117857Y-127633285D01*
X28975000Y-127776142D01*
X28832142Y-127633285D01*
X28975000Y-127490428D01*
X28975000Y-127776142D01*
X32260714Y-124776142D02*
X33260714Y-127776142D01*
X34260714Y-124776142D01*
X35260714Y-127776142D02*
X35260714Y-125776142D01*
X35260714Y-124776142D02*
X35117857Y-124919000D01*
X35260714Y-125061857D01*
X35403571Y-124919000D01*
X35260714Y-124776142D01*
X35260714Y-125061857D01*
X37975000Y-127776142D02*
X37975000Y-126204714D01*
X37832142Y-125919000D01*
X37546428Y-125776142D01*
X36975000Y-125776142D01*
X36689285Y-125919000D01*
X37975000Y-127633285D02*
X37689285Y-127776142D01*
X36975000Y-127776142D01*
X36689285Y-127633285D01*
X36546428Y-127347571D01*
X36546428Y-127061857D01*
X36689285Y-126776142D01*
X36975000Y-126633285D01*
X37689285Y-126633285D01*
X37975000Y-126490428D01*
X39260714Y-127633285D02*
X39546428Y-127776142D01*
X40117857Y-127776142D01*
X40403571Y-127633285D01*
X40546428Y-127347571D01*
X40546428Y-127204714D01*
X40403571Y-126919000D01*
X40117857Y-126776142D01*
X39689285Y-126776142D01*
X39403571Y-126633285D01*
X39260714Y-126347571D01*
X39260714Y-126204714D01*
X39403571Y-125919000D01*
X39689285Y-125776142D01*
X40117857Y-125776142D01*
X40403571Y-125919000D01*
X41832142Y-127490428D02*
X41975000Y-127633285D01*
X41832142Y-127776142D01*
X41689285Y-127633285D01*
X41832142Y-127490428D01*
X41832142Y-127776142D01*
X41832142Y-125919000D02*
X41975000Y-126061857D01*
X41832142Y-126204714D01*
X41689285Y-126061857D01*
X41832142Y-125919000D01*
X41832142Y-126204714D01*
X45117857Y-124776142D02*
X46832142Y-124776142D01*
X45975000Y-127776142D02*
X45975000Y-124776142D01*
X48975000Y-127633285D02*
X48689285Y-127776142D01*
X48117857Y-127776142D01*
X47832142Y-127633285D01*
X47689285Y-127347571D01*
X47689285Y-126204714D01*
X47832142Y-125919000D01*
X48117857Y-125776142D01*
X48689285Y-125776142D01*
X48975000Y-125919000D01*
X49117857Y-126204714D01*
X49117857Y-126490428D01*
X47689285Y-126776142D01*
X50403571Y-125776142D02*
X50403571Y-127776142D01*
X50403571Y-126061857D02*
X50546428Y-125919000D01*
X50832142Y-125776142D01*
X51260714Y-125776142D01*
X51546428Y-125919000D01*
X51689285Y-126204714D01*
X51689285Y-127776142D01*
X52689285Y-125776142D02*
X53832142Y-125776142D01*
X53117857Y-124776142D02*
X53117857Y-127347571D01*
X53260714Y-127633285D01*
X53546428Y-127776142D01*
X53832142Y-127776142D01*
X55974999Y-127633285D02*
X55689285Y-127776142D01*
X55117857Y-127776142D01*
X54832142Y-127633285D01*
X54689285Y-127347571D01*
X54689285Y-126204714D01*
X54832142Y-125919000D01*
X55117857Y-125776142D01*
X55689285Y-125776142D01*
X55974999Y-125919000D01*
X56117857Y-126204714D01*
X56117857Y-126490428D01*
X54689285Y-126776142D01*
X58689285Y-127776142D02*
X58689285Y-124776142D01*
X58689285Y-127633285D02*
X58403571Y-127776142D01*
X57832142Y-127776142D01*
X57546428Y-127633285D01*
X57403571Y-127490428D01*
X57260714Y-127204714D01*
X57260714Y-126347571D01*
X57403571Y-126061857D01*
X57546428Y-125919000D01*
X57832142Y-125776142D01*
X58403571Y-125776142D01*
X58689285Y-125919000D01*
X177016780Y-95941638D02*
X177016780Y-96417828D01*
X177492971Y-96465447D01*
X177445352Y-96417828D01*
X177397733Y-96322590D01*
X177397733Y-96084495D01*
X177445352Y-95989257D01*
X177492971Y-95941638D01*
X177588209Y-95894019D01*
X177826304Y-95894019D01*
X177921542Y-95941638D01*
X177969161Y-95989257D01*
X178016780Y-96084495D01*
X178016780Y-96322590D01*
X177969161Y-96417828D01*
X177921542Y-96465447D01*
X177016780Y-95560685D02*
X177016780Y-94941638D01*
X177397733Y-95274971D01*
X177397733Y-95132114D01*
X177445352Y-95036876D01*
X177492971Y-94989257D01*
X177588209Y-94941638D01*
X177826304Y-94941638D01*
X177921542Y-94989257D01*
X177969161Y-95036876D01*
X178016780Y-95132114D01*
X178016780Y-95417828D01*
X177969161Y-95513066D01*
X177921542Y-95560685D01*
X177921542Y-94513066D02*
X177969161Y-94465447D01*
X178016780Y-94513066D01*
X177969161Y-94560685D01*
X177921542Y-94513066D01*
X178016780Y-94513066D01*
X177016780Y-93560685D02*
X177016780Y-94036876D01*
X177492971Y-94084495D01*
X177445352Y-94036876D01*
X177397733Y-93941638D01*
X177397733Y-93703542D01*
X177445352Y-93608304D01*
X177492971Y-93560685D01*
X177588209Y-93513066D01*
X177826304Y-93513066D01*
X177921542Y-93560685D01*
X177969161Y-93608304D01*
X178016780Y-93703542D01*
X178016780Y-93941638D01*
X177969161Y-94036876D01*
X177921542Y-94084495D01*
X177350114Y-92655923D02*
X178016780Y-92655923D01*
X176969161Y-92894019D02*
X177683447Y-93132114D01*
X177683447Y-92513066D01*
X177016780Y-92227352D02*
X177016780Y-91608304D01*
X177397733Y-91941638D01*
X177397733Y-91798780D01*
X177445352Y-91703542D01*
X177492971Y-91655923D01*
X177588209Y-91608304D01*
X177826304Y-91608304D01*
X177921542Y-91655923D01*
X177969161Y-91703542D01*
X178016780Y-91798780D01*
X178016780Y-92084495D01*
X177969161Y-92179733D01*
X177921542Y-92227352D01*
X177112019Y-91227352D02*
X177064400Y-91179733D01*
X177016780Y-91084495D01*
X177016780Y-90846400D01*
X177064400Y-90751161D01*
X177112019Y-90703542D01*
X177207257Y-90655923D01*
X177302495Y-90655923D01*
X177445352Y-90703542D01*
X178016780Y-91274971D01*
X178016780Y-90655923D01*
X178016780Y-89465447D02*
X177350114Y-89465447D01*
X177445352Y-89465447D02*
X177397733Y-89417828D01*
X177350114Y-89322590D01*
X177350114Y-89179733D01*
X177397733Y-89084495D01*
X177492971Y-89036876D01*
X178016780Y-89036876D01*
X177492971Y-89036876D02*
X177397733Y-88989257D01*
X177350114Y-88894019D01*
X177350114Y-88751161D01*
X177397733Y-88655923D01*
X177492971Y-88608304D01*
X178016780Y-88608304D01*
X178016780Y-88132114D02*
X177350114Y-88132114D01*
X177445352Y-88132114D02*
X177397733Y-88084495D01*
X177350114Y-87989257D01*
X177350114Y-87846400D01*
X177397733Y-87751161D01*
X177492971Y-87703542D01*
X178016780Y-87703542D01*
X177492971Y-87703542D02*
X177397733Y-87655923D01*
X177350114Y-87560685D01*
X177350114Y-87417828D01*
X177397733Y-87322590D01*
X177492971Y-87274971D01*
X178016780Y-87274971D01*
D13*
X173829600Y-118618000D02*
X179300820Y-118618000D01*
X179300820Y-65074800D02*
X173829600Y-65074800D01*
X178714400Y-118618000D02*
X178714400Y-65074800D01*
X178714400Y-118618000D02*
X178714400Y-65074800D01*
X178714400Y-118618000D02*
X179300821Y-117491496D01*
X178714400Y-118618000D02*
X178127979Y-117491496D01*
X178714400Y-65074800D02*
X178127979Y-66201304D01*
X178714400Y-65074800D02*
X179300821Y-66201304D01*
D12*
X145082142Y-121343114D02*
X145082142Y-122009780D01*
X144844047Y-120962161D02*
X144605952Y-121676447D01*
X145225000Y-121676447D01*
X145748809Y-121438352D02*
X145653571Y-121390733D01*
X145605952Y-121343114D01*
X145558333Y-121247876D01*
X145558333Y-121200257D01*
X145605952Y-121105019D01*
X145653571Y-121057400D01*
X145748809Y-121009780D01*
X145939285Y-121009780D01*
X146034523Y-121057400D01*
X146082142Y-121105019D01*
X146129761Y-121200257D01*
X146129761Y-121247876D01*
X146082142Y-121343114D01*
X146034523Y-121390733D01*
X145939285Y-121438352D01*
X145748809Y-121438352D01*
X145653571Y-121485971D01*
X145605952Y-121533590D01*
X145558333Y-121628828D01*
X145558333Y-121819304D01*
X145605952Y-121914542D01*
X145653571Y-121962161D01*
X145748809Y-122009780D01*
X145939285Y-122009780D01*
X146034523Y-121962161D01*
X146082142Y-121914542D01*
X146129761Y-121819304D01*
X146129761Y-121628828D01*
X146082142Y-121533590D01*
X146034523Y-121485971D01*
X145939285Y-121438352D01*
X146558333Y-121914542D02*
X146605952Y-121962161D01*
X146558333Y-122009780D01*
X146510714Y-121962161D01*
X146558333Y-121914542D01*
X146558333Y-122009780D01*
X146986904Y-121105019D02*
X147034523Y-121057400D01*
X147129761Y-121009780D01*
X147367857Y-121009780D01*
X147463095Y-121057400D01*
X147510714Y-121105019D01*
X147558333Y-121200257D01*
X147558333Y-121295495D01*
X147510714Y-121438352D01*
X146939285Y-122009780D01*
X147558333Y-122009780D01*
X148177380Y-121009780D02*
X148272619Y-121009780D01*
X148367857Y-121057400D01*
X148415476Y-121105019D01*
X148463095Y-121200257D01*
X148510714Y-121390733D01*
X148510714Y-121628828D01*
X148463095Y-121819304D01*
X148415476Y-121914542D01*
X148367857Y-121962161D01*
X148272619Y-122009780D01*
X148177380Y-122009780D01*
X148082142Y-121962161D01*
X148034523Y-121914542D01*
X147986904Y-121819304D01*
X147939285Y-121628828D01*
X147939285Y-121390733D01*
X147986904Y-121200257D01*
X148034523Y-121105019D01*
X148082142Y-121057400D01*
X148177380Y-121009780D01*
X148986904Y-122009780D02*
X149177380Y-122009780D01*
X149272619Y-121962161D01*
X149320238Y-121914542D01*
X149415476Y-121771685D01*
X149463095Y-121581209D01*
X149463095Y-121200257D01*
X149415476Y-121105019D01*
X149367857Y-121057400D01*
X149272619Y-121009780D01*
X149082142Y-121009780D01*
X148986904Y-121057400D01*
X148939285Y-121105019D01*
X148891666Y-121200257D01*
X148891666Y-121438352D01*
X148939285Y-121533590D01*
X148986904Y-121581209D01*
X149082142Y-121628828D01*
X149272619Y-121628828D01*
X149367857Y-121581209D01*
X149415476Y-121533590D01*
X149463095Y-121438352D01*
X149844047Y-121105019D02*
X149891666Y-121057400D01*
X149986904Y-121009780D01*
X150225000Y-121009780D01*
X150320238Y-121057400D01*
X150367857Y-121105019D01*
X150415476Y-121200257D01*
X150415476Y-121295495D01*
X150367857Y-121438352D01*
X149796428Y-122009780D01*
X150415476Y-122009780D01*
X151605952Y-122009780D02*
X151605952Y-121343114D01*
X151605952Y-121438352D02*
X151653571Y-121390733D01*
X151748809Y-121343114D01*
X151891666Y-121343114D01*
X151986904Y-121390733D01*
X152034523Y-121485971D01*
X152034523Y-122009780D01*
X152034523Y-121485971D02*
X152082142Y-121390733D01*
X152177380Y-121343114D01*
X152320238Y-121343114D01*
X152415476Y-121390733D01*
X152463095Y-121485971D01*
X152463095Y-122009780D01*
X152939285Y-122009780D02*
X152939285Y-121343114D01*
X152939285Y-121438352D02*
X152986904Y-121390733D01*
X153082142Y-121343114D01*
X153225000Y-121343114D01*
X153320238Y-121390733D01*
X153367857Y-121485971D01*
X153367857Y-122009780D01*
X153367857Y-121485971D02*
X153415476Y-121390733D01*
X153510714Y-121343114D01*
X153653571Y-121343114D01*
X153748809Y-121390733D01*
X153796428Y-121485971D01*
X153796428Y-122009780D01*
D13*
X125120400Y-119118000D02*
X125120400Y-123293820D01*
X173329600Y-123293820D02*
X173329600Y-119118000D01*
X125120400Y-122707400D02*
X173329600Y-122707400D01*
X125120400Y-122707400D02*
X173329600Y-122707400D01*
X125120400Y-122707400D02*
X126246904Y-123293821D01*
X125120400Y-122707400D02*
X126246904Y-122120979D01*
X173329600Y-122707400D02*
X172203096Y-122120979D01*
X173329600Y-122707400D02*
X172203096Y-123293821D01*
%TO.C,R47*%
X135534500Y-115328600D02*
X132334500Y-115328600D01*
X132334500Y-113728600D02*
X135534500Y-113728600D01*
X132334500Y-115328600D02*
X132334500Y-113728600D01*
X135534500Y-113728600D02*
X135534500Y-115328600D01*
%TO.C,R10*%
X132371700Y-68255900D02*
X132371700Y-67430900D01*
X132371700Y-67430900D02*
X133971700Y-67430900D01*
X133971700Y-67430900D02*
X133971700Y-68255900D01*
X133971700Y-68255900D02*
X132371700Y-68255900D01*
%TO.C,R4*%
X162090000Y-84816700D02*
X160490000Y-84816700D01*
X160490000Y-83991700D02*
X162090000Y-83991700D01*
X160490000Y-84816700D02*
X160490000Y-83991700D01*
X162090000Y-83991700D02*
X162090000Y-84816700D01*
%TO.C,C5*%
X148221800Y-82912000D02*
X149821800Y-82912000D01*
X148221800Y-83712000D02*
X148221800Y-82912000D01*
X149821800Y-83712000D02*
X148221800Y-83712000D01*
X149821800Y-82912000D02*
X149821800Y-83712000D01*
%TO.C,R36*%
X132334200Y-70650200D02*
X135534200Y-70650200D01*
X135534200Y-72250200D02*
X132334200Y-72250200D01*
X135534200Y-70650200D02*
X135534200Y-72250200D01*
X132334200Y-72250200D02*
X132334200Y-70650200D01*
%TO.C,C15*%
X141580200Y-104862900D02*
X141580200Y-106462900D01*
X140780200Y-106462900D02*
X140780200Y-104862900D01*
X140780200Y-104862900D02*
X141580200Y-104862900D01*
X141580200Y-106462900D02*
X140780200Y-106462900D01*
%TO.C,C20*%
X169430600Y-84004200D02*
X169430600Y-84804200D01*
X169430600Y-84804200D02*
X167830600Y-84804200D01*
X167830600Y-84804200D02*
X167830600Y-84004200D01*
X167830600Y-84004200D02*
X169430600Y-84004200D01*
%TO.C,R21*%
X137687800Y-89668100D02*
X137687800Y-88843100D01*
X139287800Y-88843100D02*
X139287800Y-89668100D01*
X137687800Y-88843100D02*
X139287800Y-88843100D01*
X139287800Y-89668100D02*
X137687800Y-89668100D01*
%TO.C,R6*%
X159855000Y-88347300D02*
X159855000Y-87522300D01*
X161455000Y-87522300D02*
X161455000Y-88347300D01*
X159855000Y-87522300D02*
X161455000Y-87522300D01*
X161455000Y-88347300D02*
X159855000Y-88347300D01*
%TO.C,R13*%
X137680800Y-73818500D02*
X137680800Y-72993500D01*
X139280800Y-73818500D02*
X137680800Y-73818500D01*
X139280800Y-72993500D02*
X139280800Y-73818500D01*
X137680800Y-72993500D02*
X139280800Y-72993500D01*
%TO.C,F8*%
X133934500Y-96577200D02*
X133934500Y-97377200D01*
X133934500Y-97377200D02*
X132334500Y-97377200D01*
X132334500Y-96577200D02*
X133934500Y-96577200D01*
X132334500Y-97377200D02*
X132334500Y-96577200D01*
%TO.C,R32*%
X137687800Y-105212900D02*
X137687800Y-104387900D01*
X139287800Y-105212900D02*
X137687800Y-105212900D01*
X137687800Y-104387900D02*
X139287800Y-104387900D01*
X139287800Y-104387900D02*
X139287800Y-105212900D01*
%TO.C,J1*%
X166966400Y-73138200D02*
X172716400Y-73138200D01*
X166966400Y-71313200D02*
X167966400Y-70688200D01*
X167966400Y-70688200D02*
X166966400Y-70063200D01*
X172716400Y-73138200D02*
X172716400Y-65738200D01*
X172716400Y-65738200D02*
X166966400Y-65738200D01*
X166966400Y-65738200D02*
X166966400Y-73138200D01*
%TO.C,C11*%
X141580200Y-90918100D02*
X140780200Y-90918100D01*
X140780200Y-89318100D02*
X141580200Y-89318100D01*
X140780200Y-90918100D02*
X140780200Y-89318100D01*
X141580200Y-89318100D02*
X141580200Y-90918100D01*
%TO.C,R2*%
X162845500Y-106387800D02*
X162020500Y-106387800D01*
X162020500Y-106387800D02*
X162020500Y-104787800D01*
X162020500Y-104787800D02*
X162845500Y-104787800D01*
X162845500Y-104787800D02*
X162845500Y-106387800D01*
%TO.C,F2*%
X133934200Y-73006000D02*
X133934200Y-73806000D01*
X132334200Y-73806000D02*
X132334200Y-73006000D01*
X133934200Y-73806000D02*
X132334200Y-73806000D01*
X132334200Y-73006000D02*
X133934200Y-73006000D01*
%TO.C,R49*%
X171617200Y-88766700D02*
X170017200Y-88766700D01*
X170017200Y-88766700D02*
X170017200Y-87941700D01*
X171617200Y-87941700D02*
X171617200Y-88766700D01*
X170017200Y-87941700D02*
X171617200Y-87941700D01*
%TO.C,R35*%
X137687800Y-116046500D02*
X139287800Y-116046500D01*
X137687800Y-116871500D02*
X137687800Y-116046500D01*
X139287800Y-116871500D02*
X137687800Y-116871500D01*
X139287800Y-116046500D02*
X139287800Y-116871500D01*
%TO.C,R39*%
X135534200Y-82486600D02*
X135534200Y-84086600D01*
X135534200Y-84086600D02*
X132334200Y-84086600D01*
X132334200Y-82486600D02*
X135534200Y-82486600D01*
X132334200Y-84086600D02*
X132334200Y-82486600D01*
%TO.C,F5*%
X133934200Y-84893200D02*
X133934200Y-85693200D01*
X132334200Y-84893200D02*
X133934200Y-84893200D01*
X133934200Y-85693200D02*
X132334200Y-85693200D01*
X132334200Y-85693200D02*
X132334200Y-84893200D01*
%TO.C,R42*%
X135534500Y-94246800D02*
X135534500Y-95846800D01*
X135534500Y-95846800D02*
X132334500Y-95846800D01*
X132334500Y-94246800D02*
X135534500Y-94246800D01*
X132334500Y-95846800D02*
X132334500Y-94246800D01*
%TO.C,R5*%
X162090000Y-85541100D02*
X162090000Y-86366100D01*
X160490000Y-86366100D02*
X160490000Y-85541100D01*
X160490000Y-85541100D02*
X162090000Y-85541100D01*
X162090000Y-86366100D02*
X160490000Y-86366100D01*
%TO.C,C19*%
X148901200Y-66738600D02*
X149701200Y-66738600D01*
X148901200Y-68338600D02*
X148901200Y-66738600D01*
X149701200Y-66738600D02*
X149701200Y-68338600D01*
X149701200Y-68338600D02*
X148901200Y-68338600D01*
%TO.C,R17*%
X137696600Y-80892900D02*
X139296600Y-80892900D01*
X139296600Y-80892900D02*
X139296600Y-81717900D01*
X139296600Y-81717900D02*
X137696600Y-81717900D01*
X137696600Y-81717900D02*
X137696600Y-80892900D01*
%TO.C,J2*%
X128346200Y-75539600D02*
X128981200Y-76174600D01*
X126441200Y-108559600D02*
X126441200Y-75539600D01*
X128981200Y-76174600D02*
X128981200Y-108559600D01*
X128981200Y-108559600D02*
X126441200Y-108559600D01*
X126441200Y-75539600D02*
X128346200Y-75539600D01*
%TO.C,R34*%
X137687800Y-113010700D02*
X137687800Y-112185700D01*
X139287800Y-113010700D02*
X137687800Y-113010700D01*
X137687800Y-112185700D02*
X139287800Y-112185700D01*
X139287800Y-112185700D02*
X139287800Y-113010700D01*
%TO.C,F7*%
X133934200Y-92716400D02*
X133934200Y-93516400D01*
X132334200Y-92716400D02*
X133934200Y-92716400D01*
X132334200Y-93516400D02*
X132334200Y-92716400D01*
X133934200Y-93516400D02*
X132334200Y-93516400D01*
%TO.C,F12*%
X132334500Y-112998200D02*
X132334500Y-112198200D01*
X133934500Y-112998200D02*
X132334500Y-112998200D01*
X133934500Y-112198200D02*
X133934500Y-112998200D01*
X132334500Y-112198200D02*
X133934500Y-112198200D01*
%TO.C,C4*%
X166561700Y-88766600D02*
X166561700Y-87966600D01*
X166561700Y-87966600D02*
X168161700Y-87966600D01*
X168161700Y-87966600D02*
X168161700Y-88766600D01*
X168161700Y-88766600D02*
X166561700Y-88766600D01*
%TO.C,C16*%
X140780200Y-110349100D02*
X140780200Y-108749100D01*
X141580200Y-108749100D02*
X141580200Y-110349100D01*
X140780200Y-108749100D02*
X141580200Y-108749100D01*
X141580200Y-110349100D02*
X140780200Y-110349100D01*
%TO.C,F13*%
X132334500Y-116059000D02*
X133934500Y-116059000D01*
X133934500Y-116059000D02*
X133934500Y-116859000D01*
X133934500Y-116859000D02*
X132334500Y-116859000D01*
X132334500Y-116859000D02*
X132334500Y-116059000D01*
%TO.C,J4*%
X150769000Y-101350600D02*
X154849000Y-101350600D01*
X154849000Y-101350600D02*
X155849000Y-102350600D01*
X155849000Y-114050600D02*
X150769000Y-114050600D01*
X150769000Y-114050600D02*
X150769000Y-101350600D01*
X155849000Y-102350600D02*
X155849000Y-114050600D01*
%TO.C,Q2*%
X172146000Y-98651000D02*
X165646000Y-98651000D01*
X165646000Y-98651000D02*
X165646000Y-95151000D01*
X172146000Y-95151000D02*
X172146000Y-98651000D01*
X165646000Y-95151000D02*
X172146000Y-95151000D01*
X167946000Y-98651000D02*
X165646000Y-96351000D01*
%TO.C,R52*%
X163258400Y-98939100D02*
X161658400Y-98939100D01*
X161658400Y-98939100D02*
X161658400Y-98114100D01*
X161658400Y-98114100D02*
X163258400Y-98114100D01*
X163258400Y-98114100D02*
X163258400Y-98939100D01*
%TO.C,F3*%
X133934800Y-77717600D02*
X132334800Y-77717600D01*
X132334800Y-77717600D02*
X132334800Y-76917600D01*
X133934800Y-76917600D02*
X133934800Y-77717600D01*
X132334800Y-76917600D02*
X133934800Y-76917600D01*
%TO.C,F9*%
X132334500Y-100514200D02*
X133934500Y-100514200D01*
X133934500Y-101314200D02*
X132334500Y-101314200D01*
X133934500Y-100514200D02*
X133934500Y-101314200D01*
X132334500Y-101314200D02*
X132334500Y-100514200D01*
%TO.C,C9*%
X141589000Y-81367900D02*
X141589000Y-82967900D01*
X140789000Y-82967900D02*
X140789000Y-81367900D01*
X141589000Y-82967900D02*
X140789000Y-82967900D01*
X140789000Y-81367900D02*
X141589000Y-81367900D01*
%TO.C,R29*%
X137687800Y-93528900D02*
X137687800Y-92703900D01*
X139287800Y-93528900D02*
X137687800Y-93528900D01*
X139287800Y-92703900D02*
X139287800Y-93528900D01*
X137687800Y-92703900D02*
X139287800Y-92703900D01*
%TO.C,R48*%
X171617200Y-90443100D02*
X170017200Y-90443100D01*
X170017200Y-89618100D02*
X171617200Y-89618100D01*
X170017200Y-90443100D02*
X170017200Y-89618100D01*
X171617200Y-89618100D02*
X171617200Y-90443100D01*
%TO.C,Q1*%
X160983000Y-100975400D02*
X163883000Y-100975400D01*
X160983000Y-102275400D02*
X160983000Y-100975400D01*
X163883000Y-102275400D02*
X160983000Y-102275400D01*
X163883000Y-100975400D02*
X163883000Y-102275400D01*
X161933000Y-102275400D02*
X160983000Y-101325400D01*
%TO.C,R31*%
X139287800Y-100501700D02*
X139287800Y-101326700D01*
X137687800Y-101326700D02*
X137687800Y-100501700D01*
X137687800Y-100501700D02*
X139287800Y-100501700D01*
X139287800Y-101326700D02*
X137687800Y-101326700D01*
%TO.C,R44*%
X132334500Y-102070000D02*
X135534500Y-102070000D01*
X132334500Y-103670000D02*
X132334500Y-102070000D01*
X135534500Y-102070000D02*
X135534500Y-103670000D01*
X135534500Y-103670000D02*
X132334500Y-103670000D01*
%TO.C,R43*%
X132334500Y-98158400D02*
X135534500Y-98158400D01*
X135534500Y-98158400D02*
X135534500Y-99758400D01*
X135534500Y-99758400D02*
X132334500Y-99758400D01*
X132334500Y-99758400D02*
X132334500Y-98158400D01*
%TO.C,T1*%
X163168600Y-67411600D02*
X163168600Y-80111600D01*
X156058600Y-67411600D02*
X163168600Y-67411600D01*
X156058600Y-80111600D02*
X156058600Y-67411600D01*
X163168600Y-80111600D02*
X156058600Y-80111600D01*
X163168600Y-78841600D02*
X161898600Y-80111600D01*
%TO.C,R3*%
X147339300Y-68288600D02*
X147339300Y-66688600D01*
X147339300Y-66688600D02*
X148164300Y-66688600D01*
X148164300Y-68288600D02*
X147339300Y-68288600D01*
X148164300Y-66688600D02*
X148164300Y-68288600D01*
%TO.C,C6*%
X140773200Y-69532600D02*
X141573200Y-69532600D01*
X141573200Y-69532600D02*
X141573200Y-71132600D01*
X140773200Y-71132600D02*
X140773200Y-69532600D01*
X141573200Y-71132600D02*
X140773200Y-71132600D01*
%TO.C,F4*%
X133934800Y-81705400D02*
X132334800Y-81705400D01*
X132334800Y-80905400D02*
X133934800Y-80905400D01*
X132334800Y-81705400D02*
X132334800Y-80905400D01*
X133934800Y-80905400D02*
X133934800Y-81705400D01*
%TO.C,R38*%
X135534800Y-80124200D02*
X132334800Y-80124200D01*
X135534800Y-78524200D02*
X135534800Y-80124200D01*
X132334800Y-80124200D02*
X132334800Y-78524200D01*
X132334800Y-78524200D02*
X135534800Y-78524200D01*
%TO.C,C17*%
X140780200Y-114260700D02*
X140780200Y-112660700D01*
X141580200Y-114260700D02*
X140780200Y-114260700D01*
X140780200Y-112660700D02*
X141580200Y-112660700D01*
X141580200Y-112660700D02*
X141580200Y-114260700D01*
%TO.C,F11*%
X133934500Y-108286600D02*
X133934500Y-109086600D01*
X132334500Y-108286600D02*
X133934500Y-108286600D01*
X132334500Y-109086600D02*
X132334500Y-108286600D01*
X133934500Y-109086600D02*
X132334500Y-109086600D01*
%TO.C,R40*%
X135534200Y-86474400D02*
X135534200Y-88074400D01*
X132334200Y-86474400D02*
X135534200Y-86474400D01*
X135534200Y-88074400D02*
X132334200Y-88074400D01*
X132334200Y-88074400D02*
X132334200Y-86474400D01*
%TO.C,C14*%
X141580200Y-100976700D02*
X141580200Y-102576700D01*
X141580200Y-102576700D02*
X140780200Y-102576700D01*
X140780200Y-100976700D02*
X141580200Y-100976700D01*
X140780200Y-102576700D02*
X140780200Y-100976700D01*
%TO.C,F1*%
X132334200Y-69058800D02*
X133934200Y-69058800D01*
X132334200Y-69858800D02*
X132334200Y-69058800D01*
X133934200Y-69858800D02*
X132334200Y-69858800D01*
X133934200Y-69058800D02*
X133934200Y-69858800D01*
%TO.C,R53*%
X163258400Y-96539300D02*
X163258400Y-97364300D01*
X161658400Y-96539300D02*
X163258400Y-96539300D01*
X161658400Y-97364300D02*
X161658400Y-96539300D01*
X163258400Y-97364300D02*
X161658400Y-97364300D01*
%TO.C,R15*%
X137682600Y-76905100D02*
X139282600Y-76905100D01*
X137682600Y-77730100D02*
X137682600Y-76905100D01*
X139282600Y-77730100D02*
X137682600Y-77730100D01*
X139282600Y-76905100D02*
X139282600Y-77730100D01*
%TO.C,R33*%
X137687800Y-109099100D02*
X137687800Y-108274100D01*
X139287800Y-108274100D02*
X139287800Y-109099100D01*
X137687800Y-108274100D02*
X139287800Y-108274100D01*
X139287800Y-109099100D02*
X137687800Y-109099100D01*
%TO.C,Q15*%
X161852800Y-93635600D02*
X161852800Y-95035600D01*
X164322800Y-93635600D02*
X161872800Y-93635600D01*
X164892800Y-94185600D02*
X164892800Y-95035600D01*
X164322800Y-93635600D02*
X164892800Y-94185600D01*
X164892800Y-95035600D02*
X161852800Y-95035600D01*
%TO.C,C7*%
X141573200Y-75068500D02*
X140773200Y-75068500D01*
X140773200Y-75068500D02*
X140773200Y-73468500D01*
X141573200Y-73468500D02*
X141573200Y-75068500D01*
X140773200Y-73468500D02*
X141573200Y-73468500D01*
%TO.C,R46*%
X132334500Y-111442400D02*
X132334500Y-109842400D01*
X135534500Y-111442400D02*
X132334500Y-111442400D01*
X135534500Y-109842400D02*
X135534500Y-111442400D01*
X132334500Y-109842400D02*
X135534500Y-109842400D01*
%TO.C,F10*%
X133934500Y-105200400D02*
X132334500Y-105200400D01*
X133934500Y-104400400D02*
X133934500Y-105200400D01*
X132334500Y-104400400D02*
X133934500Y-104400400D01*
X132334500Y-105200400D02*
X132334500Y-104400400D01*
%TO.C,R11*%
X137680800Y-69046300D02*
X139280800Y-69046300D01*
X137680800Y-69871300D02*
X137680800Y-69046300D01*
X139280800Y-69046300D02*
X139280800Y-69871300D01*
X139280800Y-69871300D02*
X137680800Y-69871300D01*
%TO.C,C2*%
X171567200Y-92005400D02*
X169967200Y-92005400D01*
X169967200Y-91205400D02*
X171567200Y-91205400D01*
X169967200Y-92005400D02*
X169967200Y-91205400D01*
X171567200Y-91205400D02*
X171567200Y-92005400D01*
%TO.C,C10*%
X141598600Y-86955700D02*
X140798600Y-86955700D01*
X140798600Y-86955700D02*
X140798600Y-85355700D01*
X141598600Y-85355700D02*
X141598600Y-86955700D01*
X140798600Y-85355700D02*
X141598600Y-85355700D01*
%TO.C,R41*%
X132334200Y-90386000D02*
X135534200Y-90386000D01*
X132334200Y-91986000D02*
X132334200Y-90386000D01*
X135534200Y-91986000D02*
X132334200Y-91986000D01*
X135534200Y-90386000D02*
X135534200Y-91986000D01*
%TO.C,R7*%
X161658200Y-89243100D02*
X161658200Y-90068100D01*
X161658200Y-90068100D02*
X160058200Y-90068100D01*
X160058200Y-90068100D02*
X160058200Y-89243100D01*
X160058200Y-89243100D02*
X161658200Y-89243100D01*
%TO.C,C3*%
X166562800Y-90430600D02*
X166562800Y-89630600D01*
X168162800Y-89630600D02*
X168162800Y-90430600D01*
X166562800Y-89630600D02*
X168162800Y-89630600D01*
X168162800Y-90430600D02*
X166562800Y-90430600D01*
%TO.C,R1*%
X146039300Y-69564500D02*
X147639300Y-69564500D01*
X146039300Y-70389500D02*
X146039300Y-69564500D01*
X147639300Y-69564500D02*
X147639300Y-70389500D01*
X147639300Y-70389500D02*
X146039300Y-70389500D01*
%TO.C,F6*%
X132334200Y-89655600D02*
X132334200Y-88855600D01*
X132334200Y-88855600D02*
X133934200Y-88855600D01*
X133934200Y-88855600D02*
X133934200Y-89655600D01*
X133934200Y-89655600D02*
X132334200Y-89655600D01*
%TO.C,R8*%
X164221900Y-86568100D02*
X164221900Y-85743100D01*
X165821900Y-86568100D02*
X164221900Y-86568100D01*
X165821900Y-85743100D02*
X165821900Y-86568100D01*
X164221900Y-85743100D02*
X165821900Y-85743100D01*
%TO.C,R19*%
X139306200Y-85705700D02*
X137706200Y-85705700D01*
X139306200Y-84880700D02*
X139306200Y-85705700D01*
X137706200Y-84880700D02*
X139306200Y-84880700D01*
X137706200Y-85705700D02*
X137706200Y-84880700D01*
%TO.C,C8*%
X140775000Y-77380100D02*
X141575000Y-77380100D01*
X140775000Y-78980100D02*
X140775000Y-77380100D01*
X141575000Y-77380100D02*
X141575000Y-78980100D01*
X141575000Y-78980100D02*
X140775000Y-78980100D01*
%TO.C,C12*%
X140780200Y-94778900D02*
X140780200Y-93178900D01*
X140780200Y-93178900D02*
X141580200Y-93178900D01*
X141580200Y-94778900D02*
X140780200Y-94778900D01*
X141580200Y-93178900D02*
X141580200Y-94778900D01*
%TO.C,R45*%
X135534500Y-105930800D02*
X135534500Y-107530800D01*
X135534500Y-107530800D02*
X132334500Y-107530800D01*
X132334500Y-107530800D02*
X132334500Y-105930800D01*
X132334500Y-105930800D02*
X135534500Y-105930800D01*
%TO.C,R30*%
X137687800Y-97389700D02*
X137687800Y-96564700D01*
X137687800Y-96564700D02*
X139287800Y-96564700D01*
X139287800Y-97389700D02*
X137687800Y-97389700D01*
X139287800Y-96564700D02*
X139287800Y-97389700D01*
%TO.C,R37*%
X132334800Y-74561800D02*
X135534800Y-74561800D01*
X135534800Y-76161800D02*
X132334800Y-76161800D01*
X135534800Y-74561800D02*
X135534800Y-76161800D01*
X132334800Y-76161800D02*
X132334800Y-74561800D01*
%TO.C,C13*%
X140780200Y-98639700D02*
X140780200Y-97039700D01*
X141580200Y-98639700D02*
X140780200Y-98639700D01*
X140780200Y-97039700D02*
X141580200Y-97039700D01*
X141580200Y-97039700D02*
X141580200Y-98639700D01*
%TO.C,J3*%
X166966400Y-74298000D02*
X166966400Y-81698000D01*
X166966400Y-79873000D02*
X167966400Y-79248000D01*
X172716400Y-81698000D02*
X172716400Y-74298000D01*
X167966400Y-79248000D02*
X166966400Y-78623000D01*
X172716400Y-74298000D02*
X166966400Y-74298000D01*
X166966400Y-81698000D02*
X172716400Y-81698000D01*
%TD*%
M02*
