M48
;Layer_Color=9474304
;FILE_FORMAT=4:4
METRIC,LZ
;TYPE=PLATED
T1F00S00C0.2500
T2F00S00C0.3300
T3F00S00C0.5000
T4F00S00C0.7112
T5F00S00C1.0200
T6F00S00C1.8500
T7F00S00C3.3000
%
T01
X01004824Y00491744
T02
X00040132Y00112268
X00103124Y00127
X00102616Y00142748
X00129032Y00033528
X00146304
X00163576
X0023368Y00050292
X00234188Y00100076
X00277876Y00106172
X00303784Y00135128
X00359664Y00138176
X0038862Y00135128
X00392176Y00075692
X00422656Y00072136
X004318Y00082806
X00443484Y00079248
X00457708Y00075692
X00462788Y00034544
X00493776Y00026416
X00506984Y00039116
X00513588Y00048768
X00538988Y00033528
X00504952Y00099568
X00512064Y00125476
X0048768Y00137668
X00417068Y00023368
X00335788
X00279908Y00028956
X00309372Y00080264
X00356616
X00544068Y0009144
X00555244Y00075692
X00578104Y00095504
X00575056Y00118364
X00554736Y00127
X00626872Y00136144
X00634082Y00118364
X0064008Y00099568
X0066294Y00085344
X00689864Y00079248
X00674624Y00040132
X00633984Y00026924
X00576072
Y00046228
X00592328Y00064516
X00613664Y00067056
X00612574Y00083894
X0067056Y0012446
X00691896Y00132588
X00748284Y0013462
X00751332Y00080264
X00770128Y00082296
X00783336Y00080774
X00806704Y00076708
X00813816Y00033528
X00767753Y0003206
X00729488Y00034036
X0085344Y0006858
X0090424Y00061468
X00915401Y00038115
X00934212Y00036576
X00905256Y00025908
X00903224Y00097028
X00903732Y00114808
X00931164Y00112776
X00939292Y00092964
X00950976Y00078232
X00967232Y00079756
X00974344Y00093472
X0097028Y00114808
X00979185Y00064247
X00979424Y00049276
X0097536Y00028448
X01035812
X01024636Y00048768
X01004316Y00079248
X01040384Y00103124
X01029716Y001143
X01019048Y0013208
X01032256Y00141224
X01062736Y0011938
X0108712Y00139192
X01133348Y00125476
X0118872Y00130556
X01189736Y00080264
X01200912Y00079756
X01180592Y00083312
X01152533Y0007914
X0108712Y00077724
X01081024Y00036576
X01131824Y00032004
X01174496Y00031496
X01216152Y00032512
X012573Y00034544
X01305052
X0130048Y00048768
X01308608Y00056896
X01322832Y00036576
X0132842Y00099568
X01329944Y00135636
X01299972Y00138176
X01250188Y000889
X01234948Y00086868
X01222756Y00084836
X01345184Y00093472
X01357376Y0007874
X01376172Y00066548
X01383792Y000508
X01340104Y00037084
X01437132Y0003556
X01473708Y00037084
X01512824Y00039624
X0153416Y00040132
X01570736Y00041148
Y000635
X01601216Y00061468
X01579372Y00098044
X01549908
X0153416Y00085344
X01513332Y000889
X01521968Y00112776
X01501648Y00113284
X01513332Y00139192
X01534668Y0014224
X01466088Y00129032
X0145542Y00116332
X01469136Y00100076
X0143764Y00102108
X01419352Y00097028
X01426972Y00117856
X0141859Y00136906
X01371092Y00117348
X0169164Y00120904
Y00175768
X01691132Y00216916
Y00254508
X01690116Y00305308
X01661668Y00321056
X0164084Y00321564
X01614932Y00323088
X01608836Y00338328
X01575308Y00344424
X01568704Y00353568
X01555496Y00363728
X0155702Y00340868
X01557528Y00331216
Y00312928
X01560576Y00295148
X01545844Y00302768
X01531112Y00288036
Y00239776
X01552956Y00242824
X0156972Y0026162
X01578864Y00266192
Y00306324
X01586484Y00313436
X01628648Y00297688
X01629156Y0025146
X0162306Y00211836
Y00161036
X01553972Y00164592
Y00188468
X01535176Y00186944
X01527048Y00200152
X0151384Y00191516
X01510792Y00226568
X014732Y00198628
X01474216Y00157988
X01458468Y00170688
X01446784Y00152908
X01409192Y00157988
X01392428Y001651
X01360932Y00175768
X01375156Y00194564
X0140208Y00198628
X01402588Y00244348
X01395476Y00275336
X01416304Y00269748
X01429512Y00290576
X0143256Y0030988
X01415288Y0031242
X01410208Y0033274
X01413764Y00364236
X01437132Y0035052
X01454912Y00366268
X0146304Y00382016
X01457452Y00394208
X01459484Y0043942
X01467104Y00459232
X01490472Y00445516
X0149098Y00494284
X01468628Y004953
X01471168Y00514604
X0147066Y00533908
X01493012Y00534924
X01528572Y00537972
X01568221Y00534209
X01550486Y00511485
X01542796Y00470916
X0156464Y0046228
X01556512Y00421132
X01569212Y00410464
X0157056Y00398448
X01548892Y00381508
X01523492Y00375412
X01503172Y00368808
X01532636Y00351028
X01522476Y0041402
X01586992Y0042672
X01611884Y00424688
Y00405384
X01643888Y00413004
X01657604Y00402844
X01679448Y00399288
X01680464Y00382524
X01662176Y00369316
X0164084
X01691132Y00352044
X01682496Y0044704
X01670304Y00471932
X01649984Y00452628
X01630172Y00477012
X01600708Y00478028
X01424432Y004699
X0140208Y0046228
X01386332Y00439928
X01359408Y00435356
X01359916Y00453644
X01339596Y00463804
X01350772Y005207
X0141224Y00517144
X01390396Y00394208
X0138684Y0037846
X01368044Y0036576
X01356868Y0030226
X01339596Y00273812
X01345184Y00247396
X01349367Y00152865
X01461516Y00267208
X01459992Y0027686
X01461516Y00288036
X01454912Y00297688
X01573784Y00207772
X01299464Y00192532
X01276459Y00194926
X01286764Y0017526
X01291336Y0016002
X01271016Y00167132
X01254252Y00175768
X01255776Y00153924
X01246632Y00194056
X01199388Y00193548
X01181608Y00194056
X01189228Y0017526
X01192276Y00155448
X01172464Y00146812
X01157732Y00155448
X01157224Y00176276
X01146556Y00194564
X01101344Y00193548
X01094202Y00202568
X0108204Y00171704
X01062736Y00150876
X01030224Y00160528
X010033Y00162052
X00968248Y00153924
X00966216Y00174244
X00957072Y0019304
X0102616Y00201676
X01026668Y00245364
X01001268Y00243332
X01010412Y00265684
X01023112Y00288544
X01040384Y0027178
X01083056Y00270256
X01100328Y00272796
X01097788Y00245364
X01132332Y0025908
X01110488Y00305816
X0108204Y00341884
X01076452Y00353568
X01087628Y00369316
X01091184Y00384556
X01103884Y00398272
X01114552Y00390144
X0112522Y00371856
X0117635Y00359034
X01187196Y00375412
X01183239Y00389356
X01184148Y0043942
X01177036Y00465836
X0116813Y0048528
X01149604Y00469392
X01136904Y00477012
X01119632Y00456184
X01114044Y00438912
X010922Y00434848
X0109474Y00462788
X01085088Y00491236
X01071372Y00483616
X01055116Y00475996
X0103632Y00484632
X01026668Y00471932
X01028192Y00442468
X01024128Y0039878
X0103378Y00378968
X01006612Y00377113
X00995172Y00352044
X01022604Y00348996
X00951992Y00351028
X00946404Y00374904
X0096774Y00324612
X00974344Y00293116
X00948944Y00289052
X00951484Y00450088
X00959612Y0046228
X00983488Y00475996
X00990092Y00503428
X00966724Y004953
X00959104Y00512064
X0101092Y0052578
X01065642Y00526146
X01066292Y00506476
X01084072Y0051816
X01094232Y00503936
X0112522Y00505968
X01099312Y005334
X01182624Y0051562
X01212485Y00501806
X0126492Y0051562
X01262888Y00480568
X01280668Y00481584
X01279652Y00463296
X0126238Y0044196
X01240028Y00453644
X01256792Y00344424
X01224788Y00341884
X01208532Y0032512
X01188212Y00341884
X01263396Y00287526
X01256284Y0025146
X01311148Y00305816
X01316228Y00324612
X01317244Y00346964
X01303528Y00375412
X01306576Y00539496
X00976376Y00437896
X00928116Y004445
X00926748Y00465558
X00869188Y00465328
X00870204Y00443992
X00847852Y00452628
X00836168Y00437388
X00831596Y00465328
X00826516Y00491744
X00827024Y00503936
X00842264Y00491236
X00861568Y00504444
X00872744Y00493776
X00778764Y0049276
X0077978Y00465836
X00776224Y00443484
X00732536Y0044704
X00704088Y00455168
X00688848Y00435356
X00647192Y0042672
X00646176Y00458216
X00585724Y0045974
X0057404Y00447548
X00583184Y00436372
X00572008Y0047244
X00578612Y00504952
X00546608Y00489712
X00557784Y00400304
X00577596Y00358648
X0057912Y00333248
X00590296Y00302768
X00589788Y002794
X00643636Y00268732
X006477Y00302768
X00669036Y00304292
X00681736Y00306324
X006985Y00315468
X00702564Y00326644
X00710184Y00309372
X00712724Y00295148
X00707136Y00272288
X00703072Y00260604
X00697484Y00249936
X00682244Y00269748
X0069319Y00201367
X00703072Y0019304
X00682752Y00171704
X00663448Y0014986
X00630428Y0015494
X0060706Y00156972
X0061214Y00187452
X00626364Y00201676
X00625348Y00244856
X00579628Y00183896
X00554482Y00192278
X00550672Y00173736
X0055118Y00151892
X00751332Y00153416
X00753364Y00176276
X00782828Y00165608
X0080264Y00175768
X00804164Y00153924
X0086106Y00152908
X00861568Y00175768
X00878332Y00164084
X00907796Y00173736
X00909828Y00152908
X00851916Y00195072
X0084074Y00250444
X00798068Y00262636
X00799592Y00306832
X00754888Y00334772
X0073914Y00349504
X00702564Y00358648
X00692912Y00369824
X00681736Y00363728
X00665988Y00338836
X00631444Y00362204
X0062992Y00386588
X00761492Y00395224
X00830072Y00351028
X00871728Y00361696
X00898144Y00341884
X00907796Y0039624
X00865124Y00284988
X00931879Y00266394
X0092964Y00243332
X00783336Y00196596
X0067568Y00502412
X00516636Y00503428
X00496619Y00525024
X00480568Y00537464
X00435356Y00519176
X00410464Y00535432
X00415036Y00458724
Y00428244
X00410464Y0038608
X00369316Y00390652
X00348996Y0038608
X00324104Y00371348
X00326644Y0035306
X00306832Y00386588
X0026416Y00387096
X00262636Y00417576
X00224357Y00454247
X00204216Y00455168
X002032Y00438404
X00173228Y00478536
X0015494Y00479044
X00154432Y00490728
X00164084Y00491236
X00146304Y0051816
X00174145Y00529336
X00316484Y00502412
X00339852Y00478536
X00328676Y00437896
X0037338Y00438404
X00478028Y0042164
X00480568Y00395732
X0048768Y0035052
X00438912Y00366776
X00434848Y00334772
X00481584Y00257556
X00478028Y00201168
X0045466Y00191516
X00458724Y00173736
X00467868Y00160528
X00452628Y00156464
X00499872Y00151892
X00502412Y00173228
X00402844
X00404876Y00161036
X00393192Y00150876
X00374904Y0017272
X00351536Y00176276
X00348996Y00154432
X00300228Y0015494
X00298704Y00175768
X002794Y0016002
X00234188Y00160528
X00194564Y00155956
X00172212Y00155448
X00287528Y00217932
X00388112
X00265684Y0030734
X00262636Y00328168
X00526288Y00425704
X00529844Y00448056
X00527812Y0047244
X0048514Y00473964
X00097028Y00473456
X00087376
X00041148Y00472948
X00029464Y00488188
X0003302Y00508
X0003556Y00420624
X0004318Y00396748
X0006096Y00395732
X00076708Y00415036
X00125476Y00414528
X00109728Y00395224
X00102108Y00235204
X00136652Y00235712
X00138684Y00184404
X00076708Y0018542
X00028448Y00183896
X00029972Y00237236
X000635Y00235712
X00106172Y005461
X00107188Y00584708
X00106172Y00605536
X00174244Y00593344
X00173736Y00566928
X00158496Y00559816
X00194056Y00608076
X00324104Y00587756
X00354076Y00593852
X00430276
X0050292Y0056642
X00537972Y00542036
X0032004
X00558292Y00569976
X00664464Y0057404
X0068072Y00577596
X00694436Y00567944
X0070866Y00552704
X00714756Y0058928
X0078486Y0059944
X00784352Y0057404
X00831088Y00600456
X00873252Y00600964
Y00563372
X00893572Y00554736
X00906272Y0055118
X0091528Y00600324
X00959104Y00601472
X01005332Y00600964
X01015492Y00578612
X00999789Y00563325
X00999236Y00548642
X01045972Y00559308
Y00580644
X01055116Y0060452
X01100836Y00605536
X01135888Y00599948
X01134872Y00575564
X0111252Y00573532
X01058176Y00547729
X011811Y00546608
X01180592Y0059944
X01226312Y0060452
X01251712Y0055372
X01307084Y00596392
X01352804Y00573532
X01344676Y00562356
X01410208Y005588
X01415288Y0057658
X0144526Y00582676
X01461516Y0058166
X01466596Y00600456
X01487424Y00585724
X01499616Y00606552
X01519488Y00597944
X01532636Y00607568
X01535684Y00585216
X01543812Y00587756
X01552956Y00598424
X01570228Y00592836
X01569212Y00565404
X01555496Y00567944
X01542796Y00547116
X01503586Y00549188
X01482852Y00555752
X01440688Y00554228
X01438148Y00608076
X01402628Y00608024
X01368552Y00609092
T03
X00218948Y00191516
Y00216916
Y00242316
Y00293116
Y00318516
Y00343916
Y00369316
T04
X00125984Y00084328
X00110744Y001016
X00218948Y00039116
X00912368Y00355092
X0011176Y00208788
X00105664Y00181356
T05
X00610616Y00257556
Y00282956
Y00308356
Y00333756
Y00359156
Y00384556
Y00409956
Y00435356
Y00460756
Y00486156
Y00511556
Y00536956
X00458216
Y00511556
Y00486156
Y00460756
Y00435356
Y00409956
Y00384556
Y00359156
Y00333756
Y00308356
Y00282956
Y00257556
Y00562356
Y00587756
X00483616
X00509016
X00534416
X00559816
X00585216
X00610616
Y00562356
T06
X00314272Y00053204
X00356272
X00398272
X00440272
X00482272
Y00108204
X00440272
X00398272
X00356272
X00314272
X00708152
X00750152
X00792152
X00834152
X00876152
Y00053204
X00834152
X00792152
X00750152
X00708152
X0111234Y00053712
X0115434
X0119634
X0123834
X0128034
Y00108712
X0123834
X0119634
X0115434
X0111234
X0159766Y00125804
X0165266
Y00167804
Y00209804
Y00251804
Y00293804
X0159766
Y00251804
Y00209804
Y00167804
X01328272Y00526288
X01286272
X01244272
X01202272
X01160272
X0097926Y00528184
X0093726
X0089526
X0085326
X0081126
X00102616Y00357812
Y00315812
Y00273812
X00047616
Y00315812
Y00357812
X0081126Y00583184
X0085326
X0089526
X0093726
X0097926
X01160272Y00581288
X01202272
X01244272
X01286272
X01328272
T07
X0004978Y000508
X016686Y0005222
X01185164Y00263144
X0004877Y0057963
X0166946Y0057974
M30
