%TF.GenerationSoftware,KiCad,Pcbnew,(6.0.11)*%
%TF.CreationDate,2023-07-03T20:40:42+10:00*%
%TF.ProjectId,LV_MASTER_A_SAMPLE,4c565f4d-4153-4544-9552-5f415f53414d,1*%
%TF.SameCoordinates,Original*%
%TF.FileFunction,AssemblyDrawing,Bot*%
%FSLAX46Y46*%
G04 Gerber Fmt 4.6, Leading zero omitted, Abs format (unit mm)*
G04 Created by KiCad (PCBNEW (6.0.11)) date 2023-07-03 20:40:42*
%MOMM*%
%LPD*%
G01*
G04 APERTURE LIST*
%ADD10C,0.150000*%
%ADD11C,0.254000*%
%ADD12C,0.100000*%
%ADD13C,0.127000*%
%ADD14C,0.200000*%
G04 APERTURE END LIST*
D10*
%TO.C,D1*%
X132174952Y-86333380D02*
X132508285Y-85857190D01*
X132746380Y-86333380D02*
X132746380Y-85333380D01*
X132365428Y-85333380D01*
X132270190Y-85381000D01*
X132222571Y-85428619D01*
X132174952Y-85523857D01*
X132174952Y-85666714D01*
X132222571Y-85761952D01*
X132270190Y-85809571D01*
X132365428Y-85857190D01*
X132746380Y-85857190D01*
X131746380Y-85809571D02*
X131413047Y-85809571D01*
X131270190Y-86333380D02*
X131746380Y-86333380D01*
X131746380Y-85333380D01*
X131270190Y-85333380D01*
X130841619Y-86333380D02*
X130841619Y-85333380D01*
X130603523Y-85333380D01*
X130460666Y-85381000D01*
X130365428Y-85476238D01*
X130317809Y-85571476D01*
X130270190Y-85761952D01*
X130270190Y-85904809D01*
X130317809Y-86095285D01*
X130365428Y-86190523D01*
X130460666Y-86285761D01*
X130603523Y-86333380D01*
X130841619Y-86333380D01*
X128603523Y-86333380D02*
X129079714Y-86333380D01*
X129079714Y-85333380D01*
X128270190Y-85809571D02*
X127936857Y-85809571D01*
X127794000Y-86333380D02*
X128270190Y-86333380D01*
X128270190Y-85333380D01*
X127794000Y-85333380D01*
X127365428Y-86333380D02*
X127365428Y-85333380D01*
X127127333Y-85333380D01*
X126984476Y-85381000D01*
X126889238Y-85476238D01*
X126841619Y-85571476D01*
X126794000Y-85761952D01*
X126794000Y-85904809D01*
X126841619Y-86095285D01*
X126889238Y-86190523D01*
X126984476Y-86285761D01*
X127127333Y-86333380D01*
X127365428Y-86333380D01*
%TO.C,D2*%
X124046952Y-84878380D02*
X124380285Y-84402190D01*
X124618380Y-84878380D02*
X124618380Y-83878380D01*
X124237428Y-83878380D01*
X124142190Y-83926000D01*
X124094571Y-83973619D01*
X124046952Y-84068857D01*
X124046952Y-84211714D01*
X124094571Y-84306952D01*
X124142190Y-84354571D01*
X124237428Y-84402190D01*
X124618380Y-84402190D01*
X123618380Y-84354571D02*
X123285047Y-84354571D01*
X123142190Y-84878380D02*
X123618380Y-84878380D01*
X123618380Y-83878380D01*
X123142190Y-83878380D01*
X122713619Y-84878380D02*
X122713619Y-83878380D01*
X122475523Y-83878380D01*
X122332666Y-83926000D01*
X122237428Y-84021238D01*
X122189809Y-84116476D01*
X122142190Y-84306952D01*
X122142190Y-84449809D01*
X122189809Y-84640285D01*
X122237428Y-84735523D01*
X122332666Y-84830761D01*
X122475523Y-84878380D01*
X122713619Y-84878380D01*
X120475523Y-84878380D02*
X120951714Y-84878380D01*
X120951714Y-83878380D01*
X120142190Y-84354571D02*
X119808857Y-84354571D01*
X119666000Y-84878380D02*
X120142190Y-84878380D01*
X120142190Y-83878380D01*
X119666000Y-83878380D01*
X119237428Y-84878380D02*
X119237428Y-83878380D01*
X118999333Y-83878380D01*
X118856476Y-83926000D01*
X118761238Y-84021238D01*
X118713619Y-84116476D01*
X118666000Y-84306952D01*
X118666000Y-84449809D01*
X118713619Y-84640285D01*
X118761238Y-84735523D01*
X118856476Y-84830761D01*
X118999333Y-84878380D01*
X119237428Y-84878380D01*
%TO.C,D3*%
X124046952Y-82719380D02*
X124380285Y-82243190D01*
X124618380Y-82719380D02*
X124618380Y-81719380D01*
X124237428Y-81719380D01*
X124142190Y-81767000D01*
X124094571Y-81814619D01*
X124046952Y-81909857D01*
X124046952Y-82052714D01*
X124094571Y-82147952D01*
X124142190Y-82195571D01*
X124237428Y-82243190D01*
X124618380Y-82243190D01*
X123618380Y-82195571D02*
X123285047Y-82195571D01*
X123142190Y-82719380D02*
X123618380Y-82719380D01*
X123618380Y-81719380D01*
X123142190Y-81719380D01*
X122713619Y-82719380D02*
X122713619Y-81719380D01*
X122475523Y-81719380D01*
X122332666Y-81767000D01*
X122237428Y-81862238D01*
X122189809Y-81957476D01*
X122142190Y-82147952D01*
X122142190Y-82290809D01*
X122189809Y-82481285D01*
X122237428Y-82576523D01*
X122332666Y-82671761D01*
X122475523Y-82719380D01*
X122713619Y-82719380D01*
X120475523Y-82719380D02*
X120951714Y-82719380D01*
X120951714Y-81719380D01*
X120142190Y-82195571D02*
X119808857Y-82195571D01*
X119666000Y-82719380D02*
X120142190Y-82719380D01*
X120142190Y-81719380D01*
X119666000Y-81719380D01*
X119237428Y-82719380D02*
X119237428Y-81719380D01*
X118999333Y-81719380D01*
X118856476Y-81767000D01*
X118761238Y-81862238D01*
X118713619Y-81957476D01*
X118666000Y-82147952D01*
X118666000Y-82290809D01*
X118713619Y-82481285D01*
X118761238Y-82576523D01*
X118856476Y-82671761D01*
X118999333Y-82719380D01*
X119237428Y-82719380D01*
D11*
%TO.C,T1*%
X120335523Y-108887380D02*
X120335523Y-109613095D01*
X121605523Y-109250238D02*
X120335523Y-109250238D01*
X121605523Y-110701666D02*
X121605523Y-109975952D01*
X121605523Y-110338809D02*
X120335523Y-110338809D01*
X120516952Y-110217857D01*
X120637904Y-110096904D01*
X120698380Y-109975952D01*
D10*
%TO.C,J3*%
X115373333Y-103423571D02*
X115230476Y-103471190D01*
X115182857Y-103518809D01*
X115135238Y-103614047D01*
X115135238Y-103756904D01*
X115182857Y-103852142D01*
X115230476Y-103899761D01*
X115325714Y-103947380D01*
X115706666Y-103947380D01*
X115706666Y-102947380D01*
X115373333Y-102947380D01*
X115278095Y-102995000D01*
X115230476Y-103042619D01*
X115182857Y-103137857D01*
X115182857Y-103233095D01*
X115230476Y-103328333D01*
X115278095Y-103375952D01*
X115373333Y-103423571D01*
X115706666Y-103423571D01*
X114516190Y-102947380D02*
X114325714Y-102947380D01*
X114230476Y-102995000D01*
X114135238Y-103090238D01*
X114087619Y-103280714D01*
X114087619Y-103614047D01*
X114135238Y-103804523D01*
X114230476Y-103899761D01*
X114325714Y-103947380D01*
X114516190Y-103947380D01*
X114611428Y-103899761D01*
X114706666Y-103804523D01*
X114754285Y-103614047D01*
X114754285Y-103280714D01*
X114706666Y-103090238D01*
X114611428Y-102995000D01*
X114516190Y-102947380D01*
X113468571Y-102947380D02*
X113278095Y-102947380D01*
X113182857Y-102995000D01*
X113087619Y-103090238D01*
X113040000Y-103280714D01*
X113040000Y-103614047D01*
X113087619Y-103804523D01*
X113182857Y-103899761D01*
X113278095Y-103947380D01*
X113468571Y-103947380D01*
X113563809Y-103899761D01*
X113659047Y-103804523D01*
X113706666Y-103614047D01*
X113706666Y-103280714D01*
X113659047Y-103090238D01*
X113563809Y-102995000D01*
X113468571Y-102947380D01*
X112754285Y-102947380D02*
X112182857Y-102947380D01*
X112468571Y-103947380D02*
X112468571Y-102947380D01*
X111325714Y-103947380D02*
X111897142Y-103947380D01*
X111611428Y-103947380D02*
X111611428Y-102947380D01*
X111706666Y-103090238D01*
X111801904Y-103185476D01*
X111897142Y-103233095D01*
D12*
%TO.C,C13*%
X136807843Y-112100528D02*
X137373528Y-111534843D01*
X137373528Y-111534843D02*
X136242157Y-110403472D01*
X135676472Y-110969157D02*
X136807843Y-112100528D01*
X136242157Y-110403472D02*
X135676472Y-110969157D01*
%TO.C,C14*%
X141370000Y-89624000D02*
X140570000Y-89624000D01*
X140570000Y-89624000D02*
X140570000Y-91224000D01*
X140570000Y-91224000D02*
X141370000Y-91224000D01*
X141370000Y-91224000D02*
X141370000Y-89624000D01*
%TO.C,C17*%
X134227835Y-97161049D02*
X135642049Y-95746835D01*
X133343951Y-96277165D02*
X134227835Y-97161049D01*
X135642049Y-95746835D02*
X134758165Y-94862951D01*
X134758165Y-94862951D02*
X133343951Y-96277165D01*
%TO.C,D1*%
X130794000Y-83576000D02*
X128794000Y-83576000D01*
X130794000Y-84826000D02*
X130794000Y-83576000D01*
X128794000Y-83576000D02*
X128794000Y-84826000D01*
X128794000Y-84826000D02*
X130794000Y-84826000D01*
%TO.C,J2*%
X123076400Y-73624400D02*
X123076400Y-76164400D01*
X133236400Y-75529400D02*
X133236400Y-73624400D01*
X133236400Y-73624400D02*
X123076400Y-73624400D01*
X132601400Y-76164400D02*
X133236400Y-75529400D01*
X123076400Y-76164400D02*
X132601400Y-76164400D01*
%TO.C,C19*%
X136871500Y-87654000D02*
X135271500Y-87654000D01*
X136871500Y-88454000D02*
X136871500Y-87654000D01*
X135271500Y-87654000D02*
X135271500Y-88454000D01*
X135271500Y-88454000D02*
X136871500Y-88454000D01*
%TO.C,D2*%
X122666000Y-85481000D02*
X120666000Y-85481000D01*
X122666000Y-86731000D02*
X122666000Y-85481000D01*
X120666000Y-86731000D02*
X122666000Y-86731000D01*
X120666000Y-85481000D02*
X120666000Y-86731000D01*
%TO.C,C15*%
X139719000Y-91224000D02*
X139719000Y-89624000D01*
X139719000Y-89624000D02*
X138919000Y-89624000D01*
X138919000Y-91224000D02*
X139719000Y-91224000D01*
X138919000Y-89624000D02*
X138919000Y-91224000D01*
%TO.C,C50*%
X170218000Y-104921000D02*
X170218000Y-104121000D01*
X170218000Y-104121000D02*
X168618000Y-104121000D01*
X168618000Y-104921000D02*
X170218000Y-104921000D01*
X168618000Y-104121000D02*
X168618000Y-104921000D01*
%TO.C,R2*%
X122341000Y-88423500D02*
X122341000Y-87598500D01*
X120741000Y-88423500D02*
X122341000Y-88423500D01*
X122341000Y-87598500D02*
X120741000Y-87598500D01*
X120741000Y-87598500D02*
X120741000Y-88423500D01*
%TO.C,C23*%
X160312000Y-98444000D02*
X160312000Y-97644000D01*
X158712000Y-98444000D02*
X160312000Y-98444000D01*
X158712000Y-97644000D02*
X158712000Y-98444000D01*
X160312000Y-97644000D02*
X158712000Y-97644000D01*
%TO.C,C24*%
X170593000Y-101688500D02*
X168593000Y-101688500D01*
X170593000Y-102938500D02*
X170593000Y-101688500D01*
X168593000Y-102938500D02*
X170593000Y-102938500D01*
X168593000Y-101688500D02*
X168593000Y-102938500D01*
%TO.C,R10*%
X129190500Y-97752000D02*
X128365500Y-97752000D01*
X128365500Y-99352000D02*
X129190500Y-99352000D01*
X128365500Y-97752000D02*
X128365500Y-99352000D01*
X129190500Y-99352000D02*
X129190500Y-97752000D01*
%TO.C,R1*%
X130721000Y-85693500D02*
X129121000Y-85693500D01*
X130721000Y-86518500D02*
X130721000Y-85693500D01*
X129121000Y-85693500D02*
X129121000Y-86518500D01*
X129121000Y-86518500D02*
X130721000Y-86518500D01*
%TO.C,C49*%
X170218000Y-106153000D02*
X168618000Y-106153000D01*
X168618000Y-106153000D02*
X168618000Y-106953000D01*
X168618000Y-106953000D02*
X170218000Y-106953000D01*
X170218000Y-106953000D02*
X170218000Y-106153000D01*
%TO.C,C21*%
X173744500Y-84577000D02*
X175344500Y-84577000D01*
X175344500Y-83777000D02*
X173744500Y-83777000D01*
X175344500Y-84577000D02*
X175344500Y-83777000D01*
X173744500Y-83777000D02*
X173744500Y-84577000D01*
%TO.C,C38*%
X123806000Y-103162000D02*
X124606000Y-103162000D01*
X123806000Y-101562000D02*
X123806000Y-103162000D01*
X124606000Y-103162000D02*
X124606000Y-101562000D01*
X124606000Y-101562000D02*
X123806000Y-101562000D01*
D11*
%TO.C,C20*%
X160331000Y-84271000D02*
X170631000Y-84271000D01*
X170631000Y-84271000D02*
X170631000Y-73971000D01*
X160331000Y-73971000D02*
X160331000Y-84271000D01*
X170631000Y-73971000D02*
X160331000Y-73971000D01*
D12*
%TO.C,F1*%
X175313000Y-101952000D02*
X180433000Y-101952000D01*
X175313000Y-94596000D02*
X175313000Y-101952000D01*
X180433000Y-94596000D02*
X175313000Y-94596000D01*
X180433000Y-101952000D02*
X180433000Y-94596000D01*
%TO.C,J4*%
X146668000Y-77150000D02*
X145288000Y-77150000D01*
X138828000Y-84770000D02*
X138828000Y-85410000D01*
X141208000Y-73660000D02*
X140208000Y-74660000D01*
X146668000Y-82230000D02*
X145288000Y-82230000D01*
X146668000Y-74610000D02*
X145288000Y-74610000D01*
X138828000Y-77150000D02*
X138828000Y-77790000D01*
X140208000Y-84770000D02*
X138828000Y-84770000D01*
X138828000Y-77790000D02*
X140208000Y-77790000D01*
X145288000Y-75250000D02*
X146668000Y-75250000D01*
X140208000Y-86360000D02*
X145288000Y-86360000D01*
X145288000Y-80330000D02*
X146668000Y-80330000D01*
X138828000Y-82230000D02*
X138828000Y-82870000D01*
X145288000Y-86360000D02*
X145288000Y-73660000D01*
X145288000Y-77790000D02*
X146668000Y-77790000D01*
X146668000Y-85410000D02*
X146668000Y-84770000D01*
X140208000Y-82230000D02*
X138828000Y-82230000D01*
X138828000Y-80330000D02*
X140208000Y-80330000D01*
X138828000Y-79690000D02*
X138828000Y-80330000D01*
X138828000Y-82870000D02*
X140208000Y-82870000D01*
X145288000Y-82870000D02*
X146668000Y-82870000D01*
X140208000Y-79690000D02*
X138828000Y-79690000D01*
X140208000Y-74660000D02*
X140208000Y-86360000D01*
X145288000Y-85410000D02*
X146668000Y-85410000D01*
X138828000Y-75250000D02*
X140208000Y-75250000D01*
X146668000Y-82870000D02*
X146668000Y-82230000D01*
X146668000Y-84770000D02*
X145288000Y-84770000D01*
X138828000Y-74610000D02*
X138828000Y-75250000D01*
X146668000Y-79690000D02*
X145288000Y-79690000D01*
X140208000Y-77150000D02*
X138828000Y-77150000D01*
X146668000Y-80330000D02*
X146668000Y-79690000D01*
X146668000Y-75250000D02*
X146668000Y-74610000D01*
X146668000Y-77790000D02*
X146668000Y-77150000D01*
X140208000Y-74610000D02*
X138828000Y-74610000D01*
X138828000Y-85410000D02*
X140208000Y-85410000D01*
X145288000Y-73660000D02*
X141208000Y-73660000D01*
%TO.C,C18*%
X135271500Y-86694000D02*
X136871500Y-86694000D01*
X136871500Y-85894000D02*
X135271500Y-85894000D01*
X135271500Y-85894000D02*
X135271500Y-86694000D01*
X136871500Y-86694000D02*
X136871500Y-85894000D01*
%TO.C,D4*%
X175873000Y-86957000D02*
X175873000Y-91557000D01*
X175873000Y-91557000D02*
X179873000Y-91557000D01*
X177122680Y-88755820D02*
X178672080Y-88755820D01*
X177871980Y-88755820D02*
X177871980Y-87757600D01*
X179873000Y-86957000D02*
X175873000Y-86957000D01*
X179873000Y-86957000D02*
X179873000Y-91557000D01*
X178672080Y-89906440D02*
X177071880Y-89906440D01*
X177871980Y-89906440D02*
X177871980Y-90808140D01*
X177871980Y-89906440D02*
X178672080Y-88755820D01*
X177871980Y-89906440D02*
X177122680Y-88755820D01*
%TO.C,D3*%
X120666000Y-83322000D02*
X120666000Y-84572000D01*
X122666000Y-83322000D02*
X120666000Y-83322000D01*
X120666000Y-84572000D02*
X122666000Y-84572000D01*
X122666000Y-84572000D02*
X122666000Y-83322000D01*
%TO.C,D5*%
X173682000Y-89126000D02*
X173282000Y-89726000D01*
X173682000Y-88726000D02*
X173682000Y-89126000D01*
X173132000Y-89126000D02*
X174232000Y-89126000D01*
X172832000Y-88176000D02*
X172832000Y-90776000D01*
X173682000Y-89126000D02*
X174082000Y-89726000D01*
X173682000Y-90226000D02*
X173682000Y-89726000D01*
X172832000Y-90776000D02*
X174532000Y-90776000D01*
X174532000Y-88176000D02*
X172832000Y-88176000D01*
X174532000Y-90776000D02*
X174532000Y-88176000D01*
X173282000Y-89726000D02*
X174082000Y-89726000D01*
%TO.C,R3*%
X120739000Y-82454500D02*
X122339000Y-82454500D01*
X122339000Y-82454500D02*
X122339000Y-81629500D01*
X120739000Y-81629500D02*
X120739000Y-82454500D01*
X122339000Y-81629500D02*
X120739000Y-81629500D01*
%TO.C,U3*%
X155595000Y-100313500D02*
X154595000Y-101313500D01*
X154595000Y-108813500D02*
X166195000Y-108813500D01*
X154595000Y-101313500D02*
X154595000Y-108813500D01*
X166195000Y-100313500D02*
X155595000Y-100313500D01*
X166195000Y-108813500D02*
X166195000Y-100313500D01*
D13*
%TO.C,L1*%
X160121000Y-86686000D02*
X160121000Y-95686000D01*
X170421000Y-86686000D02*
X160121000Y-86686000D01*
X168941000Y-87926000D02*
X161221000Y-87926000D01*
X169161000Y-94386000D02*
X161571000Y-94386000D01*
X170421000Y-95686000D02*
X170421000Y-86686000D01*
X160121000Y-95686000D02*
X170421000Y-95686000D01*
D12*
%TO.C,U2*%
X135250000Y-92469000D02*
X136850000Y-92469000D01*
X136850000Y-92469000D02*
X136850000Y-89969000D01*
X135250000Y-89569000D02*
X135250000Y-92469000D01*
X136450000Y-89569000D02*
X135250000Y-89569000D01*
X136850000Y-89969000D02*
X136450000Y-89569000D01*
%TO.C,T1*%
X126111000Y-113410000D02*
X127381000Y-112140000D01*
X114681000Y-106300000D02*
X114681000Y-113410000D01*
X127381000Y-106300000D02*
X114681000Y-106300000D01*
X127381000Y-113410000D02*
X127381000Y-106300000D01*
X114681000Y-113410000D02*
X127381000Y-113410000D01*
%TO.C,J3*%
X116080000Y-94375000D02*
X112000000Y-94375000D01*
X111000000Y-95375000D02*
X111000000Y-101995000D01*
X111000000Y-101995000D02*
X116080000Y-101995000D01*
X116080000Y-101995000D02*
X116080000Y-94375000D01*
X112000000Y-94375000D02*
X111000000Y-95375000D01*
%TO.C,C16*%
X183070000Y-88743500D02*
X181820000Y-88743500D01*
X183070000Y-90743500D02*
X183070000Y-88743500D01*
X181820000Y-90743500D02*
X183070000Y-90743500D01*
X181820000Y-88743500D02*
X181820000Y-90743500D01*
%TO.C,C22*%
X158896000Y-95948500D02*
X158896000Y-94348500D01*
X158896000Y-94348500D02*
X158096000Y-94348500D01*
X158096000Y-94348500D02*
X158096000Y-95948500D01*
X158096000Y-95948500D02*
X158896000Y-95948500D01*
%TO.C,R11*%
X130968500Y-97752000D02*
X130143500Y-97752000D01*
X130143500Y-97752000D02*
X130143500Y-99352000D01*
X130143500Y-99352000D02*
X130968500Y-99352000D01*
X130968500Y-99352000D02*
X130968500Y-97752000D01*
D14*
%TO.C,PS1*%
X132306825Y-101645868D02*
X143083132Y-112422175D01*
X143083132Y-112422175D02*
X150649175Y-104856132D01*
X139872868Y-94079825D02*
X132306825Y-101645868D01*
X150649175Y-104856132D02*
X139872868Y-94079825D01*
D12*
%TO.C,L2*%
X156698000Y-97373500D02*
X156698000Y-94173500D01*
X154198000Y-97373500D02*
X156698000Y-97373500D01*
X154198000Y-94173500D02*
X154198000Y-97373500D01*
X156698000Y-94173500D02*
X154198000Y-94173500D01*
%TD*%
M02*
