%TF.GenerationSoftware,KiCad,Pcbnew,(6.0.11)*%
%TF.CreationDate,2023-06-26T18:15:52+10:00*%
%TF.ProjectId,LV_MASTER_A_SAMPLE,4c565f4d-4153-4544-9552-5f415f53414d,1*%
%TF.SameCoordinates,Original*%
%TF.FileFunction,Copper,L2,Inr*%
%TF.FilePolarity,Positive*%
%FSLAX46Y46*%
G04 Gerber Fmt 4.6, Leading zero omitted, Abs format (unit mm)*
G04 Created by KiCad (PCBNEW (6.0.11)) date 2023-06-26 18:15:52*
%MOMM*%
%LPD*%
G01*
G04 APERTURE LIST*
G04 Aperture macros list*
%AMRoundRect*
0 Rectangle with rounded corners*
0 $1 Rounding radius*
0 $2 $3 $4 $5 $6 $7 $8 $9 X,Y pos of 4 corners*
0 Add a 4 corners polygon primitive as box body*
4,1,4,$2,$3,$4,$5,$6,$7,$8,$9,$2,$3,0*
0 Add four circle primitives for the rounded corners*
1,1,$1+$1,$2,$3*
1,1,$1+$1,$4,$5*
1,1,$1+$1,$6,$7*
1,1,$1+$1,$8,$9*
0 Add four rect primitives between the rounded corners*
20,1,$1+$1,$2,$3,$4,$5,0*
20,1,$1+$1,$4,$5,$6,$7,0*
20,1,$1+$1,$6,$7,$8,$9,0*
20,1,$1+$1,$8,$9,$2,$3,0*%
G04 Aperture macros list end*
%TA.AperFunction,ComponentPad*%
%ADD10RoundRect,0.250001X1.399999X-1.099999X1.399999X1.099999X-1.399999X1.099999X-1.399999X-1.099999X0*%
%TD*%
%TA.AperFunction,ComponentPad*%
%ADD11O,3.300000X2.700000*%
%TD*%
%TA.AperFunction,ComponentPad*%
%ADD12RoundRect,0.250001X-1.399999X1.099999X-1.399999X-1.099999X1.399999X-1.099999X1.399999X1.099999X0*%
%TD*%
%TA.AperFunction,ComponentPad*%
%ADD13R,1.700000X1.700000*%
%TD*%
%TA.AperFunction,ComponentPad*%
%ADD14O,1.700000X1.700000*%
%TD*%
%TA.AperFunction,ComponentPad*%
%ADD15C,2.000000*%
%TD*%
%TA.AperFunction,ComponentPad*%
%ADD16R,1.500000X2.300000*%
%TD*%
%TA.AperFunction,ComponentPad*%
%ADD17O,1.500000X2.300000*%
%TD*%
%TA.AperFunction,ViaPad*%
%ADD18C,0.500000*%
%TD*%
%TA.AperFunction,ViaPad*%
%ADD19C,0.800000*%
%TD*%
%TA.AperFunction,Conductor*%
%ADD20C,0.250000*%
%TD*%
%TA.AperFunction,Conductor*%
%ADD21C,0.600000*%
%TD*%
G04 APERTURE END LIST*
D10*
%TO.N,/IMA*%
%TO.C,J5*%
X121337000Y-118745000D03*
D11*
%TO.N,/IPA*%
X126837000Y-118745000D03*
%TD*%
D10*
%TO.N,/AUX_OUTPUT*%
%TO.C,J7*%
X181916000Y-118178000D03*
D11*
%TO.N,/BLUE_LOOP_RLY*%
X181916000Y-113978000D03*
%TO.N,GND*%
X187416000Y-118178000D03*
X187416000Y-113978000D03*
%TD*%
D12*
%TO.N,/CS2B*%
%TO.C,J6*%
X174446000Y-113978000D03*
D11*
%TO.N,/CS1B*%
X174446000Y-118178000D03*
%TO.N,/CS2A*%
X168946000Y-113978000D03*
%TO.N,/CS1A*%
X168946000Y-118178000D03*
%TD*%
D13*
%TO.N,3.3V_(ISO)*%
%TO.C,J2*%
X131966400Y-74894400D03*
D14*
%TO.N,/Microcontroller/UART_TX*%
X129426400Y-74894400D03*
%TO.N,/Microcontroller/UART_RX*%
X126886400Y-74894400D03*
%TO.N,0V_(ISO)*%
X124346400Y-74894400D03*
%TD*%
D15*
%TO.N,/CAN_S*%
%TO.C,J1*%
X185559000Y-82108000D03*
%TO.N,unconnected-(J1-Pad2)*%
X185559000Y-86548000D03*
%TO.N,unconnected-(J1-Pad3)*%
X185559000Y-90998000D03*
%TO.N,/CAN1_+*%
X185559000Y-95438000D03*
%TO.N,/CAN1_-*%
X185559000Y-99888000D03*
%TO.N,unconnected-(J1-Pad6)*%
X185559000Y-104328000D03*
%TO.N,unconnected-(J1-Pad7)*%
X194679000Y-82108000D03*
%TO.N,unconnected-(J1-Pad8)*%
X194679000Y-86548000D03*
%TO.N,unconnected-(J1-Pad9)*%
X194679000Y-90998000D03*
%TO.N,unconnected-(J1-Pad10)*%
X194679000Y-95438000D03*
%TO.N,/GLV-*%
X194679000Y-99888000D03*
%TO.N,/GLV+*%
X194679000Y-104328000D03*
%TD*%
D16*
%TO.N,+24V*%
%TO.C,U3*%
X157905000Y-102313500D03*
D17*
%TO.N,/Power/24V_Gnd*%
X160445000Y-102313500D03*
%TO.N,+5V*%
X162985000Y-102313500D03*
%TD*%
D13*
%TO.N,3.3V_(ISO)*%
%TO.C,J3*%
X112270000Y-95645000D03*
D14*
X114810000Y-95645000D03*
%TO.N,/Microcontroller/BOOT1*%
X112270000Y-98185000D03*
%TO.N,/Microcontroller/BOOT0*%
X114810000Y-98185000D03*
%TO.N,0V_(ISO)*%
X112270000Y-100725000D03*
X114810000Y-100725000D03*
%TD*%
D18*
%TO.N,/CAN_S*%
X160782000Y-81915000D03*
%TO.N,/Microcontroller/CAN_RX_IND*%
X123952000Y-86106000D03*
%TO.N,/Microcontroller/CAN_TX_IND*%
X123952000Y-83947000D03*
%TO.N,/Microcontroller/BOOT1*%
X115443000Y-93853000D03*
X128905000Y-90932000D03*
%TO.N,/Microcontroller/BOOT0*%
X120285000Y-92710000D03*
X124714000Y-81407000D03*
%TO.N,/Microcontroller/NRST*%
X130238500Y-79311500D03*
%TO.N,/Microcontroller/SWDIO*%
X131445000Y-80907400D03*
%TO.N,/Microcontroller/SWCLK*%
X130429000Y-80772000D03*
%TO.N,/Microcontroller/SCL_(ISO)*%
X133858000Y-93980000D03*
X126441200Y-81915000D03*
%TO.N,/Microcontroller/SDA_(ISO)*%
X125912700Y-80348200D03*
X134380802Y-93587898D03*
%TO.N,/Microcontroller/PC13_LED*%
X129174600Y-82407400D03*
%TO.N,3.3V_(ISO)*%
X133604000Y-89408000D03*
X142621000Y-78486000D03*
X120015000Y-91059000D03*
X133096000Y-78232000D03*
X121412000Y-78740000D03*
%TO.N,0V_(ISO)*%
X137341667Y-76700000D03*
X139091667Y-78450000D03*
X137341667Y-78450000D03*
X119841667Y-99450000D03*
X132091667Y-106450000D03*
X128591667Y-92450000D03*
X114591667Y-106450000D03*
X126841667Y-73200000D03*
X147841667Y-83700000D03*
X146091667Y-73200000D03*
X130341667Y-95950000D03*
X147841667Y-80200000D03*
X142591667Y-74950000D03*
X119270000Y-83660000D03*
X147841667Y-76700000D03*
X135591667Y-73200000D03*
X142591667Y-94200000D03*
X128591667Y-106450000D03*
X119841667Y-95950000D03*
X147841667Y-73200000D03*
X111091667Y-92450000D03*
X119841667Y-97700000D03*
X128591667Y-95950000D03*
X114591667Y-104700000D03*
X114591667Y-92450000D03*
X142591667Y-73200000D03*
X144341667Y-94200000D03*
X118091667Y-97700000D03*
X112841667Y-92450000D03*
X132091667Y-104700000D03*
X140841667Y-78450000D03*
X116341667Y-99450000D03*
X140841667Y-73200000D03*
X125091667Y-73200000D03*
X123341667Y-73200000D03*
X132091667Y-101200000D03*
X130341667Y-104700000D03*
X110770000Y-80880000D03*
X116341667Y-102950000D03*
X116341667Y-92450000D03*
X133841667Y-73200000D03*
X146091667Y-87200000D03*
X132091667Y-102950000D03*
X118091667Y-99450000D03*
X112841667Y-99450000D03*
X137341667Y-73200000D03*
X142591667Y-90700000D03*
X128591667Y-104700000D03*
X114591667Y-102950000D03*
X130341667Y-87200000D03*
X130341667Y-106450000D03*
X144341667Y-95950000D03*
X130341667Y-101200000D03*
X112841667Y-106450000D03*
X147841667Y-74950000D03*
X118091667Y-102950000D03*
X146091667Y-94200000D03*
X126841667Y-106450000D03*
X111091667Y-106450000D03*
X146091667Y-83700000D03*
X110780000Y-76890000D03*
X147841667Y-78450000D03*
X132091667Y-95950000D03*
X125091667Y-76700000D03*
X128591667Y-73200000D03*
X123341667Y-80200000D03*
X133841667Y-106450000D03*
X110780000Y-74860000D03*
X112841667Y-102950000D03*
X128591667Y-101200000D03*
X147841667Y-85450000D03*
X118910000Y-80080000D03*
X130341667Y-73200000D03*
X130341667Y-102950000D03*
X126841667Y-76700000D03*
X111091667Y-102950000D03*
X132091667Y-97700000D03*
X111091667Y-104700000D03*
X128591667Y-94200000D03*
X142591667Y-76700000D03*
X126841667Y-104700000D03*
X135591667Y-76700000D03*
X140841667Y-94200000D03*
X139091667Y-73200000D03*
X130341667Y-76700000D03*
X147841667Y-81950000D03*
X123341667Y-92450000D03*
X112841667Y-104700000D03*
X121591667Y-73200000D03*
X137341667Y-102950000D03*
X147841667Y-87200000D03*
X144341667Y-73200000D03*
X118091667Y-101200000D03*
X110790000Y-72950000D03*
X110790000Y-78730000D03*
X133841667Y-102950000D03*
X116341667Y-101200000D03*
X128591667Y-102950000D03*
X111091667Y-99450000D03*
X121591667Y-92450000D03*
X121591667Y-101200000D03*
%TO.N,GND*%
X199085200Y-80238600D03*
X163322000Y-114909600D03*
X196596000Y-121158000D03*
X175564800Y-121158000D03*
X160528000Y-119126000D03*
X145542000Y-113055400D03*
X199059800Y-86182200D03*
X153035000Y-116586000D03*
X153543000Y-73787000D03*
X166979600Y-121158000D03*
X199034400Y-101219000D03*
X199059800Y-83261200D03*
X151587200Y-121158000D03*
X199009000Y-110185200D03*
X172567600Y-121158000D03*
X178562000Y-121158000D03*
X198983600Y-119227600D03*
X154584400Y-121158000D03*
X160909000Y-115163600D03*
X164211000Y-119126000D03*
X173634400Y-92583000D03*
X163982400Y-121158000D03*
X136601200Y-121158000D03*
X145592800Y-121158000D03*
X181457600Y-121158000D03*
X160985200Y-121158000D03*
X148590000Y-121158000D03*
X169570400Y-121158000D03*
X190449200Y-121158000D03*
X198983600Y-121158000D03*
X187452000Y-121158000D03*
X199034400Y-89204800D03*
%TO.N,/CAN_S*%
X155625800Y-80492600D03*
%TO.N,GND*%
X199009000Y-116205000D03*
X199059800Y-92202000D03*
X145770600Y-114808000D03*
X199034400Y-107238800D03*
X157988000Y-121158000D03*
X198983600Y-113207800D03*
X193598800Y-121158000D03*
X199059800Y-98196400D03*
X167132000Y-90525600D03*
X155702000Y-118999000D03*
X139598400Y-121158000D03*
X133604000Y-121158000D03*
X199059800Y-77241400D03*
X199059800Y-104216200D03*
X199034400Y-95224600D03*
X184454800Y-121158000D03*
X157911800Y-115112800D03*
X199085200Y-74218800D03*
X142595600Y-121158000D03*
X166446200Y-87198200D03*
%TO.N,+24V*%
X158623000Y-99187000D03*
%TO.N,+5V*%
X150876000Y-101727000D03*
X152781000Y-108939500D03*
D19*
X137232525Y-109292525D03*
D18*
X154051000Y-88773000D03*
%TO.N,5V_(ISO)*%
X142367000Y-89434500D03*
X137187500Y-93063500D03*
X122936000Y-98171000D03*
X137160000Y-99568000D03*
%TO.N,Net-(C37-Pad1)*%
X170461000Y-83359000D03*
X172720000Y-83058000D03*
%TO.N,Net-(C39-Pad1)*%
X121793000Y-103632000D03*
X126619000Y-103632000D03*
%TO.N,/isoSPI/ISO_SPI_P*%
X125476000Y-104013000D03*
%TO.N,/isoSPI/ISO_SPI_N*%
X122936000Y-104013000D03*
%TO.N,Net-(R10-Pad1)*%
X126941200Y-97639500D03*
%TO.N,Net-(R10-Pad2)*%
X126441200Y-100584000D03*
D19*
%TO.N,/GLV-*%
X177292000Y-84836000D03*
X171577000Y-94234000D03*
%TD*%
D20*
%TO.N,/CAN_S*%
X157048200Y-81915000D02*
X160782000Y-81915000D01*
X155625800Y-80492600D02*
X157048200Y-81915000D01*
D21*
%TO.N,/GLV-*%
X171577000Y-94234000D02*
X171577000Y-90551000D01*
X171577000Y-90551000D02*
X177292000Y-84836000D01*
%TD*%
%TA.AperFunction,Conductor*%
%TO.N,0V_(ISO)*%
G36*
X148405121Y-72537002D02*
G01*
X148451614Y-72590658D01*
X148463000Y-72643000D01*
X148463000Y-93419810D01*
X148442998Y-93487931D01*
X148426095Y-93508905D01*
X147483905Y-94451095D01*
X147421593Y-94485121D01*
X147394810Y-94488000D01*
X146558000Y-94488000D01*
X134021905Y-107024095D01*
X133959593Y-107058121D01*
X133932810Y-107061000D01*
X109754500Y-107061000D01*
X109686379Y-107040998D01*
X109639886Y-106987342D01*
X109628500Y-106935000D01*
X109628500Y-103632000D01*
X121383458Y-103632000D01*
X121403502Y-103758555D01*
X121461674Y-103872723D01*
X121552277Y-103963326D01*
X121666445Y-104021498D01*
X121793000Y-104041542D01*
X121919555Y-104021498D01*
X121936233Y-104013000D01*
X122526458Y-104013000D01*
X122546502Y-104139555D01*
X122604674Y-104253723D01*
X122695277Y-104344326D01*
X122809445Y-104402498D01*
X122936000Y-104422542D01*
X123062555Y-104402498D01*
X123176723Y-104344326D01*
X123267326Y-104253723D01*
X123325498Y-104139555D01*
X123345542Y-104013000D01*
X125066458Y-104013000D01*
X125086502Y-104139555D01*
X125144674Y-104253723D01*
X125235277Y-104344326D01*
X125349445Y-104402498D01*
X125476000Y-104422542D01*
X125602555Y-104402498D01*
X125716723Y-104344326D01*
X125807326Y-104253723D01*
X125865498Y-104139555D01*
X125885542Y-104013000D01*
X125865498Y-103886445D01*
X125807326Y-103772277D01*
X125716723Y-103681674D01*
X125619233Y-103632000D01*
X126209458Y-103632000D01*
X126229502Y-103758555D01*
X126287674Y-103872723D01*
X126378277Y-103963326D01*
X126492445Y-104021498D01*
X126619000Y-104041542D01*
X126745555Y-104021498D01*
X126859723Y-103963326D01*
X126950326Y-103872723D01*
X127008498Y-103758555D01*
X127028542Y-103632000D01*
X127008498Y-103505445D01*
X126950326Y-103391277D01*
X126859723Y-103300674D01*
X126745555Y-103242502D01*
X126619000Y-103222458D01*
X126492445Y-103242502D01*
X126378277Y-103300674D01*
X126287674Y-103391277D01*
X126229502Y-103505445D01*
X126209458Y-103632000D01*
X125619233Y-103632000D01*
X125602555Y-103623502D01*
X125476000Y-103603458D01*
X125349445Y-103623502D01*
X125235277Y-103681674D01*
X125144674Y-103772277D01*
X125086502Y-103886445D01*
X125066458Y-104013000D01*
X123345542Y-104013000D01*
X123325498Y-103886445D01*
X123267326Y-103772277D01*
X123176723Y-103681674D01*
X123062555Y-103623502D01*
X122936000Y-103603458D01*
X122809445Y-103623502D01*
X122695277Y-103681674D01*
X122604674Y-103772277D01*
X122546502Y-103886445D01*
X122526458Y-104013000D01*
X121936233Y-104013000D01*
X122033723Y-103963326D01*
X122124326Y-103872723D01*
X122182498Y-103758555D01*
X122202542Y-103632000D01*
X122182498Y-103505445D01*
X122124326Y-103391277D01*
X122033723Y-103300674D01*
X121919555Y-103242502D01*
X121793000Y-103222458D01*
X121666445Y-103242502D01*
X121552277Y-103300674D01*
X121461674Y-103391277D01*
X121403502Y-103505445D01*
X121383458Y-103632000D01*
X109628500Y-103632000D01*
X109628500Y-100992966D01*
X110938257Y-100992966D01*
X110968565Y-101127446D01*
X110971645Y-101137275D01*
X111051770Y-101334603D01*
X111056413Y-101343794D01*
X111167694Y-101525388D01*
X111173777Y-101533699D01*
X111313213Y-101694667D01*
X111320580Y-101701883D01*
X111484434Y-101837916D01*
X111492881Y-101843831D01*
X111676756Y-101951279D01*
X111686042Y-101955729D01*
X111885001Y-102031703D01*
X111894899Y-102034579D01*
X111998250Y-102055606D01*
X112012299Y-102054410D01*
X112016000Y-102044065D01*
X112016000Y-102043517D01*
X112524000Y-102043517D01*
X112528064Y-102057359D01*
X112541478Y-102059393D01*
X112548184Y-102058534D01*
X112558262Y-102056392D01*
X112762255Y-101995191D01*
X112771842Y-101991433D01*
X112963095Y-101897739D01*
X112971945Y-101892464D01*
X113145328Y-101768792D01*
X113153200Y-101762139D01*
X113304052Y-101611812D01*
X113310730Y-101603965D01*
X113438022Y-101426819D01*
X113439147Y-101427627D01*
X113486669Y-101383876D01*
X113556607Y-101371661D01*
X113622046Y-101399197D01*
X113649870Y-101431028D01*
X113707690Y-101525383D01*
X113713777Y-101533699D01*
X113853213Y-101694667D01*
X113860580Y-101701883D01*
X114024434Y-101837916D01*
X114032881Y-101843831D01*
X114216756Y-101951279D01*
X114226042Y-101955729D01*
X114425001Y-102031703D01*
X114434899Y-102034579D01*
X114538250Y-102055606D01*
X114552299Y-102054410D01*
X114556000Y-102044065D01*
X114556000Y-102043517D01*
X115064000Y-102043517D01*
X115068064Y-102057359D01*
X115081478Y-102059393D01*
X115088184Y-102058534D01*
X115098262Y-102056392D01*
X115302255Y-101995191D01*
X115311842Y-101991433D01*
X115503095Y-101897739D01*
X115511945Y-101892464D01*
X115685328Y-101768792D01*
X115693200Y-101762139D01*
X115844052Y-101611812D01*
X115850730Y-101603965D01*
X115975003Y-101431020D01*
X115980313Y-101422183D01*
X116074670Y-101231267D01*
X116078469Y-101221672D01*
X116140377Y-101017910D01*
X116142555Y-101007837D01*
X116143986Y-100996962D01*
X116141775Y-100982778D01*
X116128617Y-100979000D01*
X115082115Y-100979000D01*
X115066876Y-100983475D01*
X115065671Y-100984865D01*
X115064000Y-100992548D01*
X115064000Y-102043517D01*
X114556000Y-102043517D01*
X114556000Y-100997115D01*
X114551525Y-100981876D01*
X114550135Y-100980671D01*
X114542452Y-100979000D01*
X112542115Y-100979000D01*
X112526876Y-100983475D01*
X112525671Y-100984865D01*
X112524000Y-100992548D01*
X112524000Y-102043517D01*
X112016000Y-102043517D01*
X112016000Y-100997115D01*
X112011525Y-100981876D01*
X112010135Y-100980671D01*
X112002452Y-100979000D01*
X110953225Y-100979000D01*
X110939694Y-100982973D01*
X110938257Y-100992966D01*
X109628500Y-100992966D01*
X109628500Y-100584000D01*
X126031658Y-100584000D01*
X126051702Y-100710555D01*
X126109874Y-100824723D01*
X126200477Y-100915326D01*
X126314645Y-100973498D01*
X126441200Y-100993542D01*
X126567755Y-100973498D01*
X126681923Y-100915326D01*
X126772526Y-100824723D01*
X126830698Y-100710555D01*
X126850742Y-100584000D01*
X126830698Y-100457445D01*
X126772526Y-100343277D01*
X126681923Y-100252674D01*
X126567755Y-100194502D01*
X126441200Y-100174458D01*
X126314645Y-100194502D01*
X126200477Y-100252674D01*
X126109874Y-100343277D01*
X126051702Y-100457445D01*
X126031658Y-100584000D01*
X109628500Y-100584000D01*
X109628500Y-100459183D01*
X110934389Y-100459183D01*
X110935912Y-100467607D01*
X110948292Y-100471000D01*
X116128344Y-100471000D01*
X116141875Y-100467027D01*
X116143180Y-100457947D01*
X116101214Y-100290875D01*
X116097894Y-100281124D01*
X116012972Y-100085814D01*
X116008105Y-100076739D01*
X115892426Y-99897926D01*
X115886136Y-99889757D01*
X115742806Y-99732240D01*
X115735273Y-99725215D01*
X115568139Y-99593222D01*
X115559552Y-99587517D01*
X115524197Y-99568000D01*
X136750458Y-99568000D01*
X136770502Y-99694555D01*
X136828674Y-99808723D01*
X136919277Y-99899326D01*
X137033445Y-99957498D01*
X137160000Y-99977542D01*
X137286555Y-99957498D01*
X137400723Y-99899326D01*
X137491326Y-99808723D01*
X137549498Y-99694555D01*
X137569542Y-99568000D01*
X137549498Y-99441445D01*
X137491326Y-99327277D01*
X137400723Y-99236674D01*
X137286555Y-99178502D01*
X137160000Y-99158458D01*
X137033445Y-99178502D01*
X136919277Y-99236674D01*
X136828674Y-99327277D01*
X136770502Y-99441445D01*
X136750458Y-99568000D01*
X115524197Y-99568000D01*
X115373117Y-99484599D01*
X115363705Y-99480369D01*
X115162959Y-99409280D01*
X115152998Y-99406649D01*
X115096682Y-99396618D01*
X115033124Y-99364980D01*
X114996761Y-99304003D01*
X114999137Y-99233046D01*
X115039497Y-99174638D01*
X115084892Y-99151212D01*
X115137724Y-99136461D01*
X115175009Y-99126050D01*
X115180513Y-99123270D01*
X115345341Y-99040010D01*
X115345343Y-99040009D01*
X115350842Y-99037231D01*
X115506074Y-98915950D01*
X115510100Y-98911286D01*
X115510103Y-98911283D01*
X115630764Y-98771496D01*
X115630765Y-98771494D01*
X115634793Y-98766828D01*
X115732096Y-98595544D01*
X115794277Y-98408622D01*
X115818966Y-98213183D01*
X115819360Y-98185000D01*
X115817987Y-98171000D01*
X122526458Y-98171000D01*
X122546502Y-98297555D01*
X122604674Y-98411723D01*
X122695277Y-98502326D01*
X122809445Y-98560498D01*
X122936000Y-98580542D01*
X123062555Y-98560498D01*
X123176723Y-98502326D01*
X123267326Y-98411723D01*
X123325498Y-98297555D01*
X123345542Y-98171000D01*
X123325498Y-98044445D01*
X123267326Y-97930277D01*
X123176723Y-97839674D01*
X123062555Y-97781502D01*
X122936000Y-97761458D01*
X122809445Y-97781502D01*
X122695277Y-97839674D01*
X122604674Y-97930277D01*
X122546502Y-98044445D01*
X122526458Y-98171000D01*
X115817987Y-98171000D01*
X115800137Y-97988948D01*
X115743200Y-97800363D01*
X115724958Y-97766055D01*
X115657667Y-97639500D01*
X126531658Y-97639500D01*
X126551702Y-97766055D01*
X126609874Y-97880223D01*
X126700477Y-97970826D01*
X126814645Y-98028998D01*
X126941200Y-98049042D01*
X127067755Y-98028998D01*
X127181923Y-97970826D01*
X127272526Y-97880223D01*
X127330698Y-97766055D01*
X127350742Y-97639500D01*
X127330698Y-97512945D01*
X127272526Y-97398777D01*
X127181923Y-97308174D01*
X127067755Y-97250002D01*
X126941200Y-97229958D01*
X126814645Y-97250002D01*
X126700477Y-97308174D01*
X126609874Y-97398777D01*
X126551702Y-97512945D01*
X126531658Y-97639500D01*
X115657667Y-97639500D01*
X115653611Y-97631871D01*
X115653609Y-97631868D01*
X115650717Y-97626429D01*
X115526212Y-97473770D01*
X115427086Y-97391766D01*
X115379177Y-97352132D01*
X115379174Y-97352130D01*
X115374427Y-97348203D01*
X115201143Y-97254508D01*
X115012960Y-97196256D01*
X115006835Y-97195612D01*
X115006834Y-97195612D01*
X114823176Y-97176309D01*
X114823174Y-97176309D01*
X114817047Y-97175665D01*
X114735018Y-97183130D01*
X114627004Y-97192960D01*
X114627001Y-97192961D01*
X114620865Y-97193519D01*
X114614959Y-97195257D01*
X114614955Y-97195258D01*
X114497055Y-97229958D01*
X114431887Y-97249138D01*
X114426427Y-97251992D01*
X114426428Y-97251992D01*
X114262772Y-97337549D01*
X114262768Y-97337552D01*
X114257312Y-97340404D01*
X114103788Y-97463840D01*
X113977163Y-97614745D01*
X113970740Y-97626429D01*
X113889125Y-97774888D01*
X113882262Y-97787371D01*
X113880398Y-97793246D01*
X113880397Y-97793249D01*
X113876269Y-97806263D01*
X113822697Y-97975142D01*
X113800738Y-98170907D01*
X113801254Y-98177051D01*
X113812115Y-98306388D01*
X113817222Y-98367209D01*
X113831997Y-98418734D01*
X113855967Y-98502326D01*
X113871521Y-98556570D01*
X113961566Y-98731779D01*
X113965389Y-98736603D01*
X113965392Y-98736607D01*
X113993045Y-98771496D01*
X114083927Y-98886160D01*
X114088620Y-98890154D01*
X114088621Y-98890155D01*
X114113447Y-98911283D01*
X114233945Y-99013835D01*
X114239323Y-99016841D01*
X114239325Y-99016842D01*
X114353296Y-99080538D01*
X114405904Y-99109940D01*
X114411764Y-99111844D01*
X114534945Y-99151868D01*
X114593551Y-99191941D01*
X114621188Y-99257338D01*
X114609081Y-99327295D01*
X114561075Y-99379601D01*
X114515068Y-99396251D01*
X114499320Y-99398661D01*
X114489293Y-99401050D01*
X114286868Y-99467212D01*
X114277359Y-99471209D01*
X114088463Y-99569542D01*
X114079738Y-99575036D01*
X113909433Y-99702905D01*
X113901726Y-99709748D01*
X113754590Y-99863717D01*
X113748104Y-99871727D01*
X113643193Y-100025521D01*
X113588282Y-100070524D01*
X113517757Y-100078695D01*
X113454010Y-100047441D01*
X113433313Y-100022957D01*
X113352427Y-99897926D01*
X113346136Y-99889757D01*
X113202806Y-99732240D01*
X113195273Y-99725215D01*
X113028139Y-99593222D01*
X113019552Y-99587517D01*
X112833117Y-99484599D01*
X112823705Y-99480369D01*
X112622959Y-99409280D01*
X112612998Y-99406649D01*
X112556682Y-99396618D01*
X112493124Y-99364980D01*
X112456761Y-99304003D01*
X112459137Y-99233046D01*
X112499497Y-99174638D01*
X112544892Y-99151212D01*
X112597724Y-99136461D01*
X112635009Y-99126050D01*
X112640513Y-99123270D01*
X112805341Y-99040010D01*
X112805343Y-99040009D01*
X112810842Y-99037231D01*
X112966074Y-98915950D01*
X112970100Y-98911286D01*
X112970103Y-98911283D01*
X113090764Y-98771496D01*
X113090765Y-98771494D01*
X113094793Y-98766828D01*
X113192096Y-98595544D01*
X113254277Y-98408622D01*
X113278966Y-98213183D01*
X113279360Y-98185000D01*
X113260137Y-97988948D01*
X113203200Y-97800363D01*
X113184958Y-97766055D01*
X113113611Y-97631871D01*
X113113609Y-97631868D01*
X113110717Y-97626429D01*
X112986212Y-97473770D01*
X112887086Y-97391766D01*
X112839177Y-97352132D01*
X112839174Y-97352130D01*
X112834427Y-97348203D01*
X112661143Y-97254508D01*
X112472960Y-97196256D01*
X112466835Y-97195612D01*
X112466834Y-97195612D01*
X112283176Y-97176309D01*
X112283174Y-97176309D01*
X112277047Y-97175665D01*
X112195018Y-97183130D01*
X112087004Y-97192960D01*
X112087001Y-97192961D01*
X112080865Y-97193519D01*
X112074959Y-97195257D01*
X112074955Y-97195258D01*
X111957055Y-97229958D01*
X111891887Y-97249138D01*
X111886427Y-97251992D01*
X111886428Y-97251992D01*
X111722772Y-97337549D01*
X111722768Y-97337552D01*
X111717312Y-97340404D01*
X111563788Y-97463840D01*
X111437163Y-97614745D01*
X111430740Y-97626429D01*
X111349125Y-97774888D01*
X111342262Y-97787371D01*
X111340398Y-97793246D01*
X111340397Y-97793249D01*
X111336269Y-97806263D01*
X111282697Y-97975142D01*
X111260738Y-98170907D01*
X111261254Y-98177051D01*
X111272115Y-98306388D01*
X111277222Y-98367209D01*
X111291997Y-98418734D01*
X111315967Y-98502326D01*
X111331521Y-98556570D01*
X111421566Y-98731779D01*
X111425389Y-98736603D01*
X111425392Y-98736607D01*
X111453045Y-98771496D01*
X111543927Y-98886160D01*
X111548620Y-98890154D01*
X111548621Y-98890155D01*
X111573447Y-98911283D01*
X111693945Y-99013835D01*
X111699323Y-99016841D01*
X111699325Y-99016842D01*
X111813296Y-99080538D01*
X111865904Y-99109940D01*
X111871764Y-99111844D01*
X111994945Y-99151868D01*
X112053551Y-99191941D01*
X112081188Y-99257338D01*
X112069081Y-99327295D01*
X112021075Y-99379601D01*
X111975068Y-99396251D01*
X111959320Y-99398661D01*
X111949293Y-99401050D01*
X111746868Y-99467212D01*
X111737359Y-99471209D01*
X111548463Y-99569542D01*
X111539738Y-99575036D01*
X111369433Y-99702905D01*
X111361726Y-99709748D01*
X111214590Y-99863717D01*
X111208104Y-99871727D01*
X111088098Y-100047649D01*
X111083000Y-100056623D01*
X110993338Y-100249783D01*
X110989775Y-100259470D01*
X110934389Y-100459183D01*
X109628500Y-100459183D01*
X109628500Y-96510218D01*
X111265500Y-96510218D01*
X111274464Y-96555283D01*
X111308612Y-96606388D01*
X111359717Y-96640536D01*
X111404782Y-96649500D01*
X113135218Y-96649500D01*
X113180283Y-96640536D01*
X113231388Y-96606388D01*
X113265536Y-96555283D01*
X113274500Y-96510218D01*
X113274500Y-95630907D01*
X113800738Y-95630907D01*
X113817222Y-95827209D01*
X113871521Y-96016570D01*
X113961566Y-96191779D01*
X113965389Y-96196603D01*
X113965392Y-96196607D01*
X114068972Y-96327292D01*
X114083927Y-96346160D01*
X114088620Y-96350154D01*
X114088621Y-96350155D01*
X114113447Y-96371283D01*
X114233945Y-96473835D01*
X114239323Y-96476841D01*
X114239325Y-96476842D01*
X114309902Y-96516286D01*
X114405904Y-96569940D01*
X114593255Y-96630814D01*
X114788862Y-96654139D01*
X114794997Y-96653667D01*
X114794999Y-96653667D01*
X114854801Y-96649065D01*
X114985274Y-96639026D01*
X115175009Y-96586050D01*
X115180513Y-96583270D01*
X115345341Y-96500010D01*
X115345343Y-96500009D01*
X115350842Y-96497231D01*
X115506074Y-96375950D01*
X115510100Y-96371286D01*
X115510103Y-96371283D01*
X115630764Y-96231496D01*
X115630765Y-96231494D01*
X115634793Y-96226828D01*
X115732096Y-96055544D01*
X115794277Y-95868622D01*
X115818966Y-95673183D01*
X115819360Y-95645000D01*
X115800137Y-95448948D01*
X115743200Y-95260363D01*
X115733418Y-95241966D01*
X115653611Y-95091871D01*
X115653609Y-95091868D01*
X115650717Y-95086429D01*
X115526212Y-94933770D01*
X115426578Y-94851346D01*
X115379177Y-94812132D01*
X115379174Y-94812130D01*
X115374427Y-94808203D01*
X115201143Y-94714508D01*
X115012960Y-94656256D01*
X115006835Y-94655612D01*
X115006834Y-94655612D01*
X114823176Y-94636309D01*
X114823174Y-94636309D01*
X114817047Y-94635665D01*
X114750657Y-94641707D01*
X114627004Y-94652960D01*
X114627001Y-94652961D01*
X114620865Y-94653519D01*
X114614959Y-94655257D01*
X114614955Y-94655258D01*
X114518617Y-94683612D01*
X114431887Y-94709138D01*
X114426427Y-94711992D01*
X114426428Y-94711992D01*
X114262772Y-94797549D01*
X114262768Y-94797552D01*
X114257312Y-94800404D01*
X114103788Y-94923840D01*
X113977163Y-95074745D01*
X113882262Y-95247371D01*
X113880398Y-95253246D01*
X113880397Y-95253249D01*
X113876269Y-95266263D01*
X113822697Y-95435142D01*
X113800738Y-95630907D01*
X113274500Y-95630907D01*
X113274500Y-94779782D01*
X113265536Y-94734717D01*
X113231388Y-94683612D01*
X113180283Y-94649464D01*
X113135218Y-94640500D01*
X111404782Y-94640500D01*
X111359717Y-94649464D01*
X111308612Y-94683612D01*
X111274464Y-94734717D01*
X111265500Y-94779782D01*
X111265500Y-96510218D01*
X109628500Y-96510218D01*
X109628500Y-93853000D01*
X115033458Y-93853000D01*
X115035009Y-93862793D01*
X115042836Y-93912213D01*
X115053502Y-93979555D01*
X115111674Y-94093723D01*
X115202277Y-94184326D01*
X115316445Y-94242498D01*
X115443000Y-94262542D01*
X115569555Y-94242498D01*
X115683723Y-94184326D01*
X115774326Y-94093723D01*
X115832271Y-93980000D01*
X133448458Y-93980000D01*
X133450009Y-93989793D01*
X133451220Y-93997440D01*
X133468502Y-94106555D01*
X133526674Y-94220723D01*
X133617277Y-94311326D01*
X133731445Y-94369498D01*
X133858000Y-94389542D01*
X133984555Y-94369498D01*
X134098723Y-94311326D01*
X134189326Y-94220723D01*
X134247498Y-94106555D01*
X134249049Y-94096762D01*
X134252114Y-94087329D01*
X134254815Y-94088207D01*
X134278602Y-94038027D01*
X134338869Y-94000499D01*
X134371764Y-93996009D01*
X134380802Y-93997440D01*
X134507357Y-93977396D01*
X134621525Y-93919224D01*
X134712128Y-93828621D01*
X134770300Y-93714453D01*
X134790344Y-93587898D01*
X134787828Y-93572009D01*
X134771851Y-93471136D01*
X134770300Y-93461343D01*
X134712128Y-93347175D01*
X134621525Y-93256572D01*
X134507357Y-93198400D01*
X134380802Y-93178356D01*
X134254247Y-93198400D01*
X134140079Y-93256572D01*
X134049476Y-93347175D01*
X133991304Y-93461343D01*
X133989753Y-93471136D01*
X133986688Y-93480569D01*
X133983987Y-93479691D01*
X133960200Y-93529871D01*
X133899933Y-93567399D01*
X133867038Y-93571889D01*
X133858000Y-93570458D01*
X133731445Y-93590502D01*
X133617277Y-93648674D01*
X133526674Y-93739277D01*
X133468502Y-93853445D01*
X133466951Y-93863238D01*
X133450080Y-93969762D01*
X133448458Y-93980000D01*
X115832271Y-93980000D01*
X115832498Y-93979555D01*
X115843164Y-93912213D01*
X115850991Y-93862793D01*
X115852542Y-93853000D01*
X115832498Y-93726445D01*
X115774326Y-93612277D01*
X115683723Y-93521674D01*
X115569555Y-93463502D01*
X115443000Y-93443458D01*
X115316445Y-93463502D01*
X115202277Y-93521674D01*
X115111674Y-93612277D01*
X115053502Y-93726445D01*
X115033458Y-93853000D01*
X109628500Y-93853000D01*
X109628500Y-92710000D01*
X119875458Y-92710000D01*
X119895502Y-92836555D01*
X119953674Y-92950723D01*
X120044277Y-93041326D01*
X120158445Y-93099498D01*
X120285000Y-93119542D01*
X120411555Y-93099498D01*
X120482204Y-93063500D01*
X136777958Y-93063500D01*
X136798002Y-93190055D01*
X136856174Y-93304223D01*
X136946777Y-93394826D01*
X137060945Y-93452998D01*
X137187500Y-93473042D01*
X137314055Y-93452998D01*
X137428223Y-93394826D01*
X137518826Y-93304223D01*
X137576998Y-93190055D01*
X137597042Y-93063500D01*
X137576998Y-92936945D01*
X137518826Y-92822777D01*
X137428223Y-92732174D01*
X137314055Y-92674002D01*
X137187500Y-92653958D01*
X137060945Y-92674002D01*
X136946777Y-92732174D01*
X136856174Y-92822777D01*
X136798002Y-92936945D01*
X136777958Y-93063500D01*
X120482204Y-93063500D01*
X120525723Y-93041326D01*
X120616326Y-92950723D01*
X120674498Y-92836555D01*
X120694542Y-92710000D01*
X120674498Y-92583445D01*
X120616326Y-92469277D01*
X120525723Y-92378674D01*
X120411555Y-92320502D01*
X120285000Y-92300458D01*
X120158445Y-92320502D01*
X120044277Y-92378674D01*
X119953674Y-92469277D01*
X119895502Y-92583445D01*
X119875458Y-92710000D01*
X109628500Y-92710000D01*
X109628500Y-91059000D01*
X119605458Y-91059000D01*
X119625502Y-91185555D01*
X119683674Y-91299723D01*
X119774277Y-91390326D01*
X119888445Y-91448498D01*
X120015000Y-91468542D01*
X120141555Y-91448498D01*
X120255723Y-91390326D01*
X120346326Y-91299723D01*
X120404498Y-91185555D01*
X120424542Y-91059000D01*
X120422921Y-91048762D01*
X120406049Y-90942238D01*
X120404498Y-90932445D01*
X120404271Y-90932000D01*
X128495458Y-90932000D01*
X128497009Y-90941793D01*
X128505480Y-90995278D01*
X128515502Y-91058555D01*
X128573674Y-91172723D01*
X128664277Y-91263326D01*
X128778445Y-91321498D01*
X128905000Y-91341542D01*
X129031555Y-91321498D01*
X129145723Y-91263326D01*
X129236326Y-91172723D01*
X129294498Y-91058555D01*
X129304520Y-90995278D01*
X129312991Y-90941793D01*
X129314542Y-90932000D01*
X129294498Y-90805445D01*
X129236326Y-90691277D01*
X129145723Y-90600674D01*
X129031555Y-90542502D01*
X128905000Y-90522458D01*
X128778445Y-90542502D01*
X128664277Y-90600674D01*
X128573674Y-90691277D01*
X128515502Y-90805445D01*
X128495458Y-90932000D01*
X120404271Y-90932000D01*
X120346326Y-90818277D01*
X120255723Y-90727674D01*
X120141555Y-90669502D01*
X120015000Y-90649458D01*
X119888445Y-90669502D01*
X119774277Y-90727674D01*
X119683674Y-90818277D01*
X119625502Y-90932445D01*
X119623951Y-90942238D01*
X119607080Y-91048762D01*
X119605458Y-91059000D01*
X109628500Y-91059000D01*
X109628500Y-89408000D01*
X133194458Y-89408000D01*
X133214502Y-89534555D01*
X133272674Y-89648723D01*
X133363277Y-89739326D01*
X133477445Y-89797498D01*
X133604000Y-89817542D01*
X133730555Y-89797498D01*
X133844723Y-89739326D01*
X133935326Y-89648723D01*
X133993498Y-89534555D01*
X134009345Y-89434500D01*
X141957458Y-89434500D01*
X141977502Y-89561055D01*
X142035674Y-89675223D01*
X142126277Y-89765826D01*
X142240445Y-89823998D01*
X142367000Y-89844042D01*
X142493555Y-89823998D01*
X142607723Y-89765826D01*
X142698326Y-89675223D01*
X142756498Y-89561055D01*
X142776542Y-89434500D01*
X142756498Y-89307945D01*
X142698326Y-89193777D01*
X142607723Y-89103174D01*
X142493555Y-89045002D01*
X142367000Y-89024958D01*
X142240445Y-89045002D01*
X142126277Y-89103174D01*
X142035674Y-89193777D01*
X141977502Y-89307945D01*
X141957458Y-89434500D01*
X134009345Y-89434500D01*
X134013542Y-89408000D01*
X133993498Y-89281445D01*
X133935326Y-89167277D01*
X133844723Y-89076674D01*
X133730555Y-89018502D01*
X133604000Y-88998458D01*
X133477445Y-89018502D01*
X133363277Y-89076674D01*
X133272674Y-89167277D01*
X133214502Y-89281445D01*
X133194458Y-89408000D01*
X109628500Y-89408000D01*
X109628500Y-86106000D01*
X123542458Y-86106000D01*
X123562502Y-86232555D01*
X123620674Y-86346723D01*
X123711277Y-86437326D01*
X123825445Y-86495498D01*
X123952000Y-86515542D01*
X124078555Y-86495498D01*
X124192723Y-86437326D01*
X124283326Y-86346723D01*
X124341498Y-86232555D01*
X124361542Y-86106000D01*
X124341498Y-85979445D01*
X124283326Y-85865277D01*
X124192723Y-85774674D01*
X124078555Y-85716502D01*
X123952000Y-85696458D01*
X123825445Y-85716502D01*
X123711277Y-85774674D01*
X123620674Y-85865277D01*
X123562502Y-85979445D01*
X123542458Y-86106000D01*
X109628500Y-86106000D01*
X109628500Y-83947000D01*
X123542458Y-83947000D01*
X123562502Y-84073555D01*
X123620674Y-84187723D01*
X123711277Y-84278326D01*
X123825445Y-84336498D01*
X123952000Y-84356542D01*
X124078555Y-84336498D01*
X124192723Y-84278326D01*
X124283326Y-84187723D01*
X124341498Y-84073555D01*
X124361542Y-83947000D01*
X124341498Y-83820445D01*
X124283326Y-83706277D01*
X124192723Y-83615674D01*
X124078555Y-83557502D01*
X123952000Y-83537458D01*
X123825445Y-83557502D01*
X123711277Y-83615674D01*
X123620674Y-83706277D01*
X123562502Y-83820445D01*
X123542458Y-83947000D01*
X109628500Y-83947000D01*
X109628500Y-82407400D01*
X128765058Y-82407400D01*
X128785102Y-82533955D01*
X128843274Y-82648123D01*
X128933877Y-82738726D01*
X129048045Y-82796898D01*
X129174600Y-82816942D01*
X129301155Y-82796898D01*
X129415323Y-82738726D01*
X129505926Y-82648123D01*
X129564098Y-82533955D01*
X129584142Y-82407400D01*
X129564098Y-82280845D01*
X129505926Y-82166677D01*
X129415323Y-82076074D01*
X129301155Y-82017902D01*
X129205260Y-82002714D01*
X129184393Y-81999409D01*
X129174600Y-81997858D01*
X129164807Y-81999409D01*
X129143940Y-82002714D01*
X129048045Y-82017902D01*
X128933877Y-82076074D01*
X128843274Y-82166677D01*
X128785102Y-82280845D01*
X128765058Y-82407400D01*
X109628500Y-82407400D01*
X109628500Y-81915000D01*
X126031658Y-81915000D01*
X126033209Y-81924793D01*
X126037497Y-81951867D01*
X126051702Y-82041555D01*
X126109874Y-82155723D01*
X126200477Y-82246326D01*
X126314645Y-82304498D01*
X126441200Y-82324542D01*
X126567755Y-82304498D01*
X126681923Y-82246326D01*
X126772526Y-82155723D01*
X126830698Y-82041555D01*
X126844903Y-81951867D01*
X126849191Y-81924793D01*
X126850742Y-81915000D01*
X126830698Y-81788445D01*
X126772526Y-81674277D01*
X126681923Y-81583674D01*
X126567755Y-81525502D01*
X126441200Y-81505458D01*
X126314645Y-81525502D01*
X126200477Y-81583674D01*
X126109874Y-81674277D01*
X126051702Y-81788445D01*
X126031658Y-81915000D01*
X109628500Y-81915000D01*
X109628500Y-81407000D01*
X124304458Y-81407000D01*
X124324502Y-81533555D01*
X124382674Y-81647723D01*
X124473277Y-81738326D01*
X124587445Y-81796498D01*
X124714000Y-81816542D01*
X124840555Y-81796498D01*
X124954723Y-81738326D01*
X125045326Y-81647723D01*
X125103498Y-81533555D01*
X125123542Y-81407000D01*
X125103498Y-81280445D01*
X125045326Y-81166277D01*
X124954723Y-81075674D01*
X124840555Y-81017502D01*
X124714000Y-80997458D01*
X124587445Y-81017502D01*
X124473277Y-81075674D01*
X124382674Y-81166277D01*
X124324502Y-81280445D01*
X124304458Y-81407000D01*
X109628500Y-81407000D01*
X109628500Y-80772000D01*
X130019458Y-80772000D01*
X130039502Y-80898555D01*
X130097674Y-81012723D01*
X130188277Y-81103326D01*
X130302445Y-81161498D01*
X130429000Y-81181542D01*
X130555555Y-81161498D01*
X130669723Y-81103326D01*
X130760326Y-81012723D01*
X130806889Y-80921339D01*
X130855636Y-80869725D01*
X130924551Y-80852659D01*
X130991753Y-80875560D01*
X131035905Y-80931157D01*
X131043604Y-80958833D01*
X131055502Y-81033955D01*
X131113674Y-81148123D01*
X131204277Y-81238726D01*
X131318445Y-81296898D01*
X131445000Y-81316942D01*
X131571555Y-81296898D01*
X131685723Y-81238726D01*
X131776326Y-81148123D01*
X131834498Y-81033955D01*
X131854542Y-80907400D01*
X131834498Y-80780845D01*
X131776326Y-80666677D01*
X131685723Y-80576074D01*
X131571555Y-80517902D01*
X131445000Y-80497858D01*
X131318445Y-80517902D01*
X131204277Y-80576074D01*
X131113674Y-80666677D01*
X131068867Y-80754616D01*
X131067112Y-80758060D01*
X131018364Y-80809675D01*
X130949449Y-80826741D01*
X130882247Y-80803840D01*
X130838095Y-80748243D01*
X130830396Y-80720567D01*
X130820049Y-80655238D01*
X130818498Y-80645445D01*
X130760326Y-80531277D01*
X130669723Y-80440674D01*
X130555555Y-80382502D01*
X130429000Y-80362458D01*
X130302445Y-80382502D01*
X130188277Y-80440674D01*
X130097674Y-80531277D01*
X130039502Y-80645445D01*
X130037951Y-80655238D01*
X130025493Y-80733899D01*
X130019458Y-80772000D01*
X109628500Y-80772000D01*
X109628500Y-80348200D01*
X125503158Y-80348200D01*
X125523202Y-80474755D01*
X125581374Y-80588923D01*
X125671977Y-80679526D01*
X125786145Y-80737698D01*
X125912700Y-80757742D01*
X126039255Y-80737698D01*
X126153423Y-80679526D01*
X126244026Y-80588923D01*
X126302198Y-80474755D01*
X126322242Y-80348200D01*
X126302198Y-80221645D01*
X126244026Y-80107477D01*
X126153423Y-80016874D01*
X126039255Y-79958702D01*
X125912700Y-79938658D01*
X125786145Y-79958702D01*
X125671977Y-80016874D01*
X125581374Y-80107477D01*
X125523202Y-80221645D01*
X125503158Y-80348200D01*
X109628500Y-80348200D01*
X109628500Y-79311500D01*
X129828958Y-79311500D01*
X129849002Y-79438055D01*
X129907174Y-79552223D01*
X129997777Y-79642826D01*
X130111945Y-79700998D01*
X130238500Y-79721042D01*
X130365055Y-79700998D01*
X130479223Y-79642826D01*
X130569826Y-79552223D01*
X130627998Y-79438055D01*
X130648042Y-79311500D01*
X130627998Y-79184945D01*
X130569826Y-79070777D01*
X130479223Y-78980174D01*
X130365055Y-78922002D01*
X130238500Y-78901958D01*
X130111945Y-78922002D01*
X129997777Y-78980174D01*
X129907174Y-79070777D01*
X129849002Y-79184945D01*
X129828958Y-79311500D01*
X109628500Y-79311500D01*
X109628500Y-78740000D01*
X121002458Y-78740000D01*
X121022502Y-78866555D01*
X121080674Y-78980723D01*
X121171277Y-79071326D01*
X121285445Y-79129498D01*
X121412000Y-79149542D01*
X121538555Y-79129498D01*
X121652723Y-79071326D01*
X121743326Y-78980723D01*
X121801498Y-78866555D01*
X121821542Y-78740000D01*
X121801498Y-78613445D01*
X121743326Y-78499277D01*
X121652723Y-78408674D01*
X121538555Y-78350502D01*
X121412000Y-78330458D01*
X121285445Y-78350502D01*
X121171277Y-78408674D01*
X121080674Y-78499277D01*
X121022502Y-78613445D01*
X121002458Y-78740000D01*
X109628500Y-78740000D01*
X109628500Y-78232000D01*
X132686458Y-78232000D01*
X132706502Y-78358555D01*
X132764674Y-78472723D01*
X132855277Y-78563326D01*
X132969445Y-78621498D01*
X133096000Y-78641542D01*
X133222555Y-78621498D01*
X133336723Y-78563326D01*
X133414049Y-78486000D01*
X142211458Y-78486000D01*
X142231502Y-78612555D01*
X142289674Y-78726723D01*
X142380277Y-78817326D01*
X142494445Y-78875498D01*
X142621000Y-78895542D01*
X142747555Y-78875498D01*
X142861723Y-78817326D01*
X142952326Y-78726723D01*
X143010498Y-78612555D01*
X143030542Y-78486000D01*
X143010498Y-78359445D01*
X142952326Y-78245277D01*
X142861723Y-78154674D01*
X142747555Y-78096502D01*
X142621000Y-78076458D01*
X142494445Y-78096502D01*
X142380277Y-78154674D01*
X142289674Y-78245277D01*
X142231502Y-78359445D01*
X142211458Y-78486000D01*
X133414049Y-78486000D01*
X133427326Y-78472723D01*
X133485498Y-78358555D01*
X133505542Y-78232000D01*
X133485498Y-78105445D01*
X133427326Y-77991277D01*
X133336723Y-77900674D01*
X133222555Y-77842502D01*
X133096000Y-77822458D01*
X132969445Y-77842502D01*
X132855277Y-77900674D01*
X132764674Y-77991277D01*
X132706502Y-78105445D01*
X132686458Y-78232000D01*
X109628500Y-78232000D01*
X109628500Y-75162366D01*
X123014657Y-75162366D01*
X123044965Y-75296846D01*
X123048045Y-75306675D01*
X123128170Y-75504003D01*
X123132813Y-75513194D01*
X123244094Y-75694788D01*
X123250177Y-75703099D01*
X123389613Y-75864067D01*
X123396980Y-75871283D01*
X123560834Y-76007316D01*
X123569281Y-76013231D01*
X123753156Y-76120679D01*
X123762442Y-76125129D01*
X123961401Y-76201103D01*
X123971299Y-76203979D01*
X124074650Y-76225006D01*
X124088699Y-76223810D01*
X124092400Y-76213465D01*
X124092400Y-76212917D01*
X124600400Y-76212917D01*
X124604464Y-76226759D01*
X124617878Y-76228793D01*
X124624584Y-76227934D01*
X124634662Y-76225792D01*
X124838655Y-76164591D01*
X124848242Y-76160833D01*
X125039495Y-76067139D01*
X125048345Y-76061864D01*
X125221728Y-75938192D01*
X125229600Y-75931539D01*
X125380452Y-75781212D01*
X125387130Y-75773365D01*
X125511403Y-75600420D01*
X125516713Y-75591583D01*
X125611070Y-75400667D01*
X125614869Y-75391072D01*
X125676775Y-75187318D01*
X125677632Y-75183352D01*
X125711577Y-75120996D01*
X125773846Y-75086891D01*
X125844668Y-75091865D01*
X125901558Y-75134339D01*
X125921906Y-75175246D01*
X125947921Y-75265970D01*
X125970707Y-75310307D01*
X126012215Y-75391072D01*
X126037966Y-75441179D01*
X126041789Y-75446003D01*
X126041792Y-75446007D01*
X126095044Y-75513194D01*
X126160327Y-75595560D01*
X126165020Y-75599554D01*
X126165021Y-75599555D01*
X126189847Y-75620683D01*
X126310345Y-75723235D01*
X126315723Y-75726241D01*
X126315725Y-75726242D01*
X126400042Y-75773365D01*
X126482304Y-75819340D01*
X126669655Y-75880214D01*
X126865262Y-75903539D01*
X126871397Y-75903067D01*
X126871399Y-75903067D01*
X126931201Y-75898465D01*
X127061674Y-75888426D01*
X127251409Y-75835450D01*
X127256913Y-75832670D01*
X127421741Y-75749410D01*
X127421743Y-75749409D01*
X127427242Y-75746631D01*
X127582474Y-75625350D01*
X127586500Y-75620686D01*
X127586503Y-75620683D01*
X127707164Y-75480896D01*
X127707165Y-75480894D01*
X127711193Y-75476228D01*
X127808496Y-75304944D01*
X127870677Y-75118022D01*
X127895366Y-74922583D01*
X127895760Y-74894400D01*
X127894378Y-74880307D01*
X128417138Y-74880307D01*
X128433622Y-75076609D01*
X128487921Y-75265970D01*
X128510707Y-75310307D01*
X128552215Y-75391072D01*
X128577966Y-75441179D01*
X128581789Y-75446003D01*
X128581792Y-75446007D01*
X128635044Y-75513194D01*
X128700327Y-75595560D01*
X128705020Y-75599554D01*
X128705021Y-75599555D01*
X128729847Y-75620683D01*
X128850345Y-75723235D01*
X128855723Y-75726241D01*
X128855725Y-75726242D01*
X128940042Y-75773365D01*
X129022304Y-75819340D01*
X129209655Y-75880214D01*
X129405262Y-75903539D01*
X129411397Y-75903067D01*
X129411399Y-75903067D01*
X129471201Y-75898465D01*
X129601674Y-75888426D01*
X129791409Y-75835450D01*
X129796913Y-75832670D01*
X129941532Y-75759618D01*
X130961900Y-75759618D01*
X130970864Y-75804683D01*
X131005012Y-75855788D01*
X131056117Y-75889936D01*
X131101182Y-75898900D01*
X132831618Y-75898900D01*
X132876683Y-75889936D01*
X132927788Y-75855788D01*
X132961936Y-75804683D01*
X132970900Y-75759618D01*
X132970900Y-74029182D01*
X132961936Y-73984117D01*
X132927788Y-73933012D01*
X132876683Y-73898864D01*
X132831618Y-73889900D01*
X131101182Y-73889900D01*
X131056117Y-73898864D01*
X131005012Y-73933012D01*
X130970864Y-73984117D01*
X130961900Y-74029182D01*
X130961900Y-75759618D01*
X129941532Y-75759618D01*
X129961741Y-75749410D01*
X129961743Y-75749409D01*
X129967242Y-75746631D01*
X130122474Y-75625350D01*
X130126500Y-75620686D01*
X130126503Y-75620683D01*
X130247164Y-75480896D01*
X130247165Y-75480894D01*
X130251193Y-75476228D01*
X130348496Y-75304944D01*
X130410677Y-75118022D01*
X130435366Y-74922583D01*
X130435760Y-74894400D01*
X130416537Y-74698348D01*
X130359600Y-74509763D01*
X130316588Y-74428870D01*
X130270011Y-74341271D01*
X130270009Y-74341268D01*
X130267117Y-74335829D01*
X130142612Y-74183170D01*
X130077294Y-74129134D01*
X129995577Y-74061532D01*
X129995574Y-74061530D01*
X129990827Y-74057603D01*
X129817543Y-73963908D01*
X129629360Y-73905656D01*
X129623235Y-73905012D01*
X129623234Y-73905012D01*
X129439576Y-73885709D01*
X129439574Y-73885709D01*
X129433447Y-73885065D01*
X129367057Y-73891107D01*
X129243404Y-73902360D01*
X129243401Y-73902361D01*
X129237265Y-73902919D01*
X129231359Y-73904657D01*
X129231355Y-73904658D01*
X129135017Y-73933012D01*
X129048287Y-73958538D01*
X129042827Y-73961392D01*
X129042828Y-73961392D01*
X128879172Y-74046949D01*
X128879168Y-74046952D01*
X128873712Y-74049804D01*
X128720188Y-74173240D01*
X128593563Y-74324145D01*
X128587140Y-74335829D01*
X128518726Y-74460275D01*
X128498662Y-74496771D01*
X128496798Y-74502646D01*
X128496797Y-74502649D01*
X128492669Y-74515663D01*
X128439097Y-74684542D01*
X128417138Y-74880307D01*
X127894378Y-74880307D01*
X127876537Y-74698348D01*
X127819600Y-74509763D01*
X127776588Y-74428870D01*
X127730011Y-74341271D01*
X127730009Y-74341268D01*
X127727117Y-74335829D01*
X127602612Y-74183170D01*
X127537294Y-74129134D01*
X127455577Y-74061532D01*
X127455574Y-74061530D01*
X127450827Y-74057603D01*
X127277543Y-73963908D01*
X127089360Y-73905656D01*
X127083235Y-73905012D01*
X127083234Y-73905012D01*
X126899576Y-73885709D01*
X126899574Y-73885709D01*
X126893447Y-73885065D01*
X126827057Y-73891107D01*
X126703404Y-73902360D01*
X126703401Y-73902361D01*
X126697265Y-73902919D01*
X126691359Y-73904657D01*
X126691355Y-73904658D01*
X126595017Y-73933012D01*
X126508287Y-73958538D01*
X126502827Y-73961392D01*
X126502828Y-73961392D01*
X126339172Y-74046949D01*
X126339168Y-74046952D01*
X126333712Y-74049804D01*
X126180188Y-74173240D01*
X126053563Y-74324145D01*
X126047140Y-74335829D01*
X125978726Y-74460275D01*
X125958662Y-74496771D01*
X125956798Y-74502646D01*
X125956797Y-74502649D01*
X125918795Y-74622445D01*
X125879131Y-74681329D01*
X125813929Y-74709421D01*
X125743889Y-74697803D01*
X125691249Y-74650163D01*
X125676489Y-74615042D01*
X125637614Y-74460275D01*
X125634294Y-74450524D01*
X125549372Y-74255214D01*
X125544505Y-74246139D01*
X125428826Y-74067326D01*
X125422536Y-74059157D01*
X125279206Y-73901640D01*
X125271673Y-73894615D01*
X125104539Y-73762622D01*
X125095952Y-73756917D01*
X124909517Y-73653999D01*
X124900105Y-73649769D01*
X124699359Y-73578680D01*
X124689388Y-73576046D01*
X124618237Y-73563372D01*
X124604940Y-73564832D01*
X124600400Y-73579389D01*
X124600400Y-76212917D01*
X124092400Y-76212917D01*
X124092400Y-75166515D01*
X124087925Y-75151276D01*
X124086535Y-75150071D01*
X124078852Y-75148400D01*
X123029625Y-75148400D01*
X123016094Y-75152373D01*
X123014657Y-75162366D01*
X109628500Y-75162366D01*
X109628500Y-74628583D01*
X123010789Y-74628583D01*
X123012312Y-74637007D01*
X123024692Y-74640400D01*
X124074285Y-74640400D01*
X124089524Y-74635925D01*
X124090729Y-74634535D01*
X124092400Y-74626852D01*
X124092400Y-73577502D01*
X124088482Y-73564158D01*
X124074206Y-73562171D01*
X124035724Y-73568060D01*
X124025688Y-73570451D01*
X123823268Y-73636612D01*
X123813759Y-73640609D01*
X123624863Y-73738942D01*
X123616138Y-73744436D01*
X123445833Y-73872305D01*
X123438126Y-73879148D01*
X123290990Y-74033117D01*
X123284504Y-74041127D01*
X123164498Y-74217049D01*
X123159400Y-74226023D01*
X123069738Y-74419183D01*
X123066175Y-74428870D01*
X123010789Y-74628583D01*
X109628500Y-74628583D01*
X109628500Y-72643000D01*
X109648502Y-72574879D01*
X109702158Y-72528386D01*
X109754500Y-72517000D01*
X148337000Y-72517000D01*
X148405121Y-72537002D01*
G37*
%TD.AperFunction*%
%TD*%
%TA.AperFunction,Conductor*%
%TO.N,GND*%
G36*
X199458621Y-72791502D02*
G01*
X199505114Y-72845158D01*
X199516500Y-72897500D01*
X199516500Y-121539500D01*
X199496498Y-121607621D01*
X199442842Y-121654114D01*
X199390500Y-121665500D01*
X131444000Y-121665500D01*
X131375879Y-121645498D01*
X131329386Y-121591842D01*
X131318000Y-121539500D01*
X131318000Y-118220277D01*
X166783009Y-118220277D01*
X166808625Y-118488769D01*
X166809710Y-118493203D01*
X166809711Y-118493209D01*
X166871645Y-118746312D01*
X166872731Y-118750750D01*
X166973985Y-119000733D01*
X167110265Y-119233482D01*
X167113118Y-119237049D01*
X167270756Y-119434165D01*
X167278716Y-119444119D01*
X167475809Y-119628234D01*
X167697416Y-119781968D01*
X167701499Y-119783999D01*
X167701502Y-119784001D01*
X167817013Y-119841466D01*
X167938894Y-119902101D01*
X167943228Y-119903522D01*
X167943231Y-119903523D01*
X168190853Y-119984698D01*
X168190859Y-119984699D01*
X168195186Y-119986118D01*
X168199677Y-119986898D01*
X168199678Y-119986898D01*
X168457140Y-120031601D01*
X168457148Y-120031602D01*
X168460921Y-120032257D01*
X168464758Y-120032448D01*
X168544578Y-120036422D01*
X168544586Y-120036422D01*
X168546149Y-120036500D01*
X169314512Y-120036500D01*
X169316780Y-120036335D01*
X169316792Y-120036335D01*
X169452363Y-120026498D01*
X169515004Y-120021953D01*
X169519459Y-120020969D01*
X169519462Y-120020969D01*
X169773912Y-119964791D01*
X169773916Y-119964790D01*
X169778372Y-119963806D01*
X169904480Y-119916028D01*
X170026318Y-119869868D01*
X170026321Y-119869867D01*
X170030588Y-119868250D01*
X170266368Y-119737286D01*
X170443707Y-119601945D01*
X170477141Y-119576429D01*
X170477142Y-119576428D01*
X170480773Y-119573657D01*
X170669312Y-119380792D01*
X170828034Y-119162730D01*
X170911190Y-119004676D01*
X170951490Y-118928079D01*
X170951493Y-118928073D01*
X170953615Y-118924039D01*
X171016378Y-118746312D01*
X171041902Y-118674033D01*
X171041902Y-118674032D01*
X171043425Y-118669720D01*
X171095581Y-118405100D01*
X171104782Y-118220277D01*
X172283009Y-118220277D01*
X172308625Y-118488769D01*
X172309710Y-118493203D01*
X172309711Y-118493209D01*
X172371645Y-118746312D01*
X172372731Y-118750750D01*
X172473985Y-119000733D01*
X172610265Y-119233482D01*
X172613118Y-119237049D01*
X172770756Y-119434165D01*
X172778716Y-119444119D01*
X172975809Y-119628234D01*
X173197416Y-119781968D01*
X173201499Y-119783999D01*
X173201502Y-119784001D01*
X173317013Y-119841466D01*
X173438894Y-119902101D01*
X173443228Y-119903522D01*
X173443231Y-119903523D01*
X173690853Y-119984698D01*
X173690859Y-119984699D01*
X173695186Y-119986118D01*
X173699677Y-119986898D01*
X173699678Y-119986898D01*
X173957140Y-120031601D01*
X173957148Y-120031602D01*
X173960921Y-120032257D01*
X173964758Y-120032448D01*
X174044578Y-120036422D01*
X174044586Y-120036422D01*
X174046149Y-120036500D01*
X174814512Y-120036500D01*
X174816780Y-120036335D01*
X174816792Y-120036335D01*
X174952363Y-120026498D01*
X175015004Y-120021953D01*
X175019459Y-120020969D01*
X175019462Y-120020969D01*
X175273912Y-119964791D01*
X175273916Y-119964790D01*
X175278372Y-119963806D01*
X175404480Y-119916028D01*
X175526318Y-119869868D01*
X175526321Y-119869867D01*
X175530588Y-119868250D01*
X175766368Y-119737286D01*
X175943707Y-119601945D01*
X175977141Y-119576429D01*
X175977142Y-119576428D01*
X175980773Y-119573657D01*
X176169312Y-119380792D01*
X176207447Y-119328400D01*
X179757500Y-119328400D01*
X179768474Y-119434165D01*
X179824450Y-119601945D01*
X179917522Y-119752348D01*
X180042697Y-119877305D01*
X180048927Y-119881145D01*
X180048928Y-119881146D01*
X180186090Y-119965694D01*
X180193262Y-119970115D01*
X180273005Y-119996564D01*
X180354611Y-120023632D01*
X180354613Y-120023632D01*
X180361139Y-120025797D01*
X180367975Y-120026497D01*
X180367978Y-120026498D01*
X180411031Y-120030909D01*
X180465600Y-120036500D01*
X183366400Y-120036500D01*
X183369646Y-120036163D01*
X183369650Y-120036163D01*
X183465307Y-120026238D01*
X183465311Y-120026237D01*
X183472165Y-120025526D01*
X183478701Y-120023345D01*
X183478703Y-120023345D01*
X183610805Y-119979272D01*
X183639945Y-119969550D01*
X183790348Y-119876478D01*
X183796947Y-119869868D01*
X183910134Y-119756483D01*
X183915305Y-119751303D01*
X184008115Y-119600738D01*
X184063797Y-119432861D01*
X184074500Y-119328400D01*
X184074500Y-117027600D01*
X184063526Y-116921835D01*
X184007550Y-116754055D01*
X183914478Y-116603652D01*
X183789303Y-116478695D01*
X183783072Y-116474854D01*
X183644968Y-116389725D01*
X183644966Y-116389724D01*
X183638738Y-116385885D01*
X183558995Y-116359436D01*
X183477389Y-116332368D01*
X183477387Y-116332368D01*
X183470861Y-116330203D01*
X183464025Y-116329503D01*
X183464022Y-116329502D01*
X183414214Y-116324399D01*
X183366400Y-116319500D01*
X180465600Y-116319500D01*
X180462354Y-116319837D01*
X180462350Y-116319837D01*
X180366693Y-116329762D01*
X180366689Y-116329763D01*
X180359835Y-116330474D01*
X180353299Y-116332655D01*
X180353297Y-116332655D01*
X180244053Y-116369102D01*
X180192055Y-116386450D01*
X180041652Y-116479522D01*
X180036479Y-116484704D01*
X180033438Y-116487750D01*
X179916695Y-116604697D01*
X179823885Y-116755262D01*
X179768203Y-116923139D01*
X179757500Y-117027600D01*
X179757500Y-119328400D01*
X176207447Y-119328400D01*
X176328034Y-119162730D01*
X176411190Y-119004676D01*
X176451490Y-118928079D01*
X176451493Y-118928073D01*
X176453615Y-118924039D01*
X176516378Y-118746312D01*
X176541902Y-118674033D01*
X176541902Y-118674032D01*
X176543425Y-118669720D01*
X176595581Y-118405100D01*
X176604782Y-118220277D01*
X176608764Y-118140292D01*
X176608764Y-118140286D01*
X176608991Y-118135723D01*
X176583375Y-117867231D01*
X176538042Y-117681967D01*
X176520355Y-117609688D01*
X176519269Y-117605250D01*
X176418015Y-117355267D01*
X176281735Y-117122518D01*
X176163928Y-116975208D01*
X176116136Y-116915447D01*
X176116135Y-116915445D01*
X176113284Y-116911881D01*
X175916191Y-116727766D01*
X175694584Y-116574032D01*
X175690501Y-116572001D01*
X175690498Y-116571999D01*
X175525606Y-116489967D01*
X175453106Y-116453899D01*
X175448772Y-116452478D01*
X175448769Y-116452477D01*
X175201147Y-116371302D01*
X175201141Y-116371301D01*
X175196814Y-116369882D01*
X175192322Y-116369102D01*
X174934860Y-116324399D01*
X174934852Y-116324398D01*
X174931079Y-116323743D01*
X174919817Y-116323182D01*
X174847422Y-116319578D01*
X174847414Y-116319578D01*
X174845851Y-116319500D01*
X174077488Y-116319500D01*
X174075220Y-116319665D01*
X174075208Y-116319665D01*
X173944116Y-116329177D01*
X173876996Y-116334047D01*
X173872541Y-116335031D01*
X173872538Y-116335031D01*
X173618088Y-116391209D01*
X173618084Y-116391210D01*
X173613628Y-116392194D01*
X173487520Y-116439972D01*
X173365682Y-116486132D01*
X173365679Y-116486133D01*
X173361412Y-116487750D01*
X173125632Y-116618714D01*
X173122000Y-116621486D01*
X172946712Y-116755262D01*
X172911227Y-116782343D01*
X172722688Y-116975208D01*
X172563966Y-117193270D01*
X172561844Y-117197304D01*
X172440510Y-117427921D01*
X172440507Y-117427927D01*
X172438385Y-117431961D01*
X172436865Y-117436266D01*
X172436863Y-117436270D01*
X172350098Y-117681967D01*
X172348575Y-117686280D01*
X172296419Y-117950900D01*
X172296192Y-117955453D01*
X172296192Y-117955456D01*
X172286991Y-118140292D01*
X172283009Y-118220277D01*
X171104782Y-118220277D01*
X171108764Y-118140292D01*
X171108764Y-118140286D01*
X171108991Y-118135723D01*
X171083375Y-117867231D01*
X171038042Y-117681967D01*
X171020355Y-117609688D01*
X171019269Y-117605250D01*
X170918015Y-117355267D01*
X170781735Y-117122518D01*
X170663928Y-116975208D01*
X170616136Y-116915447D01*
X170616135Y-116915445D01*
X170613284Y-116911881D01*
X170416191Y-116727766D01*
X170194584Y-116574032D01*
X170190501Y-116572001D01*
X170190498Y-116571999D01*
X170025606Y-116489967D01*
X169953106Y-116453899D01*
X169948772Y-116452478D01*
X169948769Y-116452477D01*
X169701147Y-116371302D01*
X169701141Y-116371301D01*
X169696814Y-116369882D01*
X169692322Y-116369102D01*
X169434860Y-116324399D01*
X169434852Y-116324398D01*
X169431079Y-116323743D01*
X169419817Y-116323182D01*
X169347422Y-116319578D01*
X169347414Y-116319578D01*
X169345851Y-116319500D01*
X168577488Y-116319500D01*
X168575220Y-116319665D01*
X168575208Y-116319665D01*
X168444116Y-116329177D01*
X168376996Y-116334047D01*
X168372541Y-116335031D01*
X168372538Y-116335031D01*
X168118088Y-116391209D01*
X168118084Y-116391210D01*
X168113628Y-116392194D01*
X167987520Y-116439972D01*
X167865682Y-116486132D01*
X167865679Y-116486133D01*
X167861412Y-116487750D01*
X167625632Y-116618714D01*
X167622000Y-116621486D01*
X167446712Y-116755262D01*
X167411227Y-116782343D01*
X167222688Y-116975208D01*
X167063966Y-117193270D01*
X167061844Y-117197304D01*
X166940510Y-117427921D01*
X166940507Y-117427927D01*
X166938385Y-117431961D01*
X166936865Y-117436266D01*
X166936863Y-117436270D01*
X166850098Y-117681967D01*
X166848575Y-117686280D01*
X166796419Y-117950900D01*
X166796192Y-117955453D01*
X166796192Y-117955456D01*
X166786991Y-118140292D01*
X166783009Y-118220277D01*
X131318000Y-118220277D01*
X131318000Y-114020277D01*
X166783009Y-114020277D01*
X166808625Y-114288769D01*
X166809710Y-114293203D01*
X166809711Y-114293209D01*
X166871645Y-114546312D01*
X166872731Y-114550750D01*
X166973985Y-114800733D01*
X167110265Y-115033482D01*
X167113118Y-115037049D01*
X167270756Y-115234165D01*
X167278716Y-115244119D01*
X167475809Y-115428234D01*
X167697416Y-115581968D01*
X167701499Y-115583999D01*
X167701502Y-115584001D01*
X167817013Y-115641466D01*
X167938894Y-115702101D01*
X167943228Y-115703522D01*
X167943231Y-115703523D01*
X168190853Y-115784698D01*
X168190859Y-115784699D01*
X168195186Y-115786118D01*
X168199677Y-115786898D01*
X168199678Y-115786898D01*
X168457140Y-115831601D01*
X168457148Y-115831602D01*
X168460921Y-115832257D01*
X168464758Y-115832448D01*
X168544578Y-115836422D01*
X168544586Y-115836422D01*
X168546149Y-115836500D01*
X169314512Y-115836500D01*
X169316780Y-115836335D01*
X169316792Y-115836335D01*
X169452363Y-115826498D01*
X169515004Y-115821953D01*
X169519459Y-115820969D01*
X169519462Y-115820969D01*
X169773912Y-115764791D01*
X169773916Y-115764790D01*
X169778372Y-115763806D01*
X169904480Y-115716028D01*
X170026318Y-115669868D01*
X170026321Y-115669867D01*
X170030588Y-115668250D01*
X170266368Y-115537286D01*
X170443707Y-115401945D01*
X170477141Y-115376429D01*
X170477142Y-115376428D01*
X170480773Y-115373657D01*
X170669312Y-115180792D01*
X170707447Y-115128400D01*
X172287500Y-115128400D01*
X172298474Y-115234165D01*
X172354450Y-115401945D01*
X172447522Y-115552348D01*
X172572697Y-115677305D01*
X172578927Y-115681145D01*
X172578928Y-115681146D01*
X172716090Y-115765694D01*
X172723262Y-115770115D01*
X172803005Y-115796564D01*
X172884611Y-115823632D01*
X172884613Y-115823632D01*
X172891139Y-115825797D01*
X172897975Y-115826497D01*
X172897978Y-115826498D01*
X172941031Y-115830909D01*
X172995600Y-115836500D01*
X175896400Y-115836500D01*
X175899646Y-115836163D01*
X175899650Y-115836163D01*
X175995307Y-115826238D01*
X175995311Y-115826237D01*
X176002165Y-115825526D01*
X176008701Y-115823345D01*
X176008703Y-115823345D01*
X176140805Y-115779272D01*
X176169945Y-115769550D01*
X176320348Y-115676478D01*
X176326947Y-115669868D01*
X176440134Y-115556483D01*
X176445305Y-115551303D01*
X176538115Y-115400738D01*
X176593797Y-115232861D01*
X176604500Y-115128400D01*
X176604500Y-114020277D01*
X179753009Y-114020277D01*
X179778625Y-114288769D01*
X179779710Y-114293203D01*
X179779711Y-114293209D01*
X179841645Y-114546312D01*
X179842731Y-114550750D01*
X179943985Y-114800733D01*
X180080265Y-115033482D01*
X180083118Y-115037049D01*
X180240756Y-115234165D01*
X180248716Y-115244119D01*
X180445809Y-115428234D01*
X180667416Y-115581968D01*
X180671499Y-115583999D01*
X180671502Y-115584001D01*
X180787013Y-115641466D01*
X180908894Y-115702101D01*
X180913228Y-115703522D01*
X180913231Y-115703523D01*
X181160853Y-115784698D01*
X181160859Y-115784699D01*
X181165186Y-115786118D01*
X181169677Y-115786898D01*
X181169678Y-115786898D01*
X181427140Y-115831601D01*
X181427148Y-115831602D01*
X181430921Y-115832257D01*
X181434758Y-115832448D01*
X181514578Y-115836422D01*
X181514586Y-115836422D01*
X181516149Y-115836500D01*
X182284512Y-115836500D01*
X182286780Y-115836335D01*
X182286792Y-115836335D01*
X182422363Y-115826498D01*
X182485004Y-115821953D01*
X182489459Y-115820969D01*
X182489462Y-115820969D01*
X182743912Y-115764791D01*
X182743916Y-115764790D01*
X182748372Y-115763806D01*
X182874480Y-115716028D01*
X182996318Y-115669868D01*
X182996321Y-115669867D01*
X183000588Y-115668250D01*
X183236368Y-115537286D01*
X183413707Y-115401945D01*
X183447141Y-115376429D01*
X183447142Y-115376428D01*
X183450773Y-115373657D01*
X183639312Y-115180792D01*
X183798034Y-114962730D01*
X183881190Y-114804676D01*
X183921490Y-114728079D01*
X183921493Y-114728073D01*
X183923615Y-114724039D01*
X183986378Y-114546312D01*
X184011902Y-114474033D01*
X184011902Y-114474032D01*
X184013425Y-114469720D01*
X184065581Y-114205100D01*
X184074782Y-114020277D01*
X184078764Y-113940292D01*
X184078764Y-113940286D01*
X184078991Y-113935723D01*
X184053375Y-113667231D01*
X184008042Y-113481967D01*
X183990355Y-113409688D01*
X183989269Y-113405250D01*
X183888015Y-113155267D01*
X183751735Y-112922518D01*
X183633928Y-112775208D01*
X183586136Y-112715447D01*
X183586135Y-112715445D01*
X183583284Y-112711881D01*
X183386191Y-112527766D01*
X183164584Y-112374032D01*
X183160501Y-112372001D01*
X183160498Y-112371999D01*
X182995606Y-112289967D01*
X182923106Y-112253899D01*
X182918772Y-112252478D01*
X182918769Y-112252477D01*
X182671147Y-112171302D01*
X182671141Y-112171301D01*
X182666814Y-112169882D01*
X182662322Y-112169102D01*
X182404860Y-112124399D01*
X182404852Y-112124398D01*
X182401079Y-112123743D01*
X182389817Y-112123182D01*
X182317422Y-112119578D01*
X182317414Y-112119578D01*
X182315851Y-112119500D01*
X181547488Y-112119500D01*
X181545220Y-112119665D01*
X181545208Y-112119665D01*
X181414116Y-112129177D01*
X181346996Y-112134047D01*
X181342541Y-112135031D01*
X181342538Y-112135031D01*
X181088088Y-112191209D01*
X181088084Y-112191210D01*
X181083628Y-112192194D01*
X180957520Y-112239972D01*
X180835682Y-112286132D01*
X180835679Y-112286133D01*
X180831412Y-112287750D01*
X180595632Y-112418714D01*
X180592000Y-112421486D01*
X180416712Y-112555262D01*
X180381227Y-112582343D01*
X180192688Y-112775208D01*
X180033966Y-112993270D01*
X180031844Y-112997304D01*
X179910510Y-113227921D01*
X179910507Y-113227927D01*
X179908385Y-113231961D01*
X179906865Y-113236266D01*
X179906863Y-113236270D01*
X179820098Y-113481967D01*
X179818575Y-113486280D01*
X179766419Y-113750900D01*
X179766192Y-113755453D01*
X179766192Y-113755456D01*
X179756991Y-113940292D01*
X179753009Y-114020277D01*
X176604500Y-114020277D01*
X176604500Y-112827600D01*
X176593526Y-112721835D01*
X176537550Y-112554055D01*
X176444478Y-112403652D01*
X176319303Y-112278695D01*
X176313072Y-112274854D01*
X176174968Y-112189725D01*
X176174966Y-112189724D01*
X176168738Y-112185885D01*
X176088995Y-112159436D01*
X176007389Y-112132368D01*
X176007387Y-112132368D01*
X176000861Y-112130203D01*
X175994025Y-112129503D01*
X175994022Y-112129502D01*
X175944214Y-112124399D01*
X175896400Y-112119500D01*
X172995600Y-112119500D01*
X172992354Y-112119837D01*
X172992350Y-112119837D01*
X172896693Y-112129762D01*
X172896689Y-112129763D01*
X172889835Y-112130474D01*
X172883299Y-112132655D01*
X172883297Y-112132655D01*
X172774053Y-112169102D01*
X172722055Y-112186450D01*
X172571652Y-112279522D01*
X172566479Y-112284704D01*
X172563438Y-112287750D01*
X172446695Y-112404697D01*
X172353885Y-112555262D01*
X172298203Y-112723139D01*
X172287500Y-112827600D01*
X172287500Y-115128400D01*
X170707447Y-115128400D01*
X170828034Y-114962730D01*
X170911190Y-114804676D01*
X170951490Y-114728079D01*
X170951493Y-114728073D01*
X170953615Y-114724039D01*
X171016378Y-114546312D01*
X171041902Y-114474033D01*
X171041902Y-114474032D01*
X171043425Y-114469720D01*
X171095581Y-114205100D01*
X171104782Y-114020277D01*
X171108764Y-113940292D01*
X171108764Y-113940286D01*
X171108991Y-113935723D01*
X171083375Y-113667231D01*
X171038042Y-113481967D01*
X171020355Y-113409688D01*
X171019269Y-113405250D01*
X170918015Y-113155267D01*
X170781735Y-112922518D01*
X170663928Y-112775208D01*
X170616136Y-112715447D01*
X170616135Y-112715445D01*
X170613284Y-112711881D01*
X170416191Y-112527766D01*
X170194584Y-112374032D01*
X170190501Y-112372001D01*
X170190498Y-112371999D01*
X170025606Y-112289967D01*
X169953106Y-112253899D01*
X169948772Y-112252478D01*
X169948769Y-112252477D01*
X169701147Y-112171302D01*
X169701141Y-112171301D01*
X169696814Y-112169882D01*
X169692322Y-112169102D01*
X169434860Y-112124399D01*
X169434852Y-112124398D01*
X169431079Y-112123743D01*
X169419817Y-112123182D01*
X169347422Y-112119578D01*
X169347414Y-112119578D01*
X169345851Y-112119500D01*
X168577488Y-112119500D01*
X168575220Y-112119665D01*
X168575208Y-112119665D01*
X168444116Y-112129177D01*
X168376996Y-112134047D01*
X168372541Y-112135031D01*
X168372538Y-112135031D01*
X168118088Y-112191209D01*
X168118084Y-112191210D01*
X168113628Y-112192194D01*
X167987520Y-112239972D01*
X167865682Y-112286132D01*
X167865679Y-112286133D01*
X167861412Y-112287750D01*
X167625632Y-112418714D01*
X167622000Y-112421486D01*
X167446712Y-112555262D01*
X167411227Y-112582343D01*
X167222688Y-112775208D01*
X167063966Y-112993270D01*
X167061844Y-112997304D01*
X166940510Y-113227921D01*
X166940507Y-113227927D01*
X166938385Y-113231961D01*
X166936865Y-113236266D01*
X166936863Y-113236270D01*
X166850098Y-113481967D01*
X166848575Y-113486280D01*
X166796419Y-113750900D01*
X166796192Y-113755453D01*
X166796192Y-113755456D01*
X166786991Y-113940292D01*
X166783009Y-114020277D01*
X131318000Y-114020277D01*
X131318000Y-112955190D01*
X131338002Y-112887069D01*
X131354905Y-112866095D01*
X134928475Y-109292525D01*
X136319021Y-109292525D01*
X136319711Y-109299090D01*
X136333485Y-109430139D01*
X136338983Y-109482453D01*
X136397998Y-109664081D01*
X136401301Y-109669803D01*
X136401302Y-109669804D01*
X136411351Y-109687209D01*
X136493485Y-109829469D01*
X136621272Y-109971391D01*
X136775773Y-110083643D01*
X136781801Y-110086327D01*
X136781803Y-110086328D01*
X136944206Y-110158634D01*
X136950237Y-110161319D01*
X137043638Y-110181172D01*
X137130581Y-110199653D01*
X137130586Y-110199653D01*
X137137038Y-110201025D01*
X137328012Y-110201025D01*
X137334464Y-110199653D01*
X137334469Y-110199653D01*
X137421413Y-110181172D01*
X137514813Y-110161319D01*
X137520844Y-110158634D01*
X137683247Y-110086328D01*
X137683249Y-110086327D01*
X137689277Y-110083643D01*
X137843778Y-109971391D01*
X137971565Y-109829469D01*
X138053699Y-109687209D01*
X138063748Y-109669804D01*
X138063749Y-109669803D01*
X138067052Y-109664081D01*
X138126067Y-109482453D01*
X138131566Y-109430139D01*
X138145339Y-109299090D01*
X138146029Y-109292525D01*
X138126067Y-109102597D01*
X138069610Y-108928843D01*
X152017775Y-108928843D01*
X152034381Y-109098199D01*
X152088094Y-109259667D01*
X152091741Y-109265689D01*
X152091742Y-109265691D01*
X152107994Y-109292525D01*
X152176246Y-109405223D01*
X152294455Y-109527632D01*
X152436846Y-109620810D01*
X152443450Y-109623266D01*
X152443452Y-109623267D01*
X152479844Y-109636801D01*
X152596341Y-109680126D01*
X152765015Y-109702632D01*
X152772026Y-109701994D01*
X152772030Y-109701994D01*
X152927462Y-109687848D01*
X152934483Y-109687209D01*
X152941185Y-109685031D01*
X152941187Y-109685031D01*
X153089623Y-109636801D01*
X153089626Y-109636800D01*
X153096322Y-109634624D01*
X153242490Y-109547490D01*
X153247584Y-109542639D01*
X153247588Y-109542636D01*
X153317678Y-109475890D01*
X153365721Y-109430139D01*
X153459891Y-109288402D01*
X153520319Y-109129325D01*
X153544001Y-108960813D01*
X153544299Y-108939500D01*
X153525331Y-108770392D01*
X153522165Y-108761299D01*
X153500183Y-108698178D01*
X153469368Y-108609689D01*
X153463383Y-108600110D01*
X153400027Y-108498722D01*
X153379192Y-108465379D01*
X153259286Y-108344632D01*
X153243039Y-108334321D01*
X153204406Y-108309804D01*
X153115608Y-108253451D01*
X152955300Y-108196368D01*
X152786329Y-108176220D01*
X152779326Y-108176956D01*
X152779325Y-108176956D01*
X152624101Y-108193270D01*
X152624097Y-108193271D01*
X152617093Y-108194007D01*
X152610422Y-108196278D01*
X152462673Y-108246575D01*
X152462670Y-108246576D01*
X152456003Y-108248846D01*
X152450005Y-108252536D01*
X152450003Y-108252537D01*
X152317065Y-108334321D01*
X152317063Y-108334323D01*
X152311066Y-108338012D01*
X152189486Y-108457073D01*
X152185675Y-108462987D01*
X152185673Y-108462989D01*
X152160914Y-108501407D01*
X152097304Y-108600110D01*
X152094894Y-108606732D01*
X152042504Y-108750673D01*
X152039103Y-108760016D01*
X152017775Y-108928843D01*
X138069610Y-108928843D01*
X138067052Y-108920969D01*
X137971565Y-108755581D01*
X137843778Y-108613659D01*
X137689277Y-108501407D01*
X137683249Y-108498723D01*
X137683247Y-108498722D01*
X137520844Y-108426416D01*
X137520843Y-108426416D01*
X137514813Y-108423731D01*
X137421412Y-108403878D01*
X137334469Y-108385397D01*
X137334464Y-108385397D01*
X137328012Y-108384025D01*
X137137038Y-108384025D01*
X137130586Y-108385397D01*
X137130581Y-108385397D01*
X137043638Y-108403878D01*
X136950237Y-108423731D01*
X136944207Y-108426416D01*
X136944206Y-108426416D01*
X136781803Y-108498722D01*
X136781801Y-108498723D01*
X136775773Y-108501407D01*
X136621272Y-108613659D01*
X136493485Y-108755581D01*
X136397998Y-108920969D01*
X136338983Y-109102597D01*
X136319021Y-109292525D01*
X134928475Y-109292525D01*
X139893000Y-104328000D01*
X184045835Y-104328000D01*
X184064465Y-104564711D01*
X184119895Y-104795594D01*
X184210760Y-105014963D01*
X184213346Y-105019183D01*
X184332241Y-105213202D01*
X184332245Y-105213208D01*
X184334824Y-105217416D01*
X184489031Y-105397969D01*
X184669584Y-105552176D01*
X184673792Y-105554755D01*
X184673798Y-105554759D01*
X184867817Y-105673654D01*
X184872037Y-105676240D01*
X184876607Y-105678133D01*
X184876611Y-105678135D01*
X185086833Y-105765211D01*
X185091406Y-105767105D01*
X185171609Y-105786360D01*
X185317476Y-105821380D01*
X185317482Y-105821381D01*
X185322289Y-105822535D01*
X185559000Y-105841165D01*
X185795711Y-105822535D01*
X185800518Y-105821381D01*
X185800524Y-105821380D01*
X185946391Y-105786360D01*
X186026594Y-105767105D01*
X186031167Y-105765211D01*
X186241389Y-105678135D01*
X186241393Y-105678133D01*
X186245963Y-105676240D01*
X186250183Y-105673654D01*
X186444202Y-105554759D01*
X186444208Y-105554755D01*
X186448416Y-105552176D01*
X186628969Y-105397969D01*
X186783176Y-105217416D01*
X186785755Y-105213208D01*
X186785759Y-105213202D01*
X186904654Y-105019183D01*
X186907240Y-105014963D01*
X186998105Y-104795594D01*
X187053535Y-104564711D01*
X187072165Y-104328000D01*
X193165835Y-104328000D01*
X193184465Y-104564711D01*
X193239895Y-104795594D01*
X193330760Y-105014963D01*
X193333346Y-105019183D01*
X193452241Y-105213202D01*
X193452245Y-105213208D01*
X193454824Y-105217416D01*
X193609031Y-105397969D01*
X193789584Y-105552176D01*
X193793792Y-105554755D01*
X193793798Y-105554759D01*
X193987817Y-105673654D01*
X193992037Y-105676240D01*
X193996607Y-105678133D01*
X193996611Y-105678135D01*
X194206833Y-105765211D01*
X194211406Y-105767105D01*
X194291609Y-105786360D01*
X194437476Y-105821380D01*
X194437482Y-105821381D01*
X194442289Y-105822535D01*
X194679000Y-105841165D01*
X194915711Y-105822535D01*
X194920518Y-105821381D01*
X194920524Y-105821380D01*
X195066391Y-105786360D01*
X195146594Y-105767105D01*
X195151167Y-105765211D01*
X195361389Y-105678135D01*
X195361393Y-105678133D01*
X195365963Y-105676240D01*
X195370183Y-105673654D01*
X195564202Y-105554759D01*
X195564208Y-105554755D01*
X195568416Y-105552176D01*
X195748969Y-105397969D01*
X195903176Y-105217416D01*
X195905755Y-105213208D01*
X195905759Y-105213202D01*
X196024654Y-105019183D01*
X196027240Y-105014963D01*
X196118105Y-104795594D01*
X196173535Y-104564711D01*
X196192165Y-104328000D01*
X196173535Y-104091289D01*
X196118105Y-103860406D01*
X196084958Y-103780382D01*
X196029135Y-103645611D01*
X196029133Y-103645607D01*
X196027240Y-103641037D01*
X195981233Y-103565960D01*
X195905759Y-103442798D01*
X195905755Y-103442792D01*
X195903176Y-103438584D01*
X195748969Y-103258031D01*
X195568416Y-103103824D01*
X195564208Y-103101245D01*
X195564202Y-103101241D01*
X195370183Y-102982346D01*
X195365963Y-102979760D01*
X195361393Y-102977867D01*
X195361389Y-102977865D01*
X195151167Y-102890789D01*
X195151165Y-102890788D01*
X195146594Y-102888895D01*
X195039804Y-102863257D01*
X194920524Y-102834620D01*
X194920518Y-102834619D01*
X194915711Y-102833465D01*
X194679000Y-102814835D01*
X194442289Y-102833465D01*
X194437482Y-102834619D01*
X194437476Y-102834620D01*
X194318196Y-102863257D01*
X194211406Y-102888895D01*
X194206835Y-102890788D01*
X194206833Y-102890789D01*
X193996611Y-102977865D01*
X193996607Y-102977867D01*
X193992037Y-102979760D01*
X193987817Y-102982346D01*
X193793798Y-103101241D01*
X193793792Y-103101245D01*
X193789584Y-103103824D01*
X193609031Y-103258031D01*
X193454824Y-103438584D01*
X193452245Y-103442792D01*
X193452241Y-103442798D01*
X193376767Y-103565960D01*
X193330760Y-103641037D01*
X193328867Y-103645607D01*
X193328865Y-103645611D01*
X193273042Y-103780382D01*
X193239895Y-103860406D01*
X193184465Y-104091289D01*
X193165835Y-104328000D01*
X187072165Y-104328000D01*
X187053535Y-104091289D01*
X186998105Y-103860406D01*
X186964958Y-103780382D01*
X186909135Y-103645611D01*
X186909133Y-103645607D01*
X186907240Y-103641037D01*
X186861233Y-103565960D01*
X186785759Y-103442798D01*
X186785755Y-103442792D01*
X186783176Y-103438584D01*
X186628969Y-103258031D01*
X186448416Y-103103824D01*
X186444208Y-103101245D01*
X186444202Y-103101241D01*
X186250183Y-102982346D01*
X186245963Y-102979760D01*
X186241393Y-102977867D01*
X186241389Y-102977865D01*
X186031167Y-102890789D01*
X186031165Y-102890788D01*
X186026594Y-102888895D01*
X185919804Y-102863257D01*
X185800524Y-102834620D01*
X185800518Y-102834619D01*
X185795711Y-102833465D01*
X185559000Y-102814835D01*
X185322289Y-102833465D01*
X185317482Y-102834619D01*
X185317476Y-102834620D01*
X185198196Y-102863257D01*
X185091406Y-102888895D01*
X185086835Y-102890788D01*
X185086833Y-102890789D01*
X184876611Y-102977865D01*
X184876607Y-102977867D01*
X184872037Y-102979760D01*
X184867817Y-102982346D01*
X184673798Y-103101241D01*
X184673792Y-103101245D01*
X184669584Y-103103824D01*
X184489031Y-103258031D01*
X184334824Y-103438584D01*
X184332245Y-103442792D01*
X184332241Y-103442798D01*
X184256767Y-103565960D01*
X184210760Y-103641037D01*
X184208867Y-103645607D01*
X184208865Y-103645611D01*
X184153042Y-103780382D01*
X184119895Y-103860406D01*
X184064465Y-104091289D01*
X184045835Y-104328000D01*
X139893000Y-104328000D01*
X140709366Y-103511634D01*
X156646500Y-103511634D01*
X156653255Y-103573816D01*
X156704385Y-103710205D01*
X156791739Y-103826761D01*
X156908295Y-103914115D01*
X157044684Y-103965245D01*
X157106866Y-103972000D01*
X158703134Y-103972000D01*
X158765316Y-103965245D01*
X158901705Y-103914115D01*
X159018261Y-103826761D01*
X159105615Y-103710205D01*
X159156745Y-103573816D01*
X159163500Y-103511634D01*
X159163500Y-103478179D01*
X159183502Y-103410058D01*
X159237158Y-103363565D01*
X159307432Y-103353461D01*
X159372012Y-103382955D01*
X159391821Y-103404651D01*
X159421676Y-103446198D01*
X159485195Y-103534596D01*
X159485200Y-103534601D01*
X159488471Y-103539154D01*
X159492503Y-103543061D01*
X159644778Y-103690626D01*
X159649799Y-103695492D01*
X159836262Y-103820790D01*
X160041967Y-103911088D01*
X160047418Y-103912397D01*
X160047422Y-103912398D01*
X160254954Y-103962222D01*
X160260411Y-103963532D01*
X160344475Y-103968379D01*
X160479083Y-103976140D01*
X160479086Y-103976140D01*
X160484690Y-103976463D01*
X160707715Y-103949475D01*
X160922435Y-103883418D01*
X160927415Y-103880848D01*
X160927419Y-103880846D01*
X161117081Y-103782954D01*
X161117082Y-103782954D01*
X161122064Y-103780382D01*
X161300292Y-103643623D01*
X161451485Y-103477464D01*
X161493769Y-103410058D01*
X161567885Y-103291905D01*
X161570864Y-103287156D01*
X161597961Y-103219750D01*
X161641925Y-103164010D01*
X161709050Y-103140884D01*
X161778021Y-103157721D01*
X161828592Y-103212505D01*
X161897378Y-103356718D01*
X162028471Y-103539154D01*
X162032503Y-103543061D01*
X162184778Y-103690626D01*
X162189799Y-103695492D01*
X162376262Y-103820790D01*
X162581967Y-103911088D01*
X162587418Y-103912397D01*
X162587422Y-103912398D01*
X162794954Y-103962222D01*
X162800411Y-103963532D01*
X162884475Y-103968379D01*
X163019083Y-103976140D01*
X163019086Y-103976140D01*
X163024690Y-103976463D01*
X163247715Y-103949475D01*
X163462435Y-103883418D01*
X163467415Y-103880848D01*
X163467419Y-103880846D01*
X163657081Y-103782954D01*
X163657082Y-103782954D01*
X163662064Y-103780382D01*
X163840292Y-103643623D01*
X163991485Y-103477464D01*
X164033769Y-103410058D01*
X164107885Y-103291905D01*
X164110864Y-103287156D01*
X164194656Y-103078717D01*
X164240213Y-102858733D01*
X164243500Y-102801725D01*
X164243500Y-101856501D01*
X164228617Y-101689738D01*
X164222048Y-101665723D01*
X164182227Y-101520167D01*
X164169337Y-101473049D01*
X164164540Y-101462990D01*
X164075036Y-101275344D01*
X164072622Y-101270282D01*
X163941529Y-101087846D01*
X163834232Y-100983868D01*
X163784229Y-100935411D01*
X163784226Y-100935409D01*
X163780201Y-100931508D01*
X163593738Y-100806210D01*
X163388033Y-100715912D01*
X163382582Y-100714603D01*
X163382578Y-100714602D01*
X163175046Y-100664778D01*
X163175045Y-100664778D01*
X163169589Y-100663468D01*
X163085525Y-100658621D01*
X162950917Y-100650860D01*
X162950914Y-100650860D01*
X162945310Y-100650537D01*
X162722285Y-100677525D01*
X162507565Y-100743582D01*
X162502585Y-100746152D01*
X162502581Y-100746154D01*
X162312919Y-100844046D01*
X162307936Y-100846618D01*
X162129708Y-100983377D01*
X161978515Y-101149536D01*
X161975537Y-101154283D01*
X161975535Y-101154286D01*
X161906707Y-101264009D01*
X161859136Y-101339844D01*
X161832039Y-101407250D01*
X161788075Y-101462990D01*
X161720950Y-101486116D01*
X161651979Y-101469279D01*
X161601408Y-101414495D01*
X161532622Y-101270282D01*
X161401529Y-101087846D01*
X161294232Y-100983868D01*
X161244229Y-100935411D01*
X161244226Y-100935409D01*
X161240201Y-100931508D01*
X161053738Y-100806210D01*
X160848033Y-100715912D01*
X160842582Y-100714603D01*
X160842578Y-100714602D01*
X160635046Y-100664778D01*
X160635045Y-100664778D01*
X160629589Y-100663468D01*
X160545525Y-100658621D01*
X160410917Y-100650860D01*
X160410914Y-100650860D01*
X160405310Y-100650537D01*
X160182285Y-100677525D01*
X159967565Y-100743582D01*
X159962585Y-100746152D01*
X159962581Y-100746154D01*
X159772919Y-100844046D01*
X159767936Y-100846618D01*
X159589708Y-100983377D01*
X159438515Y-101149536D01*
X159435537Y-101154283D01*
X159435535Y-101154286D01*
X159396238Y-101216932D01*
X159343094Y-101264009D01*
X159272935Y-101274882D01*
X159208035Y-101246098D01*
X159169000Y-101186796D01*
X159163500Y-101149976D01*
X159163500Y-101115366D01*
X159156745Y-101053184D01*
X159105615Y-100916795D01*
X159018261Y-100800239D01*
X158901705Y-100712885D01*
X158765316Y-100661755D01*
X158703134Y-100655000D01*
X157106866Y-100655000D01*
X157044684Y-100661755D01*
X156908295Y-100712885D01*
X156791739Y-100800239D01*
X156704385Y-100916795D01*
X156653255Y-101053184D01*
X156646500Y-101115366D01*
X156646500Y-103511634D01*
X140709366Y-103511634D01*
X142504657Y-101716343D01*
X150112775Y-101716343D01*
X150129381Y-101885699D01*
X150183094Y-102047167D01*
X150186741Y-102053189D01*
X150186742Y-102053191D01*
X150200497Y-102075902D01*
X150271246Y-102192723D01*
X150389455Y-102315132D01*
X150531846Y-102408310D01*
X150538450Y-102410766D01*
X150538452Y-102410767D01*
X150574844Y-102424301D01*
X150691341Y-102467626D01*
X150860015Y-102490132D01*
X150867026Y-102489494D01*
X150867030Y-102489494D01*
X151022462Y-102475348D01*
X151029483Y-102474709D01*
X151036185Y-102472531D01*
X151036187Y-102472531D01*
X151184623Y-102424301D01*
X151184626Y-102424300D01*
X151191322Y-102422124D01*
X151337490Y-102334990D01*
X151342584Y-102330139D01*
X151342588Y-102330136D01*
X151416924Y-102259346D01*
X151460721Y-102217639D01*
X151467878Y-102206868D01*
X151550990Y-102081773D01*
X151554891Y-102075902D01*
X151615319Y-101916825D01*
X151639001Y-101748313D01*
X151639299Y-101727000D01*
X151620331Y-101557892D01*
X151617201Y-101548902D01*
X151590785Y-101473049D01*
X151564368Y-101397189D01*
X151559767Y-101389825D01*
X151520574Y-101327105D01*
X151474192Y-101252879D01*
X151354286Y-101132132D01*
X151338039Y-101121821D01*
X151291686Y-101092405D01*
X151210608Y-101040951D01*
X151050300Y-100983868D01*
X150881329Y-100963720D01*
X150874326Y-100964456D01*
X150874325Y-100964456D01*
X150719101Y-100980770D01*
X150719097Y-100980771D01*
X150712093Y-100981507D01*
X150705422Y-100983778D01*
X150557673Y-101034075D01*
X150557670Y-101034076D01*
X150551003Y-101036346D01*
X150545005Y-101040036D01*
X150545003Y-101040037D01*
X150412065Y-101121821D01*
X150412063Y-101121823D01*
X150406066Y-101125512D01*
X150284486Y-101244573D01*
X150280675Y-101250487D01*
X150280673Y-101250489D01*
X150264655Y-101275344D01*
X150192304Y-101387610D01*
X150134103Y-101547516D01*
X150112775Y-101716343D01*
X142504657Y-101716343D01*
X145044657Y-99176343D01*
X157859775Y-99176343D01*
X157876381Y-99345699D01*
X157930094Y-99507167D01*
X157933741Y-99513189D01*
X157933742Y-99513191D01*
X158014463Y-99646476D01*
X158018246Y-99652723D01*
X158136455Y-99775132D01*
X158278846Y-99868310D01*
X158285450Y-99870766D01*
X158285452Y-99870767D01*
X158345047Y-99892930D01*
X158438341Y-99927626D01*
X158607015Y-99950132D01*
X158614026Y-99949494D01*
X158614030Y-99949494D01*
X158769462Y-99935348D01*
X158776483Y-99934709D01*
X158783185Y-99932531D01*
X158783187Y-99932531D01*
X158920239Y-99888000D01*
X184045835Y-99888000D01*
X184064465Y-100124711D01*
X184065619Y-100129518D01*
X184065620Y-100129524D01*
X184097695Y-100263124D01*
X184119895Y-100355594D01*
X184121788Y-100360165D01*
X184121789Y-100360167D01*
X184183581Y-100509346D01*
X184210760Y-100574963D01*
X184213346Y-100579183D01*
X184332241Y-100773202D01*
X184332245Y-100773208D01*
X184334824Y-100777416D01*
X184489031Y-100957969D01*
X184492787Y-100961177D01*
X184496626Y-100964456D01*
X184669584Y-101112176D01*
X184673792Y-101114755D01*
X184673798Y-101114759D01*
X184791352Y-101186796D01*
X184872037Y-101236240D01*
X184876607Y-101238133D01*
X184876611Y-101238135D01*
X185086833Y-101325211D01*
X185091406Y-101327105D01*
X185124687Y-101335095D01*
X185317476Y-101381380D01*
X185317482Y-101381381D01*
X185322289Y-101382535D01*
X185559000Y-101401165D01*
X185795711Y-101382535D01*
X185800518Y-101381381D01*
X185800524Y-101381380D01*
X185993313Y-101335095D01*
X186026594Y-101327105D01*
X186031167Y-101325211D01*
X186241389Y-101238135D01*
X186241393Y-101238133D01*
X186245963Y-101236240D01*
X186326648Y-101186796D01*
X186444202Y-101114759D01*
X186444208Y-101114755D01*
X186448416Y-101112176D01*
X186621374Y-100964456D01*
X186625213Y-100961177D01*
X186628969Y-100957969D01*
X186783176Y-100777416D01*
X186785755Y-100773208D01*
X186785759Y-100773202D01*
X186904654Y-100579183D01*
X186907240Y-100574963D01*
X186934420Y-100509346D01*
X186996211Y-100360167D01*
X186996212Y-100360165D01*
X186998105Y-100355594D01*
X187020305Y-100263124D01*
X187052380Y-100129524D01*
X187052381Y-100129518D01*
X187053535Y-100124711D01*
X187072165Y-99888000D01*
X193165835Y-99888000D01*
X193184465Y-100124711D01*
X193185619Y-100129518D01*
X193185620Y-100129524D01*
X193217695Y-100263124D01*
X193239895Y-100355594D01*
X193241788Y-100360165D01*
X193241789Y-100360167D01*
X193303581Y-100509346D01*
X193330760Y-100574963D01*
X193333346Y-100579183D01*
X193452241Y-100773202D01*
X193452245Y-100773208D01*
X193454824Y-100777416D01*
X193609031Y-100957969D01*
X193612787Y-100961177D01*
X193616626Y-100964456D01*
X193789584Y-101112176D01*
X193793792Y-101114755D01*
X193793798Y-101114759D01*
X193911352Y-101186796D01*
X193992037Y-101236240D01*
X193996607Y-101238133D01*
X193996611Y-101238135D01*
X194206833Y-101325211D01*
X194211406Y-101327105D01*
X194244687Y-101335095D01*
X194437476Y-101381380D01*
X194437482Y-101381381D01*
X194442289Y-101382535D01*
X194679000Y-101401165D01*
X194915711Y-101382535D01*
X194920518Y-101381381D01*
X194920524Y-101381380D01*
X195113313Y-101335095D01*
X195146594Y-101327105D01*
X195151167Y-101325211D01*
X195361389Y-101238135D01*
X195361393Y-101238133D01*
X195365963Y-101236240D01*
X195446648Y-101186796D01*
X195564202Y-101114759D01*
X195564208Y-101114755D01*
X195568416Y-101112176D01*
X195741374Y-100964456D01*
X195745213Y-100961177D01*
X195748969Y-100957969D01*
X195903176Y-100777416D01*
X195905755Y-100773208D01*
X195905759Y-100773202D01*
X196024654Y-100579183D01*
X196027240Y-100574963D01*
X196054420Y-100509346D01*
X196116211Y-100360167D01*
X196116212Y-100360165D01*
X196118105Y-100355594D01*
X196140305Y-100263124D01*
X196172380Y-100129524D01*
X196172381Y-100129518D01*
X196173535Y-100124711D01*
X196192165Y-99888000D01*
X196173535Y-99651289D01*
X196144252Y-99529314D01*
X196119260Y-99425218D01*
X196118105Y-99420406D01*
X196102783Y-99383414D01*
X196029135Y-99205611D01*
X196029133Y-99205607D01*
X196027240Y-99201037D01*
X196016225Y-99183062D01*
X195905759Y-99002798D01*
X195905755Y-99002792D01*
X195903176Y-98998584D01*
X195748969Y-98818031D01*
X195568416Y-98663824D01*
X195564208Y-98661245D01*
X195564202Y-98661241D01*
X195370183Y-98542346D01*
X195365963Y-98539760D01*
X195361393Y-98537867D01*
X195361389Y-98537865D01*
X195151167Y-98450789D01*
X195151165Y-98450788D01*
X195146594Y-98448895D01*
X195066391Y-98429640D01*
X194920524Y-98394620D01*
X194920518Y-98394619D01*
X194915711Y-98393465D01*
X194679000Y-98374835D01*
X194442289Y-98393465D01*
X194437482Y-98394619D01*
X194437476Y-98394620D01*
X194291609Y-98429640D01*
X194211406Y-98448895D01*
X194206835Y-98450788D01*
X194206833Y-98450789D01*
X193996611Y-98537865D01*
X193996607Y-98537867D01*
X193992037Y-98539760D01*
X193987817Y-98542346D01*
X193793798Y-98661241D01*
X193793792Y-98661245D01*
X193789584Y-98663824D01*
X193609031Y-98818031D01*
X193454824Y-98998584D01*
X193452245Y-99002792D01*
X193452241Y-99002798D01*
X193341775Y-99183062D01*
X193330760Y-99201037D01*
X193328867Y-99205607D01*
X193328865Y-99205611D01*
X193255217Y-99383414D01*
X193239895Y-99420406D01*
X193238740Y-99425218D01*
X193213749Y-99529314D01*
X193184465Y-99651289D01*
X193165835Y-99888000D01*
X187072165Y-99888000D01*
X187053535Y-99651289D01*
X187024252Y-99529314D01*
X186999260Y-99425218D01*
X186998105Y-99420406D01*
X186982783Y-99383414D01*
X186909135Y-99205611D01*
X186909133Y-99205607D01*
X186907240Y-99201037D01*
X186896225Y-99183062D01*
X186785759Y-99002798D01*
X186785755Y-99002792D01*
X186783176Y-98998584D01*
X186628969Y-98818031D01*
X186448416Y-98663824D01*
X186444208Y-98661245D01*
X186444202Y-98661241D01*
X186250183Y-98542346D01*
X186245963Y-98539760D01*
X186241393Y-98537867D01*
X186241389Y-98537865D01*
X186031167Y-98450789D01*
X186031165Y-98450788D01*
X186026594Y-98448895D01*
X185946391Y-98429640D01*
X185800524Y-98394620D01*
X185800518Y-98394619D01*
X185795711Y-98393465D01*
X185559000Y-98374835D01*
X185322289Y-98393465D01*
X185317482Y-98394619D01*
X185317476Y-98394620D01*
X185171609Y-98429640D01*
X185091406Y-98448895D01*
X185086835Y-98450788D01*
X185086833Y-98450789D01*
X184876611Y-98537865D01*
X184876607Y-98537867D01*
X184872037Y-98539760D01*
X184867817Y-98542346D01*
X184673798Y-98661241D01*
X184673792Y-98661245D01*
X184669584Y-98663824D01*
X184489031Y-98818031D01*
X184334824Y-98998584D01*
X184332245Y-99002792D01*
X184332241Y-99002798D01*
X184221775Y-99183062D01*
X184210760Y-99201037D01*
X184208867Y-99205607D01*
X184208865Y-99205611D01*
X184135217Y-99383414D01*
X184119895Y-99420406D01*
X184118740Y-99425218D01*
X184093749Y-99529314D01*
X184064465Y-99651289D01*
X184045835Y-99888000D01*
X158920239Y-99888000D01*
X158931623Y-99884301D01*
X158931626Y-99884300D01*
X158938322Y-99882124D01*
X159084490Y-99794990D01*
X159089584Y-99790139D01*
X159089588Y-99790136D01*
X159156833Y-99726099D01*
X159207721Y-99677639D01*
X159301891Y-99535902D01*
X159362319Y-99376825D01*
X159386001Y-99208313D01*
X159386299Y-99187000D01*
X159367331Y-99017892D01*
X159349439Y-98966512D01*
X159313686Y-98863846D01*
X159311368Y-98857189D01*
X159305383Y-98847610D01*
X159278581Y-98804720D01*
X159221192Y-98712879D01*
X159101286Y-98592132D01*
X159085039Y-98581821D01*
X159015775Y-98537865D01*
X158957608Y-98500951D01*
X158797300Y-98443868D01*
X158628329Y-98423720D01*
X158621326Y-98424456D01*
X158621325Y-98424456D01*
X158466101Y-98440770D01*
X158466097Y-98440771D01*
X158459093Y-98441507D01*
X158452422Y-98443778D01*
X158304673Y-98494075D01*
X158304670Y-98494076D01*
X158298003Y-98496346D01*
X158292005Y-98500036D01*
X158292003Y-98500037D01*
X158159065Y-98581821D01*
X158159063Y-98581823D01*
X158153066Y-98585512D01*
X158031486Y-98704573D01*
X158027675Y-98710487D01*
X158027673Y-98710489D01*
X157955946Y-98821787D01*
X157939304Y-98847610D01*
X157881103Y-99007516D01*
X157859775Y-99176343D01*
X145044657Y-99176343D01*
X148783000Y-95438000D01*
X184045835Y-95438000D01*
X184064465Y-95674711D01*
X184119895Y-95905594D01*
X184121788Y-95910165D01*
X184121789Y-95910167D01*
X184147117Y-95971313D01*
X184210760Y-96124963D01*
X184213346Y-96129183D01*
X184332241Y-96323202D01*
X184332245Y-96323208D01*
X184334824Y-96327416D01*
X184489031Y-96507969D01*
X184669584Y-96662176D01*
X184673792Y-96664755D01*
X184673798Y-96664759D01*
X184727568Y-96697709D01*
X184872037Y-96786240D01*
X184876607Y-96788133D01*
X184876611Y-96788135D01*
X185086833Y-96875211D01*
X185091406Y-96877105D01*
X185171609Y-96896360D01*
X185317476Y-96931380D01*
X185317482Y-96931381D01*
X185322289Y-96932535D01*
X185559000Y-96951165D01*
X185795711Y-96932535D01*
X185800518Y-96931381D01*
X185800524Y-96931380D01*
X185946391Y-96896360D01*
X186026594Y-96877105D01*
X186031167Y-96875211D01*
X186241389Y-96788135D01*
X186241393Y-96788133D01*
X186245963Y-96786240D01*
X186390432Y-96697709D01*
X186444202Y-96664759D01*
X186444208Y-96664755D01*
X186448416Y-96662176D01*
X186628969Y-96507969D01*
X186783176Y-96327416D01*
X186785755Y-96323208D01*
X186785759Y-96323202D01*
X186904654Y-96129183D01*
X186907240Y-96124963D01*
X186970884Y-95971313D01*
X186996211Y-95910167D01*
X186996212Y-95910165D01*
X186998105Y-95905594D01*
X187053535Y-95674711D01*
X187072165Y-95438000D01*
X193165835Y-95438000D01*
X193184465Y-95674711D01*
X193239895Y-95905594D01*
X193241788Y-95910165D01*
X193241789Y-95910167D01*
X193267117Y-95971313D01*
X193330760Y-96124963D01*
X193333346Y-96129183D01*
X193452241Y-96323202D01*
X193452245Y-96323208D01*
X193454824Y-96327416D01*
X193609031Y-96507969D01*
X193789584Y-96662176D01*
X193793792Y-96664755D01*
X193793798Y-96664759D01*
X193847568Y-96697709D01*
X193992037Y-96786240D01*
X193996607Y-96788133D01*
X193996611Y-96788135D01*
X194206833Y-96875211D01*
X194211406Y-96877105D01*
X194291609Y-96896360D01*
X194437476Y-96931380D01*
X194437482Y-96931381D01*
X194442289Y-96932535D01*
X194679000Y-96951165D01*
X194915711Y-96932535D01*
X194920518Y-96931381D01*
X194920524Y-96931380D01*
X195066391Y-96896360D01*
X195146594Y-96877105D01*
X195151167Y-96875211D01*
X195361389Y-96788135D01*
X195361393Y-96788133D01*
X195365963Y-96786240D01*
X195510432Y-96697709D01*
X195564202Y-96664759D01*
X195564208Y-96664755D01*
X195568416Y-96662176D01*
X195748969Y-96507969D01*
X195903176Y-96327416D01*
X195905755Y-96323208D01*
X195905759Y-96323202D01*
X196024654Y-96129183D01*
X196027240Y-96124963D01*
X196090884Y-95971313D01*
X196116211Y-95910167D01*
X196116212Y-95910165D01*
X196118105Y-95905594D01*
X196173535Y-95674711D01*
X196192165Y-95438000D01*
X196173535Y-95201289D01*
X196170038Y-95186720D01*
X196119260Y-94975218D01*
X196118105Y-94970406D01*
X196095880Y-94916749D01*
X196029135Y-94755611D01*
X196029133Y-94755607D01*
X196027240Y-94751037D01*
X195980720Y-94675124D01*
X195905759Y-94552798D01*
X195905755Y-94552792D01*
X195903176Y-94548584D01*
X195748969Y-94368031D01*
X195568416Y-94213824D01*
X195564208Y-94211245D01*
X195564202Y-94211241D01*
X195370183Y-94092346D01*
X195365963Y-94089760D01*
X195361393Y-94087867D01*
X195361389Y-94087865D01*
X195151167Y-94000789D01*
X195151165Y-94000788D01*
X195146594Y-93998895D01*
X195023501Y-93969343D01*
X194920524Y-93944620D01*
X194920518Y-93944619D01*
X194915711Y-93943465D01*
X194679000Y-93924835D01*
X194442289Y-93943465D01*
X194437482Y-93944619D01*
X194437476Y-93944620D01*
X194334499Y-93969343D01*
X194211406Y-93998895D01*
X194206835Y-94000788D01*
X194206833Y-94000789D01*
X193996611Y-94087865D01*
X193996607Y-94087867D01*
X193992037Y-94089760D01*
X193987817Y-94092346D01*
X193793798Y-94211241D01*
X193793792Y-94211245D01*
X193789584Y-94213824D01*
X193609031Y-94368031D01*
X193454824Y-94548584D01*
X193452245Y-94552792D01*
X193452241Y-94552798D01*
X193377280Y-94675124D01*
X193330760Y-94751037D01*
X193328867Y-94755607D01*
X193328865Y-94755611D01*
X193262120Y-94916749D01*
X193239895Y-94970406D01*
X193238740Y-94975218D01*
X193187963Y-95186720D01*
X193184465Y-95201289D01*
X193165835Y-95438000D01*
X187072165Y-95438000D01*
X187053535Y-95201289D01*
X187050038Y-95186720D01*
X186999260Y-94975218D01*
X186998105Y-94970406D01*
X186975880Y-94916749D01*
X186909135Y-94755611D01*
X186909133Y-94755607D01*
X186907240Y-94751037D01*
X186860720Y-94675124D01*
X186785759Y-94552798D01*
X186785755Y-94552792D01*
X186783176Y-94548584D01*
X186628969Y-94368031D01*
X186448416Y-94213824D01*
X186444208Y-94211245D01*
X186444202Y-94211241D01*
X186250183Y-94092346D01*
X186245963Y-94089760D01*
X186241393Y-94087867D01*
X186241389Y-94087865D01*
X186031167Y-94000789D01*
X186031165Y-94000788D01*
X186026594Y-93998895D01*
X185903501Y-93969343D01*
X185800524Y-93944620D01*
X185800518Y-93944619D01*
X185795711Y-93943465D01*
X185559000Y-93924835D01*
X185322289Y-93943465D01*
X185317482Y-93944619D01*
X185317476Y-93944620D01*
X185214499Y-93969343D01*
X185091406Y-93998895D01*
X185086835Y-94000788D01*
X185086833Y-94000789D01*
X184876611Y-94087865D01*
X184876607Y-94087867D01*
X184872037Y-94089760D01*
X184867817Y-94092346D01*
X184673798Y-94211241D01*
X184673792Y-94211245D01*
X184669584Y-94213824D01*
X184489031Y-94368031D01*
X184334824Y-94548584D01*
X184332245Y-94552792D01*
X184332241Y-94552798D01*
X184257280Y-94675124D01*
X184210760Y-94751037D01*
X184208867Y-94755607D01*
X184208865Y-94755611D01*
X184142120Y-94916749D01*
X184119895Y-94970406D01*
X184118740Y-94975218D01*
X184067963Y-95186720D01*
X184064465Y-95201289D01*
X184045835Y-95438000D01*
X148783000Y-95438000D01*
X149987000Y-94234000D01*
X170663496Y-94234000D01*
X170664186Y-94240565D01*
X170679874Y-94389825D01*
X170683458Y-94423928D01*
X170742473Y-94605556D01*
X170745776Y-94611278D01*
X170745777Y-94611279D01*
X170779686Y-94670010D01*
X170837960Y-94770944D01*
X170965747Y-94912866D01*
X171120248Y-95025118D01*
X171126276Y-95027802D01*
X171126278Y-95027803D01*
X171288681Y-95100109D01*
X171294712Y-95102794D01*
X171388113Y-95122647D01*
X171475056Y-95141128D01*
X171475061Y-95141128D01*
X171481513Y-95142500D01*
X171672487Y-95142500D01*
X171678939Y-95141128D01*
X171678944Y-95141128D01*
X171765888Y-95122647D01*
X171859288Y-95102794D01*
X171865319Y-95100109D01*
X172027722Y-95027803D01*
X172027724Y-95027802D01*
X172033752Y-95025118D01*
X172188253Y-94912866D01*
X172316040Y-94770944D01*
X172374314Y-94670010D01*
X172408223Y-94611279D01*
X172408224Y-94611278D01*
X172411527Y-94605556D01*
X172470542Y-94423928D01*
X172474127Y-94389825D01*
X172489814Y-94240565D01*
X172490504Y-94234000D01*
X172488112Y-94211241D01*
X172471232Y-94050635D01*
X172471232Y-94050633D01*
X172470542Y-94044072D01*
X172411527Y-93862444D01*
X172402380Y-93846602D01*
X172385500Y-93783603D01*
X172385500Y-90998000D01*
X184045835Y-90998000D01*
X184064465Y-91234711D01*
X184065619Y-91239518D01*
X184065620Y-91239524D01*
X184099660Y-91381310D01*
X184119895Y-91465594D01*
X184210760Y-91684963D01*
X184213346Y-91689183D01*
X184332241Y-91883202D01*
X184332245Y-91883208D01*
X184334824Y-91887416D01*
X184489031Y-92067969D01*
X184669584Y-92222176D01*
X184673792Y-92224755D01*
X184673798Y-92224759D01*
X184825965Y-92318007D01*
X184872037Y-92346240D01*
X184876607Y-92348133D01*
X184876611Y-92348135D01*
X185086833Y-92435211D01*
X185091406Y-92437105D01*
X185171609Y-92456360D01*
X185317476Y-92491380D01*
X185317482Y-92491381D01*
X185322289Y-92492535D01*
X185559000Y-92511165D01*
X185795711Y-92492535D01*
X185800518Y-92491381D01*
X185800524Y-92491380D01*
X185946391Y-92456360D01*
X186026594Y-92437105D01*
X186031167Y-92435211D01*
X186241389Y-92348135D01*
X186241393Y-92348133D01*
X186245963Y-92346240D01*
X186292035Y-92318007D01*
X186444202Y-92224759D01*
X186444208Y-92224755D01*
X186448416Y-92222176D01*
X186628969Y-92067969D01*
X186783176Y-91887416D01*
X186785755Y-91883208D01*
X186785759Y-91883202D01*
X186904654Y-91689183D01*
X186907240Y-91684963D01*
X186998105Y-91465594D01*
X187018340Y-91381310D01*
X187052380Y-91239524D01*
X187052381Y-91239518D01*
X187053535Y-91234711D01*
X187072165Y-90998000D01*
X193165835Y-90998000D01*
X193184465Y-91234711D01*
X193185619Y-91239518D01*
X193185620Y-91239524D01*
X193219660Y-91381310D01*
X193239895Y-91465594D01*
X193330760Y-91684963D01*
X193333346Y-91689183D01*
X193452241Y-91883202D01*
X193452245Y-91883208D01*
X193454824Y-91887416D01*
X193609031Y-92067969D01*
X193789584Y-92222176D01*
X193793792Y-92224755D01*
X193793798Y-92224759D01*
X193945965Y-92318007D01*
X193992037Y-92346240D01*
X193996607Y-92348133D01*
X193996611Y-92348135D01*
X194206833Y-92435211D01*
X194211406Y-92437105D01*
X194291609Y-92456360D01*
X194437476Y-92491380D01*
X194437482Y-92491381D01*
X194442289Y-92492535D01*
X194679000Y-92511165D01*
X194915711Y-92492535D01*
X194920518Y-92491381D01*
X194920524Y-92491380D01*
X195066391Y-92456360D01*
X195146594Y-92437105D01*
X195151167Y-92435211D01*
X195361389Y-92348135D01*
X195361393Y-92348133D01*
X195365963Y-92346240D01*
X195412035Y-92318007D01*
X195564202Y-92224759D01*
X195564208Y-92224755D01*
X195568416Y-92222176D01*
X195748969Y-92067969D01*
X195903176Y-91887416D01*
X195905755Y-91883208D01*
X195905759Y-91883202D01*
X196024654Y-91689183D01*
X196027240Y-91684963D01*
X196118105Y-91465594D01*
X196138340Y-91381310D01*
X196172380Y-91239524D01*
X196172381Y-91239518D01*
X196173535Y-91234711D01*
X196192165Y-90998000D01*
X196173535Y-90761289D01*
X196156263Y-90689343D01*
X196119585Y-90536572D01*
X196118105Y-90530406D01*
X196116211Y-90525833D01*
X196029135Y-90315611D01*
X196029133Y-90315607D01*
X196027240Y-90311037D01*
X196012883Y-90287609D01*
X195905759Y-90112798D01*
X195905755Y-90112792D01*
X195903176Y-90108584D01*
X195748969Y-89928031D01*
X195568416Y-89773824D01*
X195564208Y-89771245D01*
X195564202Y-89771241D01*
X195370183Y-89652346D01*
X195365963Y-89649760D01*
X195361393Y-89647867D01*
X195361389Y-89647865D01*
X195151167Y-89560789D01*
X195151165Y-89560788D01*
X195146594Y-89558895D01*
X195047897Y-89535200D01*
X194920524Y-89504620D01*
X194920518Y-89504619D01*
X194915711Y-89503465D01*
X194679000Y-89484835D01*
X194442289Y-89503465D01*
X194437482Y-89504619D01*
X194437476Y-89504620D01*
X194310103Y-89535200D01*
X194211406Y-89558895D01*
X194206835Y-89560788D01*
X194206833Y-89560789D01*
X193996611Y-89647865D01*
X193996607Y-89647867D01*
X193992037Y-89649760D01*
X193987817Y-89652346D01*
X193793798Y-89771241D01*
X193793792Y-89771245D01*
X193789584Y-89773824D01*
X193609031Y-89928031D01*
X193454824Y-90108584D01*
X193452245Y-90112792D01*
X193452241Y-90112798D01*
X193345117Y-90287609D01*
X193330760Y-90311037D01*
X193328867Y-90315607D01*
X193328865Y-90315611D01*
X193241789Y-90525833D01*
X193239895Y-90530406D01*
X193238415Y-90536572D01*
X193201738Y-90689343D01*
X193184465Y-90761289D01*
X193165835Y-90998000D01*
X187072165Y-90998000D01*
X187053535Y-90761289D01*
X187036263Y-90689343D01*
X186999585Y-90536572D01*
X186998105Y-90530406D01*
X186996211Y-90525833D01*
X186909135Y-90315611D01*
X186909133Y-90315607D01*
X186907240Y-90311037D01*
X186892883Y-90287609D01*
X186785759Y-90112798D01*
X186785755Y-90112792D01*
X186783176Y-90108584D01*
X186628969Y-89928031D01*
X186448416Y-89773824D01*
X186444208Y-89771245D01*
X186444202Y-89771241D01*
X186250183Y-89652346D01*
X186245963Y-89649760D01*
X186241393Y-89647867D01*
X186241389Y-89647865D01*
X186031167Y-89560789D01*
X186031165Y-89560788D01*
X186026594Y-89558895D01*
X185927897Y-89535200D01*
X185800524Y-89504620D01*
X185800518Y-89504619D01*
X185795711Y-89503465D01*
X185559000Y-89484835D01*
X185322289Y-89503465D01*
X185317482Y-89504619D01*
X185317476Y-89504620D01*
X185190103Y-89535200D01*
X185091406Y-89558895D01*
X185086835Y-89560788D01*
X185086833Y-89560789D01*
X184876611Y-89647865D01*
X184876607Y-89647867D01*
X184872037Y-89649760D01*
X184867817Y-89652346D01*
X184673798Y-89771241D01*
X184673792Y-89771245D01*
X184669584Y-89773824D01*
X184489031Y-89928031D01*
X184334824Y-90108584D01*
X184332245Y-90112792D01*
X184332241Y-90112798D01*
X184225117Y-90287609D01*
X184210760Y-90311037D01*
X184208867Y-90315607D01*
X184208865Y-90315611D01*
X184121789Y-90525833D01*
X184119895Y-90530406D01*
X184118415Y-90536572D01*
X184081738Y-90689343D01*
X184064465Y-90761289D01*
X184045835Y-90998000D01*
X172385500Y-90998000D01*
X172385500Y-90938082D01*
X172405502Y-90869961D01*
X172422405Y-90848987D01*
X176723391Y-86548000D01*
X184045835Y-86548000D01*
X184064465Y-86784711D01*
X184065619Y-86789518D01*
X184065620Y-86789524D01*
X184084986Y-86870189D01*
X184119895Y-87015594D01*
X184121788Y-87020165D01*
X184121789Y-87020167D01*
X184191864Y-87189343D01*
X184210760Y-87234963D01*
X184213346Y-87239183D01*
X184332241Y-87433202D01*
X184332245Y-87433208D01*
X184334824Y-87437416D01*
X184489031Y-87617969D01*
X184669584Y-87772176D01*
X184673792Y-87774755D01*
X184673798Y-87774759D01*
X184867817Y-87893654D01*
X184872037Y-87896240D01*
X184876607Y-87898133D01*
X184876611Y-87898135D01*
X185086833Y-87985211D01*
X185091406Y-87987105D01*
X185124579Y-87995069D01*
X185317476Y-88041380D01*
X185317482Y-88041381D01*
X185322289Y-88042535D01*
X185559000Y-88061165D01*
X185795711Y-88042535D01*
X185800518Y-88041381D01*
X185800524Y-88041380D01*
X185993421Y-87995069D01*
X186026594Y-87987105D01*
X186031167Y-87985211D01*
X186241389Y-87898135D01*
X186241393Y-87898133D01*
X186245963Y-87896240D01*
X186250183Y-87893654D01*
X186444202Y-87774759D01*
X186444208Y-87774755D01*
X186448416Y-87772176D01*
X186628969Y-87617969D01*
X186783176Y-87437416D01*
X186785755Y-87433208D01*
X186785759Y-87433202D01*
X186904654Y-87239183D01*
X186907240Y-87234963D01*
X186926137Y-87189343D01*
X186996211Y-87020167D01*
X186996212Y-87020165D01*
X186998105Y-87015594D01*
X187033014Y-86870189D01*
X187052380Y-86789524D01*
X187052381Y-86789518D01*
X187053535Y-86784711D01*
X187072165Y-86548000D01*
X193165835Y-86548000D01*
X193184465Y-86784711D01*
X193185619Y-86789518D01*
X193185620Y-86789524D01*
X193204986Y-86870189D01*
X193239895Y-87015594D01*
X193241788Y-87020165D01*
X193241789Y-87020167D01*
X193311864Y-87189343D01*
X193330760Y-87234963D01*
X193333346Y-87239183D01*
X193452241Y-87433202D01*
X193452245Y-87433208D01*
X193454824Y-87437416D01*
X193609031Y-87617969D01*
X193789584Y-87772176D01*
X193793792Y-87774755D01*
X193793798Y-87774759D01*
X193987817Y-87893654D01*
X193992037Y-87896240D01*
X193996607Y-87898133D01*
X193996611Y-87898135D01*
X194206833Y-87985211D01*
X194211406Y-87987105D01*
X194244579Y-87995069D01*
X194437476Y-88041380D01*
X194437482Y-88041381D01*
X194442289Y-88042535D01*
X194679000Y-88061165D01*
X194915711Y-88042535D01*
X194920518Y-88041381D01*
X194920524Y-88041380D01*
X195113421Y-87995069D01*
X195146594Y-87987105D01*
X195151167Y-87985211D01*
X195361389Y-87898135D01*
X195361393Y-87898133D01*
X195365963Y-87896240D01*
X195370183Y-87893654D01*
X195564202Y-87774759D01*
X195564208Y-87774755D01*
X195568416Y-87772176D01*
X195748969Y-87617969D01*
X195903176Y-87437416D01*
X195905755Y-87433208D01*
X195905759Y-87433202D01*
X196024654Y-87239183D01*
X196027240Y-87234963D01*
X196046137Y-87189343D01*
X196116211Y-87020167D01*
X196116212Y-87020165D01*
X196118105Y-87015594D01*
X196153014Y-86870189D01*
X196172380Y-86789524D01*
X196172381Y-86789518D01*
X196173535Y-86784711D01*
X196192165Y-86548000D01*
X196173535Y-86311289D01*
X196144567Y-86190626D01*
X196119260Y-86085218D01*
X196118105Y-86080406D01*
X196027240Y-85861037D01*
X196024654Y-85856817D01*
X195905759Y-85662798D01*
X195905755Y-85662792D01*
X195903176Y-85658584D01*
X195748969Y-85478031D01*
X195568416Y-85323824D01*
X195564208Y-85321245D01*
X195564202Y-85321241D01*
X195370183Y-85202346D01*
X195365963Y-85199760D01*
X195361393Y-85197867D01*
X195361389Y-85197865D01*
X195151167Y-85110789D01*
X195151165Y-85110788D01*
X195146594Y-85108895D01*
X195066391Y-85089640D01*
X194920524Y-85054620D01*
X194920518Y-85054619D01*
X194915711Y-85053465D01*
X194679000Y-85034835D01*
X194442289Y-85053465D01*
X194437482Y-85054619D01*
X194437476Y-85054620D01*
X194291609Y-85089640D01*
X194211406Y-85108895D01*
X194206835Y-85110788D01*
X194206833Y-85110789D01*
X193996611Y-85197865D01*
X193996607Y-85197867D01*
X193992037Y-85199760D01*
X193987817Y-85202346D01*
X193793798Y-85321241D01*
X193793792Y-85321245D01*
X193789584Y-85323824D01*
X193609031Y-85478031D01*
X193454824Y-85658584D01*
X193452245Y-85662792D01*
X193452241Y-85662798D01*
X193333346Y-85856817D01*
X193330760Y-85861037D01*
X193239895Y-86080406D01*
X193238740Y-86085218D01*
X193213434Y-86190626D01*
X193184465Y-86311289D01*
X193165835Y-86548000D01*
X187072165Y-86548000D01*
X187053535Y-86311289D01*
X187024567Y-86190626D01*
X186999260Y-86085218D01*
X186998105Y-86080406D01*
X186907240Y-85861037D01*
X186904654Y-85856817D01*
X186785759Y-85662798D01*
X186785755Y-85662792D01*
X186783176Y-85658584D01*
X186628969Y-85478031D01*
X186448416Y-85323824D01*
X186444208Y-85321245D01*
X186444202Y-85321241D01*
X186250183Y-85202346D01*
X186245963Y-85199760D01*
X186241393Y-85197867D01*
X186241389Y-85197865D01*
X186031167Y-85110789D01*
X186031165Y-85110788D01*
X186026594Y-85108895D01*
X185946391Y-85089640D01*
X185800524Y-85054620D01*
X185800518Y-85054619D01*
X185795711Y-85053465D01*
X185559000Y-85034835D01*
X185322289Y-85053465D01*
X185317482Y-85054619D01*
X185317476Y-85054620D01*
X185171609Y-85089640D01*
X185091406Y-85108895D01*
X185086835Y-85110788D01*
X185086833Y-85110789D01*
X184876611Y-85197865D01*
X184876607Y-85197867D01*
X184872037Y-85199760D01*
X184867817Y-85202346D01*
X184673798Y-85321241D01*
X184673792Y-85321245D01*
X184669584Y-85323824D01*
X184489031Y-85478031D01*
X184334824Y-85658584D01*
X184332245Y-85662792D01*
X184332241Y-85662798D01*
X184213346Y-85856817D01*
X184210760Y-85861037D01*
X184119895Y-86080406D01*
X184118740Y-86085218D01*
X184093434Y-86190626D01*
X184064465Y-86311289D01*
X184045835Y-86548000D01*
X176723391Y-86548000D01*
X177543910Y-85727481D01*
X177581756Y-85701469D01*
X177742722Y-85629803D01*
X177742724Y-85629802D01*
X177748752Y-85627118D01*
X177774104Y-85608699D01*
X177804157Y-85586864D01*
X177903253Y-85514866D01*
X177907675Y-85509955D01*
X178026621Y-85377852D01*
X178026622Y-85377851D01*
X178031040Y-85372944D01*
X178126527Y-85207556D01*
X178185542Y-85025928D01*
X178205504Y-84836000D01*
X178204814Y-84829435D01*
X178186232Y-84652635D01*
X178186232Y-84652633D01*
X178185542Y-84646072D01*
X178126527Y-84464444D01*
X178031040Y-84299056D01*
X177903253Y-84157134D01*
X177764469Y-84056301D01*
X177754094Y-84048763D01*
X177754093Y-84048762D01*
X177748752Y-84044882D01*
X177742724Y-84042198D01*
X177742722Y-84042197D01*
X177580319Y-83969891D01*
X177580318Y-83969891D01*
X177574288Y-83967206D01*
X177479848Y-83947132D01*
X177393944Y-83928872D01*
X177393939Y-83928872D01*
X177387487Y-83927500D01*
X177196513Y-83927500D01*
X177190061Y-83928872D01*
X177190056Y-83928872D01*
X177104152Y-83947132D01*
X177009712Y-83967206D01*
X177003682Y-83969891D01*
X177003681Y-83969891D01*
X176841278Y-84042197D01*
X176841276Y-84042198D01*
X176835248Y-84044882D01*
X176829907Y-84048762D01*
X176829906Y-84048763D01*
X176819531Y-84056301D01*
X176680747Y-84157134D01*
X176552960Y-84299056D01*
X176457473Y-84464444D01*
X176455433Y-84470724D01*
X176455432Y-84470725D01*
X176436646Y-84528542D01*
X176405908Y-84578700D01*
X171011842Y-89972766D01*
X171010905Y-89973694D01*
X170946493Y-90036771D01*
X170923002Y-90073221D01*
X170915583Y-90083546D01*
X170888524Y-90117443D01*
X170885459Y-90123784D01*
X170885458Y-90123785D01*
X170873928Y-90147637D01*
X170866399Y-90161054D01*
X170848235Y-90189238D01*
X170845827Y-90195855D01*
X170845824Y-90195860D01*
X170833408Y-90229973D01*
X170828447Y-90241716D01*
X170812646Y-90274403D01*
X170812644Y-90274408D01*
X170809579Y-90280749D01*
X170802587Y-90311037D01*
X170802035Y-90313426D01*
X170797668Y-90328169D01*
X170786197Y-90359685D01*
X170785314Y-90366675D01*
X170785312Y-90366683D01*
X170780762Y-90402701D01*
X170778526Y-90415253D01*
X170768776Y-90457485D01*
X170768751Y-90464531D01*
X170768751Y-90464534D01*
X170768634Y-90498056D01*
X170768605Y-90498938D01*
X170768500Y-90499769D01*
X170768500Y-90536572D01*
X170768143Y-90638870D01*
X170768411Y-90640070D01*
X170768500Y-90641707D01*
X170768500Y-93783603D01*
X170751620Y-93846602D01*
X170742473Y-93862444D01*
X170683458Y-94044072D01*
X170682768Y-94050633D01*
X170682768Y-94050635D01*
X170665888Y-94211241D01*
X170663496Y-94234000D01*
X149987000Y-94234000D01*
X151130000Y-93091000D01*
X151130000Y-88762343D01*
X153287775Y-88762343D01*
X153304381Y-88931699D01*
X153306605Y-88938384D01*
X153306605Y-88938385D01*
X153314735Y-88962825D01*
X153358094Y-89093167D01*
X153361741Y-89099189D01*
X153361742Y-89099191D01*
X153375497Y-89121902D01*
X153446246Y-89238723D01*
X153564455Y-89361132D01*
X153570351Y-89364990D01*
X153668647Y-89429313D01*
X153706846Y-89454310D01*
X153713450Y-89456766D01*
X153713452Y-89456767D01*
X153749844Y-89470301D01*
X153866341Y-89513626D01*
X154035015Y-89536132D01*
X154042026Y-89535494D01*
X154042030Y-89535494D01*
X154197462Y-89521348D01*
X154204483Y-89520709D01*
X154211185Y-89518531D01*
X154211187Y-89518531D01*
X154359623Y-89470301D01*
X154359626Y-89470300D01*
X154366322Y-89468124D01*
X154512490Y-89380990D01*
X154517584Y-89376139D01*
X154517588Y-89376136D01*
X154584833Y-89312099D01*
X154635721Y-89263639D01*
X154729891Y-89121902D01*
X154790319Y-88962825D01*
X154814001Y-88794313D01*
X154814299Y-88773000D01*
X154795331Y-88603892D01*
X154739368Y-88443189D01*
X154733383Y-88433610D01*
X154711420Y-88398464D01*
X154649192Y-88298879D01*
X154529286Y-88178132D01*
X154513039Y-88167821D01*
X154474406Y-88143304D01*
X154385608Y-88086951D01*
X154225300Y-88029868D01*
X154056329Y-88009720D01*
X154049326Y-88010456D01*
X154049325Y-88010456D01*
X153894101Y-88026770D01*
X153894097Y-88026771D01*
X153887093Y-88027507D01*
X153880422Y-88029778D01*
X153732673Y-88080075D01*
X153732670Y-88080076D01*
X153726003Y-88082346D01*
X153720005Y-88086036D01*
X153720003Y-88086037D01*
X153587065Y-88167821D01*
X153587063Y-88167823D01*
X153581066Y-88171512D01*
X153459486Y-88290573D01*
X153367304Y-88433610D01*
X153309103Y-88593516D01*
X153287775Y-88762343D01*
X151130000Y-88762343D01*
X151130000Y-88063190D01*
X151150002Y-87995069D01*
X151166905Y-87974095D01*
X151765000Y-87376000D01*
X151765000Y-83348343D01*
X169697775Y-83348343D01*
X169714381Y-83517699D01*
X169768094Y-83679167D01*
X169771741Y-83685189D01*
X169771742Y-83685191D01*
X169845118Y-83806348D01*
X169856246Y-83824723D01*
X169974455Y-83947132D01*
X170116846Y-84040310D01*
X170123450Y-84042766D01*
X170123452Y-84042767D01*
X170159844Y-84056301D01*
X170276341Y-84099626D01*
X170445015Y-84122132D01*
X170452026Y-84121494D01*
X170452030Y-84121494D01*
X170607462Y-84107348D01*
X170614483Y-84106709D01*
X170621185Y-84104531D01*
X170621187Y-84104531D01*
X170769623Y-84056301D01*
X170769626Y-84056300D01*
X170776322Y-84054124D01*
X170922490Y-83966990D01*
X170927584Y-83962139D01*
X170927588Y-83962136D01*
X171036207Y-83858699D01*
X171045721Y-83849639D01*
X171081247Y-83796169D01*
X171108399Y-83755301D01*
X171139891Y-83707902D01*
X171200319Y-83548825D01*
X171224001Y-83380313D01*
X171224299Y-83359000D01*
X171205331Y-83189892D01*
X171155690Y-83047343D01*
X171956775Y-83047343D01*
X171973381Y-83216699D01*
X172027094Y-83378167D01*
X172030741Y-83384189D01*
X172030742Y-83384191D01*
X172048052Y-83412773D01*
X172115246Y-83523723D01*
X172233455Y-83646132D01*
X172299488Y-83689343D01*
X172348344Y-83721313D01*
X172375846Y-83739310D01*
X172382450Y-83741766D01*
X172382452Y-83741767D01*
X172418844Y-83755301D01*
X172535341Y-83798626D01*
X172704015Y-83821132D01*
X172711026Y-83820494D01*
X172711030Y-83820494D01*
X172866462Y-83806348D01*
X172873483Y-83805709D01*
X172880185Y-83803531D01*
X172880187Y-83803531D01*
X173028623Y-83755301D01*
X173028626Y-83755300D01*
X173035322Y-83753124D01*
X173181490Y-83665990D01*
X173186584Y-83661139D01*
X173186588Y-83661136D01*
X173253833Y-83597099D01*
X173304721Y-83548639D01*
X173320836Y-83524385D01*
X173394990Y-83412773D01*
X173398891Y-83406902D01*
X173459319Y-83247825D01*
X173483001Y-83079313D01*
X173483299Y-83058000D01*
X173464331Y-82888892D01*
X173408368Y-82728189D01*
X173402383Y-82718610D01*
X173380420Y-82683464D01*
X173318192Y-82583879D01*
X173198286Y-82463132D01*
X173182039Y-82452821D01*
X173140024Y-82426158D01*
X173054608Y-82371951D01*
X172894300Y-82314868D01*
X172725329Y-82294720D01*
X172718326Y-82295456D01*
X172718325Y-82295456D01*
X172563101Y-82311770D01*
X172563097Y-82311771D01*
X172556093Y-82312507D01*
X172549422Y-82314778D01*
X172401673Y-82365075D01*
X172401670Y-82365076D01*
X172395003Y-82367346D01*
X172389005Y-82371036D01*
X172389003Y-82371037D01*
X172256065Y-82452821D01*
X172256063Y-82452823D01*
X172250066Y-82456512D01*
X172245033Y-82461441D01*
X172135129Y-82569068D01*
X172128486Y-82575573D01*
X172124675Y-82581487D01*
X172124673Y-82581489D01*
X172049774Y-82697709D01*
X172036304Y-82718610D01*
X171978103Y-82878516D01*
X171956775Y-83047343D01*
X171155690Y-83047343D01*
X171149368Y-83029189D01*
X171143383Y-83019610D01*
X171066073Y-82895891D01*
X171059192Y-82884879D01*
X171046301Y-82871897D01*
X170944248Y-82769129D01*
X170939286Y-82764132D01*
X170923039Y-82753821D01*
X170882649Y-82728189D01*
X170795608Y-82672951D01*
X170635300Y-82615868D01*
X170466329Y-82595720D01*
X170459326Y-82596456D01*
X170459325Y-82596456D01*
X170304101Y-82612770D01*
X170304097Y-82612771D01*
X170297093Y-82613507D01*
X170290422Y-82615778D01*
X170142673Y-82666075D01*
X170142670Y-82666076D01*
X170136003Y-82668346D01*
X170130005Y-82672036D01*
X170130003Y-82672037D01*
X169997065Y-82753821D01*
X169997063Y-82753823D01*
X169991066Y-82757512D01*
X169869486Y-82876573D01*
X169865675Y-82882487D01*
X169865673Y-82882489D01*
X169783919Y-83009346D01*
X169777304Y-83019610D01*
X169719103Y-83179516D01*
X169697775Y-83348343D01*
X151765000Y-83348343D01*
X151765000Y-80481943D01*
X154862575Y-80481943D01*
X154879181Y-80651299D01*
X154932894Y-80812767D01*
X154936541Y-80818789D01*
X154936542Y-80818791D01*
X155003114Y-80928713D01*
X155021046Y-80958323D01*
X155139255Y-81080732D01*
X155145151Y-81084590D01*
X155274918Y-81169507D01*
X155281646Y-81173910D01*
X155288250Y-81176366D01*
X155288252Y-81176367D01*
X155361394Y-81203568D01*
X155441141Y-81233226D01*
X155446057Y-81233882D01*
X155503911Y-81266615D01*
X156544543Y-82307247D01*
X156552087Y-82315537D01*
X156556200Y-82322018D01*
X156561977Y-82327443D01*
X156605867Y-82368658D01*
X156608709Y-82371413D01*
X156628430Y-82391134D01*
X156631625Y-82393612D01*
X156640647Y-82401318D01*
X156672879Y-82431586D01*
X156679828Y-82435406D01*
X156690632Y-82441346D01*
X156707156Y-82452199D01*
X156723159Y-82464613D01*
X156763743Y-82482176D01*
X156774373Y-82487383D01*
X156813140Y-82508695D01*
X156820817Y-82510666D01*
X156820822Y-82510668D01*
X156832758Y-82513732D01*
X156851466Y-82520137D01*
X156870055Y-82528181D01*
X156877880Y-82529420D01*
X156877882Y-82529421D01*
X156913719Y-82535097D01*
X156925340Y-82537504D01*
X156960489Y-82546528D01*
X156968170Y-82548500D01*
X156988431Y-82548500D01*
X157008140Y-82550051D01*
X157028143Y-82553219D01*
X157036035Y-82552473D01*
X157041262Y-82551979D01*
X157072154Y-82549059D01*
X157084011Y-82548500D01*
X160327223Y-82548500D01*
X160396216Y-82569068D01*
X160418850Y-82583879D01*
X160437846Y-82596310D01*
X160444450Y-82598766D01*
X160444452Y-82598767D01*
X160496795Y-82618233D01*
X160597341Y-82655626D01*
X160766015Y-82678132D01*
X160773026Y-82677494D01*
X160773030Y-82677494D01*
X160928462Y-82663348D01*
X160935483Y-82662709D01*
X160942185Y-82660531D01*
X160942187Y-82660531D01*
X161090623Y-82612301D01*
X161090626Y-82612300D01*
X161097322Y-82610124D01*
X161243490Y-82522990D01*
X161248584Y-82518139D01*
X161248588Y-82518136D01*
X161317828Y-82452199D01*
X161366721Y-82405639D01*
X161372296Y-82397249D01*
X161428598Y-82312507D01*
X161460891Y-82263902D01*
X161520113Y-82108000D01*
X184045835Y-82108000D01*
X184064465Y-82344711D01*
X184065619Y-82349518D01*
X184065620Y-82349524D01*
X184098719Y-82487390D01*
X184119895Y-82575594D01*
X184121788Y-82580165D01*
X184121789Y-82580167D01*
X184196426Y-82760357D01*
X184210760Y-82794963D01*
X184213346Y-82799183D01*
X184332241Y-82993202D01*
X184332245Y-82993208D01*
X184334824Y-82997416D01*
X184489031Y-83177969D01*
X184492787Y-83181177D01*
X184502991Y-83189892D01*
X184669584Y-83332176D01*
X184673792Y-83334755D01*
X184673798Y-83334759D01*
X184867817Y-83453654D01*
X184872037Y-83456240D01*
X184876607Y-83458133D01*
X184876611Y-83458135D01*
X185047182Y-83528787D01*
X185091406Y-83547105D01*
X185126016Y-83555414D01*
X185317476Y-83601380D01*
X185317482Y-83601381D01*
X185322289Y-83602535D01*
X185559000Y-83621165D01*
X185795711Y-83602535D01*
X185800518Y-83601381D01*
X185800524Y-83601380D01*
X185991984Y-83555414D01*
X186026594Y-83547105D01*
X186070818Y-83528787D01*
X186241389Y-83458135D01*
X186241393Y-83458133D01*
X186245963Y-83456240D01*
X186250183Y-83453654D01*
X186444202Y-83334759D01*
X186444208Y-83334755D01*
X186448416Y-83332176D01*
X186615009Y-83189892D01*
X186625213Y-83181177D01*
X186628969Y-83177969D01*
X186783176Y-82997416D01*
X186785755Y-82993208D01*
X186785759Y-82993202D01*
X186904654Y-82799183D01*
X186907240Y-82794963D01*
X186921575Y-82760357D01*
X186996211Y-82580167D01*
X186996212Y-82580165D01*
X186998105Y-82575594D01*
X187019281Y-82487390D01*
X187052380Y-82349524D01*
X187052381Y-82349518D01*
X187053535Y-82344711D01*
X187072165Y-82108000D01*
X193165835Y-82108000D01*
X193184465Y-82344711D01*
X193185619Y-82349518D01*
X193185620Y-82349524D01*
X193218719Y-82487390D01*
X193239895Y-82575594D01*
X193241788Y-82580165D01*
X193241789Y-82580167D01*
X193316426Y-82760357D01*
X193330760Y-82794963D01*
X193333346Y-82799183D01*
X193452241Y-82993202D01*
X193452245Y-82993208D01*
X193454824Y-82997416D01*
X193609031Y-83177969D01*
X193612787Y-83181177D01*
X193622991Y-83189892D01*
X193789584Y-83332176D01*
X193793792Y-83334755D01*
X193793798Y-83334759D01*
X193987817Y-83453654D01*
X193992037Y-83456240D01*
X193996607Y-83458133D01*
X193996611Y-83458135D01*
X194167182Y-83528787D01*
X194211406Y-83547105D01*
X194246016Y-83555414D01*
X194437476Y-83601380D01*
X194437482Y-83601381D01*
X194442289Y-83602535D01*
X194679000Y-83621165D01*
X194915711Y-83602535D01*
X194920518Y-83601381D01*
X194920524Y-83601380D01*
X195111984Y-83555414D01*
X195146594Y-83547105D01*
X195190818Y-83528787D01*
X195361389Y-83458135D01*
X195361393Y-83458133D01*
X195365963Y-83456240D01*
X195370183Y-83453654D01*
X195564202Y-83334759D01*
X195564208Y-83334755D01*
X195568416Y-83332176D01*
X195735009Y-83189892D01*
X195745213Y-83181177D01*
X195748969Y-83177969D01*
X195903176Y-82997416D01*
X195905755Y-82993208D01*
X195905759Y-82993202D01*
X196024654Y-82799183D01*
X196027240Y-82794963D01*
X196041575Y-82760357D01*
X196116211Y-82580167D01*
X196116212Y-82580165D01*
X196118105Y-82575594D01*
X196139281Y-82487390D01*
X196172380Y-82349524D01*
X196172381Y-82349518D01*
X196173535Y-82344711D01*
X196192165Y-82108000D01*
X196173535Y-81871289D01*
X196118105Y-81640406D01*
X196035459Y-81440879D01*
X196029135Y-81425611D01*
X196029133Y-81425607D01*
X196027240Y-81421037D01*
X195986853Y-81355132D01*
X195905759Y-81222798D01*
X195905755Y-81222792D01*
X195903176Y-81218584D01*
X195748969Y-81038031D01*
X195568416Y-80883824D01*
X195564208Y-80881245D01*
X195564202Y-80881241D01*
X195370183Y-80762346D01*
X195365963Y-80759760D01*
X195361393Y-80757867D01*
X195361389Y-80757865D01*
X195151167Y-80670789D01*
X195151165Y-80670788D01*
X195146594Y-80668895D01*
X195044107Y-80644290D01*
X194920524Y-80614620D01*
X194920518Y-80614619D01*
X194915711Y-80613465D01*
X194679000Y-80594835D01*
X194442289Y-80613465D01*
X194437482Y-80614619D01*
X194437476Y-80614620D01*
X194313893Y-80644290D01*
X194211406Y-80668895D01*
X194206835Y-80670788D01*
X194206833Y-80670789D01*
X193996611Y-80757865D01*
X193996607Y-80757867D01*
X193992037Y-80759760D01*
X193987817Y-80762346D01*
X193793798Y-80881241D01*
X193793792Y-80881245D01*
X193789584Y-80883824D01*
X193609031Y-81038031D01*
X193454824Y-81218584D01*
X193452245Y-81222792D01*
X193452241Y-81222798D01*
X193371147Y-81355132D01*
X193330760Y-81421037D01*
X193328867Y-81425607D01*
X193328865Y-81425611D01*
X193322541Y-81440879D01*
X193239895Y-81640406D01*
X193184465Y-81871289D01*
X193165835Y-82108000D01*
X187072165Y-82108000D01*
X187053535Y-81871289D01*
X186998105Y-81640406D01*
X186915459Y-81440879D01*
X186909135Y-81425611D01*
X186909133Y-81425607D01*
X186907240Y-81421037D01*
X186866853Y-81355132D01*
X186785759Y-81222798D01*
X186785755Y-81222792D01*
X186783176Y-81218584D01*
X186628969Y-81038031D01*
X186448416Y-80883824D01*
X186444208Y-80881245D01*
X186444202Y-80881241D01*
X186250183Y-80762346D01*
X186245963Y-80759760D01*
X186241393Y-80757867D01*
X186241389Y-80757865D01*
X186031167Y-80670789D01*
X186031165Y-80670788D01*
X186026594Y-80668895D01*
X185924107Y-80644290D01*
X185800524Y-80614620D01*
X185800518Y-80614619D01*
X185795711Y-80613465D01*
X185559000Y-80594835D01*
X185322289Y-80613465D01*
X185317482Y-80614619D01*
X185317476Y-80614620D01*
X185193893Y-80644290D01*
X185091406Y-80668895D01*
X185086835Y-80670788D01*
X185086833Y-80670789D01*
X184876611Y-80757865D01*
X184876607Y-80757867D01*
X184872037Y-80759760D01*
X184867817Y-80762346D01*
X184673798Y-80881241D01*
X184673792Y-80881245D01*
X184669584Y-80883824D01*
X184489031Y-81038031D01*
X184334824Y-81218584D01*
X184332245Y-81222792D01*
X184332241Y-81222798D01*
X184251147Y-81355132D01*
X184210760Y-81421037D01*
X184208867Y-81425607D01*
X184208865Y-81425611D01*
X184202541Y-81440879D01*
X184119895Y-81640406D01*
X184064465Y-81871289D01*
X184045835Y-82108000D01*
X161520113Y-82108000D01*
X161521319Y-82104825D01*
X161545001Y-81936313D01*
X161545299Y-81915000D01*
X161526331Y-81745892D01*
X161470368Y-81585189D01*
X161380192Y-81440879D01*
X161260286Y-81320132D01*
X161116608Y-81228951D01*
X160956300Y-81171868D01*
X160787329Y-81151720D01*
X160780326Y-81152456D01*
X160780325Y-81152456D01*
X160625101Y-81168770D01*
X160625097Y-81168771D01*
X160618093Y-81169507D01*
X160457003Y-81224346D01*
X160394468Y-81262818D01*
X160328448Y-81281500D01*
X157362795Y-81281500D01*
X157294674Y-81261498D01*
X157273700Y-81244595D01*
X156399905Y-80370800D01*
X156370009Y-80323142D01*
X156364009Y-80305912D01*
X156314168Y-80162789D01*
X156308183Y-80153210D01*
X156286220Y-80118064D01*
X156223992Y-80018479D01*
X156104086Y-79897732D01*
X156087839Y-79887421D01*
X156045591Y-79860610D01*
X155960408Y-79806551D01*
X155800100Y-79749468D01*
X155631129Y-79729320D01*
X155624126Y-79730056D01*
X155624125Y-79730056D01*
X155468901Y-79746370D01*
X155468897Y-79746371D01*
X155461893Y-79747107D01*
X155455222Y-79749378D01*
X155307473Y-79799675D01*
X155307470Y-79799676D01*
X155300803Y-79801946D01*
X155294805Y-79805636D01*
X155294803Y-79805637D01*
X155161865Y-79887421D01*
X155161863Y-79887423D01*
X155155866Y-79891112D01*
X155034286Y-80010173D01*
X154942104Y-80153210D01*
X154883903Y-80313116D01*
X154862575Y-80481943D01*
X151765000Y-80481943D01*
X151765000Y-72897500D01*
X151785002Y-72829379D01*
X151838658Y-72782886D01*
X151891000Y-72771500D01*
X199390500Y-72771500D01*
X199458621Y-72791502D01*
G37*
%TD.AperFunction*%
%TD*%
M02*
