%TF.GenerationSoftware,KiCad,Pcbnew,(6.0.11)*%
%TF.CreationDate,2023-07-03T20:40:41+10:00*%
%TF.ProjectId,LV_MASTER_A_SAMPLE,4c565f4d-4153-4544-9552-5f415f53414d,1*%
%TF.SameCoordinates,Original*%
%TF.FileFunction,Legend,Bot*%
%TF.FilePolarity,Positive*%
%FSLAX46Y46*%
G04 Gerber Fmt 4.6, Leading zero omitted, Abs format (unit mm)*
G04 Created by KiCad (PCBNEW (6.0.11)) date 2023-07-03 20:40:41*
%MOMM*%
%LPD*%
G01*
G04 APERTURE LIST*
%ADD10C,0.150000*%
%ADD11C,0.260000*%
%ADD12C,0.254000*%
%ADD13C,0.120000*%
%ADD14C,0.200000*%
%ADD15C,0.300000*%
%ADD16C,0.100000*%
G04 APERTURE END LIST*
D10*
X118085952Y-84304142D02*
X118133571Y-84351761D01*
X118276428Y-84399380D01*
X118371666Y-84399380D01*
X118514523Y-84351761D01*
X118609761Y-84256523D01*
X118657380Y-84161285D01*
X118705000Y-83970809D01*
X118705000Y-83827952D01*
X118657380Y-83637476D01*
X118609761Y-83542238D01*
X118514523Y-83447000D01*
X118371666Y-83399380D01*
X118276428Y-83399380D01*
X118133571Y-83447000D01*
X118085952Y-83494619D01*
X117705000Y-84113666D02*
X117228809Y-84113666D01*
X117800238Y-84399380D02*
X117466904Y-83399380D01*
X117133571Y-84399380D01*
X116800238Y-84399380D02*
X116800238Y-83399380D01*
X116228809Y-84399380D01*
X116228809Y-83399380D01*
X115990714Y-84494619D02*
X115228809Y-84494619D01*
X115133571Y-83399380D02*
X114562142Y-83399380D01*
X114847857Y-84399380D02*
X114847857Y-83399380D01*
X114324047Y-83399380D02*
X113657380Y-84399380D01*
X113657380Y-83399380D02*
X114324047Y-84399380D01*
X134048238Y-88209380D02*
X134048238Y-87209380D01*
X133667285Y-87209380D01*
X133572047Y-87257000D01*
X133524428Y-87304619D01*
X133476809Y-87399857D01*
X133476809Y-87542714D01*
X133524428Y-87637952D01*
X133572047Y-87685571D01*
X133667285Y-87733190D01*
X134048238Y-87733190D01*
X132476809Y-88114142D02*
X132524428Y-88161761D01*
X132667285Y-88209380D01*
X132762523Y-88209380D01*
X132905380Y-88161761D01*
X133000619Y-88066523D01*
X133048238Y-87971285D01*
X133095857Y-87780809D01*
X133095857Y-87637952D01*
X133048238Y-87447476D01*
X133000619Y-87352238D01*
X132905380Y-87257000D01*
X132762523Y-87209380D01*
X132667285Y-87209380D01*
X132524428Y-87257000D01*
X132476809Y-87304619D01*
X132286333Y-88304619D02*
X131524428Y-88304619D01*
X130762523Y-88209380D02*
X131333952Y-88209380D01*
X131048238Y-88209380D02*
X131048238Y-87209380D01*
X131143476Y-87352238D01*
X131238714Y-87447476D01*
X131333952Y-87495095D01*
X130429190Y-87209380D02*
X129810142Y-87209380D01*
X130143476Y-87590333D01*
X130000619Y-87590333D01*
X129905380Y-87637952D01*
X129857761Y-87685571D01*
X129810142Y-87780809D01*
X129810142Y-88018904D01*
X129857761Y-88114142D01*
X129905380Y-88161761D01*
X130000619Y-88209380D01*
X130286333Y-88209380D01*
X130381571Y-88161761D01*
X130429190Y-88114142D01*
X118205000Y-86717142D02*
X118252619Y-86764761D01*
X118395476Y-86812380D01*
X118490714Y-86812380D01*
X118633571Y-86764761D01*
X118728809Y-86669523D01*
X118776428Y-86574285D01*
X118824047Y-86383809D01*
X118824047Y-86240952D01*
X118776428Y-86050476D01*
X118728809Y-85955238D01*
X118633571Y-85860000D01*
X118490714Y-85812380D01*
X118395476Y-85812380D01*
X118252619Y-85860000D01*
X118205000Y-85907619D01*
X117824047Y-86526666D02*
X117347857Y-86526666D01*
X117919285Y-86812380D02*
X117585952Y-85812380D01*
X117252619Y-86812380D01*
X116919285Y-86812380D02*
X116919285Y-85812380D01*
X116347857Y-86812380D01*
X116347857Y-85812380D01*
X116109761Y-86907619D02*
X115347857Y-86907619D01*
X114538333Y-86812380D02*
X114871666Y-86336190D01*
X115109761Y-86812380D02*
X115109761Y-85812380D01*
X114728809Y-85812380D01*
X114633571Y-85860000D01*
X114585952Y-85907619D01*
X114538333Y-86002857D01*
X114538333Y-86145714D01*
X114585952Y-86240952D01*
X114633571Y-86288571D01*
X114728809Y-86336190D01*
X115109761Y-86336190D01*
X114205000Y-85812380D02*
X113538333Y-86812380D01*
X113538333Y-85812380D02*
X114205000Y-86812380D01*
X115133428Y-93019285D02*
X115085809Y-92876428D01*
X115038190Y-92828809D01*
X114942952Y-92781190D01*
X114800095Y-92781190D01*
X114704857Y-92828809D01*
X114657238Y-92876428D01*
X114609619Y-92971666D01*
X114609619Y-93352619D01*
X115609619Y-93352619D01*
X115609619Y-93019285D01*
X115562000Y-92924047D01*
X115514380Y-92876428D01*
X115419142Y-92828809D01*
X115323904Y-92828809D01*
X115228666Y-92876428D01*
X115181047Y-92924047D01*
X115133428Y-93019285D01*
X115133428Y-93352619D01*
X115609619Y-92162142D02*
X115609619Y-91971666D01*
X115562000Y-91876428D01*
X115466761Y-91781190D01*
X115276285Y-91733571D01*
X114942952Y-91733571D01*
X114752476Y-91781190D01*
X114657238Y-91876428D01*
X114609619Y-91971666D01*
X114609619Y-92162142D01*
X114657238Y-92257380D01*
X114752476Y-92352619D01*
X114942952Y-92400238D01*
X115276285Y-92400238D01*
X115466761Y-92352619D01*
X115562000Y-92257380D01*
X115609619Y-92162142D01*
X115609619Y-91114523D02*
X115609619Y-90924047D01*
X115562000Y-90828809D01*
X115466761Y-90733571D01*
X115276285Y-90685952D01*
X114942952Y-90685952D01*
X114752476Y-90733571D01*
X114657238Y-90828809D01*
X114609619Y-90924047D01*
X114609619Y-91114523D01*
X114657238Y-91209761D01*
X114752476Y-91305000D01*
X114942952Y-91352619D01*
X115276285Y-91352619D01*
X115466761Y-91305000D01*
X115562000Y-91209761D01*
X115609619Y-91114523D01*
X115609619Y-90400238D02*
X115609619Y-89828809D01*
X114609619Y-90114523D02*
X115609619Y-90114523D01*
X115609619Y-88543095D02*
X115609619Y-88447857D01*
X115562000Y-88352619D01*
X115514380Y-88305000D01*
X115419142Y-88257380D01*
X115228666Y-88209761D01*
X114990571Y-88209761D01*
X114800095Y-88257380D01*
X114704857Y-88305000D01*
X114657238Y-88352619D01*
X114609619Y-88447857D01*
X114609619Y-88543095D01*
X114657238Y-88638333D01*
X114704857Y-88685952D01*
X114800095Y-88733571D01*
X114990571Y-88781190D01*
X115228666Y-88781190D01*
X115419142Y-88733571D01*
X115514380Y-88685952D01*
X115562000Y-88638333D01*
X115609619Y-88543095D01*
X112339428Y-93019285D02*
X112291809Y-92876428D01*
X112244190Y-92828809D01*
X112148952Y-92781190D01*
X112006095Y-92781190D01*
X111910857Y-92828809D01*
X111863238Y-92876428D01*
X111815619Y-92971666D01*
X111815619Y-93352619D01*
X112815619Y-93352619D01*
X112815619Y-93019285D01*
X112768000Y-92924047D01*
X112720380Y-92876428D01*
X112625142Y-92828809D01*
X112529904Y-92828809D01*
X112434666Y-92876428D01*
X112387047Y-92924047D01*
X112339428Y-93019285D01*
X112339428Y-93352619D01*
X112815619Y-92162142D02*
X112815619Y-91971666D01*
X112768000Y-91876428D01*
X112672761Y-91781190D01*
X112482285Y-91733571D01*
X112148952Y-91733571D01*
X111958476Y-91781190D01*
X111863238Y-91876428D01*
X111815619Y-91971666D01*
X111815619Y-92162142D01*
X111863238Y-92257380D01*
X111958476Y-92352619D01*
X112148952Y-92400238D01*
X112482285Y-92400238D01*
X112672761Y-92352619D01*
X112768000Y-92257380D01*
X112815619Y-92162142D01*
X112815619Y-91114523D02*
X112815619Y-90924047D01*
X112768000Y-90828809D01*
X112672761Y-90733571D01*
X112482285Y-90685952D01*
X112148952Y-90685952D01*
X111958476Y-90733571D01*
X111863238Y-90828809D01*
X111815619Y-90924047D01*
X111815619Y-91114523D01*
X111863238Y-91209761D01*
X111958476Y-91305000D01*
X112148952Y-91352619D01*
X112482285Y-91352619D01*
X112672761Y-91305000D01*
X112768000Y-91209761D01*
X112815619Y-91114523D01*
X112815619Y-90400238D02*
X112815619Y-89828809D01*
X111815619Y-90114523D02*
X112815619Y-90114523D01*
X111815619Y-88209761D02*
X111815619Y-88781190D01*
X111815619Y-88495476D02*
X112815619Y-88495476D01*
X112672761Y-88590714D01*
X112577523Y-88685952D01*
X112529904Y-88781190D01*
D11*
X161458330Y-117214119D02*
X161982139Y-117214119D01*
X161844639Y-116114119D01*
X161111306Y-116114119D02*
X160882139Y-117214119D01*
X160377973Y-116114119D01*
X158872020Y-116637928D02*
X158721425Y-116690309D01*
X158675592Y-116742690D01*
X158636306Y-116847452D01*
X158655949Y-117004595D01*
X158721425Y-117109357D01*
X158780354Y-117161738D01*
X158891663Y-117214119D01*
X159310711Y-117214119D01*
X159173211Y-116114119D01*
X158806544Y-116114119D01*
X158708330Y-116166500D01*
X158662497Y-116218880D01*
X158623211Y-116323642D01*
X158636306Y-116428404D01*
X158701782Y-116533166D01*
X158760711Y-116585547D01*
X158872020Y-116637928D01*
X159238687Y-116637928D01*
X158210711Y-117214119D02*
X158073211Y-116114119D01*
X157804758Y-116899833D01*
X157339877Y-116114119D01*
X157477377Y-117214119D01*
X156999401Y-117161738D02*
X156848806Y-117214119D01*
X156586901Y-117214119D01*
X156475592Y-117161738D01*
X156416663Y-117109357D01*
X156351187Y-117004595D01*
X156338092Y-116899833D01*
X156377377Y-116795071D01*
X156423211Y-116742690D01*
X156521425Y-116690309D01*
X156724401Y-116637928D01*
X156822616Y-116585547D01*
X156868449Y-116533166D01*
X156907735Y-116428404D01*
X156894639Y-116323642D01*
X156829163Y-116218880D01*
X156770235Y-116166500D01*
X156658925Y-116114119D01*
X156397020Y-116114119D01*
X156246425Y-116166500D01*
X154360711Y-116166500D02*
X154458925Y-116114119D01*
X154616068Y-116114119D01*
X154779758Y-116166500D01*
X154897616Y-116271261D01*
X154963092Y-116376023D01*
X155041663Y-116585547D01*
X155061306Y-116742690D01*
X155035116Y-116952214D01*
X154995830Y-117056976D01*
X154904163Y-117161738D01*
X154753568Y-117214119D01*
X154648806Y-117214119D01*
X154485116Y-117161738D01*
X154426187Y-117109357D01*
X154380354Y-116742690D01*
X154589877Y-116742690D01*
X153895830Y-116637928D02*
X153529163Y-116637928D01*
X153444044Y-117214119D02*
X153967854Y-117214119D01*
X153830354Y-116114119D01*
X153306544Y-116114119D01*
X152972616Y-117214119D02*
X152835116Y-116114119D01*
X152344044Y-117214119D01*
X152206544Y-116114119D01*
X150405949Y-117214119D02*
X151034520Y-117214119D01*
X150720235Y-117214119D02*
X150582735Y-116114119D01*
X150707139Y-116271261D01*
X150824997Y-116376023D01*
X150936306Y-116428404D01*
X149921425Y-117109357D02*
X149875592Y-117161738D01*
X149934520Y-117214119D01*
X149980354Y-117161738D01*
X149921425Y-117109357D01*
X149934520Y-117214119D01*
X149063687Y-116114119D02*
X148958925Y-116114119D01*
X148860711Y-116166500D01*
X148814877Y-116218880D01*
X148775592Y-116323642D01*
X148749401Y-116533166D01*
X148782139Y-116795071D01*
X148860711Y-117004595D01*
X148926187Y-117109357D01*
X148985116Y-117161738D01*
X149096425Y-117214119D01*
X149201187Y-117214119D01*
X149299401Y-117161738D01*
X149345235Y-117109357D01*
X149384520Y-117004595D01*
X149410711Y-116795071D01*
X149377973Y-116533166D01*
X149299401Y-116323642D01*
X149233925Y-116218880D01*
X149174997Y-116166500D01*
X149063687Y-116114119D01*
X148310711Y-116795071D02*
X147472616Y-116795071D01*
X147014282Y-116899833D02*
X146490473Y-116899833D01*
X147158330Y-117214119D02*
X146654163Y-116114119D01*
X146424997Y-117214119D01*
X162217854Y-118985119D02*
X162741663Y-118985119D01*
X162604163Y-117885119D01*
X161838092Y-118880357D02*
X161792258Y-118932738D01*
X161851187Y-118985119D01*
X161897020Y-118932738D01*
X161838092Y-118880357D01*
X161851187Y-118985119D01*
X161327377Y-118985119D02*
X161189877Y-117885119D01*
X160927973Y-117885119D01*
X160777377Y-117937500D01*
X160685711Y-118042261D01*
X160646425Y-118147023D01*
X160620235Y-118356547D01*
X160639877Y-118513690D01*
X160718449Y-118723214D01*
X160783925Y-118827976D01*
X160901782Y-118932738D01*
X161065473Y-118985119D01*
X161327377Y-118985119D01*
X160214282Y-118880357D02*
X160168449Y-118932738D01*
X160227377Y-118985119D01*
X160273211Y-118932738D01*
X160214282Y-118880357D01*
X160227377Y-118985119D01*
X159631544Y-118408928D02*
X159264877Y-118408928D01*
X159179758Y-118985119D02*
X159703568Y-118985119D01*
X159566068Y-117885119D01*
X159042258Y-117885119D01*
X157654163Y-119351785D02*
X157457735Y-117780357D01*
X155637497Y-117885119D02*
X155532735Y-117885119D01*
X155434520Y-117937500D01*
X155388687Y-117989880D01*
X155349401Y-118094642D01*
X155323211Y-118304166D01*
X155355949Y-118566071D01*
X155434520Y-118775595D01*
X155499997Y-118880357D01*
X155558925Y-118932738D01*
X155670235Y-118985119D01*
X155774997Y-118985119D01*
X155873211Y-118932738D01*
X155919044Y-118880357D01*
X155958330Y-118775595D01*
X155984520Y-118566071D01*
X155951782Y-118304166D01*
X155873211Y-118094642D01*
X155807735Y-117989880D01*
X155748806Y-117937500D01*
X155637497Y-117885119D01*
X154373806Y-118251785D02*
X154465473Y-118985119D01*
X154583330Y-117832738D02*
X154943449Y-118618452D01*
X154262497Y-118618452D01*
X152959520Y-117832738D02*
X154079163Y-119247023D01*
X152389877Y-117885119D02*
X152285116Y-117885119D01*
X152186901Y-117937500D01*
X152141068Y-117989880D01*
X152101782Y-118094642D01*
X152075592Y-118304166D01*
X152108330Y-118566071D01*
X152186901Y-118775595D01*
X152252377Y-118880357D01*
X152311306Y-118932738D01*
X152422616Y-118985119D01*
X152527377Y-118985119D01*
X152625592Y-118932738D01*
X152671425Y-118880357D01*
X152710711Y-118775595D01*
X152736901Y-118566071D01*
X152704163Y-118304166D01*
X152625592Y-118094642D01*
X152560116Y-117989880D01*
X152501187Y-117937500D01*
X152389877Y-117885119D01*
X151027973Y-117885119D02*
X151551782Y-117885119D01*
X151669639Y-118408928D01*
X151610711Y-118356547D01*
X151499401Y-118304166D01*
X151237497Y-118304166D01*
X151139282Y-118356547D01*
X151093449Y-118408928D01*
X151054163Y-118513690D01*
X151086901Y-118775595D01*
X151152377Y-118880357D01*
X151211306Y-118932738D01*
X151322616Y-118985119D01*
X151584520Y-118985119D01*
X151682735Y-118932738D01*
X151728568Y-118880357D01*
X149711901Y-117832738D02*
X150831544Y-119247023D01*
X149417258Y-117989880D02*
X149358330Y-117937500D01*
X149247020Y-117885119D01*
X148985116Y-117885119D01*
X148886901Y-117937500D01*
X148841068Y-117989880D01*
X148801782Y-118094642D01*
X148814877Y-118199404D01*
X148886901Y-118356547D01*
X149594044Y-118985119D01*
X148913092Y-118985119D01*
X148094639Y-117885119D02*
X147989877Y-117885119D01*
X147891663Y-117937500D01*
X147845830Y-117989880D01*
X147806544Y-118094642D01*
X147780354Y-118304166D01*
X147813092Y-118566071D01*
X147891663Y-118775595D01*
X147957139Y-118880357D01*
X148016068Y-118932738D01*
X148127377Y-118985119D01*
X148232139Y-118985119D01*
X148330354Y-118932738D01*
X148376187Y-118880357D01*
X148415473Y-118775595D01*
X148441663Y-118566071D01*
X148408925Y-118304166D01*
X148330354Y-118094642D01*
X148264877Y-117989880D01*
X148205949Y-117937500D01*
X148094639Y-117885119D01*
X147322020Y-117989880D02*
X147263092Y-117937500D01*
X147151782Y-117885119D01*
X146889877Y-117885119D01*
X146791663Y-117937500D01*
X146745830Y-117989880D01*
X146706544Y-118094642D01*
X146719639Y-118199404D01*
X146791663Y-118356547D01*
X147498806Y-118985119D01*
X146817854Y-118985119D01*
X146313687Y-117885119D02*
X145632735Y-117885119D01*
X146051782Y-118304166D01*
X145894639Y-118304166D01*
X145796425Y-118356547D01*
X145750592Y-118408928D01*
X145711306Y-118513690D01*
X145744044Y-118775595D01*
X145809520Y-118880357D01*
X145868449Y-118932738D01*
X145979758Y-118985119D01*
X146294044Y-118985119D01*
X146392258Y-118932738D01*
X146438092Y-118880357D01*
D10*
%TO.C,J2*%
X121557438Y-73991180D02*
X121557438Y-74800704D01*
X121509819Y-74895942D01*
X121462200Y-74943561D01*
X121366961Y-74991180D01*
X121176485Y-74991180D01*
X121081247Y-74943561D01*
X121033628Y-74895942D01*
X120986009Y-74800704D01*
X120986009Y-73991180D01*
X120557438Y-74705466D02*
X120081247Y-74705466D01*
X120652676Y-74991180D02*
X120319342Y-73991180D01*
X119986009Y-74991180D01*
X119081247Y-74991180D02*
X119414580Y-74514990D01*
X119652676Y-74991180D02*
X119652676Y-73991180D01*
X119271723Y-73991180D01*
X119176485Y-74038800D01*
X119128866Y-74086419D01*
X119081247Y-74181657D01*
X119081247Y-74324514D01*
X119128866Y-74419752D01*
X119176485Y-74467371D01*
X119271723Y-74514990D01*
X119652676Y-74514990D01*
X118795533Y-73991180D02*
X118224104Y-73991180D01*
X118509819Y-74991180D02*
X118509819Y-73991180D01*
%TO.C,J4*%
X145081333Y-88264761D02*
X144938476Y-88312380D01*
X144700380Y-88312380D01*
X144605142Y-88264761D01*
X144557523Y-88217142D01*
X144509904Y-88121904D01*
X144509904Y-88026666D01*
X144557523Y-87931428D01*
X144605142Y-87883809D01*
X144700380Y-87836190D01*
X144890857Y-87788571D01*
X144986095Y-87740952D01*
X145033714Y-87693333D01*
X145081333Y-87598095D01*
X145081333Y-87502857D01*
X145033714Y-87407619D01*
X144986095Y-87360000D01*
X144890857Y-87312380D01*
X144652761Y-87312380D01*
X144509904Y-87360000D01*
X144224190Y-87312380D02*
X143652761Y-87312380D01*
X143938476Y-88312380D02*
X143938476Y-87312380D01*
X142843238Y-88312380D02*
X143319428Y-88312380D01*
X143319428Y-87312380D01*
X142509904Y-88312380D02*
X142509904Y-87312380D01*
X142033714Y-88312380D02*
X142033714Y-87312380D01*
X141462285Y-88312380D01*
X141462285Y-87312380D01*
X140986095Y-88312380D02*
X140986095Y-87312380D01*
X140414666Y-88312380D02*
X140843238Y-87740952D01*
X140414666Y-87312380D02*
X140986095Y-87883809D01*
D12*
%TO.C,T1*%
X120335523Y-108887380D02*
X120335523Y-109613095D01*
X121605523Y-109250238D02*
X120335523Y-109250238D01*
X121605523Y-110701666D02*
X121605523Y-109975952D01*
X121605523Y-110338809D02*
X120335523Y-110338809D01*
X120516952Y-110217857D01*
X120637904Y-110096904D01*
X120698380Y-109975952D01*
D13*
%TO.C,C13*%
X136782198Y-110787949D02*
X136989051Y-110994802D01*
X136060949Y-111509198D02*
X136267802Y-111716051D01*
%TO.C,C14*%
X140460000Y-90277733D02*
X140460000Y-90570267D01*
X141480000Y-90277733D02*
X141480000Y-90570267D01*
%TO.C,C17*%
X135197457Y-96346990D02*
X134827990Y-96716457D01*
X134158010Y-95307543D02*
X133788543Y-95677010D01*
%TO.C,D1*%
X130055252Y-84936000D02*
X129532748Y-84936000D01*
X130055252Y-83466000D02*
X129532748Y-83466000D01*
%TO.C,J2*%
X133296400Y-76224400D02*
X133296400Y-74894400D01*
X131966400Y-76224400D02*
X133296400Y-76224400D01*
X130696400Y-73564400D02*
X123016400Y-73564400D01*
X130696400Y-76224400D02*
X123016400Y-76224400D01*
X130696400Y-76224400D02*
X130696400Y-73564400D01*
X123016400Y-76224400D02*
X123016400Y-73564400D01*
%TO.C,C19*%
X135925233Y-88564000D02*
X136217767Y-88564000D01*
X135925233Y-87544000D02*
X136217767Y-87544000D01*
%TO.C,D2*%
X121404748Y-86841000D02*
X121927252Y-86841000D01*
X121404748Y-85371000D02*
X121927252Y-85371000D01*
%TO.C,C15*%
X138809000Y-90277733D02*
X138809000Y-90570267D01*
X139829000Y-90277733D02*
X139829000Y-90570267D01*
%TO.C,J1*%
X199214000Y-77328000D02*
X181024000Y-77328000D01*
X181024000Y-77328000D02*
X181024000Y-109108000D01*
X181024000Y-109108000D02*
X199214000Y-109108000D01*
X199214000Y-109108000D02*
X199214000Y-77328000D01*
%TO.C,C50*%
X169271733Y-105031000D02*
X169564267Y-105031000D01*
X169271733Y-104011000D02*
X169564267Y-104011000D01*
%TO.C,R2*%
X121795724Y-88533500D02*
X121286276Y-88533500D01*
X121795724Y-87488500D02*
X121286276Y-87488500D01*
%TO.C,C23*%
X159365733Y-97534000D02*
X159658267Y-97534000D01*
X159365733Y-98554000D02*
X159658267Y-98554000D01*
%TO.C,C24*%
X169331748Y-103048500D02*
X169854252Y-103048500D01*
X169331748Y-101578500D02*
X169854252Y-101578500D01*
%TO.C,R10*%
X129300500Y-98297276D02*
X129300500Y-98806724D01*
X128255500Y-98297276D02*
X128255500Y-98806724D01*
%TO.C,R1*%
X129666276Y-85583500D02*
X130175724Y-85583500D01*
X129666276Y-86628500D02*
X130175724Y-86628500D01*
%TO.C,C49*%
X169271733Y-106043000D02*
X169564267Y-106043000D01*
X169271733Y-107063000D02*
X169564267Y-107063000D01*
%TO.C,C21*%
X174398233Y-84687000D02*
X174690767Y-84687000D01*
X174398233Y-83667000D02*
X174690767Y-83667000D01*
%TO.C,C38*%
X124716000Y-102215733D02*
X124716000Y-102508267D01*
X123696000Y-102215733D02*
X123696000Y-102508267D01*
D12*
%TO.C,C20*%
X160331000Y-84271000D02*
X170631000Y-84271000D01*
X160331000Y-84271000D02*
X160331000Y-80621000D01*
X170631000Y-84271000D02*
X170631000Y-80621000D01*
X170631000Y-73971000D02*
X170631000Y-77621000D01*
X160331000Y-73971000D02*
X160331000Y-77621000D01*
X170631000Y-73971000D02*
X160331000Y-73971000D01*
D14*
%TO.C,F1*%
X180333000Y-98274000D02*
X175413000Y-98274000D01*
D13*
%TO.C,J4*%
X145348000Y-73600000D02*
X145348000Y-74170000D01*
X145348000Y-80770000D02*
X145348000Y-81790000D01*
X145348000Y-86420000D02*
X140148000Y-86420000D01*
X140148000Y-74170000D02*
X138788000Y-74170000D01*
X140148000Y-83310000D02*
X140148000Y-84330000D01*
X145348000Y-78230000D02*
X145348000Y-79250000D01*
X140148000Y-75690000D02*
X140148000Y-76710000D01*
X140148000Y-78230000D02*
X140148000Y-79250000D01*
X145348000Y-85850000D02*
X145348000Y-86420000D01*
X145348000Y-83310000D02*
X145348000Y-84330000D01*
X145348000Y-75690000D02*
X145348000Y-76710000D01*
X145348000Y-73600000D02*
X140148000Y-73600000D01*
X140148000Y-85850000D02*
X140148000Y-86420000D01*
X140148000Y-73600000D02*
X140148000Y-74170000D01*
X140148000Y-80770000D02*
X140148000Y-81790000D01*
%TO.C,C18*%
X135925233Y-86804000D02*
X136217767Y-86804000D01*
X135925233Y-85784000D02*
X136217767Y-85784000D01*
%TO.C,D4*%
X180023000Y-92807000D02*
X180023000Y-87107000D01*
X180023000Y-92807000D02*
X175723000Y-92807000D01*
X175723000Y-92807000D02*
X175723000Y-87107000D01*
%TO.C,D3*%
X121404748Y-83212000D02*
X121927252Y-83212000D01*
X121404748Y-84682000D02*
X121927252Y-84682000D01*
%TO.C,D5*%
X172732000Y-87216000D02*
X174632000Y-87216000D01*
X174632000Y-87216000D02*
X174632000Y-90876000D01*
X172732000Y-87216000D02*
X172732000Y-90876000D01*
%TO.C,R3*%
X121793724Y-82564500D02*
X121284276Y-82564500D01*
X121793724Y-81519500D02*
X121284276Y-81519500D01*
%TO.C,U3*%
X154534000Y-108873500D02*
X154534000Y-100253500D01*
X166255000Y-108873500D02*
X166255000Y-100253500D01*
X154534000Y-100253500D02*
X166255000Y-100253500D01*
X154294000Y-101253500D02*
X154294000Y-100013500D01*
X154534000Y-108873500D02*
X166255000Y-108873500D01*
X154294000Y-100013500D02*
X155534000Y-100013500D01*
%TO.C,U2*%
X136050000Y-89459000D02*
X137850000Y-89459000D01*
X136050000Y-89459000D02*
X135250000Y-89459000D01*
X136050000Y-92579000D02*
X135250000Y-92579000D01*
X136050000Y-92579000D02*
X136850000Y-92579000D01*
D14*
%TO.C,T1*%
X127381000Y-113060000D02*
X127381000Y-106650000D01*
X114681000Y-106650000D02*
X114681000Y-113060000D01*
X127381000Y-106650000D02*
X114681000Y-106650000D01*
X114681000Y-113060000D02*
X127381000Y-113060000D01*
X126226000Y-115005000D02*
X126226000Y-113410000D01*
D13*
%TO.C,J3*%
X113540000Y-96915000D02*
X110940000Y-96915000D01*
X116140000Y-94315000D02*
X113540000Y-94315000D01*
X113540000Y-94315000D02*
X113540000Y-96915000D01*
X112270000Y-94315000D02*
X110940000Y-94315000D01*
X110940000Y-94315000D02*
X110940000Y-95645000D01*
X116140000Y-102055000D02*
X110940000Y-102055000D01*
X116140000Y-94315000D02*
X116140000Y-102055000D01*
X110940000Y-96915000D02*
X110940000Y-102055000D01*
%TO.C,C16*%
X181710000Y-90004752D02*
X181710000Y-89482248D01*
X183180000Y-90004752D02*
X183180000Y-89482248D01*
%TO.C,C22*%
X157986000Y-95002233D02*
X157986000Y-95294767D01*
X159006000Y-95002233D02*
X159006000Y-95294767D01*
%TO.C,R11*%
X131078500Y-98806724D02*
X131078500Y-98297276D01*
X130033500Y-98806724D02*
X130033500Y-98297276D01*
D15*
%TO.C,PS1*%
X139568812Y-110817043D02*
X139568812Y-110817043D01*
D16*
X139872868Y-94079825D02*
X132306825Y-101645868D01*
D15*
X139710233Y-110675621D02*
X139710233Y-110675621D01*
D16*
X150649175Y-104856132D02*
X143083132Y-112422175D01*
D15*
X139710233Y-110675621D02*
G75*
G03*
X139568812Y-110817043I-70711J-70711D01*
G01*
X139568812Y-110817043D02*
G75*
G03*
X139710233Y-110675621I70710J70711D01*
G01*
D13*
%TO.C,L2*%
X156808000Y-95171436D02*
X156808000Y-96375564D01*
X154088000Y-95171436D02*
X154088000Y-96375564D01*
%TD*%
M02*
