G04*
G04 #@! TF.GenerationSoftware,Altium Limited,Altium Designer,22.8.2 (66)*
G04*
G04 Layer_Color=16711935*
%FSLAX44Y44*%
%MOMM*%
G71*
G04*
G04 #@! TF.SameCoordinates,3B6084FD-5DD7-4A75-9D95-E8563ACB50C0*
G04*
G04*
G04 #@! TF.FilePolarity,Positive*
G04*
G01*
G75*
%ADD11C,0.2000*%
%ADD18C,1.0000*%
%ADD19C,0.0254*%
%ADD20C,0.0500*%
G36*
X54667Y144929D02*
X54658Y144854D01*
Y144696D01*
X54642Y144513D01*
X54625Y144321D01*
X54600Y144138D01*
X54567Y143979D01*
Y143971D01*
X54558Y143954D01*
X54550Y143921D01*
X54542Y143888D01*
X54525Y143838D01*
X54508Y143779D01*
X54467Y143654D01*
X54400Y143504D01*
X54325Y143346D01*
X54225Y143188D01*
X54108Y143038D01*
X54100Y143029D01*
X54092Y143013D01*
X54067Y142988D01*
X54033Y142955D01*
X53992Y142913D01*
X53942Y142863D01*
X53883Y142813D01*
X53817Y142755D01*
X53658Y142630D01*
X53467Y142505D01*
X53259Y142380D01*
X53017Y142280D01*
X53009D01*
X52984Y142271D01*
X52950Y142255D01*
X52900Y142238D01*
X52834Y142221D01*
X52759Y142196D01*
X52675Y142171D01*
X52575Y142146D01*
X52467Y142130D01*
X52351Y142105D01*
X52225Y142080D01*
X52092Y142063D01*
X51801Y142030D01*
X51492Y142021D01*
X51484D01*
X51459D01*
X51426D01*
X51367D01*
X51309Y142030D01*
X51234D01*
X51151Y142038D01*
X51059Y142046D01*
X50859Y142063D01*
X50643Y142096D01*
X50418Y142138D01*
X50201Y142196D01*
X50193D01*
X50176Y142205D01*
X50143Y142213D01*
X50109Y142230D01*
X50059Y142246D01*
X50001Y142263D01*
X49876Y142313D01*
X49726Y142371D01*
X49568Y142446D01*
X49410Y142538D01*
X49268Y142630D01*
X49251Y142638D01*
X49210Y142680D01*
X49143Y142730D01*
X49060Y142805D01*
X48968Y142888D01*
X48868Y142988D01*
X48776Y143104D01*
X48685Y143221D01*
X48676Y143238D01*
X48651Y143279D01*
X48610Y143346D01*
X48568Y143438D01*
X48518Y143546D01*
X48460Y143679D01*
X48410Y143829D01*
X48368Y143988D01*
Y143996D01*
X48360Y144004D01*
Y144029D01*
X48351Y144063D01*
X48343Y144104D01*
X48335Y144154D01*
X48318Y144279D01*
X48293Y144429D01*
X48277Y144604D01*
X48268Y144804D01*
X48260Y145012D01*
Y147320D01*
X54667D01*
Y144929D01*
D02*
G37*
G36*
X53084Y140563D02*
X53100Y140539D01*
X53117Y140505D01*
X53142Y140463D01*
X53167Y140405D01*
X53209Y140338D01*
X53292Y140180D01*
X53400Y140005D01*
X53534Y139805D01*
X53675Y139614D01*
X53833Y139422D01*
X53842Y139414D01*
X53850Y139397D01*
X53875Y139372D01*
X53908Y139339D01*
X53992Y139256D01*
X54108Y139147D01*
X54233Y139039D01*
X54383Y138922D01*
X54533Y138814D01*
X54692Y138722D01*
Y138214D01*
X48260D01*
Y138997D01*
X53267D01*
X53259Y139014D01*
X53225Y139047D01*
X53167Y139114D01*
X53100Y139197D01*
X53017Y139305D01*
X52925Y139439D01*
X52825Y139580D01*
X52725Y139747D01*
Y139755D01*
X52717Y139764D01*
X52700Y139789D01*
X52684Y139822D01*
X52634Y139914D01*
X52575Y140022D01*
X52509Y140147D01*
X52442Y140288D01*
X52375Y140430D01*
X52317Y140572D01*
X53084D01*
Y140563D01*
D02*
G37*
G36*
X387652Y555236D02*
X387744D01*
X387844Y555227D01*
X387952Y555211D01*
X388077Y555194D01*
X388210Y555177D01*
X388352Y555152D01*
X388643Y555086D01*
X388935Y554994D01*
X389085Y554936D01*
X389227Y554869D01*
X389235Y554861D01*
X389260Y554852D01*
X389302Y554827D01*
X389352Y554794D01*
X389410Y554761D01*
X389485Y554711D01*
X389560Y554653D01*
X389651Y554586D01*
X389835Y554436D01*
X390018Y554244D01*
X390201Y554028D01*
X390285Y553903D01*
X390360Y553778D01*
X390368Y553769D01*
X390376Y553745D01*
X390393Y553703D01*
X390418Y553653D01*
X390451Y553586D01*
X390485Y553511D01*
X390518Y553419D01*
X390560Y553320D01*
X390593Y553203D01*
X390626Y553086D01*
X390693Y552820D01*
X390734Y552528D01*
X390751Y552378D01*
Y552128D01*
X390743Y552062D01*
X390734Y551978D01*
X390726Y551878D01*
X390709Y551770D01*
X390693Y551653D01*
X390635Y551403D01*
X390593Y551270D01*
X390543Y551129D01*
X390485Y550995D01*
X390426Y550862D01*
X390343Y550729D01*
X390260Y550604D01*
X390251Y550595D01*
X390235Y550579D01*
X390210Y550537D01*
X390168Y550495D01*
X390118Y550445D01*
X390060Y550379D01*
X389985Y550312D01*
X389901Y550237D01*
X389810Y550162D01*
X389710Y550087D01*
X389593Y550012D01*
X389477Y549937D01*
X389343Y549862D01*
X389202Y549795D01*
X389043Y549729D01*
X388885Y549679D01*
X388685Y550512D01*
X388693D01*
X388718Y550520D01*
X388752Y550537D01*
X388802Y550554D01*
X388860Y550579D01*
X388927Y550604D01*
X389077Y550679D01*
X389243Y550770D01*
X389410Y550878D01*
X389568Y551012D01*
X389635Y551087D01*
X389701Y551162D01*
Y551170D01*
X389718Y551179D01*
X389735Y551203D01*
X389751Y551237D01*
X389776Y551278D01*
X389801Y551328D01*
X389868Y551453D01*
X389926Y551612D01*
X389976Y551795D01*
X390010Y552003D01*
X390026Y552237D01*
Y552312D01*
X390018Y552361D01*
Y552420D01*
X390010Y552495D01*
X389993Y552578D01*
X389985Y552670D01*
X389943Y552861D01*
X389876Y553070D01*
X389785Y553278D01*
X389735Y553378D01*
X389668Y553478D01*
Y553486D01*
X389651Y553503D01*
X389635Y553528D01*
X389602Y553561D01*
X389526Y553644D01*
X389418Y553745D01*
X389285Y553861D01*
X389118Y553978D01*
X388935Y554086D01*
X388718Y554169D01*
X388710D01*
X388693Y554178D01*
X388660Y554186D01*
X388618Y554203D01*
X388560Y554219D01*
X388493Y554236D01*
X388419Y554253D01*
X388344Y554269D01*
X388152Y554303D01*
X387944Y554336D01*
X387719Y554361D01*
X387485Y554369D01*
X387477D01*
X387452D01*
X387410D01*
X387352D01*
X387277Y554361D01*
X387194Y554353D01*
X387102D01*
X387002Y554336D01*
X386777Y554311D01*
X386544Y554269D01*
X386294Y554211D01*
X386061Y554136D01*
X386052D01*
X386036Y554128D01*
X386002Y554111D01*
X385961Y554086D01*
X385911Y554061D01*
X385852Y554036D01*
X385719Y553953D01*
X385569Y553844D01*
X385419Y553719D01*
X385278Y553569D01*
X385153Y553395D01*
Y553386D01*
X385136Y553370D01*
X385128Y553345D01*
X385103Y553303D01*
X385086Y553261D01*
X385061Y553203D01*
X385003Y553070D01*
X384944Y552903D01*
X384903Y552720D01*
X384869Y552520D01*
X384853Y552303D01*
Y552237D01*
X384861Y552187D01*
X384869Y552120D01*
X384878Y552053D01*
X384886Y551970D01*
X384903Y551887D01*
X384953Y551695D01*
X385028Y551495D01*
X385069Y551387D01*
X385128Y551287D01*
X385186Y551187D01*
X385261Y551095D01*
X385269Y551087D01*
X385278Y551070D01*
X385303Y551045D01*
X385336Y551012D01*
X385378Y550979D01*
X385436Y550928D01*
X385494Y550878D01*
X385569Y550829D01*
X385644Y550770D01*
X385736Y550712D01*
X385836Y550662D01*
X385944Y550604D01*
X386069Y550554D01*
X386194Y550504D01*
X386327Y550462D01*
X386477Y550420D01*
X386261Y549571D01*
X386252D01*
X386219Y549587D01*
X386161Y549604D01*
X386086Y549621D01*
X386002Y549654D01*
X385902Y549696D01*
X385794Y549737D01*
X385669Y549795D01*
X385544Y549854D01*
X385411Y549929D01*
X385286Y550004D01*
X385153Y550095D01*
X385019Y550187D01*
X384894Y550295D01*
X384778Y550412D01*
X384669Y550537D01*
X384661Y550545D01*
X384644Y550570D01*
X384619Y550604D01*
X384586Y550662D01*
X384544Y550729D01*
X384495Y550812D01*
X384453Y550904D01*
X384403Y551003D01*
X384344Y551129D01*
X384303Y551253D01*
X384253Y551395D01*
X384211Y551545D01*
X384178Y551703D01*
X384153Y551870D01*
X384136Y552045D01*
X384128Y552228D01*
Y552328D01*
X384136Y552403D01*
X384145Y552486D01*
X384153Y552595D01*
X384161Y552703D01*
X384178Y552828D01*
X384228Y553095D01*
X384303Y553378D01*
X384353Y553520D01*
X384411Y553661D01*
X384469Y553794D01*
X384544Y553919D01*
X384553Y553928D01*
X384561Y553944D01*
X384586Y553978D01*
X384628Y554028D01*
X384669Y554078D01*
X384719Y554144D01*
X384786Y554211D01*
X384861Y554286D01*
X384936Y554369D01*
X385028Y554444D01*
X385128Y554528D01*
X385244Y554611D01*
X385361Y554694D01*
X385486Y554769D01*
X385628Y554844D01*
X385769Y554911D01*
X385778D01*
X385802Y554927D01*
X385852Y554944D01*
X385911Y554961D01*
X385986Y554986D01*
X386069Y555019D01*
X386169Y555044D01*
X386286Y555078D01*
X386411Y555111D01*
X386544Y555136D01*
X386686Y555169D01*
X386827Y555194D01*
X387152Y555227D01*
X387485Y555244D01*
X387494D01*
X387527D01*
X387585D01*
X387652Y555236D01*
D02*
G37*
G36*
X384411Y548954D02*
X384495Y548946D01*
X384586Y548929D01*
X384678Y548904D01*
X384778Y548871D01*
X384786D01*
X384794Y548862D01*
X384819Y548854D01*
X384853Y548837D01*
X384936Y548804D01*
X385044Y548746D01*
X385178Y548671D01*
X385319Y548587D01*
X385469Y548479D01*
X385628Y548354D01*
X385636Y548346D01*
X385644Y548338D01*
X385669Y548312D01*
X385703Y548288D01*
X385794Y548204D01*
X385911Y548088D01*
X386052Y547946D01*
X386219Y547771D01*
X386402Y547563D01*
X386602Y547321D01*
X386611Y547313D01*
X386644Y547279D01*
X386686Y547221D01*
X386744Y547155D01*
X386819Y547071D01*
X386902Y546971D01*
X386994Y546863D01*
X387094Y546755D01*
X387310Y546521D01*
X387535Y546288D01*
X387652Y546180D01*
X387760Y546080D01*
X387860Y545988D01*
X387960Y545913D01*
X387969Y545905D01*
X387985Y545896D01*
X388010Y545880D01*
X388044Y545855D01*
X388093Y545830D01*
X388144Y545797D01*
X388269Y545722D01*
X388410Y545655D01*
X388568Y545597D01*
X388743Y545555D01*
X388827Y545538D01*
X388910D01*
X388918D01*
X388935D01*
X388952D01*
X388985Y545547D01*
X389077Y545555D01*
X389185Y545580D01*
X389310Y545621D01*
X389435Y545680D01*
X389568Y545763D01*
X389693Y545880D01*
X389710Y545896D01*
X389743Y545938D01*
X389793Y546013D01*
X389860Y546113D01*
X389918Y546238D01*
X389968Y546388D01*
X390001Y546563D01*
X390018Y546755D01*
Y546813D01*
X390010Y546846D01*
Y546896D01*
X390001Y546954D01*
X389976Y547080D01*
X389935Y547221D01*
X389876Y547379D01*
X389793Y547529D01*
X389677Y547663D01*
X389660Y547679D01*
X389618Y547713D01*
X389535Y547771D01*
X389435Y547829D01*
X389293Y547896D01*
X389135Y547954D01*
X388952Y547988D01*
X388735Y548004D01*
X388818Y548812D01*
X388827D01*
X388860Y548804D01*
X388902D01*
X388968Y548796D01*
X389043Y548779D01*
X389127Y548762D01*
X389227Y548737D01*
X389327Y548704D01*
X389552Y548629D01*
X389668Y548579D01*
X389776Y548521D01*
X389893Y548454D01*
X390001Y548379D01*
X390101Y548296D01*
X390193Y548196D01*
X390201Y548187D01*
X390210Y548171D01*
X390235Y548138D01*
X390268Y548096D01*
X390301Y548038D01*
X390343Y547971D01*
X390385Y547896D01*
X390435Y547804D01*
X390476Y547704D01*
X390518Y547596D01*
X390560Y547479D01*
X390593Y547346D01*
X390626Y547213D01*
X390651Y547063D01*
X390659Y546904D01*
X390668Y546738D01*
Y546646D01*
X390659Y546588D01*
X390651Y546505D01*
X390643Y546413D01*
X390626Y546313D01*
X390601Y546205D01*
X390543Y545971D01*
X390501Y545855D01*
X390451Y545730D01*
X390393Y545605D01*
X390318Y545488D01*
X390243Y545380D01*
X390151Y545272D01*
X390143Y545263D01*
X390126Y545247D01*
X390101Y545222D01*
X390060Y545188D01*
X390010Y545147D01*
X389951Y545097D01*
X389885Y545055D01*
X389801Y544997D01*
X389718Y544947D01*
X389618Y544905D01*
X389402Y544813D01*
X389285Y544780D01*
X389160Y544755D01*
X389027Y544738D01*
X388885Y544730D01*
X388868D01*
X388818D01*
X388743Y544738D01*
X388643Y544747D01*
X388535Y544772D01*
X388402Y544797D01*
X388269Y544838D01*
X388127Y544888D01*
X388110Y544897D01*
X388060Y544922D01*
X387985Y544955D01*
X387894Y545013D01*
X387777Y545088D01*
X387644Y545180D01*
X387494Y545288D01*
X387344Y545413D01*
X387335D01*
X387327Y545430D01*
X387302Y545455D01*
X387269Y545480D01*
X387227Y545522D01*
X387177Y545572D01*
X387119Y545630D01*
X387052Y545705D01*
X386977Y545780D01*
X386894Y545872D01*
X386794Y545971D01*
X386694Y546080D01*
X386586Y546205D01*
X386477Y546330D01*
X386352Y546480D01*
X386219Y546630D01*
X386211Y546638D01*
X386194Y546663D01*
X386161Y546696D01*
X386127Y546746D01*
X386077Y546796D01*
X386019Y546863D01*
X385894Y547005D01*
X385761Y547163D01*
X385628Y547313D01*
X385569Y547379D01*
X385511Y547438D01*
X385452Y547496D01*
X385411Y547538D01*
X385403Y547546D01*
X385378Y547571D01*
X385336Y547604D01*
X385278Y547654D01*
X385219Y547704D01*
X385144Y547763D01*
X384994Y547871D01*
Y544722D01*
X384236D01*
Y548962D01*
X384253D01*
X384286D01*
X384336D01*
X384411Y548954D01*
D02*
G37*
G36*
X385969Y543047D02*
X385961D01*
X385944Y543039D01*
X385911D01*
X385869Y543031D01*
X385819Y543014D01*
X385761Y542997D01*
X385636Y542964D01*
X385486Y542906D01*
X385336Y542831D01*
X385194Y542739D01*
X385069Y542631D01*
X385061Y542614D01*
X385028Y542572D01*
X384978Y542497D01*
X384928Y542406D01*
X384869Y542289D01*
X384828Y542147D01*
X384794Y541997D01*
X384778Y541823D01*
Y541764D01*
X384786Y541722D01*
X384794Y541681D01*
X384803Y541623D01*
X384828Y541489D01*
X384878Y541331D01*
X384961Y541173D01*
X385003Y541089D01*
X385061Y541006D01*
X385128Y540931D01*
X385203Y540856D01*
X385211Y540848D01*
X385219Y540839D01*
X385244Y540823D01*
X385278Y540798D01*
X385319Y540765D01*
X385378Y540731D01*
X385436Y540698D01*
X385503Y540656D01*
X385669Y540589D01*
X385861Y540523D01*
X386086Y540481D01*
X386202Y540465D01*
X386336D01*
X386344D01*
X386369D01*
X386402D01*
X386444Y540473D01*
X386502D01*
X386569Y540481D01*
X386719Y540514D01*
X386894Y540556D01*
X387069Y540623D01*
X387244Y540714D01*
X387327Y540773D01*
X387402Y540839D01*
X387410D01*
X387419Y540856D01*
X387435Y540881D01*
X387460Y540906D01*
X387527Y540989D01*
X387602Y541106D01*
X387669Y541248D01*
X387735Y541414D01*
X387777Y541614D01*
X387794Y541714D01*
Y541898D01*
X387785Y541964D01*
X387769Y542064D01*
X387752Y542164D01*
X387719Y542281D01*
X387669Y542406D01*
X387610Y542522D01*
X387602Y542539D01*
X387577Y542572D01*
X387544Y542622D01*
X387485Y542689D01*
X387427Y542764D01*
X387344Y542847D01*
X387260Y542922D01*
X387160Y542989D01*
X387269Y543730D01*
X390560Y543114D01*
Y539931D01*
X389810D01*
Y542489D01*
X388077Y542831D01*
X388085Y542822D01*
X388093Y542806D01*
X388119Y542772D01*
X388144Y542731D01*
X388168Y542681D01*
X388210Y542614D01*
X388243Y542547D01*
X388285Y542464D01*
X388360Y542281D01*
X388419Y542081D01*
X388468Y541856D01*
X388477Y541739D01*
X388485Y541623D01*
Y541539D01*
X388477Y541481D01*
X388468Y541414D01*
X388452Y541331D01*
X388435Y541239D01*
X388410Y541131D01*
X388385Y541023D01*
X388344Y540914D01*
X388293Y540798D01*
X388243Y540673D01*
X388168Y540556D01*
X388093Y540439D01*
X388002Y540323D01*
X387902Y540215D01*
X387894Y540206D01*
X387877Y540190D01*
X387844Y540165D01*
X387794Y540123D01*
X387735Y540081D01*
X387669Y540031D01*
X387585Y539973D01*
X387494Y539923D01*
X387394Y539865D01*
X387277Y539815D01*
X387160Y539765D01*
X387027Y539723D01*
X386877Y539681D01*
X386727Y539656D01*
X386569Y539640D01*
X386402Y539631D01*
X386394D01*
X386361D01*
X386319D01*
X386261Y539640D01*
X386186Y539648D01*
X386094Y539656D01*
X385994Y539673D01*
X385894Y539698D01*
X385653Y539756D01*
X385527Y539798D01*
X385403Y539848D01*
X385278Y539906D01*
X385153Y539973D01*
X385028Y540048D01*
X384903Y540140D01*
X384894Y540148D01*
X384869Y540165D01*
X384828Y540206D01*
X384786Y540256D01*
X384719Y540315D01*
X384661Y540390D01*
X384586Y540481D01*
X384519Y540581D01*
X384445Y540698D01*
X384370Y540823D01*
X384311Y540956D01*
X384253Y541106D01*
X384203Y541273D01*
X384161Y541448D01*
X384136Y541631D01*
X384128Y541823D01*
Y541906D01*
X384136Y541964D01*
X384145Y542039D01*
X384153Y542131D01*
X384170Y542222D01*
X384186Y542331D01*
X384244Y542556D01*
X384286Y542672D01*
X384336Y542789D01*
X384386Y542914D01*
X384453Y543031D01*
X384528Y543139D01*
X384611Y543247D01*
X384619Y543256D01*
X384636Y543272D01*
X384661Y543297D01*
X384703Y543330D01*
X384753Y543380D01*
X384811Y543422D01*
X384878Y543480D01*
X384961Y543530D01*
X385044Y543589D01*
X385144Y543639D01*
X385253Y543697D01*
X385369Y543739D01*
X385494Y543789D01*
X385619Y543822D01*
X385761Y543855D01*
X385911Y543872D01*
X385969Y543047D01*
D02*
G37*
%LPC*%
G36*
X53908Y146470D02*
X49018D01*
Y144946D01*
X49026Y144887D01*
X49035Y144746D01*
X49043Y144587D01*
X49068Y144421D01*
X49093Y144254D01*
X49135Y144113D01*
Y144104D01*
X49143Y144096D01*
X49160Y144054D01*
X49185Y143988D01*
X49218Y143904D01*
X49268Y143813D01*
X49318Y143721D01*
X49385Y143621D01*
X49460Y143538D01*
X49476Y143521D01*
X49518Y143488D01*
X49584Y143438D01*
X49676Y143363D01*
X49793Y143288D01*
X49934Y143213D01*
X50093Y143138D01*
X50276Y143071D01*
X50284D01*
X50301Y143063D01*
X50326Y143055D01*
X50368Y143046D01*
X50418Y143029D01*
X50476Y143013D01*
X50543Y142996D01*
X50618Y142979D01*
X50709Y142971D01*
X50801Y142955D01*
X51009Y142921D01*
X51251Y142905D01*
X51509Y142896D01*
X51517D01*
X51551D01*
X51609D01*
X51676Y142905D01*
X51759D01*
X51851Y142913D01*
X51959Y142921D01*
X52076Y142938D01*
X52326Y142979D01*
X52584Y143038D01*
X52825Y143121D01*
X52942Y143171D01*
X53050Y143230D01*
X53059D01*
X53075Y143246D01*
X53100Y143263D01*
X53142Y143288D01*
X53234Y143363D01*
X53342Y143454D01*
X53467Y143571D01*
X53583Y143704D01*
X53692Y143863D01*
X53734Y143946D01*
X53775Y144029D01*
X53783Y144046D01*
X53792Y144063D01*
X53800Y144096D01*
X53808Y144129D01*
X53817Y144179D01*
X53833Y144229D01*
X53842Y144296D01*
X53858Y144362D01*
X53867Y144446D01*
X53875Y144537D01*
X53892Y144637D01*
X53900Y144746D01*
Y144862D01*
X53908Y144987D01*
Y146470D01*
D02*
G37*
%LPD*%
D11*
X335006Y420744D02*
Y454744D01*
Y420744D02*
X377556D01*
Y454744D01*
X335006D02*
X377556D01*
X27510Y177520D02*
X69010D01*
X27510Y117120D02*
Y177520D01*
Y117120D02*
X69010D01*
Y177520D01*
X369837Y582535D02*
X398419D01*
X369837Y527953D02*
Y582535D01*
Y527953D02*
X398419D01*
Y582535D01*
D18*
X-899Y50800D02*
G03*
X50253Y119I50683J0D01*
G01*
X1668595Y738D02*
G03*
X1720070Y52692I0J51477D01*
G01*
X1720140Y579741D02*
G03*
X1668988Y630422I-50683J0D01*
G01*
X50253Y-4D02*
X1668595Y738D01*
X1720070Y52692D02*
X1720088Y579741D01*
X49673Y629466D02*
X1668988Y630420D01*
X-1016Y50800D02*
X-1008Y578314D01*
D19*
X299227Y472948D02*
Y597154D01*
D20*
X205930Y468926D02*
X285825D01*
X205930D02*
Y600964D01*
X285825D01*
Y468926D02*
Y600964D01*
M02*
