G04*
G04 #@! TF.GenerationSoftware,Altium Limited,Altium Designer,22.8.2 (66)*
G04*
G04 Layer_Color=16711935*
%FSLAX44Y44*%
%MOMM*%
G71*
G04*
G04 #@! TF.SameCoordinates,3B6084FD-5DD7-4A75-9D95-E8563ACB50C0*
G04*
G04*
G04 #@! TF.FilePolarity,Positive*
G04*
G01*
G75*
%ADD11C,0.2000*%
%ADD12C,0.1000*%
%ADD13C,0.2540*%
%ADD14C,0.1270*%
%ADD18C,1.0000*%
%ADD19C,0.0254*%
%ADD20C,0.0500*%
D11*
X270812Y332140D02*
G03*
X270812Y332140I-1000J0D01*
G01*
X1091020Y498648D02*
G03*
X1091020Y498648I-1000J0D01*
G01*
X1530380Y491892D02*
G03*
X1530380Y491892I-1000J0D01*
G01*
X1607952Y438104D02*
G03*
X1607952Y438104I-1000J0D01*
G01*
X1431380Y90724D02*
G03*
X1431380Y90724I-1000J0D01*
G01*
X1022440Y92756D02*
G03*
X1022440Y92756I-1000J0D01*
G01*
X619596Y75992D02*
G03*
X619596Y75992I-1000J0D01*
G01*
X1002924Y361904D02*
G03*
X1002924Y361904I-1000J0D01*
G01*
X1278260Y354792D02*
G03*
X1278260Y354792I-1000J0D01*
G01*
X1308232Y339644D02*
G03*
X1308232Y339644I-1000J0D01*
G01*
X1318900Y261320D02*
G03*
X1318900Y261320I-1000J0D01*
G01*
X928248Y254716D02*
G03*
X928248Y254716I-1000J0D01*
G01*
X670336Y364088D02*
G03*
X670336Y364088I-1000J0D01*
G01*
D12*
X1142008Y406460D02*
G03*
X1142008Y406460I-5000J0D01*
G01*
X1413992Y406968D02*
G03*
X1413992Y406968I-5000J0D01*
G01*
X1474196Y345540D02*
G03*
X1474196Y345540I-5000J0D01*
G01*
X1457068Y234404D02*
G03*
X1457068Y234404I-5000J0D01*
G01*
X1080840Y236436D02*
G03*
X1080840Y236436I-5000J0D01*
G01*
X681044Y236944D02*
G03*
X681044Y236944I-5000J0D01*
G01*
X197614Y136234D02*
G03*
X197614Y136234I-5000J0D01*
G01*
X1010436Y450700D02*
G03*
X1010436Y450700I-5000J0D01*
G01*
X1520192Y564452D02*
G03*
X1520192Y564452I-5000J0D01*
G01*
X1596460Y377548D02*
G03*
X1596460Y377548I-5000J0D01*
G01*
X1341144Y58016D02*
G03*
X1341144Y58016I-5000J0D01*
G01*
X935252Y57508D02*
G03*
X935252Y57508I-5000J0D01*
G01*
X540028Y54968D02*
G03*
X540028Y54968I-5000J0D01*
G01*
X1178008Y397460D02*
Y437460D01*
X1128008Y397460D02*
Y437460D01*
X1178008D01*
X1128008Y397460D02*
X1178008D01*
X1449992Y397968D02*
Y437968D01*
X1399992Y397968D02*
Y437968D01*
X1449992D01*
X1399992Y397968D02*
X1449992D01*
X1460196Y304540D02*
X1500196D01*
X1460196Y354540D02*
X1500196D01*
Y304540D02*
Y354540D01*
X1460196Y304540D02*
Y354540D01*
X1411068Y203404D02*
Y243404D01*
X1461068Y203404D02*
Y243404D01*
X1411068Y203404D02*
X1461068D01*
X1411068Y243404D02*
X1461068D01*
X1034840Y205436D02*
Y245436D01*
X1084840Y205436D02*
Y245436D01*
X1034840Y205436D02*
X1084840D01*
X1034840Y245436D02*
X1084840D01*
X635044Y205944D02*
Y245944D01*
X685044Y205944D02*
Y245944D01*
X635044Y205944D02*
X685044D01*
X635044Y245944D02*
X685044D01*
X1076348Y587828D02*
X1093348D01*
X1076348Y596828D02*
X1093348D01*
X1076348Y587828D02*
Y596828D01*
X1093348Y587828D02*
Y596828D01*
X1434728Y528900D02*
X1451728D01*
X1434728Y537900D02*
X1451728D01*
X1434728Y528900D02*
Y537900D01*
X1451728Y528900D02*
Y537900D01*
X1489528Y54492D02*
Y71492D01*
X1498528Y54492D02*
Y71492D01*
X1489528Y54492D02*
X1498528D01*
X1489528Y71492D02*
X1498528D01*
X1115074Y198556D02*
X1132074D01*
X1115074Y189556D02*
X1132074D01*
X1115074D02*
Y198556D01*
X1132074Y189556D02*
Y198556D01*
X717310Y198048D02*
X734310D01*
X717310Y189048D02*
X734310D01*
X717310D02*
Y198048D01*
X734310Y189048D02*
Y198048D01*
X315604Y199064D02*
X332604D01*
X315604Y190064D02*
X332604D01*
X315604D02*
Y199064D01*
X332604Y190064D02*
Y199064D01*
X1075303Y597336D02*
X1092303D01*
X1075303Y588336D02*
X1092303D01*
X1075303D02*
Y597336D01*
X1092303Y588336D02*
Y597336D01*
X1434728Y537392D02*
X1451728D01*
X1434728Y528392D02*
X1451728D01*
X1434728D02*
Y537392D01*
X1451728Y528392D02*
Y537392D01*
X1489528Y54492D02*
Y71492D01*
X1498528Y54492D02*
Y71492D01*
X1489528D02*
X1498528D01*
X1489528Y54492D02*
X1498528D01*
X1115074Y198556D02*
X1132074D01*
X1115074Y189556D02*
X1132074D01*
Y198556D01*
X1115074Y189556D02*
Y198556D01*
X717554Y198048D02*
X734554D01*
X717554Y189048D02*
X734554D01*
Y198048D01*
X717554Y189048D02*
Y198048D01*
X315604Y199064D02*
X332604D01*
X315604Y190064D02*
X332604D01*
Y199064D01*
X315604Y190064D02*
Y199064D01*
X1028096Y540704D02*
X1045096D01*
X1028096Y549704D02*
X1045096D01*
X1028096Y540704D02*
Y549704D01*
X1045096Y540704D02*
Y549704D01*
X1374784Y599876D02*
X1391784D01*
X1374784Y590876D02*
X1391784D01*
X1374784D02*
Y599876D01*
X1391784Y590876D02*
Y599876D01*
X1490036Y156092D02*
Y173092D01*
X1499036Y156092D02*
Y173092D01*
X1490036Y156092D02*
X1499036D01*
X1490036Y173092D02*
X1499036D01*
X1215394Y198556D02*
X1232394D01*
X1215394Y189556D02*
X1232394D01*
X1215394D02*
Y198556D01*
X1232394Y189556D02*
Y198556D01*
X819540D02*
X836540D01*
X819540Y189556D02*
X836540D01*
X819540D02*
Y198556D01*
X836540Y189556D02*
Y198556D01*
X420760Y197032D02*
X437760D01*
X420760Y188032D02*
X437760D01*
Y197032D01*
X420760Y188032D02*
Y197032D01*
X1026296Y549584D02*
X1043296D01*
X1026296Y540584D02*
X1043296D01*
X1026296D02*
Y549584D01*
X1043296Y540584D02*
Y549584D01*
X1374784Y590876D02*
X1391784D01*
X1374784Y599876D02*
X1391784D01*
X1374784Y590876D02*
Y599876D01*
X1391784Y590876D02*
Y599876D01*
X1490036Y156092D02*
Y173092D01*
X1499036Y156092D02*
Y173092D01*
X1490036D02*
X1499036D01*
X1490036Y156092D02*
X1499036D01*
X1215394Y198556D02*
X1232394D01*
X1215394Y189556D02*
X1232394D01*
Y198556D01*
X1215394Y189556D02*
Y198556D01*
X819540D02*
X836540D01*
X819540Y189556D02*
X836540D01*
Y198556D01*
X819540Y189556D02*
Y198556D01*
X420760Y197032D02*
X437760D01*
X420760Y188032D02*
X437760D01*
X420760D02*
Y197032D01*
X437760Y188032D02*
Y197032D01*
X891400Y479236D02*
X908400D01*
X891400Y488236D02*
X908400D01*
Y479236D02*
Y488236D01*
X891400Y479236D02*
Y488236D01*
X1303156Y477084D02*
X1320156D01*
X1303156Y486084D02*
X1320156D01*
Y477084D02*
Y486084D01*
X1303156Y477084D02*
Y486084D01*
X1507867Y257387D02*
Y274387D01*
X1516867Y257387D02*
Y274387D01*
X1507867Y257387D02*
X1516867D01*
X1507867Y274387D02*
X1516867D01*
X1319294Y198294D02*
X1336295D01*
X1319294Y189294D02*
X1336295D01*
X1319294D02*
Y198294D01*
X1336295Y189294D02*
Y198294D01*
X926728Y197032D02*
X943728D01*
X926728Y188032D02*
X943728D01*
X926728D02*
Y197032D01*
X943728Y188032D02*
Y197032D01*
X518284Y196016D02*
X535284D01*
X518284Y187016D02*
X535284D01*
Y196016D01*
X518284Y187016D02*
Y196016D01*
X891400Y479744D02*
X908400D01*
X891400Y488744D02*
X908400D01*
X891400Y479744D02*
Y488744D01*
X908400Y479744D02*
Y488744D01*
X1303156Y477084D02*
X1320156D01*
X1303156Y486084D02*
X1320156D01*
X1303156Y477084D02*
Y486084D01*
X1320156Y477084D02*
Y486084D01*
X1507875Y257387D02*
Y274387D01*
X1516875Y257387D02*
Y274387D01*
X1507875D02*
X1516875D01*
X1507875Y257387D02*
X1516875D01*
X1319026Y198048D02*
X1336026D01*
X1319026Y189048D02*
X1336026D01*
Y198048D01*
X1319026Y189048D02*
Y198048D01*
X926728Y197032D02*
X943728D01*
X926728Y188032D02*
X943728D01*
Y197032D01*
X926728Y188032D02*
Y197032D01*
X518296Y196016D02*
X535296D01*
X518296Y187016D02*
X535296D01*
X518296D02*
Y196016D01*
X535296Y187016D02*
Y196016D01*
X794372Y479236D02*
X811372D01*
X794372Y488236D02*
X811372D01*
Y479236D02*
Y488236D01*
X794372Y479236D02*
Y488236D01*
X1198508Y479624D02*
X1215508D01*
X1198508Y488624D02*
X1215508D01*
Y479624D02*
Y488624D01*
X1198508Y479624D02*
Y488624D01*
X1617544Y337570D02*
Y354570D01*
X1626544Y337570D02*
Y354570D01*
X1617544D02*
X1626544D01*
X1617544Y337570D02*
X1626544D01*
X1387362Y141152D02*
X1404362D01*
X1387362Y132152D02*
X1404362D01*
X1387362D02*
Y141152D01*
X1404362Y132152D02*
Y141152D01*
X988850Y137350D02*
X1005850D01*
X988850Y128350D02*
X1005850D01*
X988850D02*
Y137350D01*
X1005850Y128350D02*
Y137350D01*
X594327Y141355D02*
X611327D01*
X594327Y132355D02*
X611327D01*
X594327D02*
Y141355D01*
X611327Y132355D02*
Y141355D01*
X794637Y478728D02*
X811637D01*
X794637Y487728D02*
X811637D01*
X794637Y478728D02*
Y487728D01*
X811637Y478728D02*
Y487728D01*
X1198508Y488624D02*
X1215508D01*
X1198508Y479624D02*
X1215508D01*
Y488624D01*
X1198508Y479624D02*
Y488624D01*
X1617544Y337570D02*
Y354570D01*
X1626544Y337570D02*
Y354570D01*
X1617544Y337570D02*
X1626544D01*
X1617544Y354570D02*
X1626544D01*
X1387484Y141152D02*
X1404484D01*
X1387484Y132152D02*
X1404484D01*
Y141152D01*
X1387484Y132152D02*
Y141152D01*
X988838Y137350D02*
X1005838D01*
X988838Y128350D02*
X1005838D01*
Y137350D01*
X988838Y128350D02*
Y137350D01*
X594315Y141355D02*
X611315D01*
X594315Y132355D02*
X611315D01*
Y141355D01*
X594315Y132355D02*
Y141355D01*
X1054524Y467408D02*
X1071524D01*
X1054524Y458408D02*
X1071524D01*
X1054524D02*
Y467408D01*
X1071524Y458408D02*
Y467408D01*
X1524944Y505718D02*
Y522718D01*
X1515944Y505718D02*
Y522718D01*
X1524944D01*
X1515944Y505718D02*
X1524944D01*
X1629736Y435370D02*
Y452370D01*
X1638736Y435370D02*
Y452370D01*
X1629736Y435370D02*
X1638736D01*
X1629736Y452370D02*
X1638736D01*
X1397136Y72064D02*
X1414136D01*
X1397136Y63064D02*
X1414136D01*
X1397136D02*
Y72064D01*
X1414136Y63064D02*
Y72064D01*
X993674Y61396D02*
X1010674D01*
X993674Y52396D02*
X1010674D01*
X993674D02*
Y61396D01*
X1010674Y52396D02*
Y61396D01*
X592342Y57840D02*
X609342D01*
X592342Y48840D02*
X609342D01*
X592342D02*
Y57840D01*
X609342Y48840D02*
Y57840D01*
X1054512Y451660D02*
X1071512D01*
X1054512Y442660D02*
X1071512D01*
Y451660D01*
X1054512Y442660D02*
Y451660D01*
X1507164Y505718D02*
Y522718D01*
X1498164Y505718D02*
Y522718D01*
Y505718D02*
X1507164D01*
X1498164Y522718D02*
X1507164D01*
X1662756Y435492D02*
Y452492D01*
X1671756Y435492D02*
Y452492D01*
X1662756D02*
X1671756D01*
X1662756Y435492D02*
X1671756D01*
X1396628Y54792D02*
X1413628D01*
X1396628Y45792D02*
X1413628D01*
Y54792D01*
X1396628Y45792D02*
Y54792D01*
X993264Y45648D02*
X1010264D01*
X993264Y36648D02*
X1010264D01*
Y45648D01*
X993264Y36648D02*
Y45648D01*
X592464Y41584D02*
X609464D01*
X592464Y32584D02*
X609464D01*
Y41584D01*
X592464Y32584D02*
Y41584D01*
X1054512Y467408D02*
X1071512D01*
X1054512Y458408D02*
X1071512D01*
Y467408D01*
X1054512Y458408D02*
Y467408D01*
X1524944Y505718D02*
Y522718D01*
X1515944Y505718D02*
Y522718D01*
Y505718D02*
X1524944D01*
X1515944Y522718D02*
X1524944D01*
X1629736Y435492D02*
Y452492D01*
X1638736Y435492D02*
Y452492D01*
X1629736D02*
X1638736D01*
X1629736Y435492D02*
X1638736D01*
X1397136Y72064D02*
X1414136D01*
X1397136Y63064D02*
X1414136D01*
Y72064D01*
X1397136Y63064D02*
Y72064D01*
X993662Y61396D02*
X1010662D01*
X993662Y52396D02*
X1010662D01*
Y61396D01*
X993662Y52396D02*
Y61396D01*
X592464Y57840D02*
X609464D01*
X592464Y48840D02*
X609464D01*
Y57840D01*
X592464Y48840D02*
Y57840D01*
X1054512Y442660D02*
X1071512D01*
X1054512Y451660D02*
X1071512D01*
Y442660D02*
Y451660D01*
X1054512Y442660D02*
Y451660D01*
X1498164Y505718D02*
Y522718D01*
X1507164Y505718D02*
Y522718D01*
X1498164Y505718D02*
X1507164D01*
X1498164Y522718D02*
X1507164D01*
X1671756Y435370D02*
Y452370D01*
X1662756Y435370D02*
Y452370D01*
X1671756D01*
X1662756Y435370D02*
X1671756D01*
X1396628Y45792D02*
X1413628D01*
X1396628Y54792D02*
X1413628D01*
Y45792D02*
Y54792D01*
X1396628Y45792D02*
Y54792D01*
X993264Y36648D02*
X1010264D01*
X993264Y45648D02*
X1010264D01*
Y36648D02*
Y45648D01*
X993264Y36648D02*
Y45648D01*
X592342Y32584D02*
X609342D01*
X592342Y41584D02*
X609342D01*
Y32584D02*
Y41584D01*
X592342Y32584D02*
Y41584D01*
X1047894Y363836D02*
X1064894D01*
X1047894Y372836D02*
X1064894D01*
Y363836D02*
Y372836D01*
X1047894Y363836D02*
Y372836D01*
X1334822Y360552D02*
X1351822D01*
X1334822Y369552D02*
X1351822D01*
Y360552D02*
Y369552D01*
X1334822Y360552D02*
Y369552D01*
X1376225Y321475D02*
X1393225D01*
X1376225Y312475D02*
X1393225D01*
Y321475D01*
X1376225Y312475D02*
Y321475D01*
X1363222Y260168D02*
X1380222D01*
X1363222Y269168D02*
X1380222D01*
Y260168D02*
Y269168D01*
X1363222Y260168D02*
Y269168D01*
X969908Y253564D02*
X986908D01*
X969908Y262564D02*
X986908D01*
Y253564D02*
Y262564D01*
X969908Y253564D02*
Y262564D01*
X651692Y318652D02*
Y335652D01*
X642692Y318652D02*
Y335652D01*
Y318652D02*
X651692D01*
X642692Y335652D02*
X651692D01*
X783708Y311984D02*
Y320984D01*
X766708Y311984D02*
Y320984D01*
Y311984D02*
X783708D01*
X766708Y320984D02*
X783708D01*
X1047894Y372836D02*
X1064894D01*
X1047894Y363836D02*
X1064894D01*
Y372836D01*
X1047894Y363836D02*
Y372836D01*
X1334822Y369552D02*
X1351822D01*
X1334822Y360552D02*
X1351822D01*
Y369552D01*
X1334822Y360552D02*
Y369552D01*
X1376103Y312475D02*
X1393103D01*
X1376103Y321475D02*
X1393103D01*
Y312475D02*
Y321475D01*
X1376103Y312475D02*
Y321475D01*
X1363222Y269168D02*
X1380222D01*
X1363222Y260168D02*
X1380222D01*
Y269168D01*
X1363222Y260168D02*
Y269168D01*
X969908Y262564D02*
X986908D01*
X969908Y253564D02*
X986908D01*
Y262564D01*
X969908Y253564D02*
Y262564D01*
X642692Y318652D02*
Y335652D01*
X651692Y318652D02*
Y335652D01*
X642692Y318652D02*
X651692D01*
X642692Y335652D02*
X651692D01*
X783708Y290648D02*
Y299648D01*
X766708Y290648D02*
Y299648D01*
Y290648D02*
X783708D01*
X766708Y299648D02*
X783708D01*
X1047894Y393592D02*
X1064894D01*
X1047894Y384592D02*
X1064894D01*
Y393592D01*
X1047894Y384592D02*
Y393592D01*
X1334022Y391596D02*
X1351022D01*
X1334022Y382596D02*
X1351022D01*
Y391596D01*
X1334022Y382596D02*
Y391596D01*
X1375566Y337215D02*
X1392566D01*
X1375566Y328215D02*
X1392566D01*
Y337215D01*
X1375566Y328215D02*
Y337215D01*
X1363730Y288472D02*
X1380730D01*
X1363730Y279472D02*
X1380730D01*
Y288472D01*
X1363730Y279472D02*
Y288472D01*
X970416Y280852D02*
X987416D01*
X970416Y271852D02*
X987416D01*
Y280852D01*
X970416Y271852D02*
Y280852D01*
X686236Y321192D02*
Y338192D01*
X677236Y321192D02*
Y338192D01*
Y321192D02*
X686236D01*
X677236Y338192D02*
X686236D01*
X783200Y269312D02*
Y278312D01*
X766200Y269312D02*
Y278312D01*
Y269312D02*
X783200D01*
X766200Y278312D02*
X783200D01*
X1047894Y384592D02*
X1064894D01*
X1047894Y393592D02*
X1064894D01*
Y384592D02*
Y393592D01*
X1047894Y384592D02*
Y393592D01*
X1334192Y382904D02*
X1351192D01*
X1334192Y391904D02*
X1351192D01*
Y382904D02*
Y391904D01*
X1334192Y382904D02*
Y391904D01*
X1375331Y328223D02*
X1392331D01*
X1375331Y337224D02*
X1392331D01*
Y328223D02*
Y337224D01*
X1375331Y328223D02*
Y337224D01*
X1363730Y279472D02*
X1380730D01*
X1363730Y288472D02*
X1380730D01*
Y279472D02*
Y288472D01*
X1363730Y279472D02*
Y288472D01*
X970416Y271852D02*
X987416D01*
X970416Y280852D02*
X987416D01*
Y271852D02*
Y280852D01*
X970416Y271852D02*
Y280852D01*
X677236Y321192D02*
Y338192D01*
X686236Y321192D02*
Y338192D01*
X677236Y321192D02*
X686236D01*
X677236Y338192D02*
X686236D01*
X783200Y247468D02*
Y256468D01*
X766200Y247468D02*
Y256468D01*
Y247468D02*
X783200D01*
X766200Y256468D02*
X783200D01*
X638184Y583764D02*
Y592764D01*
X655184Y583764D02*
Y592764D01*
X638184D02*
X655184D01*
X638184Y583764D02*
X655184D01*
X70684Y485784D02*
Y502784D01*
X79684Y485784D02*
Y502784D01*
X70684D02*
X79684D01*
X70684Y485784D02*
X79684D01*
X113720D02*
Y502784D01*
X104720Y485784D02*
Y502784D01*
Y485784D02*
X113720D01*
X104720Y502784D02*
X113720D01*
X392866Y394212D02*
Y411212D01*
X383866Y394212D02*
Y411212D01*
X392866D01*
X383866Y394212D02*
X392866D01*
X212924Y75066D02*
X221924D01*
X212924Y92066D02*
X221924D01*
X212924Y75066D02*
Y92066D01*
X221924Y75066D02*
Y92066D01*
X112114Y145734D02*
X202114D01*
X112114Y42734D02*
X202114D01*
Y145734D01*
X112114Y42734D02*
Y145734D01*
X137056Y530992D02*
Y560192D01*
X124056Y530992D02*
Y560192D01*
Y530992D02*
X137056D01*
X124056Y560192D02*
X137056D01*
X74320Y156240D02*
X93320D01*
X74320Y128240D02*
X93320D01*
Y156240D01*
X74320Y128240D02*
Y156240D01*
X419318Y554404D02*
Y576404D01*
X404818Y554404D02*
Y576404D01*
X419318D01*
X404818Y554404D02*
X419318D01*
X120572Y591958D02*
X142572D01*
X120572Y577458D02*
X142572D01*
X120572D02*
Y591958D01*
X142572Y577458D02*
Y591958D01*
X121524Y480486D02*
X135524D01*
X121524Y501986D02*
X135524D01*
X121524Y480486D02*
Y501986D01*
X135524Y480486D02*
Y501986D01*
X50404Y482010D02*
X64404D01*
X50404Y503510D02*
X64404D01*
X50404Y482010D02*
Y503510D01*
X64404Y482010D02*
Y503510D01*
X53452Y435782D02*
X67452D01*
X53452Y457282D02*
X67452D01*
X53452Y435782D02*
Y457282D01*
X67452Y435782D02*
Y457282D01*
X117968Y436798D02*
X131968D01*
X117968Y458298D02*
X131968D01*
X117968Y436798D02*
Y458298D01*
X131968Y436798D02*
Y458298D01*
X145844Y74284D02*
X167844D01*
X145844Y88784D02*
X167844D01*
X145844Y74284D02*
Y88784D01*
X167844Y74284D02*
Y88784D01*
X156834Y102792D02*
Y124792D01*
X171334Y102792D02*
Y124792D01*
X156834D02*
X171334D01*
X156834Y102792D02*
X171334D01*
X179694D02*
Y124792D01*
X194194Y102792D02*
Y124792D01*
X179694D02*
X194194D01*
X179694Y102792D02*
X194194D01*
X996436Y441700D02*
Y472700D01*
X1027436Y441700D02*
Y472700D01*
X996436Y441700D02*
X1027436D01*
X996436Y472700D02*
X1027436D01*
X1506192Y555452D02*
Y586452D01*
X1537192Y555452D02*
Y586452D01*
X1506192Y555452D02*
X1537192D01*
X1506192Y586452D02*
X1537192D01*
X1569460Y368548D02*
X1600460D01*
X1569460Y399548D02*
X1600460D01*
Y368548D02*
Y399548D01*
X1569460Y368548D02*
Y399548D01*
X1327144Y49016D02*
Y80016D01*
X1358144Y49016D02*
Y80016D01*
X1327144Y49016D02*
X1358144D01*
X1327144Y80016D02*
X1358144D01*
X921252Y48508D02*
Y79508D01*
X952252Y48508D02*
Y79508D01*
X921252Y48508D02*
X952252D01*
X921252Y79508D02*
X952252D01*
X526028Y45968D02*
Y76968D01*
X557028Y45968D02*
Y76968D01*
X526028Y45968D02*
X557028D01*
X526028Y76968D02*
X557028D01*
D13*
X341828Y208162D02*
X368828D01*
X341828D02*
Y226162D01*
X368828D01*
Y208162D02*
Y226162D01*
X275307Y382080D02*
Y409080D01*
X293307D01*
Y382080D02*
Y409080D01*
X275307Y382080D02*
X293307D01*
X398390Y426156D02*
Y453156D01*
X380390Y426156D02*
X398390D01*
X380390D02*
Y453156D01*
X398390D01*
X1071585Y564532D02*
Y582532D01*
X1098585D01*
Y564532D02*
Y582532D01*
X1071585Y564532D02*
X1098585D01*
X1429492Y505604D02*
Y523604D01*
X1456492D01*
Y505604D02*
Y523604D01*
X1429492Y505604D02*
X1456492D01*
X1503824Y49728D02*
X1521824D01*
Y76728D01*
X1503824D02*
X1521824D01*
X1503824Y49728D02*
Y76728D01*
X1110196Y166768D02*
Y184768D01*
Y166768D02*
X1137196D01*
Y184768D01*
X1110196D02*
X1137196D01*
X712546Y166260D02*
Y184260D01*
Y166260D02*
X739546D01*
Y184260D01*
X712546D02*
X739546D01*
X310852Y167030D02*
Y185030D01*
Y167030D02*
X337852D01*
Y185030D01*
X310852D02*
X337852D01*
X1070540Y565040D02*
Y583040D01*
Y565040D02*
X1097540D01*
Y583040D01*
X1070540D02*
X1097540D01*
X1429492Y505096D02*
Y523096D01*
Y505096D02*
X1456492D01*
Y523096D01*
X1429492D02*
X1456492D01*
X1503824Y76728D02*
X1521824D01*
Y49728D02*
Y76728D01*
X1503824Y49728D02*
X1521824D01*
X1503824D02*
Y76728D01*
X1136826Y166768D02*
Y184768D01*
X1109826Y166768D02*
X1136826D01*
X1109826D02*
Y184768D01*
X1136826D01*
X738688Y165244D02*
Y183244D01*
X711688Y165244D02*
X738688D01*
X711688D02*
Y183244D01*
X738688D01*
X337356Y167030D02*
Y185030D01*
X310356Y167030D02*
X337356D01*
X310356D02*
Y185030D01*
X337356D01*
X1023332Y517408D02*
Y535408D01*
X1050332D01*
Y517408D02*
Y535408D01*
X1023332Y517408D02*
X1050332D01*
X1369784Y567580D02*
Y585580D01*
Y567580D02*
X1396784D01*
Y585580D01*
X1369784D02*
X1396784D01*
X1504332Y150856D02*
X1522332D01*
Y177856D01*
X1504332D02*
X1522332D01*
X1504332Y150856D02*
Y177856D01*
X1210398Y166768D02*
Y184768D01*
Y166768D02*
X1237398D01*
Y184768D01*
X1210398D02*
X1237398D01*
X814788Y166768D02*
Y184768D01*
Y166768D02*
X841788D01*
Y184768D01*
X814788D02*
X841788D01*
X442512Y164736D02*
Y182736D01*
X415512Y164736D02*
X442512D01*
X415512D02*
Y182736D01*
X442512D01*
X1022824Y517408D02*
Y535408D01*
Y517408D02*
X1049824D01*
Y535408D01*
X1022824D02*
X1049824D01*
X1369548Y567580D02*
Y585580D01*
X1396548D01*
Y567580D02*
Y585580D01*
X1369548Y567580D02*
X1396548D01*
X1504332Y177856D02*
X1522332D01*
Y150856D02*
Y177856D01*
X1504332Y150856D02*
X1522332D01*
X1504332D02*
Y177856D01*
X1237024Y166768D02*
Y184768D01*
X1210024Y166768D02*
X1237024D01*
X1210024D02*
Y184768D01*
X1237024D01*
X841572Y166522D02*
Y184522D01*
X814572Y166522D02*
X841572D01*
X814572D02*
Y184522D01*
X841572D01*
X416008Y165244D02*
Y183244D01*
Y165244D02*
X443008D01*
Y183244D01*
X416008D02*
X443008D01*
X913164Y455940D02*
Y473940D01*
X886164D02*
X913164D01*
X886164Y455940D02*
Y473940D01*
Y455940D02*
X913164D01*
X1324648Y454296D02*
Y472296D01*
X1297648D02*
X1324648D01*
X1297648Y454296D02*
Y472296D01*
Y454296D02*
X1324648D01*
X1522171Y252151D02*
X1540171D01*
Y279151D01*
X1522171D02*
X1540171D01*
X1522171Y252151D02*
Y279151D01*
X1313936Y166506D02*
Y184506D01*
Y166506D02*
X1340936D01*
Y184506D01*
X1313936D02*
X1340936D01*
X921492Y164982D02*
Y182982D01*
Y164982D02*
X948492D01*
Y182982D01*
X921492D02*
X948492D01*
X540048Y164228D02*
Y182228D01*
X513048Y164228D02*
X540048D01*
X513048D02*
Y182228D01*
X540048D01*
X886636Y456448D02*
Y474448D01*
X913636D01*
Y456448D02*
Y474448D01*
X886636Y456448D02*
X913636D01*
X1297920Y454296D02*
Y472296D01*
X1324920D01*
Y454296D02*
Y472296D01*
X1297920Y454296D02*
X1324920D01*
X1522171Y279151D02*
X1540171D01*
Y252151D02*
Y279151D01*
X1522171Y252151D02*
X1540171D01*
X1522171D02*
Y279151D01*
X1340668Y166260D02*
Y184260D01*
X1313668Y166260D02*
X1340668D01*
X1313668D02*
Y184260D01*
X1340668D01*
X948492Y164736D02*
Y182736D01*
X921492Y164736D02*
X948492D01*
X921492D02*
Y182736D01*
X948492D01*
X513532Y164228D02*
Y182228D01*
Y164228D02*
X540532D01*
Y182228D01*
X513532D02*
X540532D01*
X816136Y455940D02*
Y473940D01*
X789136D02*
X816136D01*
X789136Y455940D02*
Y473940D01*
Y455940D02*
X816136D01*
X1220272Y456328D02*
Y474328D01*
X1193272D02*
X1220272D01*
X1193272Y456328D02*
Y474328D01*
Y456328D02*
X1220272D01*
X1631840Y359806D02*
X1649840D01*
Y332806D02*
Y359806D01*
X1631840Y332806D02*
X1649840D01*
X1631840D02*
Y359806D01*
X1382126Y108856D02*
Y126856D01*
Y108856D02*
X1409126D01*
Y126856D01*
X1382126D02*
X1409126D01*
X983976Y105562D02*
Y123562D01*
Y105562D02*
X1010976D01*
Y123562D01*
X983976D02*
X1010976D01*
X589563Y109829D02*
Y127829D01*
Y109829D02*
X616563D01*
Y127829D01*
X589563D02*
X616563D01*
X789873Y455678D02*
Y473678D01*
X816873D01*
Y455678D02*
Y473678D01*
X789873Y455678D02*
X816873D01*
X1220272Y456590D02*
Y474590D01*
X1193272Y456590D02*
X1220272D01*
X1193272D02*
Y474590D01*
X1220272D01*
X1631840Y332806D02*
X1649840D01*
Y359806D01*
X1631840D02*
X1649840D01*
X1631840Y332806D02*
Y359806D01*
X1409248Y108856D02*
Y126856D01*
X1382248Y108856D02*
X1409248D01*
X1382248D02*
Y126856D01*
X1409248D01*
X1010492Y105562D02*
Y123562D01*
X983492Y105562D02*
X1010492D01*
X983492D02*
Y123562D01*
X1010492D01*
X616079Y109567D02*
Y127567D01*
X589079Y109567D02*
X616079D01*
X589079D02*
Y127567D01*
X616079D01*
X300716Y208178D02*
Y226178D01*
Y208178D02*
X327716D01*
Y226178D01*
X300716D02*
X327716D01*
X276496Y450380D02*
X294496D01*
X276496Y423380D02*
Y450380D01*
Y423380D02*
X294496D01*
Y450380D01*
X35024Y209804D02*
X95024D01*
Y136804D02*
Y209804D01*
X35024Y136804D02*
X95024D01*
X35024D02*
Y209804D01*
X725100Y325492D02*
X752100D01*
Y307492D02*
Y325492D01*
X725100Y307492D02*
X752100D01*
X725100D02*
Y325492D01*
Y303902D02*
X752100D01*
Y285902D02*
Y303902D01*
X725100Y285902D02*
X752100D01*
X725100D02*
Y303902D01*
X724592Y282058D02*
X751592D01*
Y264058D02*
Y282058D01*
X724592Y264058D02*
X751592D01*
X724592D02*
Y282058D01*
Y260468D02*
X751592D01*
Y242468D02*
Y260468D01*
X724592Y242468D02*
X751592D01*
X724592D02*
Y260468D01*
X1071585Y543196D02*
Y561196D01*
X1098585D01*
Y543196D02*
Y561196D01*
X1071585Y543196D02*
X1098585D01*
X1429492Y484268D02*
Y502268D01*
X1456492D01*
Y484268D02*
Y502268D01*
X1429492Y484268D02*
X1456492D01*
X1525160Y49728D02*
X1543160D01*
Y76728D01*
X1525160D02*
X1543160D01*
X1525160Y49728D02*
Y76728D01*
X1110164Y145186D02*
Y163186D01*
Y145186D02*
X1137164D01*
Y163186D01*
X1110164D02*
X1137164D01*
X712546Y144416D02*
Y162416D01*
Y144416D02*
X739546D01*
Y162416D01*
X712546D02*
X739546D01*
X310852Y145940D02*
Y163940D01*
Y145940D02*
X337852D01*
Y163940D01*
X310852D02*
X337852D01*
X1070540Y543458D02*
Y561458D01*
Y543458D02*
X1097540D01*
Y561458D01*
X1070540D02*
X1097540D01*
X1429728Y483760D02*
Y501760D01*
Y483760D02*
X1456728D01*
Y501760D01*
X1429728D02*
X1456728D01*
X1525160Y76728D02*
X1543160D01*
Y49728D02*
Y76728D01*
X1525160Y49728D02*
X1543160D01*
X1525160D02*
Y76728D01*
X1136826Y144924D02*
Y162924D01*
X1109826Y144924D02*
X1136826D01*
X1109826D02*
Y162924D01*
X1136826D01*
X738688Y143908D02*
Y161908D01*
X711688Y143908D02*
X738688D01*
X711688D02*
Y161908D01*
X738688D01*
X337356Y145940D02*
Y163940D01*
X310356Y145940D02*
X337356D01*
X310356D02*
Y163940D01*
X337356D01*
X1023332Y496072D02*
Y514072D01*
X1050332D01*
Y496072D02*
Y514072D01*
X1023332Y496072D02*
X1050332D01*
X1369784Y545736D02*
Y563736D01*
Y545736D02*
X1396784D01*
Y563736D01*
X1369784D02*
X1396784D01*
X1525668Y150856D02*
X1543668D01*
Y177856D01*
X1525668D02*
X1543668D01*
X1525668Y150856D02*
Y177856D01*
X1210398Y145432D02*
Y163432D01*
Y145432D02*
X1237398D01*
Y163432D01*
X1210398D02*
X1237398D01*
X814540Y144924D02*
Y162924D01*
Y144924D02*
X841540D01*
Y162924D01*
X814540D02*
X841540D01*
X442512Y143400D02*
Y161400D01*
X415512Y143400D02*
X442512D01*
X415512D02*
Y161400D01*
X442512D01*
X1022824Y496072D02*
Y514072D01*
Y496072D02*
X1049824D01*
Y514072D01*
X1022824D02*
X1049824D01*
X1369548Y546244D02*
Y564244D01*
X1396548D01*
Y546244D02*
Y564244D01*
X1369548Y546244D02*
X1396548D01*
X1525668Y177856D02*
X1543668D01*
Y150856D02*
Y177856D01*
X1525668Y150856D02*
X1543668D01*
X1525668D02*
Y177856D01*
X1237024Y145432D02*
Y163432D01*
X1210024Y145432D02*
X1237024D01*
X1210024D02*
Y163432D01*
X1237024D01*
X841292Y145186D02*
Y163186D01*
X814292Y145186D02*
X841292D01*
X814292D02*
Y163186D01*
X841292D01*
X416008Y143908D02*
Y161908D01*
Y143908D02*
X443008D01*
Y161908D01*
X416008D02*
X443008D01*
X913164Y434604D02*
Y452604D01*
X886164D02*
X913164D01*
X886164Y434604D02*
Y452604D01*
Y434604D02*
X913164D01*
X1325156Y432960D02*
Y450960D01*
X1298156D02*
X1325156D01*
X1298156Y432960D02*
Y450960D01*
Y432960D02*
X1325156D01*
X1543507Y252151D02*
X1561507D01*
Y279151D01*
X1543507D02*
X1561507D01*
X1543507Y252151D02*
Y279151D01*
X1313936Y145170D02*
Y163170D01*
Y145170D02*
X1340936D01*
Y163170D01*
X1313936D02*
X1340936D01*
X921492Y143908D02*
Y161908D01*
Y143908D02*
X948492D01*
Y161908D01*
X921492D02*
X948492D01*
X540048Y143400D02*
Y161400D01*
X513048Y143400D02*
X540048D01*
X513048D02*
Y161400D01*
X540048D01*
X886636Y435112D02*
Y453112D01*
X913636D01*
Y435112D02*
Y453112D01*
X886636Y435112D02*
X913636D01*
X1297920Y432960D02*
Y450960D01*
X1324920D01*
Y432960D02*
Y450960D01*
X1297920Y432960D02*
X1324920D01*
X1543507Y279151D02*
X1561507D01*
Y252151D02*
Y279151D01*
X1543507Y252151D02*
X1561507D01*
X1543507D02*
Y279151D01*
X1340668Y144416D02*
Y162416D01*
X1313668Y144416D02*
X1340668D01*
X1313668D02*
Y162416D01*
X1340668D01*
X948492Y143400D02*
Y161400D01*
X921492Y143400D02*
X948492D01*
X921492D02*
Y161400D01*
X948492D01*
X513532Y143400D02*
Y161400D01*
Y143400D02*
X540532D01*
Y161400D01*
X513532D02*
X540532D01*
X816136Y434604D02*
Y452604D01*
X789136D02*
X816136D01*
X789136Y434604D02*
Y452604D01*
Y434604D02*
X816136D01*
X1220272Y434992D02*
Y452992D01*
X1193272D02*
X1220272D01*
X1193272Y434992D02*
Y452992D01*
Y434992D02*
X1220272D01*
X1653176Y359806D02*
X1671176D01*
Y332806D02*
Y359806D01*
X1653176Y332806D02*
X1671176D01*
X1653176D02*
Y359806D01*
X1382126Y87520D02*
Y105520D01*
Y87520D02*
X1409126D01*
Y105520D01*
X1382126D02*
X1409126D01*
X983220Y84226D02*
Y102226D01*
Y84226D02*
X1010220D01*
Y102226D01*
X983220D02*
X1010220D01*
X589563Y88739D02*
Y106739D01*
Y88739D02*
X616563D01*
Y106739D01*
X589563D02*
X616563D01*
X789873Y434604D02*
Y452604D01*
X816873D01*
Y434604D02*
Y452604D01*
X789873Y434604D02*
X816873D01*
X1220272Y435500D02*
Y453500D01*
X1193272Y435500D02*
X1220272D01*
X1193272D02*
Y453500D01*
X1220272D01*
X1653176Y332806D02*
X1671176D01*
Y359806D01*
X1653176D02*
X1671176D01*
X1653176Y332806D02*
Y359806D01*
X1409248Y87520D02*
Y105520D01*
X1382248Y87520D02*
X1409248D01*
X1382248D02*
Y105520D01*
X1409248D01*
X1009984Y84226D02*
Y102226D01*
X982984Y84226D02*
X1009984D01*
X982984D02*
Y102226D01*
X1009984D01*
X616079Y88231D02*
Y106231D01*
X589079Y88231D02*
X616079D01*
X589079D02*
Y106231D01*
X616079D01*
X344910Y575888D02*
X362910D01*
X344910Y548888D02*
Y575888D01*
Y548888D02*
X362910D01*
Y575888D01*
X402806Y577920D02*
X420806D01*
Y550920D02*
Y577920D01*
X402806Y550920D02*
X420806D01*
X402806D02*
Y577920D01*
X170832Y459016D02*
X188832D01*
Y432016D02*
Y459016D01*
X170832Y432016D02*
X188832D01*
X170832D02*
Y459016D01*
X171602Y459048D02*
X189602D01*
X171602Y432048D02*
Y459048D01*
Y432048D02*
X189602D01*
Y459048D01*
X83528Y530208D02*
X110528D01*
X83528Y512208D02*
Y530208D01*
Y512208D02*
X110528D01*
Y530208D01*
X341668Y208932D02*
Y226932D01*
X314668Y208932D02*
X341668D01*
X314668D02*
Y226932D01*
X341668D01*
X317136Y314668D02*
X335136D01*
X317136D02*
Y341668D01*
X335136D01*
Y314668D02*
Y341668D01*
X352434Y452140D02*
X370434D01*
Y425140D02*
Y452140D01*
X352434Y425140D02*
X370434D01*
X352434D02*
Y452140D01*
X359554Y314414D02*
Y341414D01*
Y314414D02*
X377554D01*
Y341414D01*
X359554D02*
X377554D01*
X338210Y314396D02*
Y341396D01*
Y314396D02*
X356210D01*
Y341396D01*
X338210D02*
X356210D01*
X402988Y314668D02*
X420988D01*
X402988D02*
Y341668D01*
X420988D01*
Y314668D02*
Y341668D01*
X142964Y49420D02*
Y67420D01*
X169964D01*
Y49420D02*
Y67420D01*
X142964Y49420D02*
X169964D01*
X130954Y125514D02*
X148954D01*
Y98514D02*
Y125514D01*
X130954Y98514D02*
X148954D01*
X130954D02*
Y125514D01*
X227694Y109436D02*
Y136436D01*
X209694Y109436D02*
X227694D01*
X209694D02*
Y136436D01*
X227694D01*
X210872Y469924D02*
Y599924D01*
X280872D01*
Y469924D02*
Y599924D01*
X210872Y469924D02*
X280872D01*
X72648Y453404D02*
Y503404D01*
X111648D01*
Y453404D02*
Y503404D01*
X72648Y453404D02*
X111648D01*
X316340Y423380D02*
Y450380D01*
X298340Y423380D02*
X316340D01*
X298340D02*
Y450380D01*
X316340D01*
X330860Y425430D02*
X348860D01*
X330860D02*
Y452430D01*
X348860D01*
Y425430D02*
Y452430D01*
X649649Y253325D02*
X651003Y251971D01*
X653712D01*
X655066Y253325D01*
Y258742D01*
X653712Y260096D01*
X651003D01*
X649649Y258742D01*
Y256033D01*
X652357D01*
X646941Y260096D02*
Y251971D01*
X641524Y260096D01*
Y251971D01*
X638815D02*
Y260096D01*
X634753D01*
X633398Y258742D01*
Y253325D01*
X634753Y251971D01*
X638815D01*
D14*
X445516Y237856D02*
X623316D01*
Y600456D01*
X445516Y237856D02*
Y600456D01*
X623316D01*
X283812Y230890D02*
Y358390D01*
Y230890D02*
X390812D01*
Y358390D01*
X283812D02*
X390812D01*
X1105520Y471148D02*
X1119520D01*
Y500148D01*
X1105520D02*
X1119520D01*
X1105520Y471148D02*
Y500148D01*
X1501880Y462392D02*
Y476392D01*
Y462392D02*
X1530880D01*
Y476392D01*
X1501880D02*
X1530880D01*
X1577452Y465604D02*
X1591452D01*
X1577452Y436604D02*
Y465604D01*
Y436604D02*
X1591452D01*
Y465604D01*
X1445880Y63224D02*
X1459880D01*
Y92224D01*
X1445880D02*
X1459880D01*
X1445880Y63224D02*
Y92224D01*
X1036940Y65256D02*
X1050940D01*
Y94256D01*
X1036940D02*
X1050940D01*
X1036940Y65256D02*
Y94256D01*
X634096Y48492D02*
X648096D01*
Y77492D01*
X634096D02*
X648096D01*
X634096Y48492D02*
Y77492D01*
X972424Y389404D02*
X986424D01*
X972424Y360404D02*
Y389404D01*
Y360404D02*
X986424D01*
Y389404D01*
X1247760Y382292D02*
X1261760D01*
X1247760Y353292D02*
Y382292D01*
Y353292D02*
X1261760D01*
Y382292D01*
X1277732Y312144D02*
X1291732D01*
X1277732D02*
Y341144D01*
X1291732D01*
Y312144D02*
Y341144D01*
X1288400Y288820D02*
X1302400D01*
X1288400Y259820D02*
Y288820D01*
Y259820D02*
X1302400D01*
Y288820D01*
X897748Y282216D02*
X911748D01*
X897748Y253216D02*
Y282216D01*
Y253216D02*
X911748D01*
Y282216D01*
X641836Y379588D02*
Y393588D01*
X670836D01*
Y379588D02*
Y393588D01*
X641836Y379588D02*
X670836D01*
D18*
X-899Y50800D02*
G03*
X50253Y119I50683J0D01*
G01*
X1668595Y738D02*
G03*
X1720070Y52692I0J51477D01*
G01*
X1720140Y579741D02*
G03*
X1668988Y630422I-50683J0D01*
G01*
X50253Y-4D02*
X1668595Y738D01*
X1720070Y52692D02*
X1720088Y579741D01*
X49673Y629466D02*
X1668988Y630420D01*
X-1016Y50800D02*
X-1008Y578314D01*
D19*
X299227Y472948D02*
Y597154D01*
D20*
X205930Y468926D02*
X285825D01*
X205930D02*
Y600964D01*
X285825D01*
Y468926D02*
Y600964D01*
M02*
