G04*
G04 #@! TF.GenerationSoftware,Altium Limited,Altium Designer,22.8.2 (66)*
G04*
G04 Layer_Color=255*
%FSLAX44Y44*%
%MOMM*%
G71*
G04*
G04 #@! TF.SameCoordinates,3B6084FD-5DD7-4A75-9D95-E8563ACB50C0*
G04*
G04*
G04 #@! TF.FilePolarity,Positive*
G04*
G01*
G75*
%ADD18C,1.0000*%
%ADD19C,0.0254*%
%ADD20C,0.0500*%
G04:AMPARAMS|DCode=26|XSize=1.3mm|YSize=1.5001mm|CornerRadius=0.325mm|HoleSize=0mm|Usage=FLASHONLY|Rotation=180.000|XOffset=0mm|YOffset=0mm|HoleType=Round|Shape=RoundedRectangle|*
%AMROUNDEDRECTD26*
21,1,1.3000,0.8501,0,0,180.0*
21,1,0.6500,1.5001,0,0,180.0*
1,1,0.6500,-0.3250,0.4251*
1,1,0.6500,0.3250,0.4251*
1,1,0.6500,0.3250,-0.4251*
1,1,0.6500,-0.3250,-0.4251*
%
%ADD26ROUNDEDRECTD26*%
G04:AMPARAMS|DCode=27|XSize=1.3mm|YSize=1.5001mm|CornerRadius=0.325mm|HoleSize=0mm|Usage=FLASHONLY|Rotation=90.000|XOffset=0mm|YOffset=0mm|HoleType=Round|Shape=RoundedRectangle|*
%AMROUNDEDRECTD27*
21,1,1.3000,0.8501,0,0,90.0*
21,1,0.6500,1.5001,0,0,90.0*
1,1,0.6500,0.4251,0.3250*
1,1,0.6500,0.4251,-0.3250*
1,1,0.6500,-0.4251,-0.3250*
1,1,0.6500,-0.4251,0.3250*
%
%ADD27ROUNDEDRECTD27*%
G04:AMPARAMS|DCode=28|XSize=1mm|YSize=1.15mm|CornerRadius=0.25mm|HoleSize=0mm|Usage=FLASHONLY|Rotation=0.000|XOffset=0mm|YOffset=0mm|HoleType=Round|Shape=RoundedRectangle|*
%AMROUNDEDRECTD28*
21,1,1.0000,0.6500,0,0,0.0*
21,1,0.5000,1.1500,0,0,0.0*
1,1,0.5000,0.2500,-0.3250*
1,1,0.5000,-0.2500,-0.3250*
1,1,0.5000,-0.2500,0.3250*
1,1,0.5000,0.2500,0.3250*
%
%ADD28ROUNDEDRECTD28*%
G04:AMPARAMS|DCode=29|XSize=1mm|YSize=1.15mm|CornerRadius=0.25mm|HoleSize=0mm|Usage=FLASHONLY|Rotation=270.000|XOffset=0mm|YOffset=0mm|HoleType=Round|Shape=RoundedRectangle|*
%AMROUNDEDRECTD29*
21,1,1.0000,0.6500,0,0,270.0*
21,1,0.5000,1.1500,0,0,270.0*
1,1,0.5000,-0.3250,-0.2500*
1,1,0.5000,-0.3250,0.2500*
1,1,0.5000,0.3250,0.2500*
1,1,0.5000,0.3250,-0.2500*
%
%ADD29ROUNDEDRECTD29*%
G04:AMPARAMS|DCode=31|XSize=1.15mm|YSize=0.6mm|CornerRadius=0.075mm|HoleSize=0mm|Usage=FLASHONLY|Rotation=0.000|XOffset=0mm|YOffset=0mm|HoleType=Round|Shape=RoundedRectangle|*
%AMROUNDEDRECTD31*
21,1,1.1500,0.4500,0,0,0.0*
21,1,1.0000,0.6000,0,0,0.0*
1,1,0.1500,0.5000,-0.2250*
1,1,0.1500,-0.5000,-0.2250*
1,1,0.1500,-0.5000,0.2250*
1,1,0.1500,0.5000,0.2250*
%
%ADD31ROUNDEDRECTD31*%
G04:AMPARAMS|DCode=32|XSize=1.15mm|YSize=0.6mm|CornerRadius=0.075mm|HoleSize=0mm|Usage=FLASHONLY|Rotation=270.000|XOffset=0mm|YOffset=0mm|HoleType=Round|Shape=RoundedRectangle|*
%AMROUNDEDRECTD32*
21,1,1.1500,0.4500,0,0,270.0*
21,1,1.0000,0.6000,0,0,270.0*
1,1,0.1500,-0.2250,-0.5000*
1,1,0.1500,-0.2250,0.5000*
1,1,0.1500,0.2250,0.5000*
1,1,0.1500,0.2250,-0.5000*
%
%ADD32ROUNDEDRECTD32*%
%ADD36R,1.8582X1.5057*%
%ADD37R,1.4500X1.3000*%
%ADD38R,1.3000X1.4500*%
%ADD80C,1.5300*%
%ADD81C,0.6000*%
%ADD82C,3.0000*%
%ADD83C,1.5240*%
%ADD99R,1.4621X1.2081*%
G04:AMPARAMS|DCode=100|XSize=2.3mm|YSize=5.6mm|CornerRadius=0.575mm|HoleSize=0mm|Usage=FLASHONLY|Rotation=270.000|XOffset=0mm|YOffset=0mm|HoleType=Round|Shape=RoundedRectangle|*
%AMROUNDEDRECTD100*
21,1,2.3000,4.4500,0,0,270.0*
21,1,1.1500,5.6000,0,0,270.0*
1,1,1.1500,-2.2250,-0.5750*
1,1,1.1500,-2.2250,0.5750*
1,1,1.1500,2.2250,0.5750*
1,1,1.1500,2.2250,-0.5750*
%
%ADD100ROUNDEDRECTD100*%
%ADD101R,1.5057X1.8582*%
D18*
X-899Y50800D02*
G03*
X50253Y119I50683J0D01*
G01*
X1668595Y738D02*
G03*
X1720070Y52692I0J51477D01*
G01*
X1720140Y579741D02*
G03*
X1668988Y630422I-50683J0D01*
G01*
X50253Y-4D02*
X1668595Y738D01*
X1720070Y52692D02*
X1720088Y579741D01*
X49673Y629466D02*
X1668988Y630420D01*
X-1016Y50800D02*
X-1008Y578314D01*
D19*
X299227Y472948D02*
Y597154D01*
D20*
X205930Y468926D02*
X285825D01*
X205930D02*
Y600964D01*
X285825D01*
Y468926D02*
Y600964D01*
D26*
X1075465Y573794D02*
D03*
X1094464D02*
D03*
X1433372Y514866D02*
D03*
X1452372D02*
D03*
X1132945Y175506D02*
D03*
X1113946D02*
D03*
X734807Y173982D02*
D03*
X715808D02*
D03*
X333475Y175768D02*
D03*
X314476D02*
D03*
X1027213Y526670D02*
D03*
X1046212D02*
D03*
X438631Y173474D02*
D03*
X419632D02*
D03*
X1373428Y576842D02*
D03*
X1392428D02*
D03*
X1233143Y175506D02*
D03*
X1214144D02*
D03*
X837692Y175260D02*
D03*
X818693D02*
D03*
X536167Y172966D02*
D03*
X517168D02*
D03*
X890517Y465710D02*
D03*
X909516D02*
D03*
X1301800Y463558D02*
D03*
X1320800D02*
D03*
X1336787Y174998D02*
D03*
X1317788D02*
D03*
X944611Y173474D02*
D03*
X925612D02*
D03*
X793754Y464940D02*
D03*
X812753D02*
D03*
X1216391Y465328D02*
D03*
X1197392D02*
D03*
X1405367Y117594D02*
D03*
X1386368D02*
D03*
X1006612Y114300D02*
D03*
X987613D02*
D03*
X612199Y118305D02*
D03*
X593200D02*
D03*
X1075465Y552458D02*
D03*
X1094464D02*
D03*
X1433372Y493530D02*
D03*
X1452372D02*
D03*
X1132945Y153662D02*
D03*
X1113946D02*
D03*
X734807Y152646D02*
D03*
X715808D02*
D03*
X333475Y154678D02*
D03*
X314476D02*
D03*
X1027213Y505334D02*
D03*
X1046212D02*
D03*
X438631Y152138D02*
D03*
X419632D02*
D03*
X1373428Y555506D02*
D03*
X1392428D02*
D03*
X1233143Y154170D02*
D03*
X1214144D02*
D03*
X837411Y153924D02*
D03*
X818412D02*
D03*
X536167Y152138D02*
D03*
X517168D02*
D03*
X890517Y444374D02*
D03*
X909516D02*
D03*
X1301800Y442222D02*
D03*
X1320800D02*
D03*
X1336787Y153154D02*
D03*
X1317788D02*
D03*
X944611Y152138D02*
D03*
X925612D02*
D03*
X793754Y443866D02*
D03*
X812753D02*
D03*
X1216391Y444238D02*
D03*
X1197392D02*
D03*
X1405367Y96258D02*
D03*
X1386368D02*
D03*
X1006104Y92964D02*
D03*
X987104D02*
D03*
X612199Y96969D02*
D03*
X593200D02*
D03*
X87648Y520946D02*
D03*
X106648D02*
D03*
X337788Y217670D02*
D03*
X318788D02*
D03*
X146844Y58682D02*
D03*
X165844D02*
D03*
D27*
X1513086Y72848D02*
D03*
Y53849D02*
D03*
X1513594Y173975D02*
D03*
Y154976D02*
D03*
X1531433Y275270D02*
D03*
Y256271D02*
D03*
X1641102Y355926D02*
D03*
Y336926D02*
D03*
X1534422Y72848D02*
D03*
Y53849D02*
D03*
X1534930Y173975D02*
D03*
Y154976D02*
D03*
X1552769Y275270D02*
D03*
Y256271D02*
D03*
X1662438Y355926D02*
D03*
Y336926D02*
D03*
X412068Y574040D02*
D03*
Y555041D02*
D03*
X180094Y455136D02*
D03*
Y436136D02*
D03*
X325874Y318548D02*
D03*
Y337548D02*
D03*
X361696Y448259D02*
D03*
Y429260D02*
D03*
X368816Y318534D02*
D03*
Y337534D02*
D03*
X347472Y318516D02*
D03*
Y337515D02*
D03*
X411726Y318548D02*
D03*
Y337548D02*
D03*
X140216Y121634D02*
D03*
Y102634D02*
D03*
X339598Y429311D02*
D03*
Y448310D02*
D03*
D28*
X1494028Y71242D02*
D03*
Y54742D02*
D03*
X1494536Y172842D02*
D03*
Y156342D02*
D03*
X1512375Y274137D02*
D03*
Y257637D02*
D03*
X1622044Y354320D02*
D03*
Y337820D02*
D03*
X1502664Y505968D02*
D03*
Y522468D02*
D03*
X1667256Y452242D02*
D03*
Y435742D02*
D03*
X1520444Y505968D02*
D03*
Y522468D02*
D03*
X1634236Y452242D02*
D03*
Y435742D02*
D03*
X647192Y318902D02*
D03*
Y335402D02*
D03*
X681736Y321442D02*
D03*
Y337942D02*
D03*
X75184Y502534D02*
D03*
Y486034D02*
D03*
X109220D02*
D03*
Y502534D02*
D03*
D29*
X1076599Y592328D02*
D03*
X1093099D02*
D03*
X1434978Y533400D02*
D03*
X1451478D02*
D03*
X1131824Y194056D02*
D03*
X1115324D02*
D03*
X734304Y193548D02*
D03*
X717804D02*
D03*
X332354Y194564D02*
D03*
X315854D02*
D03*
X1028346Y545204D02*
D03*
X1044846D02*
D03*
X437510Y192532D02*
D03*
X421010D02*
D03*
X1375034Y595376D02*
D03*
X1391534D02*
D03*
X1232144Y194056D02*
D03*
X1215644D02*
D03*
X836290D02*
D03*
X819790D02*
D03*
X535034Y191516D02*
D03*
X518534D02*
D03*
X891650Y484244D02*
D03*
X908150D02*
D03*
X1303406Y481584D02*
D03*
X1319906D02*
D03*
X1335776Y193548D02*
D03*
X1319276D02*
D03*
X943478Y192532D02*
D03*
X926978D02*
D03*
X794887Y483228D02*
D03*
X811387D02*
D03*
X1215258Y484124D02*
D03*
X1198758D02*
D03*
X1404234Y136652D02*
D03*
X1387734D02*
D03*
X1005588Y132850D02*
D03*
X989088D02*
D03*
X611065Y136855D02*
D03*
X594565D02*
D03*
X1071262Y447160D02*
D03*
X1054762D02*
D03*
X1413378Y50292D02*
D03*
X1396878D02*
D03*
X1010014Y41148D02*
D03*
X993514D02*
D03*
X609214Y37084D02*
D03*
X592714D02*
D03*
X1071262Y462908D02*
D03*
X1054762D02*
D03*
X1413886Y67564D02*
D03*
X1397386D02*
D03*
X1010412Y56896D02*
D03*
X993912D02*
D03*
X609214Y53340D02*
D03*
X592714D02*
D03*
X1392975Y316975D02*
D03*
X1376475D02*
D03*
X1064644Y368336D02*
D03*
X1048144D02*
D03*
X1351572Y365052D02*
D03*
X1335072D02*
D03*
X1379972Y264668D02*
D03*
X1363472D02*
D03*
X986658Y258064D02*
D03*
X970158D02*
D03*
X1064644Y389092D02*
D03*
X1048144D02*
D03*
X1350772Y387096D02*
D03*
X1334272D02*
D03*
X1392316Y332715D02*
D03*
X1375816D02*
D03*
X1380480Y283972D02*
D03*
X1363980D02*
D03*
X987166Y276352D02*
D03*
X970666D02*
D03*
D31*
X1295582Y317144D02*
D03*
X1273882Y326644D02*
D03*
X1295582Y336144D02*
D03*
D32*
X646836Y375738D02*
D03*
X656336Y397438D02*
D03*
X665836Y375738D02*
D03*
D36*
X384636Y540990D02*
D03*
Y570514D02*
D03*
X244348Y337342D02*
D03*
Y307818D02*
D03*
D37*
X164084Y121792D02*
D03*
Y105792D02*
D03*
X186944Y121792D02*
D03*
Y105792D02*
D03*
D38*
X148844Y81534D02*
D03*
X164844D02*
D03*
D80*
X610616Y587756D02*
D03*
Y562356D02*
D03*
Y536956D02*
D03*
Y511556D02*
D03*
Y486156D02*
D03*
Y460756D02*
D03*
Y435356D02*
D03*
Y409956D02*
D03*
Y384556D02*
D03*
Y359156D02*
D03*
Y333756D02*
D03*
Y308356D02*
D03*
Y282956D02*
D03*
Y257556D02*
D03*
X458216Y587756D02*
D03*
Y562356D02*
D03*
Y536956D02*
D03*
Y511556D02*
D03*
Y486156D02*
D03*
Y460756D02*
D03*
Y435356D02*
D03*
Y409956D02*
D03*
Y384556D02*
D03*
Y359156D02*
D03*
Y333756D02*
D03*
Y308356D02*
D03*
Y282956D02*
D03*
Y257556D02*
D03*
X585216Y587756D02*
D03*
X559816D02*
D03*
X534416D02*
D03*
X509016D02*
D03*
X483616D02*
D03*
D81*
X218948Y191516D02*
D03*
Y216916D02*
D03*
Y242316D02*
D03*
Y369316D02*
D03*
Y293116D02*
D03*
Y318516D02*
D03*
Y343916D02*
D03*
D82*
X102616Y357812D02*
D03*
Y315812D02*
D03*
Y273812D02*
D03*
X47616Y357812D02*
D03*
Y315812D02*
D03*
Y273812D02*
D03*
X1185164Y263144D02*
D03*
X937260Y528184D02*
D03*
Y583184D02*
D03*
X895260Y528184D02*
D03*
Y583184D02*
D03*
X853260Y528184D02*
D03*
Y583184D02*
D03*
X811260Y528184D02*
D03*
Y583184D02*
D03*
X979260D02*
D03*
Y528184D02*
D03*
X1286272Y526288D02*
D03*
Y581288D02*
D03*
X1244272Y526288D02*
D03*
Y581288D02*
D03*
X1202272Y526288D02*
D03*
Y581288D02*
D03*
X1160272Y526288D02*
D03*
Y581288D02*
D03*
X1328272D02*
D03*
Y526288D02*
D03*
X1597660Y125804D02*
D03*
X1652660D02*
D03*
Y293804D02*
D03*
X1597660D02*
D03*
X1652660Y251804D02*
D03*
X1597660D02*
D03*
X1652660Y209804D02*
D03*
X1597660D02*
D03*
X1652660Y167804D02*
D03*
X1597660D02*
D03*
X356272Y108204D02*
D03*
Y53204D02*
D03*
X398272Y108204D02*
D03*
Y53204D02*
D03*
X440272Y108204D02*
D03*
Y53204D02*
D03*
X482272Y108204D02*
D03*
Y53204D02*
D03*
X314272D02*
D03*
Y108204D02*
D03*
X1668600Y52220D02*
D03*
X708152Y108204D02*
D03*
Y53204D02*
D03*
X876152D02*
D03*
Y108204D02*
D03*
X834152Y53204D02*
D03*
Y108204D02*
D03*
X792152Y53204D02*
D03*
Y108204D02*
D03*
X750152Y53204D02*
D03*
Y108204D02*
D03*
X1154340Y108712D02*
D03*
Y53712D02*
D03*
X1196340Y108712D02*
D03*
Y53712D02*
D03*
X1238340Y108712D02*
D03*
Y53712D02*
D03*
X1280340Y108712D02*
D03*
Y53712D02*
D03*
X1112340D02*
D03*
Y108712D02*
D03*
X1669460Y579740D02*
D03*
X48770Y579630D02*
D03*
D83*
X49780Y50800D02*
D03*
D99*
X151384Y458444D02*
D03*
Y438404D02*
D03*
D100*
X65024Y209804D02*
D03*
Y136804D02*
D03*
D101*
X150368Y600964D02*
D03*
X120843D02*
D03*
M02*
