G04*
G04 #@! TF.GenerationSoftware,Altium Limited,Altium Designer,22.8.2 (66)*
G04*
G04 Layer_Color=32768*
%FSLAX44Y44*%
%MOMM*%
G71*
G04*
G04 #@! TF.SameCoordinates,3B6084FD-5DD7-4A75-9D95-E8563ACB50C0*
G04*
G04*
G04 #@! TF.FilePolarity,Positive*
G04*
G01*
G75*
%ADD11C,0.2000*%
%ADD18C,1.0000*%
%ADD19C,0.0254*%
%ADD20C,0.0500*%
D11*
X335006Y420744D02*
Y454744D01*
Y420744D02*
X377556D01*
Y454744D01*
X335006D02*
X377556D01*
X27510Y177520D02*
X69010D01*
X27510Y117120D02*
Y177520D01*
Y117120D02*
X69010D01*
Y177520D01*
X369837Y582535D02*
X398419D01*
X369837Y527953D02*
Y582535D01*
Y527953D02*
X398419D01*
Y582535D01*
D18*
X-899Y50800D02*
G03*
X50253Y119I50683J0D01*
G01*
X1668595Y738D02*
G03*
X1720070Y52692I0J51477D01*
G01*
X1720140Y579741D02*
G03*
X1668988Y630422I-50683J0D01*
G01*
X50253Y-4D02*
X1668595Y738D01*
X1720070Y52692D02*
X1720088Y579741D01*
X49673Y629466D02*
X1668988Y630420D01*
X-1016Y50800D02*
X-1008Y578314D01*
D19*
X299227Y472948D02*
Y597154D01*
D20*
X205930Y468926D02*
X285825D01*
X205930D02*
Y600964D01*
X285825D01*
Y468926D02*
Y600964D01*
M02*
