G04*
G04 #@! TF.GenerationSoftware,Altium Limited,Altium Designer,22.8.2 (66)*
G04*
G04 Layer_Physical_Order=1*
G04 Layer_Color=255*
%FSLAX44Y44*%
%MOMM*%
G71*
G04*
G04 #@! TF.SameCoordinates,AF58AEFE-5498-464C-92CE-300A63243590*
G04*
G04*
G04 #@! TF.FilePolarity,Positive*
G04*
G01*
G75*
%ADD10C,0.2540*%
%ADD13C,0.1270*%
%ADD17C,0.0254*%
%ADD18C,0.0500*%
%ADD19R,0.7000X0.9000*%
G04:AMPARAMS|DCode=20|XSize=1.3mm|YSize=1.5001mm|CornerRadius=0.325mm|HoleSize=0mm|Usage=FLASHONLY|Rotation=180.000|XOffset=0mm|YOffset=0mm|HoleType=Round|Shape=RoundedRectangle|*
%AMROUNDEDRECTD20*
21,1,1.3000,0.8501,0,0,180.0*
21,1,0.6500,1.5001,0,0,180.0*
1,1,0.6500,-0.3250,0.4251*
1,1,0.6500,0.3250,0.4251*
1,1,0.6500,0.3250,-0.4251*
1,1,0.6500,-0.3250,-0.4251*
%
%ADD20ROUNDEDRECTD20*%
G04:AMPARAMS|DCode=21|XSize=0.508mm|YSize=0.6096mm|CornerRadius=0.0635mm|HoleSize=0mm|Usage=FLASHONLY|Rotation=180.000|XOffset=0mm|YOffset=0mm|HoleType=Round|Shape=RoundedRectangle|*
%AMROUNDEDRECTD21*
21,1,0.5080,0.4826,0,0,180.0*
21,1,0.3810,0.6096,0,0,180.0*
1,1,0.1270,-0.1905,0.2413*
1,1,0.1270,0.1905,0.2413*
1,1,0.1270,0.1905,-0.2413*
1,1,0.1270,-0.1905,-0.2413*
%
%ADD21ROUNDEDRECTD21*%
%ADD22R,1.6002X1.6002*%
G04:AMPARAMS|DCode=23|XSize=2.7mm|YSize=2.7mm|CornerRadius=0.675mm|HoleSize=0mm|Usage=FLASHONLY|Rotation=0.000|XOffset=0mm|YOffset=0mm|HoleType=Round|Shape=RoundedRectangle|*
%AMROUNDEDRECTD23*
21,1,2.7000,1.3500,0,0,0.0*
21,1,1.3500,2.7000,0,0,0.0*
1,1,1.3500,0.6750,-0.6750*
1,1,1.3500,-0.6750,-0.6750*
1,1,1.3500,-0.6750,0.6750*
1,1,1.3500,0.6750,0.6750*
%
%ADD23ROUNDEDRECTD23*%
G04:AMPARAMS|DCode=24|XSize=0.8mm|YSize=0.9mm|CornerRadius=0.2mm|HoleSize=0mm|Usage=FLASHONLY|Rotation=90.000|XOffset=0mm|YOffset=0mm|HoleType=Round|Shape=RoundedRectangle|*
%AMROUNDEDRECTD24*
21,1,0.8000,0.5000,0,0,90.0*
21,1,0.4000,0.9000,0,0,90.0*
1,1,0.4000,0.2500,0.2000*
1,1,0.4000,0.2500,-0.2000*
1,1,0.4000,-0.2500,-0.2000*
1,1,0.4000,-0.2500,0.2000*
%
%ADD24ROUNDEDRECTD24*%
G04:AMPARAMS|DCode=25|XSize=1.35mm|YSize=0.9mm|CornerRadius=0.225mm|HoleSize=0mm|Usage=FLASHONLY|Rotation=180.000|XOffset=0mm|YOffset=0mm|HoleType=Round|Shape=RoundedRectangle|*
%AMROUNDEDRECTD25*
21,1,1.3500,0.4500,0,0,180.0*
21,1,0.9000,0.9000,0,0,180.0*
1,1,0.4500,-0.4500,0.2250*
1,1,0.4500,0.4500,0.2250*
1,1,0.4500,0.4500,-0.2250*
1,1,0.4500,-0.4500,-0.2250*
%
%ADD25ROUNDEDRECTD25*%
%ADD26O,2.1590X0.7112*%
G04:AMPARAMS|DCode=27|XSize=2.159mm|YSize=0.7112mm|CornerRadius=0.1778mm|HoleSize=0mm|Usage=FLASHONLY|Rotation=0.000|XOffset=0mm|YOffset=0mm|HoleType=Round|Shape=RoundedRectangle|*
%AMROUNDEDRECTD27*
21,1,2.1590,0.3556,0,0,0.0*
21,1,1.8034,0.7112,0,0,0.0*
1,1,0.3556,0.9017,-0.1778*
1,1,0.3556,-0.9017,-0.1778*
1,1,0.3556,-0.9017,0.1778*
1,1,0.3556,0.9017,0.1778*
%
%ADD27ROUNDEDRECTD27*%
G04:AMPARAMS|DCode=28|XSize=0.9mm|YSize=0.8mm|CornerRadius=0.2mm|HoleSize=0mm|Usage=FLASHONLY|Rotation=90.000|XOffset=0mm|YOffset=0mm|HoleType=Round|Shape=RoundedRectangle|*
%AMROUNDEDRECTD28*
21,1,0.9000,0.4000,0,0,90.0*
21,1,0.5000,0.8000,0,0,90.0*
1,1,0.4000,0.2000,0.2500*
1,1,0.4000,0.2000,-0.2500*
1,1,0.4000,-0.2000,-0.2500*
1,1,0.4000,-0.2000,0.2500*
%
%ADD28ROUNDEDRECTD28*%
G04:AMPARAMS|DCode=29|XSize=1.3mm|YSize=1.5001mm|CornerRadius=0.325mm|HoleSize=0mm|Usage=FLASHONLY|Rotation=270.000|XOffset=0mm|YOffset=0mm|HoleType=Round|Shape=RoundedRectangle|*
%AMROUNDEDRECTD29*
21,1,1.3000,0.8501,0,0,270.0*
21,1,0.6500,1.5001,0,0,270.0*
1,1,0.6500,-0.4251,-0.3250*
1,1,0.6500,-0.4251,0.3250*
1,1,0.6500,0.4251,0.3250*
1,1,0.6500,0.4251,-0.3250*
%
%ADD29ROUNDEDRECTD29*%
G04:AMPARAMS|DCode=30|XSize=1.8mm|YSize=3.05mm|CornerRadius=0.45mm|HoleSize=0mm|Usage=FLASHONLY|Rotation=90.000|XOffset=0mm|YOffset=0mm|HoleType=Round|Shape=RoundedRectangle|*
%AMROUNDEDRECTD30*
21,1,1.8000,2.1500,0,0,90.0*
21,1,0.9000,3.0500,0,0,90.0*
1,1,0.9000,1.0750,0.4500*
1,1,0.9000,1.0750,-0.4500*
1,1,0.9000,-1.0750,-0.4500*
1,1,0.9000,-1.0750,0.4500*
%
%ADD30ROUNDEDRECTD30*%
G04:AMPARAMS|DCode=31|XSize=2.2mm|YSize=3.5mm|CornerRadius=0.55mm|HoleSize=0mm|Usage=FLASHONLY|Rotation=180.000|XOffset=0mm|YOffset=0mm|HoleType=Round|Shape=RoundedRectangle|*
%AMROUNDEDRECTD31*
21,1,2.2000,2.4000,0,0,180.0*
21,1,1.1000,3.5000,0,0,180.0*
1,1,1.1000,-0.5500,1.2000*
1,1,1.1000,0.5500,1.2000*
1,1,1.1000,0.5500,-1.2000*
1,1,1.1000,-0.5500,-1.2000*
%
%ADD31ROUNDEDRECTD31*%
G04:AMPARAMS|DCode=32|XSize=2.3mm|YSize=5.6mm|CornerRadius=0.575mm|HoleSize=0mm|Usage=FLASHONLY|Rotation=90.000|XOffset=0mm|YOffset=0mm|HoleType=Round|Shape=RoundedRectangle|*
%AMROUNDEDRECTD32*
21,1,2.3000,4.4500,0,0,90.0*
21,1,1.1500,5.6000,0,0,90.0*
1,1,1.1500,2.2250,0.5750*
1,1,1.1500,2.2250,-0.5750*
1,1,1.1500,-2.2250,-0.5750*
1,1,1.1500,-2.2250,0.5750*
%
%ADD32ROUNDEDRECTD32*%
G04:AMPARAMS|DCode=33|XSize=2.5mm|YSize=2.5mm|CornerRadius=0.625mm|HoleSize=0mm|Usage=FLASHONLY|Rotation=90.000|XOffset=0mm|YOffset=0mm|HoleType=Round|Shape=RoundedRectangle|*
%AMROUNDEDRECTD33*
21,1,2.5000,1.2500,0,0,90.0*
21,1,1.2500,2.5000,0,0,90.0*
1,1,1.2500,0.6250,0.6250*
1,1,1.2500,0.6250,-0.6250*
1,1,1.2500,-0.6250,-0.6250*
1,1,1.2500,-0.6250,0.6250*
%
%ADD33ROUNDEDRECTD33*%
%ADD34R,1.3000X1.1000*%
G04:AMPARAMS|DCode=35|XSize=1.8mm|YSize=1.8mm|CornerRadius=0.45mm|HoleSize=0mm|Usage=FLASHONLY|Rotation=90.000|XOffset=0mm|YOffset=0mm|HoleType=Round|Shape=RoundedRectangle|*
%AMROUNDEDRECTD35*
21,1,1.8000,0.9000,0,0,90.0*
21,1,0.9000,1.8000,0,0,90.0*
1,1,0.9000,0.4500,0.4500*
1,1,0.9000,0.4500,-0.4500*
1,1,0.9000,-0.4500,-0.4500*
1,1,0.9000,-0.4500,0.4500*
%
%ADD35ROUNDEDRECTD35*%
G04:AMPARAMS|DCode=36|XSize=1.8mm|YSize=1.8mm|CornerRadius=0.45mm|HoleSize=0mm|Usage=FLASHONLY|Rotation=0.000|XOffset=0mm|YOffset=0mm|HoleType=Round|Shape=RoundedRectangle|*
%AMROUNDEDRECTD36*
21,1,1.8000,0.9000,0,0,0.0*
21,1,0.9000,1.8000,0,0,0.0*
1,1,0.9000,0.4500,-0.4500*
1,1,0.9000,-0.4500,-0.4500*
1,1,0.9000,-0.4500,0.4500*
1,1,0.9000,0.4500,0.4500*
%
%ADD36ROUNDEDRECTD36*%
G04:AMPARAMS|DCode=37|XSize=1.8mm|YSize=2.6mm|CornerRadius=0.45mm|HoleSize=0mm|Usage=FLASHONLY|Rotation=90.000|XOffset=0mm|YOffset=0mm|HoleType=Round|Shape=RoundedRectangle|*
%AMROUNDEDRECTD37*
21,1,1.8000,1.7000,0,0,90.0*
21,1,0.9000,2.6000,0,0,90.0*
1,1,0.9000,0.8500,0.4500*
1,1,0.9000,0.8500,-0.4500*
1,1,0.9000,-0.8500,-0.4500*
1,1,0.9000,-0.8500,0.4500*
%
%ADD37ROUNDEDRECTD37*%
G04:AMPARAMS|DCode=38|XSize=1.8mm|YSize=2.6mm|CornerRadius=0.45mm|HoleSize=0mm|Usage=FLASHONLY|Rotation=0.000|XOffset=0mm|YOffset=0mm|HoleType=Round|Shape=RoundedRectangle|*
%AMROUNDEDRECTD38*
21,1,1.8000,1.7000,0,0,0.0*
21,1,0.9000,2.6000,0,0,0.0*
1,1,0.9000,0.4500,-0.8500*
1,1,0.9000,-0.4500,-0.8500*
1,1,0.9000,-0.4500,0.8500*
1,1,0.9000,0.4500,0.8500*
%
%ADD38ROUNDEDRECTD38*%
G04:AMPARAMS|DCode=41|XSize=0.254mm|YSize=0.6096mm|CornerRadius=0.0318mm|HoleSize=0mm|Usage=FLASHONLY|Rotation=270.000|XOffset=0mm|YOffset=0mm|HoleType=Round|Shape=RoundedRectangle|*
%AMROUNDEDRECTD41*
21,1,0.2540,0.5461,0,0,270.0*
21,1,0.1905,0.6096,0,0,270.0*
1,1,0.0635,-0.2731,-0.0953*
1,1,0.0635,-0.2731,0.0953*
1,1,0.0635,0.2731,0.0953*
1,1,0.0635,0.2731,-0.0953*
%
%ADD41ROUNDEDRECTD41*%
%ADD68C,0.6350*%
%ADD69C,0.5000*%
%ADD70C,0.5080*%
%ADD71C,0.3810*%
%ADD72C,1.5240*%
%ADD73C,3.0000*%
%ADD74C,2.0000*%
G04:AMPARAMS|DCode=75|XSize=2mm|YSize=2mm|CornerRadius=0.5mm|HoleSize=0mm|Usage=FLASHONLY|Rotation=180.000|XOffset=0mm|YOffset=0mm|HoleType=Round|Shape=RoundedRectangle|*
%AMROUNDEDRECTD75*
21,1,2.0000,1.0000,0,0,180.0*
21,1,1.0000,2.0000,0,0,180.0*
1,1,1.0000,-0.5000,0.5000*
1,1,1.0000,0.5000,0.5000*
1,1,1.0000,0.5000,-0.5000*
1,1,1.0000,-0.5000,-0.5000*
%
%ADD75ROUNDEDRECTD75*%
%ADD76C,1.7000*%
%ADD77R,1.7000X1.7000*%
%ADD78C,6.6000*%
%ADD79C,2.2400*%
G04:AMPARAMS|DCode=80|XSize=2.24mm|YSize=2.24mm|CornerRadius=0.56mm|HoleSize=0mm|Usage=FLASHONLY|Rotation=90.000|XOffset=0mm|YOffset=0mm|HoleType=Round|Shape=RoundedRectangle|*
%AMROUNDEDRECTD80*
21,1,2.2400,1.1200,0,0,90.0*
21,1,1.1200,2.2400,0,0,90.0*
1,1,1.1200,0.5600,0.5600*
1,1,1.1200,0.5600,-0.5600*
1,1,1.1200,-0.5600,-0.5600*
1,1,1.1200,-0.5600,0.5600*
%
%ADD80ROUNDEDRECTD80*%
%ADD81C,0.6350*%
%ADD82C,0.5500*%
%ADD83C,1.2700*%
%ADD84C,0.2540*%
G36*
X1256950Y601270D02*
X1259412D01*
X1264242Y600309D01*
X1268792Y598425D01*
X1272887Y595689D01*
X1276369Y592207D01*
X1279105Y588112D01*
X1280989Y583562D01*
X1281950Y578732D01*
Y576270D01*
Y26270D01*
Y23808D01*
X1280989Y18978D01*
X1279105Y14428D01*
X1276369Y10333D01*
X1272887Y6851D01*
X1268792Y4115D01*
X1264242Y2231D01*
X1259412Y1270D01*
X907624D01*
Y91550D01*
X907522Y93641D01*
X906706Y97744D01*
X905105Y101608D01*
X902781Y105085D01*
X899824Y108043D01*
X896346Y110367D01*
X892482Y111967D01*
X888380Y112783D01*
X886288Y112886D01*
X702892D01*
X701398Y113505D01*
X700255Y114648D01*
X699636Y116142D01*
Y116950D01*
Y478800D01*
Y479608D01*
X700255Y481102D01*
X701398Y482245D01*
X702892Y482864D01*
X982909D01*
X985000Y482967D01*
X989102Y483783D01*
X992966Y485383D01*
X996444Y487707D01*
X999402Y490665D01*
X1001725Y494142D01*
X1003326Y498007D01*
X1004142Y502109D01*
X1004245Y504200D01*
Y601270D01*
X1256950Y601270D01*
D02*
G37*
G36*
X986973Y504200D02*
Y503392D01*
X986354Y501898D01*
X985211Y500755D01*
X983717Y500136D01*
X703700D01*
X701609Y500033D01*
X697506Y499217D01*
X693642Y497617D01*
X690165Y495293D01*
X687207Y492335D01*
X684883Y488858D01*
X683283Y484994D01*
X682467Y480891D01*
X682364Y478800D01*
Y116950D01*
X682467Y114859D01*
X683283Y110757D01*
X684883Y106892D01*
X687207Y103415D01*
X690165Y100457D01*
X693642Y98133D01*
X697506Y96533D01*
X701609Y95717D01*
X703700Y95614D01*
X887097D01*
X888590Y94995D01*
X889734Y93852D01*
X890352Y92358D01*
Y91550D01*
Y1270D01*
X36950D01*
X34488Y1270D01*
X29658Y2231D01*
X25108Y4115D01*
X21013Y6851D01*
X17531Y10333D01*
X14795Y14428D01*
X12911Y18978D01*
X11950Y23808D01*
Y26270D01*
Y576270D01*
X11950Y578732D01*
X12911Y583562D01*
X14795Y588112D01*
X17531Y592207D01*
X21013Y595689D01*
X25108Y598425D01*
X29658Y600309D01*
X34488Y601270D01*
X36950D01*
X986973Y601270D01*
Y504200D01*
D02*
G37*
%LPC*%
G36*
X1244765Y597270D02*
X1239098D01*
X1233501Y596384D01*
X1228112Y594632D01*
X1223063Y592060D01*
X1218479Y588729D01*
X1214472Y584722D01*
X1211142Y580138D01*
X1208569Y575089D01*
X1206818Y569700D01*
X1205931Y564103D01*
Y558437D01*
X1206818Y552840D01*
X1208569Y547451D01*
X1211142Y542402D01*
X1214472Y537817D01*
X1218479Y533811D01*
X1223063Y530480D01*
X1228112Y527907D01*
X1233501Y526156D01*
X1239098Y525270D01*
X1244765D01*
X1250361Y526156D01*
X1255751Y527907D01*
X1260799Y530480D01*
X1265384Y533811D01*
X1269391Y537817D01*
X1272721Y542402D01*
X1275294Y547451D01*
X1277045Y552840D01*
X1277931Y558437D01*
Y564103D01*
X1277045Y569700D01*
X1275294Y575089D01*
X1272721Y580138D01*
X1269391Y584722D01*
X1265384Y588729D01*
X1260799Y592060D01*
X1255751Y594632D01*
X1250361Y596384D01*
X1244765Y597270D01*
D02*
G37*
G36*
X1082743Y561154D02*
X1074241D01*
X1071803Y560669D01*
X1069735Y559288D01*
X1068354Y557220D01*
X1067869Y554782D01*
Y548282D01*
X1068354Y545843D01*
X1069735Y543776D01*
X1070095Y543536D01*
Y540529D01*
X1069735Y540289D01*
X1068354Y538221D01*
X1067869Y535783D01*
Y529283D01*
X1068354Y526844D01*
X1069735Y524777D01*
X1071803Y523395D01*
X1072196Y523317D01*
Y510994D01*
X1072675Y508585D01*
X1074040Y506542D01*
X1088802Y491780D01*
Y484268D01*
X1088640Y484247D01*
X1086816Y483491D01*
X1085249Y482289D01*
X1084047Y480722D01*
X1083291Y478898D01*
X1083033Y476940D01*
Y473253D01*
X1081896Y473027D01*
X1080189Y471885D01*
X1079086Y472114D01*
X1077689Y472693D01*
Y476940D01*
X1077328Y479681D01*
X1076270Y482235D01*
X1074587Y484429D01*
X1072393Y486112D01*
X1069839Y487170D01*
X1067098Y487531D01*
X1065598D01*
Y472440D01*
Y463747D01*
X1068908Y463885D01*
X1068428Y463811D01*
X1067998Y463630D01*
X1067619Y463343D01*
X1067290Y462949D01*
X1067012Y462449D01*
X1066785Y461843D01*
X1066608Y461130D01*
X1066481Y460310D01*
X1066405Y459384D01*
X1066380Y458352D01*
X1065598D01*
Y457349D01*
X1067098D01*
X1067312Y457378D01*
X1069192Y455729D01*
Y451650D01*
X1069229Y451462D01*
Y449237D01*
X1069511Y447819D01*
X1070314Y446616D01*
X1071517Y445813D01*
X1072935Y445531D01*
X1076727D01*
Y444697D01*
X1076984Y443403D01*
X1077154Y443150D01*
X1076984Y442897D01*
X1076727Y441603D01*
Y439697D01*
X1076984Y438403D01*
X1077154Y438150D01*
X1076984Y437897D01*
X1076727Y436603D01*
Y434697D01*
X1076984Y433403D01*
X1077154Y433150D01*
X1076984Y432897D01*
X1076727Y431603D01*
Y430289D01*
X1061953D01*
Y431603D01*
X1061695Y432897D01*
X1061526Y433150D01*
X1061695Y433403D01*
X1061953Y434697D01*
Y436603D01*
X1061695Y437897D01*
X1061186Y438660D01*
X1061392Y439697D01*
Y441603D01*
X1061186Y442640D01*
X1061695Y443403D01*
X1061953Y444697D01*
Y446118D01*
X1061369Y446120D01*
X1061356Y446171D01*
X1061345Y446324D01*
X1061311Y447949D01*
X1061300Y451200D01*
X1061953D01*
Y451603D01*
X1061695Y452897D01*
X1060962Y453994D01*
X1059865Y454728D01*
X1059252Y454849D01*
X1059498Y457349D01*
X1059598D01*
Y463316D01*
X1059243Y463430D01*
X1058760Y463462D01*
X1059598Y463497D01*
Y472440D01*
Y487531D01*
X1058098D01*
X1055357Y487170D01*
X1052803Y486112D01*
X1050609Y484429D01*
X1048926Y482235D01*
X1047868Y479681D01*
X1047507Y476940D01*
Y475916D01*
X1045198Y474959D01*
X1042639Y477518D01*
X1041227Y478462D01*
X1040134Y478679D01*
X1039846Y480128D01*
X1038465Y482196D01*
X1036397Y483577D01*
X1033959Y484062D01*
X1025457D01*
X1023019Y483577D01*
X1021358Y482467D01*
X1019832Y482926D01*
X1018858Y483562D01*
Y487687D01*
X1033935Y502765D01*
X1035151Y504584D01*
X1035578Y506730D01*
Y523007D01*
X1037529Y523395D01*
X1039597Y524777D01*
X1042220Y524203D01*
X1042586Y523922D01*
X1044532Y523116D01*
X1045445Y522996D01*
X1045438Y524155D01*
X1045112Y529069D01*
X1045010Y529529D01*
X1044894Y529887D01*
X1044765Y530141D01*
X1045620D01*
Y533410D01*
X1048620D01*
Y536410D01*
X1058623D01*
X1058414Y537998D01*
X1057608Y539944D01*
X1056326Y541616D01*
X1055569Y542197D01*
X1054736Y543504D01*
X1054998Y545462D01*
X1055330Y545959D01*
X1055718Y547910D01*
Y552910D01*
X1055330Y554861D01*
X1054225Y556515D01*
X1052571Y557620D01*
X1050620Y558008D01*
X1046620D01*
X1045714Y557828D01*
X1040572D01*
X1039597Y559288D01*
X1037529Y560669D01*
X1035091Y561154D01*
X1026589D01*
X1024151Y560669D01*
X1022083Y559288D01*
X1020702Y557220D01*
X1020217Y554782D01*
Y548282D01*
X1020702Y545843D01*
X1022083Y543776D01*
X1022443Y543536D01*
Y540529D01*
X1022083Y540289D01*
X1020702Y538221D01*
X1020217Y535783D01*
Y529283D01*
X1020702Y526844D01*
X1022083Y524777D01*
X1024151Y523395D01*
X1024362Y523353D01*
Y509053D01*
X1009285Y493975D01*
X1008069Y492156D01*
X1007642Y490010D01*
Y441834D01*
X1006718Y441451D01*
X1005151Y440249D01*
X1003949Y438682D01*
X1003193Y436858D01*
X1003107Y436208D01*
X748100D01*
X745954Y435781D01*
X744135Y434565D01*
X736263Y426694D01*
X736174Y426664D01*
X735218Y426428D01*
X734521Y426306D01*
X732120Y426950D01*
X728381D01*
X724769Y425982D01*
X721531Y424113D01*
X718887Y421469D01*
X717018Y418231D01*
X716050Y414619D01*
Y410881D01*
X717018Y407269D01*
X718887Y404031D01*
X721531Y401387D01*
X724769Y399518D01*
X728381Y398550D01*
X732120D01*
X735731Y399518D01*
X738969Y401387D01*
X741613Y404031D01*
X743482Y407269D01*
X744450Y410881D01*
Y414619D01*
X743806Y417021D01*
X743928Y417718D01*
X744164Y418674D01*
X744194Y418763D01*
X750423Y424992D01*
X1003055D01*
X1003193Y423942D01*
X1003949Y422118D01*
X1005151Y420551D01*
X1006718Y419349D01*
X1008542Y418593D01*
X1010500Y418335D01*
X1027500D01*
X1029458Y418593D01*
X1031282Y419349D01*
X1032849Y420551D01*
X1032957Y420691D01*
X1058072D01*
X1058072Y420691D01*
X1058710Y420167D01*
Y381476D01*
X1058613Y381221D01*
X1057430Y379960D01*
X1056440Y379349D01*
X1055610Y379458D01*
X1044610D01*
X1042391Y379166D01*
X1040323Y378310D01*
X1038548Y376947D01*
X1037185Y375172D01*
X1036329Y373104D01*
X1036037Y370885D01*
Y356326D01*
X1029615D01*
X1028767Y358826D01*
X1029231Y359183D01*
X1030714Y361115D01*
X1031646Y363365D01*
X1031964Y365780D01*
Y366030D01*
X1018383D01*
X1011984D01*
X1011836Y363484D01*
X1011398Y363985D01*
X1010896Y364434D01*
X1010328Y364831D01*
X1009695Y365174D01*
X1008998Y365465D01*
X1008235Y365702D01*
X1007408Y365887D01*
X1006515Y366019D01*
X1006389Y366030D01*
X1004803D01*
Y365780D01*
X1005121Y363365D01*
X1006053Y361115D01*
X1007535Y359183D01*
X1009468Y357700D01*
X1009499Y357596D01*
X1008245Y355719D01*
X1007760Y353280D01*
Y346781D01*
X1008245Y344342D01*
X1009626Y342275D01*
X1011694Y340893D01*
X1012166Y340799D01*
Y329004D01*
X1011790D01*
X1009245Y328669D01*
X1006873Y327687D01*
X1004836Y326124D01*
X1003273Y324087D01*
X1002291Y321715D01*
X1001956Y319170D01*
Y305670D01*
X1002291Y303125D01*
X1003273Y300753D01*
X1004836Y298716D01*
X1006873Y297153D01*
X1009245Y296171D01*
X1011790Y295836D01*
X1025290D01*
X1027835Y296171D01*
X1030207Y297153D01*
X1032244Y298716D01*
X1033807Y300753D01*
X1034789Y303125D01*
X1035124Y305670D01*
Y319170D01*
X1034789Y321715D01*
X1033807Y324087D01*
X1032244Y326124D01*
X1030207Y327687D01*
X1027835Y328669D01*
X1025290Y329004D01*
X1024758D01*
Y340830D01*
X1025072Y340893D01*
X1027140Y342275D01*
X1028115Y343734D01*
X1036715D01*
X1037185Y342598D01*
X1038548Y340823D01*
X1040323Y339460D01*
X1042391Y338604D01*
X1044610Y338312D01*
X1055610D01*
X1057829Y338604D01*
X1059897Y339460D01*
X1061672Y340823D01*
X1063035Y342598D01*
X1063891Y344666D01*
X1064183Y346885D01*
Y370885D01*
X1063891Y373104D01*
X1063035Y375172D01*
X1062660Y375660D01*
X1063893Y378160D01*
X1072327D01*
X1073560Y375660D01*
X1073185Y375172D01*
X1072329Y373104D01*
X1072037Y370885D01*
Y346885D01*
X1072329Y344666D01*
X1073185Y342598D01*
X1074548Y340823D01*
X1076323Y339460D01*
X1078391Y338604D01*
X1080610Y338312D01*
X1091610D01*
X1093829Y338604D01*
X1095897Y339460D01*
X1097672Y340823D01*
X1098473Y341867D01*
X1099338Y341969D01*
X1100855Y341700D01*
X1101222Y341519D01*
X1101762Y340215D01*
X1103044Y338544D01*
X1104715Y337262D01*
X1106662Y336456D01*
X1107750Y336313D01*
Y346750D01*
X1113750D01*
Y336313D01*
X1114838Y336456D01*
X1116785Y337262D01*
X1118456Y338544D01*
X1119716Y340187D01*
X1121346Y338936D01*
X1123597Y338004D01*
X1126011Y337686D01*
X1127262D01*
Y350265D01*
X1130262D01*
Y353265D01*
X1136136D01*
Y356328D01*
X1136893Y355779D01*
X1137659Y355288D01*
X1138434Y354855D01*
X1139218Y354480D01*
X1140011Y354162D01*
X1140813Y353902D01*
X1141624Y353700D01*
X1142443Y353556D01*
X1143272Y353469D01*
X1143842Y353450D01*
Y353515D01*
X1143524Y355930D01*
X1142592Y358180D01*
X1141110Y360112D01*
X1140408Y360651D01*
X1141257Y363151D01*
X1142947D01*
X1145356Y363630D01*
X1147399Y364995D01*
X1197452Y415048D01*
X1198817Y417091D01*
X1199296Y419500D01*
Y449750D01*
X1198817Y452159D01*
X1197452Y454202D01*
X1197452Y454202D01*
X1174762Y476892D01*
X1172719Y478257D01*
X1170310Y478736D01*
X1106926D01*
X1106905Y478898D01*
X1106149Y480722D01*
X1104947Y482289D01*
X1103380Y483491D01*
X1101556Y484247D01*
X1101394Y484268D01*
Y494388D01*
X1100915Y496797D01*
X1099550Y498840D01*
X1084788Y513602D01*
Y523317D01*
X1085181Y523395D01*
X1087249Y524777D01*
X1089562Y523739D01*
X1089976Y523422D01*
X1091922Y522616D01*
X1092835Y522496D01*
X1092828Y523655D01*
X1092502Y528569D01*
X1092400Y529029D01*
X1092284Y529387D01*
X1092155Y529641D01*
X1093010D01*
Y532910D01*
X1096010D01*
Y535910D01*
X1106013D01*
X1105804Y537498D01*
X1104998Y539445D01*
X1103716Y541116D01*
X1102959Y541697D01*
X1102126Y543004D01*
X1102388Y544962D01*
X1102720Y545459D01*
X1103108Y547410D01*
Y552410D01*
X1102720Y554361D01*
X1101615Y556015D01*
X1099961Y557120D01*
X1098010Y557508D01*
X1094010D01*
X1092059Y557120D01*
X1091263Y556588D01*
X1088720Y557199D01*
X1088611Y557249D01*
X1087249Y559288D01*
X1085181Y560669D01*
X1082743Y561154D01*
D02*
G37*
G36*
X1058623Y530410D02*
X1051620D01*
Y530141D01*
X1052475D01*
X1052346Y529887D01*
X1052230Y529529D01*
X1052128Y529069D01*
X1052040Y528507D01*
X1051904Y527073D01*
X1051802Y524155D01*
X1051795Y522996D01*
X1052708Y523116D01*
X1054654Y523922D01*
X1056326Y525204D01*
X1057608Y526875D01*
X1058414Y528822D01*
X1058623Y530410D01*
D02*
G37*
G36*
X1051649Y522976D02*
X1051620D01*
Y522973D01*
X1051649Y522976D01*
D02*
G37*
G36*
X1045620D02*
X1045591D01*
X1045620Y522973D01*
Y522976D01*
D02*
G37*
G36*
X1106013Y529910D02*
X1099010D01*
Y529641D01*
X1099865D01*
X1099736Y529387D01*
X1099620Y529029D01*
X1099518Y528569D01*
X1099430Y528007D01*
X1099294Y526573D01*
X1099192Y523655D01*
X1099185Y522496D01*
X1100098Y522616D01*
X1102045Y523422D01*
X1103716Y524704D01*
X1104998Y526376D01*
X1105804Y528322D01*
X1106013Y529910D01*
D02*
G37*
G36*
X1093010Y522476D02*
X1092981D01*
X1093010Y522473D01*
Y522476D01*
D02*
G37*
G36*
X1099039D02*
X1099010D01*
Y522473D01*
X1099039Y522476D01*
D02*
G37*
G36*
X1027500Y412991D02*
X1022000D01*
Y400900D01*
X1038091D01*
Y402400D01*
X1037730Y405141D01*
X1036672Y407695D01*
X1034989Y409889D01*
X1032795Y411572D01*
X1030241Y412630D01*
X1027500Y412991D01*
D02*
G37*
G36*
X1016000D02*
X1010500D01*
X1007759Y412630D01*
X1005205Y411572D01*
X1003011Y409889D01*
X1001328Y407695D01*
X1000270Y405141D01*
X999909Y402400D01*
Y401822D01*
X1000147Y401697D01*
X1000556Y401532D01*
X1001011Y401393D01*
X1001511Y401278D01*
X1002020Y401195D01*
X1002095Y401202D01*
X1003118Y401360D01*
X1004003Y401581D01*
X1004753Y401866D01*
X1005366Y402214D01*
X1005843Y402625D01*
X1006184Y403100D01*
X1006388Y403637D01*
X1006457Y404238D01*
Y400900D01*
X1016000D01*
Y412991D01*
D02*
G37*
G36*
X1038091Y394900D02*
X1019000D01*
X1006457D01*
Y391562D01*
X1006388Y392163D01*
X1006184Y392701D01*
X1005843Y393175D01*
X1005366Y393586D01*
X1004753Y393934D01*
X1004003Y394219D01*
X1003118Y394440D01*
X1002095Y394599D01*
X1002020Y394605D01*
X1001511Y394522D01*
X1001011Y394408D01*
X1000556Y394268D01*
X1000147Y394103D01*
X999909Y393978D01*
Y393400D01*
X1000270Y390659D01*
X1001328Y388105D01*
X1003011Y385911D01*
X1005205Y384228D01*
X1007759Y383170D01*
X1009248Y382974D01*
X1009586Y380408D01*
X1009468Y380359D01*
X1007535Y378877D01*
X1006053Y376944D01*
X1005121Y374694D01*
X1004829Y372483D01*
X1005457Y372501D01*
X1006331Y372579D01*
X1007182Y372710D01*
X1008011Y372893D01*
X1008817Y373129D01*
X1009600Y373417D01*
X1010361Y373757D01*
X1011100Y374150D01*
X1011815Y374594D01*
X1012509Y375092D01*
X1012331Y372030D01*
X1018383D01*
X1031964D01*
Y372280D01*
X1031646Y374694D01*
X1030714Y376944D01*
X1029231Y378877D01*
X1027364Y380309D01*
X1027324Y380662D01*
X1027453Y382240D01*
X1027816Y382851D01*
X1030241Y383170D01*
X1032795Y384228D01*
X1034989Y385911D01*
X1036672Y388105D01*
X1037730Y390659D01*
X1038091Y393400D01*
Y394900D01*
D02*
G37*
G36*
X735850Y353850D02*
X733250D01*
Y339550D01*
X747550D01*
Y342150D01*
X747151Y345178D01*
X745983Y348000D01*
X744123Y350423D01*
X741700Y352283D01*
X738878Y353451D01*
X735850Y353850D01*
D02*
G37*
G36*
X727250D02*
X724650D01*
X721622Y353451D01*
X718800Y352283D01*
X716377Y350423D01*
X714517Y348000D01*
X713349Y345178D01*
X712950Y342150D01*
Y339550D01*
X727250D01*
Y353850D01*
D02*
G37*
G36*
X1136136Y347265D02*
X1133262D01*
Y337686D01*
X1134513D01*
X1136927Y338004D01*
X1139178Y338936D01*
X1141110Y340418D01*
X1142592Y342351D01*
X1143524Y344601D01*
X1143842Y347015D01*
Y347081D01*
X1143272Y347062D01*
X1142443Y346975D01*
X1141624Y346831D01*
X1140813Y346628D01*
X1140011Y346369D01*
X1139218Y346051D01*
X1138434Y345676D01*
X1137659Y345243D01*
X1136893Y344752D01*
X1136136Y344203D01*
Y347265D01*
D02*
G37*
G36*
X747550Y333550D02*
X733250D01*
Y319250D01*
X735850D01*
X738878Y319649D01*
X741700Y320817D01*
X744123Y322677D01*
X745983Y325100D01*
X747151Y327922D01*
X747550Y330950D01*
Y333550D01*
D02*
G37*
G36*
X727250D02*
X712950D01*
Y330950D01*
X713349Y327922D01*
X714517Y325100D01*
X716377Y322677D01*
X718800Y320817D01*
X721622Y319649D01*
X724650Y319250D01*
X727250D01*
Y333550D01*
D02*
G37*
G36*
X910609Y308802D02*
X902107D01*
X899669Y308317D01*
X897601Y306936D01*
X896220Y304868D01*
X896204Y304787D01*
X886747D01*
X886730Y304868D01*
X885349Y306936D01*
X883282Y308317D01*
X880843Y308802D01*
X872342D01*
X869903Y308317D01*
X867836Y306936D01*
X866454Y304868D01*
X866438Y304787D01*
X856981D01*
X856965Y304868D01*
X855583Y306936D01*
X853516Y308317D01*
X851077Y308802D01*
X842576D01*
X840137Y308317D01*
X838070Y306936D01*
X836689Y304868D01*
X836673Y304787D01*
X817215D01*
X817199Y304868D01*
X815818Y306936D01*
X813750Y308317D01*
X811312Y308802D01*
X802810D01*
X800372Y308317D01*
X798305Y306936D01*
X796923Y304868D01*
X796907Y304787D01*
X787450D01*
X787433Y304868D01*
X786052Y306936D01*
X783985Y308317D01*
X781546Y308802D01*
X773045D01*
X770606Y308317D01*
X768539Y306936D01*
X767158Y304868D01*
X767132Y304742D01*
X765224D01*
X763078Y304315D01*
X761259Y303099D01*
X753327Y295168D01*
X751613D01*
X751458Y295287D01*
X749863Y295947D01*
X748152Y296173D01*
X733674D01*
X731963Y295947D01*
X730368Y295287D01*
X728998Y294236D01*
X727947Y292866D01*
X727287Y291271D01*
X727061Y289560D01*
X727287Y287848D01*
X727947Y286254D01*
X728998Y284884D01*
X729225Y284710D01*
X729262Y284641D01*
Y281779D01*
X729225Y281710D01*
X728998Y281536D01*
X727947Y280166D01*
X727287Y278571D01*
X727061Y276860D01*
X727287Y275149D01*
X727947Y273554D01*
X728998Y272184D01*
X729225Y272010D01*
X729262Y271941D01*
Y269079D01*
X729225Y269010D01*
X728998Y268836D01*
X727947Y267466D01*
X727287Y265872D01*
X727061Y264160D01*
X727287Y262449D01*
X727947Y260854D01*
X728998Y259484D01*
X729225Y259310D01*
X729262Y259241D01*
Y256379D01*
X729225Y256310D01*
X728998Y256136D01*
X727947Y254766D01*
X727287Y253172D01*
X727061Y251460D01*
X727287Y249748D01*
X727947Y248154D01*
X728998Y246784D01*
X729225Y246610D01*
X729262Y246541D01*
Y243679D01*
X729225Y243610D01*
X728998Y243436D01*
X727947Y242066D01*
X727287Y240471D01*
X727061Y238760D01*
X727287Y237048D01*
X727947Y235454D01*
X728998Y234084D01*
X729225Y233910D01*
X729262Y233841D01*
Y230979D01*
X729225Y230910D01*
X728998Y230736D01*
X727947Y229366D01*
X727287Y227771D01*
X727061Y226060D01*
X727287Y224349D01*
X727947Y222754D01*
X728998Y221384D01*
X729225Y221210D01*
X729262Y221141D01*
Y218279D01*
X729225Y218210D01*
X728998Y218036D01*
X727947Y216666D01*
X727287Y215072D01*
X727061Y213360D01*
X727287Y211649D01*
X727947Y210054D01*
X728998Y208684D01*
X729225Y208510D01*
X729262Y208441D01*
Y205579D01*
X729225Y205510D01*
X728998Y205336D01*
X727947Y203966D01*
X727287Y202372D01*
X727061Y200660D01*
X727287Y198948D01*
X727947Y197354D01*
X728998Y195984D01*
X729225Y195810D01*
X729262Y195741D01*
Y192879D01*
X729225Y192810D01*
X728998Y192636D01*
X727947Y191266D01*
X727287Y189671D01*
X727061Y187960D01*
X727287Y186248D01*
X727947Y184654D01*
X728998Y183284D01*
X729231Y183106D01*
X729265Y183043D01*
X729270Y180181D01*
X729229Y180105D01*
X729008Y179936D01*
X727957Y178566D01*
X727297Y176971D01*
X727071Y175260D01*
X727297Y173549D01*
X727957Y171954D01*
X729008Y170584D01*
X730378Y169533D01*
X731973Y168873D01*
X733684Y168647D01*
X748162D01*
X749874Y168873D01*
X751468Y169533D01*
X751623Y169652D01*
X754667D01*
X766035Y158285D01*
X767854Y157069D01*
X770000Y156642D01*
X862750D01*
X864896Y157069D01*
X866715Y158285D01*
X870715Y162285D01*
X871931Y164104D01*
X872358Y166250D01*
Y173217D01*
X876518D01*
X876534Y173136D01*
X877915Y171069D01*
X879983Y169688D01*
X882421Y169202D01*
X890922D01*
X893361Y169688D01*
X895428Y171069D01*
X896810Y173136D01*
X896826Y173217D01*
X900853D01*
X918892Y155177D01*
Y96580D01*
X919319Y94434D01*
X920535Y92615D01*
X925675Y87475D01*
X925675Y87475D01*
X942185Y70965D01*
X944004Y69749D01*
X946150Y69322D01*
X973196D01*
X973954Y66822D01*
X972397Y65781D01*
X969890Y63274D01*
X967920Y60326D01*
X966563Y57050D01*
X965871Y53573D01*
Y50027D01*
X966563Y46550D01*
X967920Y43274D01*
X969890Y40326D01*
X972397Y37819D01*
X975345Y35849D01*
X978621Y34492D01*
X982098Y33800D01*
X985644D01*
X989121Y34492D01*
X992397Y35849D01*
X995345Y37819D01*
X997852Y40326D01*
X999822Y43274D01*
X1001179Y46550D01*
X1001871Y50027D01*
Y53573D01*
X1001179Y57050D01*
X999822Y60326D01*
X997852Y63274D01*
X995345Y65781D01*
X993788Y66822D01*
X994546Y69322D01*
X1032301D01*
X1034447Y69749D01*
X1036266Y70965D01*
X1047715Y82414D01*
X1048235Y82553D01*
X1048445Y82593D01*
X1050659Y82000D01*
X1054082D01*
X1057389Y82886D01*
X1060353Y84597D01*
X1062774Y87018D01*
X1064485Y89982D01*
X1065371Y93288D01*
Y96712D01*
X1064485Y100018D01*
X1062774Y102982D01*
X1060353Y105403D01*
X1057389Y107114D01*
X1054082Y108000D01*
X1050659D01*
X1047353Y107114D01*
X1044389Y105403D01*
X1041968Y102982D01*
X1040257Y100018D01*
X1039371Y96712D01*
Y93288D01*
X1039964Y91074D01*
X1039924Y90864D01*
X1039785Y90344D01*
X1030929Y81489D01*
X1029365Y81670D01*
X1029149Y82762D01*
X1029688Y84214D01*
X1030353Y84597D01*
X1032774Y87018D01*
X1034485Y89982D01*
X1035371Y93288D01*
Y96712D01*
X1034485Y100018D01*
X1032774Y102982D01*
X1030353Y105403D01*
X1027389Y107114D01*
X1024082Y108000D01*
X1020659D01*
X1017353Y107114D01*
X1014389Y105403D01*
X1011968Y102982D01*
X1010257Y100018D01*
X1009371Y96712D01*
Y93288D01*
X1010257Y89982D01*
X1011968Y87018D01*
X1014389Y84597D01*
X1015053Y84214D01*
X1015840Y80873D01*
X1015621Y80538D01*
X999121D01*
X998902Y80873D01*
X999688Y84214D01*
X1000353Y84597D01*
X1002774Y87018D01*
X1004485Y89982D01*
X1005371Y93288D01*
Y96712D01*
X1004485Y100018D01*
X1002774Y102982D01*
X1000353Y105403D01*
X997389Y107114D01*
X994082Y108000D01*
X990659D01*
X987353Y107114D01*
X984389Y105403D01*
X981968Y102982D01*
X980257Y100018D01*
X979371Y96712D01*
Y93288D01*
X980257Y89982D01*
X981968Y87018D01*
X984389Y84597D01*
X985053Y84214D01*
X985840Y80873D01*
X985621Y80538D01*
X971965D01*
X971424Y82929D01*
X971439Y83038D01*
X973077Y84294D01*
X974359Y85965D01*
X975165Y87912D01*
X975440Y90000D01*
Y100000D01*
X975165Y102088D01*
X974359Y104035D01*
X973083Y105698D01*
Y116687D01*
X973183Y117077D01*
X973751Y118492D01*
X974338Y119434D01*
X1005500D01*
X1007784Y119735D01*
X1009913Y120617D01*
X1011741Y122019D01*
X1013143Y123847D01*
X1014025Y125976D01*
X1014325Y128260D01*
Y139760D01*
X1014025Y142044D01*
X1013143Y144173D01*
X1011741Y146001D01*
X1009913Y147403D01*
X1007784Y148285D01*
X1005500Y148586D01*
X961000D01*
X958716Y148285D01*
X956587Y147403D01*
X954759Y146001D01*
X953357Y144173D01*
X952475Y142044D01*
X952175Y139760D01*
Y137145D01*
X952024Y136782D01*
X951659Y134010D01*
Y105698D01*
X950383Y104035D01*
X949577Y102088D01*
X949302Y100000D01*
Y90000D01*
X949577Y87912D01*
X950383Y85965D01*
X951665Y84294D01*
X953303Y83038D01*
X953318Y82929D01*
X952777Y80538D01*
X948473D01*
X933605Y95405D01*
X933605Y95405D01*
X930108Y98903D01*
Y157500D01*
Y246385D01*
X931732Y248009D01*
X932963Y250141D01*
X933600Y252519D01*
Y254981D01*
X932963Y257359D01*
X931732Y259491D01*
X930108Y261115D01*
Y295000D01*
X929681Y297146D01*
X928465Y298965D01*
X924286Y303145D01*
X922466Y304361D01*
X920320Y304787D01*
X916512D01*
X916496Y304868D01*
X915115Y306936D01*
X913047Y308317D01*
X910609Y308802D01*
D02*
G37*
G36*
X1025290Y269830D02*
X1021540D01*
Y253220D01*
X1038150D01*
Y256970D01*
X1037712Y260298D01*
X1036427Y263400D01*
X1034383Y266063D01*
X1031720Y268107D01*
X1028618Y269392D01*
X1025290Y269830D01*
D02*
G37*
G36*
X1015540D02*
X1011790D01*
X1008462Y269392D01*
X1005360Y268107D01*
X1002697Y266063D01*
X1000653Y263400D01*
X999368Y260298D01*
X998930Y256970D01*
Y253220D01*
X1015540D01*
Y269830D01*
D02*
G37*
G36*
X1038150Y247220D02*
X1021540D01*
Y230610D01*
X1025290D01*
X1028618Y231048D01*
X1031720Y232333D01*
X1034383Y234377D01*
X1036427Y237040D01*
X1037712Y240142D01*
X1038150Y243470D01*
Y247220D01*
D02*
G37*
G36*
X1015540D02*
X998930D01*
Y243470D01*
X999368Y240142D01*
X1000653Y237040D01*
X1002697Y234377D01*
X1005360Y232333D01*
X1008462Y231048D01*
X1011790Y230610D01*
X1015540D01*
Y247220D01*
D02*
G37*
G36*
X1101490Y329004D02*
X1087990D01*
X1085445Y328669D01*
X1083073Y327687D01*
X1081036Y326124D01*
X1079473Y324087D01*
X1078491Y321715D01*
X1078156Y319170D01*
Y305670D01*
X1078491Y303125D01*
X1079473Y300753D01*
X1081036Y298716D01*
X1083073Y297153D01*
X1085445Y296171D01*
X1087990Y295836D01*
X1101490D01*
X1104035Y296171D01*
X1106407Y297153D01*
X1108444Y298716D01*
X1110007Y300753D01*
X1110989Y303125D01*
X1111324Y305670D01*
Y306124D01*
X1120561D01*
X1121929Y305210D01*
X1122008Y305194D01*
Y302645D01*
X1121929Y302630D01*
X1120275Y301525D01*
X1119170Y299871D01*
X1118782Y297920D01*
Y292920D01*
X1119170Y290969D01*
X1120231Y289381D01*
Y280010D01*
X1120231Y280010D01*
X1120661Y277848D01*
X1121886Y276016D01*
X1127031Y270870D01*
Y266133D01*
X1126222Y266027D01*
X1124398Y265271D01*
X1122831Y264069D01*
X1121629Y262502D01*
X1120873Y260678D01*
X1120615Y258720D01*
Y255868D01*
X1111324D01*
Y256970D01*
X1110989Y259515D01*
X1110007Y261887D01*
X1108444Y263924D01*
X1106407Y265487D01*
X1104035Y266469D01*
X1101490Y266804D01*
X1087990D01*
X1085445Y266469D01*
X1083073Y265487D01*
X1081036Y263924D01*
X1079473Y261887D01*
X1078491Y259515D01*
X1078156Y256970D01*
Y243470D01*
X1078491Y240925D01*
X1079473Y238553D01*
X1081036Y236516D01*
X1083073Y234953D01*
X1085445Y233971D01*
X1087990Y233636D01*
X1101490D01*
X1104035Y233971D01*
X1106407Y234953D01*
X1108444Y236516D01*
X1110007Y238553D01*
X1110989Y240925D01*
X1111324Y243470D01*
Y244571D01*
X1120615D01*
Y241720D01*
X1120873Y239762D01*
X1121629Y237938D01*
X1122831Y236371D01*
X1124398Y235169D01*
X1126222Y234413D01*
X1127031Y234307D01*
Y227328D01*
X1126222Y227222D01*
X1124398Y226466D01*
X1122831Y225264D01*
X1121629Y223697D01*
X1120873Y221873D01*
X1120615Y219915D01*
Y202915D01*
X1120873Y200957D01*
X1121629Y199133D01*
X1122831Y197566D01*
X1124398Y196364D01*
X1126222Y195608D01*
X1127031Y195501D01*
Y188524D01*
X1126222Y188417D01*
X1124398Y187661D01*
X1122831Y186459D01*
X1121629Y184892D01*
X1120873Y183068D01*
X1120615Y181110D01*
Y164110D01*
X1120873Y162152D01*
X1121629Y160328D01*
X1122831Y158761D01*
X1124398Y157559D01*
X1126222Y156803D01*
X1127031Y156697D01*
Y149719D01*
X1126222Y149612D01*
X1124398Y148856D01*
X1122831Y147654D01*
X1121629Y146087D01*
X1120873Y144263D01*
X1120615Y142305D01*
Y125305D01*
X1120873Y123347D01*
X1121629Y121523D01*
X1122831Y119956D01*
X1124398Y118754D01*
X1126222Y117998D01*
X1127031Y117892D01*
Y110913D01*
X1126222Y110807D01*
X1124398Y110051D01*
X1122831Y108849D01*
X1121629Y107282D01*
X1120873Y105458D01*
X1120615Y103500D01*
Y100648D01*
X1094519D01*
X1094072Y100905D01*
X1093909Y101015D01*
X1092774Y102982D01*
X1090353Y105403D01*
X1088386Y106538D01*
X1088276Y106701D01*
X1088019Y107148D01*
Y131749D01*
X1088019Y131749D01*
X1087589Y133911D01*
X1086365Y135743D01*
X1086365Y135743D01*
X1083878Y138230D01*
Y175521D01*
X1084940Y177109D01*
X1085328Y179060D01*
Y184060D01*
X1084940Y186011D01*
X1083835Y187665D01*
X1082181Y188770D01*
X1082102Y188785D01*
Y191334D01*
X1082181Y191350D01*
X1083835Y192455D01*
X1084140Y192911D01*
X1091590D01*
Y190060D01*
X1110590D01*
Y207060D01*
X1091590D01*
Y204209D01*
X1084140D01*
X1083835Y204665D01*
X1082181Y205770D01*
X1080230Y206158D01*
X1076230D01*
X1074279Y205770D01*
X1072625Y204665D01*
X1072320Y204209D01*
X1059520D01*
Y204810D01*
X1059202Y207225D01*
X1058270Y209475D01*
X1056787Y211407D01*
X1054855Y212890D01*
X1052605Y213822D01*
X1050190Y214140D01*
X1037690D01*
X1035275Y213822D01*
X1033025Y212890D01*
X1031641Y211828D01*
X1029824Y212264D01*
X1025076Y212637D01*
X1024969Y212659D01*
X1014325D01*
Y212760D01*
X1014025Y215044D01*
X1013143Y217173D01*
X1011741Y219001D01*
X1009913Y220403D01*
X1007784Y221285D01*
X1005500Y221586D01*
X961000D01*
X958716Y221285D01*
X956587Y220403D01*
X954759Y219001D01*
X953357Y217173D01*
X952475Y215044D01*
X952175Y212760D01*
Y201260D01*
X952475Y198976D01*
X953357Y196847D01*
X954759Y195019D01*
X956587Y193617D01*
X958716Y192735D01*
X961000Y192435D01*
X1005500D01*
X1007784Y192735D01*
X1009913Y193617D01*
X1011741Y195019D01*
X1013143Y196847D01*
X1014025Y198976D01*
X1014325Y201260D01*
Y201362D01*
X1024969D01*
X1025228Y201413D01*
X1028360Y201105D01*
Y192310D01*
X1028678Y189895D01*
X1029610Y187645D01*
X1031093Y185713D01*
X1033025Y184230D01*
X1035275Y183298D01*
X1037690Y182980D01*
X1050190D01*
X1052605Y183298D01*
X1054855Y184230D01*
X1056787Y185713D01*
X1058270Y187645D01*
X1059202Y189895D01*
X1059520Y192310D01*
Y192911D01*
X1072320D01*
X1072625Y192455D01*
X1074279Y191350D01*
X1074358Y191334D01*
Y188785D01*
X1074279Y188770D01*
X1072625Y187665D01*
X1071520Y186011D01*
X1071132Y184060D01*
Y179060D01*
X1071520Y177109D01*
X1072581Y175521D01*
Y152705D01*
X1070280Y151298D01*
X1070081Y151298D01*
X1068070Y151699D01*
X1068070Y151699D01*
X1059520D01*
Y152810D01*
X1059202Y155225D01*
X1058270Y157475D01*
X1056787Y159407D01*
X1054855Y160890D01*
X1052605Y161822D01*
X1050190Y162140D01*
X1037690D01*
X1035275Y161822D01*
X1033025Y160890D01*
X1031093Y159407D01*
X1029610Y157475D01*
X1028678Y155225D01*
X1028360Y152810D01*
Y140310D01*
X1028678Y137895D01*
X1029610Y135645D01*
X1031093Y133713D01*
X1033025Y132230D01*
X1035275Y131298D01*
X1037690Y130980D01*
X1050190D01*
X1052605Y131298D01*
X1054855Y132230D01*
X1056787Y133713D01*
X1058270Y135645D01*
X1059202Y137895D01*
X1059520Y140310D01*
Y140401D01*
X1065730D01*
X1074236Y131896D01*
X1074236Y131896D01*
X1076722Y129409D01*
Y107148D01*
X1076466Y106701D01*
X1076356Y106538D01*
X1074389Y105403D01*
X1071968Y102982D01*
X1070257Y100018D01*
X1069371Y96712D01*
Y93288D01*
X1070257Y89982D01*
X1071968Y87018D01*
X1074389Y84597D01*
X1077353Y82886D01*
X1080659Y82000D01*
X1084082D01*
X1087389Y82886D01*
X1090353Y84597D01*
X1092774Y87018D01*
X1093909Y88985D01*
X1094072Y89095D01*
X1094519Y89352D01*
X1120615D01*
Y86500D01*
X1120873Y84542D01*
X1121629Y82718D01*
X1122831Y81151D01*
X1124398Y79949D01*
X1126222Y79193D01*
X1128180Y78935D01*
X1137180D01*
X1139138Y79193D01*
X1140962Y79949D01*
X1142529Y81151D01*
X1143731Y82718D01*
X1144487Y84542D01*
X1144745Y86500D01*
Y103500D01*
X1144487Y105458D01*
X1143731Y107282D01*
X1142529Y108849D01*
X1140962Y110051D01*
X1139138Y110807D01*
X1138328Y110913D01*
Y117892D01*
X1139138Y117998D01*
X1140962Y118754D01*
X1142529Y119956D01*
X1143731Y121523D01*
X1144487Y123347D01*
X1144745Y125305D01*
Y142305D01*
X1144487Y144263D01*
X1143731Y146087D01*
X1142529Y147654D01*
X1140962Y148856D01*
X1139138Y149612D01*
X1138328Y149719D01*
Y156697D01*
X1139138Y156803D01*
X1140962Y157559D01*
X1142529Y158761D01*
X1143731Y160328D01*
X1144487Y162152D01*
X1144745Y164110D01*
Y181110D01*
X1144487Y183068D01*
X1143731Y184892D01*
X1142529Y186459D01*
X1140962Y187661D01*
X1139138Y188417D01*
X1138328Y188524D01*
Y195501D01*
X1139138Y195608D01*
X1140962Y196364D01*
X1142529Y197566D01*
X1143731Y199133D01*
X1144487Y200957D01*
X1144745Y202915D01*
Y219915D01*
X1144487Y221873D01*
X1143731Y223697D01*
X1142529Y225264D01*
X1140962Y226466D01*
X1139138Y227222D01*
X1138328Y227328D01*
Y234307D01*
X1139138Y234413D01*
X1140962Y235169D01*
X1142529Y236371D01*
X1143731Y237938D01*
X1144487Y239762D01*
X1144745Y241720D01*
Y258720D01*
X1144487Y260678D01*
X1143731Y262502D01*
X1142529Y264069D01*
X1140962Y265271D01*
X1139138Y266027D01*
X1138328Y266133D01*
Y273210D01*
X1138329Y273210D01*
X1137899Y275372D01*
X1136674Y277204D01*
X1131528Y282350D01*
Y289381D01*
X1132590Y290969D01*
X1132978Y292920D01*
Y297920D01*
X1132590Y299871D01*
X1131485Y301525D01*
X1130642Y302088D01*
X1130471Y304703D01*
X1130542Y304933D01*
X1131867Y306124D01*
X1149282D01*
X1158884Y296522D01*
Y266048D01*
X1158722Y266027D01*
X1156898Y265271D01*
X1155331Y264069D01*
X1154129Y262502D01*
X1153373Y260678D01*
X1153115Y258720D01*
Y241720D01*
X1153373Y239762D01*
X1154129Y237938D01*
X1155331Y236371D01*
X1156898Y235169D01*
X1158722Y234413D01*
X1158884Y234392D01*
Y227243D01*
X1158722Y227222D01*
X1156898Y226466D01*
X1155331Y225264D01*
X1154129Y223697D01*
X1153373Y221873D01*
X1153115Y219915D01*
Y202915D01*
X1153373Y200957D01*
X1154129Y199133D01*
X1155331Y197566D01*
X1156898Y196364D01*
X1158722Y195608D01*
X1158884Y195587D01*
Y188438D01*
X1158722Y188417D01*
X1156898Y187661D01*
X1155331Y186459D01*
X1154129Y184892D01*
X1153373Y183068D01*
X1153115Y181110D01*
Y164110D01*
X1153373Y162152D01*
X1154129Y160328D01*
X1155331Y158761D01*
X1156898Y157559D01*
X1158722Y156803D01*
X1158884Y156782D01*
Y149633D01*
X1158722Y149612D01*
X1156898Y148856D01*
X1155331Y147654D01*
X1154129Y146087D01*
X1153373Y144263D01*
X1153115Y142305D01*
Y125305D01*
X1153373Y123347D01*
X1154129Y121523D01*
X1155331Y119956D01*
X1156898Y118754D01*
X1158722Y117998D01*
X1158884Y117977D01*
Y110828D01*
X1158722Y110807D01*
X1156898Y110051D01*
X1155331Y108849D01*
X1154129Y107282D01*
X1153373Y105458D01*
X1153115Y103500D01*
Y86500D01*
X1153373Y84542D01*
X1154129Y82718D01*
X1155331Y81151D01*
X1156898Y79949D01*
X1158722Y79193D01*
X1160680Y78935D01*
X1169680D01*
X1171638Y79193D01*
X1173462Y79949D01*
X1175029Y81151D01*
X1176231Y82718D01*
X1176987Y84542D01*
X1177245Y86500D01*
Y103500D01*
X1176987Y105458D01*
X1176231Y107282D01*
X1175029Y108849D01*
X1173462Y110051D01*
X1171638Y110807D01*
X1171476Y110828D01*
Y117977D01*
X1171638Y117998D01*
X1173462Y118754D01*
X1175029Y119956D01*
X1176231Y121523D01*
X1176987Y123347D01*
X1177245Y125305D01*
Y142305D01*
X1176987Y144263D01*
X1176231Y146087D01*
X1175029Y147654D01*
X1173462Y148856D01*
X1171638Y149612D01*
X1171476Y149633D01*
Y156782D01*
X1171638Y156803D01*
X1173462Y157559D01*
X1175029Y158761D01*
X1176231Y160328D01*
X1176987Y162152D01*
X1177245Y164110D01*
Y165734D01*
X1183764D01*
X1183778Y165709D01*
X1185519Y163968D01*
X1187651Y162737D01*
X1190029Y162100D01*
X1192491D01*
X1194869Y162737D01*
X1197001Y163968D01*
X1198742Y165709D01*
X1199973Y167841D01*
X1200610Y170219D01*
Y172681D01*
X1199973Y175059D01*
X1198742Y177191D01*
X1197001Y178932D01*
X1194869Y180163D01*
X1192491Y180800D01*
X1190029D01*
X1187651Y180163D01*
X1185519Y178932D01*
X1184913Y178326D01*
X1177245D01*
Y181110D01*
X1176987Y183068D01*
X1176231Y184892D01*
X1175029Y186459D01*
X1173462Y187661D01*
X1171638Y188417D01*
X1171476Y188438D01*
Y195587D01*
X1171638Y195608D01*
X1173462Y196364D01*
X1175029Y197566D01*
X1176231Y199133D01*
X1176987Y200957D01*
X1177245Y202915D01*
Y219915D01*
X1176987Y221873D01*
X1176231Y223697D01*
X1175029Y225264D01*
X1173462Y226466D01*
X1171638Y227222D01*
X1171476Y227243D01*
Y234392D01*
X1171638Y234413D01*
X1173462Y235169D01*
X1175029Y236371D01*
X1176231Y237938D01*
X1176987Y239762D01*
X1177245Y241720D01*
Y258720D01*
X1176987Y260678D01*
X1176231Y262502D01*
X1175029Y264069D01*
X1173462Y265271D01*
X1171638Y266027D01*
X1171476Y266048D01*
Y299130D01*
X1170997Y301539D01*
X1169632Y303582D01*
X1156342Y316872D01*
X1154299Y318237D01*
X1151890Y318716D01*
X1131199D01*
X1129831Y319630D01*
X1127880Y320018D01*
X1123880D01*
X1121929Y319630D01*
X1120561Y318716D01*
X1111324D01*
Y319170D01*
X1110989Y321715D01*
X1110007Y324087D01*
X1108444Y326124D01*
X1106407Y327687D01*
X1104035Y328669D01*
X1101490Y329004D01*
D02*
G37*
G36*
X1110590Y175060D02*
X1091590D01*
Y158060D01*
X1094794D01*
Y146627D01*
X1093608Y145441D01*
X1092377Y143309D01*
X1091740Y140931D01*
Y138469D01*
X1092377Y136091D01*
X1093608Y133959D01*
X1095349Y132218D01*
X1097481Y130987D01*
X1099859Y130350D01*
X1102321D01*
X1104699Y130987D01*
X1106831Y132218D01*
X1108572Y133959D01*
X1109803Y136091D01*
X1110440Y138469D01*
Y140931D01*
X1109803Y143309D01*
X1108572Y145441D01*
X1107386Y146627D01*
Y158060D01*
X1110590D01*
Y175060D01*
D02*
G37*
G36*
X1062644Y69800D02*
X1059098D01*
X1055621Y69108D01*
X1052345Y67751D01*
X1049397Y65781D01*
X1046889Y63274D01*
X1044920Y60326D01*
X1043563Y57050D01*
X1042871Y53573D01*
Y50027D01*
X1043563Y46550D01*
X1044920Y43274D01*
X1046889Y40326D01*
X1049397Y37819D01*
X1052345Y35849D01*
X1055621Y34492D01*
X1059098Y33800D01*
X1062644D01*
X1066121Y34492D01*
X1069397Y35849D01*
X1072345Y37819D01*
X1074853Y40326D01*
X1076822Y43274D01*
X1078179Y46550D01*
X1078871Y50027D01*
Y53573D01*
X1078179Y57050D01*
X1076822Y60326D01*
X1074853Y63274D01*
X1072345Y65781D01*
X1069397Y67751D01*
X1066121Y69108D01*
X1062644Y69800D01*
D02*
G37*
G36*
X1244765Y77270D02*
X1239098D01*
X1233501Y76384D01*
X1228112Y74633D01*
X1223063Y72060D01*
X1218479Y68729D01*
X1214472Y64722D01*
X1211142Y60138D01*
X1208569Y55089D01*
X1206818Y49700D01*
X1205931Y44103D01*
Y38437D01*
X1206818Y32840D01*
X1208569Y27451D01*
X1211142Y22402D01*
X1214472Y17817D01*
X1218479Y13811D01*
X1223063Y10480D01*
X1228112Y7908D01*
X1233501Y6156D01*
X1239098Y5270D01*
X1244765D01*
X1250361Y6156D01*
X1255751Y7908D01*
X1260799Y10480D01*
X1265384Y13811D01*
X1269391Y17817D01*
X1272721Y22402D01*
X1275294Y27451D01*
X1277045Y32840D01*
X1277931Y38437D01*
Y44103D01*
X1277045Y49700D01*
X1275294Y55089D01*
X1272721Y60138D01*
X1269391Y64722D01*
X1265384Y68729D01*
X1260799Y72060D01*
X1255751Y74633D01*
X1250361Y76384D01*
X1244765Y77270D01*
D02*
G37*
%LPD*%
G36*
X1037471Y557045D02*
X1038237Y556554D01*
X1039012Y556121D01*
X1039796Y555746D01*
X1040589Y555429D01*
X1041391Y555169D01*
X1042202Y554967D01*
X1043021Y554822D01*
X1043750Y554746D01*
X1045852Y554765D01*
X1045200Y546490D01*
X1044906Y546845D01*
X1044523Y547162D01*
X1044052Y547442D01*
X1043491Y547685D01*
X1042842Y547890D01*
X1042104Y548058D01*
X1042068Y548064D01*
X1041391Y547895D01*
X1040589Y547635D01*
X1039796Y547317D01*
X1039012Y546942D01*
X1038237Y546509D01*
X1037471Y546018D01*
X1036714Y545470D01*
Y557594D01*
X1037471Y557045D01*
D02*
G37*
G36*
X1085590Y555647D02*
X1085742Y555109D01*
X1086044Y554635D01*
X1086496Y554224D01*
X1087096Y553876D01*
X1087846Y553591D01*
X1088745Y553370D01*
X1089299Y553286D01*
X1090495Y553380D01*
X1091201Y553510D01*
X1091829Y553663D01*
X1092378Y553840D01*
X1092849Y554041D01*
X1093242Y554265D01*
Y545555D01*
X1092849Y545779D01*
X1092378Y545980D01*
X1091829Y546157D01*
X1091201Y546310D01*
X1090495Y546440D01*
X1089033Y546608D01*
X1087883Y546533D01*
X1087083Y546419D01*
X1085740Y546115D01*
X1085197Y545925D01*
X1084739Y545710D01*
X1084366Y545470D01*
X1085587Y556248D01*
X1085590Y555647D01*
D02*
G37*
G36*
X1034970Y526066D02*
X1034495Y526035D01*
X1034070Y525899D01*
X1033695Y525658D01*
X1033370Y525313D01*
X1033095Y524862D01*
X1032870Y524307D01*
X1032695Y523646D01*
X1032570Y522881D01*
X1032495Y522011D01*
X1032470Y521035D01*
X1027470D01*
X1027445Y522054D01*
X1027371Y522967D01*
X1027246Y523776D01*
X1027072Y524479D01*
X1026848Y525078D01*
X1026574Y525572D01*
X1026251Y525960D01*
X1025878Y526244D01*
X1025454Y526423D01*
X1024982Y526497D01*
X1034970Y526066D01*
D02*
G37*
G36*
X1084224Y526788D02*
X1083687Y526573D01*
X1083214Y526214D01*
X1082803Y525712D01*
X1082456Y525066D01*
X1082172Y524277D01*
X1081951Y523344D01*
X1081793Y522268D01*
X1081699Y521049D01*
X1081667Y519685D01*
X1075317D01*
X1075285Y521049D01*
X1075191Y522268D01*
X1075033Y523344D01*
X1074812Y524277D01*
X1074528Y525066D01*
X1074181Y525712D01*
X1073770Y526214D01*
X1073297Y526573D01*
X1072760Y526788D01*
X1072161Y526860D01*
X1084823D01*
X1084224Y526788D01*
D02*
G37*
G36*
X1098305Y486503D02*
X1098400Y485345D01*
X1098558Y484323D01*
X1098779Y483437D01*
X1099064Y482687D01*
X1099412Y482074D01*
X1099823Y481597D01*
X1100297Y481256D01*
X1100835Y481051D01*
X1101436Y480983D01*
X1088760D01*
X1089361Y481051D01*
X1089899Y481256D01*
X1090373Y481597D01*
X1090784Y482074D01*
X1091132Y482687D01*
X1091417Y483437D01*
X1091638Y484323D01*
X1091796Y485345D01*
X1091891Y486503D01*
X1091923Y487798D01*
X1098273D01*
X1098305Y486503D01*
D02*
G37*
G36*
X1037199Y476588D02*
X1037271Y476404D01*
X1037390Y476241D01*
X1037557Y476100D01*
X1037772Y475981D01*
X1038034Y475883D01*
X1038344Y475807D01*
X1038702Y475753D01*
X1039107Y475720D01*
X1039560Y475710D01*
Y473170D01*
X1039107Y473159D01*
X1038702Y473126D01*
X1038344Y473072D01*
X1038034Y472996D01*
X1037772Y472898D01*
X1037557Y472779D01*
X1037390Y472638D01*
X1037271Y472476D01*
X1037199Y472291D01*
X1037175Y472085D01*
Y476794D01*
X1037199Y476588D01*
D02*
G37*
G36*
X1103709Y478177D02*
X1103914Y477640D01*
X1104255Y477165D01*
X1104732Y476754D01*
X1105345Y476406D01*
X1106095Y476121D01*
X1106981Y475900D01*
X1108003Y475742D01*
X1109161Y475647D01*
X1110456Y475615D01*
Y469265D01*
X1109161Y469233D01*
X1108003Y469138D01*
X1106981Y468980D01*
X1106095Y468759D01*
X1105345Y468474D01*
X1104732Y468126D01*
X1104255Y467715D01*
X1103914Y467240D01*
X1103709Y466703D01*
X1103641Y466102D01*
Y478778D01*
X1103709Y478177D01*
D02*
G37*
G36*
X1097397Y463437D02*
X1097181Y463360D01*
X1096990Y463231D01*
X1096825Y463051D01*
X1096685Y462820D01*
X1096571Y462537D01*
X1096482Y462203D01*
X1096419Y461817D01*
X1096381Y461380D01*
X1096368Y460892D01*
X1093828D01*
X1093815Y461380D01*
X1093777Y461817D01*
X1093714Y462203D01*
X1093625Y462537D01*
X1093511Y462820D01*
X1093371Y463051D01*
X1093206Y463231D01*
X1093015Y463360D01*
X1092799Y463437D01*
X1092558Y463462D01*
X1097638D01*
X1097397Y463437D01*
D02*
G37*
G36*
X1037201Y457739D02*
X1037278Y457523D01*
X1037407Y457333D01*
X1037587Y457168D01*
X1037818Y457028D01*
X1038101Y456914D01*
X1038435Y456825D01*
X1038821Y456761D01*
X1039258Y456723D01*
X1039746Y456710D01*
Y454170D01*
X1039258Y454158D01*
X1038821Y454120D01*
X1038435Y454056D01*
X1038101Y453967D01*
X1037818Y453853D01*
X1037587Y453713D01*
X1037407Y453548D01*
X1037278Y453358D01*
X1037201Y453142D01*
X1037175Y452900D01*
Y457980D01*
X1037201Y457739D01*
D02*
G37*
G36*
X1052205Y453203D02*
X1053144Y452405D01*
X1053558Y452115D01*
X1053936Y451896D01*
X1054276Y451749D01*
X1054581Y451675D01*
X1054848Y451672D01*
X1055079Y451741D01*
X1055273Y451883D01*
X1052890Y449478D01*
X1052934Y449325D01*
X1052907Y449255D01*
X1052808Y449269D01*
X1052637Y449366D01*
X1052395Y449546D01*
X1052081Y449809D01*
X1050706Y451097D01*
X1050105Y451693D01*
X1051681Y453709D01*
X1052205Y453203D01*
D02*
G37*
G36*
X1100904Y446472D02*
X1100878Y446713D01*
X1100801Y446929D01*
X1100672Y447120D01*
X1100492Y447285D01*
X1100261Y447425D01*
X1099978Y447539D01*
X1099644Y447628D01*
X1099259Y447691D01*
X1098822Y447729D01*
X1098333Y447742D01*
Y450282D01*
X1098822Y450295D01*
X1099259Y450333D01*
X1099644Y450396D01*
X1099978Y450485D01*
X1100261Y450600D01*
X1100492Y450739D01*
X1100672Y450904D01*
X1100801Y451095D01*
X1100878Y451311D01*
X1100904Y451552D01*
Y446472D01*
D02*
G37*
G36*
X1015775Y443425D02*
X1015850Y442549D01*
X1015975Y441779D01*
X1016150Y441116D01*
X1016375Y440560D01*
X1016650Y440110D01*
X1016975Y439767D01*
X1017350Y439531D01*
X1017775Y439401D01*
X1018250Y439378D01*
X1008262Y438778D01*
X1008735Y438861D01*
X1009157Y439051D01*
X1009531Y439347D01*
X1009854Y439750D01*
X1010128Y440260D01*
X1010352Y440876D01*
X1010526Y441599D01*
X1010650Y442429D01*
X1010725Y443365D01*
X1010750Y444408D01*
X1015750D01*
X1015775Y443425D01*
D02*
G37*
G36*
X1006062Y425604D02*
X1006013Y426078D01*
X1005863Y426503D01*
X1005611Y426877D01*
X1005257Y427201D01*
X1004801Y427476D01*
X1004243Y427701D01*
X1003583Y427875D01*
X1002821Y428000D01*
X1001957Y428075D01*
X1000992Y428100D01*
Y433100D01*
X1001963Y433125D01*
X1002832Y433200D01*
X1003599Y433325D01*
X1004264Y433499D01*
X1004827Y433724D01*
X1005288Y433999D01*
X1005648Y434323D01*
X1005905Y434697D01*
X1006061Y435122D01*
X1006114Y435596D01*
X1006062Y425604D01*
D02*
G37*
G36*
X1046381Y436765D02*
X1055840D01*
X1055934Y436784D01*
X1058339D01*
Y427149D01*
X1058715D01*
X1058698Y427063D01*
Y424376D01*
X1058072Y423750D01*
X1018800D01*
Y431550D01*
X1024170Y436920D01*
X1045603D01*
X1046381Y436765D01*
D02*
G37*
G36*
X1100914Y423698D02*
X1100888Y423939D01*
X1100811Y424155D01*
X1100682Y424346D01*
X1100502Y424511D01*
X1100271Y424650D01*
X1099988Y424765D01*
X1099654Y424854D01*
X1099269Y424917D01*
X1098832Y424955D01*
X1098343Y424968D01*
Y427508D01*
X1098832Y427521D01*
X1099269Y427559D01*
X1099654Y427622D01*
X1099988Y427711D01*
X1100271Y427826D01*
X1100502Y427965D01*
X1100682Y428130D01*
X1100811Y428321D01*
X1100888Y428537D01*
X1100914Y428778D01*
Y423698D01*
D02*
G37*
G36*
X744489Y423454D02*
X743898Y422787D01*
X743371Y422033D01*
X742908Y421192D01*
X742508Y420264D01*
X742172Y419249D01*
X741900Y418146D01*
X741692Y416956D01*
X741547Y415678D01*
X741466Y414314D01*
X741449Y412862D01*
X730362Y423949D01*
X731814Y423966D01*
X734456Y424192D01*
X735646Y424400D01*
X736749Y424672D01*
X737764Y425008D01*
X738692Y425408D01*
X739533Y425871D01*
X740287Y426398D01*
X740954Y426989D01*
X744489Y423454D01*
D02*
G37*
G36*
X1186250Y447000D02*
X1186250Y424500D01*
X1142500Y380750D01*
X1061300D01*
Y423773D01*
X1061484Y424697D01*
Y426603D01*
X1061300Y427527D01*
Y427699D01*
X1077414D01*
X1077196Y426603D01*
Y424697D01*
X1077418Y423583D01*
X1078049Y422637D01*
X1078995Y422006D01*
X1080109Y421784D01*
X1082746D01*
X1082840Y421765D01*
X1087241D01*
X1087563Y421443D01*
Y421009D01*
X1084623Y418069D01*
X1083781Y416809D01*
X1083486Y415323D01*
Y414040D01*
X1081861Y413717D01*
X1079946Y412437D01*
X1078667Y410522D01*
X1078217Y408263D01*
Y399761D01*
X1078667Y397502D01*
X1079946Y395587D01*
X1081861Y394307D01*
X1084120Y393858D01*
X1090620D01*
X1092879Y394307D01*
X1094795Y395587D01*
X1094821Y395626D01*
X1095040Y395096D01*
X1096523Y393164D01*
X1098455Y391682D01*
X1100705Y390750D01*
X1103120Y390432D01*
X1103370D01*
Y404012D01*
X1106369D01*
Y407012D01*
X1118949D01*
Y408263D01*
X1118631Y410677D01*
X1117699Y412928D01*
X1116217Y414860D01*
X1114284Y416343D01*
X1113247Y416772D01*
X1114805Y417813D01*
X1114831Y417852D01*
X1115050Y417323D01*
X1116533Y415390D01*
X1118465Y413908D01*
X1120715Y412976D01*
X1123130Y412658D01*
X1123380D01*
Y426238D01*
X1126380D01*
Y429238D01*
X1138959D01*
Y430489D01*
X1138641Y432903D01*
X1137709Y435154D01*
X1136227Y437086D01*
X1135519Y437629D01*
X1136217Y438164D01*
X1137699Y440097D01*
X1138631Y442347D01*
X1138949Y444761D01*
Y446012D01*
X1126370D01*
Y449012D01*
X1123370D01*
Y462592D01*
X1123120D01*
X1120705Y462275D01*
X1118455Y461343D01*
X1116523Y459860D01*
X1115040Y457928D01*
X1114821Y457398D01*
X1114795Y457437D01*
X1112879Y458717D01*
X1110620Y459166D01*
X1104120D01*
X1101861Y458717D01*
X1099946Y457437D01*
X1098667Y455522D01*
X1098217Y453263D01*
Y452897D01*
X1095890D01*
X1097845Y454851D01*
X1098687Y456111D01*
X1098983Y457598D01*
Y460839D01*
X1099598D01*
X1101436Y461081D01*
X1103148Y461791D01*
X1104619Y462919D01*
X1105747Y464390D01*
X1106457Y466102D01*
X1106524Y466613D01*
X1166637D01*
X1186250Y447000D01*
D02*
G37*
G36*
X1088653Y413562D02*
X1088691Y413125D01*
X1088755Y412739D01*
X1088844Y412405D01*
X1088958Y412122D01*
X1089098Y411891D01*
X1089263Y411711D01*
X1089453Y411582D01*
X1089669Y411505D01*
X1089910Y411479D01*
X1084830D01*
X1085072Y411505D01*
X1085288Y411582D01*
X1085478Y411711D01*
X1085643Y411891D01*
X1085783Y412122D01*
X1085897Y412405D01*
X1085986Y412739D01*
X1086050Y413125D01*
X1086088Y413562D01*
X1086100Y414050D01*
X1088640D01*
X1088653Y413562D01*
D02*
G37*
G36*
X1136990Y374236D02*
X1137179Y373898D01*
X1137486Y373599D01*
X1137911Y373339D01*
X1138454Y373120D01*
X1139116Y372941D01*
X1139896Y372801D01*
X1140795Y372702D01*
X1142947Y372622D01*
Y366272D01*
X1141845Y366252D01*
X1139993Y366092D01*
X1139243Y365953D01*
X1138610Y365774D01*
X1138094Y365554D01*
X1137695Y365295D01*
X1137413Y364996D01*
X1137248Y364657D01*
X1137200Y364278D01*
X1136920Y374615D01*
X1136990Y374236D01*
D02*
G37*
G36*
X1126011Y362767D02*
X1126552Y362670D01*
X1126850Y362552D01*
X1126905Y362413D01*
X1126718Y362253D01*
X1126287Y362073D01*
X1125613Y361872D01*
X1124696Y361651D01*
X1120489Y360862D01*
X1116948Y366925D01*
X1118263Y367175D01*
X1119416Y367459D01*
X1120406Y367778D01*
X1121234Y368132D01*
X1121900Y368520D01*
X1122403Y368943D01*
X1122745Y369401D01*
X1122924Y369893D01*
X1122940Y370420D01*
X1122795Y370982D01*
X1126011Y362767D01*
D02*
G37*
G36*
X1097160Y369497D02*
X1097352Y368957D01*
X1097671Y368481D01*
X1098117Y368068D01*
X1098691Y367719D01*
X1099393Y367433D01*
X1100223Y367211D01*
X1101180Y367052D01*
X1102083Y366973D01*
X1105235Y367220D01*
X1105941Y367350D01*
X1106569Y367503D01*
X1107118Y367680D01*
X1107589Y367881D01*
X1107981Y368105D01*
Y359395D01*
X1107589Y359619D01*
X1107118Y359820D01*
X1106569Y359997D01*
X1105941Y360150D01*
X1105235Y360280D01*
X1103587Y360469D01*
X1102185Y360536D01*
X1101180Y360448D01*
X1100223Y360289D01*
X1099393Y360067D01*
X1098691Y359781D01*
X1098117Y359432D01*
X1097671Y359019D01*
X1097352Y358543D01*
X1097160Y358003D01*
X1097096Y357400D01*
Y370100D01*
X1097160Y369497D01*
D02*
G37*
G36*
X1122831Y346742D02*
X1122795Y346808D01*
X1122687Y346868D01*
X1122507Y346920D01*
X1122256Y346965D01*
X1121932Y347003D01*
X1121070Y347059D01*
X1119237Y347090D01*
Y353440D01*
X1119920Y353444D01*
X1122507Y353611D01*
X1122687Y353663D01*
X1122795Y353722D01*
X1122831Y353788D01*
Y346742D01*
D02*
G37*
G36*
X1119237Y347090D02*
X1118303Y346894D01*
X1116758Y346473D01*
X1116146Y346249D01*
X1115641Y346016D01*
X1115244Y345774D01*
X1114954Y345523D01*
X1114771Y345263D01*
X1114696Y344994D01*
X1114728Y344715D01*
X1112750Y351258D01*
X1112262Y351385D01*
X1111985Y351530D01*
X1111918Y351692D01*
X1112062Y351872D01*
X1112417Y352069D01*
X1112983Y352285D01*
X1113759Y352518D01*
X1115944Y353037D01*
X1117352Y353323D01*
X1119237Y347090D01*
D02*
G37*
G36*
X1025014Y355544D02*
X1025780Y355053D01*
X1026555Y354620D01*
X1027339Y354245D01*
X1028132Y353927D01*
X1028934Y353667D01*
X1029745Y353465D01*
X1030564Y353321D01*
X1031393Y353234D01*
X1032231Y353205D01*
Y346855D01*
X1031393Y346827D01*
X1030564Y346740D01*
X1029745Y346595D01*
X1028934Y346393D01*
X1028132Y346134D01*
X1027339Y345816D01*
X1026555Y345441D01*
X1025780Y345008D01*
X1025014Y344517D01*
X1024257Y343968D01*
Y344348D01*
X1024193Y344340D01*
X1023657Y344119D01*
X1023183Y343754D01*
X1022773Y343246D01*
X1022426Y342594D01*
X1022142Y341799D01*
X1021921Y340860D01*
X1021763Y339778D01*
X1021668Y338552D01*
X1021637Y337183D01*
X1015287D01*
X1015255Y338540D01*
X1015160Y339754D01*
X1015003Y340824D01*
X1014781Y341751D01*
X1014498Y342534D01*
X1014150Y343173D01*
X1013740Y343670D01*
X1013267Y344022D01*
X1012730Y344231D01*
X1012130Y344297D01*
X1024257Y344413D01*
Y356092D01*
X1025014Y355544D01*
D02*
G37*
G36*
X1040199Y343699D02*
X1040076Y344299D01*
X1039815Y344835D01*
X1039416Y345309D01*
X1038878Y345719D01*
X1038202Y346066D01*
X1037388Y346350D01*
X1036435Y346571D01*
X1035344Y346729D01*
X1034115Y346824D01*
X1032747Y346855D01*
X1032743Y353205D01*
X1034004Y353237D01*
X1035126Y353332D01*
X1036110Y353491D01*
X1036956Y353713D01*
X1037663Y353999D01*
X1038232Y354348D01*
X1038663Y354761D01*
X1038955Y355237D01*
X1039108Y355777D01*
X1039124Y356380D01*
X1040199Y343699D01*
D02*
G37*
G36*
X1021668Y331060D02*
X1021764Y329975D01*
X1021922Y329018D01*
X1022145Y328189D01*
X1022430Y327487D01*
X1022780Y326912D01*
X1023192Y326466D01*
X1023669Y326147D01*
X1024208Y325955D01*
X1024812Y325892D01*
X1012112D01*
X1012715Y325955D01*
X1013255Y326147D01*
X1013731Y326466D01*
X1014144Y326912D01*
X1014493Y327487D01*
X1014779Y328189D01*
X1015001Y329018D01*
X1015160Y329975D01*
X1015255Y331060D01*
X1015287Y332272D01*
X1021637D01*
X1021668Y331060D01*
D02*
G37*
%LPC*%
G36*
X1129620Y462592D02*
X1129370D01*
Y452012D01*
X1138949D01*
Y453263D01*
X1138631Y455677D01*
X1137699Y457928D01*
X1136217Y459860D01*
X1134284Y461343D01*
X1132034Y462275D01*
X1129620Y462592D01*
D02*
G37*
G36*
X1138959Y423238D02*
X1129380D01*
Y412658D01*
X1129630D01*
X1132044Y412976D01*
X1134294Y413908D01*
X1136227Y415390D01*
X1137709Y417323D01*
X1138641Y419573D01*
X1138959Y421987D01*
Y423238D01*
D02*
G37*
G36*
X1118949Y401012D02*
X1109370D01*
Y390432D01*
X1109620D01*
X1112034Y390750D01*
X1114284Y391682D01*
X1116217Y393164D01*
X1117699Y395096D01*
X1118631Y397347D01*
X1118949Y399761D01*
Y401012D01*
D02*
G37*
%LPD*%
G36*
X770155Y294572D02*
X770105Y294964D01*
X769956Y295314D01*
X769708Y295623D01*
X769362Y295891D01*
X768918Y296118D01*
X768376Y296304D01*
X767735Y296448D01*
X766997Y296551D01*
X766159Y296613D01*
X765224Y296634D01*
Y301634D01*
X766155Y301654D01*
X767723Y301819D01*
X768360Y301964D01*
X768898Y302149D01*
X769339Y302376D01*
X769681Y302644D01*
X769925Y302954D01*
X770070Y303304D01*
X770118Y303696D01*
X770155Y294572D01*
D02*
G37*
G36*
X913355Y303690D02*
X913522Y303268D01*
X913800Y302896D01*
X914189Y302573D01*
X914689Y302300D01*
X915300Y302077D01*
X916022Y301903D01*
X916856Y301779D01*
X917800Y301704D01*
X918856Y301680D01*
Y296680D01*
X917800Y296655D01*
X916856Y296580D01*
X916022Y296456D01*
X915300Y296283D01*
X914689Y296059D01*
X914189Y295786D01*
X913800Y295464D01*
X913522Y295091D01*
X913355Y294670D01*
X913300Y294198D01*
Y304161D01*
X913355Y303690D01*
D02*
G37*
G36*
X899416Y294198D02*
X899361Y294670D01*
X899194Y295091D01*
X898916Y295464D01*
X898527Y295786D01*
X898027Y296059D01*
X897416Y296283D01*
X896694Y296456D01*
X895860Y296580D01*
X894916Y296655D01*
X893860Y296680D01*
Y301680D01*
X894916Y301704D01*
X895860Y301779D01*
X896694Y301903D01*
X897416Y302077D01*
X898027Y302300D01*
X898527Y302573D01*
X898916Y302896D01*
X899194Y303268D01*
X899361Y303690D01*
X899416Y304161D01*
Y294198D01*
D02*
G37*
G36*
X883590Y303690D02*
X883756Y303268D01*
X884034Y302896D01*
X884423Y302573D01*
X884923Y302300D01*
X885534Y302077D01*
X886257Y301903D01*
X887090Y301779D01*
X888035Y301704D01*
X889090Y301680D01*
Y296680D01*
X888035Y296655D01*
X887090Y296580D01*
X886257Y296456D01*
X885534Y296283D01*
X884923Y296059D01*
X884423Y295786D01*
X884034Y295464D01*
X883756Y295091D01*
X883590Y294670D01*
X883534Y294198D01*
Y304161D01*
X883590Y303690D01*
D02*
G37*
G36*
X869651Y294198D02*
X869595Y294670D01*
X869428Y295091D01*
X869151Y295464D01*
X868762Y295786D01*
X868262Y296059D01*
X867651Y296283D01*
X866928Y296456D01*
X866095Y296580D01*
X865150Y296655D01*
X864094Y296680D01*
Y301680D01*
X865150Y301704D01*
X866095Y301779D01*
X866928Y301903D01*
X867651Y302077D01*
X868262Y302300D01*
X868762Y302573D01*
X869151Y302896D01*
X869428Y303268D01*
X869595Y303690D01*
X869651Y304161D01*
Y294198D01*
D02*
G37*
G36*
X853824Y303690D02*
X853991Y303268D01*
X854268Y302896D01*
X854657Y302573D01*
X855157Y302300D01*
X855769Y302077D01*
X856491Y301903D01*
X857324Y301779D01*
X858269Y301704D01*
X859325Y301680D01*
Y296680D01*
X858269Y296655D01*
X857324Y296580D01*
X856491Y296456D01*
X855769Y296283D01*
X855157Y296059D01*
X854657Y295786D01*
X854268Y295464D01*
X853991Y295091D01*
X853824Y294670D01*
X853768Y294198D01*
Y304161D01*
X853824Y303690D01*
D02*
G37*
G36*
X839885Y294198D02*
X839829Y294670D01*
X839663Y295091D01*
X839385Y295464D01*
X838996Y295786D01*
X838496Y296059D01*
X837885Y296283D01*
X837162Y296456D01*
X836329Y296580D01*
X835385Y296655D01*
X834329Y296680D01*
Y301680D01*
X835385Y301704D01*
X836329Y301779D01*
X837162Y301903D01*
X837885Y302077D01*
X838496Y302300D01*
X838996Y302573D01*
X839385Y302896D01*
X839663Y303268D01*
X839829Y303690D01*
X839885Y304161D01*
Y294198D01*
D02*
G37*
G36*
X814058Y303690D02*
X814225Y303268D01*
X814503Y302896D01*
X814892Y302573D01*
X815392Y302300D01*
X816003Y302077D01*
X816725Y301903D01*
X817559Y301779D01*
X818503Y301704D01*
X819559Y301680D01*
Y296680D01*
X818503Y296655D01*
X817559Y296580D01*
X816725Y296456D01*
X816003Y296283D01*
X815392Y296059D01*
X814892Y295786D01*
X814503Y295464D01*
X814225Y295091D01*
X814058Y294670D01*
X814003Y294198D01*
Y304161D01*
X814058Y303690D01*
D02*
G37*
G36*
X800119Y294198D02*
X800064Y294670D01*
X799897Y295091D01*
X799619Y295464D01*
X799230Y295786D01*
X798730Y296059D01*
X798119Y296283D01*
X797397Y296456D01*
X796563Y296580D01*
X795619Y296655D01*
X794563Y296680D01*
Y301680D01*
X795619Y301704D01*
X796563Y301779D01*
X797397Y301903D01*
X798119Y302077D01*
X798730Y302300D01*
X799230Y302573D01*
X799619Y302896D01*
X799897Y303268D01*
X800064Y303690D01*
X800119Y304161D01*
Y294198D01*
D02*
G37*
G36*
X784293Y303690D02*
X784459Y303268D01*
X784737Y302896D01*
X785126Y302573D01*
X785626Y302300D01*
X786237Y302077D01*
X786960Y301903D01*
X787793Y301779D01*
X788738Y301704D01*
X789793Y301680D01*
Y296680D01*
X788738Y296655D01*
X787793Y296580D01*
X786960Y296456D01*
X786237Y296283D01*
X785626Y296059D01*
X785126Y295786D01*
X784737Y295464D01*
X784459Y295091D01*
X784293Y294670D01*
X784237Y294198D01*
Y304161D01*
X784293Y303690D01*
D02*
G37*
G36*
X750123Y292529D02*
X750400Y292431D01*
X750762Y292344D01*
X751208Y292269D01*
X752352Y292153D01*
X753832Y292083D01*
X755650Y292060D01*
Y287060D01*
X754699Y287054D01*
X750762Y286776D01*
X750400Y286689D01*
X750123Y286591D01*
X749930Y286481D01*
Y292640D01*
X750123Y292529D01*
D02*
G37*
G36*
X770110Y275682D02*
X770085Y276154D01*
X769947Y276577D01*
X769697Y276951D01*
X769334Y277274D01*
X768859Y277548D01*
X768272Y277772D01*
X767572Y277946D01*
X766760Y278071D01*
X765835Y278145D01*
X764798Y278170D01*
Y283170D01*
X765897Y283195D01*
X766884Y283269D01*
X767758Y283393D01*
X768520Y283567D01*
X769169Y283790D01*
X769706Y284063D01*
X770131Y284386D01*
X770443Y284758D01*
X770642Y285180D01*
X770730Y285651D01*
X770110Y275682D01*
D02*
G37*
G36*
X814058Y284690D02*
X814225Y284268D01*
X814503Y283896D01*
X814892Y283574D01*
X815392Y283301D01*
X816003Y283077D01*
X816725Y282904D01*
X817559Y282780D01*
X818503Y282705D01*
X819559Y282680D01*
Y277680D01*
X818503Y277656D01*
X817559Y277581D01*
X816725Y277457D01*
X816003Y277283D01*
X815392Y277060D01*
X814892Y276787D01*
X814503Y276465D01*
X814225Y276092D01*
X814058Y275670D01*
X814003Y275199D01*
Y285162D01*
X814058Y284690D01*
D02*
G37*
G36*
X800119Y275199D02*
X800064Y275670D01*
X799897Y276092D01*
X799619Y276465D01*
X799230Y276787D01*
X798730Y277060D01*
X798119Y277283D01*
X797397Y277457D01*
X796563Y277581D01*
X795619Y277656D01*
X794563Y277680D01*
Y282680D01*
X795619Y282705D01*
X796563Y282780D01*
X797397Y282904D01*
X798119Y283077D01*
X798730Y283301D01*
X799230Y283574D01*
X799619Y283896D01*
X799897Y284268D01*
X800064Y284690D01*
X800119Y285162D01*
Y275199D01*
D02*
G37*
G36*
X784293Y284690D02*
X784459Y284268D01*
X784737Y283896D01*
X785126Y283574D01*
X785626Y283301D01*
X786237Y283077D01*
X786960Y282904D01*
X787793Y282780D01*
X788738Y282705D01*
X789793Y282680D01*
Y277680D01*
X788738Y277656D01*
X787793Y277581D01*
X786960Y277457D01*
X786237Y277283D01*
X785626Y277060D01*
X785126Y276787D01*
X784737Y276465D01*
X784459Y276092D01*
X784293Y275670D01*
X784237Y275199D01*
Y285162D01*
X784293Y284690D01*
D02*
G37*
G36*
X750123Y279829D02*
X750402Y279731D01*
X750764Y279644D01*
X751212Y279569D01*
X752362Y279453D01*
X753850Y279383D01*
X755677Y279360D01*
Y274360D01*
X754722Y274354D01*
X750764Y274076D01*
X750402Y273989D01*
X750123Y273891D01*
X749930Y273780D01*
Y279939D01*
X750123Y279829D01*
D02*
G37*
G36*
X909806Y273675D02*
X909482Y273560D01*
X909196Y273368D01*
X908949Y273099D01*
X908739Y272754D01*
X908568Y272331D01*
X908435Y271832D01*
X908339Y271256D01*
X908282Y270603D01*
X908263Y269873D01*
X904453D01*
X904434Y270603D01*
X904377Y271256D01*
X904282Y271832D01*
X904148Y272331D01*
X903977Y272754D01*
X903767Y273099D01*
X903520Y273368D01*
X903234Y273560D01*
X902910Y273675D01*
X902548Y273714D01*
X910168D01*
X909806Y273675D01*
D02*
G37*
G36*
X881114Y273761D02*
X880690Y273607D01*
X880315Y273351D01*
X879991Y272992D01*
X879716Y272530D01*
X879492Y271966D01*
X879317Y271299D01*
X879192Y270530D01*
X879117Y269658D01*
X879092Y268683D01*
X874092D01*
X874067Y269658D01*
X873992Y270530D01*
X873868Y271299D01*
X873693Y271966D01*
X873468Y272530D01*
X873194Y272992D01*
X872869Y273351D01*
X872495Y273607D01*
X872071Y273761D01*
X871596Y273812D01*
X881588D01*
X881114Y273761D01*
D02*
G37*
G36*
X851348D02*
X850924Y273607D01*
X850550Y273351D01*
X850225Y272992D01*
X849951Y272530D01*
X849726Y271966D01*
X849551Y271299D01*
X849427Y270530D01*
X849352Y269658D01*
X849327Y268683D01*
X844327D01*
X844302Y269658D01*
X844227Y270530D01*
X844102Y271299D01*
X843927Y271966D01*
X843703Y272530D01*
X843428Y272992D01*
X843104Y273351D01*
X842729Y273607D01*
X842305Y273761D01*
X841831Y273812D01*
X851823D01*
X851348Y273761D01*
D02*
G37*
G36*
X750123Y267129D02*
X750402Y267031D01*
X750764Y266944D01*
X751212Y266869D01*
X752362Y266753D01*
X753850Y266683D01*
X755677Y266660D01*
Y261660D01*
X754722Y261654D01*
X750764Y261376D01*
X750402Y261289D01*
X750123Y261191D01*
X749930Y261080D01*
Y267239D01*
X750123Y267129D01*
D02*
G37*
G36*
X927000Y263284D02*
X927019Y262657D01*
X927075Y262054D01*
X927168Y261476D01*
X927299Y260922D01*
X927467Y260392D01*
X927673Y259887D01*
X927916Y259405D01*
X928197Y258948D01*
X928515Y258515D01*
X928870Y258106D01*
X919987Y258456D01*
X920369Y258835D01*
X920712Y259241D01*
X921014Y259676D01*
X921275Y260138D01*
X921497Y260628D01*
X921678Y261147D01*
X921819Y261693D01*
X921919Y262267D01*
X921980Y262868D01*
X922000Y263498D01*
X927000Y263284D01*
D02*
G37*
G36*
X908266Y255347D02*
X908342Y254227D01*
X908377Y254025D01*
X908419Y253854D01*
X908466Y253714D01*
X908520Y253605D01*
X908580Y253527D01*
X904136D01*
X904196Y253605D01*
X904250Y253714D01*
X904297Y253854D01*
X904339Y254025D01*
X904374Y254227D01*
X904424Y254725D01*
X904450Y255347D01*
X904453Y255705D01*
X908263D01*
X908266Y255347D01*
D02*
G37*
G36*
X904091Y249037D02*
X904013Y249098D01*
X903904Y249152D01*
X903764Y249199D01*
X903593Y249241D01*
X903391Y249276D01*
X902893Y249326D01*
X902271Y249352D01*
X901913Y249355D01*
Y253165D01*
X902271Y253168D01*
X903391Y253244D01*
X903593Y253279D01*
X903764Y253321D01*
X903904Y253368D01*
X904013Y253422D01*
X904091Y253482D01*
Y249037D01*
D02*
G37*
G36*
X750123Y254429D02*
X750402Y254331D01*
X750764Y254244D01*
X751212Y254169D01*
X752362Y254053D01*
X753850Y253983D01*
X755677Y253960D01*
Y248960D01*
X754722Y248954D01*
X750764Y248676D01*
X750402Y248589D01*
X750123Y248491D01*
X749930Y248381D01*
Y254540D01*
X750123Y254429D01*
D02*
G37*
G36*
X885876Y254694D02*
X886011Y254373D01*
X886234Y254090D01*
X886547Y253845D01*
X886949Y253637D01*
X887441Y253467D01*
X888023Y253335D01*
X888693Y253241D01*
X889453Y253184D01*
X890303Y253165D01*
Y249355D01*
X889453Y249336D01*
X888023Y249185D01*
X887441Y249053D01*
X886949Y248883D01*
X886547Y248675D01*
X886234Y248430D01*
X886011Y248147D01*
X885876Y247826D01*
X885832Y247467D01*
Y255053D01*
X885876Y254694D01*
D02*
G37*
G36*
X840549Y254854D02*
X840843Y254624D01*
X841214Y254422D01*
X841661Y254246D01*
X842185Y254097D01*
X842784Y253976D01*
X843459Y253881D01*
X845039Y253773D01*
X845943Y253760D01*
Y248760D01*
X845039Y248746D01*
X843459Y248638D01*
X842784Y248544D01*
X842185Y248423D01*
X841661Y248274D01*
X841214Y248098D01*
X840843Y247896D01*
X840549Y247666D01*
X840330Y247410D01*
Y255110D01*
X840549Y254854D01*
D02*
G37*
G36*
X828130Y247410D02*
X827887Y247704D01*
X827572Y247968D01*
X827186Y248200D01*
X826728Y248402D01*
X826199Y248573D01*
X825598Y248712D01*
X824925Y248820D01*
X824181Y248898D01*
X822477Y248960D01*
X822557Y253960D01*
X823313Y253976D01*
X824742Y254108D01*
X825415Y254223D01*
X826059Y254370D01*
X826676Y254551D01*
X827265Y254764D01*
X827826Y255010D01*
X828359Y255289D01*
X828864Y255601D01*
X828130Y247410D01*
D02*
G37*
G36*
X796015Y251858D02*
X796483Y251627D01*
X796993Y251424D01*
X797544Y251248D01*
X798138Y251099D01*
X798773Y250977D01*
X800167Y250814D01*
X800927Y250774D01*
X801729Y250760D01*
Y245760D01*
X800927Y245746D01*
X799449Y245638D01*
X798773Y245543D01*
X797544Y245272D01*
X796993Y245096D01*
X796483Y244893D01*
X796015Y244662D01*
X795589Y244405D01*
Y252115D01*
X796015Y251858D01*
D02*
G37*
G36*
X789052Y244405D02*
X788625Y244662D01*
X788157Y244893D01*
X787647Y245096D01*
X787096Y245272D01*
X786502Y245421D01*
X785867Y245543D01*
X784473Y245706D01*
X783713Y245746D01*
X782911Y245760D01*
Y250760D01*
X783713Y250774D01*
X785191Y250882D01*
X785867Y250977D01*
X787096Y251248D01*
X787647Y251424D01*
X788157Y251627D01*
X788625Y251858D01*
X789052Y252115D01*
Y244405D01*
D02*
G37*
G36*
X922446Y249141D02*
X928870Y249394D01*
X928515Y248985D01*
X928197Y248552D01*
X927916Y248095D01*
X927673Y247613D01*
X927467Y247108D01*
X927299Y246578D01*
X927168Y246024D01*
X927075Y245445D01*
X927019Y244843D01*
X927000Y244216D01*
X922000Y244002D01*
X921980Y244632D01*
X921919Y245233D01*
X921819Y245807D01*
X921678Y246353D01*
X921514Y246822D01*
X921083Y246607D01*
X920597Y246314D01*
X920121Y245976D01*
X919654Y245591D01*
X919196Y245161D01*
X915661Y248696D01*
X916091Y249154D01*
X916476Y249621D01*
X916814Y250097D01*
X917107Y250583D01*
X917354Y251077D01*
X917555Y251581D01*
X917710Y252094D01*
X917819Y252615D01*
X917883Y253146D01*
X917900Y253687D01*
X922446Y249141D01*
D02*
G37*
G36*
X750123Y241729D02*
X750402Y241631D01*
X750764Y241544D01*
X751212Y241469D01*
X752362Y241353D01*
X753850Y241283D01*
X755677Y241260D01*
Y236260D01*
X754722Y236254D01*
X750764Y235976D01*
X750402Y235889D01*
X750123Y235791D01*
X749930Y235681D01*
Y241840D01*
X750123Y241729D01*
D02*
G37*
G36*
X776015Y242358D02*
X776483Y242127D01*
X776993Y241924D01*
X777544Y241748D01*
X778138Y241599D01*
X778773Y241477D01*
X780167Y241314D01*
X780927Y241274D01*
X781729Y241260D01*
Y236260D01*
X780927Y236246D01*
X779449Y236138D01*
X778773Y236043D01*
X777544Y235772D01*
X776993Y235596D01*
X776483Y235393D01*
X776015Y235162D01*
X775589Y234905D01*
Y242615D01*
X776015Y242358D01*
D02*
G37*
G36*
X769052Y234905D02*
X768625Y235162D01*
X768157Y235393D01*
X767647Y235596D01*
X767096Y235772D01*
X766502Y235921D01*
X765867Y236043D01*
X764473Y236206D01*
X763713Y236246D01*
X762911Y236260D01*
Y241260D01*
X763713Y241274D01*
X765191Y241382D01*
X765867Y241477D01*
X767096Y241748D01*
X767647Y241924D01*
X768157Y242127D01*
X768625Y242358D01*
X769052Y242615D01*
Y234905D01*
D02*
G37*
G36*
X796015Y232858D02*
X796483Y232627D01*
X796993Y232424D01*
X797544Y232248D01*
X798138Y232099D01*
X798773Y231977D01*
X800167Y231814D01*
X800927Y231774D01*
X801729Y231760D01*
Y226760D01*
X800927Y226746D01*
X799449Y226638D01*
X798773Y226543D01*
X797544Y226272D01*
X796993Y226096D01*
X796483Y225893D01*
X796015Y225662D01*
X795589Y225405D01*
Y233115D01*
X796015Y232858D01*
D02*
G37*
G36*
X789052Y225405D02*
X788625Y225662D01*
X788157Y225893D01*
X787647Y226096D01*
X787096Y226272D01*
X786502Y226421D01*
X785867Y226543D01*
X784473Y226706D01*
X783713Y226746D01*
X782911Y226760D01*
Y231760D01*
X783713Y231774D01*
X785191Y231882D01*
X785867Y231977D01*
X787096Y232248D01*
X787647Y232424D01*
X788157Y232627D01*
X788625Y232858D01*
X789052Y233115D01*
Y225405D01*
D02*
G37*
G36*
X904091Y224037D02*
X904013Y224098D01*
X903904Y224152D01*
X903764Y224199D01*
X903593Y224241D01*
X903391Y224276D01*
X902893Y224326D01*
X902271Y224352D01*
X901913Y224355D01*
Y228165D01*
X902271Y228168D01*
X903391Y228244D01*
X903593Y228279D01*
X903764Y228321D01*
X903904Y228368D01*
X904013Y228422D01*
X904091Y228482D01*
Y224037D01*
D02*
G37*
G36*
X750123Y229029D02*
X750402Y228931D01*
X750764Y228844D01*
X751212Y228769D01*
X752362Y228653D01*
X753850Y228583D01*
X755677Y228560D01*
Y223560D01*
X754722Y223554D01*
X750764Y223276D01*
X750402Y223189D01*
X750123Y223091D01*
X749930Y222980D01*
Y229139D01*
X750123Y229029D01*
D02*
G37*
G36*
X885876Y229694D02*
X886011Y229373D01*
X886234Y229090D01*
X886547Y228845D01*
X886949Y228637D01*
X887441Y228467D01*
X888023Y228335D01*
X888693Y228241D01*
X889453Y228184D01*
X890303Y228165D01*
Y224355D01*
X889453Y224336D01*
X888023Y224185D01*
X887441Y224053D01*
X886949Y223883D01*
X886547Y223675D01*
X886234Y223430D01*
X886011Y223147D01*
X885876Y222826D01*
X885832Y222467D01*
Y230053D01*
X885876Y229694D01*
D02*
G37*
G36*
X840549Y229854D02*
X840843Y229624D01*
X841214Y229422D01*
X841661Y229246D01*
X842185Y229097D01*
X842784Y228976D01*
X843459Y228881D01*
X845039Y228773D01*
X845943Y228760D01*
Y223760D01*
X845039Y223746D01*
X843459Y223638D01*
X842784Y223544D01*
X842185Y223423D01*
X841661Y223274D01*
X841214Y223098D01*
X840843Y222896D01*
X840549Y222666D01*
X840330Y222410D01*
Y230110D01*
X840549Y229854D01*
D02*
G37*
G36*
X828130Y222410D02*
X827911Y222666D01*
X827617Y222896D01*
X827246Y223098D01*
X826799Y223274D01*
X826275Y223423D01*
X825676Y223544D01*
X825001Y223638D01*
X823421Y223746D01*
X822517Y223760D01*
Y228760D01*
X823421Y228773D01*
X825001Y228881D01*
X825676Y228976D01*
X826275Y229097D01*
X826799Y229246D01*
X827246Y229422D01*
X827617Y229624D01*
X827911Y229854D01*
X828130Y230110D01*
Y222410D01*
D02*
G37*
G36*
X908627Y224020D02*
X908581Y223913D01*
X908540Y223776D01*
X908504Y223606D01*
X908474Y223405D01*
X908430Y222909D01*
X908408Y222287D01*
X908405Y221928D01*
X904595Y221714D01*
X904591Y222071D01*
X904506Y223191D01*
X904467Y223393D01*
X904421Y223565D01*
X904367Y223706D01*
X904307Y223816D01*
X904239Y223895D01*
X908680Y224094D01*
X908627Y224020D01*
D02*
G37*
G36*
X859431Y208347D02*
X859506Y207475D01*
X859631Y206705D01*
X859806Y206039D01*
X860030Y205474D01*
X860305Y205013D01*
X860629Y204654D01*
X861004Y204397D01*
X861428Y204244D01*
X861902Y204192D01*
X851910D01*
X852384Y204244D01*
X852809Y204397D01*
X853183Y204654D01*
X853508Y205013D01*
X853782Y205474D01*
X854007Y206039D01*
X854182Y206705D01*
X854306Y207475D01*
X854381Y208347D01*
X854406Y209321D01*
X859406D01*
X859431Y208347D01*
D02*
G37*
G36*
X750123Y203629D02*
X750402Y203531D01*
X750764Y203444D01*
X751212Y203369D01*
X752362Y203253D01*
X753850Y203183D01*
X755677Y203160D01*
Y198160D01*
X754722Y198154D01*
X750764Y197876D01*
X750402Y197789D01*
X750123Y197691D01*
X749930Y197581D01*
Y203739D01*
X750123Y203629D01*
D02*
G37*
G36*
X894105Y201269D02*
X894222Y200946D01*
X894418Y200660D01*
X894692Y200413D01*
X895044Y200204D01*
X895475Y200033D01*
X895984Y199900D01*
X896571Y199805D01*
X897236Y199748D01*
X897980Y199729D01*
Y195919D01*
X897236Y195900D01*
X896571Y195843D01*
X895984Y195748D01*
X895475Y195615D01*
X895044Y195444D01*
X894692Y195235D01*
X894418Y194987D01*
X894222Y194702D01*
X894105Y194379D01*
X894066Y194018D01*
Y201630D01*
X894105Y201269D01*
D02*
G37*
G36*
X821473Y202090D02*
X821640Y201668D01*
X821918Y201296D01*
X822307Y200973D01*
X822807Y200700D01*
X823418Y200477D01*
X824140Y200303D01*
X824974Y200179D01*
X825918Y200104D01*
X826974Y200080D01*
Y195080D01*
X825918Y195055D01*
X824974Y194980D01*
X824140Y194856D01*
X823418Y194683D01*
X822807Y194459D01*
X822307Y194186D01*
X821918Y193864D01*
X821640Y193491D01*
X821473Y193070D01*
X821418Y192598D01*
Y202561D01*
X821473Y202090D01*
D02*
G37*
G36*
X807534Y192598D02*
X807479Y193070D01*
X807312Y193491D01*
X807034Y193864D01*
X806645Y194186D01*
X806145Y194459D01*
X805534Y194683D01*
X804812Y194856D01*
X803978Y194980D01*
X803034Y195055D01*
X801978Y195080D01*
Y200080D01*
X803034Y200104D01*
X803978Y200179D01*
X804812Y200303D01*
X805534Y200477D01*
X806145Y200700D01*
X806645Y200973D01*
X807034Y201296D01*
X807312Y201668D01*
X807479Y202090D01*
X807534Y202561D01*
Y192598D01*
D02*
G37*
G36*
X789317Y202090D02*
X789484Y201668D01*
X789762Y201296D01*
X790151Y200973D01*
X790651Y200700D01*
X791262Y200477D01*
X791984Y200303D01*
X792818Y200179D01*
X793762Y200104D01*
X794818Y200080D01*
Y195080D01*
X793762Y195055D01*
X792818Y194980D01*
X791984Y194856D01*
X791262Y194683D01*
X790651Y194459D01*
X790151Y194186D01*
X789762Y193864D01*
X789484Y193491D01*
X789317Y193070D01*
X789262Y192598D01*
Y202561D01*
X789317Y202090D01*
D02*
G37*
G36*
X775378Y192598D02*
X775323Y193070D01*
X775156Y193491D01*
X774878Y193864D01*
X774489Y194186D01*
X773989Y194459D01*
X773378Y194683D01*
X772656Y194856D01*
X771822Y194980D01*
X770878Y195055D01*
X769822Y195080D01*
Y200080D01*
X770878Y200104D01*
X771822Y200179D01*
X772656Y200303D01*
X773378Y200477D01*
X773989Y200700D01*
X774489Y200973D01*
X774878Y201296D01*
X775156Y201668D01*
X775323Y202090D01*
X775378Y202561D01*
Y192598D01*
D02*
G37*
G36*
X750123Y190929D02*
X750402Y190831D01*
X750764Y190744D01*
X751212Y190669D01*
X752362Y190553D01*
X753850Y190483D01*
X755677Y190460D01*
Y185460D01*
X754722Y185454D01*
X750764Y185176D01*
X750402Y185089D01*
X750123Y184991D01*
X749930Y184881D01*
Y191040D01*
X750123Y190929D01*
D02*
G37*
G36*
X866906Y181325D02*
Y176325D01*
X864374Y176323D01*
Y181327D01*
X866906Y181325D01*
D02*
G37*
G36*
X893669Y183335D02*
X893836Y182913D01*
X894113Y182541D01*
X894502Y182218D01*
X895003Y181945D01*
X895614Y181722D01*
X896336Y181548D01*
X897169Y181424D01*
X898114Y181350D01*
X899170Y181325D01*
Y176325D01*
X898114Y176300D01*
X897169Y176225D01*
X896336Y176101D01*
X895614Y175928D01*
X895003Y175704D01*
X894502Y175431D01*
X894113Y175109D01*
X893836Y174737D01*
X893669Y174315D01*
X893613Y173843D01*
Y183806D01*
X893669Y183335D01*
D02*
G37*
G36*
X879730Y173843D02*
X879675Y174315D01*
X879508Y174737D01*
X879230Y175109D01*
X878841Y175431D01*
X878341Y175704D01*
X877730Y175928D01*
X877008Y176101D01*
X876174Y176225D01*
X875229Y176300D01*
X874174Y176325D01*
Y181325D01*
X875229Y181350D01*
X876174Y181424D01*
X877008Y181548D01*
X877730Y181722D01*
X878341Y181945D01*
X878841Y182218D01*
X879230Y182541D01*
X879508Y182913D01*
X879675Y183335D01*
X879730Y183806D01*
Y173843D01*
D02*
G37*
G36*
X821473Y183090D02*
X821640Y182668D01*
X821918Y182296D01*
X822307Y181974D01*
X822807Y181701D01*
X823418Y181477D01*
X824140Y181304D01*
X824974Y181180D01*
X825918Y181105D01*
X826974Y181080D01*
Y176080D01*
X825918Y176056D01*
X824974Y175981D01*
X824140Y175857D01*
X823418Y175683D01*
X822807Y175460D01*
X822307Y175187D01*
X821918Y174865D01*
X821640Y174492D01*
X821473Y174070D01*
X821418Y173599D01*
Y183562D01*
X821473Y183090D01*
D02*
G37*
G36*
X807534Y173599D02*
X807479Y174070D01*
X807312Y174492D01*
X807034Y174865D01*
X806645Y175187D01*
X806145Y175460D01*
X805534Y175683D01*
X804812Y175857D01*
X803978Y175981D01*
X803034Y176056D01*
X801978Y176080D01*
Y181080D01*
X803034Y181105D01*
X803978Y181180D01*
X804812Y181304D01*
X805534Y181477D01*
X806145Y181701D01*
X806645Y181974D01*
X807034Y182296D01*
X807312Y182668D01*
X807479Y183090D01*
X807534Y183562D01*
Y173599D01*
D02*
G37*
G36*
X789317Y183090D02*
X789484Y182668D01*
X789762Y182296D01*
X790151Y181974D01*
X790651Y181701D01*
X791262Y181477D01*
X791984Y181304D01*
X792818Y181180D01*
X793762Y181105D01*
X794818Y181080D01*
Y176080D01*
X793762Y176056D01*
X792818Y175981D01*
X791984Y175857D01*
X791262Y175683D01*
X790651Y175460D01*
X790151Y175187D01*
X789762Y174865D01*
X789484Y174492D01*
X789317Y174070D01*
X789262Y173599D01*
Y183562D01*
X789317Y183090D01*
D02*
G37*
G36*
X775378Y173599D02*
X775323Y174070D01*
X775156Y174492D01*
X774878Y174865D01*
X774489Y175187D01*
X773989Y175460D01*
X773378Y175683D01*
X772656Y175857D01*
X771822Y175981D01*
X770878Y176056D01*
X769822Y176080D01*
Y181080D01*
X770878Y181105D01*
X771822Y181180D01*
X772656Y181304D01*
X773378Y181477D01*
X773989Y181701D01*
X774489Y181974D01*
X774878Y182296D01*
X775156Y182668D01*
X775323Y183090D01*
X775378Y183562D01*
Y173599D01*
D02*
G37*
G36*
X750133Y178229D02*
X750412Y178131D01*
X750775Y178044D01*
X751222Y177969D01*
X752372Y177853D01*
X753860Y177783D01*
X755687Y177760D01*
Y172760D01*
X754732Y172754D01*
X750775Y172476D01*
X750412Y172389D01*
X750133Y172291D01*
X749940Y172181D01*
Y178340D01*
X750133Y178229D01*
D02*
G37*
G36*
X927000Y157500D02*
X922000Y151465D01*
X921965Y152450D01*
X921859Y153406D01*
X921682Y154333D01*
X921434Y155230D01*
X921116Y156098D01*
X920727Y156937D01*
X920268Y157747D01*
X919737Y158527D01*
X919136Y159278D01*
X918465Y160000D01*
Y167071D01*
X919136Y166449D01*
X919737Y165998D01*
X920268Y165718D01*
X920727Y165608D01*
X921116Y165669D01*
X921434Y165901D01*
X921682Y166304D01*
X921859Y166877D01*
X921965Y167621D01*
X922000Y168535D01*
X927000Y157500D01*
D02*
G37*
G36*
X977611Y122522D02*
X976163Y122631D01*
X974868Y122377D01*
X973725Y121760D01*
X972734Y120778D01*
X971896Y119433D01*
X971210Y117724D01*
X970677Y115652D01*
X970296Y113215D01*
X970273Y112929D01*
X970834Y104977D01*
X971092Y103903D01*
X971385Y103080D01*
X971712Y102506D01*
X953030D01*
X953357Y103080D01*
X953650Y103903D01*
X953908Y104977D01*
X954131Y106301D01*
X954476Y109698D01*
X954682Y114096D01*
X954751Y119494D01*
X955175D01*
X955428Y126767D01*
X977611Y122522D01*
D02*
G37*
G36*
X1052271Y85000D02*
X1051045Y84983D01*
X1048795Y84770D01*
X1047771Y84573D01*
X1046815Y84318D01*
X1045927Y84002D01*
X1045106Y83627D01*
X1044353Y83192D01*
X1043668Y82697D01*
X1043050Y82143D01*
X1039514Y85679D01*
X1040068Y86297D01*
X1040563Y86982D01*
X1040998Y87735D01*
X1041373Y88556D01*
X1041689Y89444D01*
X1041945Y90400D01*
X1042141Y91424D01*
X1042277Y92515D01*
X1042354Y93674D01*
X1042372Y94900D01*
X1052271Y85000D01*
D02*
G37*
G36*
X1129041Y316551D02*
X1129512Y316350D01*
X1130061Y316173D01*
X1130689Y316020D01*
X1131395Y315890D01*
X1133043Y315701D01*
X1135005Y315607D01*
X1136104Y315595D01*
Y309245D01*
X1135005Y309233D01*
X1131395Y308950D01*
X1130689Y308820D01*
X1130061Y308667D01*
X1129512Y308490D01*
X1129041Y308289D01*
X1128649Y308065D01*
Y316775D01*
X1129041Y316551D01*
D02*
G37*
G36*
X1123111Y308065D02*
X1122719Y308289D01*
X1122248Y308490D01*
X1121699Y308667D01*
X1121071Y308820D01*
X1120365Y308950D01*
X1118717Y309139D01*
X1116755Y309233D01*
X1115656Y309245D01*
Y315595D01*
X1116755Y315607D01*
X1120365Y315890D01*
X1121071Y316020D01*
X1121699Y316173D01*
X1122248Y316350D01*
X1122719Y316551D01*
X1123111Y316775D01*
Y308065D01*
D02*
G37*
G36*
X1108275Y318167D02*
X1108467Y317627D01*
X1108786Y317151D01*
X1109232Y316738D01*
X1109807Y316389D01*
X1110508Y316103D01*
X1111338Y315881D01*
X1112295Y315722D01*
X1113380Y315627D01*
X1114592Y315595D01*
Y309245D01*
X1113380Y309213D01*
X1112295Y309118D01*
X1111338Y308959D01*
X1110508Y308737D01*
X1109807Y308451D01*
X1109232Y308102D01*
X1108786Y307689D01*
X1108467Y307213D01*
X1108275Y306673D01*
X1108212Y306070D01*
Y318770D01*
X1108275Y318167D01*
D02*
G37*
G36*
X1129485Y291735D02*
X1129262Y291273D01*
X1129064Y290766D01*
X1128894Y290213D01*
X1128749Y289614D01*
X1128630Y288970D01*
X1128473Y287546D01*
X1128433Y286765D01*
X1128420Y285939D01*
X1123340D01*
X1123327Y286765D01*
X1123222Y288281D01*
X1123130Y288970D01*
X1122867Y290213D01*
X1122695Y290766D01*
X1122498Y291273D01*
X1122275Y291735D01*
X1122025Y292152D01*
X1129735D01*
X1129485Y291735D01*
D02*
G37*
G36*
X1135245Y267323D02*
X1135322Y266441D01*
X1135448Y265663D01*
X1135626Y264989D01*
X1135854Y264418D01*
X1136133Y263951D01*
X1136463Y263588D01*
X1136843Y263329D01*
X1137274Y263173D01*
X1137756Y263121D01*
X1127604D01*
X1128086Y263173D01*
X1128517Y263329D01*
X1128897Y263588D01*
X1129227Y263951D01*
X1129506Y264418D01*
X1129734Y264989D01*
X1129912Y265663D01*
X1130039Y266441D01*
X1130115Y267323D01*
X1130140Y268308D01*
X1135220D01*
X1135245Y267323D01*
D02*
G37*
G36*
X1168387Y268283D02*
X1168482Y267125D01*
X1168640Y266103D01*
X1168861Y265217D01*
X1169146Y264467D01*
X1169494Y263854D01*
X1169905Y263377D01*
X1170379Y263036D01*
X1170917Y262831D01*
X1171518Y262763D01*
X1158842D01*
X1159443Y262831D01*
X1159980Y263036D01*
X1160455Y263377D01*
X1160866Y263854D01*
X1161214Y264467D01*
X1161499Y265217D01*
X1161720Y266103D01*
X1161878Y267125D01*
X1161973Y268283D01*
X1162005Y269578D01*
X1168355D01*
X1168387Y268283D01*
D02*
G37*
G36*
X1123702Y245140D02*
X1123651Y245623D01*
X1123498Y246054D01*
X1123242Y246435D01*
X1122885Y246766D01*
X1122425Y247045D01*
X1121863Y247274D01*
X1121198Y247451D01*
X1120432Y247578D01*
X1119563Y247655D01*
X1118592Y247680D01*
Y252760D01*
X1119563Y252785D01*
X1120432Y252862D01*
X1121198Y252989D01*
X1121863Y253166D01*
X1122425Y253395D01*
X1122885Y253674D01*
X1123242Y254005D01*
X1123498Y254386D01*
X1123651Y254817D01*
X1123702Y255300D01*
Y245140D01*
D02*
G37*
G36*
X1108263Y254817D02*
X1108416Y254386D01*
X1108671Y254005D01*
X1109029Y253674D01*
X1109489Y253395D01*
X1110051Y253166D01*
X1110716Y252989D01*
X1111482Y252862D01*
X1112351Y252785D01*
X1113322Y252760D01*
Y247680D01*
X1112351Y247655D01*
X1111482Y247578D01*
X1110716Y247451D01*
X1110051Y247274D01*
X1109489Y247045D01*
X1109029Y246766D01*
X1108671Y246435D01*
X1108416Y246054D01*
X1108263Y245623D01*
X1108212Y245140D01*
Y255300D01*
X1108263Y254817D01*
D02*
G37*
G36*
X1137274Y237267D02*
X1136843Y237111D01*
X1136463Y236852D01*
X1136133Y236489D01*
X1135854Y236022D01*
X1135626Y235451D01*
X1135448Y234777D01*
X1135322Y233999D01*
X1135245Y233117D01*
X1135220Y232132D01*
X1130140D01*
X1130115Y233117D01*
X1130039Y233999D01*
X1129912Y234777D01*
X1129734Y235451D01*
X1129506Y236022D01*
X1129227Y236489D01*
X1128897Y236852D01*
X1128517Y237111D01*
X1128086Y237267D01*
X1127604Y237318D01*
X1137756D01*
X1137274Y237267D01*
D02*
G37*
G36*
X1170917Y237609D02*
X1170379Y237404D01*
X1169905Y237063D01*
X1169494Y236586D01*
X1169146Y235973D01*
X1168861Y235223D01*
X1168640Y234338D01*
X1168482Y233315D01*
X1168387Y232157D01*
X1168355Y230862D01*
X1162005D01*
X1161973Y232157D01*
X1161878Y233315D01*
X1161720Y234338D01*
X1161499Y235223D01*
X1161214Y235973D01*
X1160866Y236586D01*
X1160455Y237063D01*
X1159980Y237404D01*
X1159443Y237609D01*
X1158842Y237677D01*
X1171518D01*
X1170917Y237609D01*
D02*
G37*
G36*
X1135245Y228518D02*
X1135322Y227636D01*
X1135448Y226858D01*
X1135626Y226184D01*
X1135854Y225613D01*
X1136133Y225146D01*
X1136463Y224783D01*
X1136843Y224524D01*
X1137274Y224368D01*
X1137756Y224317D01*
X1127604D01*
X1128086Y224368D01*
X1128517Y224524D01*
X1128897Y224783D01*
X1129227Y225146D01*
X1129506Y225613D01*
X1129734Y226184D01*
X1129912Y226858D01*
X1130039Y227636D01*
X1130115Y228518D01*
X1130140Y229503D01*
X1135220D01*
X1135245Y228518D01*
D02*
G37*
G36*
X1168387Y229478D02*
X1168482Y228320D01*
X1168640Y227297D01*
X1168861Y226412D01*
X1169146Y225662D01*
X1169494Y225049D01*
X1169905Y224572D01*
X1170379Y224231D01*
X1170917Y224027D01*
X1171518Y223958D01*
X1158842D01*
X1159443Y224027D01*
X1159980Y224231D01*
X1160455Y224572D01*
X1160866Y225049D01*
X1161214Y225662D01*
X1161499Y226412D01*
X1161720Y227297D01*
X1161878Y228320D01*
X1161973Y229478D01*
X1162005Y230773D01*
X1168355D01*
X1168387Y229478D01*
D02*
G37*
G36*
X1031471Y201016D02*
X1031595Y201485D01*
X1031579Y201926D01*
X1031425Y202337D01*
X1031131Y202721D01*
X1030699Y203076D01*
X1030127Y203402D01*
X1029416Y203700D01*
X1028566Y203969D01*
X1027577Y204210D01*
X1026449Y204422D01*
X1027667Y209419D01*
X1028493Y209307D01*
X1029305Y209246D01*
X1030103Y209235D01*
X1030887Y209275D01*
X1031657Y209366D01*
X1032413Y209508D01*
X1033156Y209701D01*
X1033884Y209944D01*
X1034598Y210239D01*
X1035298Y210584D01*
X1031471Y201016D01*
D02*
G37*
G36*
X1011290Y211607D02*
X1011443Y211176D01*
X1011698Y210795D01*
X1012056Y210464D01*
X1012516Y210185D01*
X1013078Y209956D01*
X1013743Y209779D01*
X1014509Y209652D01*
X1015378Y209575D01*
X1016349Y209550D01*
Y204470D01*
X1015378Y204445D01*
X1014509Y204368D01*
X1013743Y204241D01*
X1013078Y204064D01*
X1012516Y203835D01*
X1012056Y203556D01*
X1011698Y203225D01*
X1011443Y202844D01*
X1011290Y202413D01*
X1011238Y201930D01*
Y212090D01*
X1011290Y211607D01*
D02*
G37*
G36*
X1081872Y202218D02*
X1082171Y201983D01*
X1082547Y201776D01*
X1082998Y201597D01*
X1083526Y201445D01*
X1084130Y201321D01*
X1084811Y201224D01*
X1086401Y201114D01*
X1087310Y201100D01*
Y196020D01*
X1086401Y196006D01*
X1084811Y195896D01*
X1084130Y195799D01*
X1083526Y195675D01*
X1082998Y195523D01*
X1082547Y195344D01*
X1082171Y195137D01*
X1081872Y194902D01*
X1081650Y194640D01*
Y202480D01*
X1081872Y202218D01*
D02*
G37*
G36*
X1074810Y194640D02*
X1074587Y194902D01*
X1074289Y195137D01*
X1073913Y195344D01*
X1073462Y195523D01*
X1072934Y195675D01*
X1072330Y195799D01*
X1071649Y195896D01*
X1070059Y196006D01*
X1069150Y196020D01*
Y201100D01*
X1070059Y201114D01*
X1071649Y201224D01*
X1072330Y201321D01*
X1072934Y201445D01*
X1073462Y201597D01*
X1073913Y201776D01*
X1074289Y201983D01*
X1074587Y202218D01*
X1074810Y202480D01*
Y194640D01*
D02*
G37*
G36*
X1094651Y193480D02*
X1094600Y193963D01*
X1094447Y194394D01*
X1094191Y194775D01*
X1093833Y195106D01*
X1093373Y195385D01*
X1092811Y195614D01*
X1092147Y195791D01*
X1091380Y195918D01*
X1090511Y195995D01*
X1089540Y196020D01*
Y201100D01*
X1090511Y201125D01*
X1091380Y201202D01*
X1092147Y201329D01*
X1092811Y201506D01*
X1093373Y201735D01*
X1093833Y202014D01*
X1094191Y202345D01*
X1094447Y202726D01*
X1094600Y203157D01*
X1094651Y203640D01*
Y193480D01*
D02*
G37*
G36*
X1056460Y203157D02*
X1056614Y202726D01*
X1056869Y202345D01*
X1057227Y202014D01*
X1057687Y201735D01*
X1058249Y201506D01*
X1058913Y201329D01*
X1059680Y201202D01*
X1060549Y201125D01*
X1061520Y201100D01*
Y196020D01*
X1060549Y195995D01*
X1059680Y195918D01*
X1058913Y195791D01*
X1058249Y195614D01*
X1057687Y195385D01*
X1057227Y195106D01*
X1056869Y194775D01*
X1056614Y194394D01*
X1056460Y193963D01*
X1056409Y193480D01*
Y203640D01*
X1056460Y203157D01*
D02*
G37*
G36*
X1137274Y198462D02*
X1136843Y198306D01*
X1136463Y198047D01*
X1136133Y197684D01*
X1135854Y197217D01*
X1135626Y196646D01*
X1135448Y195972D01*
X1135322Y195194D01*
X1135245Y194312D01*
X1135220Y193327D01*
X1130140D01*
X1130115Y194312D01*
X1130039Y195194D01*
X1129912Y195972D01*
X1129734Y196646D01*
X1129506Y197217D01*
X1129227Y197684D01*
X1128897Y198047D01*
X1128517Y198306D01*
X1128086Y198462D01*
X1127604Y198514D01*
X1137756D01*
X1137274Y198462D01*
D02*
G37*
G36*
X1170917Y198804D02*
X1170379Y198599D01*
X1169905Y198258D01*
X1169494Y197781D01*
X1169146Y197168D01*
X1168861Y196418D01*
X1168640Y195532D01*
X1168482Y194510D01*
X1168387Y193352D01*
X1168355Y192057D01*
X1162005D01*
X1161973Y193352D01*
X1161878Y194510D01*
X1161720Y195532D01*
X1161499Y196418D01*
X1161214Y197168D01*
X1160866Y197781D01*
X1160455Y198258D01*
X1159980Y198599D01*
X1159443Y198804D01*
X1158842Y198872D01*
X1171518D01*
X1170917Y198804D01*
D02*
G37*
G36*
X1135245Y189713D02*
X1135322Y188831D01*
X1135448Y188053D01*
X1135626Y187379D01*
X1135854Y186808D01*
X1136133Y186341D01*
X1136463Y185978D01*
X1136843Y185719D01*
X1137274Y185563D01*
X1137756Y185511D01*
X1127604D01*
X1128086Y185563D01*
X1128517Y185719D01*
X1128897Y185978D01*
X1129227Y186341D01*
X1129506Y186808D01*
X1129734Y187379D01*
X1129912Y188053D01*
X1130039Y188831D01*
X1130115Y189713D01*
X1130140Y190698D01*
X1135220D01*
X1135245Y189713D01*
D02*
G37*
G36*
X1168387Y190673D02*
X1168482Y189515D01*
X1168640Y188493D01*
X1168861Y187607D01*
X1169146Y186857D01*
X1169494Y186244D01*
X1169905Y185767D01*
X1170379Y185426D01*
X1170917Y185221D01*
X1171518Y185153D01*
X1158842D01*
X1159443Y185221D01*
X1159980Y185426D01*
X1160455Y185767D01*
X1160866Y186244D01*
X1161214Y186857D01*
X1161499Y187607D01*
X1161720Y188493D01*
X1161878Y189515D01*
X1161973Y190673D01*
X1162005Y191968D01*
X1168355D01*
X1168387Y190673D01*
D02*
G37*
G36*
X1081835Y177875D02*
X1081612Y177413D01*
X1081414Y176906D01*
X1081244Y176353D01*
X1081099Y175754D01*
X1080980Y175110D01*
X1080823Y173686D01*
X1080783Y172905D01*
X1080770Y172079D01*
X1075690D01*
X1075677Y172905D01*
X1075572Y174421D01*
X1075480Y175110D01*
X1075217Y176353D01*
X1075045Y176906D01*
X1074848Y177413D01*
X1074625Y177875D01*
X1074375Y178291D01*
X1082085D01*
X1081835Y177875D01*
D02*
G37*
G36*
X1186338Y167438D02*
X1186083Y167707D01*
X1185781Y167948D01*
X1185431Y168161D01*
X1185034Y168345D01*
X1184590Y168501D01*
X1184098Y168628D01*
X1183558Y168727D01*
X1182971Y168798D01*
X1182336Y168841D01*
X1181654Y168855D01*
X1182329Y175205D01*
X1183015Y175216D01*
X1184251Y175303D01*
X1184801Y175379D01*
X1185306Y175476D01*
X1185765Y175596D01*
X1186179Y175737D01*
X1186548Y175900D01*
X1186872Y176084D01*
X1187150Y176291D01*
X1186338Y167438D01*
D02*
G37*
G36*
X1174221Y177777D02*
X1174413Y177237D01*
X1174732Y176761D01*
X1175178Y176348D01*
X1175753Y175999D01*
X1176454Y175713D01*
X1177284Y175491D01*
X1178241Y175332D01*
X1179326Y175237D01*
X1180538Y175205D01*
Y168855D01*
X1179326Y168823D01*
X1178241Y168728D01*
X1177284Y168569D01*
X1176454Y168347D01*
X1175753Y168061D01*
X1175178Y167712D01*
X1174732Y167299D01*
X1174413Y166823D01*
X1174221Y166283D01*
X1174158Y165680D01*
Y178380D01*
X1174221Y177777D01*
D02*
G37*
G36*
X1137274Y159657D02*
X1136843Y159501D01*
X1136463Y159242D01*
X1136133Y158879D01*
X1135854Y158412D01*
X1135626Y157841D01*
X1135448Y157167D01*
X1135322Y156389D01*
X1135245Y155507D01*
X1135220Y154522D01*
X1130140D01*
X1130115Y155507D01*
X1130039Y156389D01*
X1129912Y157167D01*
X1129734Y157841D01*
X1129506Y158412D01*
X1129227Y158879D01*
X1128897Y159242D01*
X1128517Y159501D01*
X1128086Y159657D01*
X1127604Y159708D01*
X1137756D01*
X1137274Y159657D01*
D02*
G37*
G36*
X1170917Y159999D02*
X1170379Y159794D01*
X1169905Y159453D01*
X1169494Y158976D01*
X1169146Y158363D01*
X1168861Y157613D01*
X1168640Y156727D01*
X1168482Y155705D01*
X1168387Y154547D01*
X1168355Y153252D01*
X1162005D01*
X1161973Y154547D01*
X1161878Y155705D01*
X1161720Y156727D01*
X1161499Y157613D01*
X1161214Y158363D01*
X1160866Y158976D01*
X1160455Y159453D01*
X1159980Y159794D01*
X1159443Y159999D01*
X1158842Y160067D01*
X1171518D01*
X1170917Y159999D01*
D02*
G37*
G36*
X1135245Y150908D02*
X1135322Y150026D01*
X1135448Y149248D01*
X1135626Y148574D01*
X1135854Y148003D01*
X1136133Y147536D01*
X1136463Y147173D01*
X1136843Y146914D01*
X1137274Y146758D01*
X1137756Y146706D01*
X1127604D01*
X1128086Y146758D01*
X1128517Y146914D01*
X1128897Y147173D01*
X1129227Y147536D01*
X1129506Y148003D01*
X1129734Y148574D01*
X1129912Y149248D01*
X1130039Y150026D01*
X1130115Y150908D01*
X1130140Y151893D01*
X1135220D01*
X1135245Y150908D01*
D02*
G37*
G36*
X1168387Y151868D02*
X1168482Y150710D01*
X1168640Y149688D01*
X1168861Y148802D01*
X1169146Y148052D01*
X1169494Y147439D01*
X1169905Y146962D01*
X1170379Y146621D01*
X1170917Y146416D01*
X1171518Y146348D01*
X1158842D01*
X1159443Y146416D01*
X1159980Y146621D01*
X1160455Y146962D01*
X1160866Y147439D01*
X1161214Y148052D01*
X1161499Y148802D01*
X1161720Y149688D01*
X1161878Y150710D01*
X1161973Y151868D01*
X1162005Y153163D01*
X1168355D01*
X1168387Y151868D01*
D02*
G37*
G36*
X1080770Y142022D02*
X1080804Y141023D01*
X1080906Y140057D01*
X1081076Y139126D01*
X1081313Y138227D01*
X1081619Y137363D01*
X1081993Y136532D01*
X1082434Y135735D01*
X1082944Y134971D01*
X1083522Y134241D01*
X1084167Y133545D01*
X1078230Y135890D01*
X1072098Y145614D01*
X1072780Y144983D01*
X1073391Y144524D01*
X1073930Y144239D01*
X1074397Y144128D01*
X1074792Y144190D01*
X1075115Y144426D01*
X1075367Y144835D01*
X1075546Y145417D01*
X1075654Y146173D01*
X1075690Y147102D01*
X1080770Y142022D01*
D02*
G37*
G36*
X1056460Y150647D02*
X1056614Y150216D01*
X1056869Y149835D01*
X1057227Y149504D01*
X1057687Y149225D01*
X1058249Y148996D01*
X1058913Y148819D01*
X1059680Y148692D01*
X1060549Y148615D01*
X1061520Y148590D01*
Y143510D01*
X1060549Y143485D01*
X1059680Y143408D01*
X1058913Y143281D01*
X1058249Y143104D01*
X1057687Y142875D01*
X1057227Y142596D01*
X1056869Y142265D01*
X1056614Y141884D01*
X1056460Y141453D01*
X1056409Y140970D01*
Y151130D01*
X1056460Y150647D01*
D02*
G37*
G36*
X1137274Y120852D02*
X1136843Y120696D01*
X1136463Y120437D01*
X1136133Y120074D01*
X1135854Y119607D01*
X1135626Y119036D01*
X1135448Y118362D01*
X1135322Y117584D01*
X1135245Y116702D01*
X1135220Y115717D01*
X1130140D01*
X1130115Y116702D01*
X1130039Y117584D01*
X1129912Y118362D01*
X1129734Y119036D01*
X1129506Y119607D01*
X1129227Y120074D01*
X1128897Y120437D01*
X1128517Y120696D01*
X1128086Y120852D01*
X1127604Y120904D01*
X1137756D01*
X1137274Y120852D01*
D02*
G37*
G36*
X1170917Y121194D02*
X1170379Y120989D01*
X1169905Y120648D01*
X1169494Y120171D01*
X1169146Y119558D01*
X1168861Y118808D01*
X1168640Y117922D01*
X1168482Y116900D01*
X1168387Y115742D01*
X1168355Y114447D01*
X1162005D01*
X1161973Y115742D01*
X1161878Y116900D01*
X1161720Y117922D01*
X1161499Y118808D01*
X1161214Y119558D01*
X1160866Y120171D01*
X1160455Y120648D01*
X1159980Y120989D01*
X1159443Y121194D01*
X1158842Y121262D01*
X1171518D01*
X1170917Y121194D01*
D02*
G37*
G36*
X1135245Y112103D02*
X1135322Y111221D01*
X1135448Y110443D01*
X1135626Y109769D01*
X1135854Y109198D01*
X1136133Y108731D01*
X1136463Y108368D01*
X1136843Y108109D01*
X1137274Y107953D01*
X1137756Y107901D01*
X1127604D01*
X1128086Y107953D01*
X1128517Y108109D01*
X1128897Y108368D01*
X1129227Y108731D01*
X1129506Y109198D01*
X1129734Y109769D01*
X1129912Y110443D01*
X1130039Y111221D01*
X1130115Y112103D01*
X1130140Y113088D01*
X1135220D01*
X1135245Y112103D01*
D02*
G37*
G36*
X1168387Y113063D02*
X1168482Y111905D01*
X1168640Y110883D01*
X1168861Y109997D01*
X1169146Y109247D01*
X1169494Y108634D01*
X1169905Y108157D01*
X1170379Y107816D01*
X1170917Y107611D01*
X1171518Y107543D01*
X1158842D01*
X1159443Y107611D01*
X1159980Y107816D01*
X1160455Y108157D01*
X1160866Y108634D01*
X1161214Y109247D01*
X1161499Y109997D01*
X1161720Y110883D01*
X1161878Y111905D01*
X1161973Y113063D01*
X1162005Y114358D01*
X1168355D01*
X1168387Y113063D01*
D02*
G37*
G36*
X1084956Y109838D02*
X1085089Y109000D01*
X1085312Y108158D01*
X1085625Y107311D01*
X1086026Y106460D01*
X1086517Y105605D01*
X1087096Y104745D01*
X1087765Y103882D01*
X1088524Y103014D01*
X1089371Y102141D01*
X1075371D01*
X1076218Y103014D01*
X1076977Y103882D01*
X1077646Y104745D01*
X1078225Y105605D01*
X1078716Y106460D01*
X1079117Y107311D01*
X1079430Y108158D01*
X1079653Y109000D01*
X1079786Y109838D01*
X1079831Y110672D01*
X1084911D01*
X1084956Y109838D01*
D02*
G37*
G36*
X1123702Y89920D02*
X1123651Y90403D01*
X1123498Y90834D01*
X1123242Y91215D01*
X1122885Y91546D01*
X1122425Y91825D01*
X1121863Y92054D01*
X1121198Y92231D01*
X1120432Y92358D01*
X1119563Y92435D01*
X1118592Y92460D01*
Y97540D01*
X1119563Y97565D01*
X1120432Y97642D01*
X1121198Y97769D01*
X1121863Y97946D01*
X1122425Y98175D01*
X1122885Y98454D01*
X1123242Y98785D01*
X1123498Y99166D01*
X1123651Y99597D01*
X1123702Y100080D01*
Y89920D01*
D02*
G37*
G36*
X1090385Y101153D02*
X1091253Y100394D01*
X1092116Y99725D01*
X1092976Y99146D01*
X1093831Y98655D01*
X1094682Y98254D01*
X1095528Y97941D01*
X1096371Y97718D01*
X1097209Y97585D01*
X1098043Y97540D01*
Y92460D01*
X1097209Y92415D01*
X1096371Y92282D01*
X1095528Y92059D01*
X1094682Y91746D01*
X1093831Y91345D01*
X1092976Y90854D01*
X1092116Y90275D01*
X1091253Y89606D01*
X1090385Y88847D01*
X1089512Y88000D01*
Y102000D01*
X1090385Y101153D01*
D02*
G37*
G36*
X1106837Y161057D02*
X1106297Y160866D01*
X1105821Y160547D01*
X1105408Y160100D01*
X1105059Y159526D01*
X1104773Y158824D01*
X1104551Y157994D01*
X1104392Y157037D01*
X1104297Y155953D01*
X1104265Y154740D01*
X1097915D01*
X1097883Y155953D01*
X1097788Y157037D01*
X1097629Y157994D01*
X1097407Y158824D01*
X1097121Y159526D01*
X1096772Y160100D01*
X1096359Y160547D01*
X1095883Y160866D01*
X1095343Y161057D01*
X1094740Y161121D01*
X1107440D01*
X1106837Y161057D01*
D02*
G37*
G36*
X1104278Y148326D02*
X1104379Y147097D01*
X1104468Y146551D01*
X1104583Y146051D01*
X1104722Y145596D01*
X1104887Y145187D01*
X1105078Y144824D01*
X1105294Y144507D01*
X1105535Y144235D01*
X1096645D01*
X1096886Y144507D01*
X1097102Y144824D01*
X1097293Y145187D01*
X1097458Y145596D01*
X1097598Y146051D01*
X1097712Y146551D01*
X1097801Y147097D01*
X1097864Y147689D01*
X1097915Y149009D01*
X1104265D01*
X1104278Y148326D01*
D02*
G37*
%LPC*%
G36*
X872721Y556510D02*
X870125Y555814D01*
X866818Y553905D01*
X864118Y551205D01*
X862210Y547899D01*
X862091Y547456D01*
X860728Y547277D01*
X859524Y549363D01*
X857383Y551504D01*
X854760Y553018D01*
X851835Y553802D01*
X848807D01*
X845883Y553018D01*
X843260Y551504D01*
X841119Y549363D01*
X839605Y546741D01*
X838821Y543816D01*
Y540788D01*
X839605Y537863D01*
X841119Y535241D01*
X843260Y533100D01*
X845883Y531586D01*
X848807Y530802D01*
X851835D01*
X854760Y531586D01*
X857383Y533100D01*
X859524Y535241D01*
X860728Y537327D01*
X862091Y537148D01*
X862210Y536705D01*
X864118Y533399D01*
X866818Y530699D01*
X870125Y528790D01*
X872721Y528094D01*
Y542302D01*
Y556510D01*
D02*
G37*
G36*
X953435Y553802D02*
X950407D01*
X947483Y553018D01*
X944860Y551504D01*
X942719Y549363D01*
X941205Y546741D01*
X940421Y543816D01*
Y540788D01*
X941205Y537863D01*
X942719Y535241D01*
X944860Y533100D01*
X947483Y531586D01*
X950407Y530802D01*
X953435D01*
X956360Y531586D01*
X958983Y533100D01*
X961124Y535241D01*
X962638Y537863D01*
X963421Y540788D01*
Y543816D01*
X962638Y546741D01*
X961124Y549363D01*
X958983Y551504D01*
X956360Y553018D01*
X953435Y553802D01*
D02*
G37*
G36*
X928035D02*
X925007D01*
X922083Y553018D01*
X919460Y551504D01*
X917319Y549363D01*
X915805Y546741D01*
X915021Y543816D01*
Y540788D01*
X915805Y537863D01*
X917319Y535241D01*
X919460Y533100D01*
X922083Y531586D01*
X925007Y530802D01*
X928035D01*
X930960Y531586D01*
X933583Y533100D01*
X935724Y535241D01*
X937238Y537863D01*
X938021Y540788D01*
Y543816D01*
X937238Y546741D01*
X935724Y549363D01*
X933583Y551504D01*
X930960Y553018D01*
X928035Y553802D01*
D02*
G37*
G36*
X878721Y556510D02*
Y542302D01*
Y528094D01*
X881318Y528790D01*
X884625Y530699D01*
X887324Y533399D01*
X889233Y536705D01*
X889352Y537148D01*
X890715Y537327D01*
X891919Y535241D01*
X894060Y533100D01*
X896683Y531586D01*
X899607Y530802D01*
X902635D01*
X905560Y531586D01*
X908183Y533100D01*
X910324Y535241D01*
X911838Y537863D01*
X912621Y540788D01*
Y543816D01*
X911838Y546741D01*
X910324Y549363D01*
X908183Y551504D01*
X905560Y553018D01*
X902635Y553802D01*
X899607D01*
X896683Y553018D01*
X894060Y551504D01*
X891919Y549363D01*
X890715Y547277D01*
X889352Y547456D01*
X889233Y547899D01*
X887324Y551205D01*
X884625Y553905D01*
X881318Y555814D01*
X878721Y556510D01*
D02*
G37*
G36*
X826435Y553802D02*
X823407D01*
X820483Y553018D01*
X817860Y551504D01*
X815719Y549363D01*
X814205Y546741D01*
X813421Y543816D01*
Y540788D01*
X814205Y537863D01*
X815719Y535241D01*
X817860Y533100D01*
X820483Y531586D01*
X823407Y530802D01*
X826435D01*
X829360Y531586D01*
X831983Y533100D01*
X834124Y535241D01*
X835638Y537863D01*
X836421Y540788D01*
Y543816D01*
X835638Y546741D01*
X834124Y549363D01*
X831983Y551504D01*
X829360Y553018D01*
X826435Y553802D01*
D02*
G37*
G36*
X801035D02*
X798007D01*
X795083Y553018D01*
X792460Y551504D01*
X790319Y549363D01*
X788805Y546741D01*
X788021Y543816D01*
Y540788D01*
X788805Y537863D01*
X790319Y535241D01*
X792460Y533100D01*
X795083Y531586D01*
X798007Y530802D01*
X801035D01*
X803960Y531586D01*
X806583Y533100D01*
X808724Y535241D01*
X810238Y537863D01*
X811021Y540788D01*
Y543816D01*
X810238Y546741D01*
X808724Y549363D01*
X806583Y551504D01*
X803960Y553018D01*
X801035Y553802D01*
D02*
G37*
G36*
X775635D02*
X772607D01*
X769683Y553018D01*
X767060Y551504D01*
X764919Y549363D01*
X763405Y546741D01*
X762621Y543816D01*
Y540788D01*
X763405Y537863D01*
X764919Y535241D01*
X767060Y533100D01*
X769683Y531586D01*
X772607Y530802D01*
X775635D01*
X778560Y531586D01*
X781183Y533100D01*
X783324Y535241D01*
X784838Y537863D01*
X785621Y540788D01*
Y543816D01*
X784838Y546741D01*
X783324Y549363D01*
X781183Y551504D01*
X778560Y553018D01*
X775635Y553802D01*
D02*
G37*
G36*
X750235D02*
X747207D01*
X744283Y553018D01*
X741660Y551504D01*
X739519Y549363D01*
X738005Y546741D01*
X737221Y543816D01*
Y540788D01*
X738005Y537863D01*
X739519Y535241D01*
X741660Y533100D01*
X744283Y531586D01*
X747207Y530802D01*
X750235D01*
X753160Y531586D01*
X755783Y533100D01*
X757924Y535241D01*
X759438Y537863D01*
X760221Y540788D01*
Y543816D01*
X759438Y546741D01*
X757924Y549363D01*
X755783Y551504D01*
X753160Y553018D01*
X750235Y553802D01*
D02*
G37*
G36*
X724835D02*
X721807D01*
X718883Y553018D01*
X716260Y551504D01*
X714119Y549363D01*
X712605Y546741D01*
X711821Y543816D01*
Y540788D01*
X712605Y537863D01*
X714119Y535241D01*
X716260Y533100D01*
X718883Y531586D01*
X721807Y530802D01*
X724835D01*
X727760Y531586D01*
X730383Y533100D01*
X732524Y535241D01*
X734038Y537863D01*
X734821Y540788D01*
Y543816D01*
X734038Y546741D01*
X732524Y549363D01*
X730383Y551504D01*
X727760Y553018D01*
X724835Y553802D01*
D02*
G37*
G36*
X684551D02*
X681523D01*
X678599Y553018D01*
X675976Y551504D01*
X673835Y549363D01*
X672321Y546741D01*
X671537Y543816D01*
Y540788D01*
X672321Y537863D01*
X673835Y535241D01*
X675976Y533100D01*
X678599Y531586D01*
X681523Y530802D01*
X684551D01*
X687476Y531586D01*
X690099Y533100D01*
X692240Y535241D01*
X693754Y537863D01*
X694537Y540788D01*
Y543816D01*
X693754Y546741D01*
X692240Y549363D01*
X690099Y551504D01*
X687476Y553018D01*
X684551Y553802D01*
D02*
G37*
G36*
X659151D02*
X656123D01*
X653199Y553018D01*
X650576Y551504D01*
X648435Y549363D01*
X646921Y546741D01*
X646137Y543816D01*
Y540788D01*
X646921Y537863D01*
X648435Y535241D01*
X650576Y533100D01*
X653199Y531586D01*
X656123Y530802D01*
X659151D01*
X662076Y531586D01*
X664699Y533100D01*
X666840Y535241D01*
X668354Y537863D01*
X669137Y540788D01*
Y543816D01*
X668354Y546741D01*
X666840Y549363D01*
X664699Y551504D01*
X662076Y553018D01*
X659151Y553802D01*
D02*
G37*
G36*
X633751D02*
X630723D01*
X627799Y553018D01*
X625176Y551504D01*
X623035Y549363D01*
X621521Y546741D01*
X620737Y543816D01*
Y540788D01*
X621521Y537863D01*
X623035Y535241D01*
X625176Y533100D01*
X627799Y531586D01*
X630723Y530802D01*
X633751D01*
X636676Y531586D01*
X639299Y533100D01*
X641440Y535241D01*
X642954Y537863D01*
X643737Y540788D01*
Y543816D01*
X642954Y546741D01*
X641440Y549363D01*
X639299Y551504D01*
X636676Y553018D01*
X633751Y553802D01*
D02*
G37*
G36*
X608351D02*
X605323D01*
X602399Y553018D01*
X599776Y551504D01*
X597635Y549363D01*
X596121Y546741D01*
X595337Y543816D01*
Y540788D01*
X596121Y537863D01*
X597635Y535241D01*
X599776Y533100D01*
X602399Y531586D01*
X605323Y530802D01*
X608351D01*
X611276Y531586D01*
X613899Y533100D01*
X616040Y535241D01*
X617554Y537863D01*
X618337Y540788D01*
Y543816D01*
X617554Y546741D01*
X616040Y549363D01*
X613899Y551504D01*
X611276Y553018D01*
X608351Y553802D01*
D02*
G37*
G36*
X582951D02*
X579923D01*
X576999Y553018D01*
X574376Y551504D01*
X572235Y549363D01*
X570721Y546741D01*
X569937Y543816D01*
Y540788D01*
X570721Y537863D01*
X572235Y535241D01*
X574376Y533100D01*
X576999Y531586D01*
X579923Y530802D01*
X582951D01*
X585876Y531586D01*
X588499Y533100D01*
X590640Y535241D01*
X592154Y537863D01*
X592937Y540788D01*
Y543816D01*
X592154Y546741D01*
X590640Y549363D01*
X588499Y551504D01*
X585876Y553018D01*
X582951Y553802D01*
D02*
G37*
G36*
X557551D02*
X554523D01*
X551599Y553018D01*
X548976Y551504D01*
X546835Y549363D01*
X545321Y546741D01*
X544537Y543816D01*
Y540788D01*
X545321Y537863D01*
X546835Y535241D01*
X548976Y533100D01*
X551599Y531586D01*
X554523Y530802D01*
X557551D01*
X560476Y531586D01*
X563099Y533100D01*
X565240Y535241D01*
X566754Y537863D01*
X567537Y540788D01*
Y543816D01*
X566754Y546741D01*
X565240Y549363D01*
X563099Y551504D01*
X560476Y553018D01*
X557551Y553802D01*
D02*
G37*
G36*
X532151D02*
X529123D01*
X526199Y553018D01*
X523576Y551504D01*
X521435Y549363D01*
X519921Y546741D01*
X519137Y543816D01*
Y540788D01*
X519921Y537863D01*
X521435Y535241D01*
X523576Y533100D01*
X526199Y531586D01*
X529123Y530802D01*
X532151D01*
X535076Y531586D01*
X537699Y533100D01*
X539840Y535241D01*
X541354Y537863D01*
X542137Y540788D01*
Y543816D01*
X541354Y546741D01*
X539840Y549363D01*
X537699Y551504D01*
X535076Y553018D01*
X532151Y553802D01*
D02*
G37*
G36*
X506751D02*
X503723D01*
X500799Y553018D01*
X498176Y551504D01*
X496035Y549363D01*
X494521Y546741D01*
X493737Y543816D01*
Y540788D01*
X494521Y537863D01*
X496035Y535241D01*
X498176Y533100D01*
X500799Y531586D01*
X503723Y530802D01*
X506751D01*
X509676Y531586D01*
X512299Y533100D01*
X514440Y535241D01*
X515954Y537863D01*
X516737Y540788D01*
Y543816D01*
X515954Y546741D01*
X514440Y549363D01*
X512299Y551504D01*
X509676Y553018D01*
X506751Y553802D01*
D02*
G37*
G36*
X54765Y597270D02*
X49098D01*
X43501Y596384D01*
X38112Y594632D01*
X33063Y592060D01*
X28479Y588729D01*
X24472Y584722D01*
X21142Y580138D01*
X18569Y575089D01*
X16818Y569700D01*
X15931Y564103D01*
Y558437D01*
X16818Y552840D01*
X18569Y547451D01*
X21142Y542402D01*
X24472Y537817D01*
X28479Y533811D01*
X33063Y530480D01*
X38112Y527907D01*
X43501Y526156D01*
X49098Y525270D01*
X54765D01*
X60361Y526156D01*
X65751Y527907D01*
X70799Y530480D01*
X75384Y533811D01*
X79391Y537817D01*
X82721Y542402D01*
X85294Y547451D01*
X87045Y552840D01*
X87931Y558437D01*
Y564103D01*
X87045Y569700D01*
X85294Y575089D01*
X82721Y580138D01*
X79391Y584722D01*
X75384Y588729D01*
X70799Y592060D01*
X65751Y594632D01*
X60361Y596384D01*
X54765Y597270D01*
D02*
G37*
G36*
X428693Y561154D02*
X420191D01*
X417753Y560669D01*
X415685Y559288D01*
X414304Y557220D01*
X413819Y554782D01*
Y548282D01*
X414304Y545843D01*
X415685Y543776D01*
X417209Y542758D01*
Y541306D01*
X415685Y540289D01*
X414304Y538221D01*
X413819Y535783D01*
Y529283D01*
X414304Y526844D01*
X415685Y524777D01*
X417753Y523395D01*
X418834Y523180D01*
Y447498D01*
X419261Y445352D01*
X420477Y443533D01*
X506440Y357570D01*
X506400Y357421D01*
Y354959D01*
X507037Y352581D01*
X508268Y350449D01*
X510009Y348708D01*
X512141Y347477D01*
X514519Y346840D01*
X516981D01*
X519359Y347477D01*
X521491Y348708D01*
X523232Y350449D01*
X523309Y350582D01*
X592376D01*
X592488Y349732D01*
X593244Y347908D01*
X594446Y346341D01*
X596013Y345139D01*
X597837Y344383D01*
X599795Y344125D01*
X608795D01*
X610753Y344383D01*
X612577Y345139D01*
X614144Y346341D01*
X615346Y347908D01*
X616102Y349732D01*
X616360Y351690D01*
Y360690D01*
X616102Y362648D01*
X615346Y364472D01*
X614144Y366039D01*
X612577Y367241D01*
X610753Y367997D01*
X609903Y368109D01*
Y380205D01*
X615270D01*
X617228Y380463D01*
X619052Y381219D01*
X620619Y382421D01*
X621821Y383988D01*
X622577Y385812D01*
X622835Y387770D01*
Y396770D01*
X622577Y398728D01*
X621821Y400552D01*
X620619Y402119D01*
X619052Y403321D01*
X617228Y404077D01*
X615270Y404335D01*
X593770D01*
X591812Y404077D01*
X589988Y403321D01*
X588421Y402119D01*
X587219Y400552D01*
X586463Y398728D01*
X586205Y396770D01*
Y387770D01*
X586463Y385812D01*
X587219Y383988D01*
X588421Y382421D01*
X589988Y381219D01*
X591812Y380463D01*
X593770Y380205D01*
X598687D01*
Y368109D01*
X597837Y367997D01*
X596013Y367241D01*
X594446Y366039D01*
X593244Y364472D01*
X592488Y362648D01*
X592376Y361798D01*
X523309D01*
X523232Y361931D01*
X521491Y363672D01*
X519359Y364903D01*
X516981Y365540D01*
X514519D01*
X514370Y365500D01*
X430050Y449821D01*
Y523180D01*
X431131Y523395D01*
X433199Y524777D01*
X434534Y524490D01*
X435925Y523422D01*
X436352Y523245D01*
Y518582D01*
X436312Y518531D01*
X436003Y518202D01*
X435807Y517887D01*
X435601Y517578D01*
X435594Y517544D01*
X435576Y517515D01*
X435516Y517149D01*
X435443Y516785D01*
X435450Y516751D01*
X435444Y516718D01*
X435528Y516356D01*
X435601Y515992D01*
X435620Y515964D01*
X435628Y515930D01*
X435844Y515629D01*
X436050Y515320D01*
X436078Y515301D01*
X436098Y515273D01*
X436352Y515115D01*
Y512250D01*
X436779Y510104D01*
X437995Y508285D01*
X439814Y507069D01*
X441960Y506642D01*
X444106Y507069D01*
X445925Y508285D01*
X447141Y510104D01*
X447568Y512250D01*
Y515115D01*
X447822Y515273D01*
X447842Y515301D01*
X447870Y515320D01*
X448077Y515629D01*
X448292Y515930D01*
X448300Y515964D01*
X448319Y515992D01*
X448391Y516356D01*
X448476Y516718D01*
X448470Y516751D01*
X448477Y516785D01*
X448404Y517149D01*
X448344Y517515D01*
X448326Y517544D01*
X448319Y517578D01*
X448113Y517887D01*
X447917Y518202D01*
X447608Y518531D01*
X447568Y518582D01*
Y523245D01*
X447994Y523422D01*
X449666Y524704D01*
X450948Y526376D01*
X451754Y528322D01*
X451963Y529910D01*
X441960D01*
Y535910D01*
X451963D01*
X451754Y537498D01*
X450948Y539445D01*
X449666Y541116D01*
X447994Y542398D01*
X447674Y542531D01*
X447574Y543544D01*
X447641Y543919D01*
X448670Y545459D01*
X449058Y547410D01*
Y552410D01*
X448670Y554361D01*
X447565Y556015D01*
X445911Y557120D01*
X443960Y557508D01*
X439960D01*
X438009Y557120D01*
X436355Y556015D01*
X436154Y555714D01*
X434873Y555749D01*
X434580Y557220D01*
X433199Y559288D01*
X431131Y560669D01*
X428693Y561154D01*
D02*
G37*
G36*
X615270Y436835D02*
X593770D01*
X591812Y436577D01*
X589988Y435821D01*
X588421Y434619D01*
X587219Y433052D01*
X586463Y431228D01*
X586205Y429270D01*
Y420270D01*
X586463Y418312D01*
X587219Y416488D01*
X588421Y414921D01*
X589988Y413719D01*
X591812Y412963D01*
X593770Y412705D01*
X615270D01*
X617228Y412963D01*
X619052Y413719D01*
X620619Y414921D01*
X621821Y416488D01*
X622577Y418312D01*
X622689Y419162D01*
X639707D01*
X640765Y418104D01*
X640774Y418069D01*
X639850Y414619D01*
Y410881D01*
X640818Y407269D01*
X642687Y404031D01*
X645331Y401387D01*
X648569Y399518D01*
X652180Y398550D01*
X655919D01*
X659531Y399518D01*
X662769Y401387D01*
X665413Y404031D01*
X667282Y407269D01*
X668250Y410881D01*
Y414619D01*
X667282Y418231D01*
X665413Y421469D01*
X662769Y424113D01*
X659531Y425982D01*
X655919Y426950D01*
X652180D01*
X648731Y426026D01*
X648696Y426035D01*
X645995Y428735D01*
X644176Y429951D01*
X642030Y430378D01*
X622689D01*
X622577Y431228D01*
X621821Y433052D01*
X620619Y434619D01*
X619052Y435821D01*
X617228Y436577D01*
X615270Y436835D01*
D02*
G37*
G36*
X657050Y378890D02*
Y364950D01*
X670990D01*
X670589Y366967D01*
X669292Y370097D01*
X667410Y372914D01*
X665014Y375310D01*
X662197Y377192D01*
X659067Y378489D01*
X657050Y378890D01*
D02*
G37*
G36*
X651050D02*
X649033Y378489D01*
X645903Y377192D01*
X643086Y375310D01*
X640690Y372914D01*
X638808Y370097D01*
X637511Y366967D01*
X637110Y364950D01*
X651050D01*
Y378890D01*
D02*
G37*
G36*
X670990Y358950D02*
X654050D01*
X637110D01*
X637511Y356933D01*
X638808Y353803D01*
X640690Y350986D01*
X643086Y348590D01*
X645903Y346708D01*
X648442Y345656D01*
Y340373D01*
X637367Y329298D01*
X619240D01*
X619025Y330931D01*
X617967Y333485D01*
X616284Y335679D01*
X614090Y337362D01*
X611536Y338420D01*
X608795Y338781D01*
X607295D01*
Y323690D01*
Y308599D01*
X608795D01*
X611536Y308960D01*
X614090Y310018D01*
X616284Y311701D01*
X617967Y313895D01*
X619025Y316449D01*
X619240Y318082D01*
X639690D01*
X641836Y318509D01*
X643655Y319725D01*
X658015Y334085D01*
X659231Y335904D01*
X659658Y338050D01*
Y345656D01*
X662197Y346708D01*
X665014Y348590D01*
X667410Y350986D01*
X669292Y353803D01*
X670589Y356933D01*
X670990Y358950D01*
D02*
G37*
G36*
X601295Y338781D02*
X599795D01*
X597054Y338420D01*
X594500Y337362D01*
X592306Y335679D01*
X590623Y333485D01*
X589565Y330931D01*
X589204Y328190D01*
Y326690D01*
X601295D01*
Y338781D01*
D02*
G37*
G36*
Y320690D02*
X589204D01*
Y319190D01*
X589565Y316449D01*
X590623Y313895D01*
X592306Y311701D01*
X594500Y310018D01*
X597054Y308960D01*
X599795Y308599D01*
X601295D01*
Y320690D01*
D02*
G37*
G36*
X46403Y318208D02*
X43807Y317512D01*
X40500Y315603D01*
X37801Y312903D01*
X35892Y309597D01*
X35196Y307000D01*
X46403D01*
Y318208D01*
D02*
G37*
G36*
X640377Y299183D02*
X634360D01*
X632329Y298916D01*
X630437Y298132D01*
X628813Y296885D01*
X627566Y295261D01*
X627528Y295168D01*
X606332D01*
X606281Y295208D01*
X605952Y295517D01*
X605637Y295713D01*
X605328Y295919D01*
X605294Y295926D01*
X605265Y295944D01*
X604899Y296004D01*
X604535Y296077D01*
X604501Y296070D01*
X604468Y296076D01*
X604106Y295991D01*
X603742Y295919D01*
X603714Y295900D01*
X603680Y295892D01*
X603379Y295676D01*
X603070Y295470D01*
X603051Y295442D01*
X603023Y295422D01*
X602865Y295168D01*
X600000D01*
X597854Y294741D01*
X596035Y293525D01*
X594819Y291706D01*
X594392Y289560D01*
X594819Y287414D01*
X596035Y285595D01*
X597854Y284379D01*
X600000Y283952D01*
X602865D01*
X603023Y283698D01*
X603051Y283678D01*
X603070Y283650D01*
X603379Y283444D01*
X603680Y283228D01*
X603714Y283220D01*
X603742Y283201D01*
X604106Y283129D01*
X604468Y283044D01*
X604501Y283050D01*
X604535Y283043D01*
X604899Y283116D01*
X605265Y283176D01*
X605294Y283194D01*
X605328Y283201D01*
X605637Y283407D01*
X605952Y283603D01*
X606281Y283912D01*
X606332Y283952D01*
X627528D01*
X627566Y283860D01*
X628813Y282235D01*
X630437Y280988D01*
X630220Y279704D01*
X629751Y278571D01*
X629525Y276860D01*
X629751Y275149D01*
X630411Y273554D01*
X631253Y272457D01*
X629323Y270975D01*
X628745Y270222D01*
X627283Y270148D01*
X618965Y278465D01*
X617146Y279681D01*
X615000Y280108D01*
X588832D01*
X588781Y280148D01*
X588452Y280457D01*
X588137Y280653D01*
X587828Y280859D01*
X587794Y280866D01*
X587765Y280884D01*
X587399Y280944D01*
X587035Y281017D01*
X587001Y281010D01*
X586968Y281016D01*
X586606Y280931D01*
X586242Y280859D01*
X586214Y280840D01*
X586180Y280832D01*
X585879Y280616D01*
X585570Y280410D01*
X585551Y280382D01*
X585523Y280362D01*
X585365Y280108D01*
X582500D01*
X580354Y279681D01*
X578535Y278465D01*
X577319Y276646D01*
X576892Y274500D01*
X577319Y272354D01*
X578535Y270535D01*
X580354Y269319D01*
X582500Y268892D01*
X585365D01*
X585523Y268638D01*
X585551Y268618D01*
X585570Y268590D01*
X585879Y268384D01*
X586180Y268168D01*
X586214Y268160D01*
X586242Y268141D01*
X586606Y268069D01*
X586968Y267984D01*
X587001Y267990D01*
X587035Y267983D01*
X587399Y268056D01*
X587765Y268116D01*
X587794Y268134D01*
X587828Y268141D01*
X588137Y268347D01*
X588452Y268543D01*
X588781Y268852D01*
X588832Y268892D01*
X591035D01*
X591288Y267622D01*
X589435Y266855D01*
X588554Y265974D01*
X563040D01*
X535185Y293829D01*
X533773Y294772D01*
X532107Y295104D01*
X194267D01*
X192601Y294772D01*
X191189Y293829D01*
X104114Y206754D01*
X85895D01*
X85476Y207037D01*
X85350Y207134D01*
X84006Y209461D01*
X81865Y211602D01*
X79242Y213116D01*
X76317Y213900D01*
X73289D01*
X70365Y213116D01*
X67742Y211602D01*
X65601Y209461D01*
X64087Y206839D01*
X63303Y203914D01*
Y200886D01*
X64087Y197961D01*
X65601Y195339D01*
X67742Y193198D01*
X70365Y191684D01*
X73289Y190900D01*
X76317D01*
X79242Y191684D01*
X81865Y193198D01*
X84006Y195339D01*
X85350Y197666D01*
X85476Y197763D01*
X85895Y198046D01*
X105917D01*
X107583Y198378D01*
X108995Y199321D01*
X196070Y286396D01*
X530303D01*
X558158Y258542D01*
X559571Y257598D01*
X561237Y257266D01*
X586609D01*
X586983Y256618D01*
X586609Y255970D01*
X228617D01*
X226951Y255639D01*
X225538Y254695D01*
X139447Y168604D01*
X84330D01*
X83844Y169777D01*
X84006Y169939D01*
X85520Y172561D01*
X86303Y175486D01*
Y178514D01*
X85520Y181439D01*
X84006Y184061D01*
X81865Y186202D01*
X79242Y187716D01*
X76317Y188500D01*
X73289D01*
X70365Y187716D01*
X67742Y186202D01*
X67277Y185737D01*
X66104Y186223D01*
Y190053D01*
X65772Y191719D01*
X64829Y193132D01*
X60325Y197636D01*
X60229Y198132D01*
X60208Y198290D01*
X60903Y200886D01*
Y203914D01*
X60120Y206839D01*
X58606Y209461D01*
X56465Y211602D01*
X53842Y213116D01*
X50917Y213900D01*
X47889D01*
X44965Y213116D01*
X42342Y211602D01*
X40201Y209461D01*
X38687Y206839D01*
X37903Y203914D01*
Y200886D01*
X38687Y197961D01*
X40201Y195339D01*
X42342Y193198D01*
X44965Y191684D01*
X47889Y190900D01*
X50917D01*
X53513Y191596D01*
X53671Y191574D01*
X54168Y191479D01*
X57396Y188250D01*
Y186915D01*
X56126Y186397D01*
X53842Y187716D01*
X50917Y188500D01*
X47889D01*
X44965Y187716D01*
X42342Y186202D01*
X40201Y184061D01*
X38687Y181439D01*
X37903Y178514D01*
Y175486D01*
X38687Y172561D01*
X40201Y169939D01*
X42342Y167798D01*
X44965Y166284D01*
X47889Y165500D01*
X50917D01*
X53842Y166284D01*
X56176Y167631D01*
X56177Y167631D01*
X57148Y167331D01*
X57532Y167069D01*
X57728Y166084D01*
X58671Y164671D01*
X62172Y161171D01*
X63584Y160228D01*
X65075Y159931D01*
X65628Y158983D01*
X65715Y158775D01*
X65601Y158661D01*
X64087Y156039D01*
X63303Y153114D01*
Y150086D01*
X64087Y147161D01*
X65601Y144539D01*
X67742Y142398D01*
X70365Y140884D01*
X73289Y140100D01*
X76317D01*
X79242Y140884D01*
X81865Y142398D01*
X84006Y144539D01*
X85520Y147161D01*
X86303Y150086D01*
Y153114D01*
X85520Y156039D01*
X84006Y158661D01*
X83944Y158723D01*
X84430Y159896D01*
X141250D01*
X142916Y160228D01*
X144328Y161171D01*
X230420Y247263D01*
X588554D01*
X589435Y246382D01*
X591705Y245442D01*
X594161D01*
X596431Y246382D01*
X597312Y247263D01*
X603830D01*
X615411Y235681D01*
X616824Y234738D01*
X617027Y234697D01*
X616902Y233427D01*
X615096D01*
X615080Y233508D01*
X613699Y235576D01*
X611631Y236957D01*
X609193Y237442D01*
X600691D01*
X598253Y236957D01*
X596185Y235576D01*
X594804Y233508D01*
X594788Y233427D01*
X592236D01*
X592220Y233508D01*
X590839Y235576D01*
X588771Y236957D01*
X586333Y237442D01*
X577831D01*
X575393Y236957D01*
X573325Y235576D01*
X571944Y233508D01*
X571928Y233427D01*
X555213D01*
X553067Y233001D01*
X551248Y231785D01*
X517130Y197666D01*
X516981Y197706D01*
X514519D01*
X512141Y197069D01*
X510009Y195838D01*
X508268Y194097D01*
X507037Y191965D01*
X506400Y189587D01*
Y187125D01*
X507037Y184747D01*
X508268Y182615D01*
X510009Y180875D01*
X510142Y180798D01*
Y142273D01*
X440787Y72918D01*
X361733D01*
X356579Y78072D01*
X357000Y78860D01*
Y95000D01*
Y110716D01*
X355333Y110385D01*
X352421Y109179D01*
X349800Y107428D01*
X347572Y105199D01*
X345821Y102579D01*
X344615Y99667D01*
X344150Y97328D01*
X342846Y97285D01*
X342114Y100018D01*
X340402Y102982D01*
X337982Y105402D01*
X335018Y107114D01*
X331711Y108000D01*
X328288D01*
X324982Y107114D01*
X322018Y105402D01*
X319597Y102982D01*
X317886Y100018D01*
X317000Y96711D01*
Y93288D01*
X317886Y89982D01*
X319597Y87018D01*
X322018Y84597D01*
X322525Y84305D01*
X322196Y83078D01*
X307804D01*
X307475Y84305D01*
X307982Y84597D01*
X310403Y87018D01*
X312114Y89982D01*
X313000Y93288D01*
Y96711D01*
X312114Y100018D01*
X310403Y102982D01*
X307982Y105402D01*
X306079Y106501D01*
X305952Y106691D01*
X305686Y107156D01*
Y128332D01*
X306846Y128563D01*
X308913Y129944D01*
X310295Y132012D01*
X310780Y134451D01*
Y140950D01*
X310295Y143389D01*
X309041Y145266D01*
X309072Y145370D01*
X311005Y146853D01*
X312487Y148785D01*
X313419Y151035D01*
X313430Y151117D01*
X347441D01*
X347491Y151077D01*
X347822Y150770D01*
X348137Y150575D01*
X348448Y150370D01*
X348481Y150363D01*
X348510Y150345D01*
X348876Y150286D01*
X349241Y150215D01*
X349274Y150222D01*
X349308Y150217D01*
X349669Y150302D01*
X350033Y150376D01*
X350061Y150395D01*
X350094Y150403D01*
X350395Y150620D01*
X350704Y150828D01*
X350722Y150856D01*
X350750Y150876D01*
X350899Y151117D01*
X353725D01*
X355871Y151544D01*
X357690Y152760D01*
X357715Y152785D01*
X358931Y154604D01*
X359358Y156750D01*
X358931Y158896D01*
X357715Y160715D01*
X355896Y161931D01*
X353750Y162358D01*
X353623Y162332D01*
X350871D01*
X350704Y162600D01*
X350676Y162619D01*
X350657Y162648D01*
X350348Y162853D01*
X350045Y163068D01*
X350011Y163075D01*
X349983Y163094D01*
X349619Y163165D01*
X349257Y163248D01*
X349223Y163242D01*
X349189Y163249D01*
X348826Y163175D01*
X348460Y163113D01*
X348431Y163095D01*
X348397Y163088D01*
X348089Y162880D01*
X347775Y162683D01*
X347448Y162374D01*
X347395Y162332D01*
X313424D01*
X313419Y162364D01*
X312487Y164614D01*
X311005Y166547D01*
X309072Y168029D01*
X306822Y168961D01*
X304408Y169279D01*
X303157D01*
Y156700D01*
X297157D01*
Y169279D01*
X295906D01*
X293491Y168961D01*
X291241Y168029D01*
X289309Y166547D01*
X287826Y164614D01*
X286894Y162364D01*
X286887Y162307D01*
X283427D01*
X283419Y162364D01*
X282487Y164614D01*
X281005Y166547D01*
X279072Y168029D01*
X276822Y168961D01*
X274408Y169279D01*
X273157D01*
Y156700D01*
X267157D01*
Y169279D01*
X265906D01*
X263491Y168961D01*
X261241Y168029D01*
X259309Y166547D01*
X257826Y164614D01*
X256894Y162364D01*
X256887Y162307D01*
X253427D01*
X253419Y162364D01*
X252487Y164614D01*
X251005Y166547D01*
X249072Y168029D01*
X246822Y168961D01*
X244408Y169279D01*
X243157D01*
Y156700D01*
X237157D01*
Y169279D01*
X235906D01*
X233491Y168961D01*
X231241Y168029D01*
X229309Y166547D01*
X227826Y164614D01*
X226894Y162364D01*
X226887Y162307D01*
X223427D01*
X223419Y162364D01*
X222487Y164614D01*
X221005Y166547D01*
X219072Y168029D01*
X216822Y168961D01*
X214408Y169279D01*
X213157D01*
Y156700D01*
X210157D01*
Y153700D01*
X196576D01*
Y153450D01*
X196894Y151035D01*
X197826Y148785D01*
X199309Y146853D01*
X201241Y145370D01*
X201273Y145266D01*
X200019Y143389D01*
X199534Y140950D01*
Y134451D01*
X200019Y132012D01*
X201400Y129944D01*
X203468Y128563D01*
X204471Y128364D01*
Y107227D01*
X204199Y106761D01*
X204086Y106597D01*
X202018Y105402D01*
X199597Y102982D01*
X197886Y100018D01*
X197000Y96711D01*
Y93288D01*
X197886Y89982D01*
X199597Y87018D01*
X202018Y84597D01*
X202525Y84305D01*
X202196Y83078D01*
X199853D01*
X193053Y89877D01*
X193069Y90000D01*
Y100000D01*
X192794Y102088D01*
X191988Y104034D01*
X190706Y105705D01*
X189035Y106988D01*
X187088Y107794D01*
X185000Y108069D01*
X175000D01*
X172912Y107794D01*
X170965Y106988D01*
X169294Y105705D01*
X168012Y104034D01*
X167206Y102088D01*
X166931Y100000D01*
Y90000D01*
X167206Y87911D01*
X168012Y85965D01*
X169294Y84294D01*
X170965Y83012D01*
X172912Y82206D01*
X175000Y81931D01*
X185000D01*
X185122Y81947D01*
X193564Y73505D01*
X195384Y72289D01*
X197530Y71862D01*
X346927D01*
X355445Y63345D01*
X357264Y62129D01*
X359410Y61702D01*
X443110D01*
X445256Y62129D01*
X447075Y63345D01*
X515750Y132019D01*
X553945Y93825D01*
X555764Y92609D01*
X557910Y92182D01*
X644195D01*
X671972Y64405D01*
X671537Y62784D01*
Y59756D01*
X672321Y56831D01*
X673835Y54209D01*
X675976Y52068D01*
X678599Y50554D01*
X681523Y49770D01*
X684551D01*
X687476Y50554D01*
X690099Y52068D01*
X692240Y54209D01*
X693444Y56295D01*
X694807Y56116D01*
X694926Y55673D01*
X696834Y52367D01*
X699534Y49667D01*
X702841Y47758D01*
X705437Y47062D01*
Y61270D01*
Y75478D01*
X702841Y74782D01*
X699534Y72873D01*
X696834Y70173D01*
X694926Y66867D01*
X694807Y66424D01*
X693444Y66245D01*
X692240Y68331D01*
X690099Y70472D01*
X687476Y71986D01*
X684551Y72770D01*
X681523D01*
X679902Y72336D01*
X650483Y101755D01*
X648663Y102971D01*
X646517Y103398D01*
X560233D01*
X521358Y142273D01*
Y180798D01*
X521491Y180875D01*
X523232Y182615D01*
X523309Y182749D01*
X571952D01*
X573198Y180884D01*
X573166Y180780D01*
X571234Y179298D01*
X569752Y177365D01*
X568820Y175115D01*
X568812Y175058D01*
X562332D01*
X562281Y175099D01*
X561952Y175407D01*
X561637Y175603D01*
X561328Y175809D01*
X561294Y175816D01*
X561265Y175834D01*
X560899Y175895D01*
X560535Y175967D01*
X560501Y175961D01*
X560468Y175966D01*
X560106Y175882D01*
X559742Y175809D01*
X559714Y175791D01*
X559680Y175783D01*
X559379Y175567D01*
X559070Y175360D01*
X559051Y175332D01*
X559023Y175312D01*
X558865Y175058D01*
X556000D01*
X553854Y174631D01*
X552035Y173416D01*
X550819Y171596D01*
X550392Y169450D01*
X550819Y167304D01*
X552035Y165485D01*
X553854Y164270D01*
X556000Y163843D01*
X558865D01*
X559023Y163589D01*
X559051Y163569D01*
X559070Y163540D01*
X559379Y163334D01*
X559680Y163118D01*
X559714Y163110D01*
X559742Y163091D01*
X560106Y163019D01*
X560468Y162935D01*
X560501Y162940D01*
X560535Y162934D01*
X560899Y163006D01*
X561265Y163067D01*
X561294Y163085D01*
X561328Y163091D01*
X561637Y163298D01*
X561952Y163494D01*
X562281Y163802D01*
X562332Y163843D01*
X568812D01*
X568820Y163786D01*
X569752Y161536D01*
X571234Y159603D01*
X573166Y158121D01*
X575417Y157189D01*
X577831Y156871D01*
X579082D01*
Y169450D01*
X585082D01*
Y156871D01*
X586333D01*
X588747Y157189D01*
X590998Y158121D01*
X592930Y159603D01*
X594094D01*
X596026Y158121D01*
X598277Y157189D01*
X600691Y156871D01*
X601942D01*
Y169450D01*
X607942D01*
Y156871D01*
X609193D01*
X611607Y157189D01*
X613857Y158121D01*
X615790Y159603D01*
X617272Y161536D01*
X618204Y163786D01*
X618224Y163935D01*
X619906Y164270D01*
X621726Y165485D01*
X625893Y169652D01*
X628396D01*
X629323Y168445D01*
X631319Y166913D01*
X633643Y165950D01*
X636138Y165622D01*
X640377D01*
Y175260D01*
X643377D01*
Y178260D01*
X659717D01*
X658963Y180079D01*
X657788Y181610D01*
X658963Y183141D01*
X659717Y184960D01*
X643377D01*
Y190960D01*
X659717D01*
X658963Y192779D01*
X657431Y194775D01*
X655501Y196257D01*
X656343Y197354D01*
X657003Y198948D01*
X657229Y200660D01*
X657003Y202372D01*
X656343Y203966D01*
X655501Y205063D01*
X657431Y206545D01*
X658963Y208541D01*
X659717Y210360D01*
X643377D01*
Y216360D01*
X659717D01*
X658963Y218179D01*
X657431Y220175D01*
X655501Y221657D01*
X656343Y222754D01*
X657003Y224349D01*
X657229Y226060D01*
X657003Y227771D01*
X656343Y229366D01*
X655292Y230736D01*
X654031Y231703D01*
X653947Y232410D01*
X654031Y233116D01*
X655292Y234084D01*
X656343Y235454D01*
X657003Y237048D01*
X657229Y238760D01*
X657003Y240471D01*
X656343Y242066D01*
X655292Y243436D01*
X654031Y244403D01*
X653947Y245110D01*
X654031Y245816D01*
X655292Y246784D01*
X656343Y248154D01*
X657003Y249748D01*
X657229Y251460D01*
X657003Y253172D01*
X656343Y254766D01*
X655501Y255863D01*
X657431Y257345D01*
X658963Y259341D01*
X659717Y261160D01*
X643377D01*
Y267160D01*
X659717D01*
X658963Y268979D01*
X657431Y270975D01*
X655501Y272457D01*
X656343Y273554D01*
X657003Y275149D01*
X657229Y276860D01*
X657003Y278571D01*
X656534Y279704D01*
X656317Y280988D01*
X657941Y282235D01*
X659188Y283860D01*
X659972Y285751D01*
X660078Y286560D01*
X643377D01*
Y289560D01*
X640377D01*
Y299183D01*
D02*
G37*
G36*
X652394D02*
X646377D01*
Y292560D01*
X660078D01*
X659972Y293368D01*
X659188Y295261D01*
X657941Y296885D01*
X656317Y298132D01*
X654424Y298916D01*
X652394Y299183D01*
D02*
G37*
G36*
X52403Y318208D02*
Y304000D01*
X49403D01*
Y301000D01*
X35196D01*
X35892Y298403D01*
X37801Y295097D01*
X40500Y292397D01*
X43807Y290488D01*
X44249Y290370D01*
X44429Y289007D01*
X42342Y287802D01*
X40201Y285661D01*
X38687Y283039D01*
X37903Y280114D01*
Y277086D01*
X38687Y274161D01*
X40201Y271539D01*
X42342Y269398D01*
X44965Y267884D01*
X47889Y267100D01*
X50917D01*
X53842Y267884D01*
X56465Y269398D01*
X58606Y271539D01*
X60120Y274161D01*
X60903Y277086D01*
Y280114D01*
X60120Y283039D01*
X58606Y285661D01*
X56465Y287802D01*
X54378Y289007D01*
X54558Y290370D01*
X55000Y290488D01*
X58307Y292397D01*
X61006Y295097D01*
X62915Y298403D01*
X63034Y298846D01*
X64397Y299025D01*
X65601Y296939D01*
X67742Y294798D01*
X70365Y293284D01*
X73289Y292500D01*
X76317D01*
X79242Y293284D01*
X81865Y294798D01*
X84006Y296939D01*
X85520Y299561D01*
X86303Y302486D01*
Y305514D01*
X85520Y308439D01*
X84006Y311061D01*
X81865Y313202D01*
X79242Y314716D01*
X76317Y315500D01*
X73289D01*
X70365Y314716D01*
X67742Y313202D01*
X65601Y311061D01*
X64397Y308975D01*
X63034Y309154D01*
X62915Y309597D01*
X61006Y312903D01*
X58307Y315603D01*
X55000Y317512D01*
X52403Y318208D01*
D02*
G37*
G36*
X76317Y290100D02*
X73289D01*
X70365Y289316D01*
X67742Y287802D01*
X65601Y285661D01*
X64087Y283039D01*
X63303Y280114D01*
Y277086D01*
X64087Y274161D01*
X65601Y271539D01*
X67742Y269398D01*
X70365Y267884D01*
X73289Y267100D01*
X76317D01*
X79242Y267884D01*
X81865Y269398D01*
X84006Y271539D01*
X85520Y274161D01*
X86303Y277086D01*
Y280114D01*
X85520Y283039D01*
X84006Y285661D01*
X81865Y287802D01*
X79242Y289316D01*
X76317Y290100D01*
D02*
G37*
G36*
Y264700D02*
X73289D01*
X70365Y263916D01*
X67742Y262402D01*
X65601Y260261D01*
X64087Y257639D01*
X63303Y254714D01*
Y251686D01*
X64087Y248761D01*
X65601Y246139D01*
X67742Y243998D01*
X70365Y242484D01*
X73289Y241700D01*
X76317D01*
X79242Y242484D01*
X81865Y243998D01*
X84006Y246139D01*
X85520Y248761D01*
X86303Y251686D01*
Y254714D01*
X85520Y257639D01*
X84006Y260261D01*
X81865Y262402D01*
X79242Y263916D01*
X76317Y264700D01*
D02*
G37*
G36*
X50917D02*
X47889D01*
X44965Y263916D01*
X42342Y262402D01*
X40201Y260261D01*
X38687Y257639D01*
X37903Y254714D01*
Y251686D01*
X38687Y248761D01*
X40201Y246139D01*
X42342Y243998D01*
X44965Y242484D01*
X47889Y241700D01*
X50917D01*
X53842Y242484D01*
X56465Y243998D01*
X58606Y246139D01*
X60120Y248761D01*
X60903Y251686D01*
Y254714D01*
X60120Y257639D01*
X58606Y260261D01*
X56465Y262402D01*
X53842Y263916D01*
X50917Y264700D01*
D02*
G37*
G36*
X76317Y239300D02*
X73289D01*
X70365Y238516D01*
X67742Y237002D01*
X65601Y234861D01*
X64087Y232239D01*
X63303Y229314D01*
Y226286D01*
X64087Y223361D01*
X65601Y220739D01*
X67742Y218598D01*
X70365Y217084D01*
X73289Y216300D01*
X76317D01*
X79242Y217084D01*
X81865Y218598D01*
X84006Y220739D01*
X85520Y223361D01*
X86303Y226286D01*
Y229314D01*
X85520Y232239D01*
X84006Y234861D01*
X81865Y237002D01*
X79242Y238516D01*
X76317Y239300D01*
D02*
G37*
G36*
X50917D02*
X47889D01*
X44965Y238516D01*
X42342Y237002D01*
X40201Y234861D01*
X38687Y232239D01*
X37903Y229314D01*
Y226286D01*
X38687Y223361D01*
X40201Y220739D01*
X42342Y218598D01*
X44965Y217084D01*
X47889Y216300D01*
X50917D01*
X53842Y217084D01*
X56465Y218598D01*
X58606Y220739D01*
X60120Y223361D01*
X60903Y226286D01*
Y229314D01*
X60120Y232239D01*
X58606Y234861D01*
X56465Y237002D01*
X53842Y238516D01*
X50917Y239300D01*
D02*
G37*
G36*
X659717Y172260D02*
X646377D01*
Y165622D01*
X650616D01*
X653111Y165950D01*
X655435Y166913D01*
X657431Y168445D01*
X658963Y170441D01*
X659717Y172260D01*
D02*
G37*
G36*
X207157Y169279D02*
X205906D01*
X203491Y168961D01*
X201241Y168029D01*
X199309Y166547D01*
X197826Y164614D01*
X196894Y162364D01*
X196576Y159950D01*
Y159700D01*
X207157D01*
Y169279D01*
D02*
G37*
G36*
X50917Y163100D02*
X47889D01*
X44965Y162316D01*
X42342Y160802D01*
X40201Y158661D01*
X38687Y156039D01*
X37903Y153114D01*
Y150086D01*
X38687Y147161D01*
X40201Y144539D01*
X42342Y142398D01*
X44965Y140884D01*
X47889Y140100D01*
X50917D01*
X53842Y140884D01*
X56465Y142398D01*
X58606Y144539D01*
X60120Y147161D01*
X60903Y150086D01*
Y153114D01*
X60120Y156039D01*
X58606Y158661D01*
X56465Y160802D01*
X53842Y162316D01*
X50917Y163100D01*
D02*
G37*
G36*
Y137700D02*
X47889D01*
X44965Y136916D01*
X42342Y135402D01*
X40201Y133261D01*
X38687Y130639D01*
X37903Y127714D01*
Y124686D01*
X38687Y121761D01*
X40201Y119139D01*
X42342Y116998D01*
X44965Y115484D01*
X47889Y114700D01*
X50917D01*
X53842Y115484D01*
X56465Y116998D01*
X58606Y119139D01*
X60120Y121761D01*
X60903Y124686D01*
Y127714D01*
X60120Y130639D01*
X58606Y133261D01*
X56465Y135402D01*
X53842Y136916D01*
X50917Y137700D01*
D02*
G37*
G36*
X76317Y137192D02*
X73289D01*
X70365Y136408D01*
X67742Y134894D01*
X65601Y132753D01*
X64087Y130131D01*
X63303Y127206D01*
Y124178D01*
X64087Y121253D01*
X65601Y118631D01*
X67742Y116490D01*
X70365Y114976D01*
X73289Y114192D01*
X76317D01*
X79242Y114976D01*
X81865Y116490D01*
X84006Y118631D01*
X85520Y121253D01*
X86303Y124178D01*
Y127206D01*
X85520Y130131D01*
X84006Y132753D01*
X81865Y134894D01*
X79242Y136408D01*
X76317Y137192D01*
D02*
G37*
G36*
X363000Y110716D02*
Y98000D01*
X375717D01*
X375385Y99667D01*
X374179Y102579D01*
X372428Y105199D01*
X370199Y107428D01*
X367579Y109179D01*
X364667Y110385D01*
X363000Y110716D01*
D02*
G37*
G36*
X375717Y92000D02*
X363000D01*
Y79283D01*
X364667Y79615D01*
X367579Y80821D01*
X370199Y82572D01*
X372428Y84800D01*
X374179Y87421D01*
X375385Y90333D01*
X375717Y92000D01*
D02*
G37*
G36*
X872337Y72770D02*
X849337D01*
Y49770D01*
X872337D01*
Y72770D01*
D02*
G37*
G36*
X836951D02*
X833923D01*
X830999Y71986D01*
X828376Y70472D01*
X826235Y68331D01*
X824721Y65709D01*
X823937Y62784D01*
Y59756D01*
X824721Y56831D01*
X826235Y54209D01*
X828376Y52068D01*
X830999Y50554D01*
X833923Y49770D01*
X836951D01*
X839876Y50554D01*
X842499Y52068D01*
X844640Y54209D01*
X846154Y56831D01*
X846937Y59756D01*
Y62784D01*
X846154Y65709D01*
X844640Y68331D01*
X842499Y70472D01*
X839876Y71986D01*
X836951Y72770D01*
D02*
G37*
G36*
X811551D02*
X808523D01*
X805599Y71986D01*
X802976Y70472D01*
X800835Y68331D01*
X799321Y65709D01*
X798537Y62784D01*
Y59756D01*
X799321Y56831D01*
X800835Y54209D01*
X802976Y52068D01*
X805599Y50554D01*
X808523Y49770D01*
X811551D01*
X814476Y50554D01*
X817099Y52068D01*
X819240Y54209D01*
X820754Y56831D01*
X821537Y59756D01*
Y62784D01*
X820754Y65709D01*
X819240Y68331D01*
X817099Y70472D01*
X814476Y71986D01*
X811551Y72770D01*
D02*
G37*
G36*
X786151D02*
X783123D01*
X780199Y71986D01*
X777576Y70472D01*
X775435Y68331D01*
X773921Y65709D01*
X773137Y62784D01*
Y59756D01*
X773921Y56831D01*
X775435Y54209D01*
X777576Y52068D01*
X780199Y50554D01*
X783123Y49770D01*
X786151D01*
X789076Y50554D01*
X791699Y52068D01*
X793840Y54209D01*
X795354Y56831D01*
X796137Y59756D01*
Y62784D01*
X795354Y65709D01*
X793840Y68331D01*
X791699Y70472D01*
X789076Y71986D01*
X786151Y72770D01*
D02*
G37*
G36*
X736837Y75478D02*
Y61270D01*
Y47062D01*
X739434Y47758D01*
X742741Y49667D01*
X745440Y52367D01*
X747349Y55673D01*
X747468Y56116D01*
X748831Y56295D01*
X750035Y54209D01*
X752176Y52068D01*
X754799Y50554D01*
X757723Y49770D01*
X760751D01*
X763676Y50554D01*
X766299Y52068D01*
X768440Y54209D01*
X769954Y56831D01*
X770737Y59756D01*
Y62784D01*
X769954Y65709D01*
X768440Y68331D01*
X766299Y70472D01*
X763676Y71986D01*
X760751Y72770D01*
X757723D01*
X754799Y71986D01*
X752176Y70472D01*
X750035Y68331D01*
X748831Y66245D01*
X747468Y66424D01*
X747349Y66867D01*
X745440Y70173D01*
X742741Y72873D01*
X739434Y74782D01*
X736837Y75478D01*
D02*
G37*
G36*
X633751Y72770D02*
X630723D01*
X627799Y71986D01*
X625176Y70472D01*
X623035Y68331D01*
X621521Y65709D01*
X620737Y62784D01*
Y59756D01*
X621521Y56831D01*
X623035Y54209D01*
X625176Y52068D01*
X627799Y50554D01*
X630723Y49770D01*
X633751D01*
X636676Y50554D01*
X639299Y52068D01*
X641440Y54209D01*
X642954Y56831D01*
X643737Y59756D01*
Y62784D01*
X642954Y65709D01*
X641440Y68331D01*
X639299Y70472D01*
X636676Y71986D01*
X633751Y72770D01*
D02*
G37*
G36*
X608351D02*
X605323D01*
X602399Y71986D01*
X599776Y70472D01*
X597635Y68331D01*
X596121Y65709D01*
X595337Y62784D01*
Y59756D01*
X596121Y56831D01*
X597635Y54209D01*
X599776Y52068D01*
X602399Y50554D01*
X605323Y49770D01*
X608351D01*
X611276Y50554D01*
X613899Y52068D01*
X616040Y54209D01*
X617554Y56831D01*
X618337Y59756D01*
Y62784D01*
X617554Y65709D01*
X616040Y68331D01*
X613899Y70472D01*
X611276Y71986D01*
X608351Y72770D01*
D02*
G37*
G36*
X582951D02*
X579923D01*
X576999Y71986D01*
X574376Y70472D01*
X572235Y68331D01*
X570721Y65709D01*
X569937Y62784D01*
Y59756D01*
X570721Y56831D01*
X572235Y54209D01*
X574376Y52068D01*
X576999Y50554D01*
X579923Y49770D01*
X582951D01*
X585876Y50554D01*
X588499Y52068D01*
X590640Y54209D01*
X592154Y56831D01*
X592937Y59756D01*
Y62784D01*
X592154Y65709D01*
X590640Y68331D01*
X588499Y70472D01*
X585876Y71986D01*
X582951Y72770D01*
D02*
G37*
G36*
X557551D02*
X554523D01*
X551599Y71986D01*
X548976Y70472D01*
X546835Y68331D01*
X545321Y65709D01*
X544537Y62784D01*
Y59756D01*
X545321Y56831D01*
X546835Y54209D01*
X548976Y52068D01*
X551599Y50554D01*
X554523Y49770D01*
X557551D01*
X560476Y50554D01*
X563099Y52068D01*
X565240Y54209D01*
X566754Y56831D01*
X567537Y59756D01*
Y62784D01*
X566754Y65709D01*
X565240Y68331D01*
X563099Y70472D01*
X560476Y71986D01*
X557551Y72770D01*
D02*
G37*
G36*
X532151D02*
X529123D01*
X526199Y71986D01*
X523576Y70472D01*
X521435Y68331D01*
X519921Y65709D01*
X519137Y62784D01*
Y59756D01*
X519921Y56831D01*
X521435Y54209D01*
X523576Y52068D01*
X526199Y50554D01*
X529123Y49770D01*
X532151D01*
X535076Y50554D01*
X537699Y52068D01*
X539840Y54209D01*
X541354Y56831D01*
X542137Y59756D01*
Y62784D01*
X541354Y65709D01*
X539840Y68331D01*
X537699Y70472D01*
X535076Y71986D01*
X532151Y72770D01*
D02*
G37*
G36*
X506751D02*
X503723D01*
X500799Y71986D01*
X498176Y70472D01*
X496035Y68331D01*
X494521Y65709D01*
X493737Y62784D01*
Y59756D01*
X494521Y56831D01*
X496035Y54209D01*
X498176Y52068D01*
X500799Y50554D01*
X503723Y49770D01*
X506751D01*
X509676Y50554D01*
X512299Y52068D01*
X514440Y54209D01*
X515954Y56831D01*
X516737Y59756D01*
Y62784D01*
X515954Y65709D01*
X514440Y68331D01*
X512299Y70472D01*
X509676Y71986D01*
X506751Y72770D01*
D02*
G37*
G36*
X711437Y75478D02*
Y61270D01*
Y47062D01*
X714034Y47758D01*
X717341Y49667D01*
X720040Y52367D01*
X720502Y53167D01*
X721772D01*
X722234Y52367D01*
X724934Y49667D01*
X728241Y47758D01*
X730837Y47062D01*
Y61270D01*
Y75478D01*
X728241Y74782D01*
X724934Y72873D01*
X722234Y70173D01*
X721772Y69373D01*
X720502D01*
X720040Y70173D01*
X717341Y72873D01*
X714034Y74782D01*
X711437Y75478D01*
D02*
G37*
G36*
X340273Y69800D02*
X336727D01*
X333250Y69108D01*
X329974Y67751D01*
X327026Y65781D01*
X324519Y63274D01*
X322549Y60326D01*
X321192Y57050D01*
X320500Y53573D01*
Y50027D01*
X321192Y46549D01*
X322549Y43274D01*
X324519Y40325D01*
X327026Y37818D01*
X329974Y35848D01*
X333250Y34492D01*
X336727Y33800D01*
X340273D01*
X343750Y34492D01*
X347026Y35848D01*
X349974Y37818D01*
X352481Y40325D01*
X354451Y43274D01*
X355808Y46549D01*
X356500Y50027D01*
Y53573D01*
X355808Y57050D01*
X354451Y60326D01*
X352481Y63274D01*
X349974Y65781D01*
X347026Y67751D01*
X343750Y69108D01*
X340273Y69800D01*
D02*
G37*
G36*
X203273D02*
X199727D01*
X196250Y69108D01*
X192974Y67751D01*
X190026Y65781D01*
X187519Y63274D01*
X185549Y60326D01*
X184192Y57050D01*
X183500Y53573D01*
Y50027D01*
X184192Y46549D01*
X185549Y43274D01*
X187519Y40325D01*
X190026Y37818D01*
X192974Y35848D01*
X196250Y34492D01*
X199727Y33800D01*
X203273D01*
X206750Y34492D01*
X210026Y35848D01*
X212974Y37818D01*
X215481Y40325D01*
X217451Y43274D01*
X218808Y46549D01*
X219500Y50027D01*
Y53573D01*
X218808Y57050D01*
X217451Y60326D01*
X215481Y63274D01*
X212974Y65781D01*
X210026Y67751D01*
X206750Y69108D01*
X203273Y69800D01*
D02*
G37*
G36*
X54765Y77270D02*
X49098D01*
X43501Y76384D01*
X38112Y74633D01*
X33063Y72060D01*
X28479Y68729D01*
X24472Y64722D01*
X21142Y60138D01*
X18569Y55089D01*
X16818Y49700D01*
X15931Y44103D01*
Y38437D01*
X16818Y32840D01*
X18569Y27451D01*
X21142Y22402D01*
X24472Y17817D01*
X28479Y13811D01*
X33063Y10480D01*
X38112Y7908D01*
X43501Y6156D01*
X49098Y5270D01*
X54765D01*
X60361Y6156D01*
X65751Y7908D01*
X70799Y10480D01*
X75384Y13811D01*
X79391Y17817D01*
X82721Y22402D01*
X85294Y27451D01*
X87045Y32840D01*
X87931Y38437D01*
Y44103D01*
X87045Y49700D01*
X85294Y55089D01*
X82721Y60138D01*
X79391Y64722D01*
X75384Y68729D01*
X70799Y72060D01*
X65751Y74633D01*
X60361Y76384D01*
X54765Y77270D01*
D02*
G37*
%LPD*%
G36*
X431868Y554432D02*
X431961Y554007D01*
X432172Y553633D01*
X432500Y553309D01*
X432946Y553034D01*
X433510Y552809D01*
X434191Y552635D01*
X434990Y552510D01*
X435004Y552509D01*
X435403Y552538D01*
X436073Y552637D01*
X436669Y552765D01*
X437191Y552921D01*
X437639Y553106D01*
X438013Y553319D01*
X438313Y553560D01*
X438540Y553830D01*
Y545990D01*
X438313Y546260D01*
X438013Y546501D01*
X437639Y546714D01*
X437191Y546899D01*
X436669Y547055D01*
X436073Y547183D01*
X435403Y547282D01*
X435085Y547305D01*
X434563Y547235D01*
X433870Y547099D01*
X433206Y546925D01*
X432570Y546712D01*
X431963Y546459D01*
X431385Y546168D01*
X430836Y545838D01*
X430316Y545470D01*
X431893Y554906D01*
X431868Y554432D01*
D02*
G37*
G36*
X445558Y529215D02*
X445327Y528747D01*
X445124Y528237D01*
X444948Y527686D01*
X444799Y527092D01*
X444677Y526457D01*
X444514Y525063D01*
X444474Y524303D01*
X444460Y523501D01*
X439460D01*
X439446Y524303D01*
X439338Y525781D01*
X439243Y526457D01*
X438972Y527686D01*
X438796Y528237D01*
X438593Y528747D01*
X438362Y529215D01*
X438105Y529641D01*
X445815D01*
X445558Y529215D01*
D02*
G37*
G36*
X428964Y526113D02*
X428540Y525959D01*
X428165Y525703D01*
X427841Y525344D01*
X427566Y524882D01*
X427341Y524318D01*
X427167Y523651D01*
X427042Y522882D01*
X426967Y522010D01*
X426942Y521035D01*
X421942D01*
X421917Y522010D01*
X421842Y522882D01*
X421717Y523651D01*
X421543Y524318D01*
X421318Y524882D01*
X421043Y525344D01*
X420719Y525703D01*
X420345Y525959D01*
X419920Y526113D01*
X419446Y526164D01*
X429438D01*
X428964Y526113D01*
D02*
G37*
G36*
X444479Y521269D02*
X444538Y520667D01*
X444635Y520091D01*
X444771Y519540D01*
X444946Y519016D01*
X445160Y518518D01*
X445413Y518046D01*
X445705Y517599D01*
X446035Y517179D01*
X446405Y516785D01*
X437515D01*
X437884Y517179D01*
X438215Y517599D01*
X438507Y518046D01*
X438760Y518518D01*
X438974Y519016D01*
X439149Y519540D01*
X439285Y520091D01*
X439382Y520667D01*
X439440Y521269D01*
X439460Y521897D01*
X444460D01*
X444479Y521269D01*
D02*
G37*
G36*
X608820Y383242D02*
X608395Y383091D01*
X608020Y382840D01*
X607695Y382488D01*
X607420Y382035D01*
X607195Y381482D01*
X607020Y380827D01*
X606895Y380073D01*
X606820Y379218D01*
X606795Y378262D01*
X601795D01*
X601770Y379218D01*
X601695Y380073D01*
X601570Y380827D01*
X601395Y381482D01*
X601170Y382035D01*
X600895Y382488D01*
X600570Y382840D01*
X600195Y383091D01*
X599770Y383242D01*
X599295Y383292D01*
X609295D01*
X608820Y383242D01*
D02*
G37*
G36*
X606820Y369230D02*
X606895Y368363D01*
X607020Y367599D01*
X607194Y366937D01*
X607419Y366376D01*
X607694Y365917D01*
X608018Y365561D01*
X608392Y365306D01*
X608817Y365153D01*
X609291Y365102D01*
X599299D01*
X599773Y365153D01*
X600197Y365306D01*
X600572Y365561D01*
X600896Y365917D01*
X601171Y366376D01*
X601396Y366937D01*
X601570Y367599D01*
X601695Y368363D01*
X601770Y369230D01*
X601795Y370198D01*
X606795D01*
X606820Y369230D01*
D02*
G37*
G36*
X511154Y364349D02*
X511621Y363964D01*
X512097Y363626D01*
X512583Y363333D01*
X513077Y363086D01*
X513581Y362885D01*
X514094Y362730D01*
X514615Y362621D01*
X515146Y362557D01*
X515686Y362540D01*
X509400Y356254D01*
X509383Y356794D01*
X509319Y357325D01*
X509210Y357846D01*
X509055Y358359D01*
X508854Y358863D01*
X508607Y359357D01*
X508314Y359843D01*
X507976Y360319D01*
X507591Y360786D01*
X507161Y361244D01*
X510696Y364779D01*
X511154Y364349D01*
D02*
G37*
G36*
X520679Y360265D02*
X521099Y359935D01*
X521546Y359643D01*
X522018Y359390D01*
X522516Y359176D01*
X523040Y359001D01*
X523591Y358865D01*
X524167Y358768D01*
X524769Y358709D01*
X525397Y358690D01*
Y353690D01*
X524769Y353671D01*
X524167Y353612D01*
X523591Y353515D01*
X523040Y353379D01*
X522516Y353204D01*
X522018Y352990D01*
X521546Y352737D01*
X521099Y352445D01*
X520679Y352114D01*
X520285Y351745D01*
Y360635D01*
X520679Y360265D01*
D02*
G37*
G36*
X595383Y351194D02*
X595332Y351668D01*
X595179Y352093D01*
X594924Y352467D01*
X594568Y352791D01*
X594109Y353066D01*
X593548Y353291D01*
X592886Y353465D01*
X592122Y353590D01*
X591255Y353665D01*
X590287Y353690D01*
Y358690D01*
X591255Y358715D01*
X592122Y358790D01*
X592886Y358915D01*
X593548Y359089D01*
X594109Y359314D01*
X594568Y359589D01*
X594924Y359913D01*
X595179Y360287D01*
X595332Y360712D01*
X595383Y361186D01*
Y351194D01*
D02*
G37*
G36*
X619733Y429292D02*
X619886Y428867D01*
X620141Y428493D01*
X620497Y428169D01*
X620956Y427894D01*
X621517Y427669D01*
X622179Y427495D01*
X622943Y427370D01*
X623810Y427295D01*
X624778Y427270D01*
Y422270D01*
X623810Y422245D01*
X622943Y422170D01*
X622179Y422045D01*
X621517Y421871D01*
X620956Y421646D01*
X620497Y421371D01*
X620141Y421047D01*
X619886Y420672D01*
X619733Y420248D01*
X619682Y419774D01*
Y429766D01*
X619733Y429292D01*
D02*
G37*
G36*
X644501Y425895D02*
X645242Y425335D01*
X646020Y424858D01*
X646836Y424464D01*
X647690Y424153D01*
X648581Y423926D01*
X649510Y423781D01*
X650477Y423719D01*
X651481Y423741D01*
X652522Y423845D01*
X642955Y414278D01*
X643059Y415319D01*
X643081Y416323D01*
X643019Y417290D01*
X642874Y418219D01*
X642647Y419110D01*
X642336Y419963D01*
X641942Y420780D01*
X641465Y421558D01*
X640905Y422299D01*
X640262Y423002D01*
X643798Y426538D01*
X644501Y425895D01*
D02*
G37*
G36*
X660875Y352913D02*
X659167Y350886D01*
X658472Y349897D01*
X657885Y348925D01*
X657404Y347969D01*
X657031Y347030D01*
X656764Y346108D01*
X656603Y345202D01*
X656550Y344313D01*
X651550D01*
X651497Y345202D01*
X651336Y346108D01*
X651069Y347030D01*
X650696Y347969D01*
X650215Y348925D01*
X649628Y349897D01*
X648933Y350886D01*
X648132Y351891D01*
X647225Y352913D01*
X646210Y353952D01*
X661890D01*
X660875Y352913D01*
D02*
G37*
G36*
X613258Y328212D02*
X613411Y327788D01*
X613666Y327413D01*
X614022Y327089D01*
X614481Y326814D01*
X615042Y326589D01*
X615704Y326415D01*
X616469Y326290D01*
X617335Y326215D01*
X618303Y326190D01*
Y321190D01*
X617335Y321165D01*
X616469Y321090D01*
X615704Y320965D01*
X615042Y320791D01*
X614481Y320566D01*
X614022Y320291D01*
X613666Y319967D01*
X613411Y319593D01*
X613258Y319168D01*
X613207Y318694D01*
Y328686D01*
X613258Y328212D01*
D02*
G37*
G36*
X633678Y286136D02*
X633370Y286311D01*
X632998Y286469D01*
X632563Y286607D01*
X632064Y286727D01*
X631502Y286829D01*
X630188Y286977D01*
X628620Y287051D01*
X627741Y287060D01*
Y292060D01*
X628620Y292069D01*
X631502Y292291D01*
X632064Y292393D01*
X632563Y292513D01*
X632998Y292651D01*
X633370Y292808D01*
X633678Y292984D01*
Y286136D01*
D02*
G37*
G36*
X604929Y293636D02*
X605349Y293305D01*
X605796Y293013D01*
X606268Y292760D01*
X606766Y292546D01*
X607290Y292371D01*
X607841Y292235D01*
X608417Y292138D01*
X609019Y292080D01*
X609647Y292060D01*
Y287060D01*
X609019Y287041D01*
X608417Y286982D01*
X607841Y286885D01*
X607290Y286749D01*
X606766Y286574D01*
X606268Y286360D01*
X605796Y286107D01*
X605349Y285815D01*
X604929Y285485D01*
X604535Y285115D01*
Y294005D01*
X604929Y293636D01*
D02*
G37*
G36*
X587429Y278575D02*
X587849Y278245D01*
X588296Y277953D01*
X588768Y277700D01*
X589266Y277486D01*
X589790Y277311D01*
X590341Y277175D01*
X590917Y277078D01*
X591519Y277020D01*
X592147Y277000D01*
Y272000D01*
X591519Y271981D01*
X590917Y271922D01*
X590341Y271825D01*
X589790Y271689D01*
X589266Y271514D01*
X588768Y271300D01*
X588296Y271047D01*
X587849Y270755D01*
X587429Y270425D01*
X587035Y270055D01*
Y278945D01*
X587429Y278575D01*
D02*
G37*
G36*
X634360Y261080D02*
X634167Y261191D01*
X633888Y261289D01*
X633526Y261376D01*
X633078Y261451D01*
X631928Y261567D01*
X630440Y261637D01*
X628613Y261660D01*
Y266660D01*
X629568Y266666D01*
X633526Y266944D01*
X633888Y267031D01*
X634167Y267129D01*
X634360Y267239D01*
Y261080D01*
D02*
G37*
G36*
X595394Y263661D02*
X595601Y263500D01*
X595822Y263357D01*
X596056Y263233D01*
X596304Y263128D01*
X596566Y263042D01*
X596841Y262976D01*
X597130Y262928D01*
X597432Y262899D01*
X597748Y262890D01*
Y260350D01*
X597432Y260340D01*
X597130Y260312D01*
X596841Y260264D01*
X596566Y260198D01*
X596304Y260112D01*
X596056Y260007D01*
X595822Y259883D01*
X595601Y259740D01*
X595394Y259578D01*
X595201Y259398D01*
Y263843D01*
X595394Y263661D01*
D02*
G37*
G36*
X590666Y259398D02*
X590472Y259578D01*
X590265Y259740D01*
X590044Y259883D01*
X589810Y260007D01*
X589562Y260112D01*
X589300Y260198D01*
X589025Y260264D01*
X588736Y260312D01*
X588434Y260340D01*
X588118Y260350D01*
Y262890D01*
X588434Y262899D01*
X588736Y262928D01*
X589025Y262976D01*
X589300Y263042D01*
X589562Y263128D01*
X589810Y263233D01*
X590044Y263357D01*
X590265Y263500D01*
X590472Y263661D01*
X590666Y263843D01*
Y259398D01*
D02*
G37*
G36*
X595394Y253658D02*
X595601Y253496D01*
X595822Y253354D01*
X596056Y253230D01*
X596304Y253125D01*
X596566Y253039D01*
X596841Y252973D01*
X597130Y252925D01*
X597432Y252896D01*
X597748Y252887D01*
Y250347D01*
X597432Y250337D01*
X597130Y250309D01*
X596841Y250261D01*
X596566Y250194D01*
X596304Y250109D01*
X596056Y250004D01*
X595822Y249880D01*
X595601Y249737D01*
X595394Y249575D01*
X595201Y249394D01*
Y253839D01*
X595394Y253658D01*
D02*
G37*
G36*
X590666Y249394D02*
X590472Y249575D01*
X590265Y249737D01*
X590044Y249880D01*
X589810Y250004D01*
X589562Y250109D01*
X589300Y250194D01*
X589025Y250261D01*
X588736Y250309D01*
X588434Y250337D01*
X588118Y250347D01*
Y252887D01*
X588434Y252896D01*
X588736Y252925D01*
X589025Y252973D01*
X589300Y253039D01*
X589562Y253125D01*
X589810Y253230D01*
X590044Y253354D01*
X590265Y253496D01*
X590472Y253658D01*
X590666Y253839D01*
Y249394D01*
D02*
G37*
G36*
X633675Y248944D02*
X633642Y249181D01*
X633541Y249393D01*
X633372Y249580D01*
X633137Y249741D01*
X632834Y249879D01*
X632463Y249991D01*
X632025Y250078D01*
X631520Y250140D01*
X630948Y250178D01*
X630308Y250190D01*
Y252730D01*
X630948Y252742D01*
X632025Y252842D01*
X632463Y252929D01*
X632834Y253041D01*
X633137Y253179D01*
X633372Y253340D01*
X633541Y253527D01*
X633642Y253739D01*
X633675Y253976D01*
Y248944D01*
D02*
G37*
G36*
Y236244D02*
X633642Y236481D01*
X633541Y236693D01*
X633372Y236880D01*
X633137Y237041D01*
X632834Y237178D01*
X632463Y237291D01*
X632025Y237378D01*
X631520Y237440D01*
X630948Y237478D01*
X630308Y237490D01*
Y240030D01*
X630948Y240042D01*
X632025Y240142D01*
X632463Y240229D01*
X632834Y240341D01*
X633137Y240478D01*
X633372Y240641D01*
X633541Y240827D01*
X633642Y241039D01*
X633675Y241276D01*
Y236244D01*
D02*
G37*
G36*
X598000Y222838D02*
X597945Y223310D01*
X597778Y223731D01*
X597500Y224104D01*
X597111Y224426D01*
X596611Y224699D01*
X596000Y224923D01*
X595278Y225096D01*
X594444Y225220D01*
X593512Y225294D01*
X592580Y225220D01*
X591746Y225096D01*
X591024Y224923D01*
X590413Y224699D01*
X589913Y224426D01*
X589524Y224104D01*
X589246Y223731D01*
X589079Y223310D01*
X589024Y222838D01*
Y232801D01*
X589079Y232330D01*
X589246Y231908D01*
X589524Y231535D01*
X589913Y231213D01*
X590413Y230940D01*
X591024Y230717D01*
X591746Y230543D01*
X592580Y230419D01*
X593512Y230345D01*
X594444Y230419D01*
X595278Y230543D01*
X596000Y230717D01*
X596611Y230940D01*
X597111Y231213D01*
X597500Y231535D01*
X597778Y231908D01*
X597945Y232330D01*
X598000Y232801D01*
Y222838D01*
D02*
G37*
G36*
X634360Y222980D02*
X634167Y223091D01*
X633888Y223189D01*
X633526Y223276D01*
X633078Y223351D01*
X631928Y223467D01*
X630440Y223537D01*
X628613Y223560D01*
Y228560D01*
X629568Y228566D01*
X633526Y228844D01*
X633888Y228931D01*
X634167Y229029D01*
X634360Y229139D01*
Y222980D01*
D02*
G37*
G36*
X611939Y232330D02*
X612106Y231908D01*
X612384Y231535D01*
X612773Y231213D01*
X613273Y230940D01*
X613884Y230717D01*
X614606Y230543D01*
X615440Y230419D01*
X616384Y230344D01*
X617440Y230320D01*
Y225320D01*
X616384Y225295D01*
X615440Y225220D01*
X614606Y225096D01*
X613884Y224923D01*
X613273Y224699D01*
X612773Y224426D01*
X612384Y224104D01*
X612106Y223731D01*
X611939Y223310D01*
X611884Y222838D01*
Y232801D01*
X611939Y232330D01*
D02*
G37*
G36*
X575140Y222838D02*
X575085Y223310D01*
X574918Y223731D01*
X574640Y224104D01*
X574251Y224426D01*
X573751Y224699D01*
X573140Y224923D01*
X572418Y225096D01*
X571584Y225220D01*
X570640Y225295D01*
X569584Y225320D01*
Y230320D01*
X570640Y230344D01*
X571584Y230419D01*
X572418Y230543D01*
X573140Y230717D01*
X573751Y230940D01*
X574251Y231213D01*
X574640Y231535D01*
X574918Y231908D01*
X575085Y232330D01*
X575140Y232801D01*
Y222838D01*
D02*
G37*
G36*
X571944Y222131D02*
X573198Y220254D01*
X573166Y220150D01*
X571234Y218668D01*
X569752Y216735D01*
X568820Y214485D01*
X568812Y214428D01*
X562332D01*
X562281Y214469D01*
X561952Y214777D01*
X561637Y214973D01*
X561328Y215180D01*
X561294Y215186D01*
X561265Y215204D01*
X560899Y215265D01*
X560535Y215337D01*
X560501Y215331D01*
X560468Y215336D01*
X560106Y215252D01*
X559742Y215180D01*
X559714Y215161D01*
X559680Y215153D01*
X559379Y214937D01*
X559070Y214730D01*
X559051Y214702D01*
X559023Y214682D01*
X558865Y214428D01*
X556000D01*
X553854Y214001D01*
X552035Y212786D01*
X550819Y210966D01*
X550392Y208820D01*
X550819Y206674D01*
X552035Y204855D01*
X553854Y203640D01*
X556000Y203213D01*
X558865D01*
X559023Y202959D01*
X559051Y202939D01*
X559070Y202910D01*
X559379Y202704D01*
X559680Y202488D01*
X559714Y202480D01*
X559742Y202461D01*
X560106Y202389D01*
X560468Y202305D01*
X560501Y202310D01*
X560535Y202304D01*
X560899Y202376D01*
X561265Y202437D01*
X561294Y202455D01*
X561328Y202461D01*
X561637Y202668D01*
X561952Y202864D01*
X562281Y203172D01*
X562332Y203213D01*
X568812D01*
X568820Y203156D01*
X569752Y200906D01*
X571234Y198973D01*
X573072Y197563D01*
X573238Y197163D01*
X573304Y196495D01*
X573244Y196084D01*
X571944Y194138D01*
X571909Y193964D01*
X530948D01*
X530462Y195137D01*
X557536Y222212D01*
X571928D01*
X571944Y222131D01*
D02*
G37*
G36*
X598000Y203839D02*
X597945Y204310D01*
X597778Y204732D01*
X597500Y205105D01*
X597111Y205427D01*
X596611Y205700D01*
X596000Y205923D01*
X595278Y206097D01*
X594444Y206221D01*
X593512Y206295D01*
X592580Y206221D01*
X591746Y206097D01*
X591024Y205923D01*
X590413Y205700D01*
X589913Y205427D01*
X589524Y205105D01*
X589246Y204732D01*
X589079Y204310D01*
X589024Y203839D01*
Y213802D01*
X589079Y213330D01*
X589246Y212908D01*
X589524Y212536D01*
X589913Y212214D01*
X590413Y211941D01*
X591024Y211717D01*
X591746Y211544D01*
X592580Y211420D01*
X593512Y211346D01*
X594444Y211420D01*
X595278Y211544D01*
X596000Y211717D01*
X596611Y211941D01*
X597111Y212214D01*
X597500Y212536D01*
X597778Y212908D01*
X597945Y213330D01*
X598000Y213802D01*
Y203839D01*
D02*
G37*
G36*
X634360Y210280D02*
X634167Y210391D01*
X633888Y210489D01*
X633526Y210576D01*
X633078Y210651D01*
X631928Y210767D01*
X630440Y210837D01*
X628613Y210860D01*
Y215860D01*
X629568Y215866D01*
X633526Y216144D01*
X633888Y216231D01*
X634167Y216329D01*
X634360Y216439D01*
Y210280D01*
D02*
G37*
G36*
X560929Y212896D02*
X561349Y212565D01*
X561796Y212274D01*
X562268Y212021D01*
X562766Y211807D01*
X563290Y211632D01*
X563841Y211495D01*
X564417Y211398D01*
X565019Y211340D01*
X565647Y211320D01*
Y206320D01*
X565019Y206301D01*
X564417Y206243D01*
X563841Y206145D01*
X563290Y206009D01*
X562766Y205834D01*
X562268Y205620D01*
X561796Y205367D01*
X561349Y205076D01*
X560929Y204745D01*
X560535Y204375D01*
Y213265D01*
X560929Y212896D01*
D02*
G37*
G36*
X611939Y213330D02*
X612106Y212908D01*
X612384Y212536D01*
X612773Y212214D01*
X613273Y211941D01*
X613884Y211717D01*
X614606Y211544D01*
X615440Y211420D01*
X616384Y211345D01*
X617440Y211320D01*
Y206320D01*
X616384Y206296D01*
X615440Y206221D01*
X614606Y206097D01*
X613884Y205923D01*
X613273Y205700D01*
X612773Y205427D01*
X612384Y205105D01*
X612106Y204732D01*
X611939Y204310D01*
X611884Y203839D01*
Y213802D01*
X611939Y213330D01*
D02*
G37*
G36*
X575140Y203839D02*
X575085Y204310D01*
X574918Y204732D01*
X574640Y205105D01*
X574251Y205427D01*
X573751Y205700D01*
X573140Y205923D01*
X572418Y206097D01*
X571584Y206221D01*
X570640Y206296D01*
X569584Y206320D01*
Y211320D01*
X570640Y211345D01*
X571584Y211420D01*
X572418Y211544D01*
X573140Y211717D01*
X573751Y211941D01*
X574251Y212214D01*
X574640Y212536D01*
X574918Y212908D01*
X575085Y213330D01*
X575140Y213802D01*
Y203839D01*
D02*
G37*
G36*
X634360Y197581D02*
X634270Y197614D01*
X634093Y197644D01*
X633828Y197670D01*
X632506Y197728D01*
X629516Y197756D01*
Y202756D01*
X630358Y202762D01*
X633224Y202970D01*
X633529Y203048D01*
X633743Y203137D01*
X633868Y203238D01*
X633904Y203351D01*
X634360Y197581D01*
D02*
G37*
G36*
X81774Y207461D02*
X83469Y205963D01*
X84265Y205355D01*
X85026Y204840D01*
X85752Y204419D01*
X86443Y204091D01*
X87100Y203857D01*
X87721Y203717D01*
X88308Y203670D01*
Y201130D01*
X87721Y201083D01*
X87100Y200943D01*
X86443Y200709D01*
X85752Y200381D01*
X85026Y199960D01*
X84265Y199445D01*
X83469Y198837D01*
X81774Y197339D01*
X80874Y196450D01*
Y208350D01*
X81774Y207461D01*
D02*
G37*
G36*
X57911Y201050D02*
X58051Y198792D01*
X58183Y197799D01*
X58357Y196897D01*
X58573Y196086D01*
X58830Y195365D01*
X59128Y194736D01*
X59469Y194197D01*
X59851Y193749D01*
X58055Y191953D01*
X57607Y192335D01*
X57068Y192675D01*
X56438Y192974D01*
X55718Y193231D01*
X54907Y193446D01*
X54004Y193620D01*
X53012Y193753D01*
X50754Y193893D01*
X49488Y193900D01*
X57903Y202315D01*
X57911Y201050D01*
D02*
G37*
G36*
X598000Y183468D02*
X597945Y183940D01*
X597778Y184361D01*
X597500Y184734D01*
X597111Y185056D01*
X596611Y185329D01*
X596000Y185553D01*
X595278Y185726D01*
X594444Y185850D01*
X593512Y185924D01*
X592580Y185850D01*
X591746Y185726D01*
X591024Y185553D01*
X590413Y185329D01*
X589913Y185056D01*
X589524Y184734D01*
X589246Y184361D01*
X589079Y183940D01*
X589024Y183468D01*
Y193431D01*
X589079Y192960D01*
X589246Y192538D01*
X589524Y192166D01*
X589913Y191843D01*
X590413Y191570D01*
X591024Y191347D01*
X591746Y191173D01*
X592580Y191049D01*
X593512Y190975D01*
X594444Y191049D01*
X595278Y191173D01*
X596000Y191347D01*
X596611Y191570D01*
X597111Y191843D01*
X597500Y192166D01*
X597778Y192538D01*
X597945Y192960D01*
X598000Y193431D01*
Y183468D01*
D02*
G37*
G36*
X634360Y184881D02*
X634267Y184914D01*
X634078Y184944D01*
X633793Y184970D01*
X631702Y185040D01*
X629131Y185056D01*
X628302Y190056D01*
X629223Y190066D01*
X632205Y190302D01*
X632775Y190410D01*
X633276Y190538D01*
X633708Y190685D01*
X634069Y190853D01*
X634360Y191040D01*
Y184881D01*
D02*
G37*
G36*
X524339Y193410D02*
X523909Y192952D01*
X523524Y192485D01*
X523186Y192009D01*
X522893Y191524D01*
X522762Y191261D01*
X523040Y191168D01*
X523591Y191031D01*
X524167Y190934D01*
X524769Y190876D01*
X525397Y190856D01*
Y185856D01*
X524769Y185837D01*
X524167Y185779D01*
X523591Y185681D01*
X523040Y185545D01*
X522516Y185370D01*
X522018Y185156D01*
X521546Y184903D01*
X521099Y184611D01*
X520679Y184281D01*
X520285Y183911D01*
Y190235D01*
X515813Y194706D01*
X516354Y194723D01*
X516885Y194787D01*
X517407Y194896D01*
X517919Y195051D01*
X518423Y195252D01*
X518917Y195499D01*
X519403Y195792D01*
X519879Y196131D01*
X520346Y196515D01*
X520804Y196946D01*
X524339Y193410D01*
D02*
G37*
G36*
X611939Y192960D02*
X612106Y192538D01*
X612384Y192166D01*
X612773Y191843D01*
X613273Y191570D01*
X613884Y191347D01*
X614606Y191173D01*
X615440Y191049D01*
X616384Y190974D01*
X617440Y190950D01*
Y185950D01*
X616384Y185925D01*
X615440Y185850D01*
X614606Y185726D01*
X613884Y185553D01*
X613273Y185329D01*
X612773Y185056D01*
X612384Y184734D01*
X612106Y184361D01*
X611939Y183940D01*
X611884Y183468D01*
Y193431D01*
X611939Y192960D01*
D02*
G37*
G36*
X575212Y183375D02*
X575149Y183846D01*
X574975Y184268D01*
X574690Y184640D01*
X574294Y184963D01*
X573787Y185236D01*
X573169Y185459D01*
X572439Y185633D01*
X571599Y185757D01*
X570647Y185832D01*
X569584Y185856D01*
Y190856D01*
X570633Y190881D01*
X571570Y190956D01*
X572396Y191080D01*
X573111Y191253D01*
X573715Y191477D01*
X574208Y191750D01*
X574590Y192072D01*
X574861Y192444D01*
X575020Y192866D01*
X575069Y193338D01*
X575212Y183375D01*
D02*
G37*
G36*
X519826Y183427D02*
X519495Y183007D01*
X519203Y182561D01*
X518950Y182088D01*
X518736Y181590D01*
X518561Y181066D01*
X518425Y180516D01*
X518328Y179939D01*
X518269Y179337D01*
X518250Y178709D01*
X513250D01*
X513231Y179337D01*
X513172Y179939D01*
X513075Y180516D01*
X512939Y181066D01*
X512764Y181590D01*
X512550Y182088D01*
X512297Y182561D01*
X512005Y183007D01*
X511674Y183427D01*
X511305Y183822D01*
X520195D01*
X519826Y183427D01*
D02*
G37*
G36*
X626120Y181810D02*
X626270Y180960D01*
X626520Y180210D01*
X626870Y179560D01*
X627320Y179010D01*
X627870Y178560D01*
X628520Y178210D01*
X629270Y177960D01*
X630120Y177810D01*
X630164Y177808D01*
X633526Y178044D01*
X633888Y178131D01*
X634167Y178229D01*
X634360Y178340D01*
Y172181D01*
X634167Y172291D01*
X633888Y172389D01*
X633526Y172476D01*
X633078Y172551D01*
X631928Y172667D01*
X630440Y172737D01*
X629346Y172751D01*
X628620Y172725D01*
X627664Y172619D01*
X626737Y172442D01*
X625840Y172194D01*
X624972Y171876D01*
X624133Y171487D01*
X623323Y171028D01*
X622543Y170497D01*
X621792Y169896D01*
X621070Y169224D01*
X617534Y172760D01*
X618206Y173482D01*
X618807Y174233D01*
X619338Y175013D01*
X619797Y175823D01*
X620186Y176662D01*
X620504Y177530D01*
X620752Y178427D01*
X620929Y179354D01*
X621035Y180310D01*
X621070Y181296D01*
X626070Y182760D01*
X626120Y181810D01*
D02*
G37*
G36*
X598000Y164469D02*
X597945Y164940D01*
X597778Y165362D01*
X597500Y165735D01*
X597111Y166057D01*
X596611Y166330D01*
X596000Y166553D01*
X595278Y166727D01*
X594444Y166851D01*
X593512Y166925D01*
X592580Y166851D01*
X591746Y166727D01*
X591024Y166553D01*
X590413Y166330D01*
X589913Y166057D01*
X589524Y165735D01*
X589246Y165362D01*
X589079Y164940D01*
X589024Y164469D01*
Y174432D01*
X589079Y173960D01*
X589246Y173538D01*
X589524Y173166D01*
X589913Y172844D01*
X590413Y172571D01*
X591024Y172347D01*
X591746Y172174D01*
X592580Y172050D01*
X593512Y171976D01*
X594444Y172050D01*
X595278Y172174D01*
X596000Y172347D01*
X596611Y172571D01*
X597111Y172844D01*
X597500Y173166D01*
X597778Y173538D01*
X597945Y173960D01*
X598000Y174432D01*
Y164469D01*
D02*
G37*
G36*
X560929Y173526D02*
X561349Y173195D01*
X561796Y172903D01*
X562268Y172651D01*
X562766Y172437D01*
X563290Y172262D01*
X563841Y172125D01*
X564417Y172028D01*
X565019Y171970D01*
X565647Y171950D01*
Y166950D01*
X565019Y166931D01*
X564417Y166873D01*
X563841Y166775D01*
X563290Y166639D01*
X562766Y166464D01*
X562268Y166250D01*
X561796Y165997D01*
X561349Y165706D01*
X560929Y165375D01*
X560535Y165005D01*
Y173895D01*
X560929Y173526D01*
D02*
G37*
G36*
X611939Y173960D02*
X612106Y173538D01*
X612384Y173166D01*
X612773Y172844D01*
X613273Y172571D01*
X613884Y172347D01*
X614606Y172174D01*
X615440Y172050D01*
X616384Y171975D01*
X617440Y171950D01*
Y166950D01*
X616384Y166926D01*
X615440Y166851D01*
X614606Y166727D01*
X613884Y166553D01*
X613273Y166330D01*
X612773Y166057D01*
X612384Y165735D01*
X612106Y165362D01*
X611939Y164940D01*
X611884Y164469D01*
Y174432D01*
X611939Y173960D01*
D02*
G37*
G36*
X575140Y164469D02*
X575085Y164940D01*
X574918Y165362D01*
X574640Y165735D01*
X574251Y166057D01*
X573751Y166330D01*
X573140Y166553D01*
X572418Y166727D01*
X571584Y166851D01*
X570640Y166926D01*
X569584Y166950D01*
Y171950D01*
X570640Y171975D01*
X571584Y172050D01*
X572418Y172174D01*
X573140Y172347D01*
X573751Y172571D01*
X574251Y172844D01*
X574640Y173166D01*
X574918Y173538D01*
X575085Y173960D01*
X575140Y174432D01*
Y164469D01*
D02*
G37*
G36*
X349233Y152287D02*
X348837Y152655D01*
X348415Y152985D01*
X347968Y153275D01*
X347495Y153527D01*
X346996Y153740D01*
X346471Y153915D01*
X345920Y154050D01*
X345344Y154147D01*
X344742Y154205D01*
X344114Y154225D01*
X344092Y159225D01*
X344720Y159244D01*
X345323Y159303D01*
X345899Y159401D01*
X346448Y159537D01*
X346972Y159713D01*
X347469Y159928D01*
X347941Y160181D01*
X348386Y160474D01*
X348805Y160806D01*
X349198Y161177D01*
X349233Y152287D01*
D02*
G37*
G36*
X307137Y161235D02*
X307305Y160813D01*
X307585Y160441D01*
X307976Y160118D01*
X308478Y159845D01*
X309091Y159622D01*
X309815Y159448D01*
X310651Y159324D01*
X311597Y159250D01*
X312655Y159225D01*
Y154225D01*
X311601Y154200D01*
X310658Y154125D01*
X309827Y154002D01*
X309107Y153828D01*
X308497Y153604D01*
X307999Y153331D01*
X307612Y153009D01*
X307336Y152637D01*
X307171Y152215D01*
X307118Y151743D01*
X307079Y161706D01*
X307137Y161235D01*
D02*
G37*
G36*
X293215Y151718D02*
X293160Y152190D01*
X292993Y152612D01*
X292715Y152984D01*
X292326Y153306D01*
X291826Y153579D01*
X291215Y153803D01*
X290493Y153976D01*
X289659Y154100D01*
X288715Y154175D01*
X287659Y154200D01*
Y159200D01*
X288715Y159224D01*
X289659Y159299D01*
X290493Y159423D01*
X291215Y159597D01*
X291826Y159820D01*
X292326Y160093D01*
X292715Y160415D01*
X292993Y160788D01*
X293160Y161210D01*
X293215Y161681D01*
Y151718D01*
D02*
G37*
G36*
X277154Y161210D02*
X277321Y160788D01*
X277599Y160415D01*
X277987Y160093D01*
X278488Y159820D01*
X279099Y159597D01*
X279821Y159423D01*
X280655Y159299D01*
X281599Y159224D01*
X282655Y159200D01*
Y154200D01*
X281599Y154175D01*
X280655Y154100D01*
X279821Y153976D01*
X279099Y153803D01*
X278488Y153579D01*
X277987Y153306D01*
X277599Y152984D01*
X277321Y152612D01*
X277154Y152190D01*
X277099Y151718D01*
Y161681D01*
X277154Y161210D01*
D02*
G37*
G36*
X263215Y151718D02*
X263160Y152190D01*
X262993Y152612D01*
X262715Y152984D01*
X262326Y153306D01*
X261826Y153579D01*
X261215Y153803D01*
X260493Y153976D01*
X259659Y154100D01*
X258715Y154175D01*
X257659Y154200D01*
Y159200D01*
X258715Y159224D01*
X259659Y159299D01*
X260493Y159423D01*
X261215Y159597D01*
X261826Y159820D01*
X262326Y160093D01*
X262715Y160415D01*
X262993Y160788D01*
X263160Y161210D01*
X263215Y161681D01*
Y151718D01*
D02*
G37*
G36*
X247154Y161210D02*
X247321Y160788D01*
X247599Y160415D01*
X247987Y160093D01*
X248488Y159820D01*
X249099Y159597D01*
X249821Y159423D01*
X250655Y159299D01*
X251599Y159224D01*
X252655Y159200D01*
Y154200D01*
X251599Y154175D01*
X250655Y154100D01*
X249821Y153976D01*
X249099Y153803D01*
X248488Y153579D01*
X247987Y153306D01*
X247599Y152984D01*
X247321Y152612D01*
X247154Y152190D01*
X247099Y151718D01*
Y161681D01*
X247154Y161210D01*
D02*
G37*
G36*
X233215Y151718D02*
X233160Y152190D01*
X232993Y152612D01*
X232715Y152984D01*
X232326Y153306D01*
X231826Y153579D01*
X231215Y153803D01*
X230493Y153976D01*
X229659Y154100D01*
X228715Y154175D01*
X227659Y154200D01*
Y159200D01*
X228715Y159224D01*
X229659Y159299D01*
X230493Y159423D01*
X231215Y159597D01*
X231826Y159820D01*
X232326Y160093D01*
X232715Y160415D01*
X232993Y160788D01*
X233160Y161210D01*
X233215Y161681D01*
Y151718D01*
D02*
G37*
G36*
X217154Y161210D02*
X217321Y160788D01*
X217599Y160415D01*
X217987Y160093D01*
X218488Y159820D01*
X219099Y159597D01*
X219821Y159423D01*
X220655Y159299D01*
X221599Y159224D01*
X222655Y159200D01*
Y154200D01*
X221599Y154175D01*
X220655Y154100D01*
X219821Y153976D01*
X219099Y153803D01*
X218488Y153579D01*
X217987Y153306D01*
X217599Y152984D01*
X217321Y152612D01*
X217154Y152190D01*
X217099Y151718D01*
Y161681D01*
X217154Y161210D01*
D02*
G37*
G36*
X518285Y145000D02*
X518391Y144044D01*
X518568Y143117D01*
X518816Y142220D01*
X519134Y141352D01*
X519523Y140513D01*
X519982Y139703D01*
X520513Y138923D01*
X521114Y138172D01*
X521786Y137450D01*
X519286Y132879D01*
X518578Y133515D01*
X517871Y134010D01*
X517164Y134364D01*
X516457Y134576D01*
X515750Y134647D01*
X515043Y134576D01*
X514336Y134364D01*
X513629Y134010D01*
X512922Y133515D01*
X512215Y132879D01*
X509715Y137450D01*
X510386Y138172D01*
X510987Y138923D01*
X511518Y139703D01*
X511977Y140513D01*
X512366Y141352D01*
X512684Y142220D01*
X512932Y143117D01*
X513109Y144044D01*
X513215Y145000D01*
X513250Y145985D01*
X518250D01*
X518285Y145000D01*
D02*
G37*
G36*
X305074Y131322D02*
X304600Y131271D01*
X304176Y131119D01*
X303801Y130863D01*
X303477Y130505D01*
X303202Y130045D01*
X302978Y129482D01*
X302803Y128816D01*
X302678Y128048D01*
X302603Y127177D01*
X302578Y126203D01*
X297578D01*
X297553Y127179D01*
X297479Y128052D01*
X297354Y128822D01*
X297179Y129490D01*
X296954Y130055D01*
X296680Y130518D01*
X296355Y130878D01*
X295981Y131135D01*
X295557Y131290D01*
X295082Y131342D01*
X305074Y131322D01*
D02*
G37*
G36*
X275074D02*
X274600Y131271D01*
X274176Y131119D01*
X273801Y130863D01*
X273477Y130505D01*
X273202Y130045D01*
X272978Y129482D01*
X272803Y128816D01*
X272678Y128048D01*
X272603Y127177D01*
X272578Y126203D01*
X267578D01*
X267553Y127179D01*
X267479Y128052D01*
X267354Y128822D01*
X267179Y129490D01*
X266954Y130055D01*
X266680Y130518D01*
X266355Y130878D01*
X265981Y131135D01*
X265557Y131290D01*
X265082Y131342D01*
X275074Y131322D01*
D02*
G37*
G36*
X245074D02*
X244600Y131271D01*
X244176Y131119D01*
X243801Y130863D01*
X243477Y130505D01*
X243202Y130045D01*
X242978Y129482D01*
X242803Y128816D01*
X242678Y128048D01*
X242603Y127177D01*
X242578Y126203D01*
X237578D01*
X237553Y127179D01*
X237479Y128052D01*
X237354Y128822D01*
X237179Y129490D01*
X236954Y130055D01*
X236680Y130518D01*
X236355Y130878D01*
X235981Y131135D01*
X235557Y131290D01*
X235082Y131342D01*
X245074Y131322D01*
D02*
G37*
G36*
X215074D02*
X214600Y131271D01*
X214176Y131119D01*
X213801Y130863D01*
X213477Y130505D01*
X213202Y130045D01*
X212978Y129482D01*
X212803Y128816D01*
X212678Y128048D01*
X212603Y127177D01*
X212578Y126203D01*
X207578D01*
X207554Y127179D01*
X207479Y128052D01*
X207354Y128822D01*
X207179Y129490D01*
X206954Y130055D01*
X206680Y130518D01*
X206355Y130878D01*
X205981Y131135D01*
X205557Y131290D01*
X205082Y131342D01*
X215074Y131322D01*
D02*
G37*
G36*
X302578Y110662D02*
X302623Y109835D01*
X302757Y109001D01*
X302981Y108160D01*
X303295Y107313D01*
X303698Y106459D01*
X304190Y105598D01*
X304772Y104730D01*
X305444Y103856D01*
X306205Y102974D01*
X307056Y102086D01*
X293056Y102196D01*
X293915Y103066D01*
X294684Y103933D01*
X295362Y104794D01*
X295950Y105652D01*
X296448Y106504D01*
X296855Y107353D01*
X297171Y108197D01*
X297397Y109036D01*
X297533Y109871D01*
X297578Y110702D01*
X302578Y110662D01*
D02*
G37*
G36*
X272578D02*
X272623Y109835D01*
X272757Y109001D01*
X272981Y108160D01*
X273295Y107313D01*
X273698Y106459D01*
X274190Y105598D01*
X274772Y104730D01*
X275444Y103856D01*
X276205Y102974D01*
X277056Y102086D01*
X263056Y102196D01*
X263915Y103066D01*
X264684Y103933D01*
X265362Y104794D01*
X265950Y105652D01*
X266448Y106504D01*
X266855Y107353D01*
X267171Y108197D01*
X267397Y109036D01*
X267533Y109871D01*
X267578Y110702D01*
X272578Y110662D01*
D02*
G37*
G36*
X242578D02*
X242623Y109835D01*
X242757Y109001D01*
X242981Y108160D01*
X243295Y107313D01*
X243698Y106459D01*
X244190Y105598D01*
X244772Y104730D01*
X245444Y103856D01*
X246205Y102974D01*
X247056Y102086D01*
X233056Y102196D01*
X233915Y103066D01*
X234684Y103933D01*
X235362Y104794D01*
X235950Y105652D01*
X236448Y106504D01*
X236855Y107353D01*
X237171Y108197D01*
X237397Y109036D01*
X237533Y109871D01*
X237578Y110702D01*
X242578Y110662D01*
D02*
G37*
G36*
X212578D02*
X212623Y109835D01*
X212757Y109001D01*
X212981Y108160D01*
X213295Y107313D01*
X213698Y106459D01*
X214190Y105598D01*
X214772Y104730D01*
X215444Y103856D01*
X216205Y102974D01*
X217056Y102086D01*
X203056Y102196D01*
X203915Y103066D01*
X204684Y103933D01*
X205362Y104794D01*
X205950Y105652D01*
X206448Y106504D01*
X206855Y107353D01*
X207171Y108197D01*
X207397Y109036D01*
X207533Y109871D01*
X207578Y110702D01*
X212578Y110662D01*
D02*
G37*
G36*
X189700Y91674D02*
X189557Y91222D01*
X189551Y90702D01*
X189683Y90114D01*
X189954Y89458D01*
X190362Y88734D01*
X190908Y87942D01*
X191592Y87083D01*
X192414Y86156D01*
X193375Y85161D01*
X189839Y81625D01*
X188844Y82585D01*
X187057Y84092D01*
X186266Y84638D01*
X185542Y85046D01*
X184886Y85316D01*
X184298Y85449D01*
X183778Y85443D01*
X183326Y85299D01*
X182941Y85018D01*
X189982Y92058D01*
X189700Y91674D01*
D02*
G37*
G36*
X676010Y71882D02*
X676608Y71430D01*
X677250Y71033D01*
X677934Y70689D01*
X678662Y70400D01*
X679434Y70165D01*
X680249Y69985D01*
X681107Y69859D01*
X682008Y69787D01*
X682952Y69770D01*
X674538Y61355D01*
X674520Y62299D01*
X674448Y63201D01*
X674322Y64059D01*
X674142Y64873D01*
X673907Y65645D01*
X673618Y66373D01*
X673275Y67058D01*
X672877Y67700D01*
X672425Y68298D01*
X671919Y68853D01*
X675454Y72389D01*
X676010Y71882D01*
D02*
G37*
D10*
X228617Y251617D02*
X592933D01*
X65250Y164250D02*
X141250D01*
X228617Y251617D01*
X61750Y167750D02*
Y190053D01*
X49404Y202400D02*
X61750Y190053D01*
Y167750D02*
X65250Y164250D01*
X74803Y202400D02*
X105917D01*
X561237Y261620D02*
X592933D01*
X105917Y202400D02*
X194267Y290750D01*
X532107D02*
X561237Y261620D01*
X194267Y290750D02*
X532107D01*
X1095098Y457598D02*
Y472416D01*
X1019000Y430400D02*
X1019250Y430650D01*
X1087370Y415323D02*
X1091448Y419400D01*
X1088850Y425650D02*
X1091448Y423052D01*
X1087370Y404012D02*
Y415323D01*
X1091448Y419400D02*
Y423052D01*
X1082840Y425650D02*
X1088850D01*
X1095666Y426238D02*
X1107380D01*
X1082840Y430650D02*
X1091254D01*
X1095666Y426238D01*
X1082840Y445650D02*
X1091774D01*
X1095136Y449012D02*
X1107370D01*
X1091774Y445650D02*
X1095136Y449012D01*
X1082840Y450650D02*
X1088150D01*
X1095098Y457598D01*
X1044750Y458844D02*
X1048847Y454747D01*
X1052944Y450650D02*
X1055840D01*
X1044750Y458844D02*
Y469250D01*
X1048847Y454747D02*
X1052944Y450650D01*
X1048847Y454747D02*
X1048847D01*
X1044031Y443000D02*
X1046381Y440650D01*
X1043000Y443000D02*
X1044031D01*
X1046381Y440650D02*
X1055840D01*
X1029708Y455440D02*
X1040560D01*
X1050350Y445650D01*
X1055840D01*
X1029708Y474440D02*
X1039560D01*
X1044750Y469250D01*
X592933Y251617D02*
X605633D01*
X618490Y238760D02*
X643377D01*
X605633Y251617D02*
X618490Y238760D01*
X592933Y261620D02*
X612140D01*
X622300Y251460D01*
X643377D01*
D13*
X1074749Y424501D02*
Y424654D01*
X1074489Y424761D02*
X1074749Y424501D01*
D17*
X638795Y170180D02*
Y294386D01*
D18*
X652197Y298408D02*
X732092D01*
Y166370D02*
Y298408D01*
X652197Y166370D02*
X732092D01*
X652197D02*
Y298408D01*
D19*
X1052500Y390500D02*
D03*
X1067500D02*
D03*
D20*
X1126370Y449012D02*
D03*
X1126380Y426238D02*
D03*
X1106370Y404012D02*
D03*
X1087370D02*
D03*
X1107380Y426238D02*
D03*
X1107370Y449012D02*
D03*
D21*
X1063840Y424650D02*
D03*
X1074840D02*
D03*
Y451650D02*
D03*
X1063840D02*
D03*
D22*
X1069340Y438150D02*
D03*
D23*
X1094740Y312420D02*
D03*
X1018540D02*
D03*
Y250220D02*
D03*
X1094740D02*
D03*
D24*
X792320Y229260D02*
D03*
Y248260D02*
D03*
X772320Y238760D02*
D03*
D25*
X879730Y226260D02*
D03*
Y251260D02*
D03*
X834230D02*
D03*
Y226260D02*
D03*
D26*
X740923Y175260D02*
D03*
X643377D02*
D03*
X740913Y187960D02*
D03*
Y200660D02*
D03*
Y213360D02*
D03*
Y226060D02*
D03*
Y238760D02*
D03*
Y251460D02*
D03*
Y264160D02*
D03*
Y276860D02*
D03*
Y289560D02*
D03*
X643377Y187960D02*
D03*
Y200660D02*
D03*
Y213360D02*
D03*
Y226060D02*
D03*
Y238760D02*
D03*
Y251460D02*
D03*
Y264160D02*
D03*
Y276860D02*
D03*
D27*
Y289560D02*
D03*
D28*
X441960Y549910D02*
D03*
Y532910D02*
D03*
X1048620Y550410D02*
D03*
Y533410D02*
D03*
X1096010Y549910D02*
D03*
Y532910D02*
D03*
X1110750Y363750D02*
D03*
Y346750D02*
D03*
X1125880Y312420D02*
D03*
Y295420D02*
D03*
X1078230Y198560D02*
D03*
Y181560D02*
D03*
D29*
X846827Y299180D02*
D03*
Y280180D02*
D03*
X300157Y137700D02*
D03*
Y156700D02*
D03*
X270157Y137700D02*
D03*
Y156700D02*
D03*
X240157Y137700D02*
D03*
Y156700D02*
D03*
X210157Y137700D02*
D03*
Y156700D02*
D03*
X424442Y551532D02*
D03*
Y532533D02*
D03*
X1030840Y551532D02*
D03*
Y532533D02*
D03*
X1078492Y551532D02*
D03*
Y532533D02*
D03*
X1029708Y474440D02*
D03*
Y455440D02*
D03*
X1130262Y350265D02*
D03*
Y369265D02*
D03*
X1018383Y369030D02*
D03*
Y350030D02*
D03*
X876592Y299180D02*
D03*
Y280180D02*
D03*
X856906Y178825D02*
D03*
Y197824D02*
D03*
X886672Y178825D02*
D03*
Y197824D02*
D03*
X906358Y299180D02*
D03*
Y280180D02*
D03*
X814476Y197580D02*
D03*
Y178580D02*
D03*
X777296Y299180D02*
D03*
Y280180D02*
D03*
X807061Y299180D02*
D03*
Y280180D02*
D03*
X604942Y169450D02*
D03*
Y188450D02*
D03*
X582082Y208820D02*
D03*
Y227820D02*
D03*
X604942Y208820D02*
D03*
Y227820D02*
D03*
X782320Y197580D02*
D03*
Y178580D02*
D03*
X582082Y169450D02*
D03*
Y188450D02*
D03*
D30*
X604520Y424770D02*
D03*
Y392270D02*
D03*
D31*
X1050110Y358885D02*
D03*
X1086110D02*
D03*
D32*
X983250Y134010D02*
D03*
Y207010D02*
D03*
D33*
X1043940Y198560D02*
D03*
Y146560D02*
D03*
D34*
X1101090Y198560D02*
D03*
Y166560D02*
D03*
D35*
X604295Y323690D02*
D03*
Y356190D02*
D03*
D36*
X1062598Y472440D02*
D03*
X1095098D02*
D03*
D37*
X1019000Y430400D02*
D03*
Y397900D02*
D03*
D38*
X1165180Y250220D02*
D03*
X1132680D02*
D03*
X1165180Y211415D02*
D03*
X1132680D02*
D03*
X1165180Y172610D02*
D03*
X1132680D02*
D03*
X1165180Y133805D02*
D03*
X1132680D02*
D03*
X1165180Y95000D02*
D03*
X1132680D02*
D03*
D41*
X1055840Y450650D02*
D03*
Y445650D02*
D03*
Y440650D02*
D03*
Y435650D02*
D03*
Y430650D02*
D03*
Y425650D02*
D03*
X1082840D02*
D03*
Y430650D02*
D03*
Y435650D02*
D03*
Y440650D02*
D03*
Y445650D02*
D03*
Y450650D02*
D03*
D68*
X1063840Y469441D02*
G03*
X1062598Y472440I-4241J0D01*
G01*
X1119237Y350265D02*
G03*
X1110750Y346750I0J-12002D01*
G01*
X1116948Y363750D02*
G03*
X1130262Y369265I0J18828D01*
G01*
X1048620Y550410D02*
G03*
X1047498Y551532I-1122J0D01*
G01*
X1078492D02*
G03*
X1080114Y549910I1622J0D01*
G01*
X1095098Y472440D02*
Y494388D01*
X1170310Y472440D02*
X1193000Y449750D01*
X1095098Y472440D02*
X1170310D01*
X1193000Y419500D02*
Y449750D01*
X1127736Y369447D02*
X1142947D01*
X1193000Y419500D01*
X994660Y397900D02*
X1019000D01*
X994660Y398510D02*
X994955Y398805D01*
X1119237Y350265D02*
X1130262D01*
X1160152D01*
X1110750Y363750D02*
X1116948D01*
X1090975D02*
X1110750D01*
X1086110Y358885D02*
X1090975Y363750D01*
X1078492Y510994D02*
X1095098Y494388D01*
X1078492Y510994D02*
Y532533D01*
X1096010Y512250D02*
Y532910D01*
X1048620Y512250D02*
Y533410D01*
X1165180Y172610D02*
X1165760Y172030D01*
X1190680D02*
X1191260Y171450D01*
X1165760Y172030D02*
X1190680D01*
X1101090Y139700D02*
Y166560D01*
X994680Y369300D02*
X1018113D01*
X1018383Y369030D01*
X994410Y369570D02*
X994680Y369300D01*
X1030840Y551532D02*
X1047498D01*
X1080114Y549910D02*
X1096010D01*
X1042462Y350030D02*
X1050110Y357678D01*
Y358894D01*
X1018383Y350030D02*
X1042462D01*
X1018462Y312498D02*
Y349952D01*
Y312498D02*
X1018540Y312420D01*
X1018383Y350030D02*
X1018462Y349952D01*
X1094740Y312420D02*
X1125880D01*
X1151890D01*
X1165180Y250220D02*
Y299130D01*
X1151890Y312420D02*
X1165180Y299130D01*
Y211415D02*
Y250220D01*
Y172610D02*
Y211415D01*
Y133805D02*
Y172610D01*
Y95000D02*
Y133805D01*
D69*
X424442Y551532D02*
G03*
X428357Y549910I3915J3915D01*
G01*
X424442Y447498D02*
X515750Y356190D01*
X604295D01*
X515750Y188356D02*
X555213Y227820D01*
X582082D01*
X515750Y139950D02*
Y188356D01*
X582082Y188450D02*
X604942D01*
X515750Y188356D02*
X581989D01*
X557910Y97790D02*
X646517D01*
X515750Y139950D02*
X557910Y97790D01*
X300157Y156700D02*
X300182Y156725D01*
X353725D01*
X353750Y156750D01*
X270157Y156700D02*
X300157D01*
X441960Y512250D02*
Y532910D01*
X424442Y447498D02*
Y532533D01*
X842410Y264160D02*
X846827Y268577D01*
Y280180D01*
X740913Y264160D02*
X842410D01*
X1013250Y436150D02*
X1019000Y430400D01*
X1013250Y490010D02*
X1029970Y506730D01*
X1013250Y436150D02*
Y490010D01*
X748100Y430600D02*
X1019000D01*
X639690Y323690D02*
X654050Y338050D01*
Y361950D01*
X604295Y323690D02*
X639690D01*
X582500Y274500D02*
X615000D01*
X625340Y264160D02*
X643377D01*
X615000Y274500D02*
X625340Y264160D01*
X600000Y289560D02*
X643377D01*
X556000Y169450D02*
X582082D01*
X443110Y67310D02*
X515750Y139950D01*
X582082Y227820D02*
X604942D01*
X556000Y208820D02*
X582082D01*
X924500Y157500D02*
Y295000D01*
X909260Y238760D02*
X924250Y253750D01*
X772320Y238760D02*
X909260D01*
X920320Y299180D02*
X924500Y295000D01*
X876592Y299180D02*
X920320D01*
X903175Y178825D02*
X924500Y157500D01*
Y96580D02*
X929640Y91440D01*
X924500Y96580D02*
Y157500D01*
X807061Y299180D02*
X846827D01*
X876592D01*
X848740Y226260D02*
X856906Y218094D01*
Y197824D02*
Y218094D01*
X834230Y226260D02*
X848740D01*
X834230Y251260D02*
X859260D01*
X876592Y268592D02*
Y280180D01*
X859260Y251260D02*
X876592Y268592D01*
X886672Y178825D02*
X903175D01*
X866906D02*
X886672D01*
X807520Y226260D02*
X834230D01*
X807720Y251460D02*
X834030D01*
X834230Y251260D01*
X814476Y178580D02*
X833250D01*
X807061Y280180D02*
X826250D01*
X756990Y175260D02*
X770000Y162250D01*
X862750D02*
X866750Y166250D01*
X770000Y162250D02*
X862750D01*
X866750Y166250D02*
Y178669D01*
X866906Y178825D01*
X740923Y175260D02*
X756990D01*
X756920Y187960D02*
X766300Y178580D01*
X782320D01*
X740913Y187960D02*
X741317Y187556D01*
X782320Y178580D02*
X814476D01*
X740913Y187960D02*
X756920D01*
X740250Y176000D02*
X740923Y175327D01*
Y175260D02*
Y175327D01*
X782320Y197580D02*
X814476D01*
X829850D01*
X848605Y178825D01*
X866906D01*
X764590Y197580D02*
X782320D01*
X761510Y200660D02*
X764590Y197580D01*
X740913Y200660D02*
X761510D01*
X359410Y67310D02*
X443110D01*
X197530Y77470D02*
X349250D01*
X359410Y67310D01*
X180000Y95000D02*
X197530Y77470D01*
X210078Y95078D02*
Y137622D01*
X210000Y95000D02*
X210078Y95078D01*
Y137622D02*
X210157Y137700D01*
X946150Y74930D02*
X1032301D01*
X929640Y91440D02*
X946150Y74930D01*
X1032301D02*
X1052371Y95000D01*
X629516Y200256D02*
X642973D01*
X643377Y200660D01*
X617710Y188450D02*
X629516Y200256D01*
X604942Y188450D02*
X617710D01*
X623570Y182880D02*
X628246Y187556D01*
X642973D01*
X623570Y175260D02*
Y182880D01*
X621349Y227820D02*
X623108Y226060D01*
X643377D01*
X604942Y227820D02*
X621349D01*
X428357Y549910D02*
X441960D01*
X1029970Y531663D02*
X1030840Y532533D01*
X1029970Y506730D02*
Y531663D01*
X646517Y97790D02*
X683037Y61270D01*
X604295Y392045D02*
X604520Y392270D01*
X604295Y356190D02*
Y392045D01*
X730250Y412750D02*
X748100Y430600D01*
X604520Y424770D02*
X642030D01*
X654050Y412750D01*
X792320Y229260D02*
X804520D01*
X807520Y226260D01*
X772820Y229260D02*
X792320D01*
X740913Y226060D02*
X769620D01*
X772820Y229260D01*
X582082Y208820D02*
X604942D01*
X620300D02*
X624840Y213360D01*
X643377D01*
X604942Y208820D02*
X620300D01*
X804520Y248260D02*
X807720Y251460D01*
X740913Y238760D02*
X772320D01*
X772820Y248260D02*
X792320D01*
X769620Y251460D02*
X772820Y248260D01*
X792320D02*
X804520D01*
X740913Y251460D02*
X769620D01*
X755650Y289560D02*
X765224Y299134D01*
X777250D01*
X740913Y289560D02*
X755650D01*
X740913Y276860D02*
X756920D01*
X760730Y280670D01*
X776806D01*
X777250Y299134D02*
X777296Y299180D01*
X807061D01*
X777296Y280180D02*
X807061D01*
X776806Y280670D02*
X777296Y280180D01*
X240157Y156700D02*
X270157D01*
X210157D02*
X240157D01*
X240078Y95078D02*
Y137622D01*
X240157Y137700D01*
X240000Y95000D02*
X240078Y95078D01*
X270078D02*
Y137622D01*
X270157Y137700D01*
X270000Y95000D02*
X270078Y95078D01*
X300078D02*
Y137622D01*
X300157Y137700D01*
X300000Y95000D02*
X300078Y95078D01*
X582082Y169450D02*
X604942D01*
X617760D02*
X623570Y175260D01*
X604942Y169450D02*
X617760D01*
X623570Y175260D02*
X643377D01*
X642973Y187556D02*
X643377Y187960D01*
D70*
X1037314Y203808D02*
G03*
X1024969Y207010I-12345J-22198D01*
G01*
X1063840Y443150D02*
Y451650D01*
X1090466Y467808D02*
X1095098Y472440D01*
X1074840Y451650D02*
Y458590D01*
X1084058Y467808D02*
X1090466D01*
X1074840Y458590D02*
X1084058Y467808D01*
X1063840Y451650D02*
Y469441D01*
Y443150D02*
X1064340D01*
X1068070Y146050D02*
X1078230Y135890D01*
Y181560D01*
Y135890D02*
X1082371Y131749D01*
X1125880Y280010D02*
Y295420D01*
Y280010D02*
X1132680Y273210D01*
Y250220D02*
Y273210D01*
X1094740Y250220D02*
X1132680D01*
Y211415D02*
Y250220D01*
Y172610D02*
Y211415D01*
Y133805D02*
Y172610D01*
Y95000D02*
Y133805D01*
X1082371Y95000D02*
X1132680D01*
X1082371D02*
Y131749D01*
X1044450Y146050D02*
X1068070D01*
X1043940Y146560D02*
X1044450Y146050D01*
X1078230Y198560D02*
X1101090D01*
X1037314Y203808D02*
X1037690D01*
X1043940Y198560D02*
X1078230D01*
X1037690Y203808D02*
X1043910Y198533D01*
X983250Y207010D02*
X1024969D01*
D71*
X906358Y251260D02*
Y280180D01*
X879730Y251260D02*
X906358D01*
Y226260D02*
X906500Y226118D01*
X879730Y226260D02*
X906358D01*
X906500Y204250D02*
Y226118D01*
X900074Y197824D02*
X906500Y204250D01*
X886672Y197824D02*
X900074D01*
D72*
X962371Y95000D02*
Y134010D01*
X983250D01*
D73*
X201500Y51800D02*
D03*
X338500D02*
D03*
X983871Y51800D02*
D03*
X1060871D02*
D03*
D74*
X300000Y95000D02*
D03*
X270000D02*
D03*
X240000D02*
D03*
X210000D02*
D03*
X330000D02*
D03*
X360000D02*
D03*
X1082371Y95000D02*
D03*
X1052371D02*
D03*
X1022371D02*
D03*
X992371D02*
D03*
D75*
X180000Y95000D02*
D03*
X962371Y95000D02*
D03*
D76*
X683037Y61270D02*
D03*
X708437D02*
D03*
X733837D02*
D03*
X759237D02*
D03*
X784637D02*
D03*
X810037D02*
D03*
X835437D02*
D03*
X74803Y125692D02*
D03*
X49403Y278600D02*
D03*
Y253200D02*
D03*
Y227800D02*
D03*
Y202400D02*
D03*
Y177000D02*
D03*
Y151600D02*
D03*
Y126200D02*
D03*
X74803Y151600D02*
D03*
Y177000D02*
D03*
Y202400D02*
D03*
Y227800D02*
D03*
Y253200D02*
D03*
Y278600D02*
D03*
Y304000D02*
D03*
X49403D02*
D03*
X505237Y542302D02*
D03*
X606837Y61270D02*
D03*
X581437D02*
D03*
X556037D02*
D03*
X530637D02*
D03*
X505237D02*
D03*
X632237D02*
D03*
X683037Y542302D02*
D03*
X657637D02*
D03*
X632237D02*
D03*
X606837D02*
D03*
X581437D02*
D03*
X556037D02*
D03*
X530637D02*
D03*
X723321D02*
D03*
X748721D02*
D03*
X774121D02*
D03*
X799521D02*
D03*
X824921D02*
D03*
X850321D02*
D03*
X875721D02*
D03*
X901121D02*
D03*
X926521D02*
D03*
X951921D02*
D03*
D77*
X860837Y61270D02*
D03*
D78*
X51931Y41270D02*
D03*
Y561270D02*
D03*
X1241931Y41270D02*
D03*
Y561270D02*
D03*
D79*
X654050Y361950D02*
D03*
Y412750D02*
D03*
X730250D02*
D03*
D80*
Y336550D02*
D03*
D81*
X1069000Y406000D02*
D03*
X1043000Y443000D02*
D03*
X906358Y251260D02*
D03*
Y226260D02*
D03*
X833250Y178580D02*
D03*
X826250Y280180D02*
D03*
X592933Y261620D02*
D03*
Y251617D02*
D03*
D82*
X451785Y398750D02*
D03*
X971785Y558750D02*
D03*
X951785Y518750D02*
D03*
X911785D02*
D03*
X891785Y558750D02*
D03*
X871785Y518750D02*
D03*
Y38750D02*
D03*
X831785Y518750D02*
D03*
X851785Y78750D02*
D03*
X831785Y38750D02*
D03*
X811785Y558750D02*
D03*
X791785Y518750D02*
D03*
X811785Y78750D02*
D03*
X791785Y38750D02*
D03*
X751785Y518750D02*
D03*
X771785Y78750D02*
D03*
X751785Y38750D02*
D03*
X731785Y558750D02*
D03*
X711785Y518750D02*
D03*
X731785Y78750D02*
D03*
X711785Y38750D02*
D03*
X691785Y558750D02*
D03*
X671785Y518750D02*
D03*
Y438750D02*
D03*
Y278750D02*
D03*
Y198750D02*
D03*
Y118750D02*
D03*
Y38750D02*
D03*
X651785Y558750D02*
D03*
X631785Y438750D02*
D03*
Y358750D02*
D03*
X651785Y158750D02*
D03*
X631785Y118750D02*
D03*
Y38750D02*
D03*
X591785Y118750D02*
D03*
X611785Y78750D02*
D03*
X591785Y38750D02*
D03*
X571785Y558750D02*
D03*
X551785Y438750D02*
D03*
X571785Y398750D02*
D03*
Y318750D02*
D03*
Y78750D02*
D03*
X551785Y38750D02*
D03*
X511785Y518750D02*
D03*
Y438750D02*
D03*
X531785Y398750D02*
D03*
Y238750D02*
D03*
Y158750D02*
D03*
Y78750D02*
D03*
X511785Y38750D02*
D03*
X491785Y558750D02*
D03*
X471785Y518750D02*
D03*
Y438750D02*
D03*
X491785Y398750D02*
D03*
X471785Y358750D02*
D03*
X491785Y318750D02*
D03*
X471785Y278750D02*
D03*
X491785Y238750D02*
D03*
X471785Y198750D02*
D03*
X491785Y158750D02*
D03*
X471785Y118750D02*
D03*
X491785Y78750D02*
D03*
X471785Y38750D02*
D03*
X431785Y358750D02*
D03*
X451785Y318750D02*
D03*
X431785Y278750D02*
D03*
X451785Y238750D02*
D03*
X431785Y198750D02*
D03*
X451785Y158750D02*
D03*
X431785Y118750D02*
D03*
Y38750D02*
D03*
X391785Y518750D02*
D03*
Y438750D02*
D03*
X411785Y398750D02*
D03*
X391785Y358750D02*
D03*
X411785Y318750D02*
D03*
X391785Y278750D02*
D03*
X411785Y238750D02*
D03*
X391785Y198750D02*
D03*
X411785Y158750D02*
D03*
X391785Y118750D02*
D03*
X411785Y78750D02*
D03*
X391785Y38750D02*
D03*
X371785Y558750D02*
D03*
X351785Y518750D02*
D03*
Y438750D02*
D03*
X371785Y398750D02*
D03*
X351785Y358750D02*
D03*
X371785Y318750D02*
D03*
X351785Y278750D02*
D03*
X371785Y238750D02*
D03*
X351785Y198750D02*
D03*
X371785Y158750D02*
D03*
X351785Y118750D02*
D03*
X371785Y78750D02*
D03*
X331785Y558750D02*
D03*
X311785Y518750D02*
D03*
X331785Y398750D02*
D03*
X311785Y358750D02*
D03*
X331785Y318750D02*
D03*
X311785Y278750D02*
D03*
X331785Y238750D02*
D03*
X311785Y38750D02*
D03*
X291785Y558750D02*
D03*
X271785Y518750D02*
D03*
X291785Y478750D02*
D03*
X271785Y38750D02*
D03*
X251785Y558750D02*
D03*
X231785Y518750D02*
D03*
X251785Y478750D02*
D03*
X231785Y438750D02*
D03*
Y358750D02*
D03*
Y278750D02*
D03*
Y38750D02*
D03*
X211785Y558750D02*
D03*
X191785Y518750D02*
D03*
X211785Y478750D02*
D03*
X191785Y438750D02*
D03*
X211785Y398750D02*
D03*
X191785Y358750D02*
D03*
X211785Y318750D02*
D03*
X191785Y198750D02*
D03*
Y118750D02*
D03*
X171785Y558750D02*
D03*
X151785Y518750D02*
D03*
X171785Y478750D02*
D03*
X151785Y438750D02*
D03*
X171785Y398750D02*
D03*
X151785Y358750D02*
D03*
X171785Y318750D02*
D03*
X151785Y278750D02*
D03*
X171785Y238750D02*
D03*
X151785Y198750D02*
D03*
X171785Y158750D02*
D03*
X151785Y118750D02*
D03*
Y38750D02*
D03*
X131785Y558750D02*
D03*
X111785Y518750D02*
D03*
X131785Y478750D02*
D03*
X111785Y438750D02*
D03*
X131785Y398750D02*
D03*
X111785Y358750D02*
D03*
X131785Y318750D02*
D03*
X111785Y278750D02*
D03*
Y118750D02*
D03*
X131785Y78750D02*
D03*
X111785Y38750D02*
D03*
X71785Y518750D02*
D03*
X91785Y478750D02*
D03*
X71785Y438750D02*
D03*
X91785Y398750D02*
D03*
X71785Y358750D02*
D03*
X91785Y318750D02*
D03*
Y238750D02*
D03*
Y78750D02*
D03*
X31785Y518750D02*
D03*
X51785Y478750D02*
D03*
X31785Y438750D02*
D03*
X51785Y398750D02*
D03*
X31785Y358750D02*
D03*
Y278750D02*
D03*
Y198750D02*
D03*
Y118750D02*
D03*
X1234750Y511750D02*
D03*
X1254750Y471750D02*
D03*
X1234750Y431750D02*
D03*
X1254750Y391750D02*
D03*
X1234750Y351750D02*
D03*
X1254750Y311750D02*
D03*
X1234750Y271750D02*
D03*
X1254750Y231750D02*
D03*
X1234750Y191750D02*
D03*
X1254750Y151750D02*
D03*
X1234750Y111750D02*
D03*
X1194750Y511750D02*
D03*
X1214750Y471750D02*
D03*
Y391750D02*
D03*
X1194750Y351750D02*
D03*
X1214750Y311750D02*
D03*
X1194750Y271750D02*
D03*
X1214750Y231750D02*
D03*
X1194750Y191750D02*
D03*
X1214750Y151750D02*
D03*
X1194750Y111750D02*
D03*
Y31750D02*
D03*
X1174750Y551750D02*
D03*
X1154750Y511750D02*
D03*
X1174750Y311750D02*
D03*
Y71750D02*
D03*
X1154750Y31750D02*
D03*
X1134750Y551750D02*
D03*
X1114750Y511750D02*
D03*
Y271750D02*
D03*
X1134750Y71750D02*
D03*
X1114750Y31750D02*
D03*
X1074750Y271750D02*
D03*
X1094750Y71750D02*
D03*
X1074750Y31750D02*
D03*
X1054750Y311750D02*
D03*
X1034750Y271750D02*
D03*
X1054750Y231750D02*
D03*
X1034750Y111750D02*
D03*
Y31750D02*
D03*
X994750Y351750D02*
D03*
Y271750D02*
D03*
X1014750Y151750D02*
D03*
X974750Y471750D02*
D03*
Y391750D02*
D03*
X954750Y351750D02*
D03*
X974750Y311750D02*
D03*
X954750Y271750D02*
D03*
X974750Y231750D02*
D03*
X954750Y31750D02*
D03*
X934750Y471750D02*
D03*
Y391750D02*
D03*
X914750Y351750D02*
D03*
X934750Y311750D02*
D03*
X914750Y31750D02*
D03*
X894750Y471750D02*
D03*
Y391750D02*
D03*
X874750Y351750D02*
D03*
X854750Y471750D02*
D03*
Y391750D02*
D03*
X834750Y351750D02*
D03*
X814750Y471750D02*
D03*
Y391750D02*
D03*
X794750Y351750D02*
D03*
X774750Y471750D02*
D03*
Y391750D02*
D03*
X754750Y351750D02*
D03*
X734750Y471750D02*
D03*
X714750Y431750D02*
D03*
X734750Y391750D02*
D03*
Y311750D02*
D03*
X714750Y271750D02*
D03*
Y191750D02*
D03*
X734750Y151750D02*
D03*
X441250Y496215D02*
D03*
X572500Y376000D02*
D03*
X98250Y218750D02*
D03*
X563000Y282500D02*
D03*
X652250Y310250D02*
D03*
X976750Y590750D02*
D03*
X513500Y109750D02*
D03*
X688500Y85750D02*
D03*
X756500Y411750D02*
D03*
X1109000Y287250D02*
D03*
X1018500Y187500D02*
D03*
X920000Y11500D02*
D03*
X1013250Y60000D02*
D03*
X956000D02*
D03*
X1066750Y78250D02*
D03*
X1164250Y366250D02*
D03*
X1015000Y513250D02*
D03*
X997500Y447250D02*
D03*
X1113500Y491000D02*
D03*
X711250Y473000D02*
D03*
X709250Y123000D02*
D03*
X750750Y306750D02*
D03*
X750000Y159750D02*
D03*
X897250Y155250D02*
D03*
X1076500Y490750D02*
D03*
X1038500Y493250D02*
D03*
X1042500Y388000D02*
D03*
X1041000Y329500D02*
D03*
X1124000Y330000D02*
D03*
X1066750Y111500D02*
D03*
X980750Y111750D02*
D03*
X940250Y101250D02*
D03*
X1061750Y171250D02*
D03*
X1113750Y228500D02*
D03*
X1105000Y114250D02*
D03*
D83*
X515750Y356190D02*
D03*
Y188356D02*
D03*
X353750Y156750D02*
D03*
X441960Y512250D02*
D03*
X994660Y397900D02*
D03*
X1159882Y350536D02*
D03*
X582500Y274500D02*
D03*
X600000Y289560D02*
D03*
X1096010Y512250D02*
D03*
X1048620D02*
D03*
X556000Y169450D02*
D03*
Y208820D02*
D03*
X924250Y253750D02*
D03*
X1191260Y171450D02*
D03*
X1101090Y139700D02*
D03*
X994410Y369570D02*
D03*
D84*
X1064340Y443150D02*
D03*
Y438150D02*
D03*
X1074340Y433150D02*
D03*
X1069340D02*
D03*
X1064340D02*
D03*
X1074340Y438150D02*
D03*
Y443150D02*
D03*
X1069340D02*
D03*
Y438150D02*
D03*
M02*
