G04*
G04 #@! TF.GenerationSoftware,Altium Limited,Altium Designer,22.8.2 (66)*
G04*
G04 Layer_Color=32768*
%FSLAX44Y44*%
%MOMM*%
G71*
G04*
G04 #@! TF.SameCoordinates,AF58AEFE-5498-464C-92CE-300A63243590*
G04*
G04*
G04 #@! TF.FilePolarity,Positive*
G04*
G01*
G75*
%ADD10C,0.2540*%
%ADD14C,0.1000*%
%ADD17C,0.0254*%
%ADD18C,0.0500*%
D10*
X1001540Y330220D02*
X1112540D01*
Y232220D02*
Y330220D01*
X1001540Y232220D02*
X1112540D01*
X1001540D02*
Y330220D01*
X799820Y221260D02*
Y256260D01*
X764820D02*
X799820D01*
X764820Y221260D02*
Y256260D01*
Y221260D02*
X799820D01*
X824730Y219260D02*
X889730D01*
X824730D02*
Y258260D01*
X889730D01*
Y219260D02*
Y258260D01*
X627150Y297410D02*
X757150D01*
X627150Y167410D02*
X757150D01*
Y297410D01*
X627150Y167410D02*
Y297410D01*
X437460Y555410D02*
X446460D01*
Y527910D02*
Y555410D01*
X437460Y527910D02*
Y555410D01*
Y527910D02*
X446460D01*
X1044120Y555910D02*
X1053120D01*
Y528410D02*
Y555910D01*
X1044120Y528410D02*
Y555910D01*
Y528410D02*
X1053120D01*
X1091510Y555410D02*
X1100510D01*
Y527910D02*
Y555410D01*
X1091510Y527910D02*
Y555410D01*
Y527910D02*
X1100510D01*
X1078750Y394750D02*
X1115250D01*
X1078750D02*
Y412750D01*
X1115250D01*
Y394750D02*
Y412750D01*
X856089Y271560D02*
Y308060D01*
X838089Y271560D02*
X856089D01*
X838089D02*
Y308060D01*
X856089D01*
X290895Y128820D02*
Y165320D01*
X308895D01*
Y128820D02*
Y165320D01*
X290895Y128820D02*
X308895D01*
X260895D02*
Y165320D01*
X278895D01*
Y128820D02*
Y165320D01*
X260895Y128820D02*
X278895D01*
X230895D02*
Y165320D01*
X248895D01*
Y128820D02*
Y165320D01*
X230895Y128820D02*
X248895D01*
X200895D02*
Y165320D01*
X218895D01*
Y128820D02*
Y165320D01*
X200895Y128820D02*
X218895D01*
X587420Y380470D02*
Y436570D01*
Y380470D02*
X621320D01*
X587420Y436570D02*
X621320D01*
Y380470D02*
Y436570D01*
X1035610Y376385D02*
X1100610D01*
X1035610Y341385D02*
Y376385D01*
X1100610Y341385D02*
Y376385D01*
X1035610Y341385D02*
X1100610D01*
X953250Y120010D02*
X1013250D01*
Y224010D01*
X953250D02*
X1013250D01*
X953250Y120010D02*
Y224010D01*
X415180Y523652D02*
X433180D01*
Y560152D01*
X415180D02*
X433180D01*
X415180Y523652D02*
Y560152D01*
X1021578Y523652D02*
X1039578D01*
Y560152D01*
X1021578D02*
X1039578D01*
X1021578Y523652D02*
Y560152D01*
X1069230Y523652D02*
X1087230D01*
Y560152D01*
X1069230D02*
X1087230D01*
X1069230Y523652D02*
Y560152D01*
X1023140Y214260D02*
X1065140D01*
X1023140Y129560D02*
Y214260D01*
Y129560D02*
X1065140D01*
Y214260D01*
X615195Y311890D02*
Y367990D01*
X593395Y311890D02*
X615195D01*
X593395Y367990D02*
X615195D01*
X593395Y311890D02*
Y367990D01*
X1098500Y435500D02*
X1135000D01*
Y417500D02*
Y435500D01*
X1098500Y417500D02*
X1135000D01*
X1098500D02*
Y435500D01*
X1098750Y439750D02*
X1135250D01*
X1098750D02*
Y457750D01*
X1135250D01*
Y439750D02*
Y457750D01*
X1038970Y446820D02*
Y483320D01*
X1020970Y446820D02*
X1038970D01*
X1020970D02*
Y483320D01*
X1038970D01*
X1050798Y461540D02*
X1106898D01*
X1050798D02*
Y483340D01*
X1106898Y461540D02*
Y483340D01*
X1050798D02*
X1106898D01*
X1004400Y386100D02*
Y442200D01*
Y386100D02*
X1033600D01*
X1004400Y442200D02*
X1033600D01*
Y386100D02*
Y442200D01*
X1120880Y264820D02*
X1176980D01*
X1120880Y235620D02*
Y264820D01*
X1176980Y235620D02*
Y264820D01*
X1120880Y235620D02*
X1176980D01*
X1120880Y226015D02*
X1176980D01*
X1120880Y196815D02*
Y226015D01*
X1176980Y196815D02*
Y226015D01*
X1120880Y196815D02*
X1176980D01*
X1120880Y187210D02*
X1176980D01*
X1120880Y158010D02*
Y187210D01*
X1176980Y158010D02*
Y187210D01*
X1120880Y158010D02*
X1176980D01*
X1120880Y148405D02*
X1176980D01*
X1120880Y119205D02*
Y148405D01*
X1176980Y119205D02*
Y148405D01*
X1120880Y119205D02*
X1176980D01*
X1120880Y109600D02*
X1176980D01*
X1120880Y80400D02*
Y109600D01*
X1176980Y80400D02*
Y109600D01*
X1120880Y80400D02*
X1176980D01*
X1106250Y369250D02*
X1115250D01*
Y341750D02*
Y369250D01*
X1106250Y341750D02*
Y369250D01*
Y341750D02*
X1115250D01*
X1121000Y341385D02*
Y377885D01*
X1139000D01*
Y341385D02*
Y377885D01*
X1121000Y341385D02*
X1139000D01*
X1027645Y341410D02*
Y377910D01*
X1009645Y341410D02*
X1027645D01*
X1009645D02*
Y377910D01*
X1027645D01*
X1121380Y317920D02*
X1130380D01*
Y290420D02*
Y317920D01*
X1121380Y290420D02*
Y317920D01*
Y290420D02*
X1130380D01*
X1073730Y204060D02*
X1082730D01*
Y176560D02*
Y204060D01*
X1073730Y176560D02*
Y204060D01*
Y176560D02*
X1082730D01*
X885854Y271560D02*
Y308060D01*
X867854Y271560D02*
X885854D01*
X867854D02*
Y308060D01*
X885854D01*
X847644Y169944D02*
Y206444D01*
X865644D01*
Y169944D02*
Y206444D01*
X847644Y169944D02*
X865644D01*
X877410D02*
Y206444D01*
X895410D01*
Y169944D02*
Y206444D01*
X877410Y169944D02*
X895410D01*
X915620Y271560D02*
Y308060D01*
X897620Y271560D02*
X915620D01*
X897620D02*
Y308060D01*
X915620D01*
X823738Y169960D02*
Y206460D01*
X805738Y169960D02*
X823738D01*
X805738D02*
Y206460D01*
X823738D01*
X786557Y271560D02*
Y308060D01*
X768558Y271560D02*
X786557D01*
X768558D02*
Y308060D01*
X786557D01*
X816323Y271560D02*
Y308060D01*
X798323Y271560D02*
X816323D01*
X798323D02*
Y308060D01*
X816323D01*
X595680Y160570D02*
Y197070D01*
X613680D01*
Y160570D02*
Y197070D01*
X595680Y160570D02*
X613680D01*
X572820Y199940D02*
Y236440D01*
X590820D01*
Y199940D02*
Y236440D01*
X572820Y199940D02*
X590820D01*
X595680D02*
Y236440D01*
X613680D01*
Y199940D02*
Y236440D01*
X595680Y199940D02*
X613680D01*
X791582Y169960D02*
Y206460D01*
X773582Y169960D02*
X791582D01*
X773582D02*
Y206460D01*
X791582D01*
X572820Y160570D02*
Y197070D01*
X590820D01*
Y160570D02*
Y197070D01*
X572820Y160570D02*
X590820D01*
D14*
X1048000Y385000D02*
Y396000D01*
X1072000Y385000D02*
Y396000D01*
X1048000D02*
X1072000D01*
X1048000Y385000D02*
X1072000D01*
X1055250Y390500D02*
X1064750D01*
X1060000Y385750D02*
Y395250D01*
X692150Y232410D02*
X697230D01*
X692150D02*
Y237490D01*
X687070Y232410D02*
X692150D01*
Y227330D02*
Y232410D01*
X1096090Y182560D02*
X1106090D01*
X1101090Y177560D02*
Y187560D01*
D17*
X638795Y170180D02*
Y294386D01*
D18*
X1112590Y159060D02*
Y206060D01*
X1089590Y159060D02*
Y206060D01*
X1112590D01*
X1089590Y159060D02*
X1112590D01*
X652197Y298408D02*
X732092D01*
Y166370D02*
Y298408D01*
X652197Y166370D02*
X732092D01*
X652197D02*
Y298408D01*
M02*
